P1
200 70
00000000000000000000000000000000000000000000000000000000000000000000000000000000000000000000000000000000000000000000000000000000000000000000000000000000000000000000000000000000000000000000000000000000
00000000000000000000000000000000000000000000000000000000000000000000000000000000000000000000000000000000000000000000000000000000000000000000000000000000000000000000000000000000000000000000000000000000
00000000000000000000000000000000000000000000000000000000000000000000000000000000000000000000000000000000000000000000000000000000000000000000000000000000000000000000000000000000000000000000000000000000
00000000000000000000000000000000000000000000000000000000000000000000000000000000000000000000000000000000000000000000000000000000000000000000000000000000000000000000000000000000000000000000000000000000
00000000000000000000000000000000000000000000000000000000000000000000000000000000000000000000000000000000000000000000000000000000000000000000000000000000000000000000000000000000000000000000000000000000
00000000000000000000000000000000000000000000000000000000000000000000000000000000000000000000000000000000000000000000000000000000000000000000000000000000000000000000000000000000000000000000000000000000
00000000000000000000000000000000000000000000000000000000000000000000000000000000000000000000000000000000000000000000000000000000000000000000000000000000000000000000000000000000000000000000000000000000
00000000000000000000000000000000000000000000000000000000000000000000000000000000000000000000000000000000000000000000000000000000000000000000000000000000000000000000000000000000000000000000000000000000
00000000000000000000000000000000000000000000000000000000000000000000000000000000000000000000000000000000000000000000000000000000000000000000000010000000000000000000000000000000000000000000000000000000
00000000000000000000000000000000000100000000000000000000000000000000000000000000000000000000000000000011100000000000000000000000000000000000000011100000000000000000000000000000000000000000000000000000
00000000000000000000000000000000001110000000000000000000000111000000000000000000000000000000000000000001100000000000000000000000000000000000000000000000000000000000000000000000000000000000000000000000
00000000000000000000000000000000111110000000011100000000000010000000000000000000000000000000000000000000000000000011100000000000000000000000000000000000000000000000000000000000011100000000000000000000
00000000000000000000000000000000001111000000011100000000000000000000000000000000000000000000000000000000000000000011100000000000000000000000001111000000000000000000000000000000011100000000000000000000
00000000000000000000000000000000000111100000000000000000011110000111000000000000000000000000000000000000000000000000000000000000000000000001111111111000000000000000000000000000000000000000000000000000
00000000000000000000000000000000001111100000000000000111111111000111000000000000000000000000000000000000000000000000000000000000000000000111111111111110000000000000000000000000000000000000000000000000
00000000000000000000000000000000000111100000000000011111111111110000000000000000000000000000000000000000000000000000000000000000000000001111111111111110000000000000000000000000000000000000000000000000
00000000000000000000000000000000000011110001100000111111111111111000000000000000000000001110000000000000000000000000000000000000000000011111111111111111000000000000000000000000000000000000000000000000
00000000000000000000000000000000000001111111100111111111111111111100000000000000000000001111000000000000000000000000000000000000000000111111110000111111100000000000000000000000000000000000000000000000
00000000000000000000000000000000000001111110000111111111111111111100000000000000000000001111110000000000000000000000000000000000000000111111000000001111100000000000000000000000000000000000000000000000
00000000000000000000000000000000000000111110000111111110000111111000000000000000000000011111110000000000000000000000000000000000000000111110000000000111100000000000000000000000000000000000000000000000
00000000000000000000000000000000000000111111000111111100000001111000000000000000000000011111111000000000000011100000000000000000000001111000000000000000000000000000000000000000000000000000000000000000
00000000000000000000000000000000000000011111111111111000000000111111000000000000001111100111111000000000000011100000000000000000000001111000000000000000000000000000000000000000000000000000000000000000
00000000000000000000000000000000000000001111111111110000000000111111000000000000011111000111111000000000000000000000000000000000000001111100000000000000000000000000000000000000000000000000000000000000
00000000000000000000000000000000000000000011111111110000000000011111100000000001111111001111111100000000000000011111000000000000011111111000000000000000000000000000000000000000000000000000000000000000
00000000000000000000000000000000000000000000011101100000000000011111100000000001111111111111111000000000000111111111100000000000111111111000000000000000000000000000000000000000000000000000000000000000
00000000000000000000000000000000000000000000011101100000000000011111100000000011111111111111011000000000011111111111000000000000000111111000000000000000000000000000010000000000000000000000000000000000
00000000000000000000000000000000000000000000111111110000000000011111100000000000111110001110001000000000111111111111100000000000000011111000000000000000111000000000111000000000000000000000000000000000
00000000000000000000000000000000000000000000111111111100000000011111100000000100111100000100011000000001111111111111110000000001110011111000011111111100111001110011111000000000000000000000000000000000
00000000000000000000000000000000000000000001111111111110000000011111100000000111111000001110111000000001111111111111110000000001110011111000111111111111100000111111111100000000000000000000000000000000
00000000000000000000000000000000000000000111111111111100100000011111100000011111110000001111110000000001111111111111110000000000000011111111111111001111100000111111110000000000000000000000000000000000
00000000000000000000000000000000000000000111111110011000110000011111100001111111110000001111110000000000011110011111110000000000000011111111111110000111111001111001100000000000000000000000000000000000
00000000000000000000000000000000000000000011111100000010001100011111100001111111100000000011110000000000001100001111111000000000000011111111111110001111111111111000000000000000000000000000000000000000
00000000000000000000000000000000000000000001111100000000001111111111111100111111100000000001110000000000000000001111111000000000000011111111100000011111011111111100000000000000000000000000000000000000
00000000000000000000000000000000000000000001111100000000011111111111100100111111000000010001110000000000000000011111111000000000000011111111000000011111011111100000000000000000000000000000000000000000
00000000000000000000000000000000000000000011111100000011111111111111100000111111000000011011100000000000000000011110011000000000000011111111100001111111111110000000000000000000000000000000000000000000
00000000000000000000000000000000000000000011111100000011100011111111111000111111000000011111100000000000000000011100001000000000000010011111110011111111111110000000000000000000000000000000000000000000
00000000000000000000000000000000000000000011111100000000000000111111100001111111000000011111100000000000000000000000011000000111000010011111111111111111111110000000000000000000000000000000000000000000
00000000000000000000000000000000000000000011111100000000000000111111000111111111100000111111100000000000000000000001111100001111111111111111111111100001111110000000000000000000000000000000000000000000
00000000000000000000000000000000000000000011111100000000000000011111001111111111111111111111111111111111111111111111111111111111111111111111100000000001111111000000000000000000000000000000000000000000
00000000000000000000000000000000111000000011111000000000000000001110000111111111111111111111111111111111111111111111111111111111111111111110000000000001111111011100000000000000000000000000000000000000
00000000000000000000000000000000111000000011111000000000000000001110000011111110111111111111111111111111111111111111111111111110000011111100000000000001111000011100000000000000000000000000000000000000
00000000000000000000000000000000000000000011111000000000000000111111000011111100000011111111111111111111111111111111111110000000000001111100111000000111111000000000000000000000000000000000000000000000
00000000000000000000011100000000000000000011111100000000000001111110000011111100000000111110000000000000000000011111111100000000000001110000111000000111111110000000000000000000000000000000000000000000
00000000000000000000011100000000000000000011111100000000000001110010000011111100000000111100000000000000000000011111111000000000000001100000000000000001111110000000000000000000000000000000000000000000
00000000000000000000000000000000000000000011111100000000000001110000011001111000000011111100000000000000000000011111111000000000000011110000000000000000111110000000000000000000000000000000000000000000
00000000000000000000000000000000000000000011111100000000000011111110011101111000000011111000000000000000000000011111111000000000000011111100000000000001111100000000000000000000000000000000000000000000
00000000000000000000000000000000000000000001111100000000000011111110001111111000000111100000000000000000000000011111100100000000000001111110000000000011111100000000000000000000000000000000000000000000
00000000000000000000000000000000000000000001111100000000000011111100001111111000001111000000000000000000111000011111100100000000000001111100000000000111111100000000000000000000000000000000000000000000
00000000000000000000000000000000000000000001111100000000000111111100000111111000011111000000000000000000000000001111111100000000000001111100000000000111111100000000000000000000000000000000000000000000
00000000000000000000000000000000000000000001111110000000000111111000000111111000011100100000000000000000000000001111111100000000000001111110000000001111110000000000000000000000000000000000000000000000
00000000000000000000000000000000000000000000111111000000001111110000000111111101111100000000000000000000000000001111111100000000000001111110000000001111100000000000000000000000000000000000000000000000
00000000000000000000000000000000000000000000001111000000011111100000000011111111111111000000000000000000001111111111111110000000000000111111000000111111100000000000000000000000000000000000000000000000
00000000000000000000011100000000000000000000001111110000011111100000000011111111111110000000000000000001111111111011111111110011000000111111110001111111000000000000000000000000000000000000000000000000
00000000000000000000011100000000000000000000001111111100011111100000000111111111111100000000000000000001001111111011111111111111100000011111110001111110000000000000000000000000000000000000000000000000
00000000000000000000000000000000000000000000001111110000111111000000000111111111111100000000000000000001001111111111111111111111100000011111110000100000000000000000000000000000000000000000000000000000
00000000000000000000000000000000000000000000000111110011111111000000000011111111111000000000000000000001111111111111111111111111100000001111111000000000000000000000000000000000000000000000000000000000
00000000000000000000000000000000000000000000000011111111111110000000000011111111110000000000000000000001111111111111111111111111100000001111111100000000000000000000000000000000000000000000000000000000
00000000000000000000000000000000000000000000000000011111111000000000000000111110000000000000000000000000000000000011111111111111100000001100111100000000000000000000000000000000000000000000000000000000
00000000000000000000000000000000000000000000000000000111100000000000000000000000000000000000000000000000000000000000000000000000000000000000011000000000000000000000000000000000000000000000000000000000
00000000000000000000000000000000000000000000011100000000000000000000000000000000000000000000000000000000000000000000000000000000000000000000010000000000000000000000000000000000000000000000000000000000
00000000000000000000000000000000000000000000011100000000000000000000000000000000000000000000000000000000000000000000000000000000000000000000000000000000000000000000001110000000000000000000000000000000
00000000000000000000000000000000000000000000000000000000000000000000000000000000000000000000000000000000000000000000000000000000000000000000000000000000000000000000001110000000000000000000000000000000
00000000000000000000000000000000000000000000000000000000000000111000000000000000000000000000000000000000000000000000000000000000000000000000000000000000000000000000000000000000000000000000000000000000
00000000000000000000000000000000000000000000000000000000000000111000000000000000000000000000000000000000000000000000000000000000000000000000000000000000000000000000000000000000000000000000000000000000
00000000000000000000000000000000000000000000000000000000000000000000000000000000000000000000000000000000000000000000000000000000000000000000000000000000000000000000000000000000000000000000000000000000
00000000000000000000000000000000000000000000000000000000000000000000000000000000000000000000000000000000000000000000000000000000000000000000000000000000000000000000000000000000000000000000000000000000
00000000000000000000000000000000000000000000000000000000000000000000000000000000000000000000000000000000000000000000000000000000000000000000000000000000000000000000000000000000000000000000000000000000
00000000000000000000000000000000000000000000000000000000000000000000000000000000000000000000000000000000000000000000000000000000000000000000000000000000000000000000000000000000000000000000000000000000
00000000000000000000000000000000000000000000000000000000000000000000000000000000000000000000000000000000000000000000000000000000000000000000000000000000000000000000000000000000000000000000000000000000
00000000000000000000000000000000000000000000000000000000000000000000000000000000000000000000000000000000000000000000000000000000000000000000000000000000000000000000000000000000000000000000000000000000
