P1
200 70
00000000000000000000000000000000000000000000000000000000000000000000000000000000000000000000000000000000000000000000000000000000000000000000000000000000000000000000000000000000000000000000000000000000
00000000000000000000000000000000000000000000000000000000000000000000000000000000000000000000000000000000000000000000000000000000000000000000000000000000000000000000000000000000000000000000000000000000
00000000000000000000000000000000000000000000000000000000000000000000000000000000000000000000000000000000000000000000000000000000000000000000000000000000000000000000000000000000000000000000000000000000
00000000000000000000000000000000000000000000000000000000000000000000000000000000000000000000000000000000000000000000000000000000000000000000000000000000000000000000000000000000000000000000000000000000
00000000000000000000000000000000000000000000000000000000000000000000000000000000000000000000000000000000000000000000000000000000000000000000000000000000000000000000000000000000000000000000000000000000
00000000000000000000000000000000000000000000000000000000000000000000000000000000000000000000000000000000000000000000000000000000000000000000000000000000000000000000000000000000000000000000000000000000
00000000000000000000000000000000000000000000000000000000000000000000000000000000000000000000000000000000000000000000000000000000000000000000000000000000000000000000000000000000000000000000000000000000
00000000000000000000000000000000000000000000000000000000000000001110000000000000000000000000000000000000000000000000000000000000000000000000000000000000000000000000000000000000000000000000000000000000
00000000000000000000000000000000000000000000000000000000000000001110000000000000000000000000000000000000000000000000000000000000000000000000000000000000000000000000000000000000000000000000000000000000
00000000000000000000000000000000000000000000000000000000000000000000001110000000000000000000000000000000000000000001111100000000000000000000000000000000000000000000000000000000000000000000000000000000
00000000000000000000000000000000000000000000000000000000000000000000001110000000000001111111000000000000000000000001111111100001110000000000000000000000000111000000000000000000000000000000000000000000
00000000000000000000000000000000000000000000000000000000000000000000000000000000000111111111111000000000000000000011111111111001110000000000000000000111000111000000000000000000000000000000000000000000
00000000000000000000000000000000000000000000000000000000000000000000000000000000001111111111111110000000000000000011111111111110000000000000000000000111000000000000000000000000000000000000000000000000
00000000000000000000000000000000011100000000000011110000000000000000000000000000111111111111111111000000000000001111111111111110000000000000000000100010000000000000000000000000000000000000000000000000
00000000000000000000000000000000001100000000011111111111000000000000000000000001111111111111111111100000000000011111111111111111000000000000000000111111100000000000000000000000000000000000000000000000
00000000000000000000000000000000011110000000111111111111100000000000000000000001111111111111111111111100000000111110111111111111100000111000000000111111111000000000000000000000000000000000000000000000
00000000000000000000000000000000111111100011001111111111000000000000000000000000111111111111111111111110000000111110111000000111111111111000000000111111011111000000001110000000000000000000000000000000
00000000000000000000000000000000011111110011101111111111100000000000000000000001111111111111111011111111000000011111111100000001111111110000000000111111001110000011111110000000000000000000000000000000
00000000000000000000000000000000001111111111111111111111111100000000000000000111111111111111111001111111000000001111111110000000011111110000000000111111110000001111111100000000000000000000000000000000
00000000000000000000000000000000000011111111111111111111111110000000000000000111111111111000111100011111000000000111101110000000000011110000000000111111111001111111111100000000000000000000000000000000
00000000000000000000000000000000000001111111111111111111111111000000000000001111111111110000001110000111000000000000000000000000000011111000001110111111111111111101111000000000000000000000000000000000
00000000000000000000000000000000000000111111111111111111111111000000000000001111111111110000000111100111100000000000000000000000000011111100001110011111111111111101111000000000000000000000000000000000
00000000000000000000000000000000000000111111111111111111111111100000000000001111111111100000000001111111110000000000000000000000000011111110000000000000000111111111110000000000000000000000000000000000
00000000000000000000000000000000000000111111111111001111111111100000000000001111111111000000000001111111110000000000000000000000000001111110000000000000000001111111110000000000000000000000000000000000
00000000000000000000000000000000000000111111111111000111111111100000000000011111111111000000000011111111110000000000000000000000000001111110000000000000000000111111110000000001110000000000000000000000
00000000000000000000000000000000000000111111111111100111111111110000000000011111111111000000000011111111110000000000000000000000000011111111000000000000000000111111110000000001110000000000000000000000
00000000000000000000000000000000000001111111111111111111111111110000000000011111111111000000000000011110111000000000000000000000000011111110000000000000000001111111110000000000000000000000000000000000
00000000000000000000000000000000000001111111111110011111111111110000000000000011111111000000000000011100011000000000000000000000000011111111000000000000000011111111100000000000000000000000000000000000
00000000000000000000000000000000000000111111111000001111111111111000000000000011111111000000000011111100000000000000000000000000000011111111000000000000000111111111000000000000000000000000000000000000
00000000000000000000000000110000000000111111110000000111111111111000000000011111111110000000000111111110000000000000000000000000000111111111000000000000000111111110000000000000000000000000000000000000
00000000000000000000000000110000000001111111110000000011111111111000000000011111111100000000000011111111110000000000000000000000001111111110000000000000001111111100000000000000000000000000000000000000
00000000000000000000000000000000000001111111110000000001111111111000000000011111111110000000000011111111110000000000000000000000001111111110000000000000001111111000000000000000000000000000000000000000
00000000000000000000000000000000000011111111110000000001111111111000000000011111111111000000000011111111110000000000000000111000011111111100000000000000011111111000000000000000000000000000000000000000
00000000000000000000000000000000000011111111110000000000011111111100000000011111111111000000000011111111110000000000000000111001111111111000000000000000111111111000000000000000000000000000000000000000
00000000000000000000000000000000000001111111110000000000011111111111000000011111101110000000000111111111100000000000000000000011111111110000000000000000111111110000000000000000000000000000000000000000
00000000000000000000000000000000000001111111100000000000111111111111100000011111001110000000000111111111100000000000000000100111111100100000000000000001111111100000000000000000000000000000000000000000
00000000000000000000000000000000000011111111100000000000111111111111110011111100111110000000000100111110000000000000000000111111111000000000000000000001111111100011100000000000000000000000000000000000
00000000000000000000000000000000000011111111100000000000111111111111111111111101111110000000000100111110000000000000000000001111110000000000000000000000001111000011100000000000000000000000000000000000
00000000000000000000000000000000000011111111110000000000111111111100001111111111111110000011100001111111100000000000000000001111100000000000000000000000000111000000000000000000000000000000000000000000
00000000000000000000000000000000000011111111000000000000111111111100000001111111111111000011100011111111000000000000000011100011000000000000000000000000001110000000000000000000000000000000000000000000
00000000000000000000000000000000000011111111000000000000111111111100000001111111111111100011111111111111000000000000001111100000000000000011100000000111111110000000000000000000000000000000000000000000
00000000000000000000011100000011000011111111110000000000111111110000000011111111100001110111111111111110000000000000111111110000000000000011100000001111111100000011100000000000000000000000000000000000
00000000000000000000011100000011000011111101110000000000111111110000000011101111100001111111111111111110000000000001111111100000000000000000000000001111111100000011100000000000000000000000000000000000
00000000000000000000000000000000000011111101110000000001111111111100000000001111111111111111111111111100000000000111111110000000000000000000000000011111111000000000000000000000000000000000000000000000
00000000000000000000000000000000000011111111110000000001111111111100000000000111111111111111111111111000111000001111111000000000000000000000000001111000111000000000000000000000000000000000000000000000
00000000000000000000000000000000000000111111110000000000111110111100000000001111111111111111111111111101111111111101110000000000000000000000000000000000110000000000000000000000000000000000000000000000
00000000000000000000000000000000000000111111110000000000111110111100000000001111111111111111110111111111111111111101111000000000000000000000000000000111110000000000000000000000000000000000000000000000
00000000000000000000111000000000000011111111111000000000111111111100000000001110111111111001110111110000001111111111111000111110000000000000000000111111100000000000000000000000000000000000000000000000
00000000000000000000111000000000000011111111111000000000111111111100000000001100111111110001111111100000000111111111000111111111111111000000000000111111100000000000000000000000000000000000000000000000
00000000000000000000000000000000000000011111111000000001111111111000000000000011111101110011111111000000000111111000000011111111111111111111110000111111111100000000000000000000000000000000000000000000
00000000000000000000000000000000000000001111111000000001111111100000000000000000111101111111111110000000001100100000000000000111111111111110111001111111111100000000000000000000000000000000000000000000
00000000000000000000000000000000000000011111111000000011111111000000000000000000011111111111111000000000111100000000000000000111110001111100011111111111100000000000000000000011100000000000000000000000
00000000000000000000000000000000000000111111111100000111111000111000000000000000001111111111100000000000111111111111111110001111100000000000001111111111100000000000000000000011100000000000000000000000
00000000000000000000000000000000000000111111111110001111100001111000000000000000000000111000000000000001111111111111111111111111100000000000000111111111111000000000000000000011000000000000000000000000
00000000000000000000000000000000000000111111111111111111100111110000000000000000000000000000000000000011111111111111111111111111100000000000000011101111111110000000000000000010000000000000000000000000
00000000000000000000000000000000000000111111111111111111111111110000000000000000000000000000000000000111111111111111111111111111000000000000000001001111111111110000000000000000000000000000000000000000
00000000000000000000000000000000000000011111111111111111111111100000000000000000000000000000000000000111111111111111111111111111000000000000000000111111111111111100000000000000000111000000000000000000
00000000000000000000000000000000000000001111111111111111111111100001110000000000000000000000000000000111111111111111101110111111000000000000000000000110000111111110000000000000000111000000000000000000
00000000000000000000000000000000000000001111111111111111111111000001100000000000000000000000000000001111000000000000000000000111000000000000000000000000000000111111100000000000000000000000000000000000
00000000000000000000000000000000000000001111111111111111111110000000000000000000000000000000000000000000000000000000000000000000000000000000000000000000000000011111110000000000000000000000000000000000
00000000000000000000000000000000000000011111111111111111111100000000000000000000000000000000000000000000000000000000000000000000000000000000000000000000000000000111111100000000000000000000000000000000
00000000000000000000000000000000000000011100111111111111110000000000000000000000000000000000000000000000000000000000000000000000000000000000000000000000000000000011111000000000000000000000000000000000
00000000000000000000011100000000000000000000001111111111100000000000000000000000000000000000000000000000000010000000010000000000000000000000000000000000000000000000111000000001110000000000000000000000
00000000000000000000011100000000000000000000000000000000000000000000000000000000000000000000000000000000000010000000010000000000000000000000000000000000000000000000010000000001110000000000000000000000
00000000000000000000000000000000000000000000000000000000000000000000000000000000000000000000000000000000000000000000000000000000000000000000000000000000000000000000000000000000000000000000000000000000
00000000000000000000000000000000000000000000000000000000000000000000000000000000000000000000000000000000000000000000000000000000000000000000000000000000000000000000000000000000000000000000000000000000
00000000000000000000000000000000000000000000000000000000000000000000000000000000000000000000000000000000000000000000000000000000000000000000000000000000000000000000000000000000000000000000000000000000
00000000000000000000000000000000000000000000000000000000000000000000000000000000000000000000000000000000000000000000000000000000000000000000000000000000000000000000000000000000000000000000000000000000
00000000000000000000000000000000000000000000000000000000000000000000000000000000000000000000000000000000000000000000000000000000000000000000000000000000000000000000000000000000000000000000000000000000
00000000000000000000000000000000000000000000000000000000000000000000000000000000000000000000000000000000000000000000000000000000000000000000000000000000000000000000000000000000000000000000000000000000
