P1
200 70
00000000000000000000000000000000000000000000000000000000000000000000000000000000000000000000000000000000000000000000000000000000000000000000000000000000000000000000000000000000000000000000000000000000
00000000000000000000000000000000000000000000000000000000000000000000000000000000000000000000000000000000000000000000000000000000000000000000000000000000000000000000000000000000000000000000000000000000
00000000000000000000000000000000000000000000000000000000000000000000000000000000000000000000000000000000000000000000000000000000000000000000000000000000000000000000000000000000000000000000000000000000
00000000000000000000000000000000000000000000000000000000000000000000000000000000000000000000000000000000000000000000000000000000000000000000000000000000000000000000000000000000000000000000000000000000
00000000000000000000000000000000000000000000000000000000000000000000000000000000000000000000000000000000000000000000000000000000000000000000000000000000000000000000000000000000000000000000000000000000
00000000000000000000000000000000000000000000000000000000000000000000000000000000000000000000000000000000000000000000000000000000000000000000000000000000000000000000000000000000000000000000000000000000
00000000000000000000000000000000000000000000000000000000000000000000000000000000000000000000000000000000000000000000000000000000000000000000000000000000000000000000000000000000000000000000000000000000
00000000000000000000000000000000011100000000000000000000000000000000000000000000000000000000000000000000000000000000000000000000000000000000000000000000000000000000000000000000000000000000000000000000
00000000000000000000000000000000011100000000000000000000000000000000111000000000000000000000000000000000000000000000000000000000000000000000000000000000000000000000000000000000000000000000000000000000
00000000000000000000000000000000000000000000000000000000000000000000111000000000000111000000000000000000000000000000000000000000000000000000000000000000000000000000000000000000000000000000000000000000
00000000000000000000000000000000000000000000000000000000000000000000000000000000001111000000000000000000000000000000000000000000000000000000000000000000000000000000000000000000000000000000000000000000
00000000000000000000000000000000000000000000000000000001100000000000000000001111111111100000000000000000000000000000000000000000000000000000000000000000000000000000000000000000000000000000000000000000
00000000000000000000000000000000000000000000000000000011100000000000000011001111111111111100000000000000000000000000000000000000000000000000000000000000000000000000000000000000000000000000000000000000
00000000000000000000000000000000000000000000000000000011100000000000000111101111111111111110000000000000000000000000000000000000000000000000000000000000000000000000000000000000000000000000000000000000
00000000000000000000000000000000000000001110000000011111110000000000001111111111111111111111000000000000000000000000000000000000000000000000000000011100000000000000000000000000000000000000000000000000
00000000000000000000000000000000000000000110000000111111111001000000011111111111111111111111100000000000000000000000000000000000000000000000000000010000000000000000000000000000000000000000000000000000
00000000000000000000000000000000000000000000000001111100111111000000111111111110011110011111110000000000000000000000000000000000000000000000000000000000000000000000000000000000000000000000000000000000
00000000000000000000000000000000000000000000000011111100001111100001111111111000000000011111110000000000000000000000000000000000000111000000000000001110000111110000000000000000000000000000000000000000
00000000000000000000000000000000000000000000000011111111001111110001111111110000000000111111111000000000000000000000000000000000000111000000000000011111111111111000000000011100000000000000000000000000
00000000000000000000000000000000000000000000000000111111111111111001111111110000000000111100111000000000000000100000000000000000000000000000000000011111111111111000000000011100000000000000000000000000
00000000000000000000000000000000000000000000000110111110001111111001111111111000000000011100011100000000000011111111000000000000000000000000000000111111111111111000000000000000000000000000000000000000
00000000000000000000000000000000000000000000001111111100001111111011111111110000000000001110011100000000000011111111110000000000000000000000000001111111111111111000000000000000000000000000000000000000
00000000000000000000000000000000000000000000001111111100000111111011111111100000000000001111111100000000000011111111111111000001110000000000000011111111011111111000000000000000000000000000000000000000
00000000000000000000001110000000000000000000011111110000000111111111111111000000000000001111111100000000000001111111111110000001110000000000000100111111011111111000000000000000000000000000000000000000
00000000000000000000001110000000000000011100011111110000000111111111111111000000000000000111111100000000001000110000111111001000000000000000001110111111111111111000000000000000000000000000000000000000
00000000000000000000000000000000000000011100111111100000000111111111111111111000000000000111111110000000001100000000011111111100000000000000011111111111011111111000000000000000000000000000000000000000
00000000000000000000000000000000000000000000111111100000001111111111111110110000000000000111111110000000011111000000001111111100000000000000111111111111011111111000000000000000000000000000000000000000
00000000000000000000000000000000000000000000111111100000001111111111111100000000000000000111111110000000011111000000000111111110000000000001111111111111111111111000000000000000011100000000000000000000
00000000000000000000000000000000000000000001111111000000001111111111111100000000000000000111110110000000001110000000000111111110000000000011111111111111111111110000000000000000011100000000000000000000
00000000000000000000000000000000000000000001111111000000001111111111111110000000111100000111110110000000000000000000000111111111000000000111111111001111111111110000000000000000000000000000000000000000
00000000000000000000000000000000000000000001111111000000001111111111111110000001111111000111111110000000000000000000000111111111000000001111111110001111111111110000000000000000000000000000000000000000
00000000000000000000000000000000000000000001111111101000111111111111111110000011111111000011111110000000000000000000000111111110000000001111111111011111111111110000000000000000000000000000000000000000
00000000000000000000000000000000000000000110011111111101111111111011111111001111101111000011111110000000000000000000000111111110000000001111111110000111111111100000000000000000000000000000000000000000
00000000000000000000000000000000000000000111011111111111111111111011111111111111101111000111111110000000000000000000001111111110000000011111111100000111111111000000000000000000000000000000000000000000
00000000000000000000000000000000000000000111111111111111111111111111111110011111111111000111111110000000000000000000001001111100000000111111111000001111111111000000000000000000000000000000000000000000
00000000000000000000000000000000000000111111111111000000011111111111111100011111111011111111111110000000000000000000011101111100000000011111110000011111111111100000000000000000000000000000000000000000
00000000000000000000000000000000000001111111111100000000011111110011111100111111110011111111111110000000000011111000011111111110000000111111110000011111111111100000000000000000000000000000000000000000
00000000000000000000000000000000000111111111011000000000011110010011111110111000000111111111111110000000000011111100011111111100001111111111100000011111111111000000000000000000000000000000000000000000
00000000000000000000000000000000001111111111011100000000111110000011111110000000000000111111111000000000000011111110111111111001111110111111000000011111111111000000000000000000000000000000000000000000
00000000000000000000000000000000011111111111111100000000111111000011111111000000000000001111111001000000000011111111111001110001111100111110000000011111111111000000000000000000000000000000000000000000
00000000000000000000000000000000011111001111111000000001111111000000111111000000000000000111111111111100000001111111110000000000110011111100000000111111111111000000000000000000000000000000000000000000
00000000000000000000000000000000011100001111111000000001111111000000111111000000000000000111111111110001000000011111100000000001110111111000000000111111111111000000000000000000000000000000000000000000
00000000000000000000000000000000001000001111111100000011111110000011111111000000000000000111111111100011110000000111101110000011111111111000000000111111111110000000000000000000000000000000000000000000
00000000000000000000000000000111000000001111111110000001111110000011111111000000000000000001111000001111111100000011111111000011111111100000000000111111111110000000000000000000000000000000000000000000
00000000000000000000000000000111000000001111111111110011111100000011111111100000000000000001110000000011111111000001111111000111111111100000000000111101111100000000001110000000000000000000000000000000
00000000000000000000000000000000000000000111111111111111111000000011111111100000000000011111100000000000011110011011110111000111111111111110000001111101110000000000001110000000000000000000000000000000
00000000000000000000000000000000000000001111111111111111110000000011111111100000000000111111100000110000001100111111110110000111111111111111111111111111110011111110000000000000000000000000000000000000
00000000000000000000000000000000000000001111111111111111100000000000011111100000000001111111000001111000000011111111111111000111111111111111111111111111111111111110000000000000000000000000000000000000
00000000000000000000000000000000000000000111111111111110000000000000011111000000000011111111000001111000000000011111111111101111111111111110111111111111110001111110000000000000000000000000000000000000
00000000000000000000000000000000000000000011111111111000000000000000111111001100001111111110000000111000000000000111111111111110111111111100011111111111110000111110000000000000000000000000000000000000
00000000000000000000000000000000000000000001111111000000000000000000011111111000011111111100000000111000000000000011111111111110111101111000111111111111111000111111000000000000000000000000000000000000
00000000000000000000000000000000000000000000000000000000000000000000011111111100011111111000000011111000000000000011111111111111111101111101111111111111111101111111100000000000000000000000000000000000
00000000000000000000000000000000000000000000000000000000000000000000011111111110011111100000000011111100000000000011111111111111111111111111111111111111111111111111111000000000000000000000000000000000
00000000000000000000000000000000000000000000000000000000000000000001111111111111111111000000000011111110000000000111111111111111111111111111111111111111111111111111111000000000000000000000000000000000
00000000000000000000000000000000000000000000000000000000000000000001110111011101111100000000000011111111100000001111111111111111111111100000111111111111111111111111111000000000000000000000000000000000
00000000000000000000000000000000000000000000000000000000000000000000000010001000110000000000000011111111111111111111111111000000001111100000111111100011111111111111111000000000000000000000000000000000
00000000000000000000000000000000000000000000000000000000000000111000000000110000000000000000000000111111111111111111111000000000000001111111111111100011111111111111110000000000000000000000000000000000
00000000000000000000000000000000000000000000000000000000000000000000000000000000000000000000000000011111111111111101110000000000000000000111111111111111111111111111100111000000000000000000000000000000
00000000000000000000000000000000000000000000000000000000000000000000000000000000000000000000000000000001111111111100111000000000000000000000001111111111111110000000000111000000000000000000000000000000
00000000000000000000000000000000000000000000000000000000000000000000000000000000000000000000000000000000000111111100000000000000000000000000001111111011111110000000000000000000000000000000000000000000
00000000000000000000000000000011100000000000000000000000000000000000000000111000000000000000011100000000000000111000000000000000000000000000001110111011111110000000000000000000011100000000000000000000
00000000000000000000000000000011100000000000000000000000000000000000000000111000000000000000011100000000000000000000000000000000000000000000001100011111110000000000000000000000011100000000000000000000
00000000000000000000000000000000000000001110000000000000000000000000000000000000000000000000000000000000000000000000000000000000000000000000000000000000000000000000000000000000000000000000000000000000
00000000000000000000000000000000000000001110000000000000000000000000000000000000000000000000000000000000000000000000000000000000000000000000000000000000000000000000000000000000000000000000000000000000
00000000000000000000000000000000000000000000000000000000000000000000000000000000000000000000000000000000000000000000000000000000000000000000000000000000000000000000000000000000000000000000000000000000
00000000000000000000000000000000000000000000000000000000000000000000000000000000000000000000000000000000000000000000000000000000000000000000000000000000000000000000000000000000000000000000000000000000
00000000000000000000000000000000000000000000000000000000000000000000000000000000000000000000000000000000000000000000000000000000000000000000000000000000000000000000000000000000000000000000000000000000
00000000000000000000000000000000000000000000000000000000000000000000000000000000000000000000000000000000000000000000000000000000000000000000000000000000000000000000000000000000000000000000000000000000
00000000000000000000000000000000000000000000000000000000000000000000000000000000000000000000000000000000000000000000000000000000000000000000000000000000000000000000000000000000000000000000000000000000
00000000000000000000000000000000000000000000000000000000000000000000000000000000000000000000000000000000000000000000000000000000000000000000000000000000000000000000000000000000000000000000000000000000
