P1
200 70
00000000000000000000000000000000000000000000000000000000000000000000000000000000000000000000000000000000000000000000000000000000000000000000000000000000000000000000000000000000000000000000000000000000
00000000000000000000000000000000000000000000000000000000000000000000000000000000000000000000000000000000000000000000000000000000000000000000000000000000000000000000000000000000000000000000000000000000
00000000000000000000000000000000000000000000000000000000000000000000000000000000000000000000000000000000000000000000000000000000000000000000000000000000000000000000000000000000000000000000000000000000
00000000000000000000000000000000000000000000000000000000000000000000000000000000000000000000000000000000000000000000000000000000000000000000000000000000000000000000000000000000000000000000000000000000
00000000000000000000000000000000000000000000000000000000000000000000000000000000000000000000000000000000000000000000000000000000000000000000000000000000000000000000000000000000000000000000000000000000
00000000000000000000000000000000000000000000000000000000000000000000000000000000000000000000000000000000000000000000000000000000000000000000000000000000000000000000000000000000000000000000000000000000
00000000000000000000000000000000000000000000000000000000000000000000000000000000000000000000000000000000000000000000000000000000000000000000000000000000000000000000000000000000000000000000000000000000
00000000000000000000000000000000000000000000000000000000000000000000000000000000000000000000000000000000000000000000000000000000000000000000000000000000000000000000000000000000000000000000000000000000
00000000000000000000000000000000000000000000000000000000000000000000000000000000011100000000001110000000000000000000000000000000000000000000000000000000000000000000000000000000000000000000000000000000
00000000000000000000000000000000000011100000000000000000000000000000000000000000011100000000001110000000000000000001000000000000000000000000000000000000000000000000000000000000000000000000000000000000
00000000000000000000000000000000000011100000000000000000000000000000000000000000000000000000000000000000000111111111100000000000000000000000000000000000000000000000000000000000000000000000000000000000
00000000000000000000000000000000000000000000000000000000000000111000000000000000000000000000000000000000011111111111111100000000000000000000000000000000000000000000000000000000000000000000000000000000
00000000000000000000000000000000000000000000000000000000000000111000000000000000000000000000000000000000011111111111111100000000000000000000000000000000000000000000000000000000000000000000000000000000
00000000000000000000000000000000000000000000000000000000000000000000000000000000000000000000000000000000111111000000001110000000000000000000000000000000000000000000000000000000000000000000000000000000
00000000000000000000000000000000000000000000000000000000000000000000000000000000000000000000000000000000111100000000001111000000000000000000000000000000000000000000000000000000000000000000000000000000
00000000000000000000000000111000000000000000000000000000000000000000000000000000000000000000000000000001111000001111111110001110000000000000000000000000000000000000000000000000000000000000000000000000
00000000000000000000000000111000000000000000000000111100000000000000000011100000000000000000000000000001111111111111111110001111111111100000000000000001111001110000000000000000000000000000000000000000
00000000000000000000000000000000000000000000001111111110000000000000000011100000000000000000000000000011111111111111110010011111111111111100000001111111111111111000000000000000000000000000000000000000
00000000000000000000000000000000000000000000011111111111100000000000000000000000000000000000111000000111111111111111100001111111111111111111110011111111111111111110000000000000000000000000000000000000
00000000000000000000000000000000000000000001111111111111110000000000000000000000000000000000111000011111111111000000000001111110000001100111111111111111111111111110000000000000000000000000000000000000
00000000000000000000000000000000000000000011111111111111110000000000000000000000000000000000011111111111111110000000000000111110000000000011111111111101111111111111000000000000000000000000000000000000
00000000000000000000000000000000000000000011111100000111110000000000000000000000000000000000111111111111110111000000000000111110000000000011111111111000000011111111000000000000000000000000000000000000
00000000000000000000000000000000000000000111111000000011110000000000000000000000000111111111111111111111100111000000000000011110000000000011111111110000000001111111100000000000000000000000000000000000
00000000000000000000000000000111000000000001110000000011110000000000000000000000111111111111111110000000000000000000000000011111000000000011101111111000000001111111100000000000000000000000000000000000
00000000000000000000000000000111000000000000000000000011111000000000000000000011111111111111111000000100000000000000000000011111000000000111001111111110000000011111100000000000000000000000000000000000
00000000000000000000000000000000000000001100000000000001111000000000000000001111111110111111110000000111100000000000000000011111000000001110011111111111000000011111100000000000000000000000000000000000
00000000000000000000000000000000000000001111100000000001111000111000000000111111101110111111111000000011100000000000000000011111000000011110111100111111110000111111000000000000000000000000000000000000
00000000000000000000000000000000000000011111000000000000000000111000000000111011101111111111110000000011110000000000000000011111000000011111111000001111111000111111000000000000000000000000000000000000
00000000000000000000000000000000000000011111000000000000000000000000000011111011111111111111111000000011110000000000000000011110000000001111111000000111111101111111000000000000000000000000000000000000
00000000000000000000000000000000000000011111000000000000111100000000000011111111111111111111111111100011110000000000000000011100000000001111111000000001111111111110000000000000000000000000000000000000
00000000000000000000000000000000000000001111000000000001111100000000000111111111111000111111111111100001110000000000000000011100010000001111111100000000111100001110000000000000000000000000000000000000
00000000000000000000000000000000000000011111000000000000111100000000001111111111110000111111111111000000000000000000000000011111110000001111111100000000011100000000000000000000000000000000000000000000
00000000000000000000000000000000000001111111000111100000111000000000001111111111100000011111111110000000001000000000000000011111000000000111111110000000001111100000000000000000000000000000000000000000
00000000000000000000011100000000000001111111000111110000111100000000000011111111000000001111111110000001111100000000000000011010000000000111111111000000011111111110001110000000000000000000000000000000
00000000000000000000011100000000000000011111000111111001111110000000011011111110000000001111111110000001111100000000000011100000000000000000111111111100111111111111001110000000000000000000000000000000
00000000000000000000000000000000000000001111000001111111111100000000111111110010000000011111111110000001111110000000000111100001100000000000011011111111111111111111000000000000000000000000000000000000
00000000000000000000000000000000000000000111000001111111111100000001111111110000000000011111111110000000011111000000001111100001111000000000010011111111111111111111100000000000000000000000000000000000
00000000000000000000000000000000000000000110000111111101111100000011111111111100000000011111111111000000000111111111110000000001111000000011100111111111111111111111110000000000000000000000000000000000
00000000000000000000000000000000001111011110000011111000111110000111111111111100000000001111111111000000000011111111110000000001000110000011100011100001111111111111111000000000000000000000000000000000
00000000000000000000000000001110001111011111000000010000111100011111111111111110000000001111111111000000000110011111111000000001000110000001110111000000000111111111111000000000000000000000000000000000
00000000000000000000000000001100000000001111000000000000111110111111111111111110000000001111111111000000000000001111100000000000111000000011111111000000000011111111111100000000000000000000000000000000
00000000000000000000000000000000000000000000000000000000111111111111111111111100000000001111111111000000000000000000000000000000111000000111110010000000000001111111111110000000000000000000000000000000
00000000000000000000000000000000001110000000000001110000111111111100111101111110000000001111111111000000000000000000000000000000000000000011110000000000000000111111111000000000000000000000000000000000
00000000000000000000000000000000001110001111000001110000111111110000111100111110000000001111111100000000000000000000000000000000000000000111111000000000000000111111110000000000000000000000000000000000
00000000000000000000000000000000000000001111100000000001111111100000111110011110000000001111111100000000000000000000000000000001110000001111111100000000000000111111100000000000000000000000000000000000
00000000000000000000000001110000000000000111100000000011111111000000111111011110000000001110111111000000000000000000000000000001100000001111111000000000000000011111100000000000000000000000000000000000
00000000000000000000000001110000000000000111110000001111111110000000011111111110000000001110111111000000000000000000000000000011100000001111111000000000000000011111110000000000000000000000000000000000
00000000000000000000000000000000000000000111110000011111111110000000011101111110000000001111111111100000000000000000000000000011100000001111111000000000000000011111110000000000000000000000000000000000
00000000000000000000000000000000000000000011111001111111111100000000011101111110000000001111111111000000000000000000000000000111100000001111111000000000000000011111110000000000000000000000000000000000
00000000000000000000000000000000000000000011111111111111111100000000011111111110000000001111111111000000000000000000000000001111100011100111111000000000000000011111110000000000000000000000000000000000
00000000000000000000000000000000111000000001111001111111111100000000001111111111000000001111111111000000000000000000000000001111000011100111111000000000000000111111110000000000000000000000000000000000
00000000000000000000000000000000001000000000110000111111111100000000001111111111000011111111011111000000000000000000000000011110000000000111111000000000000000111111100000000000000000000000000000000000
00000000000000000000000000001000000000000001111001111111111000000000000011111111000011111110011111000000000000000000000000111110000000000111111111000000000001111111000000000000000000000000000000000000
00000000000000000000000000001100000000000011111111111111111000000000000011111111100000011000111110000000000000000000000001111101100000000011111111000000000011111111000000000000000000000000000000000000
00000000000000000000000000000000000000000111111111111111110000000000000001111111100000000001111110000000000000000000000011111001110000000001111110000100000111111111000000000000000000000000000000000000
00000000000000000000000000000000000000011111111000111111000000000000000000001111110011110011111100000000000000000000001111110000000000000001111111011111111111111110000000000000000000000000000000000000
00000000000000000000000000000000000000111111100000000000000000000000000000000111111111111111111000000000011100000001111111000000000000000000011111111111111111111100000000000000000000000000000000000000
00000000000000000000000000000000000001111111000000000000000000000000000000000001001111111111110000000000011100000011111110000000000000000000001111111111111111111000000000000000000000000000000000000000
00000000000000000000000000000000000011111100000000000000000000000000000000000000001111111111000000000000000000001111111100000000000000000000000011111111111111110000000000000000000000000000000000000000
00000000000000000000000000000000000111111000000000000000000000000000000000000000011100000000000000000000000001111111110000000000000000000000000000111100000110000011100000000000000000000000000000000000
00000000000000000000000000000000001111100000000000000000000000000000000000000000000000000000000000000000000001111111000000000000000111000000000000000000000000000011100000000000000000000000000000000000
00000000000000000000000000000000011111000000000000000000000000000000000000000000000000000000000000000000000000111000000000000000000111000000000000000000000000000011100000000000000000000000000000000000
00000000000000000000000000000110111110000000000000000000000000000001110000000000000000000000000000000000000000000000000000000000000000000000000000000000000000000011100000000000000000000000000000000000
00000000000000000000000000000110011100000000000000000000000000000001110000000000000000000000000000000000000000000000000000000000000000000000000000000000000000000000000000000000000000000000000000000000
00000000000000000000000000000000001000000000000000000000000000000000000000000000000000000000000000000000000000000000000000000000000000000000000000000000000000000000000000000000000000000000000000000000
00000000000000000000000000000000000000000000000000000000000000000000000000000000000000000000000000000000000000000000000000000000000000000000000000000000000000000000000000000000000000000000000000000000
00000000000000000000000000000000000000000000000000000000000000000000000000000000000000000000000000000000000000000000000000000000000000000000000000000000000000000000000000000000000000000000000000000000
00000000000000000000000000000000000000000000000000000000000000000000000000000000000000000000000000000000000000000000000000000000000000000000000000000000000000000000000000000000000000000000000000000000
00000000000000000000000000000000000000000000000000000000000000000000000000000000000000000000000000000000000000000000000000000000000000000000000000000000000000000000000000000000000000000000000000000000
00000000000000000000000000000000000000000000000000000000000000000000000000000000000000000000000000000000000000000000000000000000000000000000000000000000000000000000000000000000000000000000000000000000
