P1
200 70
00000000000000000000000000000000001110000000000000000000000000000000000000000000000000000000000000000000000000000000000000000000000000000000000000000000000000000000000000000000000000000000000000000000
00000000000000000000000000000000111111000000000000000000000000000000000000000000000000000000000000000000000000000000000000000000000000000000000000000000000000000000000000000000000000000000000000000000
00000000000000000000000000000000011111100000000000000000000000000000000000000000000000000000000000000000000000000000000000000000000000000000000000000000000000000000000000000000000000000000000000000000
00000000000000000000000000000000001111100000000000000000000000000000000000000000000000000000000000000000000000000000000000000000000000000000000000000000000000000000000000000000000000000000000000000000
00000000000000000000000000000000000111110000000000000000000000000000000000000000000000000000000000000000000000000000000000000000000000000000000000000000000000000000000000000000000000000000000000000000
00000000000000000000000000000000000111111000000000000000000000000000000000000000000000000000000000000000000000000000000000000000000001111111111111111111110000000000000000000000000000000000000000000000
00000000000000000000000000000000000011111100000000000000000000000000000000000000000000000000000000000000000000000000000000000011111111111111111111111111111111111100000000000000000000000000000000000000
00000000000000000000000000000000000001111110000000000000000000000000000000000000000000000000000000111000000000000000000110001111111110111111111111111111111111111111100000000000000000000000000000000000
00000000000000000000000000000000000000111111000000000000000000000000000000000000000000000000000000111000000000000000111111011111111100011111111111111111111111111111111100000000000000000000000000000000
00000000000000000000000000000000000000111111100000000000000000000000000000000000000000000000000000000000000000001111111111111110000000000000000000000000000000001111111110000000000000000000000000000000
00000000000000000000000000000000000000011111111000000000000000000000000000000000000000000000000000000000011111111111111110000000000000000000000000000000000000000000011111000000000000000000000000000000
00000000000000000000000000000000000000000111110000000000000000000000000000000000000000000000000000000011111111111111100000000000000000111111110000000000000000000000001111000000000000000000000000000000
00000000000000000000001110000000000000000011110011110000000000000000000000000000000000000000000000011111111111111110000000000000000011111111110000000000000000000000000000000000000000000000000000000000
00000000000000000000001110000000000000000000111111111000000000000000000000000000000000000000000011111111111111111100000000000000000111111111111001000000000000000000000000000000000000000000000000000000
00000000000000000000000000000000000000000000011111111110000000000000000000000000000000000001111111111011111111111100000000000000001111111011111111100000000000000000000000000000000000000000000000000000
00000000000000000000000000000000000000000000000001111111111100000000000000000000000001111111111111110001111111111110000000000000001111111011111111100000000000000000000000000000000000000000000000000000
00000000000000000000000000000000000000000000000000111111111111000000000000000000001111111111111110000001111111111110000000000000011111111111111111110000000000000000000000000000000000000000000000000000
00000000000000000000000000000000000000000000000001111111111111111111111111111111111111111111110000000011111110011110000000000000001111111111111111111000000000000000000000000000000000000000000000000000
00000000000000000000000000000000000000000000000000111110111111111111111111111111111111111111100000001111111100011111100000000000001111111000111111111000000000000000000000000000000000000000000000000000
00000000000000000000000000000000000000000000000000011100000111000111111111111110000111111111000000001111111001111111000000000000111111110000011111111100000000000000000000000000000000000000000000000000
00000000000000000000000000000000000000000000000000000000000000000011111111000100000001111111000000011111111001111110000000000001111111100000001111111100000000000000000000000000000000000000000000000000
00000000000000000000000000000000000000000000000000000000000000000000000000000000000001111110000000011111110001111110000000000001111111100000001111111100000000000000000000000000000000000000000000000000
00000000000000000000000000000000000000000000000000110000000000111000000000000000000011111110000000011111000001111110000000000001111111100000000111111110000000000000000011100000000000000000000000000000
00000000000000000000000000000000000000000000000001110000000000111000000000000000000001111100000000011110000001111110000000000001111111110000000111111110000000000000000011100000000000000000000000000000
00000000000000000000000000000000000000000000000000000000000000111000000000000000011001111110000111001110000001111110000000000001111111110000000011111111000000000000000000000000000000000000000000000000
00000000000000000000000000000000011100000000000000000000000000111000000001110000011111111110000011001100000111111110000000000001111111100000000011111111000000000000000000000000000000000000000000000000
00000000000000000000000000000000011100000000000001100000000000111000000001110001111111111110000000000000011111111110000000000001111111000000000011111111000000000000000000000000000000000000000000000000
00000000000000000000000000000000000000000000000011100000000000111100000000001111111111111110000000000000011101111100000000000001111100000000000001111111000000000000000000000000000000000000000000000000
00000000000000000000000000000000000000000000000011100000000000111100000000011111111111111110000000011000000000111110000000000000111100000000000000111011100000000000000000000000000000000000000000000000
00000000000000000000000000000000000000000000000011100000000000111101110000011111111110111100000000011100000000111111000000000000111111100000000001111011100000000000000000000000000000000000000000000000
00000000000000000000000000000000000000000000000011100000000000011001100000011111111110111100000000001110000000111111000000000001111111100000000001111111100000000000000000000000000000000000000000000000
00000000000000000000000000000000000000000000000111100000000000011100000000011111111111111100000000001110000000011111000000000001111111100000000001111111100000000000000000000000000000000000000000000000
00000000000000000000000000000000000000000000001111100000000000011100000000011111111110111100000000000000000000011111000000000001111111100000000000110011100000000000000000000000000000000000000000000000
00000000000000000000000000000000000000000000001111100000000000011100000000011111001110111100000000000000000000111111000000000001111111100000000000000011110000000000000000000000000000000000000000000000
00000000000000000000000000000000000000000000000111001110000000011100000000000000001111111100000000000000000000011111000000000001111111100000000000000111110000000000000000000000000000000000000000000000
00000000000000000000000000000000000000000000000011001110000000011100000000000000001111111100000000000000000000011111100000000001111111000000000000111111110000001000000000000000000000000000000000000000
00000000000000000000000000000000000111000000000011000000000000011100000000000000001101111000000000000000000000011111100000000001111111000000001111111111110000001000000000000000000000000000000000000000
00000000000000000000000000000000000111000000000011000000000000011100000000000000011101111000000000000000110000111111110011100001111111100000000001111111110000000000000000000000000000000000000000000000
00000000000000000000000000000000000000000000000011000000000000011100000000000000011111111000000000000001110000111111110011100001111111110000000000111110111000000000000000000000000000000000000000000000
00000000000000000000000000000000000000000000000011000000000000011000000000000000011111111000000000000000000000111111110000000001111111110000000000111110111000000000000000000000000000000000000000000000
00000000000000000000001110000000000000000000000011000000000000111000000000000011111111111000000000000000000001111111110000000000111111110000000000111111111000000000000000000000000000000000000000000000
00000000000000000000001110000000000111000000000011000000011100110000000000000011001111111000000000000000000111111111110000000000111111110000000000111111111000000000000000000000000000000000000000000000
00000000000000000000000000000000000111000000000011100000011101110000000000000000001111110000000000000000000111111110110000000000011111111000000000111111111100000000000000000000000000000000000000000000
00000000000000000000000000000000000000000000000011100000000001110000000000000000011111110000000000000000000000111110110000000000011111111111000000111111111100000000000000000000000000000000000000000000
00000000000000000000000000000000000000000000000011100000000001110000000000000000011111110000000000000000000000011111110000000000011110111111000000111111111100000000000000000000000000000000000000000000
00000000000000000000000000000000000000000000000111100000000011100000000000000000011111110000000000000000000000011111110000000000001110111110000000111111111100000000000000000000000000000000000000000000
00000000000000000000000000000000000000000000000011100111000011100000000000000000001111110000000000000000000000011111111000000000001111111111000001111111111100000000000000000000000000000000000000000000
00000000000000000000000000000000000000000000000011100111000111100000000000000000011111110000000000000000000000011111111000000000000111011111111111111111111100000000000000000000000000000000000000000000
00000000000000000000000000000000000000000011100011100000001111000000000000000000111111110000000000000000000000011111111000000000000110011111111111111111111100011100000000000000000000000000000000000000
00000000000000000000000000000000000000000011100011110000011110000000000000000000111111110000000000000000000000001111111000000000000001111111111110111111111100011100000000000000000000000000000000000000
00000000000000000000000000000000000000000000000011100001111100000000000000000000111111110000000000000000000000001111111000000000000000111111111110111111111100000000000000000000000000000000000000000000
00000000000000000000000000000000000000000000000011100111111100000000000000000001111111100000000000000000000000011111111000000000000000001111111111111111111000000000000000000000000000000000000000000000
00000000000000000000000000000000000000000000000001111111111000000000000000000001111111100000000000000000000000011111111100000000011100000111111111111111111000000000000000000000000000000000000000000000
00000000000000000000000000011100000000000000000001111111110000000000000000000001111111100000000000000000000000011111111110000011111100000001111111111111111000000000000000000000000000000000000000000000
00000000000000000000000000011100000000000000000000011111100000000000000000111000111111100000000000000011111111111111111111111111111101110000001111111111110000000000000111000000000000000000000000000000
00000000000000000000000000000000000000000000000000001001110000000000000000111000111111000000000000001111111111111111111111111111111101100000000001111110000000001110000111000000000000000000000000000000
00000000000000000000000000000000000000000000000000000001110000000000000000000001111111000000000000001111111101111111111111110001111100000000000000000000000000001110000000000000000000000000000000000000
00000000000000000000000000000000000000000000000000000000000000000000000000000001111111000000000000001111111101111111111011100001111100000000000000000000000000000000000000000000000000000000000000000000
00000000000000000000000000000000000011100000000000000000000000000000000000000011111111000000000000011111111111111111111001100011111100000000000000000000000000000000000000000000000000000000000000000000
00000000000000000000000000000000000011100000000000000000000000000000000000000011111111000000000000000111111111111111111111101111110000000000000000000000000000000000000000000000000000000000000000000000
00000000000000000000000000000000000000000000000000000000000000000000000000000001111110000000000000000000001111111100000000000000000000000000000000000000000000000000000000000000000000000000000000000000
00000000000000000000000000000000000000000000000000000000000000000000000000000011111110000000000000000000000000000000000000000000000000000000000000000000000000000000000000000000000000000000000000000000
00000000000000000000000000000000000000000000000000000000000000000000000000000011110000000000000000000000000000000000000000000000000000000000000000000000000000000000000000000000000000000000000000000000
00000000000000000000000000000000000000000000000000000000000000000000000000000000000000000000000000000000000000000000000000000000000000000000000000000000000000000000000000000000000000000000000000000000
00000000000000000000000000000000000000000000000000000000000000000000000000000000000000000000000000000000000000000000000000000000000000000000000000000000000000000000000000000000000000000000000000000000
00000000000000000000000000000000000000000000000000000000000000000000000000000000000000000000000000000000000000000000000000000000000000000000000000000000000000000000000000000000000000000000000000000000
00000000000000000000000000000000000000000000000000000000000000000000000000000000000000000000000000000000000000000000000000000000000000000000000000000000000000000000000000000000000000000000000000000000
00000000000000000000000000000000000000000000000000000000000000000000000000000000000000000000000000000000000000000000000000000000000000000000000000000000000000000000000000000000000000000000000000000000
00000000000000000000000000000000000000000000000000000000000000000000000000000000000000000000000000000000000000000000000000000000000000000000000000000000000000000000000000000000000000000000000000000000
00000000000000000000000000000000000000000000000000000000000000000000000000000000000000000000000000000000000000000000000000000000000000000000000000000000000000000000000000000000000000000000000000000000
