P1
200 70
00000000000000000000000000000000000000000000000000000000000000000000000000000000000000000000000000000000000000000000000000000000000000000000000000000000000000000000000000000000000000000000000000000000
00000000000000000000000000000000000000000000000000000000000000000000000000000000000000000000000000000000000000000000000000000000000000000000000000000000000000000000000000000000000000000000000000000000
00000000000000000000000000000000000000000000000000000000000000000000000000000000000000000000000000000000000000000000000000000000000000000000000000000000000000000000000000000000000000000000000000000000
00000000000000000000000000000000000000000000000000000000000000000000000000000000000000000000000000000000000000000000000000000000000000000000000000000000000000000000000000000000000000000000000000000000
00000000000000000000000000000000000000000000000000000000000000000000000000000000000000000000000000000000000000000000000000000000000000000000000000000000000000000000000000000000000000000000000000000000
00000000000000000000000000000000000000000000000000000000000000000000000000000000000000000000000000000000000000000000000000000000000000000000000000000000000000000000000000000000000000000000000000000000
00000000000000000000000000000000000000000000000000000000000000000000000000000000000000000000000000000000000000000000000000000000000000000000000000000000000000000000000000000000000000000000000000000000
00000000000000000000000000000000000000000000000000000000000000000000000000000000000000000000000000000000000000000000000000000000000000000000000000000000000000000000000000000000000000000000000000000000
00000000000000000000000000000000000000000000000000000000000000000000000000000000000000000000000000000000000000000000000000000000000000000000000000000000000000000000000000000000000000000000000000000000
00000000000000000000000000000000000000000000000000000000000001110000000000000000000000000000000000000000000000000000000000000000000000000000000000000000000000000000000000000000000000000000000000000000
00000000000000000000000000000000000000000000000000000000000011110000000000000000000000000000000000000000000000000000000000000000000000000001110000000000000000000000011100000000000000000000000000000000
00000000000000000000000000000000000000000000000000000000000111100000000000000000000000000000000001000000000000000000000000000000000111000001110000000000000000000000011111000000000000000000000000000000
00000000000000000000000000000000000000000000000000000000000011000000000000000000000000000001111111000000000000000000000000000000000111000000000000000000000000000000000111000000000000000000000000000000
00000000000000000000000000000000000000000000000000000000000001100000000000000000000000011111111111000000000000000000000000000000000000000000000000000000000000000000000000000000000000000000000000000000
00000000000000000000000000000000000000000000000000000000000011100000000000000000000000011111111111000000000000000000000000000000000000000000000000000000000000000000000000000000000000000000000000000000
00000000000000000000000000000000000000000000000011000000000000000000000000000000000000111111111111000000000000000000000000000000000000001111000000000000000000000000000000000000000000000000000000000000
00000000000000000000000000000001110000111110001111100000000000000111000000000000000000111111111001000000000000000000000000000000000000001111110000000000000000000000000000000000000000000000000000000000
00000000000000000000000000000001111111111111111111110000000000000111000000000000000001111111110001000000000000000000000000000000000000000011111100011111000000000000000000000000000000000000000000000000
00000000000000000000000000000000001111111111110111001100000000000000000000000000000011111111111000000000000000000000000000000000000000000001111100001111110000111000000000000000000000000000000000000000
00000000000000000000000000000000000111111111100111011100000000000000000000000000000011111111111100000000000000000000000000000000000000000011110000000111111000111100000000000000000000000000000000000000
00000000000000000000000000000000100111111000001111111110000000000000000000000000000111111111111110000000000000000001111100000000000000000011110000000000000000111001110000000000000000000000000000000000
00000000000000000000000000000001111111110000000111111100000000000000000000000000000111111111111110000000000000000011111110000000000000000011110000000000000000010001110000000000000000000000000000000000
00000000000000000000000000000011111111110000000011111100000000000000000000000000000011111111111110000000000000000011111111111000000000000000001000000000000000111000000000001110000000000000000000000000
00000000000000000000000011100111111111110000000001111111000000000000000000000000000011111111111110000000000000000111111111111100000000000000011100000000000000111100001110001110000000000000000000000000
00000000000000000000000011100111111111111000000000111111111000000000000000000000011111111111111110000000000000001111111111111110000000000001111100000000000000011110001110000000000000000000000000000000
00000000000000000000000000001111111111111110000000001111111000000000000000000000111111111111111110000000000000001111111111111111000000000000111110000000000000011110000000000000000000000000000000000000
00000000000000000000000000001111110001111111000000001111110000000000000000000000111111111111111110000000000000011111111000011111100000000000111110000000011111111110000000000000000000000000000000000000
00000000000000000000000000011111110000111110000000111111100000000000000000000001111111111111111110000000000000011110110000000001100000000000011111111111100111111111111000000000000000000000000000000000
00000000000000000000000000011111100000000110001110111111000000000000000000000011111101111111111110000000000000111110010000000001110000000000000111011111110111111111111000000000000000000000000000000000
00000000000000000000000000111111000000000001111111111111000000000000000000000011111000111111111100000000000000111111100000000001111000000001100111001111111111111111111000000000000000000000000000000000
00000000000000000000000000111111000011000000111111111111100000000000000000000111111000011111111100000000000000111111100000000001111111111111111111111111111000000000001000000000000000000000000000000000
00000000000000000000000000011111000111000000001111111111100000000000000000000111110000111110111100000000000000111111000000000001111111111111111111111111111100000000000000000000000000000000000000000000
00000000000000000000000000011111000000000000000011111111100000000000000000001111100001111110111101000000000000111111000000000111111111111111100111111111111111100000000000000000000000000000000000000000
00000000000000000000000000111111000000000000000001111111110000000000000000001100100001111111111101000000000001111111001111111111111111000000000111111111111111111100000000000000000000000000000000000000
00000000000000000000000001111111000000000000000000111011111100000000000000011100000001111111111000000000000000111111011111111111111110000000000011111111000011111111110000000000000000000000000000000000
00000000000000000000000001111111000000000000000000110011111111000000000000111110000001111111111000000000000000111111111111111111111100000000000000000000000000111111110000000000000000000000000000000000
00000000000000000000000001111111000000000000000000001111111111111000000001111110000001111111111100000000000001111101111111110011111100000000000000000000000000000111111000000000000000000000000000000000
00000000000000000000000001111111000000000000000000001111111111111111000001111100000011111111110000000000000001111101111110000001111100000000000000000000000000000001111110011100000000000000000000000000
00000000000000000000000001111111000000000000000000110011000011111111111111111100000011111111110000001111111000111111100000000001111100000000000000000000000000000000111111011100000000000000000000000000
00000000000000000000000000111111000000000000000000111011100000011111111111110011111111111111111111111111111001111110000000000011111100000000000000000000000000000000001111100000000000000000000000000000
00000000000000000000000000111111000000000000000001111111000000000011111111110111111111111111101111111111000011111100000000000001111100000000011100000000000000000000000111000000000000000000000000000000
00000000000000000000000000111111000000000000000001111111000000000000000111111111111111111111100111111110000001110000000000000001111100000000011100000000000000000000000111100000000000000000000000000000
00000000000000000000000000001111000000000000000001111111001110000000000011100000111111111111111000000111000001110000000000000011111000000011100000000000000000000000000011111000001110000000000000000000
00000000000000000000000000001111000000000000000001111100000000000000000111000000000111111111110000000111000011111000000000000011111100000011100000000000000000000000000001110000000000000000000000000000
00000000000000000000000000011111000000000000000001111100000100000000111111000001100111111111111001111111000011111000000000000011111100000000000000000000000000000000000000111000000000000000000000000000
00000000000000000000000000011011100000000000000011111110011100000000111111111111100011111111111111111111100011111000000000000111111000000000000000000000000000000000000000111100000000000000000000000000
00000000000000000000000000011011110000000000000011111110000000000000111111111111110111111111111111111111100011100000000000000111110000000000000000000000000000000000000000111110000000000000000000000000
00000000000000000000000000011111110000000000000111111110000000000000111111110111111111111111111111111000000011100000000000001111110000000000000000000000000000000000000000011110000000000000000000000000
00000000000000000000000000001111111000000000001111111100000000000000011111100011111110011111111111110000000011111111000000001111110000000000000000000000000000000000000000011110000000000000000000000000
00000000000000000000000000000001111100000000011111111100000000000000111111110011111110000001111111110000000011111111000000001111100000000000000000000000000000000000000111111110000000000000000000000000
00000000000000000000000000000000111111100001111111111000000000000000000000000000000111000001110000000000000011111000000000001111100000000000000000000000000000000000000111111110000000000000000000000000
00000000000000000000000000000001111111111111111111111111000000000000000000000000000111100011100000000000000011110000000000001111100000000000000000111000000000000000000000011110000000000000000000000000
00000000000000000000000000000001111111111110111111100111000000000000000000000000001111111111100000000000000011100000000000011111100000000000000000111000000000000000000000011110000000000000000000000000
00000000000000000000000000000000011111111110111111000000000000000000000000000000001111111111100000000000000011110000000000111111000000000000000000000000100000000000000000111110000000000000000000000000
00000000000000000000000000000000001111001111111110000000000000000000000000000000001111111111100000000000000011110000000000111111000000000000000000000001110010000000000001111110000000000000000000000000
00000000000000000000000000000001110000000111110000000100000000000000000000000000001111111111100000000000000011110000000001111110000000000000000111000001111111111000000111111110000000000000000000000000
00000000000000000000000000000001110000000000000000011100000000000000000000000000001111111111110000000000000011110000000001111110000000000000000111000000111111111111111111111100000000000000000000000000
00000000000000000000000000000000000000000000000000000000000000000000000000001111111111111111111111000001110010000000000011111100000000000000000000000000000111111111111111111000000000000000000000000000
00000000000000000000000000000000000000000000000000000000000000000000000000001111111111111101111111100001110000000000000011111100000000000000000000000000000000001111111111100000000000000000000000000000
00000000000000000000000000000000000000000000000000000000000000000000000000001111111111111101111111100000000011110000000011111000000000000000000000000000000000000010001000000000000000000000000000000000
00000000000000000000000000000000000000000000000000000000000000000000000000001111111111111111111111000000000011110000000111110000000000000000000000000000000000000010000000000000000000000000000000000000
00000000000000000000000000000000000000000000000000000000000000000000000000000110001110011111111111000000000001100000000011100000000000000000000000000000000000000000000000000000000000000000000000000000
00000000000000000000000000000000000000000000000000000000000000000000000000111000000000000000000000000000000001100000011001100000000000000000000000000000000000000000000000000000000000000000000000000000
00000000000000000000000000000000000000000000000000000000000000000000000000111000000000000000000000000000000000100000111110000000000000000000000000000000000000000000000000000000000000000000000000000000
00000000000000000000000000000000000000000000000000000000000000000000000000000000000000000000000000000000000000011111111100000000000000000000000000000000000000000000000000000000000000000000000000000000
00000000000000000000000000000000000000000000000000000000000000000000000000000000000000000000000000000000000000011111111100000000000000000000000000000000000000000000000000000000000000000000000000000000
00000000000000000000000000000000000000000000000000000000000000000000000000000000000000000000000000000000000000000001100000000000000000000000000000000000000000000000000000000000000000000000000000000000
00000000000000000000000000000000000000000000000000000000000000000000000000000000000000000000000000000000000000000000000000000000000000000000000000000000000000000000000000000000000000000000000000000000
00000000000000000000000000000000000000000000000000000000000000000000000000000000000000000000000000000000000000000000000000000000000000000000000000000000000000000000000000000000000000000000000000000000
00000000000000000000000000000000000000000000000000000000000000000000000000000000000000000000000000000000000000000000000000000000000000000000000000000000000000000000000000000000000000000000000000000000
