P1
200 70
00000000000000000000000000000000000000000000000000000000000000000000000000000000000000000000000000000000000000000000000000000000000000000000000000000000000000000000000000000000000000000000000000000000
00000000000000000000000000000000000000000000000000000000000000000000000000000000000000000000000000000000000000000000000000000000000000000000000000000000000000000000000000000000000000000000000000000000
00000000000000000000000000000000000000000000000000000000000000000000000000000000000000000000000000000000000000000000000000000000000000000000000000000000000000000000000000000000000000000000000000000000
00000000000000000000000000000000000000000000000000000000000000000000000000000000000000000000000000000000000000000000000000000000000000000000000000000000000000000000000000000000000000000000000000000000
00000000000000000000000000000000000000000000000000000000000000000000000000000000000000000000000000000000000000000000000000000000000000000000000000000000000000000000000000000000000000000000000000000000
00000000000000000000000000000000000000000000000000000000000000000000000000000000000000000000000000000000000000000000000000000000000000000000000000000000000000000000000000000000000000000000000000000000
00000000000000000000000000000000000000000000000000000000000000000000000000000000000000000000000000000000000000000000000000000000000000000000000000000000000000000000000000000000000000000000000000000000
00000000000000000000000000000000000000000000000000000000000000000000000000000000000000000000000000000000000000000000000000000000000000000000000000000000000000000000000000000000000000000000000000000000
00000000000000000000000000000000000000000000000000000000000000000000000000000000000000000000000000000000000000000000000000000000000000000000000000000000000000000000000000000000000000000000000000000000
00000000000000000000000000000000000000000000000000000000000000000000000000000000000000000000000000000000000000110000000000111000000000000000000000000000111000000000000000000000000000000000000000000000
00000000000000000000001110000000000000000000000000000000000000000000000000000000000000000000000000000000000111111001111101111000000000000000000000000111111000000000000000000000011100000000000000000000
00000000000000000000001110000000000000000000000000000000000000000000000000000000000000000000000000000000011111111111111111111000000000000001110000000111100000000000000000000000011100000000000000000000
00000000000000000000000000000000111000000000000000000000000000000000000000000000000000111000000000000001111111111111111111111100000000000001111000000110000000000000000000000000000000000000000000000000
00000000000000000000000000000000111000000000000000000000000000000000000000000000000000111000010000000011111111111111111111111111100000000000111111111110000000000000000000000000000000000000000000000000
00000000000000000000000000000000000000000000000000000000000000100000000000000000000000000000011100000011111111111111110111111111110000000001111111111111000000000000000000000000000000000000000000000000
00000000000000000000000000000000000000000000000000000000000000011100000000000000000000001100000000000111111111111111110111111101111000000111111111111111111100000000000000000000000000000000000000000000
00000000000000000000000000000000000000000000000000000000000000011100000000000000000000011100000000001111111111111011111111111101111000001111111111111111111110000000000000000000000000000000000000000000
00000000000000000000000000000000000000000111100000000000000000000000000000000000000000111100000000001111111111111001111111111111111000011111111111111111111111000000000000000000000000000000000000000000
00000000000000000000000000000000000000001111111100000000000000000000000000000000000011001110000000001111111111111100111111111111111001111111111100001111111111000000000000000000000000000000000000000000
00000000000000000000000000000000000000111111111111100000000000000000000000000001111111101111110000011111111111111000000111111111111111111111111000000111111111100000000000000000000000000000000000000000
00000000000000000000000000000000000000111111111111000000000000000000000000000111111111111111111111111111111111110000000000111111111111111111110001100011110111100000000000000000000000000000000000000000
00000000000000000000000000000000000000111111111111001100000011100000000011111111111111111111111111111111111111110000000000111111111111111111110001100011110111100000000000000000000000000000000000000000
00000000000000000000000000000000000001111111111111111110000000100000011111111111111111111111111111111111111111111100000000111111111111111111110000000011111111111110000000000000000000000000000000000000
00000000000000000000000000000000000001111111001111111111000000000111111111011111111100000000000000111111111011111111111000111111111111111111110000000001111111111110000000000000000000000000000000000000
00000000000000000000001110000000000011101111000011111011100000001111111111011111111000000000000000011111111011111111111101111101111111111111111000000001111111111000000000000000000000000000000000000000
00000000000000000000001110000000000111101111100000111011110000111110111111111111100000000000000000011111111111100111111111111100111111111111111000000011111111111000000000000000000000000000000000000000
00000000000000000000000000000000000111111111000000011111111111111100010111111000000000000000000000001111111111100000000010011111000111111111111000000011111111111000000000000000000000000000000000000000
00000000000000000000000000000000000011111111000000011111111111111100000111110000000000000000000000001111111111100000000000011111100111111111111000000011111111110000000000000000011100000000000000000000
00000000000000000000000001110000000011111111000000001111111111111000000111100000000000000000000000001111111111100011100000111111111111111111111111100011111111110001110000000000011100000000000000000000
00000000000000000000000001110000000011111111000000001111111111100000001111000000000000000000000000001111111111000011111100111111111111111111111111111111111111110000000000000000000000000000000000000000
00000000000000000000000000000000000011111111000000000111111111000000001110000000000000000000000000001111111111100011111111111111111011111111011111111111111111111000000000000000000000000000000000000000
00000000000000000000000000000000000011111111000000001001111110000000000110000000000000000000000000000111111111111111001111111111111000111111011111111111111111111111111000000000000000000000000000000000
00000000000000000000000000000000000011110111000000011101111110000000001110000000000000000000000000000111111111111111111111111111111100111111111111111111110111111111110000000000000000000000000000000000
00000000000000000000000000000000000011100111000000111111111110000000001110000000000000000000000000000111111111111111111110111111111111111111111111111111110111001111110000000000000000000000000000000000
00000000000000000000000000000000000011001111000001111111111111000000001110000000000000000000000000000011111111111111111110111111111111111111111111111111111110000000001000000000000000000000000000000000
00000000000000000000000000000000000011011111000011100111111111000000001110000000000000000000000000000011111111111111111111111111111111100111111101111111111111000000000000000000000000000000000000000000
00000000000000000000000000000000000011111111000111000011111111000000001110000000001100000000000000000001111111111111111111111111111111100011111001111111111110000000000000000000000000000000000000000000
00000000000000000000000000000000000011111111101111100011111111000000011111000111111110000000000000000000111111111111111111111111111111000001000111111111111100010000000000000000000000000000000000000000
00000000000000000000000000000000000011111111111111000011111111000000011111000111111111100000000000000000011100111111111111111111111111000011000011111111111110111000000000000000000000000000000000000000
00000000000000000000000000000000000011111111111110000011111110000000011111110011111111100000000000000000000000011111111111111111111111000011100111100001111111111100000000000000000000000000000000000000
00000000000000000000000000000000000011111111111100000011111111000000011111000000011111110000000000000011100000011111110000011111111110000111111111000000111111111110000000000000000000000000000000000000
00000000000000000000000000000000000011111111111000000011111111100000000000000000000001110000000000000011100000000001000000111111111110001111111111000000011111111110000000000000000000000000000000000000
00000000000000000000000000000000000011111111110000000011111111100000000000000000000000000000000000000011100000000000000000111111111000001111111111000000011111111111000000000000000111000000000000000000
00000000000000000000000000000000000011111111100000000011111111000000000000000000001110000000000000000011100000000000000001111111111000001111111100000000001111111111000000000000000111000000000000000000
00000000000000000000000000000000000011111111100000000111011111000000000000000000001111110000000000000000000000000000000001111011111000011111111100000000001111111011100000000000000000000000000000000000
00000000000000000000000000000000000001111111100000000110001110000000000000000000001111100000000000000000000000000000000011111011111000111110111110000000001111110011110000000000000000000000000000000000
00000000000000000000000000000000000001111111000000000110001100000000000000000000001111100000000000000000000000000000001111111111110000111110111111000000000100001111111100000000000000000000000000000000
00000000000000000000000000000000000011111111000000001111011100000000000000000000001111110000000000000001111100000001111111111111110000001111111110000000000000011111111100000000000000000000000000000000
00000000000000000000000000000000000011111111111110111111111100000000000000000000001111100000000000000001111110000111111111111100100000001111111110000000000011111111110000000000000000000000000000000000
00000000000000000000000000000000000111110111111111111111111000000011100000000000011111100000000000000000111111011111111111111100000000000111111111000000000111111111100000000000000000000000000000000000
00000000000000000000000000000000000111100111111111111111110000000011100000000000011111100000000000000000011111111111111111111100000000000111001111100000000111111111000000000000000000000000000000000000
00000000000000000000000000000000001111001111111111111111111000000011000000000000111111000000000000000000000111111111111111111100000000000111001111100000000111111111000000000000000000000000000000000000
00000000000000000000000000000000011110001111111111111100111000000011100000000001111111000000000000000000100111111111111111111000000000000111111111100000000111111111100000000000000000000000000000000000
00000000000000000000000000000000011111001111111111110000000000000011110000001011111110000000110000000000111111111111111111110000000000000111111111110000000111111111100000000000000000000000000000000000
00000000000000000000000000000000111110000000111110000000000000000011111111111111111100000000111000000001001111111111111111000000000000000111111111110000000111111111100000000000000000000000000000000000
00000000000000000000000000000000111110000000000000000000000000000011111111111111111000000000000000001110000111111111111000000000000000000011111111111000000111111111100000000000000000000000000000000000
00000000000000000000000000000001100000000000000000000000000000000000111111111111111000000000000000001110000111111111110000000000000000000001111111111100011111110111000000000000000000000000000000000000
00000000000000000000000000000000000000000000000000000000000000000000000000000000000000000000000000000000000000000000000000000000000000000001111111011111111111110110000000000000000000000000000000000000
00000000000000000000000000000000001000000000000000000000000000000000000000000000000000000000000000000000000000000000000000000000000000000000111110001111111111111110000000000000000000000000000000000000
00000000000000000000000000000000000000000000000000000000000000000000000000000000000000000000000000000000000000000000000000000000000000000000001110001111111111110000000000000000000000000000000000000000
00000000000000000000000000000000000000000000000000000000000000000000000000000000000000000000000000000000000000000000000000000000000000000000000110001111111111100000000000000000000000000000000000000000
00000000000000000000000000000000000000000000000000000000000000000000000000000000000000000000000000000000000010000000000000000000000000000000000000000011100000000011000000000000000000000000000000000000
00000000000000000000000000000000000000000000000000000000000000000000000000000000000000000000000000011100001110000000000000000000000000000000000000000001100000000111000000000000000000000000000000000000
00000000000000000000000000000000000000000000000000000000000000000000000000000000000000000000000000011100000000000000000000000000000000000000000000000001110000000000000000000000000000000000000000000000
00000000000000000000000000000000000000000000000000000000000000000000000000000000000000000000000000000000000000000000000000000000000000000000000000000000000000000000000000000000000000000000000000000000
00000000000000000000000000000000000000000000000000000000000000000000000000000000000000000000000000000000000000000000000000000000000000000000000000000000000000000000000000000000000000000000000000000000
00000000000000000000000000000000000000000000000000000000000000000000000000000000000000000000000000000000000000000000000000000000000000000000000000000000000000000000000000000000000000000000000000000000
00000000000000000000000000000000000000000000000000000000000000000000000000000000000000000000000000000000000000000000000000000000000000000000000000000000000000000000000000000000000000000000000000000000
00000000000000000000000000000000000000000000000000000000000000000000000000000000000000000000000000000000000000000000000000000000000000000000000000000000000000000000000000000000000000000000000000000000
00000000000000000000000000000000000000000000000000000000000000000000000000000000000000000000000000000000000000000000000000000000000000000000000000000000000000000000000000000000000000000000000000000000
