P1
200 70
00000000000000000000000000000000000000000000000000000000000000000000000000000000000000000000000000000000000000000000000000000000000000000000000000000000000000000000000000000000000000000000000000000000
00000000000000000000000000000000000000000000000000000000000000000000000000000000000000000000000000000000000000000000000000000000000000000000000000000000000000000000000000000000000000000000000000000000
00000000000000000000000000000000000000000000000000000000000000000000000000000000000000000000000000000000000000000000000000000000000000000000000000000000000000000000000000000000000000000000000000000000
00000000000000000000000000000000000000000000000000000000000000000000000000000000000000000000000000000000000000000000000000000000000000000000000000000000000000000000000000000000000000000000000000000000
00000000000000000000000000000000000000000000000000000000000000000000000000000000000000000000000000000000000000000000000000000000000000000000000000000000000000000000000000000000000000000000000000000000
00000000000000000000000000000000000000000000000000000000000000000000000000000000000000000000000000000000000000000000000000000000000000000000000000000000000000000000000000000000000000000000000000000000
00000000000000000000000000000000000000000000000000000000000000000000000000000000000000000000000000000000000000000000000000000000000000000000000000000000000000000000000000000000000000000000000000000000
00000000000000000000000000000000000000000000000000000000000000000000000000000000000000000000000000000000000000000000000000000000000000000000000000000000000000000000111000000000000000000000000000000000
00000000000000000000000000000000000000000000000000000000000000000000000000000000000000000000000000000000000000000000000000000000000000000000000000000000000000000000111000000000000000000000000000000000
00000000000000000000000000000000000000000000000000000000000000000000000000000000000000000000000000000000000000000000000000000000000000000000000000000000000000000000000000000000000000000000000000000000
00000000000000000000000000000000000000000000000000000000000000000000000000000000000000000000000000000000000000000000000000000000000000000000000000000000000000000000000000000000000000000000000000000000
00000000000000000000000000000000000000000000000000000000000000000000000000000000000000000000000000000000000000000000000000000000000000000000000000000000000000000000000000000000000000000000000000000000
00000000000000000000000000000000000000000000000000000000000000000000000000000000000000000000000000000000000000000000000000000000000000000000000000000000000000000000000000000000000000000000000000000000
00000000000000000000000000000000000000000000000000000000000000000000000000000000000000000001110000000000000000000000000111000000000000000000000000000000000000000000000000000000000000000000000000000000
00000000000000000000000000000000000000000000000001111000000000000000000000000000000000000001110000000000000000000000001111100000000000000000000000000000000000000000000000000000000000000000000000000000
00000000000000000000000000000000000000000000000011111111110000000000000000000000000000000001110000000000000000000000001111111111110000000000000000000000000000000000000000000000000000000000000000000000
00000000000000000000000000000000000000000000000111111111111000000000000000000000000000001111111110000000000000000000011111111111111110000000000000000000000000000000000000000000000000000000000000000000
00000000000000000000001110000000000000000000111111011111111100000000000000000000000000011111111111111000000000000000111111111111111111111000000000000000000000000000000000000000000000000000000000000000
00000000000000000000001110000000000000000001111111011111111100000000000000000000000000111111111111111111000000000000111111111111111111111111000000000011000111000000000000000000000000000000000000000000
00000000000000000000000000000000000000000011111111111111111100000000000000000000001100000111111111111111111000000000111111111111111111111111000001111111111111110000000000000000000000000000000000000000
00000000000000000000000000000000000000000111111111111110111100000000000000000000011110000011111111111101111100000001111000001111111111111111000001111111111111111000000000000000000000000000000000000000
00000000000000000000000000000000000000011111111111111110111111000000000000000000111111110001100000111101111100000001111000000000111111111110000001111111111111111000000000000000000000000000000000000000
00000000000000000000000000010000000000011111111111100111111111100000000000000000111111110001000000001111111100000001110000000000000011111100000011111111111111111110000000000000000000000000000000000000
00000000000000000000000000010000000000111111111100000000111111100000000000000001111001110000000000000001111100000001110000000000000011100000000111111111111111111111000000000000000000000000000000000000
00000000000000000000000000000000000001111111110000000000111111100000011111100011110000111000000000000001111100000000000000000000000111000000000111111111111101111111000000000000000000000000000000000000
00000000000000000000000000000000000001111111100000000001111111100000000111100111111001111000000000000011111000000000000000000000001110000000001111111111111000111110000000111000000000000000000000000000
00000000000000000000000000000000000001111111100000000001111111100000000000000111111111110000000001110011111000000000000000000000001110000000001111111110000001111110000111111000000000000000000000000000
00000000000000000000000000000000000011111111000000000001111111100000000000001111111111110000000001110011111000000000000000000000011111000000011111100000000000111111100111000000000000000000000000000000
00000000000000000000000000000000000111111110000000000000111111100000000000001111111111100000000000000001111000000000000011100000111110000001111111100000000000111111110000000011100000000000000000000000
00000000000000000000000000000000000111111100000000000001111111100000000000011111100011100000000000000001110000000000000011100001111100001111111111111111111000011111110000000011100000000000000000000000
00000000000000000000000000000000000111111100000000000000111111100000000000111111000001100000000000000000000000000000000001000011111000111111111111110111111111111111111000000000000000000000000000000000
00000000000000000000000000000000000111111100000000000001111111100000000001111111100000000000000000000000000000000000000001000111111101111111111111100011111111110011111000000000000000000000000000000000
00000000000000000000000000000000001111111000000000000001111111000000000001111111111110000000000000000000011100000000000000111111111111111000111111110000011111111011111000000000000000000000000000000000
00000000000000000000000000001110001111100000000000000011111111000000000001111111111110111111111100000000011100000000000001111111111111000000011111110000000001111111111000000000000000000000000000000000
00000000000000000000000000001100011111100000000000000011111111001110000001111011111100011111111110000000000011100000000111111111100000000000011110110000000000011111111000000000000000000000000000000000
00000000000000000000000000000000011111111000000000000011111111001111000001111011111110111111111111100000000011100000111111111111000000000000011110110000000000001111111000000000000000000000000000000000
00000000000000000000000000000000011111111000000000000001111110000111100000111111111111111111111111110000000000011111111111111110111000000000001111111000000000001111111100000000000000000000000000000000
00000000000000000000000000000000011111110000000000000001111100000011100000111111111111111111111011111000000000111111111111111000111011100000001111111000000000001111111100000000000000000000000000000000
00000000000000000000000000000000111111100000000000000111111100000000000011111111111111000001111011111000000111111111110111111000000011100000001111111000000000000111111000000000000000000000000000000000
00000000000000000000000000000000111111100000000000000011111100000000000011011111111110000000111111111100011111001100000111110000000000000000001111110000000000000111111000000000000000000000000000000000
00000000000000000000000000000000111111100000000000000011111100000000000110001111011110000000111111111111111110000000001110000000000000000000001111111000000000001111111000000000000000000000000000000000
00000000000000000000000000000000111111100000000000001111111000000000001100011111011100000000011111111111111110000000011110000000000000000000001111111000000000001111111000000000000000000000000000000000
00000000000000000000000000000000000001100000000000001111000000000000001100011111111100000000000111111111111000000000011110000000000000000000001111111000000000000111111000000000000000000000000000000000
00000000000000000000000000000000000000000000000000011110000000000000001100011111111100000000000111111110000000000000111110000000000000000000001111111000000000000111110000000000000000000000000000000000
00000000000000000000000000000000111000000000000000011100110000000000001100011111111100000001111111111110000000000001111100000000000000000000000111111100000000000111110000000000000000000000000000000000
00000000000000000000000000000001111100000000000000011101110000000000001000111101111000000111111111111111100000000011111000000000000000000000000111111100000000000111110000000000000000000000000000000000
00000000000000000000000000000001111111000000000000111111100000000000001001111101111001111111111111111111100000000111111000000000000000000000000111011000000000000111111000000000000000000000000000000000
00000000000000000000000000000001111111100000000000111111100000000000001111111111111111111111111111111111100000001111110000000000000000000000000111011100000111001110111000000000000000000000000000000000
00000000000000000000000001110001111111110000000001111111100000000000001111111111111111111101111111111111000000011111000000000000000000000000000011111100000111001110111000000001100000000000000000000000
00000000000000000000000001100001111111110000000011111111100000000000011111111111111111100000111111111110000000111111000000000000000000000000000011111110000000011111111000000011100000000000000000000000
00000000000000000000000000000000111111111000000111111111100011111111111111111111110000000000110111111110000000111110000000000000000000000000000011111111000000011111111000000000000000000000000000000000
00000000000000000000000000000000111111111111111111111111111111111111111111111111100000000000110111111111000001111100000000000000000000000000000001111111100000011111111111000000100000000000000000000000
00000000000000000000000000000000011111111111111111111111111111111111111111111111100000000000111111111110000011111000000000000000000000000000000000100111110001111111110111000000111000000000000000000000
00000000000000000000000000000000011111111111111111111111111111111100001111111111100000000000111111111110000011111000000000000000000000000000000000000111111111101111100000000000000000000000000000000000
00000000000000000000000000000000011111111111111111111100000000000000000111111111000000000001111111111111000111110000000000000000000000000000000000011111101111000111000000000000001110000000000000000000
00000000000000000000000000000000001111111111111111111000000000000000000111111110000000000011111111111110000111100111000000000000000000000000000000011111101111101110000000000000001110000000000000000000
00000000000000000000000000000011100001111111111111100000000000000000000011111111000000000111111111111110001111000111000000000000000000000000000000001111111111111110000000000000000000000000000000000000
00000000000000000000000000000000000000111111111111000000000000000000000001111111100000001111111111111110111111000000000000000000000000000000000000001111111111111110000000000000000000000000000000000000
00000000000000000000000000000000000000011111111100000000000000000000000001111111110000001111111111111100111110000000000000000000000000000000000000000111111011111100000000000000000000000000000000000000
00000000000000000000000000000000000000000001110000000000000000000000000000111110111110000111111111111100000000000000000000000000000000000000000000000001110001110000000000000000000000000000000000000000
00000000000000000000000000000000000000000000000000001000000000000000000000011110111100000111111111111100000000000000000000000000000000000000000000000000000011000000000000000000000000000000000000000000
00000000000000000000000000000000000000000000000000001000000000000000000000001111111110001111011111111000000000000000000000000000000000000000000001110000000000000000000000000000000000000000000000000000
00000000000000000000000011100000000000000000000000000000000000000000000000000111111111111111011111110000000000000000000000000000000000000000000001111110000000000000000000000000000000000000000000000000
00000000000000000000000011100000000000000000000000000000000000000000000000000011111111111111111111110000000000000000000000000000000000000000000000001110000000000000000000000000000000000000000000000000
00000000000000000000000000000000000000000000000000000000000000000000000000000000111111111111111111100000000000000000000000000000000000000000000000000000000000000000000000000000000000000000000000000000
00000000000000000000000000000000000000000000000000000000000000000000000000000000000111111111111100000000000000000000000000000000000000000000000000000000000000000000000000000000000000000000000000000000
00000000000000000000000000000000000000000000000000000000000000000000000000000000000001111111110000000000000000000000000000000000000000000000000000000000000000000000000000000000000000000000000000000000
00000000000000000000000000000000000000000000000000000000000000000000000000000000000000000000000000000000000000000000000000000000000000000000000000000000000000000000000000000000000000000000000000000000
00000000000000000000000000000000000000000000000000000000000000000000000000000000000000000000000000000000000000000000000000000000000000000000000000000000000000000000000000000000000000000000000000000000
00000000000000000000000000000000000000000000000000000000000000000000000000000000000000000000000000000000000000000000000000000000000000000000000000000000000000000000000000000000000000000000000000000000
