P1
200 70
00000000000000000000000000000000000000000000000000000000000000000000000000000000000000000000000000000000000000000000000000000000000000000000000000000000000000000000000000000000000000000000000000000000
00000000000000000000000000000000000000000000000000000000000000000000000000000000000000000000000000000000000000000000000000000000000000000000000000000000000000000000000000000000000000000000000000000000
00000000000000000000000000000000000000000000000000000000000000000000000000000000000000000000000000000000000000000000000000000000000000000000000000000000000000000000000000000000000000000000000000000000
00000000000000000000000000000000000000000000000000000000000000000000000000000000000000000000000000000000000000000000000000000000000000000000000000000000000000000000000000000000000000000000000000000000
00000000000000000000000000000000000000000000000000000000000000000000000000000000000000000000000000000000000000000000000000000000000000000000000000000000000000000000000000000000000000000000000000000000
00000000000000000000000000000000000000000000000000000000000000000000000000000000000000000000000000000000000000000000000000000000000000000000000000000000000000000000000000000000000000000000000000000000
00000000000000000000000000000000000000000000000000000000000000000000000000000000000000000000000000000000000000000000000000000000000000000000000000000000000000000000000000000000000000000000000000000000
00000000000000000000000000000000000000000000000000000000000000000000000000000000000000000000000000000000000000000000000000000000000000000000000000000000000000000000000000000000000000000000000000000000
00000000000000000000000000000000000000000000000000000000000000000000000000000000000000000000000000000000000000000000000000000000000000000000000000000000000000000000000000000000000000000000000000000000
00000000000000000000000000000000000000000000000000000000000000000000000000000000000000000000000000000000000000000000000000000000000000000000000000000000000000000000000000000000000000000000000000000000
00000000000000000000001110000000000000000000000000000000000111000000000000000000000000000000000000000000000000000000000000000000000000000000000000000000000000000000000000000000000000000000000000000000
00000000000000000000001110000000000000000000000000000000000011000000000000000000000000000000001110000000000000000000000000000000000000000000000000000000000011100000000000000000000000000000000000000000
00000000000000000000000000000000000000000000000000000000000000000000000000000000000000000110001110000000000000000000111000111111000000000000000000000000000011110000000000000000000000000000000000000000
00000000000000000000000000000000000000000000000000000000000000000000000000000000000000000010001110000000000000000111111111111001111100000000000000000000000001111000000000000000000000000000000000000000
00000000000000000000000000000000000000000000000000000000000000000000000000000000001111100110001110001110000000011111111111110000111110000000000100000000000000111000000000000000000000000000000000000000
00000000000000000000000000000000000000000000000000011111100000000000000000000000011111111111011110001110000000011111111111111001111111100000000110000000001110000000000000000000000000000000000000000000
00000000000000000000000000000000000000000000000011001111111000000000000000000111111111011111111110000000000000111111111111111111110001100000000111110000001110000000000000000000000000000000000000000000
00000000000000000000000000000000000000111000001111000111111000000000000001111111111111011111111000000000000000111111111100011111100000000000000111111100000000000000000000000000000000000000000000000000
00000000000000000000000000000000000000111000011111000111111100000000000011111111111111111111111000000000000011111111111000000111000110000000001111111111000000000000000000000000000000000000000000000000
00000000000000000000000000000000000000000000111111000111111110000000000111111111111111111111111110000000000111111111100000000000111111111000001111111111100000000000000000000000000000000000000000000000
00000000000000000000000000000000000000000000111111100000111110000000000111111111111111001111111110000000000111111111100000000000011111111000001111111111110000000000000000000000000000000000000000000000
00000000000000000000000000000000000000000001111111000000111111000000000111110111111110001111100000000000001111111110000000000000011111111000000111111111110000000000000000000000000000000000000000000000
00000000000000000000000000000000000000000011111111000011111110000000001111110011100000011111100000000000011111111100000000000000001111111000000011111111110000000000000000000000000000000000000000000000
00000000000000000000000000000000000000000011111110000011111110000000001111111110000000111111100000000000011111111100000000000000001111111000000000001001110000000000000000000000000000000000000000000000
00000000000000000000000000000000000000000111111110000011111111000000001111000000000001111111000000000000011111111100000000000000001111111000000000001001110000000000000000000000000000000000000000000000
00000000000000000000000000000000000000000111111110000111111111000011001110000000000011111111000000000000011111111000000000000000001111111100000000001111110000000000011100000000000000000000000000000000
00000000000000000000000000000000000000001111111110000111111111000100000000000000000001111110000000000000100111110000000000000000001111111100000000001111110000000000011100000000000000000000000000000000
00000000000000000000000000000000000000011111111110000011111111100000000000000000000011111110000000000001110111110000000000000000001111111000000000001111110000000000000000000000000000000000000000000000
00000000000000000000000000000000000000011111111110000111111111100000000000000000001111111111100000000001111111000000000000000000001111111000000000000011100000000000000000000000000000000000000000000000
00000000000000000000000000011100000000011111111100000111111111100000000000000000111111111011100000000001111111000000000000000000001111111000000000000011100000000000000000000000110000000000000000000000
00000000000000000000000000011100000000111111011100000111111111100000000000000000111111110000000111000001111111100000000000000000001111111000000000001111100000000000000000000001110000000000000000000000
00000000000000000000000111000000000001111111011110001111111111110000000000000001111111110000001111100011111111100000000000000000011111111000000000011111100000000000000000000000000000000000000000000000
00000000000000000000000111000000011111111111111111111111111111111100011111111111111111111111111111111111111011100011111110000111111111111000000000011111100000000000000000000000000000000000000000000000
00000000000000000000000000000000011111111111111111111111111111111110111111111111111111111111111111111111111011111111111111001111111111000000000000011111100000000000000000000000000000000000000000000000
00000000000000000000000000000000011111111111111111111111111111111111111111110111111111111111110000111111111111111111011111111111111111000000000000011111111100000000000000000000000000000000000000000000
00000000000000000000000000000000000000111111111111111111111111111111111111100011111111111000100000011111111111001111011111111111111111110000000000111111111100000000000000000000000000000000000000000000
00000000000000000000000000000000000000111111111000000111111111110000000000000111111100000000000000001111111110000111111111111100111111111111100000111111110000000000000000000000000000000000000000000000
00000000000000000000000000000000000001111111110000000011111111100000000000000111111100000000000000000111111110000011111111110000111111111111111111111111100000000000000000000000000000000000000000000000
00000000000000000000000000000000000011111111110000000111111111100000000000001111111111100000000000000011111100000001111111100001111111110011111111111111110000000000000000000000000000000000000000000000
00000000000000000000000000000000000011111111110000000111111111100000000000001111111011100000000000000111111100000011111111000001111111100000100001111111111111000000000000000000000000000000000000000000
00000000000000000000000000000000000011111111110000000111111111100000001000011111110000000000000000000111111110000001111111000011111111000000000000111111111111111100000000000000000000000000000000000000
00000000000000000000000000001110000011111111110000000111111111100000111000011111110000000000000001110111111100000000011100000111111111000000000000011111111111111111000000000000000000000000000000000000
00000000000000000000000000001110000011111111110000001111111111000000000000000011100000000000000001111111111100000000000000000111111110000000000000011110000000000111110000000000000000000000000000000000
00000000000000000000000000000000000011111111111000011111111111001110000000100000000000000000000000000111111100000000000000000111111110000000000000111110000000000011111100000000000000000000000000000000
00000000000000000000000000000000000001111111110000011111111111001110000000111100000000000000000000000111111100000000000000000111111100000000000001111111000000000000111100000000000000000000000000000000
00000000000000000000000000000000000000011111110000001111111110000000000001111111000000000000000000000111111000000000000000000111111100000000000001111110000000000000011000000000000000000000000000000000
00000000000000000000000000000000000000011111110000001111111100000000000001111111000000000000000000000111111100000001110000001111111000000000000001111110000000000000001000000000000000000000000000000000
00000000000000000000000000000000000001111111110000001111011110000000000001111110000000000000000000000111111000000001110000001111111000000000000001111110000000000000000000000000000000000000000000000000
00000000000000000000000000000000000000111111110000001111011110000000000110011110000000000000000000000111110000000000000000011001110000000000000011111110000000000000000000000000000000000000000000000000
00000000000000000000000000000000000000111111110000011111111111000000000111001100000000000000000000000111110000000000000000000001100000000000000011111110000000000000000000000000000000000000000000000000
00000000000000000000000000000000000000011111110000011111011111000000001111110000000000000000000000000011111100000000000001100011100000000000000011111100000000000000000000000000000000000000000000000000
00000000000000000000000000000000000000001111111000111111011110000000001111110000000000000000000000000011111100000000000111111111100000000000000111111100000000000000000000000000000000000000000000000000
00000000000000000000000000000000000000001111111101111111111110000000000111111000000000000000000000000011111110000000000111111111100000001111111111111111000000000000000000000000000000000000000000000000
00000000000000000000000000000000000000000111111111111111111111110000001111111000011100000000000000000001111111000000000111111111100000011111111111111111111111000000000000000000000000000000000000000000
00000000000000000000000000000000000000000001001111110111111101110000011111111000011100000000000000000001111111100000000111111111000000111111111111111111111111100000000000000000000000000000000000000000
00000000000000000000000000000000000000000000000111110111111000000000011111111000000000000000000000000000111111110000000111111110000000111111011111111011111111100000000000000000000111000000000000000000
00000000000000000000001110000000000000000000000111111111111100000000111111110000000011100000000000000000111101111111001111111110000000111110001111110001111111000000000000000000000111000000000000000000
00000000000000000000001110000000000000000000000000111111111110000000111111110000000011100000000000000000001101111111111111111100000000111110010001100000011000000000000000000000000000000000000000000000
00000000000000000000000000000000000000000000000000000000001110000000111111100000000000000000000000000000001111111111111111111000000000001000000000000000000000000000000000000000000000000000000000000000
00000000000000000000000000000000000000000000000000000000000000000000111111000000000000000000000000000000000111111111111111100000000000000000000000000000000000000000000000000000000000000000000000000000
00000000000000000000000000000000000000000000000000000000000000000001111110000000000000000000000000000000000001111111111111000000000000000000000000000000000000000000000000000000000000000000000000000000
00000000000000000000000000000000000000000000000000000000000000000001111000000000000000000000000000000000000000111111111111000000000000000000000000000000000000000000000011100000000000000000000000000000
00000000000000000000000000000000000000000000000000111000000000000000000000000000000000000000000000000000000000000111111000000000000000000000000000000000000000000000000011101110000000000000000000000000
00000000000000000000000000000000000000000000000000111000000000000000000000000000000000000000000000000000000000000000000000000000000000000000000000000000000000000000000000001110000000000000000000000000
00000000000000000000000000000000000000000000000000000000000000000000000000000000000000000000000000000000000000000000000000000000000000000000000000000000000000000000000000000000000000000000000000000000
00000000000000000000000000000000000000000000000000000000000000000000000000000000000000000000000000000000000000000000000000000000000000000000000000000000000000000000000000000000000000000000000000000000
00000000000000000000000000000000000000000000000000000000000000000000000000000000000000000000000000000000000000000000000000000000000000000000000000000000000000000000000000000000000000000000000000000000
00000000000000000000000000000000000000000000000000000000000000000000000000000000000000000000000000000000000000000000000000000000000000000000000000000000000000000000000000000000000000000000000000000000
00000000000000000000000000000000000000000000000000000000000000000000000000000000000000000000000000000000000000000000000000000000000000000000000000000000000000000000000000000000000000000000000000000000
00000000000000000000000000000000000000000000000000000000000000000000000000000000000000000000000000000000000000000000000000000000000000000000000000000000000000000000000000000000000000000000000000000000
