P1
200 70
00000000000000000000000000000000000000000000000000000000000000000000000000000000000000000000000000000000000000000000000000000000000000000000000000000000000000000000000000000000000000000000000000000000
00000000000000000000000000000000000000000000000000000000000000000000000000000000000000000000000000000000000000000000000000000000000000000000000000000000000000000000000000000000000000000000000000000000
00000000000000000000000000000000011111111000000000000000000000000000000000000000000000000000000000000000000000000000000000000000000000000000000000000000000000000000000000000000000000000000000000000000
00000000000000000000000000000000011111111111000000000000000000000000000000000000000000000000000000000000000000000000000000000000000000000000000000000000000000000000000000000000000000000000000000000000
00000000000000000000000000000000011111111111111100000000000000000000000000000000000000000000000000000000000000000000000000000000000000000000000000000000000000000000000000000000000000000000000000000000
00000000000000000000000000000000011111111111111111111110000000000000000000000000000000000000000000000000000000000000000000000000000000000000000000000000000000000000000000000000000000000000000000000000
00000000000000000000000000000000000000000001111111111111110000000000000000000000000000000000000000000000000000000000000000000000000000000000000000000000000000000000000000000000000000000000000000000000
00000000000000000000000000000000000000000000001111111111111111000000000000000000000000000000000000000000001110000001110000000000000000000000000000000000000000000000000000000000000000000000000000000000
00000000000000000000000000000000000000111000000000000111111011100000000000000000000000000000000000000000001111110011111111000000000000000000000000000000000000000000000000000000000000000000000000000000
00000000000000000000000000000000000000111000000000000000010001110011000000000000000000000000000000000000001111111111111111100000000000000000000000000011100000000000000000000000000000000000000000000000
00000000000000000000000000000000000000000000000000000000000011111111110000000111001110000000000000000000001111111111111111100000000000000000000000000011100000111000010000000000000000000000000000000000
00000000000000000000000000000000000000000000000000000000000000000011111001101111001110000000000000000000001111111111111110011100000000000000000000000000000000111001110000000000000000000000000000000000
00000000000000000000000000000000000000001110000000000000000000000001111111111111111100000000000000000000001111111110000000111110000000000000000000000000000000000001100000111000000000000000000000000000
00000000000000000000000000000000000000001110000000000000000000000000001111111100111100001110000000000000001111100000000001111111000000000000000000000000000000000011100011111000000000000000000000000000
00000000000000000000000000000000000000000000000000000000000000000000000001111001111100011110000000000000011111000000000001111111000000000100000000000000000000000000111111111000000000000000000000000000
00000000000000000000000000000000000000000000000000000000000000000000000000000111110011111111000110011100000111000000000000111111100000000100000000000000000000000000111111111000000000000000000000000000
00000000000000000000000000000000000000000000000000111000000000000000000000000111110111111111111111111100000110000000000000111111100000000000000000000000000000000011111111111001110000000000000000000000
00000000000000000000000000000000000111000000000001111000000000000000000000001111111111111111111111100000111110000000000000111111100000000000000000000000000000011111111111111001110000000000000000000000
00000000000000000000000000000000000110000001111111111100000000000000000000001111111111111111111111100000011100000000000000011111100000000000000000000000000000001111111111111000000000000000000000000000
00000000000000000000000000000000000000000111111111111110000000000000111000001111111111111111111111110000000000000000000010011111110000000000000000000000000000001111111111111000000000000000000000000000
00000000000000000000000000000000000000001111111111111001000000000000001000011111111111111111111111111100000000000000000010001111110000000000000000000000000000011111111111111000000000000000000000000000
00000000000000000000000000000000000000011111111111110001000000000000000000011111111111101111111110111111000000000000000000001111110000000000000000000000000000111111111111111000000000000000000000000000
00000000000000000000000000000000000000111111111111110001100000000000000000001111111111101111111110011111110000000111000000001111110000000000000000000000000011111111111111110000000000000000000000000000
00000000000000000000000000000000000001111111100000000011100000000000000000000000000111111111111111101111111000000000000000011111000000000000000000000000000011111111111111110000000000000000000000000000
00000000000000000000000000000000000011111100000000001111110000000000000000000000000000111111111111000011111111100000000000011111000000000000000000000000000111111111111111110000000000000000000000000000
00000000000000000000000000000000000011111000000000011111110000000000000000000000000000001111111111000000001111111110000000011111100000000000000000000000001111111111100111100000000000000000000000000000
00000000000000000000000000000000000111110000000000001111100000000000000000000000000000001111111110000000000111111111100000011111100000000000000000000000001111111111100001100000000000000000000000000000
00000000000000000000000000000000000111110000000000000111100000000000000000000000000000011111111110000000000000111111111100111111100000000000000000000000011111111111111000110000000000000000000000000000
00000000000000000000000000000000000111110000000000000111110000000000000000000000000000011111111100000000000000000111111111111111000000000000000000000000111111111111111110000000000000000000000000000000
00000000000000000000000000000000000011110000000000000111110000000000000000000000000000111111111100000000000000000001111111111011000000000000000000000001111111111111111111000000000000000000000000000000
00000000000000000000000000000000000001100000000000000111110000000000000000000000000000011111111000000000000000000000001111111011000000000000000000000001111111101111111111110000000000000000000000000000
00000000000000000000000000000000000011100000000000000111110000000000000000000000000000111111111000000000000000000000000111111111000000000000000000000111111111101111111111110000000000000000000000000000
00000000000000000000000000000000111111100000000000001111110000000000000000000000000001111110010000000000000111000000000011111110010000000000000000000111111111001111111011110000000000000000000000000000
00000000000000000000000000000000111111000000000000001111110000000000000000000000000011111110000000000000000111000000000111111110111110000000000000000111111110000111111011111000000000000000000000000000
00000000000000000000000000000000111111000000000000001111110000000000000000000000000111111111100000000000000000000000001111111111111111100000000000011111111110000111111111111000000000000000000000000000
00000000000000000000000000000000111111000000000000001111110000111001110000000000001111110111100000000111000000000000001111110000001111111000000000011111111100000111111111100000000000000000000000000000
00000000000000000000000000000001111111000000000000001111110000111001110000000000011111110111000000000111000000000000011111100000000111111111000000100111111000000111111111100000000000000000000000000000
00000000000000000000000000000001111111000000000000001111110000000000000000000000011111111110000000000000000000000000011111100000000001111111110001100011111000001111111111110000000000000000000000000000
00000000000000000000000000000001111110000000000000000011110000000000000000000000111111111110000000000000000000000010011111000000000000011111111101100011110000001111111111110000000000000000000000000000
00000000000000000000000000000001111110000000000000000011100000001110000000000000111111111110000000000000000000000111011111000000000000000011111100000111000000000011111111110000000000000000000000000000
00000000000000000000000000000011111110000000000000001111100000001110000000000001111111111100111000000000000000001111111100000000000000000001111110011111000000000011111111110000000000000000000000000000
00000000000000000000000000000011111110000000000000011111100000000000000000000011111011111100111000000000000000011111111000000000111000000001111111111111000001111111111111111111100000000000000000000000
00000000000000000000000000000011111110000000000000011111100000000000000000000011111011111000000000000000000001111111110000000000000000000000111111111111111111111111111111111111100000000000000000000000
00000000000000000000000000000011111110000111000000011111100000000000000000000111111111110000000000000000011111111111100000000000000000000000011111111111111111111111111101111111100000000000000000000000
00000000000000000000000000000011111110000111000000111111100000000000000000001111111111100000000000000000011111111110000000000000000000000000011111111111111111111111111101111100000000000000000000000000
00000000000000000000000000000001111110000000000000111111100000000000000000001111111111100000000000000000011111111100000000000000000000000000001111111110111111111111111111111100000000000000000000000000
00000000000000000000000000000001111100000000000000111111100000000000000000011111111111100000000000000000111111111000000000000000000000000000001111111110111111111111111001111110000000000000000000000000
00000000000000000000000000000001111000000000000000111111000000000000000000111111111111000000000000000011111111110000000000000000000000000000001111111111111111111111111000011111000000000000000000000000
00000000000000000000000000000001110001000000111001111111000000000000000001111111111110000000000000000111111111000000000000000000000000000000001111111111000111111111111110011111000000000000000000000000
00000000000000000000000000000000000111100000111000111111000000000000000011111110111110000000000000011111111110000000000000000000000000000000000000000000000000111111111111111111000000000000000000000000
00000000000000000000000000000000000111110000000001111110000000000000000111111110111100000000000000011111111100000000000000000001111000000000000000000000000000011111111111100000000000000000000000000000
00000000000000000000000000000000001111111000000111111110000000000000001111111111111000000000000000011111111111111000000000000001111000000000000000000000000000011111111111100000000000000000000000000000
00000000000000000000000000000000001111111111111111111100000000000000000111111111110000011100000000011111111111111100000000000001111100000000000001110000000000001111111111100000000000000000000000000000
00000000000000000000000000000000000111111111111111111100000000000000001111111111100000011100000000011111111111111111110000000001111100000000001111110000000011001111111111100000000000000000000000000000
00000000000000000000000110000000000011111111111111111000000000000000111111111111100000000000000000000011111111111111111111000001111000000000001110000000000011001111111111100000000000000000000000000000
00000000000000000000000110000000000000111111101110010000000000000001111111111111000000000000000000000000001111111111111111111001111000000000000000000000000000001111111111100000000000000000000000000000
00000000000000000000000000000000000000001111101100000000000000000011111111111110000000000000000000000000000001111111111111111111111000000000000000000000000000001110000000000000000000000000000000000000
00000000000000000000000000000000000000000001111110000000000000000111111111111110000000000000000000000000000000111111101111111111111100000000000000111000000000001110000000000000000000000000000000000000
00000000000000000000000000000000000000000000000000000000000000001111111111111100000000000000000000000000000000000001000111111111111100000000000000000000000000000000000000000000000000000000000000000000
00000000000000000000000000000000000000000000000000000000000000011111111111111000000000000000000000000000000000000000000001111111110000000000000000000000000000000000000000000000000000000000000000000000
00000000000000000000000000000000000000000000000000000000000000111111111111000000000000000000000000000000000000000000000000111111100000000000000000000000000000000000000000000000000000000000000000000000
00000000000000000000000000000000000000000000000000000000000001111111111110000000000000000000000000000000000000000000000000011100011100000000000001110000000000000000000000000000000000000000000000000000
00000000000000000000000000000000000000000000000000000000000000111111100011000000000000000000000000000000000000000000000000000000011100000000000001110000000000000000000000000000000000000000000000000000
00000000000000000000000000000000000000000000000000000000000000000000000000000000000000000000000000000000000000000000000000000000111100000000000000000000000000000000000000000000000000000000000000000000
00000000000000000000000000000000000000000000000000000000000000000000000000000000000000000000000000000000000000000000000000000000001100000000000000000000000000000000000000000000000000000000000000000000
00000000000000000000000000000000000000000000000000000000000000000000000000000000000000000000000000000000000000000000000000000000000000000000000000000000000000000000000000000000000000000000000000000000
00000000000000000000000000000000000000000000000000000000000000000000000000000000000000000000000000000000000000000000000000000000000000000000000000000000000000000000000000000000000000000000000000000000
00000000000000000000000000000000000000000000000000000000000000000000000000000000000000000000000000000000000000000000000000000000000000000000000000000000000000000000000000000000000000000000000000000000
00000000000000000000000000000000000000000000000000000000000000000000000000000000000000000000000000000000000000000000000000000000000000000000000000000000000000000000000000000000000000000000000000000000
00000000000000000000000000000000000000000000000000000000000000000000000000000000000000000000000000000000000000000000000000000000000000000000000000000000000000000000000000000000000000000000000000000000
