P1
200 70
00000000000000000000000000000000000000000000000000000000000000000000000000000000000000000000000000000000000000000000000000000000000000000000000000000000000000000000000000000000000000000000000000000000
00000000000000000000000000000000000000000000000000000000000000000000000000000000000000000000000000000000000000000000000000000000000000000000000000000000000000000000000000000000000000000000000000000000
00000000000000000000000000000000000000000000000000000000000000000000000000000000000000000000000000000000000000000000000000000000000000000000000000000000000000000000000000000000000000000000000000000000
00000000000000000000000000000000000000000000000000000000000000000000000000000000000000000000000000000000000000000000000000000000000000000000000000000000000000000000000000000000000000000000000000000000
00000000000000000000000000000000000000000000000000000000000000000000000000000000000000000000000000000000000000000000000000000000000000000000000000000000000000000000000000000000000000000000000000000000
00000000000000000000000000000000000000000000000000000000000000000000000000000000000000000000000000000000000000000000000000000000000000000000000000000000000000000000000000000000000000000000000000000000
00000000000000000000000000000000000000000000000000000000000000000000000000000000000000000000000000000000000000000000000000000000000000000000000000000000000000000000000000000000000000000000000000000000
00000000000000000000000000000000000000000000000000000000000000000000000000000000000000000000000000000000000000000000000000000000000000000000000000000011100000000000000000000000000000000000000000000000
00000000000000000000000000000000000000000000000000000000000000000000000000000000000000000000000000000000000000000000000000000000000000000000000000000011100000000000000000000000000000000000000000000000
00000000000000000000000000000000000000000000000000000000000000000000000000000000000000000000000000000000000000000000000000000000000000000000000000000000000000000000000000000000000000000000000000000000
00000000000000000000001110000000000000000000000000000000000000000000000000000000000000000000000000000000000000000000000000000000000000000000000000000000000000000000000000000000000000000000000000000000
00000000000000000000001110000000000000000000000000000000000000000000000000000000000100000000000000000000000000000000000000100000000000000000000000000000000000000000000000000000000000000000000000000000
00000000000000000000000000000000000000000011000000000000000000000000000111111000000000000000000000000000000000000000000000111000000000000000000000000000000000000000000000000000000000000000000000000000
00000000000000000000000000000000000000000111110000000000000000000000000111111111111100000111000000000000000000000000000000000000000000000000000000000000000000000000000000000000000000000000000000000000
00000000000000000000000000000000000000001111111111100000000000000000000111111111111111001111000000000000000000000000000000000000000000000000000000000000000000000000000000000000000000000000000000000000
00000000000000000000000000000000000000111111111111110000000000000000000111111111111111111111111111000000000000000000000000000000000000000000000000000000000000000000000000000000000000000000000000000000
00000000000000000000000000000000000111111111111111110000000000000000001111111111111110111111111111111100000000001111111111100000000000000000000000000000000000000000000000000000000000000000000000000000
00000000000000000000000000000000001111111110011100111000000000000000000111111100111110111111111111111111110000011111111111111111110000000000000000000000000000000000000000000000000000000000000000000000
00000000000000000000000000000000111111111100000000111100000000000000000111111100111111111111111111101111110000111111111111111111111100000000000000000011011111000000000000000001110111000000000000000000
00000000000000000000000000000000011111111000000011111100000000000000000111111111111111101111111111101111110001111111111111111111111111000000000000000111111111111111111000000011110111000000000000000000
00000000000000000000000000000000001111111000000001111110001111000000000111111111111111000111111111111111110001111111111111111111111111110000000000001111111111111111111100111111000000000000000000000000
00000000000000000000000000000000000111111000000000111110011111000000000000111000111111100011111111111111110001111111111111111111111111111000000000001111111111111111111111111110000000000000000000000000
00000000000000000000000000000000000111111000000000111111111110000000000000000000000000000011111111111111100011111111111111101111111111111100000000011110111111111111111111111000000000000000000000000000
00000000000000000000000000000000000111111111100000011111111110000000000000000000000000000001111111111111000011111111111100000011111111111110000000011110111111111111111111110000000000000000000000000000
00000000000000000000000000000000000111111111100000011111110000000000000000000000000000000011111111111100000001111111111000011100111111111110000000111111111111111111111111100000000000000000000000000000
00000000000000000000000000000000000111101111000000001111100000000000000000000000000000000011111101110000000001111111111000011100011111111110000000111111111111111111111111000000000000000000000000000000
00000000000000000000000000000000000111001111000000001111110000000000000000000000000000000011111100100000000000111111111000000000011011111110000000111000000000011111111110000000000000000000000000000000
00000000000000000000000000000000000011101111100000001111111000000000000000000000000000000111111110000000001000110111111000000000000011111110000001110000000000000111111100000000000000000000000000000000
00000000000000000000000000000000000001110111110000000111111000000000000000000000000000011111111100000000001110110111111000000000001111111110000001100000000000000111111100000000000000000000000000000000
00000000000000000000000000000000000000110011111000000100111000000000001110000000000001111111111100000011100000111111111100000000011111111110000000000000000000001111111110000000000000000000000000000000
00000000000000000000000000000001110001110001111100000000111000000000001110000000000001111111000000000011100000111111111100000000011111111110000000000000000000111111101110000000000000000000000000000000
00000000000000000000000000000001111111110000100010000011111100000000001110000000000011111110000000000000000000011111111110000000111111111100000000000000000000111001000000000000000000000000000000000000
00000000000000000000000000000000000111110000000000000011111000000000000000000000000111111110000000000000000000001111011111110001111111111000000000000000000001110000000000000000000000000000000000000000
00000000000000000000000000000000000111110000011100010000111000000000000000000000000111111111000000000000000000001111011111111011111111100000000000000000001111110000000000000000000000000000000000000000
00000000000000000000000000000000000111110000001111111100111110000000000000000000001111111110000000000000000000000111111111111111111111000000000000000000001111111000000000000001000000000000000000000000
00000000000000000000000000000000000111110000000011111111111111000000000000000000011111111110000000000000000000000001111111111111111110000000000000000000001111110000000000000001000000000000000000000000
00000000000000000000000000000000000111110000000001100111111111000000000000000000011111111000000000000000000000000001111111111111111111000000000000000000011111110000000000000000000000000000000000000000
00000000000000000000000000000000000111111000000000000111111111000000000000000000011111111000000000000000000000000111111111111111110011100000000000000000011111100000000000000000000000000000000000000000
00000000000000000000000000000000000111111000000000001111111111000000000000000000111111111000000111000000000000001111111111101111100001110000000000000000011111000000000000000000000000000000000000000000
00000000000000000000000000000000000111111000000111110001111111000000000000000000111111110000000111000000000000011111111100000001110011100000000000000000001110000000000000000000000000000000000000000000
00000000000000000000000000000000000011011000000111110000111111100000000000000001111111100000000000000000000000011111111100000000111111100000000000000010001110000000000000000000000000000000000000000000
00000000000000000000000000000000000011011100000000000000011111111000000000000001111111100000000000000000000000111111110000000000011111111100000000000010000110000000000000000000000000000000000000000000
00000000000000000000000000000000000011111100000000000000011111100100000000000001111111100000000000000000000000111111100000000000011111111100000000000111000110000000000000000000000000000000000000000000
00000000000000000000000000000000000011111100000000000000011111101111100000000001111111000000000000000000000000111111110000000000011111111100000000001111100000000000000000000000000000000000000000000000
00000000000000000000000000000000000011111100000000000000011111111111111000000001111111000000000000000000000000111111110000000000011111111100000000011111100000000000000000000000000000000000000000000000
00000000000000000000000000000000000011111100000000000000011111111111111111100111111111000000000000000000000000111111110000000000010011111100000000111111000000000000000000000000000000000000000000000000
00000000000000000000000000000000000011111110000000000000011111100111001111111111111110000000000000000000000000111111110000000000010011111000000000111111000000000000000000000000000000000000000000000000
00000000000000000000000000000000000011111110000000000000011111100011000111111111111110000000000000000000001110111111100000000000111111111000000000111110000000000000000000000000000000000000000000000000
00000000000000000000000000000000000011111100000000000000011111100011100001111111111110000000000000000000001110111111000000000000111111110000000001111100000000000000000000000000000111000000000000000000
00000000000000000000000000000000000001111110000000000000111111100011100000001111111111000000000000000000000000111111000000000001111111110000000011111000000000000000000000000000000111000000000000000000
00000000000000000000011100000000000000111111000000000011111111000000000000000001111111111111110000000000000000011111100100000011111111100000000011110000000000000000000000000000000000000000000000000000
00000000000000000000011100000000000000111111100000000011110000000000000000001001111100111111111111111000000000001111111110011111111111000000000111110000000000000000001000000000000000000000000000000000
00000000000000000000000000000000000000111111110000000111110000000000000000001111111000011111111111111111111000011111111111111111111110000010001111100000000000001111111000000000000000000000000000000000
00000000000000000000000000000000000000111111110000001111111100000000000000001111111000000000011111111111111111111111111111111111111110000111011111100000011111111111100000000000000000000000000000000000
00000000000000000000000000000000000000011111111111111111111100000000000000011111111000000000000000001100011111111101111111111111011111111111111111100000011111111111000000000000000000000000000000000000
00000000000000000000000000000000000000001111111111111101111000000000000000011111111000000000000000000000001111111001111111111111011111111111111111110000111111111000000000000000000000000000000000000000
00000000000000000000000000000000000000001111111111011100110000000000000000011111110000000000000000000000000000000111111111111111111111111111111111111111110000000000000000000000000000000000000000000000
00000000000000000000000000000000000000001111111111001110000000000000000000011110000000000000000000000000000000000000001111111111111111000111111111100000000000000000000000000000000000000000000000000000
00000000000000000000000000000000000000000111111111100010000000000000000000011100000000000000000000000000000000000000000000000000000000000000000000000000000111000000000000011100000000000000000000000000
00000000000000000000000000000000000000000000111111100000000000000000000000000000000000000000000000000000000000000000000000000000000000000000000000000000000111000000000000011100000000000000000000000000
00000000000000000000000000000000000000001100011111000000000000000000000000000000000000000000000000000000000000000000000000000000000000000000000000000000000000000000000000000000000000000000000000000000
00000000000000000000000000000000000000001110000000000000000000000000000000000011100000000000000000000000000000000000000000000000000000000000000000000000000000000000000000000000000000000000000000000000
00000000000000000000000000000000000000000000000000000000000000000000000000000011100000000000000000000000000000000000000000000000000000000000000000000000000000000000000000000000000000000000000000000000
00000000000000000000000000000000000000000000000000000000000000000000000000000000000000000000000000000000000000000000000000000000000000000000000000000000000000000000000000000000000000000000000000000000
00000000000000000000000000000000000000000000000000000000000000000000000000000000000000000000000000000000000000000000000000000000000000000000000000000000000000000000000000000000000000000000000000000000
00000000000000000000000000000000000000000000000000000000000000000000000000000000000000000000000000000000000000000000000000000000000000000000000000000000000000000000000000000000000000000000000000000000
00000000000000000000000000000000000000000000000000000000000000000000000000000000000000000000000000000000000000000000000000000000000000000000000000000000000000000000000000000000000000000000000000000000
00000000000000000000000000000000000000000000000000000000000000000000000000000000000000000000000000000000000000000000000000000000000000000000000000000000000000000000000000000000000000000000000000000000
00000000000000000000000000000000000000000000000000000000000000000000000000000000000000000000000000000000000000000000000000000000000000000000000000000000000000000000000000000000000000000000000000000000
00000000000000000000000000000000000000000000000000000000000000000000000000000000000000000000000000000000000000000000000000000000000000000000000000000000000000000000000000000000000000000000000000000000
