P1
200 70
00000000000000000000000000000000000000000000000000000000000000000000000000000000000000000000000000000000000000000000000000000000000000000000000000000000000000000000000000000000000000000000000000000000
00000000000000000000000000000000000000000000000000000000000000000000000000000000000000000000000000000000000000000000000000000000000000000000000000000000000000000000000000000000000000000000000000000000
00000000000000000000000000000000000000000000000000000000000000000000000000000000000000000000000000000000000000000000000000000000000000000000000000000000000000000000000000000000000000000000000000000000
00000000000000000000000000000000000000000000000000000000000000000000000000000000000000000000000000000000000000000000000000000000000000000000000000000000000000000000000000000000000000000000000000000000
00000000000000000000000000000000000000000000000000000000000000000000000000000000000000000000000000000000000000000000000000000000000000000000000000000000000000000000000000000000000000000000000000000000
00000000000000000000000000000000000000000000000000000000000000000000000000000000000000000000000000000000000000000000000000000000000000000000000000000000000000000000000000000000000000000000000000000000
00000000000000000000000000000000000000000000000000000000000000000000000000000000000000000000000000000000000000000000000000000000000000000000000000000000000000000000000000000000000000000000000000000000
00000000000000000000000000000000000000000000000000000000000000000000000000000000000001110000000000000000000000000000000000000000000000000000000000000000000000000000000000000001110000000000000000000000
00000000000000000000000000000000000000000000000000000000000000000000000000000000000001110000000000000000000000000000000000000000000000000000001110000000000000000000000000000000000000000000000000000000
00000000000000000000000000000000000000000000000000000000000000000000000000000000000000000000000000000000000000000000000000000000000000000000111110000000000000000000000000000000000000000000000000000000
00000000000000000000000000000000000000000000000000000000000000000000001110000000000000000000000000000000000000000000000000000000000000000000111100000000000000000000000000000000000000000000000000000000
00000000000000000000000000000000000000000000000000000000000000000000001110000000000000000000000000000000000000000000000000000000000000000000000010000000000000000000000000000000000000000000000000000000
00000000000000000000000000000000000000000000000000000000000000000000000000000000000000000000000000000000000000000000000000000000000000000000000011000000000000000000000000000000000000000000000000000000
00000000000000000000000000000000000100001110000000000000000000000000000000000000000000000000000000000000000000000000000000000000000000000000000001111111100011110000000000000000000000000000000000000000
00000000000000000000000000000000000000001110000000000000000000000000000000000001000000000000000000000000000000000000000000000000000000000000000001111111111111111000000000000000000000000000000000000000
00000000000000000000001110000000110000000000000000000000000000000000000000001111100111110000000000000000000000000000000000000000000000000000000111111111111111111111000000000000000000000000000000000000
00000000000000000000001110000000011111000000000000000000000000000000000000011111111111111100000000000000000000000000000000000000000000000000001111111111111111111111110000000000000000000000000000000000
00000000000000000000000000000000011110000000000000001111000000000000000000111111111111111110000000000000000000000000000000000000000000000000011111111111111111111011111100000000000000000000000000000000
00000000000000000000000000000000001110000000001111111111000000000000000001111111111111111111000000000000000000000000001111111110000000000000111111111111111011111011111110000000000000000000000000000000
00000000000000000000000000000000000111110000011111111111100100000000000001111111111111111110000000000000000000000001111111111111100000000000111111111111111011111111111110000000000000000000000000000000
00000000000000000000000000001110000111111001111111111111111100000000000011110111111011111111000000000000000000000000111111111111110000000000100111111111111111111111111100000000000000000000000000000000
00000000000000000000000000001110000011111111111111111111111110000000000011110010000000011111110000000000000000011000111101111111110000000000100111111111111111111111111100000000000000000000000000000000
00000000000000000000000000000000000001111111111110000111111110000000000011111000000000000111110000000000000000011100011000111111111000000000111111111111111111111111111110000000000000000000000000000000
00000000000000000000000000000000000001111111111000000001111110000000000001111000000000000111111000000000000001111100000000001111111100000001111111111111110000011111011111100000000000000000000000000000
00000000000000000000000000000000000000111111110000000001111111000000000011111000000000000011111000000000000011101110000000000111111000000111111111111111000000001111011111100000000000000000000000000000
00000000000000000000000000000000000000111111100000000011111110000000000111111100000000000011111100000000000111101110000000000011111100111111111111111111000000001111111111100000000000000000000000000000
00000000000000000000000000000000000000111111100000000111111000000011100111111111100000000011111100000000001111111100000000000011111111111111100011111111000000000001111111100000000000000000000000000000
00000000000000000000000000000000000000111111000000000111111000000011100111111011100000000011111100000000011111000000000000000011111111111110000011111111000000000001111111100000011100000000000000000000
00000000000000000000000000000000000000111111100000001111111110000000000111111000000000000011111110000000111111000000000000000011111111110000000011111111000000001111111111100000011100000000000000000000
00000000000000000000000000000000000001111111111100011111111110000000000111111000000000000011111110000000111111100000000000000111111111000000000011111111001110011111111111100000000000000000000000000000
00000000000000000000000000000000000001111101111111111111111100000000000111111000000000000011111110000001111011100000000000000111111110000000000000111111111111111111111111100000000000000000000000000000
00000000000000000000000000000000000011111100111111111110111100000000000111111000000000000001101110000011111001000000000000001111111100000000000000000011111111111111111111000000000000000000000000000000
00000000000000000000000011100000000011111000011111111100111100000000000111100000000000000001101110000011111110000000000001111111111100000000000000000000111111111111111100000000000000000000000000000000
00000000000000000000000011100000000001111000011111111001111100000000000111100000000000000011111100000011111110000111111111111111111100000000000000001100111111111111111000000000000000000000000000000000
00000000000000000000000000000000000001110000001111111111111100000000000011111100000000000011110000001111111100000111111111111111111100000000000000011111111111111111111000000000000000000000000000000000
00000000000000000000000000000000000011110000000011111111111000000000000000111100001110000111100000001111111000000011111111111111111100000000000000111011111111111111111110000000000000000000000000000000
00000000000000000000000000000000000111110000110001111111110000000000000000111110001110000111110000001111111000000011111111001111100000000000000001111011111111111111111111000000000000000000000000000000
00000000000000000000000000000000000011110000001100111101110000000000000001111110000000000111111100001111111000111111111110000111100000000000000001111111111100001111111111100000000000000000000000000000
00000000000000000000000000000000000011100010001000011001111000000000000001111111000000001111111110001111111111111111111100001111110000000000000001111111110000000011111111100000011100000000000000000000
00000000000000000000000000000000000111100111110000000011111100000000000000111111100000011111011100011111111111111111111100001111111110000000000001111111000000000001111111110000011100000000000000000000
00000000000000000000000000000000000111111001111000000001111111110000000000011111111000111111011100011111111111110001111000001111111110000000000001111111000000000001111111110000000000000000000000000000
00000000000000000000111000000000000111111100111000010001111111111000000000001111011111111111111100011111111110000000000000001111111000000000000001111111110000000000111111111000000000000000000000000000
00000000000000000000111000000000000111111110000000011110001111111100000000001111011111111111111000111111111000000000000000011111111000000000000001111001110000000000111111110000000000000000000000000000
00000000000000000000000000000000000111111100000000011110000000111111000000000111111111111111111101111111110000000000000000011111110000000000000001110001110000000000111111110000000000000000000000000000
00000000000000000000000000000000000111111100000000111100000000011111111000000001111111111111111111111111100000000000111000011111110000000000000000100011111000000000111111111000000000000000000000000000
00000000000000000000000000000000000111111000000000011100000000001111111111100001111111111111111111111111110000000000111000001111100000000000000000011111111000000001111111111100000000000000000000000000
00000000000000000000000000000000000111110000000000111000000000000011111111111111111111111111111111111111110000000000000000001111100000000000000000011111111100000001111111111100000000000000000000000000
00000000000000000000000000000000000111110000000011110000000000000000001111111111111111111111111000011111110000000000000000111111100000000000000000001111001110000000111111011100000000000000000000000000
00000000000000000000000000000000000111000000000111110000000000000000000001111111111111111111110000001111111000000000000011111111100000000000000000001111000001100001111111011100000000000000000000000000
00000000000000000000000000000000000011000000001111100000000000000000000000000000111111111111110001000011111110000000000111111111000000000000000000000111110011111111111111111000000000000000000000000000
00000000000000000000000000000000000011111000011111100000000000000000000000000000000000011111110111000001111111000000001111111111000001000000000000000111111111111111111011111000000000000000000000000000
00000000000000000000000000000000000011111111111110000000000000000000000111000000000000001111110000011111110111111100111111111111100001000000000000000011110111111111111011111000000000000000000000000000
00000000000000000000000000000000000001111111111100000000000000000000000111100000000000001111100000011100000111110011111111100111100000000000000000000001100111111111111111110000000000000000000000000000
00000000000000000000000000000000000001111111111000000000000000000000000111111111000000111111000000000000000111110111001111000000000000000000000000000000001111111111011111100000000000000000000000000000
00000000000000000000000000000000000001111111110000000000000000000000000111111111000011111111000000000000000001111111001111100000000000000000000000000000000111111111001111000000000000000000000000000000
00000000000000000000000000000000000001111111100000000000000011100000000111111111011111111110000000000000000000111111111111100000000000000000000000000000000001111111111110000000000000000000000000000000
00000000000000000000000000000000000000000111100000000000000011100000000111111100111111111100000000000000000000000011111110000000000000000000000000000000000000111101100000000000000000000000000000000000
00000000000000000000000000000000000000000011100000000000000000000000000001111000111111111000000000000000000000000001000000000000000000000000000000000000000000111000000000000000000000000000000000000000
00000000000000000000000000000000000000000000000000000000000000000000000000111101111111111000000000000000000000000011100000000000000000000000000000000000000000011100000000000000000000000000000000000000
00000000000000000000000000000000000000000000000000000000000000000000000000011111111111110000000000000000000000000011100000000000000000000000000000000000000000011100000000000000000000000000000000000000
00000000000000000000000000000000000000000000000000000000000000000000000000000111111111100000000000000000000000000000000000000000000000000000000000000000000000000000000000000000000000000000000000000000
00000000000000000000000000000000000000000000000111000000000000000000000000000000011110000000000000000000000000000000000000000000000000000000000000000000000000000000000000000000000000000000000000000000
00000000000000000000000000000000000000000000000111000000000111000000000000000000000000000000000000000000000000000001100000000000000000000000000000000000000000000000000000000000000000000000000000000000
00000000000000000000000000000000000000000000000000000000000111000000000000000000000000000000000000000000000000000001100000000000000000000000000000000000000000000000000000000000000000000000000000000000
00000000000000000000000000000000000000000000000000000000000000000000000000000000000000000000000000000000000000000000000000000000000000000000000000000000000000000000000000000000000000000000000000000000
00000000000000000000000000000000000000000000000000000000000000000000000000000000000000000000000000000000000000000000000000000000000000000000000000000000000000000000000000000000000000000000000000000000
00000000000000000000000000000000000000000000000000000000000000000000000000000000000000000000000000000000000000000000000000000000000000000000000000000000000000000000000000000000000000000000000000000000
00000000000000000000000000000000000000000000000000000000000000000000000000000000000000000000000000000000000000000000000000000000000000000000000000000000000000000000000000000000000000000000000000000000
00000000000000000000000000000000000000000000000000000000000000000000000000000000000000000000000000000000000000000000000000000000000000000000000000000000000000000000000000000000000000000000000000000000
00000000000000000000000000000000000000000000000000000000000000000000000000000000000000000000000000000000000000000000000000000000000000000000000000000000000000000000000000000000000000000000000000000000
