P1
200 70
00000000000000000000000000000000000000000000000000000000000000000000000000000000000000000000000000000000000000000000000000000000000000000000000000000000000000000000000000000000000000000000000000000000
00000000000000000000000000000000000000000000000000000000000000000000000000000000000000000000000000000000000000000000000000000000000000000000000000000000000000000000000000000000000000000000000000000000
00000000000000000000000000000000000000000000000000000000000000000000000000000000000000000000000000000000000000000000000000000000000000000000000000000000000000000000000000000000000000000000000000000000
00000000000000000000000000000000000000000000000000000000000000000000000000000000000000000000000000000000000000000000000000000000000000000000000000000000000000000000000000000000000000000000000000000000
00000000000000000000000000000000000000000000000000000000000000000000000000000000000000000000000000000000000000000000000000000000000000000000000000000000000000000000000000000000000000000000000000000000
00000000000000000000000000000000000000000000000000000000000000000000000000000000000000000000000000000000000000000000000000000000000000000000000000000000000000000000000000000000000000000000000000000000
00000000000000000000000000000000000000000000000000000000000000000000000000000000000000000000000000000000000000000000000000000000000000000000000000000000000000000000000000000000000000000000000000000000
00000000000000000000000000000000000000000011100000000000000000000000000000000000000000000000000000000000000000000000000000000000000000000000000000000000000000000000000000000011100000000000000000000000
00000000000000000000000000000000000000000011100000000000000000000000000000000000000000000000000000000000000000000000000000000000000000000000000000000000000000000000000000000011100000000000000000000000
00000000000000000000000000000000000000000000000000000000000000000000000000000000000000000011100000000000000000000000000000000000000000000000000000000000000000000000000000000000000000000000000000000000
00000000000000000000000000000000000000000000000000000000000000000000000011100000000000000011100000000000000000000000000000000000000000000000000000000000000000000000000000000000000000000000000000000000
00000000000000000000000000000000000000000000000000000000000000000000000011100000000000000000000000000000000000000000000000000000000000000000000000000000000000000000000000000000000000000000000000000000
00000000000000000000000000000000000000000000000000000000000000000000000000000000000000000000000000000000000000000000000000000000000000000000000000000000000000000000000000000000000000000000000000000000
00000000000000000000001110000000000000000000000000000000000000000000000000000000000000000011111111100000000000000000000000000000000001110000000000000000000000000000000000000000000000000000000000000000
00000000000000000000001110000000000000000000000000000000000000000000001110000000000000001111111111110000000000000000000000000000000001100000000000000000111000000000010000000000000000000000000000000000
00000000000000000000000000000000000000011111111000000000000000000000000000000000000000111111111111111100000000000000000000000000000000000000000000000000111111100000111000000000000000000000000000000000
00000000000000000000000000000000001111111111111111111100000000000000000000000000000001111111111111111110000000000000001110000000000000000000000000000000111111100011111000000000000000000000000000000000
00000000000000000000000000000000001111111111111101111111111110000000000000000000000011111111111111111111100000000110011111100000000000000000000000000000111111000111111100000000000000000000000000000000
00000000000000000000000000000000011111111111111000111111111111001000000000000000000111111111110001111111100000111111111111100000000000000000000000000011111111000111111000000000000000000000000000000000
00000000000000000000000000000000010000000000000000011111111111111111000000000000001111111110000000111111110011111111111011110000000000000000000000000111111111101111111000000000000000000000000000000000
00000000000000000000000000000000000000000000001000011111111111111111110000000000001111111000000000011111111111111111110001110000000000000000000000011111111111111111111100000000000000000000000000000000
00000000000000000000000000000000000000000000011110001111111111111011111110000000011111110000000000001111111111111111100011111000000000000000000000111111111111111111111111000000000000000000000000000000
00000000000000000000000000000000000000000000111111011111111111111001111111100000111111100000000000000011111111111111110111111000000000000000000001111111110001100001111111000000000000000000000000000000
00000000000000000000000000000000000000000001111111111111111011111111111111111101111111100000000000000011111111111111111111111000000000000000000011111111111000000000011111000001110000000000000000000000
00000000000000000000000000000000000000000001111111111111110011111001000111111111111111000000000000001111111111111111111111111000000000000000000011111111111100000000001111000001110000000000000000000000
00000000000000000000000000000000000000000011111111111011111111111011000000111111111111000000000000001111111111100111111111111100000000000000000111111111110000000000011110000000000000000000000000000000
00000000000000000000000000000000000000000111111111110001111111111111000000001111111111110000000000001111111111000000111111111110000000000111000111111111000000000000001110000000000000000000000000000000
00000000000000000000000000000000000000000111111111100000001111111110000000000111111111111110000000011111111111000000111111111100000000000111101111111100000000000000000000000000000000000000000000000000
00000000000000000000000000000000000000001111101111000000000111111111000000001111111111111111111111111111100100000000111111111100000000000111111111111000000000000000000001100000000000000000000000000000
00000000000000000000000000000000000000001111101111000000000111111111100000001111111100011111111111111111100000000000011111111110000000001111111111110000000000000000000000000000000000000000000000000000
00000000000000000000000000000000000000011111111111000000000111101111100000000111111100000011111111111111110000000000001111111111000000011111111111100011111111100000000000000000000000000000000000000000
00000000000000000000000000000000000000011111111100000000000111101111100000000111111000000000011111111111111000000000011111111111111111111111111111111111111111001000000000000000000000000000000000000000
00000000000000000000000000000000000000011111111000000000000011111111000000001111111000000000000011111111111111111111111111111111111111111000111111111111111110000000000000000000000000000000000000000000
00000000000000000000000000000001110000100111111100000000000001111111000000001111111000000000000011111111111111111111111111111110111111000000011111111111000000000001000000001110000000000000000000000000
00000000000000000000000000000001110000110111111100000000000011111111100000001111111100000000000111111111001111111111111111111110111000000000011111111100000000001111000000001110000000000000000000000000
00000000000000000000000000000000000001111111110000000000000111111111100000001110111100000000001111111110000000000111111111111111110000000000111111111000000000011111100000000000000000000000000000000000
00000000000000000000000000000000000001111111100000000000000111111111110000000110111110000001111111111110000000000011111111111111110000000001111111110000000000011111100000000000000000000000000000000000
00000000000000000000000000000000000001111111000000000000001111110111100000000111111111111111111111111000000000000001111011111111000000000001111111100000000000011111110000000000000000000000000000000000
00000000000000000000000000000000000011111100000000000000001111110111100000000011111111111111111111110000000000000000111111111110000000000001111111000000000000011110000000000000000000000000000000000000
00000000000000000000000000000000000001111100100000000000000111111111100000000001111111111011111111110000000000000000011100111111000000000001111111000000000000011110000011100000000000000000000000000000
00000000000000000000000000000000000001111111110000000000000111111111100000000011110111111011111111100000000000000000000000111111111100000000111110000000000000111111100011100000000000000000000000000000
00000000000000000000000000000000000011101111110000000000011111111111100000000011100111111111000011000000000000000000000000011111111100000000011110000000000000111111100000000000000000000000000000000000
00000000000000000000000000000000000111101111110000000000011111111111000000000000011111111100000011000000000000000000000000001111111110000000011110000000000000001111000000000000000000000000000000000000
00000000000000000000000000000000000111111111110000000000111111101111000000000000000111010000111111000000000000000000000000011111111110000000111110000000000000001111000000000000000000000000000000000000
00000000000000000000000000000000000111111101110000000000111111101111000000000000000000000001111111000000010000000000000000011111111110000001111111100000000001111110000000000000000000000000000000000000
00000000000000000000000000000000000111111000110000000001111111111110000000000000000000000001111111000000010000000000000000011111111000000011111111100000000001111000000000000000000000000000000000000000
00000000000000000000000000000000001111111101110000000001111111011110000000000000000000000001111111110000000000000000000000111111111000000011111110000000000011111000000000000000000000000000000000000000
00000000000000000000000000000000001111111111110000000011111111011100000000000000000000000001111111110000000000000111011111111111111111100011111100000000000011111001110000000000000000000000000000000000
00000000000000000000000000000000001111111111110000001111111111111000000000000000000000001111111001110000000000000111111111111111111111100011111100000000000111111001110000000000000000000000000000000000
00000000000000000000000000000000001111111111111000111111111111110000000000011100000000111111000001110000000000000000011111111111111111110111111100000000001111110000000000000000000000000000000000000000
00000000000000000000000000000000001111111111111111111111110111100111000000011000000001111110000000000000000000000100011111111111101111111111111110000000011111100000000000000000000000000000000000000000
00000000000000000000000000000000001111111111111111111111110111000111000000000000000111110111000000000000000000000100011111111111101111111111111110000000111110000000000000000000000000000000000000000000
00000000000000000000000000000000001111111111111111111111111110000000110000000000001111110010000000000000000000000000001111111111111110000111111110000001111100000000000000000000000000000000000000000000
00000000000000000000000000001110000111111111111111111111111000000001111110000000011111111000000000000000000000000000000111111111111110000111111111110001111000000000000000000000000000000000000000000000
00000000000000000000000000001110000111111111111111111111100000000001111111111111111111111000000000000000000000000000000011111111111111111111111111111000100000000000000000000000000000000000000000000000
00000000000000000000000000000000000001110111101111111110000000000011111111111111111111111100000000000000000000000000000000000000110111111111111111111000000000000000000000000000000000000000000000000000
00000000000000000000000000000000000001100011100111111000000000000011111111111011111110011100000111000000000000000000000000000000000000011111111111111000000000000000000000000000000000000000000000000000
00000000000000000000000000000000000000111111110000000000000000000011111111111011111100000000000111000000000000000000000000000000000000000000011111000000000000000000000000000000000000000000000000000000
00000000000000000000000000000000000000000001100000000000000000000111111111111111110000000000000000000000000000000000000000000000000000000000000000000000000000000000000000000000000000000000000000000000
00000000000000000000000000000000000000000000000000000000000000000111111111111111000000000000000000000000000000000000011100000000000000000000000000000000000000000000000000000000000000000000000000000000
00000000000000000000000000000000000000000000000000000000000000000001111111111000000000000000000000000000000000000000000000000000000000000000000000000000000000000000000000000000000000000000000000000000
00000000000000000000000000000000000000000000000000000000000000000000111000000000000000000000000000000000000001110000000000000000000000000000000000000000000000000000000000000000000000000000000000000000
00000000000000000000000000000000000000000000000000000000000000000000000000000000000111000000000000000000000001110000000000000000000000000000000000000000011100000000000000000000000000000000000000000000
00000000000000000000000000000000000000000000000000000000000000000000000000000000000111000000000000000000000000000000000000000000000000000000000000000000011100000000000000000000000000000000000000000000
00000000000000000000000000000000000000000000000000000000000000000000000000000000000000000000000000000000000000000000000000000000000000000000000000000000000000000000000000000000000000000000000000000000
00000000000000000000000000000000000000000000000000000000000000000000000000000000000000000000000000000000000000000000000000000000000000000000000000000000000000000000000000000000000000000000000000000000
00000000000000000000000000000000000000000000000000000000000000000000000000000000000000000000000000000000000000000000000000000000000000000000000000000000000000000000000000000000000000000000000000000000
00000000000000000000000000000000000000000000000000000000000000000000000000000000000000000000000000000000000000000000000000000000000000000000000000000000000000000000000000000000000000000000000000000000
00000000000000000000000000000000000000000000000000000000000000000000000000000000000000000000000000000000000000000000000000000000000000000000000000000000000000000000000000000000000000000000000000000000
00000000000000000000000000000000000000000000000000000000000000000000000000000000000000000000000000000000000000000000000000000000000000000000000000000000000000000000000000000000000000000000000000000000
