P1
200 70
00000000000000000000000000000000000000000000000000000000000000000000000000000000000000000000000000000000000000000000000000000000000000000000000000000000000000000000000000000000000000000000000000000000
00000000000000000000000000000000000000000000000000000000000000000000000000000000000000000000000000000000000000000000000000000000000000000000000000000000000000000000000000000000000000000000000000000000
00000000000000000000000000000000000100000000000000000000000000000000000000000000000000000000000000000000000000000000000000000000000000000000000000000000000000000000000000000000000000000000000000000000
00000000000000000000000000000000001110000000000000000000000000000000000000000000000000000000000000000000000000000000000000000000000000000000000000000000000000000000000000000000000000000000000000000000
00000000000000000000000000000000111111000000000000000000000000000000000000000000000000000000000000000000000000000000000000000000000000000000000000000000000000000000000000000000000000000000000000000000
00000000000000000000000000000000011111100000000000000000000000000000000000000000000000000000000000000000000000000000000000000000000000000000000000000000000000000000000000000000000000000000000000000000
00000000000000000000000000000000001111100000000000000000000000000000000000000000000000000000000000000000000000000000000000000000000000000000000000111111111111111000000000000000000000000000000000000000
00000000000000000000000000000000000111110000000000000000000000000000000000000000000000000000000000000000000111000000000000000000000000000000111111111111111111111111111000000000000000000000000000000000
00000000000000000000000000000000000111111000000000000000000000000000000000000000000000000000000000000000000111000000000000000000000001111111111111111111111111111111111000000000000000000000000000000000
00000000000000000000000011100000000011111100000000000000000000000000000000000000000111000000000000000000000000000000000000000111111111111111111111111111111111111111111000000000000000000000000000000000
00000000000000000000000011100000000001111110000000000000000000000000000000000000000111000000000000000000000000000001110000111111111111111111111111111111111111110000001000000000000000000000000000000000
00000000000000000000000000000000000000111111000000000000000000000000000000000000000000000000000000000000000000000011111111111111111111111111111111111111111111110000000000000000000000000000000000000000
00000000000000000000000000000000000000111111100000000000000000000000000000000000000000000000000000000000000000001111111111111110001111111111111111100111111111111100000000000000000000000000000000000000
00000000000000000000000000000000000000011110011000000000000110000000000000000000000000000000000000000000100001111110011111110000000111111111111111100000001111111110000000000000000000000000000000000000
00000000000000000000000000000000000000000100111100000000000000000000000000000000001110000000000000000001111111111100000010000000001111111111111111100000000110111111000000000000000000000000000000000000
00000000000000000000000000000000000000000001111111000000000000000000000000000000001110000000000000000011111111111100000000000000001111111111111111100000001110111111000000000000000000000000000000000000
00000000000000000000000000000000000000000000011111110000000000000000000000000000001111111110000000011111111111000000000000000000001111111111111111100000001111111111000000000000000000000000000000000000
00000000000000000000000000000000000000000000001111111110000000000000000000000000111111111111100011111111111000000000000000000000001111011111111111000000001111111111111100000000000000000000000000000000
00000000000000000000000000000000000000000000011110111110000000000000000000000111001111111111111111111111000000000000000000000000001111011111111111000000001111111111111111000000000000000000000000000000
00000000000000000000000000000000000000000011111100010001111100000000000000011111101111111111111111111000000000000000000000000000001111111111111110000000001111111111111111000000000000000000000000000000
00000000000000000000000000000000000000011111111110000000111111000000000001111111111111111111001110000000000000000000000000000000000111111111111110000000001111111111111110000000000000000000000000000000
00000000000000000000000000000000000000111111111110000000111111111111111111111111110111111111000000000011100011100000000000000000000111111111111110000000001111111111111110000000000000000000000000000000
00000000000000000000000000000000000011001111111110000001111111111011111111111111100011111111110000000111110111110000000000000000000011111111110010000000001111111000011110000000000000000000000000000000
00000000000000000000000000000000000111101111111111000000000011110001111111111111100001111111110000001111111111111110000000000000000001100111110010000000001111111000001111000000000000000000000000000000
00000000000000000000000000000000110011111111111111110000000000000011111111110000000000111111110000011111110001111110000000000000000000000111111110000000000011111110011111000000000000000000000000000000
00000000000000000000000000000001110001111111111111110000000000000001111111100000000000111111000000111111000000001111000000000000000000001111111110000000000011111111111111000000000000000000000000000000
00000000000000000000000000000011111000111110111110000000000000000000111111000000000000111111000001111110000000000111110000000000000000001111111110000000011111111111111110000000000000000000000000000000
00000000000000000000000000000011111100111110111000000000000000000001111110000000000000011111000001111100000000000011111000000000000000111111111110000000111111111111111110000000000000000000000000000000
00000000000000000000000000000011111111111111111000000000000000000011111100000011110000111111000001111000000000000001111000000000011111111111111111000000011111111111111110000000000000000000000000000000
00000000000000000000000000000001111111111101111100000000000000000011111100011111110000111111000001110000000000000000111100000000111001111111111111100000111111111111111110000000000000000000000000000000
00000000000000000000000000000001111100011101111100000000000000000111111000011100000000111111000011100000000000000000111100000001111101111111111111111111111111111111111100000011100000000000000000000000
00000000000000000000000000000011110000011111111100000000000000001111111000000000000000111111000011000000000000000000111100000001111111111111110111111111111111111111111000000000100000000000000000000000
00000000000000000000000000000001100000011111111100000000000000001111110000000000000000011111000111100000000000000000111100000011111111111111110011111111111111111111111000000000000000000000000000000000
00000000000000000000000000000000000000011111011100000001110000001111110000000000100000011110001111100000000000000000111000000111111111110111111111111111111111111111110000000000000000000000000000000000
00000000000000000000000000000000000000000111011100000001110000001111100000011111000001100010001111000000000000000000111000000111111111110111111000001111111111111111100000000000000000000000000000000000
00000000000000000000000000000000000000000011111000000000000000011111100001111111000001110000000111000000000000000001111100001111111111111111110000000111111111111110000000000000000000000000000000000000
00000000000000000000000000000000000000010001111000000000000000011100100001111111000001111100001110000000000000000001111000001111111111111111100000000011111111111100000000000000000000000000000000000000
00000000000000000000000000000000000000011011111000000000000000111100000001111100000001111110001110000000000000000000111000000011111111111111000000000001111111111100000000000000001000000000000000000000
00000000000000000000000000000000000000011111111000000000000000111111000000011100000001111110011110000000000000000000000000000011111111111110000000000001001111111000000000000000001110000000000000000000
00000000000000000000000000000000000000011111111000000000000000111110000000011110000111111100011111000000000000000000000000000111111111111111000000000001001111111100000000000000000000000000000000000000
00000000000000000000000000000000000000111111110000000000000000111110000011111110000111011000011110000000000000000011100000000111111111111111000000000001111111111100000000000000000000000000000000000000
00000000000000000000000000000000000000111111110011100000000000111100000011111100001111001000011110000000000000000111100001110111111111111110000000000001111111111110000000000000000000000000000000000000
00000000000000000000000000000000000000111111110011100000000000111100000000000000001111110000011100000000000000000111100001110011111111111110000000000000111111111110000000000000000000000000000000000000
00000000000000000000000000000000000000111111110000000000000001111110000000000000011111100000011100000000000000001111000000000011111111111110000000000000111111111111000000000000000000000000000000000000
00000000000000000000000000000000000000111111110000000000000000111100000000000000011111100000011100000000000000001111000000000001111111111110000000000001111111111111000000000000000000000000000000000000
00000000000000000000000000000111000000111111110000000000000000111100000000000000111111100000011101110000000000011110000000000000111111111110000000000001111111111111100000000000000000000000000000000000
00000000000000000000000000000111000000111111110000000000000000011110000000000011111111000000011101110000000000111100000000000000011111111110000000000001111111111111100000000000000000000000000000000000
00000000000000000000000000000000000000111111110000000000000000011110000000000011111110000000011110000000000001111000000000000000000001111110000000000011111111111111100000000000000000000000000000000000
00000000000000000000000000000000000000111111110000000000000000111110000000000011111110000000011110000000000111110000000000000000000000011111000000000011111111111111100000000000000000000000000000000000
00000000000000000000000000000000000001111111111000111000000000111111000000000111100100000000011110000000001111110000000000000000000010001111000000000111111111111111110000000000000000000000000000000000
00000000000000000000000000000000000111111111111100111000000000111111000000000111100000000000011111000000011111100000000000000000000000001111000000000111111111111111110000000000001110000000000000000000
00000000000000000000000000000000000111111111111110111000000000111111100000011111110000000000001111111111111110000000000000000000000000001111110000000111111111111111100000000000000000000000000000000000
00000000000000000000000000000000000111111111111111111000000000011111111111111111100000000000001111111111111100000000000000000000000000011111111000000111111111111111100000000000000000000000000000000000
00000000000000000000000000000000011111111111111111111000000000011111111111110111000000000000000001111111110000000000000000000000000000001111111100001111111111111101100000000000000000000000000000000000
00000000000000000000000000000001111111111111011111111000000000001111111111110010000000000000000000011100000000000000000000000000000000000011111111111111111111111000100000000000000000000000000000000000
00000000000000000000000000000001110111111111011101110000000000001111111111111000000000000000000000000000000000000000000000000000000000000000111111111111111111110001000000000000000000000000000000000000
00000000000000000000000000000001110111011111111000100000000000000001111111111000000000000000000000000000000000000000000000000000000000000000011111111111111111110000000000000000000000000000000000000000
00000000000000000000000000000001111111011111111000000000000000000000111111110000000000000000000000000000000000000000000000000000000000000000000111101111111111111000000000000000000000000000000000000000
00000000000000000000000000000001111111111111000000000000000000000000000001110000000000000000000000000000000000000000000000000000000000000000000011000111111111111111000000000000000000000000000000000000
00000000000000000000000111001111111111110000000000011100000000000000000000000000000000000000000000000000000000000000000000000000000000000000000000111001111111111111000000000000000000000000000000000000
00000000000000000000000111001110111110000000000000011100000000000000000000000000000000000000000000000000000000000000000000000000000000000000000000001000111111111110011100000000000000000000000000000000
00000000000000000000000000000000000000000000000000000000000000000000000000000000000000000000000000000000000000000000000000000000000000000000000000000001111111111000011100000000001110000000000000000000
00000000000000000000000000111000000000000000000000000000000000000000000000000000000000000000000000000000000111000000000000000000000000000000000000000000000111110000000000000000001110000000000000000000
00000000000000000000000000111000000000000000000000000000000000000000000000000000000000000000000000000000000111000000000000000000000000000000000000000000000000000000000000000000000000000000000000000000
00000000000000000000000000000000000000000000000000000000000000000000000000000000000000000000000000000000000000000000000000000000000000000000000000000000000000000000000000000000000000000000000000000000
00000000000000000000000000000000000000000000000000000000000000000000000000000000000000000000000000000000000000000000000000000000000000000000000000000000000000000000000000000000000000000000000000000000
00000000000000000000000000000000000000000000000000000000000000000000000000000000000000000000000000000000000000000000000000000000000000000000000000000000000000000000000000000000000000000000000000000000
00000000000000000000000000000000000000000000000000000000000000000000000000000000000000000000000000000000000000000000000000000000000000000000000000000000000000000000000000000000000000000000000000000000
00000000000000000000000000000000000000000000000000000000000000000000000000000000000000000000000000000000000000000000000000000000000000000000000000000000000000000000000000000000000000000000000000000000
00000000000000000000000000000000000000000000000000000000000000000000000000000000000000000000000000000000000000000000000000000000000000000000000000000000000000000000000000000000000000000000000000000000
