P1
200 70
00000000000000000000000000000000000000000000000000000000000000000000000000000000000000000000000000000000000000000000000000000000000000000000000000000000000000000000000000000000000000000000000000000000
00000000000000000000000000000000000000000000000000000000000000000000000000000000000000000000000000000000000000000000000000000000000000000000000000000000000000000000000000000000000000000000000000000000
00000000000000000000000000000000000000000000000000000000000000000000000000000000000000000000000000000000000000000000000000000000000000000000000000000000000000000000000000000000000000000000000000000000
00000000000000000000000000000000000000000000000000000000000000000000000000000000000000000000000000000000000000000000000000000000000000000000000000000000000000000000000000000000000000000000000000000000
00000000000000000000000000000000000000000000000000000000000000000000000000000000000000000000000000000000000000000000000000000000000000000000000000000000000000000000000000000000000000000000000000000000
00000000000000000000000000000000000000000000000000000000000000000000000000000000000000000000000000000000000000000000000000000000000000000000000000000000000000000000000000000000000000000000000000000000
00000000000000000000000000000000000000000000000000000000000000000000000000000000000000000000000000000000000000000000000000000000000000000000000000000000000000000000000000000000000000000000000000000000
00000000000000000000000000000000000000000000000000000000000000000000000000000000000000000000000000000000000000000000000000000000000000000000000000000000001110000000000011100000000000000000000000000000
00000000000000000000000000000000000000000000000000000000000000000000000000000000000000000000000000000000000000000000000000001000000000000000000000000000001110000000000011100000000000000000000000000000
00000000000000000000000000000000000000000000000000000000000000000000000000000000000000000000000000000000000000000000000000001000000000000000000000000000000000000000000000000000000000000000000000000000
00000000000000000000000000111000000111000000000000000000000000000000000000000000000000000000000000000000000000000000000000000000000000000000000000000000000000000000000000000000000000000000000000000000
00000000000000000000000000111000000111000000000000000000000000000000000000000000000000000000000000000000000000000000000000000000000000000000000000000000000000000000000000000000000000000000000000000000
00000000000000000000000000000000000000000000000000000111111111111000000000000000000000000000000000000000000000000000000000000000000000000000000000000000000000000000000000000000000000000000000000000000
00000000000000000000000000000000000000000000001111111111111111111100111111100000000000000000000000000000000000000000000000000000000000000000000000000000000000000000111000000000000000000000000000000000
00000000000000000000000000000000000111111111000111111111111001111111001111111111110000000000000000000000000000110000000000000000000000000000000000000000000000000000111000000000000000000000000000000000
00000000000000000000000000000000000111111111000111111111110000000111000111111111111000000000000000000000000001111000000000000000000000000000000000000000000000000000000000000000000000000000000000000000
00000000000000000000000000000000111001111110000000000111110000000011000001111111111110000000000000000000000111111000000000000000000000000000000000000001110000000000000000000000000000000000000000000000
00000000000000000000000000000000111100110000000000000111110000000011100000111111111111110000000000000000001111011000000000000000000000000000000000000001110000000000000000000000000000000000000000000000
00000000000000000000000000000000011110000000000000011111000000000011100000111111111111111100000000000000011111001000000000000000000000000000000000000000000000000000000000000000000000000000000000000000
00000000000000000000000000000000010000000000000000111110000000000011100001111111111111111111100000000001111111110000000000000000000000000000001111110000000000000000000000000000000000000000000000000000
00000000000000000000000000000000000000000000000000111110000000000011100011111110111100111111111000000111111111110000000000000000000000000011111111111000000000000000000000000000000000000000000000000000
00000000000000000000000000000000011100000000000001111110000000000000000011111110111000001111111110001111111111110000000000000000000000000111111111111100000000000000000000000000000000000000000000000000
00000000000000000000000000000000011100000000000001111111000000000000001111111111110000000001111111111111100011110000000000011100000000111111111111111110000000000000000000000000000000000000000000000000
00000000000000000000000000000000000000000000000011111111010000001111111111111111110000000000011111111111000111100011100000011100000001111100111111111110000000000000000000000000000000000000000000000000
00000000000000000000000000000000000000000000000111111100011100111111111111111111110000000000000111111110000111100001100000000000000001111000000001111111000000000000000000000000000000000000000000000000
00000000000000000000000000000000000000000000001111111100000000111111111111111111110000000000000001111111000111100000000000000000000001111100000000111111000000000000000000000000000000000000000000000000
00000000000000000000000000000000000000011100001111111111000000111111111111111111110000000000000000111111111111000000000000000000000011111000000000111111000000000000000000000000000000000000000000000000
00000000000000000000000000000000000000011100011110111111000000111110111111111111110000000000000000001111111111000000000000000000000111111000000000111110000000000000000000000000000000000000000000000000
00000000000000000000000000000000000000000000111100011111000000111100011111111111110000000011100000000011111111000000000000000000000111111100000000111000000000000000000000000000000000000000000000000000
00000000000000000000000000011100000000000001111100011111000000011000011111111111110000000011100000000000111111100000000000000000000111111100000000111000000000000000000000000000000000000000000000000000
00000000000000000000000000011000000000000011111000011111000000000000000011111111110000000000000000000000011110010000000000000000001111000000000000111111000000000000000000111000000000000000000000000000
00000000000000000000000000000000000000000011110000011111100000000000000000111111110000000000000000000000011110111100000000000000000110000000000000111110000000000000000000111000000000000000000000000000
00000000000000000000000000000000000000000011000000011111100000000000000000111111110000000000000000000000011111111110000000000000000000000000000000111110000000000000000000000111000000000000000000000000
00000000000000000000000000000000000000000000000000011111100000000000000001111111110000000000000000000000011110011111100000000000000000000000000000111110000000000000000000000111000000000000000000000000
00000000000000000000000111000000000000000000000000011111100000000000000001111111110000000000000000000000011100001110010000000000000000000000000001111100000000000000000000000000000000000000000000000000
00000000000000000000000111000000000000000000000000011111100000000000000011111100000000000000000000000000111000001110111100000000000000000000000011111000000000000000000000000000000000000000000000000000
00000000000000000000000000000000000000000000000000011111000000000000000011111000000000000000000000000001111000000111111111000000000000000000000111111000000000000000000000000000000000000000000000000000
00000000000000000000000000000000000000000000000000001111000000000000000011111000110000000000011100000001111000000111111111100000000000000000011111111000000000000000000000000000000000000000000000000000
00000000000000000000000000000000000000000000000000001111100000000000000011111101110000000000011100000011110000000000001111110000000000000000111111110000000000000000000000000000000000000000000000000000
00000000000000000000000000011100000000000000000000001111100000000000000001111111110000000000000000000011110000000000000111111100000000011111111111000000000000000000000000000000000000000000000000000000
00000000000000000000000000011100000111000000000000001111100000000000000001111111110000000000000000000011100000000000000011111110000000100011111110000000000000000000000000000000000000000000000000000000
00000000000000000000000000000000000111000000000000001111110000000000000001101111110000000000000000000011110000000000000001111111000000100111111100000000000000000000000000000000000000000000000000000000
00000000000000000000000000001000000000000000000000001111110000000000000001101111110000000000000000000111110000000000000000011111110000111111111100000000000000000000000000000000000000000000000000000000
00000000000000000000000000111000000000000000000000001111000000000000000011111111100000000000000000000111100000000000000000001111111000000011111000100000000000000000000000000000000000000000000000000000
00000000000000000000000000000000000000000000000000001111000000000000000011111111100000000000000000000111100000000000000000000111111111000000100011110000000000000000000000000000000000000000000000000000
00000000000000000000000000000000000000000000000000001111110000000000100001111111100000000000000000000111100000000000000000000000111111100000000011110000000000000000000000000000000000000000000000000000
00000000000000000000000000000000000000000000000000001111110000000000100001111111110000000000000000001111000000000000000000000000001111111000000001111000000000000000000000000000000000000000000000000000
00000000000000000000000000000000000000000000000000000111110000000000000001111111110000001000000000011111000000000000000000000000000110011111000011111000000000000000000000000000000000000000000000000000
00000000000000000000000000000000000000000000000000000111110000000001110001111111110000001000000000011110000000000000000000000000000000001111111111111100000000000000000000000000000000000000000000000000
00000000000000000000000000000000000000000000000000000111110000000001110001111111110000000011111100011110000000000000000000000000000000000111111111111100000000000000000000000000000000000000000000000000
00000000000000000000000000000000000000000000000000000111111000000000000001111111110000000011111111111100000000000000000000000000000000000011111111111100000000000000000000000000111000000000000000000000
00000000000000000000000000000000000000000000000000000111111000000000000000111111110000000001111111111100000000000000000000110001110000000000111111111110110000000000000000000000111000000000000000000000
00000000000000000000000011100000000000000000000000000111111000000000000000111111100000000000001111111110000000000000000011111001110000000000001111111111111000000000001000000000000000000000000000000000
00000000000000000000000011100000000000000000000000000111111000000000000001111111110000000000000111111111100000000000000011111100000000000000000111111111111111111111111000000000000000000000000000000000
00000000000000000000000000000000000000000000000000000111111000000000000001111111110000000000000000011111111000000000000011111100000000000000000011111111111110011111111000000110000000000000000000000000
00000000000000000000000000000000000000000000000000000011110000000000000000111111110000000000000000000011111110000000000011111000000000000000000111111111111110000011111000001110000000000000000000000000
00000000000000000000000000000000000000000000000000000000000000000000000000000111110000000000000000000001111100000000000111111100000000000000000111111110011111100000000000000000000000000000000000000000
00000000000000000000000000000000000000001110000000000000000000000000000000000001100000000000000000000000001110010000000011111100000000000000000111111100000000000000000000000000000000000000000000000000
00000000000000000000000000000000000000001110000000000000000000000000111000000000000000000000000000000000000111111000000011111110000000000000001111111100000000000000000000000000000000000000000000000000
00000000000000000000000000000000000000000000000000000000000000000000111000000000000000000000000000000000000000110000000111111111000000000000011110111100000000000000000000000000000000000000000000000000
00000000000000000000000000000000000000000000000000000000000000000000000000000000000011100000000000000000000000000000000111111111110000000001111110111000000000000000000000000000000000000000000000000000
00000000000000000000000000000000000000000000000000000000000000000000000000000000000011100000000000000000000000000000000011111111111101100111111111111000000000000000000000000000000000000000000000000000
00000000000000000000000000000000000000000000000000000000000000000000000000000000000000000000000000000000000000000000000111011111111110001111111101110000000000000000000000000000000000000000000000000000
00000000000000000000000000000000000000000000000000000000000000000000000000000000000000000000000000000000000000000000000111000111111111011111111100100000000000000000000000000000000000000000000000000000
00000000000000000000000000000000000000000000000000000000000000000000000000000000000000000000000000000000000000000000000000000000011111111111111110000000000000000000000000000000000000000000000000000000
00000000000000000000000000000000000000000000000000000000000000000000000000000000000000000000000000000000000000000000000000000000000000111111111100000000000000000000000000000000000000000000000000000000
00000000000000000000000000000000000000000000000000000000000000000000000000000000000000000000000000000000000000000000000000000000000000000010000000000000000000000000000000000000000000000000000000000000
00000000000000000000000000000000000000000000000000000000000000000000000000000000000000000000000000000000000000000000000000000000000000000000000000000000000000000000000000000000000000000000000000000000
00000000000000000000000000000000000000000000000000000000000000000000000000000000000000000000000000000000000000000000000000000000000000000000000000000000000000000000000000000000000000000000000000000000
00000000000000000000000000000000000000000000000000000000000000000000000000000000000000000000000000000000000000000000000000000000000000000000000000000000000000000000000000000000000000000000000000000000
