P1
200 70
00000000000000000000000000000000000000000000000000000000000000000000000000000000000000000000000000000000000000000000000000000000000000000000000000000000000000000000000000000000000000000000000000000000
00000000000000000000000000000000000000000000000000000000000000000000000000000000000000000000000000000000000000000000000000000000000000000000000000000000000000000000000000000000000000000000000000000000
00000000000000000000000000000000000000000000000000000000000000000000000000000000000000000000000000000000000000000000000000000000000000000000000000000000000000000000000000000000000000000000000000000000
00000000000000000000000000000000000000000000000000000000000000000000000000000000000000000000000000000000000000000000000000000000000000000000000000000000000000000000000000000000000000000000000000000000
00000000000000000000000000000000000000000000000000000000000000000000000000000000000000000000000000000000000000000000000000000000000000000000000000000000000000000000000000000000000000000000000000000000
00000000000000000000000000000000000000000000000000000000000000000000000000000000000000000000000000000000000000000000000000000000000000000000000000000000000000000000000000000000000000000000000000000000
00000000000000000000000000000000000000000000000000000000000000000000000000000000000000000000000000000000000000000000000000000000000000000000000000000000000000000000000000000000000000000000000000000000
00000000000000000000000000000000000000000000000000000000000000000000000000000000000000000000000111000000000000000000000000000000000000000000000000000000000000000000000000000000000000000000000000000000
00000000000000000000000000000000000000000000000000000000000000000000000000000000000000000000000111000000000000000011100000000000000000000000000000000000000000000000000000000000000000000000000000000000
00000000000000000000000000000000000000000000000000000000000000000000000000000001000000000000000000000000000000000011100000000000000000000000000000000000000000000000000000000000000000000000000000000000
00000000000000000000000000000000000000000000000000000000000000000000000000000001110000000000000000000000000000000000000000000000000000000000000000000000000000000000000111000000000000000000000000000000
00000000000000000000000000000000000000000000000000000000000000000000000000000000000000000000000000000000000000000000000000000000000000000000000000000000000000000000000111000000000000000000000000000000
00000000000000000000000000000001110000000000000000000000000000000001111111111110000000000000000000000000000000000000000000000000000000000000000000000000000000000000000000000000000000000000000000000000
00000000000000000000000000011100000000000000000000000000000000000011111111111111000000000000000000000000000000000000000000000000000000000000000000000000000000000000000000000000000000000000000000000000
00000000000000000000000000011100000000000000000000011100000000000111111111111100111111110000000000000000000000000000000000000000000000000000000000000000000000000000000000000000000000000000000000000000
00000000000000000000000000000000000000000000000000111100000000001111111111011101111101110000000000000010000111011111111000111000000000000000000000000000000000000000000000000000000000000000000000000000
00000000000000000000000000000000000000000000000001111100000000001111111111011111111101110000000001111111000111111111110000111000000000000000000001000000000000000000000000000000000000000000000000000000
00000000000000000000011100000000000000000000001111111100000000000011111111111111111111110000000001111111000111111111111001111000000000000000000001000000000000000000000000000000000000000000000000000000
00000000000000000000011100000000000000011100011111111100000000000001111111111111111111111000000001111111100011111111111111111100000000000000000000000000000000000111000000000000000000000000000000000000
00000000000000000000000000000000001110011101111111011100000000000001111110111111111111111000000000011111110111111111111111111100000000000000000000000000000000111111000000000000000000000000000000000000
00000000000000000000000000000000001110000011111111011110000000000000111100011111111111100000000000011111111111111111111111111100000000000000000000000000000001111110000000000000000000000000000000000000
00000000000000000000000000000000000000000111111111111110000000000000000000001111111000000000000000111111001111111111111111110000000000000000000000000000000011111110000000000000000000000000000000000000
00000000000000000000000000000000000000001111111111111110000000000000000000001111111000000000000000111110000111111111111111110000000000000000011100000000000111111110000000001110000000000000000000000000
00000000000000000000000001110000000000011111111111111110000000000000000000000111111111000000000000111111000111111111111111111000000000000000011100000000001111111001000000001110000000000000000000000000
00000000000000000000000001110000000000001111111011111110000000000000000000001111111111000000000000001100000000000011111111111000000000000000000000000000001111111001000000000000000000000000000000000000
00000000000000000000000000000000001111101111111011111110000000000000000000001111111111000000000000000000000000000011111111110000000000000000000000000000011111111111000000000000000000000000000000000000
00000000000000000000011100000111011111111111111111111111000000000000000000001111111110000000000000000000000000000011111111100000000000000000000000000000011111111111000000000000000000000000000000000000
00000000000000000000011100000111111111111111111111111111000000000000000000001111111110000000000000000000001111000111111111100000000000000000000000000000011111111111000000000000000000000000000000000000
00000000000000000000000000000000111111111111111111111110000000000000000000001111111110000000000000000111111111111111011111111000000000000000000000000000111110011111000000000000000000000000000000000000
00000000000000000000000000000000011111111111111111111110000000000000110000001111111110000000000000001111111111011111011111111111000000000000000000000001111110011111000000000000000000000000000000000000
00000000000000000000000000000000001111011111111110111111000000000000110000001111111110000000111000011111000110001111111111111111111000000000000000000001111100001111000000000000000000000000000000000000
00000000000000000000000000000000000111011111111110111111000000000000000000001111111100011111111111111000000000001111111111110111110011100000000000000011111100000011100000000000000000000000000000000000
00000000000000000000000000000000001111111111111111111111000000000000000000001111111110111111111110000000000000111111111111100011100111111000000000000011111000000001100000000000000000000000000000000000
00000000000000000000000000000000001111111111111111011111000000000000000000001111111111111111110000000000011100111111111111110000001111111111000000000111110000000011100000000000000000000000000000000000
00000000000000000000000000000000001110001111111111011111000000000000000000011111111111100000000000000000011100001111111111110000000111111111110000000111110001111111100000000000000000000000000000000000
00000000000000000000000000000000000000001111111111111111100000000000000011111111111110000000000000000000000000001111111111110000000111111111111000000111110001111111110000000000000000000000000000000000
00000000000000000000000000000000000000001111111111111111100000000011111111111111111100000000000000000000000000001111111111100000000111000011111110001111110000011111110000000000000000000000000000000000
00000000000000000000000000000000000000000000011111111111111111111111111111111011101100000000000000000000000000001111111111100000000000000001111111001111100000001111110000000000000000000000000000000000
00000000000000000000000000000000000000000000011111111111111111111111111111110011100000000000000000000000000000001111111111000000111000000000011111111111100000000111110000000000000000000000000000000000
00000000000000000000000000000000000000000000011111111111111111111110000000011111111000000000000000000000000000001111111111000000111000000000001111111111110000000111100000000001110000000000000000000000
00000000000000000000000000000000000000000011111111111111100010000000000000011111111000000000000000000000000000011111111111100000000000000000000011110000110001111111110000000001110000000000000000000000
00000000000000000000000000000000000000000011111111111111100000000000000000011111111000000000000000000000000000011111011111100000000000000000000001110000011011111111111111000000000000000000000000000000
00000000000000000000000000000000000000000000011101111111100000000000000000011111111000000000000000000000000000011111011111000000000000000000000000111100111111111111111111000000000000000000000000000000
00000000000000000000000000011100000000000000011101111111100000000000110000011111111000000000000000000000000000011111111111000000000000000000000000001111111111111111111111100000000000000000000000000000
00000000000000000000000000011100000000000000011111111111100000000000111111111111111000000000000000000000000000001101111111000000000000000000000000000111111100000001111111000000000000000000000000000000
00000000000000000000000000000000000000000000001111111111110000000000111111111111111000000000000000000000000000011101111111000000000000000000000000000001111100000001111100000000000000000000000000000000
00000000000000000000000000000000000000000000001111111111110000000000111001111111111000000000000000000000000000111111111110000000000000000000000000000000011110000001111000000000000000000000000000000000
00000000000000000000000000000000000000000000001111111111110000000000110000111111111100000000000000000000000000111111111110000000000000000000000000000000001111110001111000000000000000000000000000000000
00000000000000000000000000000000000000000000001111111111110000000000011001111111111110000000000000000000000001111111111110000000000000000000000000000000001111111100001100000000000000000000000000000000
00000000000000000000000000000000000000000000001111111111110000000000111111111101111110000000000000000000000001111101111110000000000000000000000000000000000010011110000000000000000000000000000000000000
00000000000000000000000000000000000000000000001111111111110000000000111111111101111111000000000000000000000000111101111100000000000000000000000000100000000000011111110000000000000000000000000000000000
00000000000000000000000000000000000000000000001111111111110000000000011111111111111111110000000000000000000000111111111100000000000000000000000000100000000000111111000000000000000000000000000000000000
00000000000000000000000000000000000000000000001111111111110000000000000111111111111111110000000000000000000011111111111100000000000000000000000000000000000000011111001100000000000000000000000000000000
00000000000000000000000000000000000000000000001111111111110000000000000000111111111111110000000000000000000011111111111100000000000000000000000000000000000000000111111110000000000000000000000000000000
00000000000000000000011100000000000000000000001111111111100000000010000000000011111111110000000000000000000011111111111100000000000000000000000000000000000000000011111100000000000000000000000000000000
00000000000000000000011100001110000000000000001111111111100000000111000000000000011111110000000000000000000011111111111000000000000000000000000000000000000000000011111100000000000000000000000000000000
00000000000000000000000000001110000000000000001111111111111100011111100000000000000111110000000000000000000011011111110000011000000000000000000000000000000000000001111110000000000000000000000000000000
00000000000000000000000000000000000000000000000111111111111111111111100000000000000000110000000000000000000000000000000000011000000000000000000000000000000000000000111000000000000000000000000000000000
00000000000000000000000000000000000000000000000111111111111111111111100000000000000000010000000000000011100000000000000000000000000000000000000000000000000000000000010000000000000000000000000000000000
00000000000000000000000000000000000000000000001111111111111111111111100000000000000000010000000000000011100000000000000000000011100000000000000000000000000000000000000000000011100000000000000000000000
00000000000000000000000000000000000000000000111111111111111111111111100000000000000000000000000000000000000000000000000000000011100000000000000000000000000000000000000000000011100000000000000000000000
00000000000000000000000000000000000000011111111111111111111111111111100000000000000000000000000000000000000000000000000000000000000000000000000000000000000000000000000000000000000000000000000000000000
00000000000000000000000000000000000000111111111111111111111111111111100000000000000000000000000000000000000000000000000000000000000000000000000000000000000000000000000000000000000000000000000000000000
00000000000000000000000000000000000001111111111111111111111111111111100000000000000000000000000000000000000000000000000000000000000000000000000000000000000000000000000000000000000000000000000000000000
00000000000000000000000000000000000001111111111111111111111111111100000000000000000000000000000000000000000000000000000000000000000000000000000000000000000000000000000000000000000000000000000000000000
00000000000000000000000000000000000001111111111111111111111111000000000000000000000000000000000000000000000000000000000000000000000000000000000000000000000000000000000000000000000000000000000000000000
00000000000000000000000000000000000001111111111111111111100000000000000000000000000000000000000000000000000000000000000000000000000000000000000000000000000000000000000000000000000000000000000000000000
00000000000000000000000000000000000001111111111111110000000000000000000000000000000000000000000000000000000000000000000000000000000000000000000000000000000000000000000000000000000000000000000000000000
00000000000000000000000000000000000001111111111000000000000000000000000000000000000000000000000000000000000000000000000000000000000000000000000000000000000000000000000000000000000000000000000000000000
00000000000000000000000000000000000001111100000000000000000000000000000000000000000000000000000000000000000000000000000000000000000000000000000000000000000000000000000000000000000000000000000000000000
