P1
200 70
00000000000000000000000000000000000000000000000000000000000000000000000000000000000000000000000000000000000000000000000000000000000000000000000000000000000000000000000000000000000000000000000000000000
00000000000000000000000000000000000000000000000000000000000000000000000000000000000000000000000000000000000000000000000000000000000000000000000000000000000000000000000000000000000000000000000000000000
00000000000000000000000000000000000000000000000000000000000000000000000000000000000000000000000000000000000000000000000000000000000000000000000000000000000000000000000000000000000000000000000000000000
00000000000000000000000000000000000000000000000000000000000000000000000000000000000000000000000000000000000000000000000000000000000000000000000000000000000000000000000000000000000000000000000000000000
00000000000000000000000000000000000000000000000000000000000000000000000000000000000000000000000000000000000000000000000000000000000000000000000000000000000000000000000000000000000000000000000000000000
00000000000000000000000000000000000000000000000000000000000000000000000000000000000000000000000000000000000000000000000000000000000000000000000000000000000000000000000000000000000000000000000000000000
00000000000000000000000000000000000000000000000000000000000000000000000000000000000000000000000000000000000000000000000000000000000000000000000000000000000000000000100000000000000000000000000000000000
00000000000000000000000000000000000000111000000000000000000000000000000000000000000000000000000000000000000000000000000000000000000000000000000000000000000000000001110000000000000000000000000000000000
00000000000000000000000111000000000000111000000000000000000000000000000000000000000000000000000000000000000000000000000000000000000000000000000000000000000000000000111100000000000000000000000000000000
00000000000000000000000111000000000000000000000000000000000000000000000011100000000000000000000000000000000000000000000000000000000000000000000000000000000000000000011000000000000000000000000000000000
00000000000000000000000000000000000000000000000000000000000000000000000011100000000000000000000000000000000000111000000000000000000000000000000000000000000000000000111000000000000000000000000000000000
00000000000000000000000000000000000000000000000000000000000000000000000000000000000000000000000000000000000001111111000000000000000000000000000000000000000000001110001000000000000000000000000000000000
00000000000000000000000000000000000000000000000000000000000000000000000000000000000000000000000000000000011111111111100000000000000000000000000000000000000000011110000000000000000000000000000000000000
00000000000000000000000000000000000000000000000000000000000000000000000000000000000000000000000000000001111111100011111000000000000000000000000000000000000000111100000000000000000000000000000000000000
00000000000000000000000000000000000000000000000000011100000000000000000000000000000000000000000000000111111111000011111100000001110000000000000000000000000000011000000000000000000000000000000000000000
00000000000000000000000000000000000110000000000000011100000000000000000000000000000000000000000000001111111111000111111110000001110000000000000000000000000000111100000000000000000000000000000000000000
00000000000000000000111000000000001111100000000000000000000000000000000000000000000000000000000000000111111111101111111110000000000000000000000000000000111111111100000000000000000000000000000000000000
00000000000000000000111000000000011111111000000000000000000000000000000000000000000000000000000000000011111111111111111111000000000000000000000000000001111111111000000000000000000000000000000000000000
00000000000000000000000000000000011111111111000000000000000000000000000000001111111111100000000011000111111111110111111111000000000000000000000000011111111111100000000000000000000000000000000000000000
00000000000000000000000000000000111001111111111100000001110000000000000110001111111110000000000011101111111101100111111111100000000000000000000000011111111111000000000000000000000000000000000000000000
00000000000000000000000000000000111000011111111111100001110000000011111110001111111110000000000111111111100000001111111111100000000000000000000001111111111111000000000000000000000000000000000000000000
00000000000000000000000000000000000000001111111111111111110000001111111111000111111111110000000111111111000000000111111111100000000000000000000111111111111111000000000000000000000000000000000000000000
00000000000000000000000000000000001110001100001111111111111111111111111111100011111111110000001111111111000000000111111111100000000000000000001111111111111111000000000000000000000000000000000000000000
00000000000000000000000000000001111111111110000000111111111100111111111111110011111111111000011111111110000000000011111111100000000000000001111111111111111111000000000000000000000000000000000000000000
00000000000000000000000000000011111111111110000000000111111000011111111111111111111111111111111111111110000000000001111111100000000000000011111111111111111110000000000000000000000000000000000000000000
00000000000000000000000000000111111110111110000000000000000000011111111111111111111111111111111111111100000000000011111111100000000000001111111111111111110000000000000000000000000000000000000000000000
00000000000000000000000000000111111110111100000000000000000000111110000011111111111111111111111111111110011111111111111111111111111111111111111111111111100000000000000000000000000000000000000000000000
00000000000000000000000000000011111111111100000000000000000001111100000001111111111111111111111111111111111111111111111111111111111111111111111111111111000000000000000000000000000000000000000000000000
00000000000000000000000001110000000111111110000000000000000011111000000000000111111111111110111111111111111111111111111111111111111111111111111111110000000000000000000000000000000000000000000000000000
00000000000000000000000001110000000111111111000000000000000011100000000000000011111111111100011111111110001111111111111111111111111111000011111111000000000000000000000000000000000000000000000000000000
00000000000000000000000000000000000111111111000000000000000011000011100000000011111101111000011111111100000000001111111111100011100000000011111110000000000000000000000000000000000000000000000000000000
00000000000000000000000000000000000111111111000000000000000000000011100000000011111101111100011111111100000000000111111111100001000000000011110010000000000000000000000000000000000000000000000000000000
00000000000000000000000000000000000111111111000000000000000000000000000001110011111111111110001111110000000000001111111111100000000000000011100000000100011000000000000000000000001110000000000000000000
00000000000000000000000000000000000111111111000000000000000000000000000001111000011111111110001111110010000000000111111111000000000000000011110001001100011100000000000000000000001110000000000000000000
00000000000000000000000000000000000111110111000000000000000000000000000000001000011111111100001111111111100011001111111111000000000000000011111111111110111111000000000000000111000000000000000000000000
00000000000000000000000000000000000111110111000000000000000000000000000000000111111111111000001111111111111111111111111110000000000000000011111011111111111011100000000000011110000000000000000000000000
00000000000000000000000000000000000011111111000000000000000000000000011000000000011111111000001111111111111111111111111000000000000000000111110011111111110001110000000000111100000000000000000000000000
00000000000000000000000000000000000011111110000000000000000000000000110000000000001111110000000111111111111111111111111000000000000000000111001111111111111011110000000001111000000000000000000000000000
00000000000000000000000000000000000011111110000000000000000000000000000000001111110011100000000011111111111111111111111110000000000000000111011111111111111111110000000001110000000000000000000000000000
00000000000000000000000000000000000111111111111000000000000000000000000000011111111011000000010001111111111111111111111110000000000000000111111111111111111111110000000000000000000000000000000000000000
00000000000000000000000000000000000111111111111000000000000000000000000000111111111111000000011100111111111111101111111110000000000000000111111111100111111111110000000000000000000000000000000000000000
00000000000000000000000000111000000111111111100000000000000000000000000000111111111110000000011100011100011110001111111100000000000000000111111111000011111111111100001000000000000000000000000000000000
00000000000000000000000000000000111111111111100000000000000000000000000011111111111100000000000000000000000000001111111100000000000000000111111000000001111111111110001000000000000000000000000000000000
00000000000000000000000000000000111111111111100000000000000000000000000111111111111000000000000000000000000000011111111100000000000000000111000000000001111111111110000000000000000000000000000000000000
00000000000000000000000000000000000011111110000000000000000000000000001111111111100000000000000000000000000000011111111000000000000000000000000000000000111111000000000000000000000000000000000000000000
00000000000000000000000000000000000011111110000000000000000000000000000111111110000000000000000000000000000000111111100000000000000000000000000000000000000111000000000000000000000000000000000000000000
00000000000000000000000000000000000011111111110000000000000000000111001111111100000000000000000011011000000000111111000000000000000000000000000000000000000111110000000000000000000000000000000000000000
00000000000000000000000000000000000011111111110000000000000000011111111111100000000000000000001110001100000000111111100000000000000000000000000000000000011111111110000000000000000000000000000000000000
00000000000000000000000000000000000011111011110000000000000011111101111110000000000000001110001111011110000001111111110000000000000000000000000000000000111111111110000000000000000000000000000000000000
00000000000000000000000000000000000001111011110000000000011111111100110000000000000000001110001111111110000111111111110000000000000000000000000000000000111111111110000000000000000000000000000000000000
00000000000000000000000000000000000001111111110000000001111111111111000000000000000011000000001111111111111111111111100000000000000000000000000000000001111111111110000000000000000000000000000000000000
00000000000000000000000000000000000001111111110000000011111111111110000000000000000111100000000111111111111111111111000000000000000000000000000000000001110001111110000000000000000000000000000000000000
00000000000000000000000000000000000001111111110000000011111111111111000000000000000011111000000011111111111111111111000000000000000000011110000000000010000000001110000000000000000000000000000000000000
00000000000000000000000000000000000001111110110000000011111111111111111110000000000011111000000011111111111111111110000000000000000000111111111111100111001000000100000000000000000000000000000000000000
00000000000000000000000000000000000001111110110000000011111111111111111111111110000001111000000001111111111111111110000000000000000001111111111111111111111111111000000000000000000000000000000000000000
00000000000000000000000000000000000001111111111000000011111111111111111111111111111000111000000000111111111111111100000000000000000001111111111111111111111111111000000000000000000000000000000000000000
00000000000000000000000000000010001100111111111111110011111101111111111111111111111100011000000000001111111111100000000000000000000001111111111011111111111111110000000000000000000000000000000000000000
00000000000000000000000000000011111110111111111111111110010000111110111111111111111100010000000000000011111111000000000000000000000001111111111001111111111111100000000000000000000000000000000000000000
00000000000000000000000000000011111111111111111101111110000000001110111111111111111000000000000000000001100000000000000000000000000001111111111110011111111111000000000000000000000000000000000000000000
00000000000000000000000000000000000111100000001000111110000000000111111111111111111100000000000000000000000000000000000000000000000000111111111111001111111000000000000000000000000000000000000000000000
00000000000000000000000000000000000000000000000000000000000000000000011111111111111111100000000000000000000000000000000000000000000000000111111111100001100000000000000000000000000000000000000000000000
00000000000000000000000000000000000000000000000000000000000000000000000001111111111111110000000000011100000000000000000000000000000000000000111000000000000000000000000000000000000000000000000000000000
00000000000000000000000000000000000000000000000000000000000000000000000000000111111111110000000000011100000000000000000000000000000000000000111000000000000000000000000000000000000000000000000000000000
00000000000000000000000000000000000000000000000000000000000000000000000000000011111111110000000000000000000000000000000000000000000000000000111000000000000000000000000000000000000000000000000000000000
00000000000000000000000000000000000000000000000000000000000000000000000000000000011111110000000000000000000000000000000000000000000000000000000000000000000000000000000000000000000000000000000000000000
00000000000000000000000000000000000000000000000000000000000000000000000000000000000011100000000000000000000000000000000000000000000000000000000000000000000000000000000000000000000000000000000000000000
00000000000000000000000000000000000000000000000000000000000000000000000000000000000000000000000000000000000000000000000000000000000000000000000000000000000000000000000000000000000000000000000000000000
00000000000000000000000000000000000000000000000000000000000000000000000000000000000000000000000000000000000000000000000000000000000000000000000000000000000000000000000000000000000000000000000000000000
00000000000000000000000000000000000000000000000000000000000000000000000000000000000000000000000000000000000000000000000000000000000000000000000000000000000000000000000000000000000000000000000000000000
00000000000000000000000000000000000000000000000000000000000000000000000000000000000000000000000000000000000000000000000000000000000000000000000000000000000000000000000000000000000000000000000000000000
