P1
200 70
00000000000000000000000000000000000100000000000000000000000000000000000000000000000000000000000000000000000000000000000000000000000000000000000000000000000000000000000000000000000000000000000000000000
00000000000000000000000000000000111110000000000000000000000000000000000000000000000000000000000000000000000000000000000000000000000000000000000000000000000000000000000000000000000000000000000000000000
00000000000000000000000000000000011110000000000000000000000000000000000000000000000000000000000000000000000000000000000000000000000000000000000000000000000000000000000000000000000000000000000000000000
00000000000000000000000000000000011111000000000000000000000000000000000000000000000000000000000000000000000000000000000000000000000000000000000000000000000000000000000000000000000000000000000000000000
00000000000000000000000000000000001111000000000000000000000000000000000000000000000000000000000000000000000000000000000000000000000000000000000000000000000000000000000000000000000000000000000000000000
00000000000000000000000000000000001111100000000000000000000000000000000000000000000000000000000000000000000000000000000000000000000000000000000000000000000000000000000000000000000000000000000000000000
00000000000000000000000000000000001111100000000000000000000000000000000000000000000000000000000000000000000000000000000000000000000000000000000000000000000000000000000000000000000000000000000000000000
00000000000000000000000000000000001111110000000000000000000000000000000000000000000000000000000000000000000000000000000000000000000000000000000000000000000000000000000000000000000000000000000000000000
00000000000000000000000000000000001111110000000000000000000000000000000000000000000000000000000011000000000000000000000000000000000000000000000000000000000000000000000000000000000000000000000000000000
00000000000000000000000000000000000011111000000000000011100000000000000000000000000000000001111111100000000000000000000000000000000000000000000000000000000000000000000000000000000000000000000000000000
00000000000000000000000000000000000001111100000000000011100000000000000000000000000000000111111111110000000000000000000000000000000000000000000000000000000000000000000000000000000000000000000000000000
00000000000000000000000000000000000001111110000000000000000000000000000000000000000000111111111111110000000000000000000000000000000000000011100001100000000000000000000000000000000000000000000000000000
00000000000000000000000000000000000000111001000000000000000000000000000100000000000111111111111111111000000000000000000000000000000111000111110001100000000000000000000000000000000000000000000000000000
00000000000000000000000000000000000000010000000100000000000000000000000111000000111111110001111111111100000000000000000000000000011111000111111011100000000000000000000000000000000000000000000000000000
00000000000000000000000001110000000000001110001110000000000000000000001110000001111111100000111111111100000000000000000000000000011100000111111111111000000000000000000000000000000000000000000000000000
00000000000000000000000111110000000000000111111110000000000000000000001110000111111100000000111111111000000000000000000000000000000000000111110111111100000000000000000000000000000000000000000000000000
00000000000000000000000111000000000000000011111110000000000000000000000000011111110000000000011111110000000000000000000000000000000000000111110111111000000000000000000000000000000000000000000000000000
00000000000000000000000110000000000000000011111110000000000000000000000000111111100000000000011111100000000000000000000000000001111000000111111111111100011100000000000111000000000000000000000000000000
00000000000000000000001110000000000000000011111000000000000000000000000000111111000000111000011111000001110000000000000000011111111000000000011111111111111000100000000000000000000000000000000000000000
00000000000000000000001110000000000000000011100000000000000000000000000001111111000000100000111111100001110000000000011111111111110000000000000111111111111101100000000000000000000000000000000000000000
00000000000000000000000000000000000000000011100111000000000000000000000011111110000000000000111011100000000000000111111100111111110000000000000000111111111111100000000000000000000000000000000000000000
00000000000000000000000000000000000000000011111111100000000000000000000011111110000000000000111001000000000111111111111110111111110000000000000000000111111011100000000000000000000000000000000000000000
00000000000000000000000000000000000000000111110011111000000000000000000001111111100000000000011110000011111111111111111111111111100000000000000000000001111001000000000000000000000000000000000000000000
00000000000000000000000000000000000000011111110000111100000000000000000001111111100000000000111110001111111111111111111111111111100000000000000000000001111110000000000000000000000000000000000000000000
00000000000000000000000000000000000011111111111100111110000000000000000001111000000000000001111100001111111111111111111111111111000000000000000000000001111000000000000000000000000000000000000000000000
00000000000000000000000000000000000001111111011111111111100000000000000000100000000000000001111000001111111111111111111000111110000000000000000000000011111000000000000000000000000000000000000000000000
00000000000000000000000000000000000011111111011111111111110000000000000000000000000000000001110000001111111111100000000001111100000000001100000000000001111100000000000000000000000000000000000000000000
00000000000000000000000000000000001111111111111111101111111100000000000000000000000000011111100000001111110000000000000011111100000000000000000000000001111100000000000000000000000000000000000000000000
00000000000000000000000000000000001111111111111011000001111111000000000000000000000000011111000000001111110000000000000011111000000000000000000000001111111000000000000000000000000000000000000000000000
00000000000000000000000000000000001111101111111011100000011111110000000000000000000001111110000000001111110000000000000111111000000000000000000000011111111000000000000000000000000000000000000000000000
00000000000000000000000000000000000000000000111111100000001111111000000000000000000111111110000000011111100000000000001111110000000000000000000000011111110000000000000000000000000000000000000000000000
00000000000000000000000000000000000000000000111111100000000011111100000000000000111111111111100000001111000000000000001111100000000000000000000000011111100000000000000000000000000000000000000000000000
00000000000000000000000000000000000000000000011111000000000000111111000000000000111111111111110000000000000000000000011100000000000000000000000000111111100000000000000000000000000000000000000000000000
00000000000000000000000000000000110000000000011111100000000000001100000000000001111111111111110000000000000000000000111100000000000000000000000001111111100000000000000000000000000000000000000000000000
00000000000000000000000000000000000000000000111111110000000110000000011110001111111111111111100000000000000000000000111110000000000000000000000011111111000000000000000000000000000000000000000000000000
00000000000000000000000000000000000000000000111111110000000000000000001111111111111111111111100000000000000000000001111110011100000000000000000011111110000000000000000000000000000000000000000000000000
00000000000000000000000000000000000000000000110111100000000000000000000001111110011111111111111000000000000000000001111100000000000000000000000111111110000000000000000000000000000000000000000000000000
00000000000000000000000000000000000000000000100111110000000000000000000000000000001111111111111111000000000000000001111100000000000000000000001110011100000000000000000000000000000000000000000000000000
00000000000000000000000000000000000000000000011111110000000000000000000000000000000000111111111111111100000000000001111110000000000000000000001100001000000000000000000000000000000000000000000000000000
00000000000000000000000000000000000001110000011111110000000000000000000000000000000000011111111111111100011100000001111110000000000000000000011110000000000000000000000000000000000000000000000000000000
00000000000000000000000000000000000001100000011111100000000000000000000000000000111000001111111001111110111111100011110000000000000000000000111111110000000111000000000000000000000000000000000000000000
00000000000000000000000000000000000000000000011111110000000000000000000000000000111000001111110000001111111111111111100000000000000000000000001111100000000111000000000000000000000000000000000000000000
00000000000000000000000000000000000000000000011111110000000000000000000000000000000000001111110000000000001111110111110000000000000000000001101111100000000000000000000000000000000000000000000000000000
00000000000000000000010000000000000000000000011111110000000000000000000000000000000000001111110000000000000000100111111100111000000000000011111111000000000000000000000000000000000000000000000000000000
00000000000000000000011100000000000000000000011111110000000000000000000000000000000000011111100000000000000000001111111111111000000000000011111111000000000000000000000000000000000000000000000000000000
00000000000000000000000000000000000000000000011111111000000000000000000000000000000000011111100000000000000000011111111111111000000000000111111100000000000000000000000000000000000000000000000000000000
00000000000000000000000000000001110000000000011111111000000000000000000000000000000000011111100000000000000000011001001111111100000000001111110000000000000000000000000000000000000000000000000000000000
00000000000000000000000000000001000000000000111111111000000000000000000000000000010000111111000000000000000000110000000011111110000000011111100000000000000111000000000000000000000000000000000000000000
00000000000000000000000000000000000000000000011111000000000000000000000111000000010000111110000000000000000000001110000000111111000000111111000000000000000111000000000000000011100000000000000000000000
00000000000000000000000000000000000000000000011110000000000000000000001111000000000001111110000000000000000000011110000000011111111111111111000000000011100000000000000000000011111100000000000000000000
00000000000000000000000000000000000001000000011100111000000000000000001111000000000001111100000000000000000001111100000000011111111111111111000000111011100000000100000000000000011100000000000000000000
00000000000000000000000000000000000111000000011100000000000000000000001111000000000111111100000000000000000001111000000000000000111111111111000000111000000000000100000000000000000000000000000000000000
00000000000000000000000000000000000000000000011111000000000000000000001111100000001111111100000000000000000011110000000000000000001111111111000000000000000000000000000000000000000000000000000000000000
00000000000000000000000000000000000000000000001110000000000000000000011111110000011111100111000000000000111111100000000000000000011111111111100000000000000000000000000000000000000000000000000000000000
00000000000000000000000000000000000000000000011111001000000000000000011111111111111111000111000000000000111111000000000000000000011111111111110000000000000000000000000000000000000000000000000000000000
00000000000000000000000000000000000000000000011111111000000000000000001111111111111110000000000000000000001111100000000000011000111111111111111000000000000000000011100000000000000000000000000000000000
00000000000000000000000000000000000000000000011111111000000000000000001111111111110000000000000000000000001111100000000000000001111111111111111110000000000000000011100000000000000000000000000000000000
00000000000000000000000000000000000000000000001100111000000000000000000111111110000000000000000000000000001111000000000000000001111111110001111111000000000000000000000000000000000000000000000000000000
00000000000000000000000000000000000000000000011000011100000000000000000000000000000000000000000000000000011110000000000000000000111111100000011111110000000000000000000000000000000000000000000000000000
00000000000000000000000000000000000000000000001100011100000011000000000000000000000000000000000000000000011110000000000000000000000001000000001111111100000000000000000000000000000000000000000000000000
00000000000000000000000000000000000000000000000111111000000011000000000000000000000000000000000000000000011100000000000000000000000000000000000011111111100000000000000000000000000000000000000000000000
00000000000000000000000000000000000000000000000000000000000000000000000000000000000000000000000000000000011100000000000000000000000000000000000001111111111000000000000000000000000000000000000000000000
00000000000000000000000000000000000000000000000000000000000000000000000000000000000000000000000000000000001110000000000000000001000000000000000000001111111110000000000000000000000000000000000000000000
00000000000000000000000000000000000000000000000000000000000000000000000000000000000000000000000000000000001110000000000000000001000000000000000000000001111111000000000000000000000000000000000000000000
00000000000000000000000000000000000000000000000000000000000000000000000000000000000000000000000000000000000000000000000000000000000000000000000000000000011111110000000000000000000000000000000000000000
00000000000000000000000000000000000000000000000000000000000000000000000000000000000000000000000000000000000000000000000000000000000000000000000000000000000111111100000000000000000000000000000000000000
00000000000000000000000000000000000000000000000000000000000000000000000000000000000000000000000000000000000000000000000000000000000000000000000000000000000001111111000000000000000000000000000000000000
00000000000000000000000000000000000000000000000000000000000000000000000000000000000000000000000000000000000000000000000000000000000000000000000000000000000000111111110000000000000000000000000000000000
00000000000000000000000000000000000000000000000000000000000000000000000000000000000000000000000000000000000000000000000000000000000000000000000000000000000000001111111100000000000000000000000000000000
00000000000000000000000000000000000000000000000000000000000000000000000000000000000000000000000000000000000000000000000000000000000000000000000000000000000000000011111100000000000000000000000000000000
