P1
200 70
00000000000000000000000000000000000000000000000000000000000000000000000000000000000000000000000000000000000000000000000000000000000000000000000000000000000000000000000000000000000000000000000000000000
00000000000000000000000000000000000000000000000000000000000000000000000000000000000000000000000000000000000000000000000000000000000000000000000000000000000000000000000000000000000000000000000000000000
00000000000000000000000000000000000000000000000000000000000000000000000000000000000000000000000000000000000000000000000000000000000000000000000000000000000000000000000000000000000000000000000000000000
00000000000000000000000000000000000000000000000000000000000000000000000000000000000000000000000000000000000000000000000000000000000000000000000000000000000000000000000000000000000000000000000000000000
00000000000000000000000000000000001000000000000000000000000000000000000000000000000000000000000000000000000000000000000000000000000000000000000000000000000000000000010000000000000000000000000000000000
00000000000000000000000000000000011100000000000000000000000000000000000000000000000000000000000000000000000000000000000000000000000000000000000000000000000000000000111000000000000000000000000000000000
00000000000000000000000000000000011111000000000000000000000000000000000000000000000000000000000000000000000000000000000000000000000000000000000000000000000000000001111100000000000000000000000000000000
00000000000000000000000000000000111111111000000000000000000000000000000000000000000000000000000000000000000000000000000000000000000000000000000000000000000000000011111000000000000000000000000000000000
00000000000000000000000000000000001111111000000000000000000000000000000000000000000000000000000000000000000000000000000000000000000000000000000000000000000000000111110000000000000000000000000000000000
00000000000000000000000000000000000111111000000000000000000000000000000000000000000000000000000000000000000000000000000000000000000000000000011100000000000000001111100000000000000000000000000000000000
00000000000000000000000000000000000001110011110000000000000000000000000000100000000000000000000000000000000000000000000000000000000000000000011100000000000000011111000000000000000000000000000000000000
00000000000000000000000000000000000000100011111100000000000000000000000000100000000000000000000000000000000000000000000000000000000000000000000000000000000000111110000000000000000000000000000000000000
00000000000000000000000000000000000000000111111110001110000000000000000000000000000000000000000000000000000000000000000000000000000000000000000000000000000011111100000000000000000000000000000000000000
00000000000000000000000000000000000000000000111111000111000000000000000000000000000000000111000000000000000000000000000000000000000000000000000000000000000111111100000000000000000000000000000000000000
00000000000000000000000000000000010000000000001111100011110000000000000000000000000000001111000000000000000000000000000001110000000000000000000000000000011111110000000000000000000000000000000000000000
00000000000000000000000000000000010000000000000000100011111100000000000000000000000000111111000000000000000000000000000001110000001110000000000000000000111111100000000000000000000000000000000000000000
00000000000000000000000000100111111000000000000000000111111110011000000000000000000000011111000000000000000000000000000000000000111110000000000000000011111110000000000011000000000000000000000000000000
00000000000000000000000001111111111111111100000000000000011111111111001000000000000010011111000000000000000000000000000000000000111000000000000111111111111100000000000000000000000000000000000000000000
00000000000000000000000001111111111111111111110000000000000011001111111111000000000011111111000000000000000000000000000000000000000000000000000111111111110001110000000000000000000000000000000000000000
00000000000000000000000001111111111111111111110000000000000000000111111111000111100111011111100000000000000000000000000111111100100000000000001111111111000000001111111100000000000000000000000000000000
00000000000000000000000000111111111111111111110000000000000000000011111100011111111111011111100000000000000011100000001111111111110000000011111111111000000000011111111100000000000000000000000000000000
00000000000000000000000000111111111111111111110000000000000000000000000000011111111111111111110000000000000011100000001111111111111111111111111111100000000001111111111100000000000000000000000000000000
00000000000000000000000000111111111111111111111000000000000000000000000000000000111111111111111111111111111111100000011111111111111111111111111100000011100111111111111000000000000000000000000000000000
00000000000000000000000000111111111111111111111000000000000000000000000000000000001111111011111111111111111111111111111111111111110111111111100000000011111111111111111000000000000000000000000000000000
00000000000000000000000000111111111111110111111000000000000000000000000000000000001111111011111111111111111111111111111111111111110111111000000000000001111111111111111000000000000000000000000000000000
00000000000000000000000000011111110111110111111000000000000000000000000000000000011111111111110000001111111111111111111111111111111111110000000000000000111111111111111000000000000000000000000000000000
00000000000000000000000000000000000111111111111000000000000000000000000000000000011111111111110000000000000000000111111111111111011111100000000000000000111111111111111000000000000000000000000000000000
00000000000000000000000000000000000011111111111000000000000000000000000000000000111110111111100000000000000000000000011100000000001111000000000000000000111111111111110000000000000000000000000000000000
00000000000000000000000000000000000001111111111000000000000000000111000000000000111100011111110000000000000000000000011000000000000000000000000000000000001111001111110000000000000000000000000000000000
00000000000000000000000000000000000001111111111100000000000000000111000000000000111100011111110000000000000000000001111000000000000000000000000000000000000110011111110000000000000000000000000000000000
00000000000000000000000000000000000011111111111100000000000000000000000000000001111100011111110000000000000000000001111000000000000000000000000000000000000000011111110000000000000000000000000000000000
00000000000000000000000000000000000011111111111100000000000000000000000000000001111100011111110000000000000000000001111000000000000000000000000000000000000000011111110000000000000000000000000000000000
00000000000000000000000000000000000011101111111000000000000000000000000000000001111100011111110000000000000000000011111111111111000000000000000000000000000000011111110000000000000000000000000000000000
00000000000000000000000000000000000011101111111000000000000000000000000000000001111100001111110000000000000000000011111111111111100000000000000000000000000000000111100000000000000000000000000000000000
00000000000000000000000000000000000011111111111000000000000000000000000000000001111000001111111000000000011100000011111111110011100000000000000000000000000000000111100000000000000000000000000000000000
00000000000000000000000000000000000001111011111000000000000000000000000000000011111000001111111000000000011100000011111001100000011000000000000000000000000000001111100000000000000000000000000000000000
00000000000000000000000000000000000001111011111100000000000000000000000000000011100000001111111000000000011100000111110000011100111100000000000000000000010000000111100000000000000000000000000000000000
00000000000000000000000000000000000001111111111100000000000000000000000000000011000000001111111000000000000000001111000000001111111100000000000000000000011100001111000000000000000000000000000000000000
00000000000000000000000000000000000000111111111100000000000000000001110000000000010000000111111000000000000000001110000000001111111110000000000111000000000000111110000000000000000000000000000000000000
00000000000000000000000000000000000000011011111100000000000000000001110000000000000000000111111100000000000000000000000000000111111110000000000100000000000000111110000000000000000000000000000000000000
00000000000000000000000000000000000000111011111100000000000000000000000000000111100000000111111100000000000000000000000000000111111111000000000000000000000001111110000000000000000000000000000000000000
00000000000000000000000000000000000000111111111000000000000000000000000000000111100000000111100100000000000000000001110000000111111111000000000000000000000001111111000000000000000000000000000000000000
00000000000000000000000000000000000000111111111000000000000000000000000000000111100000000111100000011110000000000001110000000111111111000000000000000000000001111100000000000000000000000000000000000000
00000000000000000000000000000000000000111111111100000000000000000000000000001111100000000011110001111110000000000000000000000000001110000000000000000000000001111100000000000000000000000000000000000000
00000000000000000000000000000000111000111101111110000000000000000000000000001111000000000001111111111110000001100000000000000000001110000000000000000000000001111100000000000000000000000000000000000000
00000000000000000000000000000000111000011101111110000000000000000000000000001111000000000001111111111110000011111000000000001111111111000000000000000000000011111100000000000000000000000000000000000000
00000000000000000000000000000000111000011111111100000000000000000000000000001111000000000011110111111000000011111000000000001111111111000000000000000000000011111100000000000000000000000000000000000000
00000000000000000000000000111000110000111111111100000000000000000000000000011111000000001111110111110001110011110000000000001111111111100000000000000000000111111100000000000000000000000000000000000000
00000000000000000000000000111000000000011111011110000000000000000000000001111111000000111111111110000001110111110000000000001111111111100000000000000000000111111100000000000100000000000000000000000000
00000000000000000000000000000000000000011111011111000000000000000000000001111110000111111111111110000000000111110000000000001111111111100000000000000000000111111100000000000100000000000000000000000000
00000000000000000000000000000000000000111111111111000111100000000000000000001100011111111110111111100000000111110000000000001111110111100000000001110000000111111000000000000000000000000000000000000000
00000000000000000000000000000000011111111111111100111111100000000000000000001110111111111100111111100000000111100000000000001111110111000000000001111111111111111101111000000000000000000000000000000000
00000000000000000000000000000001111111111111111101111111100000000000000000011111111111100000111111000000000111000111100000011111111111000000000000111111111111111111111100000000000000000000000000000000
00000000000000000000000000000001111111111111111111111011100000000000000000111111111111000000110110000000000001000111110001111111111111000000000000011111111111111111111100000000000000000000000000000000
00000000000000000000000000000001111110111111111111111011100000000000000000011111110000000000110111000000000000000001111011111111111111000000000000011111001111111111111000000000000000000000000000000000
00000000000000000000000000000001111110111111111111111111100000000000000000011111100000000000111111001110000000000001111111011111111111000000000000011110000111111111111000000000000000000000000000000000
00000000000000000000001110000011111111111111111111111111100000000000000000011100000000000000111111111111000000000011111111011111111110000000000000011111001111111111111100000000000000000000000000000000
00000000000000000000001110000111111111111111111111111100000000000000000000000000000000000000111111111110000000000001001111111111111110000000000000000001111111111111111100000000000000000000000000000000
00000000000000000000000000000111111111111111111111100000000000000000000000000000000000000000111111111111000000000000000111111111111100000000000000000000000011100011111000000000000000000000000000000000
00000000000000000000000000000001111111000111100000000000000000000000000000000000000000000111111111111100000000000000000111110111111000000000000000000000000000000000000000000000000000000000000000000000
00000000000000000000000000000000011110000000000000000000000000000000000000000000000000000111110111000000000000000000000000000011100000000000000000000000000000000000000000000000000000000000000000000000
00000000000000000000000000000000001110000000000000000000000000000000000000000000000000001111100010000000000111000000000000000000000000000000000000000000000000000000000000000000000000000000000000000000
00000000000000000000000000000000000000000000000000000000000000000000000000000000000000011111100000000000000110000000000000000000000000000000000000000000000000000000000000111000000000000000000000000000
00000000000000000000000000000000000000000000000000000000000000000000000000000000000000001111000000000000000000000000000000000000000000000000000000000000000000000000000000111000000000000000000000000000
00000000000000000000000000000000000000000000000000000000000000000000000000000000000000000000000000000000000000000000000000000000000000000000000000000000000000000000000000000000000000000000000000000000
00000000000000000000000000000000000000000000000000000000000000000000000000000000000000000000000000000000000000000000000000000000000000000000000000000000000000000000000000000000000000000000000000000000
00000000000000000000000000000000000000000000000000000000000000000000000000000000000000000000000000000000000000000000000000000000000000000000000000000000000000000000000000000000000000000000000000000000
00000000000000000000000000000000000000000000000000000000000000000000000000000000000000000000000000000000000000000000000000000000000000000000000000000000000000000000000000000000000000000000000000000000
00000000000000000000000000000000000000000000000000000000000000000000000000000000000000000000000000000000000000000000000000000000000000000000000000000000000000000000000000000000000000000000000000000000
00000000000000000000000000000000000000000000000000000000000000000000000000000000000000000000000000000000000000000000000000000000000000000000000000000000000000000000000000000000000000000000000000000000
