P1
200 70
00000000000000000000000000000000000000000000000000000000000000000000000000000000000000000000000000000000000000000000000000000000000000000000000000000000000000000000000000000000000000000000000000000000
00000000000000000000000000000000000000000000000000000000000000000000000000000000000000000000000000000000000000000000000000000000000000000000000000000000000000000000000000000000000000000000000000000000
00000000000000000000000000000000000000000000000000000000000000000000000000000000000000000000000000000000000000000000000000000000000000000000000000000000000000000000000000000000000000000000000000000000
00000000000000000000000000000000000000000000000000000000000000000000000000000000000000000000000000000000000000000000000000000000000000000000000000000000000000000000000000000000000000000000000000000000
00000000000000000000000000000000000000000000000000000000000000000000000000000000000000000000000000000000000000000000000000000000000000000000000000000000000000000000000000000000000000000000000000000000
00000000000000000000000000000000000000000000000000000000000000000000000000000000000000000000000000000000000000000000000000000000000000000000000000000000000000000000000000000000000000000000000000000000
00000000000000000000000000000000000000000000000000000000000000000000000000000000000000000000000000000000000000000000000000000000000000000000000000000000000000000000000000000000000000000000000000000000
00000000000000000000000000000000000000000000000000000000000000000000000000000000000000000000000000000000000000000000000000000000000000000000000000000000000000000000000000000000000000000000000000000000
00000000000000000000000000000000000000000000000000000000000000000000000000000000000000000000000000000000000000000000000000000000000000000000000000000000000000000000000000000000000000000000000000000000
00000000000000000000000000000000000000000000000000000000000000000000000000000000000000000000000000000000000000000000000000000000000000000000000000000000000000000000000000000000000000000000000000000000
00000000000000000000000000000000000000000000000000000000000000000000000000000000000000000000000000000000000000000011100000000000000000000000000000000000000000000000000000000000000000000000000000000000
00000000000000000000000000001100000000000000000000000000000000000000000000000000000000000000000000000000000000000011100000000011000000000000000000000000000000000000000000000000000000000000000000000000
00000000000000000000000000011100000000000000000000000000000000000000000000000000000000000000000000000000000000000000000000001111000000000000000000000000000000000000000011100000000000000000000000000000
00000000000000000000000000000000000000000000000000000000000000000000000000000000000000100000000000000000000000000000000001111111100000000000000000000000000000000000000011000000000000000000000000000000
00000000000000000000000000000000000000000000000000000000000000000000000000000000000000100000000000000000000000000000000011111111100000000000000000000000000000000000000000000000000000000000000000000000
00000000000000000000000000000000000000000000000000000000000000000000000000000000000000000000000000000000000000000000111111111110000000000000000000000000000000001111111111110000000000000000000000000000
00000000000000000000000000000000000000000011100000000000000000000000000000000000000000011100000000000000000000000111111111111110000000000000000000000000000000111111111111111100000000000000000000000000
00000000000000000000000000000000000000000111100000000000000000000000000000000000000000111111000000000000000000011111111110011111110000000000000000000000000011111111111110111111000000000000000000000000
00000000000000000000000000000000000000000111100000000111000000000000000000000000000001111111100000000000000111111111111000001111100000000000000000000000000001111111111110111111110000000000000000000000
00000000000000000000000000000000000000000011110000000111000000000000000000000000000000111111110000000000001111111111111000011111000000000000000000000000010011111111111111111111110000000000000000000000
00000000000000000000000000000000000000000001110000000000000000000000000000000000000001111111111000000000001111111111111111111111000000000000000000000000111111111111111111111111110000000000000000000000
00000000000000000000000000000000000000000000000000000000000000000000000000000000011111111111111100000000001111111110000111111110000000000000000000000001111111011111111111111111110000000000000000000000
00000000000000000000000000000000000000110001000000000000000000000000000000000000111011111111111000000000001111111110000011111000000000000000000000000111111111011111111111111111110000000000000000000000
00000000000000000000000000000000001000110011100000000000000000000000000000000001111011111111111000000000001111111111111100000000000000000000000000011111111111111111111111100011110000000000000000000000
00000000000000000000000000000000011100000111100000000000000000000000000000000111111111111111111000000000001111111001000000000000000000000000000000011111111111111110000010000011100000000000000000000000
00000000000000000000000000000000111110000111110000000000000000000000000000001111111111111111110000000000001111110000000000000000000000000000000000011111111111110000000000000111100000000000000000000000
00000000000000000000000000000000011111000111111110000000000000000000000000011111111100111111110000000000001111100000000000000000000000000000000000011111111111100000000000000011100000000000000000000000
00000000000000000000000000000000001110000111111111000000000000000000000011111111111000111111100000000000000111100000000000000000000000000000000000111111111111000000000011000000000000000000000000000000
00000000000000000000000000000000000110000111111111111000000000000000000011111111110000111111100000000000000011000000000000000000000000000000000000111111001110000000000011100000000000000000000000000000
00000000000000000000000000000000000000011111111111111000000000000000000000111111100001111111100000000000000011000000000000110000000000000000000000011111001110000000000000000000000000000000000000000000
00000000000000000000000000000000000000000011111110000000000000000000000000111111000001111111100000000000001111000000001111111111111000111111100000011111111100000000000000000000000000000000000000000000
00000000000000000000000000000000000000100011111000000000000000000000000111111110000011111111100000000000001111000000001111111111111000111111111111111111111000000000000000000000000000000000000000000000
00000000000000000000000000000000000000111111111000000000000000000000001111111100000001111111000000000000000111100000011111111111111101111111111111111111111000010000000000000000000000000000000000000000
00000000000000000000000000000000000000011111111100000000000000000000001111111000000011111111000000000000000111110001111111111111111111111111111111111111111000011110001100000000000000000000000000000000
00000000000000000000000000000000000000011111111110001110000000000000011111110000000011111110000000000000001111111000111111111111110111100000011111111111111100011111111110000000000000000000000000000000
00000000000000000000000000000000000000011111111111001110000000000000111111100000000011111110000000000000011111111100000111111111110111100000001101111111111110111111111111100000000000000000000000000000
00000000000000000000000000000000000000011111110111110000000000000001111111100000000111111110111000000001111111111100000011111111111111100000001101111111111111111111111111110000000000000000000000000000
00000000000000000000000000000000000000111111100011111000000000000011111111110000000111111110111000000001111111111000000000111111111111100000001111111101111011111111111111111000000000000000000000000000
00000000000000000000000000000000000000111111110011111110000000000111111111110000000111111100000000011100011111110000111000011111111111110000011111111101111011111111111111111000000000000000000000000000
00000000000000000000000000000000000000111111110000111111100000000111111100000000000011111100000011111100000111100000111000001111111111110000111111111111111111111111111111111100000000000000000000000000
00000000000000000000000000000000000011111111110000011111111100000111111100000000000011111100001111111110000111001110000000001111111111111000111111111111111111110111111111111100000000000000000000000000
00000000000000000000000000000000000011111111100000000111111110000111111110000001111111111111111111111000000000001110000000001111111111111000111111111111111100100111111111111110000000000000000000000000
00000000000000000000000000000000000011111111100011100001111111001111111111001111111111111111111100000000000000000000000000001111111111111000111111111111110000001111111111111110000000000000000000000000
00000000000000000000000000000000000000111111100011100000000111111111111111111111111111111111111000000000000000000000011100001111111111111101111111111111110000000111111111110000000000000000000000000000
00000000000000000000000000000000000000111111000000000000000011111111111111111011111011111111110000111000000000000000011100000111111111111111111111111111100000000111111111110000000000000000000000000000
00000000000000000000000000000000000111111111000000000000000000011111111111110001111011111111110000100000000000000000000000000111111111111111111111111111000000000011111111111100000000000000000000000000
00000000000000000000000000000000001111111111000000000000000000001111101111110011111111111111100000000000000000000000000000000111111111111111111111111110000000000001111111111100000000000000000000000000
00000000000000000000000000000000000011111110000000000000000000000000000000000000111111111011000000000000000000000111000000000111111111111111111111111110000000000000111111111100000000000000000000000000
00000000000000000000000000000000011011111110000000000000000000000000000000000000111111110000000000000000000000000111000000000111111111111111111111111110000000000000111111111100000000000000000000000000
00000000000000000000000000000000111111111110000000000000000000000000000000000000011111110000000000000000000000000100000000000111111111111111111111111110000000000011111111111100000000000000000000000000
00000000000000000000000000110000011101111100000000000000000000000000000000000000111111110000000000000000000110000000000000000111111111111111111111100100000000000111111111111100000000000000000000000000
00000000000000000000000000111100111101111100000000000000000000000000000000000000111100110000000000000000000111000000000000000111111111111111111111100000000000000111100000011100000000000000000000000000
00000000000000000000000000001111111111111000000000000000000000000000000000000000111100000000000000000000001111000000000000000111111111111111111111111100000000001111100000011100000000000000000000000000
00000000000000000000000000000111111111001000000000000000000000000000000000000000111111000000000000000000011111000000000000001111111111111111111111111100000000001111111111111000000000000000000000000000
00000000000000000000000000000000011111000000000000000000000000000000000000000001111111000000000000000000011111100000000000011111111111111111111111011100000000011111111111111000000000000000000000000000
00000000000000000000000000000000011111110000000000000000000000000000000000000000111110000000000000000000001111110000000000011111111111111111111111011100000000111111111111110000000000000000000000000000
00000000000000000000000000000000111001110000000000000000000000000000000000000000000100000000000000000000011111110000000000011111111111110011111111111000000000111111111111110001110000000000000000000000
00000000000000000000000000000000111000001111000000000000000000000000000000000000000000000000000000000000011111100010110100111111111001100111111111111100001001111111111111100001110000000000000000000000
00000000000000000000000000000000000000000111110000000000000000000011100000000000000000000000000000000111011111110000011111111111110000000011111111111111111111111111111111000000000000000000000000000000
00000000000000000000000000000000000000000000111000000000000100000011100000000000000000000000000001110111001111111100111111111111111000000011111111111110111111111111111110000000000000000000000000000000
00000000000000000000000000000000000000000000000000000000000100000000000000000000000000000000000001110000000011111111111111111111100000000001111111111110011111111111111100000000000000000000000000000000
00000000000000000000000000000000000000000000000000000000000000000000000000000000000000000000000000000000000000000110111101110000000000000001111111111111000111111111111000000000000000000000000000000000
00000000000000000000000000000000000000000000000000000000000000001000000000000000000000000000000000000000000000000000000000000000000000000000100111111111100111111111100000000000000000000000000000000000
00000000000000000000000000000000000000000000000000000000000000001000000000000000000000000000000000000000000000000000000000000000000000000000000011111111111111111110000000000000000000000000000000000000
00000000000000000000000000000000000000000000000000000000000000000000000000000000000000000000000000000000000000000000000000000000000000000000000111111111111111111000000000000000000000000000000000000000
00000000000000000000000000000000000000000000000000000000000000000000000000000000000000000000000000000000000000000000000000000000000000000000000011111111111111000000000000000000000000000000000000000000
00000000000000000000000000000000000000000000000000000000000000000000000000000000000000000000000000000000000000000000000000000000000000000000000000000000000000000000000000000000000000000000000000000000
00000000000000000000000000000000000000000000000000000000000000000000000000000000000000000000000000000000000000000000000000000000000000000000000000000000000000000000000000000000000000000000000000000000
00000000000000000000000000000000000000000000000000000000000000000000000000000000000000000000000000000000000000000000000000000000000000000000000000000000000000000000000000000000000000000000000000000000
00000000000000000000000000000000000000000000000000000000000000000000000000000000000000000000000000000000000000000000000000000000000000000000000000000000000000000000000000000000000000000000000000000000
