P1
200 70
00000000000000000000000000000000000000000000000000000000000000000000000000000000000000000000000000000000000000000000000000000000000000000000000000000000000000000000000000000000000000000000000000000000
00000000000000000000000000000000000000000000000000000000000000000000000000000000000000000000000000000000000000000000000000000000000000000000000000000000000000000000000000000000000000000000000000000000
00000000000000000000000000000000000000000000000000000000000000000000000000000000000000000000000000000000000000000000000000000000000000000000000000000000000000000000000000000000000000000000000000000000
00000000000000000000000000000000000000000000000000000000000000000000000000000000000000000000000000000000000000000000000000000000000000000000000000000000000000000000000000000000000000000000000000000000
00000000000000000000000000000000000000000000000000000000000000000000000000000000000000000000000000000000000000000000000000000000000000000000000000000000000000000000000000000000000000000000000000000000
00000000000000000000000000000000000000000000000000000000000000000000000000000000000000000000000000000000000000000000000000000000000000000000000000000000000000000000000000000000000000000000000000000000
00000000000000000000000000000000000000000000000000000000000000000000000000000000000000000000000000000000000000000000000000000000000000000000000000000000000000000000000000000000000000000000000000000000
00000000000000000000000000000000000000000000000000000000000000000000000000000000000000000000000000000000000000000000000000000000000000000110000000000000000000000000011100000000000000000000000000000000
00000000000000000000000000000000000000000000000000000000000000000000000000000000000000000000000000000000000000000000000000000000000000000110000000000000000000000000011100000000000000000000000000000000
00000000000000000000000000000000000000000000000000000000000000000000000000000000000000000000000000000000000000000000000000000000000000111000000000000000000000000000000000000000000000000000000000000000
00000000000000000000000000000000000000000000000000000000000000000000000000000000000000000000000000001110000000001110000000000000000000000000000000000000000000000000000000000000000000000000000000000000
00000000000000000000000000000000000000000000000000000000000000000000000000000000000000000000000110001110000000001110000000000000000000000000000000000000000000000000000000000000000000000000000000000000
00000000000000000000000000000000000000000000000000000000000000000000000000000011100000000000000011000000000000000000000000000000000000000000000000000000000000000000000000000001110000000000000000000000
00000000000000000000000000000000000000000000000000000000000000000000000000000011100000000000000011110000000000000000000000000000000000000000000000000000000000000000000000000001110000000000000000000000
00000000000000000000000000000000000000000000000000000000000000000000000000000000000000000000000011111000000000000000000000001110000000000000000000000000000000000000000000000000000000000000000000000000
00000000000000000000000000000000000000010000000000000000000000000000000000000000000000000000000011111110000000000000000000001110000000000000000000000000000000000000000000000000000000000000000000000000
00000000000000000000000000000000000000010000000000000110000000000000000000000000000000000000000011110111100000000000000000000000000000000000000000000000000000000000000000000000000000000000000000000000
00000000000000000000000000000000000000000000011100011111000000000000000000000000111000111110000011110111111000000000000000000000000000000000000000000000000000000000000000000000000000000000000000000000
00000000000000000000000000000000000000000100011100111111100000000000000000000111111111111111000001111111111110000000000000000000000000000000000000000000000000000000000000000000000000000000000000000000
00000000000000000000000000000000000000001100000011111111100000000000000000001111111111111011000000011111111111111100000000000000000000000110011000000000000000000000000000000000000000000000000000000000
00000000000000000000000000000000000000000011100011111111100000000000000000111111111001110011100000000111111111111000000000000000000111111111111111110000000000000000000000000000000000000000000000000000
00000000000000000000000000000000000000000111111111111111100000000000000001111111000000011111100000000001111111111011100000000000001111111111111111111000000000000000000000000000000000000000000000000000
00000000000000000000000000000000000000000111110000111111100000000000000001111110000000001111100000000000001111111111100000000000001111111111111111111111000000000000000000000000000000000000000000000000
00000000000000000000000000000000000000000000000000111111100000000000000011111100000000000111100000000000000001111111110000000000001101111111111111111111110000000000000000000000000000000000000000000000
00000000000000000000000000000000000000000000000000111111100000000000000011111000000000001111100000000000000000001111111000000000001101111111111111111101111100000000001000000000000000000000000000000000
00000000000000000000000000000000000000000000000000011111100000000000000111111000000000011111000000000000000000000111111000000010011111111111111111111000111110001111111000000000000000000000000000000000
00000000000000000000000000000000000000000000000000001111100000000000001111110000001110011100000000000000000000000111111000000011111111111111111111111100011111111111110000000000000000000000000000000000
00000000000000000000000000000000000000000000000000011111110000000000001111110000001110000000000000000000000000001111111000000111111111111111111111111110111111111111110000000000000000000000000000000000
00000000000000000000000000000000000000000000000000011111100000000000001111100000000000000000000000000000000000011111110011111111111111111111111111111111111111111000000000000000000000000000000000000000
00000000000000000000000000000000000000000000001110011111100000000000011111110000000000000000000000000000011111111111100001111111111111111111111111111111111111110000000000000000000000000000000000000000
00000000000000000000000000000000000000000000001110011111100000000000011111110000000000000000000000000011111111111111110011111111111111111111111111111111111111100000000000000000000110000000000000000000
00000000000000000000000000000000000000000000000000001111110000000000111111100000000000000000000000011111111111111111111111110011111111111100000000000111111111110000000000000000000110000000000000000000
00000000000000000000000000000000000000000000000000001111110000000000111111000011100000000000100011111111111111111111000000000001111111111100000000000011111111110000000000000000000000000000000000000000
00000000000000000000000000000000000000000000000000001111110000000000111111001111111111111111110001111111000011111110000000000000111111111100000000000011111111110000000000000000000000000000000000000000
00000000000000000000000000000000000000000000000000001111100000000001111111111111111111111111110001111000000011111110000000000000001110000000000000000111111111100000000000000000000000000000000000000000
00000000000000000000000000000000000000000000000000001111100000000001111111111111111111111111000000000000000011100100000000000000001110000000000000000111111111110000000000000000000000000000000000000000
00000000000000000000000000111000000000000000000000001111000000000001111111111111111111111110000111000000000011100000000000000000000000000000000000000001111111110000000000000000000000000000000000000000
00000000000000000000000000111000000000000000000000001111000000000001111111111111111111111111000111000000000111111000000000000000000000000000000000000001111111100000000000000000000000000000000000000000
00000000000000000000000000000000001000000000000000001111110000000011111111111111111111111111000000000000001111110000000000000000000000000001110000011111111111000000000000000000000000000000000000000000
00000000000000000000000000000000001111000000000000001111111000000111111111111111100000111111100000000000001111110000000000000000000000000000000000111000111110000000000000000000000000000000000000000000
00000000000000000000000000000000011111100000000001111111111000001111111111110000000000111111100000000000001111110000000000000000000000000000001111111000111110000000000000000000000000000000000000000000
00000000000000000000000000000000011111111111111111111111111111111111111111100000000000011111110000000000011111110000000000000000000000000000001111111111111111000000000000000111000000000000000000000000
00000000000000000000000000000000000000111111111111111111111111111111111111100000000000011111110000000000011111110000000000000000000000000000000111111111111111110000000000000111000000000000000000000000
00000000000000000000000000000000000000011111111111111111111111111111111111100000000000011111000000000000011111100000000000000000000000000000000111111111111111111000000000000000000000000000000000000000
00000000000000000000000000000111000000000000001111111111111111111111111111110000000000011111000000000000111111100000000000000000000000000000000111111111111111100100000000000000000000000000000000000000
00000000000000000000000000000110000000000000000000000111111111111111111111110000000000001111110000000000111111100000000000000000000000000000000011111111111111101110000000000000000000000000000000000000
00000000000000000000000000001100000000000000000000000111111111111111111110000000000000001111111000000000111111100000000000000000000000000000000011110111111111111111000000000000000000000000000000000000
00000000000000000000000000001110000000011100000000000111111111111111111100000000000000001111111000000000111111000000000000000000000000000000000000000000001111111111000000000000000000000000000000000000
00000000000000000000000000000000000000011100000000000111111111100011111110000000000000001111111000000000111111000000000000000000000000000000000000000000000111111111100000000000000000000000000000000000
00000000000000000000000000000000000000000011100000001111111110000011111110000000000000001111111000000000111110000000000000000000000000000000000000000000000111111111100000000000000000000000000000000000
00000000000000000000000000000000000000000011100000111111111000000011111110000000000000001111111000000000111110000000000000000000000000000000000000000000000011111111100000000000000000000000000000000000
00000000000000000000000000000000000000000000000001111111100000000011111110000000000000001111111000000000111110000000000000000111000000000000000000000000000011111111100000000000000000000000000000000000
00000000000000000000000000000000000000000000000011111100000000000011111110000000000000001111111000000001111111000000000000000011000000000000000000000100000011111111110000000000000000000000000000000000
00000000000000000000000000000000000000000000000111111000000000000001111110000000000000001111111000000001111111000000000000000011100000000000001111100111000011111111110000000000000000000000000000000000
00000000000000000000000000000000000000000000000011000000000000000001001111000000000000011111111000000001110111000000000000000011100000000011111111110000000011111111110000000000000000000000000000000000
00000000000000000000000000000000000000000000000000000000000000000000001111111100000000111111111000000001100011100000000000000000000000000011111111110000000011111111110000000000000000000000000000000000
00000000000000000000000000000000000000000000000000000000000000000000011111111100000011111111111000000001000111110000000000000000000000000011110111111100000111111111111100000000000000000000000000000000
00000000000000000000000000000000000000000000000000000000000000000000001111111100000010000111110000000001101110010000000000000001110000000001110111011111111110011111111100000000000000000000000000000000
00000000000000000000000000000000000000000000000000000000000000000000001111111110000000000111100000000001111100000000000000001111110000000000111110001111111100001111100000000000000000000000000000000000
00000000000000000000000000000000000000000000011100000000000000000000000111111111111100011111100000000001111000000000000000001110000000000000111100011111111110011111000000000000000000000000000000000000
00000000000000000000000000000000000000000000011100000000000000000000000011111111111111001110000000000000000000000000000000000000000000000000011110111111111111111110000000010000000000000000000000000000
00000000000000000000000000000000000000000000000000000000000000000000000000111111111111100100000000000000000000000000000000000000000000000000001111111111111111110000000000010000000000000000000000000000
00000000000000000000000000000000000000000000000000000000000000000000000000000000111111110000000000000000000000000000000000000000000000000000000111111111111111100000000000000000000000000000000000000000
00000000000000000000000000000000000000000000000000000000000000000000000000000000000001000000000000000000000000000000000000000000000000000000000011111111111111110000000000000000011100000000000000000000
00000000000000000000000000000000000000000000000000000000000000000000000000000000000000000000000000000000000000000000000000000000000000000000000000111111111111000000000000000000000000000000000000000000
00000000000000000000000000000000000000000000000000000000000000000000000000000000000000000000000000000000000000000000000000000000000000000000000000000001110000000000000000000000000000000000000000000000
00000000000000000000000000000000000000000000000000000000000000000000000000000000000000000000000000000000000000000000000000000000000000000000000000000000000000000000000000000000000000000000000000000000
00000000000000000000000000000000000000000000000000000000000000000000000000000000000000000000000000000000000000000000000000000000000000000000000000000000000000000000000000000000000000000000000000000000
00000000000000000000000000000000000000000000000000000000000000000000000000000000000000000000000000000000000000000000000000000000000000000000000000000000000000000000000000000000000000000000000000000000
00000000000000000000000000000000000000000000000000000000000000000000000000000000000000000000000000000000000000000000000000000000000000000000000000000000000000000000000000000000000000000000000000000000
