P1
200 70
00000000000000000000000000000000000000000000000000000000000000000000000000000000000000000000000000000000000000000000000000000000000000000000000000000000000000000000000000000000000000000000000000000000
00000000000000000000000000000000000000000000000000000000000000000000000000000000000000000000000000000000000000000000000000000000000000000000000000000000000000000000000000000000000000000000000000000000
00000000000000000000000000000000000000000000000000000000000000000000000000000000000000000000000000000000000000000000000000000000000000000000000000000000000000000000000000000000000000000000000000000000
00000000000000000000000000000000000000000000000000000000000000000000000000000000000000000000000000000000000000000000000000000000000000000000000000000000000000000000000000000000000000000000000000000000
00000000000000000000000000000000000000000000000000000000000000000000000000000000000000000000000000000000000000000000000000000000000000000000000000000000000000000000000000000000000000000000000000000000
00000000000000000000000000000000000000000000000000000000000000000000000000000000000000000000000000000000000000000000000000000000000000000000000000000000000000000000100000000000000000000000000000000000
00000000000000000000000000000000000100000000000000000000000000000000000000000000000000000000000000000000000000000000000000000000000000000000000000000000000000000001110000000000000000000000000000000000
00000000000000000000000000000000001110000000000000000000000000000000000000000000000000000000000000000000000000000000000000000000000000000000000000000000000000000011111100000000000000000000000000000000
00000000000000000000000000000000000110000000000000000000000000000000000000000000000000000000000000000000000000000000000000000000000000000000000000000000000000000111111000000000000000000000000000000000
00000000000000000000000000000000001111000000000000000000000000000000001110000000000000000000000000000000000000000000000000000000000000000000000000000000000000000011110000000000000000000000000000000000
00000000000000000000000000000000011111000000000000000000000000000000001000000000000000000000000000000000000000000000000000000000000000000000000000000000000000000111100000000000000000000000000000000000
00000000000000000000000000000000001111100000000000000000000000000000000000000000000000000000000000000000000000000000110001110000000000000000000000000000000000011111100000000000000000000000000000000000
00000000000000000000000000000000001111110000000000000011000000000000000000000000000000000000000000000000000000111111110000111000000000000000000000000000000000111111000000000000000000000000000000000000
00000000000000000000000000000000000111110000000000000001000000000000000000000000000000000000000000000000000111111111110000111100000000000000000000000000000001111110000000000000000000000000000000000000
00000000000000000000000000000000000011111000000000000000001110000000000000000000111111100000000000000000011111111111111001111110000000000000000000000000000011111100000000000000000000000000000000000000
00000000000000000000000000000000000001111000000000000000001110000000000000011111111111100000000000011000111111111111111111111111000000000000000000000000000111111100000000000000000000000000000000000000
00000000000000000000000000000000000000111100000000000000000000000000000000111111111111110000000000011000111111111111111111111111000000000000000000000000011111111000000000000000000000000000000000000000
00000000000000000000000000000000000000011100000000000000000001111000000011111111100111110000000000000011111111111111111111111111000000000000000000001000111111110000000000000000000000000000000000000000
00000000000000000000000000000000000000011110011100000011111111111000000111111100000011110000000000000011111111111111100111111110000000000000000000111111111111111000000000000000000000000000000000000000
00000000000000000000000000000000000000011110001111111111111111100000000111111000000111110000000000000001111111111000000111101110000000000000000001111111111111111100000000000000000000000000000000000000
00000000000000000000000000000000000000001111001111111101111111000000000011100000000011110000000000000000111111110000000111101111000000000000000000111111111111111110000000000000000000000000000000000000
00000000000000000000000000000000000000000111110000111101111110000000010011000000000001111000000000000001111111100000000111111110000000000000001000111111111111111110000000000000000000000000000000000000
00000000000000000000000000000000000000000011100000011111111110000000011111100000000001111000000111000111111111100000000011111110000000000000111111111100110011111111000000000000000000000000000000000000
00000000000000000000000000000000000000000001000100011111111100000000111111100000000001110000000011000111000011100000000001111111011100000001111111111000000000111111000000000000000000000000000000000000
00000000000000000000000000000000000000000000111111111111111100000000111111100000111000000000000000000011000011100000000001101111001100000011110001100000000000011110000000000000000000000000000000000000
00000000000000000000000000000000000000000000011111111111100000000001111111100000111100000000000000000011111111110000000011101110000000001111110000000000000000000000000000000000000000000000000000000000
00000000000000000000000000000000000000000000011111111111100000011111111111000000011100000000000000000011111111110000000111111100000011111111111000000000001110000000000000000000000000000000000000000000
00000000000000000000000000000000000000000000001111111111110000011111110011000000000000000000000000000001111111111000001111111110011111111111111000000000001110000000000000000000000000000000000000000000
00000000000000000000000000000000000000000000000011111011110000000001110000000000000000000000000000000000111111111110011111111111111111111111110000000000000000000000000000000000000000000000000000000000
00000000000000000000000000000000000000000000000011111011111000000001111000000000000000000000000000000000011111111111111111111111100011011111110000000000000000000000000000000000000000000000000000000000
00000000000000000000000000000000000000000000001111111111111100000011111111000000011110000000000011100000011111111111111111111110000000001111110000000000000000000000000000000000000000000000000000000000
00000000000000000000000000000000000000000000001111111111111110000011111111000111111111110000000111111111111111111100111111111100000000011111100000100000000000000000000000000000000000000000000000000000
00000000000000000000000000000000000000000000000011111111111111001111111111101111111111111100011111111111111111111000111111111100000000000111100011111111100000000111000000000000000000000000000000000000
00000000000000000000000000000000000000011100000001111111111111111111111111111111111111111110001111111111111111111001111111111110000000000111111111111111110000000111000000000000000000000000000000000000
00000000000000000000000000000000000000011100000011111111000011111111111111111111111111111111001111100000000011111111111111111111000000111111111111111111111000000000000000000000000000000000000000000000
00000000000000000000000000000000111000000000000111111001000000011111111111111111111111111111110000000000000011111111111111111111000000111111111110001111111111000000000000000000000000000000000000000000
00000000000000000000000000000000011000000000000111111000000000000111111111111111111111111111100000000000111111111111000111111111100000111111111100000111111111000000000000000000000000000000000000000000
00000000000000000000000000000000000000000000000111111110000000000011111011110000000111111111000000000000111111111110000011111111100001111111111000000001111111100000000000000000000000000000000000000000
00000000000000000000000000000000000000000000001111111110000000000011111011100000000111111001000000000000001111111110000001111111100001111111110000000000111111100000000000000000000000000000000000000000
00000000000000000000000000000000000000000000001111111110000000000011111111100000000011110000000000000000001111111100000000111111100001111111100000000000011111110000000000000000000000000000000000000000
00000000000000000000000000000000000000000000001111111100000000000011111111000000000011100110000000000000001111111100000000111111100001111111000000000000001111110000000000000000000000000000000000000000
00000000000000000000000000000000000000000000001111111100000000000011111111100000000001101111100000000000000111101110000000011111100000111111000000000000011111111000000000000000000000000000000000000000
00000000000000000000000000000000000000000000011111111110000000000001111111100000000001111111110000000000000111101110000000011111110001111111100000000000001111111111100000000000000000000000000000000000
00000000000000000000000000000000000000000000011111111110000000000001111111110000000001111111100000000000000011111110000000011111111111111111111000000000001111111111100000000000000000000000000000000000
00000000000000000000000000000000000000000000011111111000000000000001111111110000000001111111100000000000000011111111000000000111111011111111111000000000011111110000000000000000000000000000000000000000
00000000000000000000000000000000000000000000111011110000000000000001111111110000000001111111100000000000000011111111000000000111110001111110000000000000011111100000000000000000000000000000000000000000
00000000000000000000000000000000000000000000111011110000000000000001111111110000000000111111000000000000000001111111000000111111110001111100000000000000011111100000000000000000000111000000000000000000
00000000000000000000000000000000000000000001111111110000000000111001111111111000000000111111000000000000000001111111100000111111110011111100000000000000011111100000000000000000000111000000000000000000
00000000000000000000000000000000000000000001111111100000000000000000111111111000000001111111000000000000000000111111111111111111110111111100000000011100011111100000000000000000000000000000000000000000
00000000000000000000000000000000000000000011111111100000000000000000111111111100000001111110000000000000000000111111111111111110000111011100000000011100111111000000000000000000000000000000000000000000
00000000000000000000000000000000000000000011111111000000111000000000111111111100000011111100000000000000000000011111111111111110000010011100000000000000111111000000001110000000000000000000000000000000
00000000000000000000000000000000000000000011111111000000001000000000111111111110000111111000000000000000000000011111111111111111000001111110000000000001111111000000001110000000000000000000000000000000
00000000000000000000000000000000000000000111111111000000000000000000011111111111111111110000000000000000000000000111111111111111000001111110000000000011111110000000000000000000000000000000000000000000
00000000000000000000000000000000000000000100000111100000000000000000001111111111111111100000000000000000000000000011111111111110000000111111000000001111111100000000000000000000000000000000000000000000
00000000000000000000000000000000000000001110000011111110000000000000001111111111111111000000000000000000000000000001111111111000000000011111110001011111111100000000000000000000000000000000000000000000
00000000000000000000000000000000000000011111110001111100000000000000000111111111111000000000000000000000000000000000000001100000000000011111111111111111111000000000000000000000000000000000000000000000
00000000000000000000000000000000000000111111110000000000011100000000000011111111110000000000000000000000000000000000000000000000000000001111111111111111110000000000000000000000000000000000000000000000
00000000000000000000000000000000000111111110000000000000011100000000000000111111000000000000000000000000000000000000000000000000000000000111110111111111000000000000000000000000000000000000000000000000
00000000000000000000000000000000000111000000000000000000000000000000000000000000000000000000000000000000000000000000000000000000000000000001100011111110000000000000000000000000000000000000000000000000
00000000000000000000000000000000000000000000000000000000000000000000000000000000000000000000000000000000000000000000000000000000000000000000000011110000000000000000000000000000000000000000000000000000
00000000000000000000000000000000000000000000000000001110000000000000000000000000000000000000000000000000000000000000000000000000000000000000000000000000000000000000000000000000000000000000000000000000
00000000000000000000000000000000000000000000000000001110000000000001110000000000000000000000000000000000000000000000000000000000000000000000000000000000000000000000000000000000000000000000000000000000
00000000000000000000000000000000000000000000000000000000000000000001110000000000000000000000000000000000000000000000000000000000000000000000000000000000000000000000000000000000000000000000000000000000
00000000000000000000000000000000000000000000000000000000000000000000000000000000000000000000000000000000000000000000000000000000000000000000000000000000000000000000000000000000000000000000000000000000
00000000000000000000000000000000000000000000000000000000000000000000000000000000000000000000000000000000000000000000000000000000000000000000000000000000000000000000000000000000000000000000000000000000
00000000000000000000000000000000000000000000000000000000000000000000000000000000000000000000000000000000000000000000000000000000000000000000000000000000000000000000000000000000000000000000000000000000
00000000000000000000000000000000000000000000000000000000000000000000000000000000000000000000000000000000000000000000000000000000000000000000000000000000000000000000000000000000000000000000000000000000
00000000000000000000000000000000000000000000000000000000000000000000000000000000000000000000000000000000000000000000000000000000000000000000000000000000000000000000000000000000000000000000000000000000
00000000000000000000000000000000000000000000000000000000000000000000000000000000000000000000000000000000000000000000000000000000000000000000000000000000000000000000000000000000000000000000000000000000
00000000000000000000000000000000000000000000000000000000000000000000000000000000000000000000000000000000000000000000000000000000000000000000000000000000000000000000000000000000000000000000000000000000
