P1
200 70
00000000000000000000000000000000000000000000000000000000000000000000000000000000000000000000000000000000000000000000000000000000000000000000000000000000000000000000000000000000000000000000000000000000
00000000000000000000000000000000000000000000000000000000000000000000000000000000000000000000000000000000000000000000000000000000000000000000000000000000000000000000000000000000000000000000000000000000
00000000000000000000000000000000000000000000000000000000000000000000000000000000000000000000000000000000000000000000000000000000000000000000000000000000000000000000000000000000000000000000000000000000
00000000000000000000000000000000000000000000000000000000000000000000000000000000000000000000000000000000000000000000000000000000000000000000000000000000000000000000100000000000000000000000000000000000
00000000000000000000000000000000000000000000000000000000000000000000000000000000000000000000000000000000000000000000000000000000000000000000000000000000000000000001110000000000000000000000000000000000
00000000000000000000000000000000000000000000000000000000000000000000000000000000000000000000000000000000000000000000000000000000000000000000000000000000000000000001111100000000000000000000000000000000
00000000000000000000000000000000000000000000000000000000000000000000000000000000000000000000000000000000000000000000000000000000000000000000000000000000000000000011111000000000000000000000000000000000
00000000000000000000000000000000000000001000000000000000000000000000000000001100000000000000000000000000000000000000000000011100000000000000000000000000000000000011111000000000000000000000000000000000
00000000000000000000000000000000000000001000000000000000000000000000000000001100000000000000000000000000000000000000000000011100000000000000000000000000000000000111110000000000000000000000000000000000
00000000000000000000000000000000000000000000000000000000000000000000000000000000000000000000000000000000000000000000000000000000000000000000000000000000000000001111110000000000000000000000000000000000
00000000000000000000000000000000000000000000000000000000000001110000000000000000000000000000000000000000000000000000000000000000000000000000000000000000000000001111100000000000000000000000000000000000
00000000000000000000000000000000000000000000000000000000001111110000000000000000000000000000001110000000000000000000000000000000000000000000000000000000000000011111000000000000000000000000000000000000
00000000000000000000000000000000000000000000000000000000001111110000000000000000000000000000001110000000000000000000000000000000000000000000000000000000000000000111000000000000000000000000000000000000
00000000000000000000000000000000000000000000000000000001110011110000001110000000000000000000000000000000000000000010000000000000000011000000000000000000000000100010000000000000000000000000000000000000
00000000000000000000000000000000000000000000000000000011111011110000001110000000000000000000000000000000000000000010000000000000000111000000000000000000000001100010000000000000000000000000000000000000
00000000000000000000000000000000000000000000000000001111111111110000000000000000000000000000000000000000000000000000000000000001111111000000000000000000000011110000000000111000000000000000000000000000
00000000000000000000000000000000000000000000000000011111111111110000000000000000000000000000000000000000000000000000000001111111111111000000000000000000000111111000000000111000000000000000000000000000
00000000000000000000000000000000000000000000000000111111111111110000000000000000000000000000000000000000000000000000011111111111111110000000000000000000000111110000000000000000000000000000000000000000
00000000000000000000000000000000000000000000000001111110111111110000000000000011000000000000000000000000000010000000111111111111111110000000000000000000001111100111000000000000000000000000000000000000
00000000000000000000000000000000000000000000000011111110111111110000000000000011100000000000000000000000000111000011111110111111111100000000000000000000011111000000000000000000000000000000000000000000
00000000000000000000000000000000000000011100001111111111111111111000000000000000000000000000000000000000000111111111111100011111111000000000000000000000111111000000000000000000000000000000000000000000
00000000000000000000000000000000000000011100001111111111111111111000000000000000000000000000000011100011101111111111110001101110000000000000000000100001111110000000000000000000000000000000000000000000
00000000000000000000000000000000000000000000000111111111111111001000000000000000000000111000001111110011111111111111100000000000000000000000001111111111111100000000000000000000000000000000000000000000
00000000000000000000000000000000000000000000000111111111111111001000000000000000000000110001111111110000001111111000000000000000000000000000011111111111111100000000000000000000000000000000000000000000
00000000000000000000000000000000000000000000011111111111111111111000000000000000000011111011111111110000001111111000000000000000000000111000011111111111111110000000000000000000000000000000000000000000
00000000000000000000000000000000000000000000011111111111111111111000000000000000111111111111111111100000001111111000000000000000000000111000111111001110111111100000000000000000000000000000000000000000
00000000000000000000000000000000000000000000011111110111110111111000000000000001111111111111110111100000001111111000000000000000000000000000111110001100001110010010000000000000000000000000000000000000
00000000000000000000000000000000000000000000111111110111110111111100000000000001111111111111110111100000001111111000000000000000000000000000111100011110000000011010000000000000000000000000000000000000
00000000000000000000000000000000000000000001111111111111111111111111000000000001111111111111111111100000001111111000000000000000000000000000111001111100000001110000000000000000000000000000000000000000
00000000000000000000000000000000000000001111111111111111111111111111111000000011111111111110111111000000001111111000000000000000000000000000111011111000000000111001000000000000000000000000000000000000
00000000000000000000000000000000000000111111111111111111111111111111111111100011111111100000011111000000001111111000000000000000000000000000111111110000000000111111100000000000000000000000000000000000
00000000000000000000000000000000000001111111100000000011111111111111111111000001111100000000000111000000001111110000000000000000000000000000111111100000000000011111100000000000000000000000000000000000
00000000000000000000000001110000000111111100000000000011111111110000001111100100111100000000100111000000000111110000000001100000000000000000111111100000000000011111100000000000000000000000000000000000
00000000000000000000000001110000001111111000000000000011111111110000000001111110111100000000111111000000000111111111110011111000000000000000111111000000000000011111110000000000000000000000000000000000
00000000000000000000000000000000111111100000000000000011111111111100000000011111111110000001111111000000001111111111001111111100000000000001111111100000000000011111110000000000000000000000000000000000
00000000000000000000000000000000011111000000000000000011111111111110000000000010011111110001111110000000011111111111011101111110000000000111111111100000000000011111110000000000000000000000000000000000
00000000000000000000000000000000011100000000000000000011111111111111100000000000001111111111111110000000011111111111111101111111100000111111111111100000011100011111110000000000000000000000000000000000
00000000000000000000000000000000001000000000000000000111111111111111000000000000000111111111111110000000011111011111111111111111100011111111100111110000011100111111110000000000000000000000000000000000
00000000000000000000000000000000000000000000000000000011111111111110000000000000000000111111111111000000011110011100000011111011000111111110000011111000000001111111110000000000000000000000000000000000
00000000000000000000000000000000000000000000000000000001111011110110000000000000000000000111111111111100011000111000000001110011101111110000000011111100000011111111100000000000000000000000000000000000
00000000000000000000000000000000000000000011100110000001111011110110000000000000000000000111111111111000110000000000000000001111111111000000011111110011111111111111000000000111000000000000000000000000
00000000000000000000000000000000000000000011100111111001111111111111000000000000000000000111111111111100111000000000000010011111111100000000111111100011111001111111000000000111000000000000000000000000
00000000000000000000000000000000000000000000000000111001111111111111000000000000000000000111111000001111000111111111111111111111111000000001111111110111111101111100000000000000000000000000000000000000
00000000000000000000000000000000000000000000000000000001111111111111000000000000000000000111111000000001000001111111111111001111111000000011111111100000111111111000000000000000000000000000000000000000
00000000000000000000000011100000000000000000000000000001111111101111000000000000000000001111111000000000001000110001111110000111111000000011111110000000001111111000000000000000000000000000000000000000
00000000000000000000000011100000000000000000000000000001111111000111000000000000000000001000000000000000000000000000000000100111111000000111111110000000000011111110000000000000000000000000000000000000
00000000000000000000000000000000000000000000000000000001111111100011000000000000000000001100000000000000000000000000000000001111110000000111111110000000000001111111000000000000000000000000000000000000
00000000000000000000000000000000000000000000000000000001111111110111000000000000000000001111100000000000000000000000000000001111110000000111111100000100000000111111000000000000000000000000000000000000
00000000000000000000000000000000000000011100000000000001111111111111000000000000000000000111100000000000000000000000000000001001110000000111111100000111000000111111100000000000000111000000000000000000
00000000000000000000000000000000000000011100000000000001111111111111000000000000000000000011100000000000000000000000000000011101110000000111111000000000000000111111100000000000000111000000000000000000
00000000000000000000000000000000000000000000000000000001111111111111000000011111110000000111000000000000000000000000000000011111110000000111111100111000000000111111100000000000000000000000000000000000
00000000000000000000000000000000000000000000000000000001111111111111000111111111110000111111000000000000000000000000000000001111110000000111111100111000000000111111000000000000000000000000000000000000
00000000000000000000000000000000000000000000000000000001111111111111111111111111100001111111000000000000000000000000000000001111100000000111111100000000000000111111000000000000000000000000000000000000
00000000000000000000000000000000000000000000000000000001111111111111111111111111100001111111000000000000000000000000000000111111100000000111111100000000000000111111100000000000000000000000000000000000
00000000000000000000000000000000000000000000000000000001111111111111111111111111000001111110001110000000001100000000000001111111000000000111111000000000000000111111100000000000000000000000000000000000
00000000000000000000000000000000000000000000000000000011111111111111111111111111100001111110001110000000001111000000000011111111000000000011111000000000000000111111100000000000000000000000000000000000
00000000000000000000000000000000000000000000000000011111111111111111111111111111110001111100000000000010011111110000011111111110000000000011111110000000000001111111100000000000000000000000000000000000
00000000000000000000000000000000000000000000000111111111111111111110111111111111110001111100000000000011111110011111111111111110000000000001111111000000000001111111000000000000000000000000000000000000
00000000000000000000000000000000000000000000011111111110111111111110111111111111110001111000000000000001001110111111111111111100000000000000111111110000000111101111000000000000000000000000000000000000
00000000000000000000000000000000000000000000111111101110111111111111111111111111100000000000000000000000000111111111111111111000000000000000011111111111111111100110000000000000000000000000000000000000
00000000000000000000000000000000000000000000111111000111111111111111111111111100000000000000000000000000000111001111111111110000000000000000001111111111111111111100000000000000000000000000000000000000
00000000000000000000000000000000000000000000111111100011111111111111111111000000000000000000000000000000000000000111111111000000000000000000000001111111111111110000000000000000000000000000000000000000
00000000000000000000000000000000000000000000111111110111111111111111000000000000000000000000000000000000000000000000110000000000000000000000000000000001111111100000000000000000000000000000000000000000
00000000000000000000000000000000000000000000111111111111111111110000000000000000000000000000000000000000000000000000000000000000000000000000000000000000000000000000000000000000000000000000000000000000
00000000000000000000000000000000000000000000111111111111111100000000000000000000000000000000000000000000000000000000000000000000000000000000000000000000000000000000000000000000000000000000000000000000
00000000000000000000000000000000000000000001111111111111000000000000000000000000000000000000000000000000000000000000000000000000000000000000000000000000000000000000000000000000000000000000000000000000
00000000000000000000000000000000000000000000111111110000000000000000000000000000000000000000000000000000000000000000000000000000000000000000000000000000000000000000000000000000000000000000000000000000
00000000000000000000000000000000000000000000000100000000000000000000000000000000000000000000000000000000000000000000000000000000000000000000000000000000000000000000000000000000000000000000000000000000
00000000000000000000000000000000000000000000000000000000000000000000000000000000000000000000000000000000000000000000000000000000000000000000000000000000000000000000000000000000000000000000000000000000
00000000000000000000000000000000000000000000000000000000000000000000000000000000000000000000000000000000000000000000000000000000000000000000000000000000000000000000000000000000000000000000000000000000
