P1
200 70
00000000000000000000000000000000000000000000000000000000000000000000000000000000000000000000000000000000000000000000000000000000000000000000000000000000000000000000000000000000000000000000000000000000
00000000000000000000000000000000000000000000000000000000000000000000000000000000000000000000000000000000000000000000000000000000000000000000000000000000000000000000000000000000000000000000000000000000
00000000000000000000000000000000000000000000000000000000000000000000000000000000000000000000000000000000000000000000000000000000000000000000000000000000000000000000000000000000000000000000000000000000
00000000000000000000000000000000000000000000000000000000000000000000000000000000000000000000000000000000000000000000000000000000000000000000000000000000000000000000000000000000000000000000000000000000
00000000000000000000000000000000000000000000000000000000000000000000000000000000000000000000000000000000000000000000000000000000000000000000000000000000000000000000000000000000000000000000000000000000
00000000000000000000000000000000000000000000000000000000000000000000000000000000000000000000000000000000000000000000000000000000000000000000000000000000000000000000000000000000000000000000000000000000
00000000000000000000000000000000000000000000000000000000000000000000000000000000000000000000000000000000000000000000000000000000000000000000000000000000000000000000000000000000000000000000000000000000
00000000000000000000000000000000000000000000000000000000000000000000000000000000000000000000000000000011100000000000011100000000000000000000000000000000000000000000000000000000000000000000000000000000
00000000000000000000000000000000000000000000000000000000000000000000000000000000000000000000000000000011100000000000011100000000000000000000000000000000000000000000000000000000000000000000000000000000
00000000000000000000000000000000000000000000000000000000000000000000000000000000000000000000000000000000000000000000000000000000000000000000000000000000000000000000000000000000000000000000000000000000
00000000000000000000000000000000000000000000000000000000000000000000000000000000000000000000000000000000000000000000000000000000000000000000000000000000000000000000000000000000000000000000000000000000
00000000000000000000000000000000000000000000000000000000000000000000000000000000000000000000000000000000000000000111000000000000000000000000000000000000000000000000000000000000000000000000000000000000
00000000000000000000000000000000000000000000000000000000000000000000000000000000000000000000000000000000000000000111000011100000000000000000000000000000000000000000000000000000000000000000000000000000
00000000000000000000000000011100000000000111000000000000000000000010000000110000000000000000000000000000000000000000000011100011100000000000000000000000000000000000000000000000000000000000000000000000
00000000000000000000000000011100000000000111000000000000000000111111001111111111110000000000000000000000000000000000000000000011100000000000000000000000000000000000000000000000000000000000000000000000
00000000000000000000000000000000000000000000000000001110001111111111111111111111111110000000000000000000000000000000000000000000000000000011001100000000000000000000000000000000000000000000000000000000
00000000000000000000000000000000000000000000000000011111011111110111111111111111111100110000000000000000000000000000000000000000000000000111111111000000000000000000010000000000000000000000000000000000
00000000000000000000000000000000000000000000011100111111111111110010000011111111111000011000000000000000000000000000000000000000000000001111111111100000000000000000111000000000000000000000000000000000
00000000000000000000000000000000000000000001111111111111111111111110000001111111111100111100011000000000000000000000000000000000011100011111011111001000000000000001111100000000000000000000000000000000
00000000000000000000000000000000000000000011111111111111111111111110000001110010000011111110111111000000000000000000001111000000011100011111001110001100000000000011111000000000000000000000000000000000
00000000000000000000000000000000000000111111111000011111111111001110000001110000000011111111111111111100000000000000111111110000000000011111000111000110000000000111110000000000000000000000000000000000
00000000000000000000000000000000000000111111000000011111111111000100000011111000000011111111111111111111111100000001111111110000000000111100000000001110000000001110000000000000000000000000000000000000
00000000000000000000000000000000000001111110000000011110000001000000000011111100000000001111100001111111111111110001111111100000000001111000000000011111000000011100000000000000000000000000000000000000
00000000000000000000000000000000000111111100000000000000000011100000000001111100000000000111000000111111000111111101111111100000000001111100000000011111100001100010000000000000000000000000000000000000
00000000000000000000000000000000001111111000000000000001110011111000000001111100000000000110000000111111000111111111111111100000000001111100000000001111110011110000000000000000000000000000000000000000
00000000000000000000000000000000111111100000000000000000000011111000000001111110000000000010000000011011111111111111111111000000000001111100000000001111111111111000000000000000000000000000000000000000
00000000000000000000000000000000011111000000000000000000000111111000000001111110000000000110000000000001111111111111111111000000000001111100000000000111111111100000000000000000000000000000000000000000
00000000000000000000000000000000011100000000000000000000000111111000000000111111000000000111000000000000000111111111111111000000000001111100000000000111111110000000000000000111000000000000000000000000
00000000000000000000000000000000001000000000000000000000001111110000000000111111100000000111100000000000000011111101111111111000000011111100000000011111111100000000000000000111000000000000000000000000
00000000000000000000000000000000000000000000000000000000011111110000000000011111110000001111100000000000000000111101111111111111000011111100000001111111111100000011100000000000000000000000000000000000
00000000000000000000000000000000000000000000000001110000011111110000000000001111111000000111000000000000000000111111111111111111111111111111111111111111111100000011100011100000000000000000000000000000
00000000000000000000000000000000000000000000000001110000011111110000000000000111111100100110000000000001000001111111111110011111111101111111111111111111111100000000000011100000000000000000000000000000
00000000000000000000000000000000000000000000000000000000011111100000000000000011101111111110000000000001000001111111111100000011111001111111111111100011111100000000000000000000000000000000000000000000
00000000000000000000000000000000000000000000000000000000011111100000000000000011101111110000000000000000000001111111111000000000000011111111100000000001111100000000000000000000000000000000000000000000
00000000000000000000000000000000000000000000000000000000011111100000000000000001111111110000000000000000000001111111111000000000000011111100000000000000111110000000000000000000000000000000000000000000
00000000000000000000000000000000000000000000000000000000111000000000000000000001111111111000000000000000000001111111110011100000000011111100000000000000111111000000000000000000000000000000000000000000
00000000000000000000000000000000000000000001110000000000111000000000000000000001111111111100000000000000000011111111110011100000000011111100000000000000001111000000000000000000000000000000000000000000
00000000000000000000000000111000000000000000000000000000111111000000000000000011111111100010000000000000000011111111110000000000000011111000000000000000001111000000000000000000011100000000000000000000
00000000000000000000000000111000000000000100000000000000111111000000000000000111100000000011000000000000000111111111110000000000000011111000000000000000111111000000000000000000001100000000000000000000
00000000000000000000000000000000000000000000000000000001111110000001110000000111000000001100000000000000000111111111100000000000000011111000000000000000111111000000000000000000000000000000000000000000
00000000000000000000000000000000000000000000000000000001111110000001110000001111000000001110000000000000001111111111100000000000000011111000000000000000111111000000000000000000000000000000000000000000
00000000000000000000000000000000000000000000000000000011111110000000000000001111000000001111100000000000011111111111100000000000000011111100000000000000111100100000000000000000000000000000000000000000
00000000000000000000000000000000000000001110000000000011111110000000000000001110000000000111110000000000011111111111000000000000000011111100000000001110111101100000000000000000000000000000000000000000
00000000000000000000000000000000000000001110000000000111111110000000000000000110000000000111110000000000011111111111000000000000000011111100011100001110111111100000000000000000000111000000000000000000
00000000000000000000000000000000000000001111000111000111111100000000000000001110000000000111110000000000111111111110000000000000000011111110001100000000011111000000000000000000000111000000000000000000
00000000000000000000000000000000000000000111111111101111111100000000000000011110000000000111100000000000111111111100000000000000000011111110000000000000001111000000000000000000000000000000000000000000
00000000000000000000000000000000000000000000111111111111111000000000000000011110000000000111100000000011111111111100000000000000000001111110000000000000011111100000000000000000000000000000000000000000
00000000000000000000000000000000000000000000011111111111111000000000000000001110000000000111000000000011111111111100000000000000000011111110000000000000111111000000000000000000000000000000000000000000
00000000000000000000000000000000000000000000001111111111100000000000000000001111000000001110000000000001111111111100000000000000000011111110000000000000111111000000000000000000000000000000000000000000
00000000000000000000000000000000000000000000000011111111000000000000000000001111000000011100000000000011100111111000000000000000000011111110000000000000111111000000000000000000000000000000000000000000
00000000000000000000000000000000000000000000000000011111100100000000000000001111100000111000000000000011000011111000000000000000000001111111000000000001111110000000000000000000000000000000000000000000
00000000000000000000000000000000000000000000000000001111111111110000000000000111111111110000000000000111100100111000000000000000000001111111000000000001111110000000011100000000000000000000000000000000
00000000000000000000000000000000000000000000000000000001111111111000000000000001111111000000000000000111111110010000000000000000000001111100000000111111111100000000011100000000000000000000000000000000
00000000000000000000000000000000000000000000000000000000111111111110000000000000111000001110000000000011111111100000000000000000000001111100100000111111111100000000000000000000000000000000000000000000
00000000000000000000000000000000000000000000000000000000001111111111000000000000000000001110000000000001111111100000000000000000000001111111100000111111111000000000000000000000000000000000000000000000
00000000000000000000000000000000000000000000000000000000000011111111100000000000000000000000000000000000011111100000000000000000000001111111000000111111110000000000000000000000000000000000000000000000
00000000000000000000000000000000000000000000000000000000000001111111100000000000000000000000000000000000011111000000000000000000000000111110000111111111100000000000000000000000000000000000000000000000
00000000000000000000000000000000000000000000000000000000000000011111100000000000000000000000000000000000111111000000000000000000000000011111001111111111000000000000000000000000000000000000000000000000
00000000000000000000000000000000000000000000000000000000000000000111100000000000000000000000000000000000111000000000000000000000000000001111111111111100000000000000000000000000000000000000000000000000
00000000000000000000000000000000000000000000000000000000000000000000000000000000000000000000000000000000000000000000000000000000000000000111111111110000000000000000000000000000000000000000000000000000
00000000000000000000000000000000000000000000000000000000000000000000000000000001110000000000000000000000000000000000000000000000000000000011111111000000000000000000000000000000000000000000000000000000
00000000000000000000000000000000000000000000000000000000000000000000000000000001110000000000000000000000000000000000000000000000000000000011111100000000000000000000000000000000000000000000000000000000
00000000000000000000000000000000000000000000000000000000000000000000000000000000000000000000000000000000000000000000000000000000000000000000000000000000000000000000000000000000000000000000000000000000
00000000000000000000000000000000000000000000000000000000000000000000000000000000000000000000000000000000000000000000000000000000000000000000000000000000000000000000000000000000000000000000000000000000
00000000000000000000000000000000000000000000000000000000000000000000000000000000000000000000000000000000000000000000000000000000000000000000000000000000000000000000000000000000000000000000000000000000
00000000000000000000000000000000000000000000000000000000000000000000000000000000000000000000000000000000000000000000000000000000000000000000000000000000000000000000000000000000000000000000000000000000
00000000000000000000000000000000000000000000000000000000000000000000000000000000000000000000000000000000000000000000000000000000000000000000000000000000000000000000000000000000000000000000000000000000
00000000000000000000000000000000000000000000000000000000000000000000000000000000000000000000000000000000000000000000000000000000000000000000000000000000000000000000000000000000000000000000000000000000
00000000000000000000000000000000000000000000000000000000000000000000000000000000000000000000000000000000000000000000000000000000000000000000000000000000000000000000000000000000000000000000000000000000
00000000000000000000000000000000000000000000000000000000000000000000000000000000000000000000000000000000000000000000000000000000000000000000000000000000000000000000000000000000000000000000000000000000
