P1
200 70
00000000000000000000000000000000000000000000000000000000000000000000000000000000000000000000000000000000000000000000000000000000000000000000000000000000000000000000000000000000000000000000000000000000
00000000000000000000000000000000000000000000000000000000000000000000000000000000000000000000000000000000000000000000000000000000000000000000000000000000000000000000000000000000000000000000000000000000
00000000000000000000000000000000000000000000000000000000000000000000000000000000000000000000000000000000000000000000000000000000000000000000000000000000000000000000000000000000000000000000000000000000
00000000000000000000000000000000000000000000000000000000000000000000000000000000000000000000000000000000000000000000000000000000000000000000000000000000000000000000000000000000000000000000000000000000
00000000000000000000000000000000000000000000000000000000000000000000000000000000000000000000000000000000000000000000000000000000000000000000000000000000000000000000000000000000000000000000000000000000
00000000000000000000000000000000000000000000000000000000000000000000000000000000000000000000000000000000000000000000000000000000000000000000000000000000000000000000000000000000000000000000000000000000
00000000000000000000000000000000000000000000000000000000000000000000000000000000000000000000000000000000000000000000000000000000000000000000000000000000000000000000000000000000000000000000000000000000
00000000000000000000000000000000000000000000000000000000000000000000000000000000000000000000000000000000000000000000000000000000000000000000000000000000000000000000000000000000000000000000000000000000
00000000000000000000000000000000000000000000000000000000000000000000011100000000000000000000000000000001110000000000000011100000000000000000000011100000000000000000000000000000000000000000000000000000
00000000000000000000000000000000000000000000000000000000000000000000011100000000000000000000000000000001110000000110000011100000000000000000000011100000000000000000000000000000000000000000000000000000
00000000000000000000000000000000000000000000000000000000000000000000000000000000000000000000000000000000000000000111000000000000000000000000000000000000000000011100000000000000000000000000000000000000
00000000000000000000000000000000000000000000000000000000000000000000000000000000000000000000000000000000000000000000000000000000100000000000000000000000001111111100000000000000000000000000000000000000
00000000000000000000000000000000000000000000000000000000000000000000000000000000000000000000000000000000000000000000000000000011100000000000000000000011111111111110000000000000000000000000000000000000
00000000000000000000000000000000000000000000000000000000000000000001110000000000000001110000000000000000000000000000000000001110000000000000000001000001111111111110000000000000000000000000000000000000
00000000000000000000000000000000000000000000000000000000000000000001110000000000000001110000000000000000000000000000000000011110000000000000000011100000111111111100000000000000000000000000000000000000
00000000000000000000000000000000000000000000000000000000000000000000000000000000000000000000000000000000000000000000000000111100000000000111111111111111000110011100000000000000000000000000000000000000
00000000000000000000000000000001110000000000000000000000000000000000000000000000000000000000000000000000000000000000000011110000000000000111111011111111000010011000000000000000000000000000000000000000
00000000000000000000000000000001110000000000000000000000111000000000000000000000000000000000000000000000000000000000000111100000111000000011111001110000000011111000000000000000000000000000000000000000
00000000000000000000000000000000000000000000000000000111111100000000000111000111111000000000000000000000000000000000001111000000111000000011111110000000000011110000000000000000000000000000000000000000
00000000000000000000000000000000000000000000000001100011111110000000000100011111111111111000000000000000000000000000011100000000011000000011111000000000000111110000000000000000000000000000000000000000
00000000000000000000000000000000000000000000000111110111111000000000000000011111111110111110000000000000000000000000011100111100011111000011110000000000000111110000000000000000000000000000000000000000
00000000000000000000000000000000000000000000011111111111110000000000000000111111111100111110000000000000000000000000111110011100011100011111111100000000001111000000000000000000000000000000000000000000
00000000000000000000000000000000000000000001111111111111001100000000000001111111111001111111000000000000000000001110011111011110001000011001111110000000001110000000000000000000000000000000000000000000
00000000000000000000000000000000000000000001111111111111001000000000000001111111100001111111100000000000000001111110001111111110001000110000011111100000011111000000000000000000000000000000000000000000
00000000000000000000000000000000000000000000011111011111111000000000000001111111100000111111110000000000011111111001110000000000000000000000001111110000011111000000000000000000000000000000000000000000
00000000000000000000000000000000000000000000011110011111110000000000000001111111100000111111111000000001111111111011110000000000000000000000000111111111111100000000000000000000000000000000000000000000
00000000000000000000000000000000000000000111111111111111110000000000000001111111100000111111111000000111111111111111110000000000000000000000000000111111111100000000000000000000000000000000000000000000
00000000000000000000000000000000000000000111110001111111110000000000000000111111100000111111111100011110011000011111110000000111111100000000000000001111111111000000000000000000000000000000000000000000
00000000000000000000000000000000000000000011000001111111100000001100000001111111100000111011111111111100000000001110000000110011111110000000000000000001111111100000000000000000000000000000000000000000
00000000000000000000000000000000011100000000000001111111100000000000000001111111100000011011111111111110000000001110010001111011111110000000000000000000100011111100000000000000000000000000000000000000
00000000000000000000000000000000011100000000000011111111000000000000000011111111100000011111111111111000000000001111110011111111111110000000000000000000000000111111001110000000000000000000000000000000
00000000000000000000000000000000000011100000001111111111000000000000011101111101110000011111111111100000000000001111111111110111111111100000000000000000111100011110001110000000000000000000000000000000
00000000000000000000000000000000000011100000000011111111000000000000011100111101110000011111111110000000110000001111111110000000111111100000000000000000001100111110000000000000000000000000000000000000
00000000000000000000000000000000000000000000000011111110000000000000000000011111110000111111111100000000110000001111011100000000010011100000000000000000001100011111110000111000000000000000000000000000
00000000000000000000000000000000000000000000000111111110000000000000000000011111111001111111111000000000000000001111011100000000000001100000000000000000111100001110111000111000000000000000000000000000
00000000000000000000011100000000000000000000000111111110000000000000000000011111111111111111110000000000000000001111111000000000000011110000000000000000111100000100111100000000000000000000000000000000
00000000000000000000000100000000000000000000000111111100000000000000000000000111111111111111100000000000000000001111111000000000000011110000000000000001111100000001111000000000000000000000000000000000
00000000000000000000000000000000000000000000001111111000000000000000000000000111111111111111110000000000000000001111111000000000000111110000000000000001111100000000000000000000000000000000000000000000
00000000000000000000000000000000000000000000001111111000000000000000000000001111111111111111111000000000000000000111111000000000000111110000001110000001111100000000000000000000000000000000000000000000
00000000000000000000000000000000000011100000011111111000000000000000000000011111111110001111111100000000000000000100111000000000000111110000001110000000001100000000000000000000000000000000000000000000
00000000000000000000000000000000000011000000011111111000000000000000000000111111111100000111111111111100000000000000111000000000000111110000000000000000000100000000000000000000000000000000000000000000
00000000000000000000000000000000000000000000011111111000000000000000000001110111111000001111111111111100000000000011111100000000000111100000000000000001111100000000000000000000000000000000000000000000
00000000000000000000000000000000000000000000001111111000000000000000000011110111110000000111111111110000000000000011111000000000000011100000000000000001111100000000000000000000000000000000000000000000
00000000000000000000000000000000000000000000011111110000000000000000001111111111100000000111111111100000000000000011111100000000000001100000000000000001111100000000000000000000000000000000000000000000
00000000000000000000000000000000000000000000111111110000000000000000011111101111100000000111111111110000000000000001111110000000000011000000000000000000111100000000000000000000000000000000000000000000
00000000000000000000000000000000000000000000111111110000000000000001111111000111100000000011111111110000000000011100111111000000000111000000000000000000111000000000000000000000000000000000000000000000
00000000000000000000000000000000000000000000011111100000000000000111111111100011100000000011111110000000000000011000111111000000011111000000000000000000111000000000000000000000000000000000000000000000
00000000000000000000000000000000000000001100111110000000000000001111111111110111100000000010011110000000000000110000011111110000011110000000000000000000111100000000000000000000000000000000000000000000
00000000000000000000000000000000000000001111111110000000000000111111100111111111100000000010011111111000000000111000001111111000100000000000000000000000111000000000000000000000000000000000000000000000
00000000000000000000000000000000000000001111111111111111000000111111000111111111100000000011111111111000000000000000001111111111100000000000000000000000011000000000000000000000000000000000000000000000
00000000000000000000000000000000000011111111111111111111100001111100001111111111000000000011011111110000000000000000111111111111110000000000000000000000011100000000000000000000000000000000000000000000
00000000000000000000000000000000000111111111011111111111111111111000001111111111000000000111011111110000000000000000111001111111000000000000000000000000011000000000000000000000000000000000000000000000
00000000000000000000000000000000000111111111011111111111111111100000001111111111100011100111111111110000000000000000000000000110000000000000000000000000000000000000000000000000000000000000000000000000
00000000000000000000000000000000000111111111111111111001111111000000000111111111100011100111111111100000000000000000000000000000000000000000000000000000000000000111000000000000000000000000000000000000
00000000000000000000000000000000001111111111111111100000100000000000000111111111110000001111111111000000000000000000000000000000000000000000000000000000000000000111000111000000000000000000000000000000
00000000000000000000001110000000011111111101111111000100000000000000000111111111111000011111111100000000000000000000000000000000000000000000000000000000000000000000000111000000000000000000000000000000
00000000000000000000001110000000011111111101111111001000000000000000000111111111111000111111111000000000000000000000000000000000000000000000000000000000000000000000000000000000000000000000000000000000
00000000000000000000000000000000011111111111111000000000000000000000000011111111111101111111100000000000000000000000000000000000000000000000000000000000000000000000000000000000000000000000000000000000
00000000000000000000000000000000011111110000000000000000000000000000000001111111111111111110000000000000000000000000000000000000000000000000000000000000000000011100000000000000000000000000000000000000
00000000000000000000000000000000000000000000000000000000000000000000000000111111111111000000000000000000000000000000000000000000000000000000000000000000000000011100000000000000000000000000000000000000
00000000000000000000000000000000000000000000000000000000000000000000000000011111110000000000000000000001110000000000000000000000000000000000000000000000000000000000000000000000000000000000000000000000
00000000000000000000000000000000000000000000000000000000000000000000000000000000000000000000000000000000000000000000000000000000000000000000000000000000000000000000000000000000000000000000000000000000
00000000000000000000000000000000000000000000000000000011100000000000000000000000000000000000000000000000000000000000000000000000000000000000000000000000000000000000000000000000000000000000000000000000
00000000000000000000000000000000000000000000000000000011100000000000000000000000000000000000000000000000000000000000000000000000000000000000000000000000000000000000000000000000000000000000000000000000
00000000000000000000000000000000000000000000000000000000000000000000000000000000000000000000000000000000000000000000000000000000000000000000000000000000000000000000000000000000000000000000000000000000
00000000000000000000000000000000000000000000000000000000000000000000000000000000000000000000000000000000000000000000000000000000000000000000000000000000000000000000000000000000000000000000000000000000
00000000000000000000000000000000000000000000000000000000000000000000000000000000000000000000000000000000000000000000000000000000000000000000000000000000000000000000000000000000000000000000000000000000
00000000000000000000000000000000000000000000000000000000000000000000000000000000000000000000000000000000000000000000000000000000000000000000000000000000000000000000000000000000000000000000000000000000
00000000000000000000000000000000000000000000000000000000000000000000000000000000000000000000000000000000000000000000000000000000000000000000000000000000000000000000000000000000000000000000000000000000
00000000000000000000000000000000000000000000000000000000000000000000000000000000000000000000000000000000000000000000000000000000000000000000000000000000000000000000000000000000000000000000000000000000
