P1
200 70
00000000000000000000000000000000000000000000000000000000000000000000000000000000000000000000000000000000000000000000000000000000000000000000000000000000000000000000000000000000000000000000000000000000
00000000000000000000000000000000000000000000000000000000000000000000000000000000000000000000000000000000000000000000000000000000000000000000000000000000000000000000000000000000000000000000000000000000
00000000000000000000000000000000000000000000000000000000000000000000000000000000000000000000000000000000000000000000000000000000000000000000000000000000000000000000000000000000000000000000000000000000
00000000000000000000000000000000000000000000000000000000000000000000000000000000000000000000000000000000000000000000000000000000000000000000000000000000000000000000000000000000000000000000000000000000
00000000000000000000000000000000000000000000000000000000000000000000000000000000000000000000000000000000000000000000000000000000000000000000000000000000000000000000000000000000000000000000000000000000
00000000000000000000000000000000000000000000000000000000000000000000000000000000000000000000000000000000000000000000000000000000000000000000000000000000000000000000000000000000000000000000000000000000
00000000000000000000000000000000000000000000000000000000000000000000000000000000000000000000000000000000000000000000000000000000000000000000000000000000000000000000000000000000000000000000000000000000
00000000000000000000000000000000000000000000000000000000000000000000000000000000000000000000000000000000000000000000000000000000000000000000000000000000000000000000000000000000000000000000000000000000
00000000000000000000000000000000000000000000000000000000000000000000000000000000000001100000000000000000000000000000000000000000000000000000000000000000000000000000000000000000000000000000000000000000
00000000000000000000000000000000000000000000000000000000000000000000000000000000000001100000000000000000000000000000000000000000000000000000000000000000000000000000000000000000000000000000000000000000
00000000000000000000000000000000000000000000000000000000000000000000000000000000000000000000000000000000000000000000000000000000000000000000000000000000000000000000000000000000000000000000000000000000
00000000000000000000000000000000000000000000000000000000000000000000000000000000000000000000000000000000000000000000000000000001110000000000000000000000000000000000000000000000000000000000000000000000
00000000000000000000000000000000000000000011110001000000000000000000000000000000000000000000000000000000000000000000000000000001110000000000000000000000001110000000000000000000000000000000000000000000
00000000000000000000000000111000000000001111111111111000000000000000000000000000000000000000000000000000000000000000000000000000000000000000000000000000001111110000000000000000000000000000000000000000
00000000000000000000000000111000000000011111111111111111100000000000000000000001100000000000000000000000000000000000000000000000000000000000000000000000000001110000000000000000000000000000000000000000
00000000000000000000000000000000000000111111111111111111100000000000000000110011111100001110000000000000000000000000000000000000000000011000110000000000000000000000000000000000000000000000000000000000
00000000000000000000000000000000000000111111110111111111100000000000000000111111111110111111110000000000000000000000000001111000111111111111111100000000000000000000000000000000000000000000000000000000
00000000000000000000000000000000000000111111110011111111100000000000001001111111111111111111111110000000000000001110000011111101111111111111111100000000000000000000000000000000000000000000000000000000
00000000000000000000000000011100001001111111111001111111100000000000111111111111111111111111111111100000000000001110000011111111111111111111111100000000000000000000000000000000000000000000000000000000
00000000000000000000000000011100001111111111111101111111100000000000111111111111111111111111111111110000000000000000000001110000000000000001111100000000000000001110000000000000000000000000000000000000
00000000000000000000000000000000011111111111111111111111000000000000111111111111111111111111111001111000000000000000000000000000000000000001111000000000000000001100000111111100000000000000000000000000
00000000000000000000000000000000011111111111011111111111000000000000111111111111111111111111111001111100000000000000000000000000000000000011110000000000000000000000011111111100000000000000000000000000
00000000000000000000000000000000000011111111011111111110000000000001111111111111101111111111111111111110001100000000000000000000000000000000000000000000000000000111111111111110000000000000000000000000
00000000000000000000000000000000000000011111111111111111001111111111111111111111101111111111111111111110001100000000000000000000000000000100000000000000000000011111011111111111000000000000000000000000
00000000000000000000000000000000000000000000111101111111111111111111111110111111111111111111111111111111000000000000000000000000000000001110000000000000000000111111011111111111100000000000000000000000
00000000000000000000000000000000000000000000011101111111111111111111111110111111111111111111111111111111111000000000000000000000000000001111000000000000000001111111111101111111100000000000000000000000
00000000000000000000111000000000000000000000111111111110000011111111111111111111111111111111111111111111111111111110000000000000000000011110000000000011100011111111000000111110000000000000000000000000
00000000000000000000111000000000000000000000111111111100000000000000111111111011110000111111111111101111111111111111110000000000000000011100000000000011100010011110000000111110000000000000000000000000
00000000000000000000000000000000000000000000110111111000000000000000001111111011110000000000111111101111111111111111111111000000000000111000000000000000000000011110000001111111000000000000000000000000
00000000000000000000000000000000000000000001110111111000000000000000001110111111110000000000011111111111100000000111111111111000000001110000000000000000001000111110000001111111000000000000000000000000
00000000000000000000000000000000000000000001111111110000000000000000000110111111110000000000011111111111100000000000011111110011000011100000000000000000001111111100000011110111000000000000000000000000
00000000000000000000000000000000000000000001111111110000000000000000000111111111100000000000001111111111100000000000000011100111110111100000011100000000001111111100000011100111000000000000000000000000
00000000000000000000000000000000000000000001111111111000000000000000000011111111110000000000001111111111000000000000000000011111111111100000011100000000011111111000000000011111000000000000000000000000
00000000000000000000000000000000000000000011111111111000000000000000000000111111111111000001111111111111000000000000000000000011111111110000000000000000011111110000000100111111000000000000000000000000
00000000000000000000000000000000111000000011111111111000000000000000000000011111111111100111111111111110011110000000000000000000111111111000000000000000011111110000001111111100000000000000000000000000
00000000000000000000000000000000111000000011111111111000000000000000000000011111111111111111111111111100011110000000000011100000011111111111000000000000011111111000001111111000000000000000000000000000
00000000000000000000000000000000000000000111111111110000000000000000000000001111111111111111111111111000000001110000000011100000011111111111110000000000011111111100011110010000000000000000000000000000
00000000000000000000000000000000000000001111111111110000000000000000000000000111101111111111111111111000000001110000011100000000000110011111100000000000001111111110001100000000000000000000000000000000
00000000000000000000000000000000000000001111111111110000000000000000000000000111000111111111111111100000000000000000011100000001000000000011110011000000011111111111011110000000000000000000000000000000
00000000000000000000000000000000000000011111111111110000000000000000000000001111000111111111111111000000000000000000000000011111111000000000111111110001111111111111111110000000000000000000000000000000
00000000000000000000000000000000000000011111111111100000000000000000000000011111101111111111111111100000000000000000000000011111110000000000001100011111111111111111111111000000000000000000000000000000
00000000000000000000000000000000000000001111111111100000000000000000000000111111111111111111111111111000000000000000000000000001110000000000000000001111111110000011111111000000000000000000000000000000
00000000000000000000000000000000000000011111111111100000000000000000000000111111111111111111111111111100000000000000000000001000100000000000000000011111111100000001111111100000000000000000000000000000
00000000000000000000000000000000000000011101111111000000000000000000000001111111111111000111111111111110000000000000000000001111000000000000000001111111111000000000111111100000000000000000000000000000
00000000000000000000000000000000000000111101111111000000000000000000000001111111111110000000111111111110000000000000000000011110000000000000000011111111111100000001111111100000000000000000000000000000
00000000000000000000000000000000000000111111111111000000000000000000000001111111111110000000011111111110000000000000000000111110000000000000000011111111111110000001111111100000000000000000000000000000
00000000000000000000000000000000000001111111111111000000000000000000000001111111111100000000001111111100000000000000000001111100000000000000000011111111111111000001111111100000000000000000000000000000
00000000000000000000000000000000000001111111111110000000000000000000000001111111111100000000001111111100000000000000000001111000000000000000000011111111111111110001111111100000000000000000000000000000
00000000000000000000000000000000000011111111111110000000000000000000000001111111111100000000001111111111000000000000000011111000000000000000001111111111000111111001111111000000000000000000000000000000
00000000000000000000000000000000000111111111111111111100000000000000000001111111111100000000001111111111000000000000000011111110000000000000001111111110000000011101111111000000000000000000000000000000
00000000000000000000000000011111111111111111111111111111110000000000000000111111111100000000001111111111000000000000000111111000000000000000001111111100000000001111111111000000000000000000000000000000
00000000000000000000000001111111111111111111111111111111111000011000000000111111011100000000000111111110000000000000001111100000000000000000001111111000000000000111111110000000000000000000000000000000
00000000000000000000000011111111111111111111111111111111110000011000000000111111011110000000000111111111000000000000011111100000000000111000001111111100000000000011101110000000000000000000000000000000
00000000000000000000000011111111111111110111111111111111110000000000000000111111111110000000000011111111100000000000111111110000000000111000000111111110000000110011101100000000000000000000000000000000
00000000000000000000000011011111111111110111111111111111110000000000000000011111111111000000000011111111100000000000111111110000000000000000000011111111000001111111111100000000000000000000000000000000
00000000000000000000000111011111111111111111111111111111110000000000000000001111111111100000011111111111100000000000011111110000000000000000000001111111111111111111111000000000000000000000000000000000
00000000000000000000000111111111111111111111111111111111100000000000000000001111111111111000111110011111000000000000001001110000000000000000000000111111111111111111110000000000000000000000000000000000
00000000000000000000001111111111111111111111111111111011000000000000000000000111000011111111111000011111000000000010000000000000000000000000000000000000111000111111000000000000000000000000000000000000
00000000000000000000011111111111111111111100111000000000000000000000000000001111000011111111110000111110000000000010000000000000000000000000000000000000000000000000000000000111000000000000000000000000
00000000000000000000011111111111100000000000000000000000000000000000000000011111111111111111110011111110000000000000000000000000000000000000000000000000000000000000000000000011000000000000000000000000
00000000000000000000011100000000000000000000000000000000000000000000000000011001111111111111111111111100000000000000000000000000000000000000000000000000000000000000000000000000000000000000000000000000
00000000000000000000000000000000000000000000000000000000000000000000000000000000111111111111110011111100000000000000000000000000000000000000000000000000000000000000000000000000000000000000000000000000
00000000000000000000000000000000000000000000000000000000000000000000000000000000011111111111100001111000000000000000000000000000000000000000000000000000000000000000000000000000000000000000000000000000
00000000000000000000000000000000000000000000000000000000000000000000000000000000001111111111110001110000000000000000000000000000000000000000000000000000000000000000000000000000000000000000000000000000
00000000000000000000000000000000000000000000000000000000000000000000000000000000000111111111111111000000000000000000000000000000000000000000000000000000000000000000000000000000000000000000000000000000
00000000000000000000000000000000000000000000000000000000000000000000000000000000000000000001111100000000000000000000000000000000000000000000000000000000000000000000000000000000000000000000000000000000
00000000000000000000000000000000000000000000000000000000000000000000000000000000000000000000000000000000000000000000000000000000000000000000000000000000000000000000000000000000000000000000000000000000
00000000000000000000000000000000000000000000000000000000000000000000000000000000000000000000000000000000000000000000000000000000000000000000000000000000000000000000000000000000000000000000000000000000
00000000000000000000000000000000000000000000000000000000000000000000000000000000000000000000000000000000000000000000000000000000000000000000000000000000000000000000000000000000000000000000000000000000
00000000000000000000000000000000000000000000000000000000000000000000000000000000000000000000000000000000000000000000000000000000000000000000000000000000000000000000000000000000000000000000000000000000
