P1
200 70
00000000000000000000000000000000000000000000000000000000000000000000000000000000000000000000000000000000000000000000000000000000000000000000000000000000000000000000000000000000000000000000000000000000
00000000000000000000000000000000000000000000000000000000000000000000000000000000000000000000000000000000000000000000000000000000000000000000000000000000000000000000000000000000000000000000000000000000
00000000000000000000000000000000000000000000000000000000000000000000000000000000000000000000000000000000000000000000000000000000000000000000000000000000000000000000000000000000000000000000000000000000
00000000000000000000000000000000000000000000000000000000000000000000000000000000000000000000000000000000000000000000000000000000000000000000000000000000000000000000000000000000000000000000000000000000
00000000000000000000000000000000000000000000000000000000000000000000000000000000000000000000000000000000000000000000000000000000000000000000000000000000000000000000000000000000000000000000000000000000
00000000000000000000000000000000000000000000000000000000000000000000000000000000000000000000000000000000000000000000000000000000000000000000000000000000000000000000000000000000000000000000000000000000
00000000000000000000000000000000000000000000000000000000000000000000000000000000000000000000000000000000000000000000000000000000000000000000000000000000000000000000000000000000000000000000000000000000
00000000000000000000000000000000000000000000000011100000000000000000000000000000000000000000000000000000000000000000000000000000000000000000000000000000000000000000000000000000000000000000000000000000
00000000000000000000000000000000000000000000000011100000001110000000000000000000000000000000000000000000000000001100000001110000000000000000000000000000000000000000000000000000000000000000000000000000
00000000000000000000000000000000000000000000000000000000001110000000000000000000000000000000000111000000000000111111100001110000000000000000000000000000001000000000000000000000000000000000000000000000
00000000000000000000000000000000000000000000000000000000000000000000000000000000000000000000000111000000000011111111110011100000000000000000000000000000011000000000000000000000000000000000000000000000
00000000000000000000000000000000000000000001110000000000000000000000000000000000000000000000000000000000000111111111111111000000000000000000000000000000000001110000000000000000000000000000000000000000
00000000000000000000000000000000000011100001110000000000000000000000000000000000000000000000000000000000000011111111111111000000000000000000000000000000000001110000000000000000000000000000000000000000
00000000000000000000000000000000000011100000000000000000000000000000000000000000000000000000000000000000100111111111110111000000000000000000000000000000000000000000000000000011100000000000000000000000
00000000000000000000000001100000000000000000000000000000000000000000000000000000000000000000000000000011111111111111110111000000000000000000000000000011100000000000000100000011100000000000000000000000
00000000000000000000000001110000000000000000000000000000000000000000000000011111000000000000000000000011111111111111111111100000000000000000000000000011100000000000000000000000000000000000000000000000
00000000000000000000000000000000000000000000111000000000100000000000000000111111111000000000000000000011111111111111111111100000000000000000000000000000000000000000000000000000000000000000000000000000
00000000000000000000000000000000000000000001111100000000100000000011101111111111111100000000000000000001111110011111111111100000000000000000000000000000000000000000000000000000000000000000000000000000
00000000000000000000000000000000000000000011111111100000001110000011111111111111111110000000000000000001111000011111111111100000011100000000000000000000000000000000000000000000000000000000000000000000
00000000000000000000000000000000000000000111111110000000001110000000111111111111111111000000000000000001100000011111111011000000011100000000000000000111111110000000000000000000000000000000000000000000
00000000000000000000000000000000000011111111111110000000000000000000111111111111111111000000000000000000000000000111111011000000000000000000000000011111111111100000000000000000000000000000000000000000
00000000000000000000000000000000000111111111111111100000000000000001111111000011111111000000000000000000000000000111111111000000000000000000000000111001111111111100000000000000000000000000000000000000
00000000000000000000011100000000000111111111111111100000000000000001111110000011111111100000000000000000000000011111111111000000000000000000000001111001111111111110000000000000000000000000000000000000
00000000000000000000011100000000001111111111111111000000000000000011111100000000011111111000001110000000000000011111111111000000000000000000000111111111111111111111100000000000000000000000000000000000
00000000000000000000000000000000001111111111111111000000000000000111111000000000001111111000001110000000000111011111111111100000000000000000001111111100000001111111110000000000000000000000000000000000
00000000000000000000000000000000001111111111111111100000000000000111111000000000000111111100000000000001110111011111111111100000000000000000011111000000000000011111110000000000000000000000000000000000
00000000000000000000000000000000001111111111111111100000000000001111111000000000000111111100000000000001000000011111111111100000000000000000111110000000000000000111100000000000000000000000000000000000
00000000000000000000000000000000001111111001111111100000000000001111111000000000000111111100000000000000000000011111111111100000000000000000111111000000000000000001000000000000000000000000000000000000
00000000000000000000000000000000000111110000111111100000000000001111110000000000000111111110000000000000000000011111111111100000000000000001111111000000000000000000000000000000000000000000000000000000
00000000000000000000000000000000000000000001111111110000000000001111110000000000000011111110000000000000000000001111111111100000000000000001111110000000000000000000000000000000000000000000000000000000
00000000000000000000000000000000000000000000111111110000000000001111110000000000000001111110000000000000000000001111111111100000000000000011111110000000000000000000000000000000000000000000000000000000
00000000000000000000000000000000000000000001111111100000000000001111110000000000000001111110000000000000000000001111111111100000000000000011111110011111100000000000000000000000000000000000000000000000
00000000000000000000000000000000000000000001111111100000000000001111110000000000000011111111000000000000000000001111111011100000000000000111111111111111110000000000000000000000000000000000000000000000
00000000000000000000000000000000000000000001111111100000000000001111110000000000000011111111100000000000000000001111110001100000000000001111111111111111111110000000000000000000000000000000000000000000
00000000000000000000000000000000000000000001101111100000000000000111111000000000000011111111100000000000000111001111111011100000000000001111111111111111111111100000000000000000000000000000000000000000
00000000000000000000000000000000000000000001000111100000000000000111111000000000000111111111100000000000000111001111111111100000000000001111111111111111111111110000000000000000000000000000000000000000
00000000000000000000000000000000000000000001001111100000000000000111111000000000000111111111100000000000000000001111111111100000000000001111111111100000111011111000000000000111000000000000000000000000
00000000000000000000000000000000000000000000111111100000000000000111111000000000001111111111110000000000000000001111111111100000000000001111111110000000000011111000000000000111000000000000000000000000
00000000000000000000000000000000000000000001111111100000000000000111011100000000111111111111110000000000000000001111111111100000000000011111111000000000000111111000000000000000000000000000000000000000
00000000000000000000000000000000000000000001111111100000000000000111011111000000111111011111110000000000000000001111111111100000000000000011111000000000000111111000000000000000000000000000000000000000
00000000000000000000000000000000000000000001111111100000000000000111111111111111001111000111110000000000000000001111111001100000000000100011110000000000000111111000000000000000000000000000000000000000
00000000000000000000000000000000000000000001111111100000000000000011111111111111100110000111110011100000000000001111110000100000000000111111110000000000000111100000000000000000000000000000000000000000
00000000000000000000000000000000000000000001111111100000000000000000111111111111111000001111110011100000000000001111111001100000000000111111100000010000000011100000000000000000000000000000000000000000
00000000000000000000000000000000000000000000111111100000000000000000011111101111110000001111111011111111111111111111111111110000000000111111100000110000000011110000000000000000000000000000000000000000
00000000000000000000000000000000000000000000111111100000000000000000111111100111110000000111111111111111111111111111111111111000000000111111100000000000000111111000000000000000000000000000000000000000
00000000000000000000111000000000000000000000011111100000000000000000011111111000111000000111111111111111111111111111111111111111000000111111000000000000000111111000000000000000000000000000000000000000
00000000000000000000111000000000000000000000111111100000000000000000000001100000111001111111111111000111111111100111111111111111111001111111000000000010001111110000000000000000000000000000000000000000
00000000000000000000000000000000000000000001111111100000000000000000000000000000111000111111111000000000000000000011101111111111111111111111000000001110011111110000000000000000011100000000000000000000
00000000000000000000000000000000000000000001111110000000000000000000000000000001111100011111110000000000000000000111101111110011111111111111000000000000111111100000000000000000011100000000000000000000
00000000000000000000000000000000000000000001111110010000000000000000000000001111111110001111110000000000000000000111111111100000001111100111110000000000111111100000000000000000000000000000000000000000
00000000000000000000000000000000000000000001111111100000000000000000000011111111111100011111100000000000000000000111111111100000000000000111110000000000001110000000000000000000000000000000000000000000
00000000000000000000000000000000000001111111111111100000000000000000011111111111100000111111000000000000000000000111111111100000000000011111110001110011101100000000000000000000000000000000000000000000
00000000000000000000011100000000011111111111111111110000000000000111111111111000000001111111000000000000000000000111111111111100000001111111110001111111111100000000000000000000000000000000000000000000
00000000000000000000011100000000001111111111111111001111000000010001111111100000000001111110000000000000000000000111111111111111110001111111100100111111111100000000000000000000000000000000000000000000
00000000000000000000000000000000000011111111111111011111111111110000111111100000000011111100000000000000000011100011111111111111111001111111100000111111111100000000000000000000000000000000000000000000
00000000000000000000000000000000000011111111111111111111111111111000000011110001111111111100000000000000000111110011101111111111111001111111110001111011111110011100000001000000000000000000000000000000
00000000000000000000000000000000011111111111110111111111111111000000000111111111111111111000000000000000000111001111101111111111100000111111111011111000111111111111100001000000000000000000000000000000
00000000000000000000000000000000011111111111110111111111111110000000011111111111111111110000000000000000000111011111111111110000000000111111111111111000000001111111111100000000000000000000000000000000
00000000000000000000000000000000000011111111111111111111111100000000011111111111111100000000000011100000000111111111111100000000000000011111111100000000000000001111111100000000000000000000000000000000
00000000000000000000000000111000000000011111111000111111111100000000001111111111111000000000000011100000000111100000000000000000000000000111100000000000000000000001111000000000000000000000000000000000
00000000000000000000000000111000000000000000000000000000111100000000000111111111110000000000000000000000000000000000000000000000000000000000000000000000000000000000111000000000000000000000000000000000
00000000000000000000000000000000000000000000000000000000000000000000000001111010000000000000000000000000000000000000000000000000000000000000000000000000000000000000000000000000000000000000000000000000
00000000000000000000000000000000000000000000000000000000000000000000000000000000000000000000000000000000000000000000000000000000000000000000000000000000000000000000000000000000000000000000000000000000
00000000000000000000000000000000000000000000000000000000000000000000000000000000000000000000000000000000000000000000000000000000000000000000000000000000000000000000000000000000000000000000000000000000
00000000000000000000000000000000000000000000000000000000000000000000000000000000000000000000000000000000000000000000000000000000000000000000000000000000000000000000000000000000000000000000000000000000
00000000000000000000000000000000000000000000000000000000000000000000000000000000000000000000000000000000000000000000000000000000000000000000000000000000000000000000000000000000000000000000000000000000
00000000000000000000000000000000000000000000000000000000000000000000000000000000000000000000000000000000000000000000000000000000000000000000000000000000000000000000000000000000000000000000000000000000
00000000000000000000000000000000000000000000000000000000000000000000000000000000000000000000000000000000000000000000000000000000000000000000000000000000000000000000000000000000000000000000000000000000
00000000000000000000000000000000000000000000000000000000000000000000000000000000000000000000000000000000000000000000000000000000000000000000000000000000000000000000000000000000000000000000000000000000
00000000000000000000000000000000000000000000000000000000000000000000000000000000000000000000000000000000000000000000000000000000000000000000000000000000000000000000000000000000000000000000000000000000
