P1
200 70
00000000000000000000000000000000000000000000000000000000000000000000000000000000000000000000000000000000000000000000000000000000000000000000000000000000000000000000000000000000000000000000000000000000
00000000000000000000000000000000000000000000000000000000000000000000000000000000000000000000000000000000000000000000000000000000000000000000000000000000000000000000000000000000000000000000000000000000
00000000000000000000000000000000000000000000000000000000000000000000000000000000000000000000000000000000000000000000000000000000000000000000000000000000000000000000000000000000000000000000000000000000
00000000000000000000000000000000000000000000000000000000000000000000000000000000000000000000000000000000000000000000000000000000000000000000000000000000000000000000000000000000000000000000000000000000
00000000000000000000000000000000000000000000000000000000000000000000000000000000000000000000000000000000000000000000000000000000000000000000000000000000000000000000000000000000000000000000000000000000
00000000000000000000000000000000000000000000000000000000000000000000000000000000000000000000000000000000000000000000000000000000000000000000000000000000000000000000000000000000000000000000000000000000
00000000000000000000000000000000000000000000000000000000000000000000000000000000000000000000000000000000000000000000000000000000000000000000000000000000000000000000000000000000000000000000000000000000
00000000000000000000000000000000000000000000000000000000000000000000000000000111000000000000000000000000000000000000000000000000000000000000000000000000000000000000000000000000000000000000000000000000
00000000000000000000000000000000000000000000000000000000000000000000000000000111000000000000000000000000000000000000000000000000000000000000000000000000000000000000000000000000000000000000000000000000
00000000000000000000000000000000000000000000000000000000011111110000000000000011000000000000000000000000000000000000000000000000000000000000000000000000000000000000000000000000000000000000000000000000
00000000000000000000000000000000000000000000000000000000000111110000000000000011100000000000000000000000111000000000000000000000000000000000000000000000000000000000000000000000000000000000000000000000
00000000000000000000000000000000000000000000000000000011000111110000000000000011100000000000000000000000111000000000000000000000000000000000000000000000000000000000000000000000000000000000000000000000
00000000000000000000000000000000000000000000000000001111111111110000000000000000000000000000000000000000000000100000000000000000000000000000000000000000000000000000000000000000000000000000000000000000
00000000000000000000000000000000000000000000000000111110111111110111000000000000001110000000000000000000000000111000000000000000000000000000000000000000000000000000000000000000000000000000000000000000
00000000000000000000000000000000000000000000000001111110111111110111000000000110001111111100000000000000000000000000000000000000000000000000000000000000000000000000000000000000000000000000000000000000
00000000000000000000000000000000001110000000000011111111111111110000000000011111011111111110000000000000000000000000000000000000000000000000000000000000000000000000000000000000000000000000000000000000
00000000000000000000000000001110001110000000000010011111111111100000000000111111111111111111000000000000000000000000011100000000000000000000000000111000011100000000000000000000000000000000000000000000
00000000000000000000000000001110000000000000000010001110111111100000000011111111111111111111000000000000000000000000011111111000000000000000111000111000011100000000000000000000000000000000000000000000
00000000000000000000000000000000000000000000000011100000011111100000000011111111111111111110000000000000000000000000011111111100000000000000111101111000000000000000000000000000000000000000000000000000
00000000000000000000000000000000000000000000000000000000011111100000000111111111111111111111000000000000000000001100111111111100000000000000111111111110000000000000000000000000000000000000000000000000
00000000000000000000000000000000000000000000000000000000011111100000000111111111111111111111100000000000000000011111111111111110000000000001111111111111111100000000010000000000000000000000000000000000
00000000000000000000000000000000000000000000000000000000111111100000001111111111100001111111110000000000000000011111111111111110000000000011111111111111111110000000111000000000001110000000000000000000
00000000000000000000000000000000000000000000000000000000111111100000001111111111000000111111111000000000000000001111000100111110000000000111111111111111111111111111111100000000001110000000000000000000
00000000000000000000000000000000000000000000000000000000100111100000001111111111000000111111111000000000000000001110000000111110000000000111111111111111111111111111111000000000000000000000000000000000
00000000000000000000000000000000000000000000000000000000100011100000001111111110000000111111111100000000000000111110000011111110000000000111111111110000011111111111110000000000000000000000000000000000
00000000000000000000000000000000000000000000000000000000100111100000001111111100000000111111111100000001110000111110000011111110000000001111111000110000000000111111100000000000000000000000000000000000
00000000000000000000000000000000000000000000000000000000011111100000001111110000000000111111111100000001110000111000000001111111000000011111111000000000000000111111000000000000000000000000000000000000
00000000000000000000000000000000000000000000000000000000011111000000001111100000000000011111111100000000000000111000000001111111000000011111110000000000000000111110000000000000000000000000000000000000
00000000000000000000000000000000000000000000000000000000111111000000001110011100000000001111111110000000000001111000000001111111000000111111100000000000000001111100000000000000000000000000000000000000
00000000000000000000000000000000000000000000000000000000111111000000001110111100000000001111111110000000000001111000000001111110011100111111100000000000000011111100000000000000000000000000000000000000
00000000000000000000000000000000000000000000000000001111111111000000001111111110000000001111111110000000000001110000000001111111011000111111000000000000001111111000000000000000000000000000000000000000
00000000000000000000000000000000000000000000000000001111111111000000001111111110000000001111111110000000000001110000000011111110000000111111000000000000011111110000000000000000000000000000000000000000
00000000000000000000000000000000000000000000000000000001111111000000000111111111000000001111110110000000000000000011100011111110000001111011000100011111111111000000000000000000000000000000000000000000
00000000000000000000000000000000000000000000000000000001111111000000000111111111000000011111110110000000000000000011100000011111000000111001011110111111111110000000000000000000000000000000000000000000
00000000000000000000000000000000000000000000000000000001111111000000000111110110000000011111111110000000000000000000000000000010000000011111111111111111111000000000000000000000000000000000000000000000
00000000000000000000000000000000000000000000000000000011111110000000000011110110000100001111111111000000000000000000001111100000000000111111111111111111111011100000000000000000000000000000000000000000
00000000000000000000000000000011100000000000000000000011111110000000000011111111001110011111111111000000000000000001111110000000000000111111111111111111111111111000000000000000000000000000000000000000
00000000000000000000000000000011100000000000000000000011111110000000000001111111111111111111111111000000000000000011111110110000000000111111111111111111111111111000000000000000000000000000000000000000
00000000000000000000000000000000000000000000000000000001111110000000000001111111111111111111111111000000000000000111111111111000000000111111111111111110001111111000000000000000000000000000000000000000
00000000000000000000000000000000000000000000000000000001111110000000000000100001111111111111111111000000000000000111111111111111000000111111111111111000000111111100000000000000000000000000000000000000
00000000000000000000000000000000000000000000000000000011111100000000000000000001111111110011111111000000000000000111111111111110000000111111111111110000000001111110000000000000000000000000000000000000
00000000000000000000000000000000000000000000000000000111111100000000000000000011111111100001111111000000000000000111111111111111000000111111111111000000000000111110000000000000000000000000000000000000
00000000000000000000000000000000000000000000001110000111111100000000000000000011111111000000000111000000000000000010000001111111110001111111111110000000000001110000000000000000000000000000000000000000
00000000000000000000000000000000000000000000000000000111111100000000000000000000110000000000000111000000000000000000000000111111111011111000111000000000000001100000000000000000000000000000000000000000
00000000000000000000000000000000000000000000000000000000111100000000000000000000000000000011111111000000000000000000000000111111111111100000010000000000000011000000000000000000000000000000000000000000
00000000000000000000000000000000000000000000000000000100111000000000000000000000000000000011111110000000000000000000000000111111111111100111000000000000000011100100000000000000000000000000000000000000
00000000000000000000000000000000000000000000000000000111111000000000000000000000000000000011111110000000000000000000000000011111111111111111000000000000000011111100000000000000000000000000000000000000
00000000000000000000000000000000000000000000000000001111111100000000000000000000000000000011111110000000000000000111000000011111111111111110000000000000000111111100000000000000000000000000000000000000
00000000000000000000000000000000000000000000000000001111111100000000000000000000000000000011111111000000000000000111000000111111111110111100000000000000000111111100000000000000000000000000000000000000
00000000000000000000000000000000000000000000000000011111111000000000000000000111111000000011111111000000000000000000000111111111111100011001100000000000000111111100000001100000000000000000000000000000
00000000000000000000000000000000000000001111111111111111111000000000000000011111111100000111111110000000000000000000111111111111111100011011100000001110001111111000000001110000000000000000000000000000
00000000000000000000000000000000011111111111111111111111111001111111111111111111111111111111111000000000000000001111111111111111111000011111100000001110001111111000000000000000000000000000000000000000
00000000000000000000000000011000011111111111111111111111111111111111111111111111111111111111111000111000111111111111111111111100110000011111110000000000011111110000000000000000000000000000000000000000
00000000000000000000000000011100011111111111111111111111111111111111111111111111111111111111111111111000111111101111100000011000010000001111111000000000111111100000000000000000000000000000000000000000
00000000000000000000000000000000010000001111111111111111111111111111110011111111111111111111111111111101111111000100000000111000110000001111111000000001111111000000000000000000000000000000000000000000
00000000000000000000000000000000000000000111111111111111111111111111000001110011111111111111111111111111111100000000000001111100000000001111111100000111111110000000000000000000000000000000000000000000
00000000000000000000000000000000000000001111111111111111111111111111000000000001111111111111110000000011111100000000000001111110000000000111111111111111111100000000000011100000000000000000000000000000
00000000000000000000000000000000000000001111111111111001111111111111000000000000111111111111000000000011111110000000110000111110000000000000111110011111111000000000000011100000000000000000000000000000
00000000000000000000000000000000000000000000001111110000111111111111000000000000000000001100000000000011111111111111111100111100000000000000011100011111000000000000000000000000000000000000000000000000
00000000000000000000000000000000000000000000000000110000011111111111000000000000000000000000000000000011111111111111111111111000000000000000111000111110000000000000000000000000000000000000000000000000
00000000000000000000000000000000000000000000000000000000011111111111000000000000000000000000000000000011111111111111111111000000000000000000011000100000000000000000000000111000111000000000000000000000
00000000000000000000000000000000000000000011100000000000000000001110000000000000000000000000011100000011111111111100000000000000000000001110000000000000000000000000000000111000111000000000000000000000
00000000000000000000000000000000000000000011100000000000000000000000000000000000000000000000011100000001000000000000000000000000000000001110000000000000000000000000000000000000000000000000000000000000
00000000000000000000000000000000000000000000000000000000000000000000000000000000000000000000000000000000000000000000000000000000000000000000000000000000000000000000000000000000000000000000000000000000
00000000000000000000000000000000000000000000000000000000000000000000000000000000000000000000000000000000000000000000000000000000000000000000000000000000000000000000000000000000000000000000000000000000
00000000000000000000000000000000000000000000000000000000000000000000000000000000000000000000000000000000000000000000000000000000000000000000000000000000000000000000000000000000000000000000000000000000
00000000000000000000000000000000000000000000000000000000000000000000000000000000000000000000000000000000000000000000000000000000000000000000000000000000000000000000000000000000000000000000000000000000
00000000000000000000000000000000000000000000000000000000000000000000000000000000000000000000000000000000000000000000000000000000000000000000000000000000000000000000000000000000000000000000000000000000
00000000000000000000000000000000000000000000000000000000000000000000000000000000000000000000000000000000000000000000000000000000000000000000000000000000000000000000000000000000000000000000000000000000
00000000000000000000000000000000000000000000000000000000000000000000000000000000000000000000000000000000000000000000000000000000000000000000000000000000000000000000000000000000000000000000000000000000
