P1
200 70
00000000000000000000000000000000000000000000000000000000000000000000000000000000000000000000000000000000000000000000000000000000000000000000000000000000000000000000000000000000000000000000000000000000
00000000000000000000000000000000000000000000000000000000000000000000000000000000000000000000000000000000000000000000000000000000000000000000000000000000000000000000000000000000000000000000000000000000
00000000000000000000000000000000000000000000000000000000000000000000000000000000000000000000000000000000000000000000000000000000000000000000000000000000000000000000000000000000000000000000000000000000
00000000000000000000000000000000000000000000000000000000000000000000000000000000000000000000000000000000000000000000000000000000000000000000000000000000000000000000000000000000000000000000000000000000
00000000000000000000000000000000000000000000000000000000000000000000000000000000000000000000000000000000000000000000000000000000000000000000000000000000000000000000000000000000000000000000000000000000
00000000000000000000000000000000000000000000000000000000000000000000000000000000000000000000000000000000000000000000000000000000000000000000000000000000000000000000000000000000000000000000000000000000
00000000000000000000000000000000000000000000000000000000000000000000000000000000000000000000000000000000000000000000000000000000000000000000000000000000000000000000000000000000000000000000000000000000
00000000000000000000000000000000000000000000000000000000000000000000000000000000000000000000000000000000000000000000000000000000000000000000000000000000000000000000000000000000000000000000000000000000
00000000000000000000000000000000000000000000000000000000000000000000000000000000000000000000000000000000000000000000000000000000000000000011100000000000000000000000000000000000000000000000000000000000
00000000000000000000000000000000000000000000000000000000000000000000000000000000000000000000000000000000000000000000000001110000000000000011100000000000000000000000000000000000000000000000000000000000
00000000000000000000000000000000000000000000000000000000000000000000000011100000000000000000000000000000000000000000000001110000000000000000000000000000000000000000000000000000000000000000000000000000
00000000000000000000000000000000000000000000000000001100000000000000000001100000000000000111000000000000000000000000000000000000000000000000000000000000000000000000000000000000000000000000000000000000
00000000000000000000000000000000000000000000000000011111111100000000000000000000000000000111000000000000000000000000000111100000000000000000000000000000000000000000000000000000000000000000000000000000
00000000000000000000000000000000000000000000000000011111111111100000000000000000000000000000000000000000000000000000000111110000000000000000000000000000000000000000000000000000000000000000000000000000
00000000000000000000000000000000000000000000000001111111111111111000000000000000000000000000000000000000000000000000001001111111111000000000000000000000000000000000000000000000000000000000000000000000
00000000000000000000000000000000000000000000001111111100111111111100000000000000000000000000000000000000000000000000001101111111111110000000000000000000000000000000000000000000000000000000000000000000
00000000000000000000000000000000000000111111111111111100001111111110010000000000000000000000000000000000000000000000011111111111111111000110000000000000000000000000000000000000001110000000000000000000
00000000000000000000000000000000000111111111111011111111001111111111111100000000000000000000000000000000000000000000011111111111111111101110000000000000000000000000000000110000001110000000000000000000
00000000000000000000000000000000111111111111110001111111111111111111111111100000000000000000000010000000000000000000011111111111111111111110000000000000000000000000000000110000000000000000000000000000
00000000000000000000000000000000111111110000000000000000001111111111111111110010000000000100011111000000000000000000011111111111111111111110000000111100000000000000000000000000000000000000000000000000
00000000000000000000000000000000011111000000000000000000001111111000001111111111111110011100001111111000000000000000011111111111111111111100000000011111111000000000000000000000000000000000000000000000
00000000000000000000000000000000011110000000000000000000001110011000000001111111111111111110001111111100000000000000111100010001111111111100000000111111111111001000000000000000000000000000000000000000
00000000000000000000000000001100000000000000000000000000001100000000000000000000111111111111111111111100000000000000111100000000000111111000000001111111111111111111000000000000000000000000000000000000
00000000000000000000000000001100000000000000000000000000011110000000000000000000011111111111111111111110000000000000111100000000000011110000000001111111111111111111000000000000000000000000000000000000
00000000000000000000000000000000000000000000000000000000111111110000000000000000011111111111111011111110000000000000111100000000000000000000000001111111111111111110000000001110000000000000000000000000
00000000000000000000000000000000000000000000000000000000111111110000000000000000011111100000010001111001100000000000111111100000000000000000000011111111111111111100000000001110000000000000000000000000
00000000000000000000000000000000000000000000000000000000111111110000000000000001111111000000000001110001111100000001111111111100000000000000000111100000000000011000000000000000000000000000000000000000
00000000000000000000000000000000000000000000000000000000111111110000000000000001111110000000000001100011111111100001111111111110000000000000000111100000000000000000000000000000000000000000000000000000
00000000000000000000000000000000000000000000000000000000011111110000000000000011111100000000000000110111101111111111111111111111100000000000000111100000000000000000000000000000000000000000000000000000
00000000000000000000000000000000000000000000000000000000011111000000000000000011111100000000000000111111000111110011111111101111110000000000000111111000000000000000000000000000000000000000000000000000
00000000000000000000000000000000000000000000000000000011111110000000000000000011111000000001110001110111000000100000111111100111111000000000011111111111000000000000000000000000000000000000000000000000
00000000000000000000000000000000000000000000000000001111111110000000000000000111111100000001110001110110000000000100011111110011111100000000011111111111110000111000000000000000000000000000000000000000
00000000000000000000000000000000000000000000000000001111111100000000000000000111111000000000000001111110000000000000111111111011111110000000011111111111111111111000000000000000000000000000000000000000
00000000000000000000000000000000000000000000000000000111111000000000100000000111111000000000000001111110000000000000000111111111111110000000011111111111111111100000000000111000000000000000000000000000
00000000000000000000000000000000000000000000000000000111111000000011100000000111111100000000000011111110000000000000000001111110111110000000011111111111111111100000000000111000000000000000000000000000
00000000000000000000000001110000000000000000000000000001111000000000000000000111111100000000001111111110000000000000000000011110111111000000000111111111111111110000000000000000000000000000000000000000
00000000000000000000000001110000000000000000000000000001110000000000000000000111101110000000001111111111000000000000000000000111111111111110000011100111111111110000000000000000000000000000000000000000
00000000000000000000000000000000000000000000000100011111110000000000000000000011100111000000111111111111100000000000000000000011111111111110000000000001111111111000000000000000000000000000000000000000
00000000000000000000000000000000000000000000000111011111110000000000111000000001111000111111111111111111100000000000000000000011111011111111000000000000111110111100000000000000000000000000000000000000
00000000000000000000000000000000000000000000000000011111100000000000111000000001111101111111111111111110000000000000000000000001111011111111110000000000011110111100000000000000000000000000000000000000
00000000000000000000000000000011111000000000000000011111000000000000000000000000011111111111111111111100000000000000000000111000111111111111111100000000001111111100000000000000000000000000000000000000
00000000000000000000000000000011111000000000000000111100000000000000000000000000000000111111111111111100000111000000000000111000111111100001110001000000001111111000000000000000000000000000000000000000
00000000000000000000000000000000000000000000000000111100000000000000000000000000000000011111000111111100001111000001000000000000011111100000100001110000001111111000000000000000000000000000000000000000
00000000000000000000000000000000000000000000000001111111000000000000000000110000000000000000001111111000011110000001111000000000011111000000000011111100000111111000000000000000000000000000000000000000
00000000000000000000000000000000000000000000000001111111000000000000000001111111000000000000001111111000011100000011111100000000011110000000000011111110001111110000000000000000000000000000000000000000
00000000000000000000000000000000000000000000000011111110000000000000000001111111000000000000001111111000000000000111111110000000011110000000000000111111101111100000000000000000000000000000000000000000
00000000000000000000000000000000000000000000000011110000000000000000000000111111000000000000011111111000000000000111111111000000011111000000011100001111100111000000000000000000000000000000000000000000
00000000000000000000000000000000000000000000000011110000000000000000000000111111100000000000111111110000000000000011111111100000011110000000011110000011110111100000000011100000000000000000000000000000
00000000000000000000000000000000000000000000000011111100000000000000000000111111100000000000111111100000000000000011111111110000000110000000011111000001111111100000000010000000000000000000000000000000
00000000000000000000000000000000000000000000000111111111100000000000000000011111100000000001111111100001110000000001111110111011000000000000011111000001111111110000000000000000000000000000000000000000
00000000000000000000000000000000000000000000001111111111111111000000000000011111100000000010001111000001110000000001111110111111111000000011111111000001111111111000000000000000000000000000000000000000
00000000000000000000000000011101110000000000111111111111111111000000000000000111100100011110001110000000000000000000011111111111110000000111111111100111111111111110000000000000000000000000000000000000
00000000000000000000000000011101110000111111111111111111111110000000000000000111111110111100111100000000000001110000001111111111100000000111111111111111100011111111000000000000000000000000000000000000
00000000000000000000000000000000000011111111111111111111111110000000000000000011111111111101111100000000000001100000000001111110000000000111111110111110000000011111100000000000000000000000000000000000
00000000000000000000000000000000000011111111111111111111111100000000000000000000011111111111111000000000000000000000000000000000000000000001111100010000011100001111110000000000000000000000000000000000
00000000000000000000000000000000000011111111111111111111100100000000000000000000000111111111100000000000000000000000000000000000000000000000111110000000011100000111110000000000000000000000000000000000
00000000000000000000000000000000000111111111111110000000000000000000000000000000000001000110000000000000000000000000000000000000000000000110000000000000000000000011111000000000000000000000000000000000
00000000000000000000000000000000000111111110000000000000000000000000000000000000000000000000000000000011100000000000000000000000000000000000000000000000000000000011111100000000000000000000000000000000
00000000000000000000000000000000000001100000000000000000000000000000000000000000000000000000000000000011000000000000000000000000000000000000000000000000000000000001111100000000000000000000000000000000
00000000000000000000000000000000000000000000000000000000000000000000000000000000000000000000000000000000000000000000000000000000000000000000001110000000000011000000111000000000000000000000000000000000
00000000000000000000000000000000000000000000000000000000000000000000000000000000000000000000000000000000000000000000000000000000000000000000001110000000000011000000000000000000000000000000000000000000
00000000000000000000000000000000000000000000000000000000000000000000000000000000000000000000000000000000000000000000000000000000000000000000000000000000000000000000000011100000000000000000000000000000
00000000000000000000000000000000000000000111000000000000000000000000000000000000000000000000000000000000000000000000000000000000000000000000000000000000000000000000000011100000000000000000000000000000
00000000000000000000000000000000000000000111000000000000000000000000000000000000000000000000000000000000000000000000000000000000000000000000000000000000000000000000000000000000000000000000000000000000
00000000000000000000000000000000000000000000000000000000000000000000000000000000000000000000000000000000000000000000000000000000000000000000000000000000000000000000000000000000000000000000000000000000
00000000000000000000000000000000000000000000000000000000000000000000000000000000000000000000000000000000000000000000000000000000000000000000000000000000000000000000000000000000000000000000000000000000
00000000000000000000000000000000000000000000000000000000000000000000000000000000000000000000000000000000000000000000000000000000000000000000000000000000000000000000000000000000000000000000000000000000
00000000000000000000000000000000000000000000000000000000000000000000000000000000000000000000000000000000000000000000000000000000000000000000000000000000000000000000000000000000000000000000000000000000
00000000000000000000000000000000000000000000000000000000000000000000000000000000000000000000000000000000000000000000000000000000000000000000000000000000000000000000000000000000000000000000000000000000
00000000000000000000000000000000000000000000000000000000000000000000000000000000000000000000000000000000000000000000000000000000000000000000000000000000000000000000000000000000000000000000000000000000
