P1
200 70
00000000000000000000000000000000000000000000000000000000000000000000000000000000000000000000000000000000000000000000000000000000000000000000000000000000000000000000000000000000000000000000000000000000
00000000000000000000000000000000000000000000000000000000000000000000000000000000000000000000000000000000000000000000000000000000000000000000000000000000000000001000000000000000000000000000000000000000
00000000000000000000000000000000000000000000000000000000000000000000000000000000000000000000000000000000000000000000000000000000000000000000000001111111111111111111111000000000000000000000000000000000
00000000000000000000000000000000000000000000000000000000000000000000000000000000000000000000000000000000000000000000000000000000000000000000001111111111111111111111111000000000000000000000000000000000
00000000000000000000000000000000000000000000000000000000000000000000000000000000000000000000000000000000000000000000000000000000000000000001111111111111111111111111111000000000000000000000000000000000
00000000000000000000000000000000000000000000000000000000000000000000000000000000000000000000000000000000000000000000000000000000000011111111111111111111110000000000001000000000000000000000000000000000
00000000000000000000000000000000000000000000000000000000000000000000000000000000000000000000000000000000000000000000000000000000011111111111111100000000000000000000000000000000000000000000000000000000
00000000000000000000000000000000000000000000000000000000000000000000000000000000000000000000000000000000001110000000000000000111111111111111100000000000000000000000000000000000000000000000000000000000
00000000000000000000000000000000000000000000000000000000000000000000000000011100000000000000000000000000001110000000000000111111111111001110000000000000000111000000000000000000011100000000000000000000
00000000000000000000000000000000000000000000000000000000000000000000000000011100000000000000000000000000000000000000000100010000000000000000000000000000000111000000000000000000011100000000000000000000
00000000000000000000000000000000000000000000000000000000000000000000000000000000000000000000000000000000000000000000100000000000000000000000000000000000000000000000000000000000000000000000000000000000
00000000000000000000000000000000000000000000000000000000000000000000000000000000000000000000000000000000000000001111110010000000000000000000000000000000000000000000000000000000000000000000000000000000
00000000000000000000000000000000000000000000000000000000000000000000000000011000000000000000000000000000000001111111111110000000000000000000000011100000000000000110111000000000000000000000000000000000
00000000000000000000000000000000000000000000000000000000000000000000000011111111110000000000000000000000011111111111111111100000000000000000000011100000000000111111111000000000000000000000000000000000
00000000000000000000000000000000000000000000000000000000000000000000000111111111111100000000000000000001111111111111111111110000000000000000000000000000011111111111111000000000000000000000000000000000
00000000000000000000000000000000000000000000000000000000000000000000011111111111111110000000000000000111111111000111111111110000000000000000011100001111111111111011111000000000000000000000000000000000
00000000000000000000000000000000000000000000000000000000000000000001111101111111111100000000000000011111111000000011111111111000000000000000011111111111111111110001111000000000000000000000000000000000
00000000000000000000000000000000000000000000000111100000000000000001111101111111111110000000000001111100100000000001111111111100000000000000001111111111111111110001111000000000000000000000000000000000
00000000000000000000000000000000000000000000001111110000000000000011111111111111011111110000000011111000000000111100000111111100000000000000000111111111111111110001110000000000011100000000000000000000
00000000000000000000000000000000000000000000011111110000000000000011111111111110011111110000001111111000000000111100000011111100000000000000000111111111111111111011100000000000011100000000000000000000
00000000000000000000000000000000000000000000111111110000000000000111111111111111111111111000111111100000000001111110000111111100000000000000001111111111111111111111000000000000000000000000000000000000
00000000000000000000000000000000000000000011111111110000000000001111111111100001111110111111111110000000000001111110000011111110000000000000001111111111111000000111000000000000000000000000000000000000
00000000000000000000000000000000000011111111111111110000000000001111111111000000111110111111111100000000000011111110000001111110000000000000001101111111110000000000000000000000000000000000000000000000
00000000000000000000000000000000000111111111111111110000000000001110011111000000011111111111110000000000000011111110000001111110000000000000011100100000000000000000000000000000000000000000000000000000
00000000000000000000000000000000000111101111111111110000000000000000011110000000011110111111000000000000000011111111100001111110000000000000011110000000000000000000000000000000000000000000000000000000
00000000000000000000000000000000000111101111111111110000000000000001111110000000011110111111000000000000000011111111100001111110000000000000111100000000000000000000000000000000000000000000000000000000
00000000000000000000000000000000000111111111111111110000000000001111111110000000111111111111000000000000000011111100000001111110000000000000100000000000000000000000000000000000000000000000000000000000
00000000000000000000001110000000000111111111111111110000000000001111011110000001111111111111100000000000000111111100000011111110000000000000100000000000001100000000000111000000000000000000000000000000
00000000000000000000001110000000000111111111111111111000000000001111011111000111110111111111100000000000000111111110000111111110000000000000111100000011111100011100000111000000000000000000000000000000
00000000000000000000000000000000000111111111111111111000000000001111111111001111110111111111110000000000000111111110001111111111000000000001111100011111111110111110000000000000000000000000000000000000
00000000000000000000000000000000000000000001111111110000000000001111111111111111111111111111110000000000000011111111111111111111000000000001111001111111111111111111000000000000000000000000000000000000
00000000000000000000000000000000000000000000111111110000000000001111111111111110001111111111110000000000000011111111111111111000000000000001111111111111111111111111100000000000000000000000000000000000
00000000000000000000000000000000000000000000111111111000000000000111111111111100001111110111110000000111000001111111111110000000000000000001111111110111111111111111100000000000000000000000000000000000
00000000000000000000000000000000000000000000011111111000000000000111110001111100011111110111110000000111000001111111111100000000000000000000111111000000111111011101100000000000000000000000000000000000
00000000000000000000000000000000000000000000001111111000000000000111110001111111100111111111000000000000000001111111111100110000000000000001111100000000011111011101110000000000000000000000000000000000
00000000000000000000000000000000000000000001110001111000000000000111111111111011100011111111000000000000000111111111111111111110000000000011111000000000011111111111100000000000000000000000000000000000
00000000000000000000000000000000000000000001111000000000000000001111111111111011000111111111111000000000001111111111111111111110000000000000010000000000001111111111100000000000000000000000000000000000
00000000000000000000000001000000111000000000111110000000000000111111111111111111000111111111111100000000011111111100001111111111000000000000000000000000011111111111100000000000000000000000000000000000
00000000000000000000000000000000111000000000111000111000000001111111111111111111100011111111111100000000011111111000000011111111000000000000000000000000011111111111100000000000000000000000000000000000
00000000000000000000000000000000000000000000110000111000000111111100011111111111110111111111111111000000011111110000000011111111100000000000000000000000011111111111100000000000000000000000000000000000
00000000000000000000000000000000000000000000111001111000001001111000000111111111111111111111111111000000011111110000000001111111100000000111000000000000011111111111000000000000000000000000000000000000
00000000000000000000000000000000000000000000111111111000001100100000000001111111111011111111111100000001111111100000000001111111110000000111000000000000011111111110000000000000000000000000000000000000
00000000000000000000000000000000000000000000111111111100011111000000000001110001000001111111111100000011111111100111000001111111110000000000000000000000111111111111000000000000000000000000000000000000
00000000000000000000001110000000000000000000111111111111111110000000000001110000000001111111111100000011111111100111000011111111110000000000000000000000111111111100000000000000000000000000000000000000
00000000000000000000001110000000000000000000111111111111111000000000000000000000000001111111111100000111111111100000000011111111110000000000000000000001110111111100000000000000000000000000000000000000
00000000000000000000000000000000000000000001111111111110010000000000000000000000000001111111111100000111111111100000000011111011110000000000000000000001110111111100000000000000000000000000000000000000
00000000000000000000000000000000000000000001111111111100000000000000100000000000000011110111111100000111111111100000000111111001110000000000000000000001111111011100000000000000000000000000000000000000
00000000000000000000000000000000000000000001111110111110000000000001111100000000000111100011111000000111111111110000000011111100000000000000000000000001101111001100000000000000000000000000000000000000
00000000000000000000000000000000000000000001111110111100000000000001111111100000011111100011111000000111111111110001100111111110000000110000000000000001101111110000000000000000000000000000000000000000
00000000000000000000000000000000011100000001111111111100000000000001111111111100011111000011111000000011111111111011111111111111100010000000000000000011111111100000000000000000000000000000000000000000
00000000000000000000000000000000011100000001111111111000000000000000111111111110111111000011111000000001111111111111111111111111100011000000000000000111111111000000000000000000000000000000000000000000
00000000000000000000000000000000000000000011111111011000000000000000001111111111111111100111111000000001111111111111111111111111000011110000000000011111111111000000000000000000000000000000000000000000
00000000000000000000011100000000000000000111111111011000111000000000001111111111111111111111110000000000111111111111111111111110000011110000000000111111111100000000000000000000000000000000000000000000
00000000000000000000011100000111000000011110111111111000111000000000111111111111111111111111100000000000001111111111111111111110000111111000000000011111111000000000000000000000000000000000000000000000
00000000000000000000000000000111000000111110111111111000000000000000011111111111101111111111000000000000000111111111111111111100001111111110001100011111100000000000000000000000000000000000000000000000
00000000000000000000000000000000000000011111111111111000000000000000000011111111101111111110000000000000000000011111111111110000011111111111111111000110000000000000000000000000000000000000000000000000
00000000000000000000000000000000000010011111110111111000000000000000000000011111111111110000000000000000000000000000000000000000011111111111111111000000000000000000000000000000000000000000000000000000
00000000000000000000000000000000000111111001110111111000000000000000000000000000001111010000000000111000000000000000000000000000011111111111111110000000000000000000000000000000000000000000000000000000
00000000000000000000000000000000001111100011111110001000000000000000000000000000000000000000000000000000000000000000000000000000001111111111100000000000000000000000000000000000000000000000000000000000
00000000000000000000000000000000011111000011110000000000000000000000000000000000000000000000000000000000000000000000000000000000000000000000000000000000000000000000000000000000000000000000000000000000
00000000000000000000000000000000011110000011100000000000000000000000000000000000000000000000000000000000000000000000001000000000000000000000000000000000000000000000000000000111000000000000000000000000
00000000000000000000000000000000011100000011100000000000000000000000000000000000000000000000000000000000000000000000001000000000000000000000000000000000000000000000000000000111000000000000000000000000
00000000000000000000000000000000001000000001000000000000000000000000000000000000000000011100000000000000000000000000000000000000000000000000000000000000000000000000000011100000000000000000000000000000
00000000000000000000000000000000000000000000000000000000000000000000000000000000000000011100000000000000000000000000000000000000000000000000000000000000000000000000000011100000000000000000000000000000
00000000000000000000000000000000000000000000000000000000000000000000000000000000000000000000000000000000000000000000000000000000000000000000000000000000000000000000000000000000000000000000000000000000
00000000000000000000000000000000000000000000000000000000000000000000000000000000000000000000000000000000000000000000000000000000000000000000000000000000000000000000000000000000000000000000000000000000
00000000000000000000000000000000000000000000000000000000000000000000000000000000000000000000000000000000000000000000000000000000000000000000000000000000000000000000000000000000000000000000000000000000
00000000000000000000000000000000000000000000000000000000000000000000000000000000000000000000000000000000000000000000000000000000000000000000000000000000000000000000000000000000000000000000000000000000
00000000000000000000000000000000000000000000000000000000000000000000000000000000000000000000000000000000000000000000000000000000000000000000000000000000000000000000000000000000000000000000000000000000
00000000000000000000000000000000000000000000000000000000000000000000000000000000000000000000000000000000000000000000000000000000000000000000000000000000000000000000000000000000000000000000000000000000
