P1
200 70
00000000000000000000000000000000000000000000000000000000000000000000000000000000000000000000000000000000000000000000000000000000000000000000000000000000000000000000000000000000000000000000000000000000
00000000000000000000000000000000000000000000000000000000000000000000000000000000000000000000000000000000000000000000000000000000000000000000000000000000000000000000000000000000000000000000000000000000
00000000000000000000000000000000000000000000000000000000000000000000000000000000000000000000000000000000000000000000000000000000000000000000000000000000000000000000000000000000000000000000000000000000
00000000000000000000000000000000000000000000000000000000000000000000000000000000000000000000000000000000000000000000000000000000000000000000000000000000000000000000000000000000000000000000000000000000
00000000000000000000000000000000000000000000000000000000000000000000000000000000000000000000000000000000000000000000000000000000000000000000000000000000000000000000000000000000000000000000000000000000
00000000000000000000000000000000000000000000000000000000000000000000000000000000000000000000000000000000000000000000000000000000000000000000000000000000000000000000000000000000000000000000000000000000
00000000000000000000000000000000000000000000000000000000000000000000000000000000000000000000000000000000000000000000000000000000000000000000000000000000000000000000000000000000000000000000000000000000
00000000000000000000000000000000000000000000000000000000000000000000000000000000000000111000000000000000000000000000000000000000000000000000000000000000000000000000000000000000000000000000000000000000
00000000000000000000000000000000000000000000000000000000000000000000000000000000000000111000000000000000000000000000000000011100000000000000000000000000000000000000000000000000000000000000000000000000
00000000000000000000000000000000000000000000000000000000000000000000000000000000000000000000000000000000000000000000000000011100000000000000000000000000000000000000000000000000000000000000000000000000
00000000000000000000000000000000000000000000000000000000000000000000000000000000000000000000000000000000000000000000000000000000000000000000000000000000000000000000000000000000000000000000000000000000
00000000000000000000000000000000000000000000000000000000000000000000000000000000000000000000000000000000000000000000000000000000000000000000000000000000000000000000000000000000000000000000000000000000
00000000000000000000000000000000000000000000000000000000000000000000000000000000000000000000000000000000000000000000000000000000000000000000000000000000000000000000000000000000000000000000000000000000
00000000000000000000000000000000000000000000000000000000000000000000000000000000000000000000000000000000000000000000000010000000000000000111000000000000001100000000000000000000000000000000000000000000
00000000000000000000000000000000000000000000000000000000000000000000000000000000000000000000000000000000000000000000001110000000000000000111000000000111111110000000000000000000000000000000000000000000
00000000000000000000000000000000000000000000000000000000000000000000000000000000000000000000000000000000000000000001111111000000000000000000000000001111111110000000000000000000000000000000000000000000
00000000000000000000000000000000000000000000000000000000000000000000000000000000000000000000000000000000000000000011111111000000000000000000000000011111111110000000010000000000000000000000000000000000
00000000000000000000000000000000000000000000000000000000000000000000000000000000000000000000000000000000000000011111111111000111000000000000000000001111111110000000010000000000000000000000000000000000
00000000000000000000000000000000000000011101110000000000000000000000000000000000000000000000000000000000000000111111111111000111000000000000000000000111101110000000000000000000000000000000000000000000
00000000000000000000000000000000000000011101110000000000000000000000000000000000000000000000000000000000000111111110111000000000000000000000000000001111000110000000000000000000000000000000000000000000
00000000000000000000000000000000000000000000000000000000000000000000000001111000000000000000000000000000001111111100010000000000000000000000001110011110000010000000000000000000000000000000000000000000
00000000000000000000000000000000000000000000001110000000000000000000000011111000110000000000000000000011111111111100000000000000000000000001111111111110000110000000000000000000000000000000000000000000
00000000000000000000000000000000000000000001111111110000000000000000111111111101110000000000000000000111111111111000000000000000000000000111111111111001111110000111000000000000000000000000000000000000
00000000000000000000000000000000000000000011111111111000000000000011111111111111110000000000000000000111111111000000000000000000000000000111111111110011111110000111000000000000000000000000000000000000
00000000000000000000000000000111000000001111111111111100000000000111111111110111111000000000000000000111111110000000000000000000000000000111111111111111111110000000000000000000000000000000000000000000
00000000000000000000000000000111000000011111111111111110000000000111110011110111110000000000000000000111111000000000000000000000000000000111111111101111111111000000000000000000000000000000000000000000
00000000000000000000000000000000000000111111110111111100000000000111100001111111110000000000000000000111110000000000000000000000000000000111111111001111111111000000000000000000000000000000000000000000
00000000000000000000000000000001000001111110000001111110000000000000110001111111111000000000000000000111110000000000000000000000000000000111111110001111111111000000000000000000000000000000000000000000
00000000000000000000001110000111000011111100000000111111000000000000000001111111111100000000000001111111000000000000000000000000000000000011111000001111111111000000000000000000000000000000000000000000
00000000000000000000001110000000000011111000000000011111100000000000000001111111111100000000000001110111000000000000000000000000000000000000000000001111111111000000000000000000000000000000000000000000
00000000000000000000000111000000000011110000000000011111100000000000000001111111111100000000000000000111110000000000111111100000000000110000000000000001111110000000000000000000000000000000000000000000
00000000000000000000000011100000001000100000000000011111100000000000000001111111111100000000000000000111110000111111111111000000000000111000000000000001111100000000000000000000000000000000000000000000
00000000000000000000000000000000011100000000000000011111100000000000000000111111111100000000000000001111000011111111111110000000000000000000000000000111111110000000000000000000000000000000000000000000
00000000000000000000000000000000011111000000000000011111100000000000000000111111111000000000000000011111000111111111111111000000000000000000000000000011111111000000000000000000000000000000000000000000
00000000000000000000000000000000011111100000001110011111100000000000000000111111111000000000000000011111111111111111111111100000000000000000000000000011111111000000000000000000000000000000000000000000
00000000000000000000000000000000001111111000000000011111100000000000000000111111111110000000000000001111111111111000000111110000000000000000000000000111111111000000000000000000000000000000000000000000
00000000000000000000000000000000000111111110000000111111000000000000000000111111111110000000000000001111111111110000000001110000000000000000000000000110111111000000000000000000000000000000000000000000
00000000000000000000000000000000000001111111000000111111000000000000000000111111111111000000000000001111111110000000011000110000000000000000000000000100111110000000000000000000000000000000000000000000
00000000000000000000000000000000000000111111111101111110000000000000000000011111111111000000000000001111111000000000001111000000000000000000000000000111111111000000000000000000000000000000000000000000
00000000000000000000000000000000000000000111111111111110000000000000000000011111111111000000000000001111110000000000001111000000000000000000000000000011111111000000000000000000000000000000000000000000
00000000000000000000000000000000000000000001111111111110000000000000000000011111111111000000000000001111110000000000001111000000000000000000000000000011111111000000000000000000000000000000000000000000
00000000000000000000000000000000000000000000111111111110000000000000000000011111111111000000000000001111100000000000001111100000000000000000000000000111111111000000000000000000000000000000000000000000
00000000000000000000000000000000000000000000011111111111110000000000000000011111111111100000000000001110000000000000000111110000000000000000000000000111111111000000000000000000000000000000000000000000
00000000000000000000000000000000000000000000111111110000111111111110001110011111111111100000000000000000000000000000000111111000000000000000000000111111111111100000000000000000000000000000000000000000
00000000000000000000000000000000011100000001111111100000011111111111111111111111111111001111111111111000000000000000000111111000000000000000000000111111111111000000001110000000000000000000000000000000
00000000000000000000000000000000011100000011111111000000011111111111111111111111111111011111111101111100011000000000000111111000000000000000000000000111011111000000001110000000000000000000000000000000
00000000000000000000000000000000000000000111111110000000000011111111111111111111111111111111111101111111111111100000001111111000000000000000000000000111011111000000000000000001110000000000000000000000
00000000000000000000000000000000000000001111111000000000000000011110000001111111111111111111111111111111111111110011111111111100000000000000111000000011111100000000000000000001110000000000000000000000
00000000000000000000000000000000000000011111110000000000000000001100000000001111111111111000000000000000001111111111011111111111000000000000111100000011111000000000000000000000000000000000000000000000
00000000000000000000000000000000000000111111110000000000000000000000000000000111111111110000000000000000000000000110001110111111111000000001111111000111111100000000000000000000000000000000000000000000
00000000000000000000000000000000000001110111000000000000000000000000000000000111111111000000000000000000100000000000001110111100000011100001111100111111111111000000000000000000000000000000000000000000
00000000000000000000000000000000000011100011000000000000000000000000000000000110111110000000000000001111110000000000011111110000000001111111111101111111111111111100000000000000000000000000000000000000
00000000000000000000000000000000000111110001110000000000000000000000000000000100111110011000000000000001111000000000111111000000001000111111111111111111111111111111110000000000000000000000000000000000
00000000000000000000000000000000001111111001110000000000000000000000000000000011111111111000111100000000111100111001111110000000000001111111111111111111111111111011111000000000000000000000000000000000
00000000000000000000000000000000011111111000000000001110000000000000000000000011111111000111111110000100111111111111111111000000000000000111111111111111111111111011111000000000000000000000000000000000
00000000000000000000000000000000011111111000000000001110000000000000000000000011111110000111111110000111111111111111111111000000000000000000111111111111111111111111111000000000000000000000000000000000
00000000000000000000001110000000111111111100111111111100000000000000000000000111111111001111110000000001111111111111111110000000000000000000001111111111111111111111111000000000000000000000000000000000
00000000000000000000011110000000111111111111111111111111111000011100000000111111111111111100000000000000111111111111111000000000000000000000000010011111111011111111111000000000000000000000000000000000
00000000000000000000111100000000000111111111111111111111111100011100000000011111111111000000000000000000011111111111100000000000000000000000000000001111111011111111100000000000000000000000000000000000
00000000000000000000111000000000000001111111111111111111111100000000000000011100111000000000000000000000000111111000000000000000000000000000000000000011111111111111000000000000000000000000000000000000
00000000000000000000000000000000000000000000000111111111111100000000000000111000000000000000000000000000000001110000000000000000000000000000000000000000011111111111111000000000000000000000000000000000
00000000000000000000000000000000000000000000000001111111111100000000000011100000000000000000000000000000000000010000000000000000000000000000000000000000000111111111111000000000000000000000000000000000
00000000000000000000000000000000000011000000000000000000111100000000000000000000000000000000000000000000000000000000000000000000000000000000000000000000000111101001111100000000000000000000000000000000
00000000000000000000000000000000000011100000000000000000000000000000000000000000000000000000000000000000000000000000000000000000000000000000000000000000000111000000111100000000000000000000000000000000
00000000000000000000000000000000000000000000000000000000000000000000000000000000000000000000000000000000000000000000000000000000000000000000000000000000000000000000111000000000000000000000000000000000
00000000000000000000000000000000000000000000000000000000000000000000000000000000000000000000000000000000000000000000000000000000000000000000000000000000000000000000001000000000000000000000000000000000
00000000000000000000000000000000000000000000000000000000000000000000000000000000000000000000000000000000000000000000000000000000000000000000000000000000000000000000000000000000000000000000000000000000
00000000000000000000000000000000000000000000000000000000000000000000000000000000000000000000000000000000000000000000000000000000000000000000000000000000000000000000000000000000000000000000000000000000
00000000000000000000000000000000000000000000000000000000000000000000000000000000000000000000000000000000000000000000000000000000000000000000000000000000000000000000000000000000000000000000000000000000
00000000000000000000000000000000000000000000000000000000000000000000000000000000000000000000000000000000000000000000000000000000000000000000000000000000000000000000000000000000000000000000000000000000
