P1
200 70
00000000000000000000000000000000000000000000000000000000000000000000000000000000000000000000000000000000000000000000000000000000000000000000000000000000000000000000000000000000000000000000000000000000
00000000000000000000000000000000000000000000000000000000000000000000000000000000000000000000000000000000000000000000000000000000000000000000000000000000000000000000000000000000000000000000000000000000
00000000000000000000000000000000000000000000000000000000000000000000000000000000000000000000000000000000000000000000000000000000000000000000000000000000000000000000000000000000000000000000000000000000
00000000000000000000000000000000000000000000000000000000000000000000000000000000000000000000000000000000000000000000000000000000000000000000000000000000000000000000000000000000000000000000000000000000
00000000000000000000000000000000000000000000000000000000000000000000000000000000000000000000000000000000000000000000000000000000000000000000000000000000000000000000000000000000000000000000000000000000
00000000000000000000000000000000000000000000000000000000000000000000000000000000000000000000000000000000000000000000000000000000000000000000000000000000000000000000000000000000000000000000000000000000
00000000000000000000000000000000000000000000000000000000000000000000000000000000000000000000000000000000000000000000000000000000000000000000000000000000000000000000000000000000000000000000000000000000
00000000000000000000000000000000000000000000000000000000000000000000000000000000000000000000000000000000000000000000000000000000000000000000000000000000000000000000000000000000000000000000000000000000
00000000000000000000000000000000000000000000000000000000000000000000000000000000000000000000000000000000000000000000000000000000000000000000000000000000000000000000000000000000000000000000000000000000
00000000000000000000000000000000000000011100000000000000000000000000000000000000000000000000000000000000000000000000000000000000000000000000000000000000000000000000000000000000000000000000000000000000
00000000000000000000000000000000000000001100000000000000000000000000111000000000000000000000000000000000000000000000000000000000000000000000000000000000000000000000000000000000000000000000000000000000
00000000000000000000000000000000000000000000000000000000000000000000111100000000000000000000000000000000000000000000000000000000000000000000000000000000000000000000000000000111000000000000000000000000
00000000000000000000000000000000000000000000000000000001110000000000011111000000000000000000000000000000000000000000000000000000000000001110011100000000000000000000000000000001000000000000000000000000
00000000000000000000000000000000000000000000000000000001110000000000011111100000000000000000000000000000000000000000000000000000000000001110011000000100000000000000000000000000000000000000000000000000
00000000000000000000000000000000000000000001111100000000000000000000000011100000000000000000000000000000000000000000000000000000000000000000000000111110000000000000000000000000000000000000000000000000
00000000000000000000000000000000000011111111111110000000000000000000000000000000000000000000000000000000000000000000000000000000000000000000000011111111100000000000000000000000000000000000000000000000
00000000000000000000000000000000001111111111111111000000000000000000000000000000000000000000000000000000000000000000000000000000000000000000000000111111111000000000000000000000000000000000000000000000
00000000000000000000000000000000111111100001111111110000000000000000000000000000000000000000000000000000000000000000000000000000000000000000000000111111111110000000000000000000000000000000000000000000
00000000000000000000000000000011111111100001111111110000000000000000000000000000000000000000000000000000000000000000000000000000000000000000000001111111111111100000011100000001110000000000000000000000
00000000000000000000000000000011111111111111111111111000000000000000000000000000000000000000000000000000000000000000000000000000000000000000000001111111111111110000011100000001110000000000000000000000
00000000000000000000000000000011111111111111110111111100000000000000000000000000000000000000000000000000000000111000000000000000000000000000000011110111111111111100000000000000000000000000000000000000
00000000000000000000000000000011111111111111110111111100000000000000000001000111111100000000000000000000111111111111111000000000000000000000000011110111111111111110000000000000000000000000000000000000
00000000000000000000000000000011011111111111111111111110000000000000000111111111110010000001111111111111111111111111111111000000000000000000000111111111111111111111001100000000000000000000000000000000
00000000000000000000000000000011001111000000011111001110000000000000001111111111110111110011111111111111111111111111111111110000000000000000000111111111111111111111111111110000000000000000000000000000
00000000000000000000000000000011110000000000001110001110000000000000011111111111111111111111111111111111111111110111111111111111000000000000001111100011111111111111111111110000000000000000000000000000
00000000000000000000000000000011100000000000001110011110000000000011111111111111111111111111111000111111111111110111111111111111100000000000001111100000001111111111111111100000000000000000000000000000
00000000000000000000000000000011000000000000001111111100000111111111111111111111001111111111110000011111111111111111111111111110011111100000001111000000000111111111011111001110000000000000000000000000
00000000000000000000000000000000000000000000001111111100111111011111111111111000000011111111110000011111111110000011111101111110011111111100000110000000000011111111011110001110000000000000000000000000
00000000000000000000000000000000000000000000001111111111111110001111111111110000000001111111110000001111110000000000001000111111001111111111110000000000000000011111111110000000000000000000000000000000
00000000000000000000000000000000000000000000011111111111111110000000011111110000000000011111110000000010000000000000000110011111000001111111111000000000000000000111111100000000000000000000000000000000
00000000000000000000000000000000000000000000011111111111100000000000000011100000000000000111110011100000000000000000000111011111000000000111111110000000000000001100111100000000000000000000000000000000
00000000000000000000000000000000000000000000111111111100000000000000000000000000000000000111110011100000000000000000000111111111000000000001111111000000000000001110011000000000000000000000000000000000
00000000000000000000000000000000000000000000011111111000000000000000000000000000000000001111110000000000000000000000001111111110000000000000011111110000000000011111110000000000000000000000000000000000
00000000000000000000000000000000000000001100011111110000000000000000000000000000000000001111110000000111000000000000111111111100000000000000001111111000000001111111100000000000000000000000000000000000
00000000000000000000000000000000000000111110111111100110000000000000000000000000000000001111110000000111000000011111111111111000000000000111000000111110000011111110000000000000000000000000000000000000
00000000000000000000000000000000000001111111111111000110000000000000000000000000000000011111110000000000000111111111111111100011100000000111000000011111001111100100000000000000000000000000000000000000
00000000000000000000000000000000000011111111111111000000000000000000000000000000000000011111100000000000001111111111111111100011100000000000000000001111111111100000000000000000000000000000000000000000
00000000000000000000000000000000000001111111111110000000000000000000000000000000000000011111100000000000001111111111111111000000000000000000000000000111111111110000000000000000000000000000000000000000
00000000000000000000000000000000010011111111111100000000000000000000000000000000000001111111000000000000001111111111111111000000000000000000000000000111111111110000000000000000000000000000000000000000
00000000000000000000000000000000111111111111111000000000000000000000011100000000000011111111000000000000001111111111111110000000000000000000000000000111111111011100000000000000000000000000000000000000
00000000000000000000000000000000011111111111111000000000000000000000011100000000000111111110011100000000000111111111111110001000000000000000000000000011111100000000000000000000000000000000000000000000
00000000000000000000000000000000011111111111110000000000000000000000000000000000011100111100011100000000000000000001111110001100000000000000000000000111111100100000000000000000000000000000000000000000
00000000000000000000000000000000001111111111111000000000000000000000000000000000111110011000000000000000000000000000011110011100000000000000000000011111000111110000000000000000000000000000000000000000
00000000000000000000000000000000000111110111111000000000000000000000000000000001111111100000000000000000000000000000000001111100000000000000000000111111000011111000000000000110000000000000000000000000
00000000000000000000000000000000000111110111111100000000000000000000000000000111111111000000000000000000000000000000000011111100000000000000000001111111110001110000000000000110000000000000000000000000
00000000000000000000000000000000001111111110011100000000000000000000000000001111111110000000000000000000000000110000001111111000000000000000000011111111110000000001000000000000011100000000000000000000
00000000000000000000000000000000011111110000000000000110000000000000000000001111111000000000000000000000000000110000001111111000000000000000000111111100000000000111000000000000000000000000000000000000
00000000000000000000000000000000011111100000000000111110000000000000000000011111110000000000000000000000000000000000011111111000000000000000001111111000000000001111100000000000000000000000000000000000
00000000000000000000000000000000111111110000011111111110000000000000000001111111100000000000000000000000000000000000011111110000111000000000011111110000000000001111110000000000000000000000000000000000
00000000000000000000000000000001111111110000111111101110000000000000000011111110000000000000000000000000000000000000111111110000000000000001111111100000000000000111110000000000000000000000000000000000
00000000000000000000000000000011111111100111111111101111000000000000000011111100000000000000000000000000000000000011111111100000000000111001111111000000000000000011111000000000000000000000000000000000
00000000000000000000000000000011111111111111111111111111000000000000000011111100000000000000000000000000000000000111111111000000000000111000111110000000000000000011111100000000000000000000000000000000
00000000000000000000000000000111111111111111111111111110000000000000000111111110000000000000000000000000000011111111111111000000111000000000111100000000000000000001111100000000000000000000000000000000
00000000000000000000000000001111111111111111111111111100000000000000000111111110000000000000000001100000001111111111111110000000111000001000111000000000000000000000111110000000000000000000000000000000
00000000000000000000000000001111111111111111111111111000000000000000001111111111111111111110000011111111111111111111111100000000111000011101110000000000000000000000111000000011100000000000000000000000
00000000000000000000000000001111111111111111111111000000000000000000001111111111111111111110000111111111111111111111111000000000111000001111100000000000000000000000000000111011100000000000000000000000
00000000000000000000000000011111111111111100110000000000000000000000001111111111111111101110001111111111111111111111110000000000000000011111000000000000001110000000000000111000000000000000000000000000
00000000000000000000000000111111111111111000000000000000000000000000001111111111111111000110001111111111111111111111000000000000000001111110000000000000001110000000000000000000000000000000000000000000
00000000000000000000000000011111111111111000000000000000000000000000001111111111111100011000001111111111111111111100000000000000000000011000000000000000000000001110000000000000000000000000000000000000
00000000000000000000000000011111111111100000000000000000000000000000000110000000000000000000000111011110111111110000000000000000000000000000000000000000000000001110000000000000000000000000000000000000
00000000000000000000000000011111111100000000000000000000000000000000000000000000000000000000000111001110011000000000000000000000000000000000000000000000000000000000000000000000000000000000000000000000
00000000000000000000000000011111100000000000000000000000000000000000000000000000000000000000000011111111110000000000000000000000000000000000000000000000000011000000000000000000000000000000000000000000
00000000000000000000000000011111000000000000000000000000000000000000000000000000000000000000000000100000000000000000000000000000000000000000000000000000000111000000000000000000000000000000000000000000
00000000000000000000000000010000000000000000000000000000000000000000000000000000000000000000000000000000000000000000000000000000000000000000000000000000000000000000000000000000000000000000000000000000
00000000000000000000000000000000000000000000000000000000000000000000000000000000000000000000000000000000000000000000000000000000000000000000000000000000000000000000000000000000000000000000000000000000
00000000000000000000000000000000000000000000000000000000000000000000000000000000000000000000000000000000000000000000000000000000000000000000000000000000000000000000000000000000000000000000000000000000
00000000000000000000000000000000000000000000000000000000000000000000000000000000000000000000000000000000000000000000000000000000000000000000000000000000000000000000000000000000000000000000000000000000
00000000000000000000000000000000000000000000000000000000000000000000000000000000000000000000000000000000000000000000000000000000000000000000000000000000000000000000000000000000000000000000000000000000
00000000000000000000000000000000000000000000000000000000000000000000000000000000000000000000000000000000000000000000000000000000000000000000000000000000000000000000000000000000000000000000000000000000
00000000000000000000000000000000000000000000000000000000000000000000000000000000000000000000000000000000000000000000000000000000000000000000000000000000000000000000000000000000000000000000000000000000
