P1
200 70
00000000000000000000000000000000000000000000000000000000000000000000000000000000000000000000000000000000000000000000000000000000000000000000000000000000000000000000000000000000000000000000000000000000
00000000000000000000000000000000000000000000000000000000000000000000000000000000000000000000000000000000000000000000000000000000000000000000000000000000000000000000000000000000000000000000000000000000
00000000000000000000000000000000000000000000000000000000000000000000000000000000000000000000000000000000000000000000000000000000000000000000000000000000000000000000000000000000000000000000000000000000
00000000000000000000000000000000000000000000000000000000000000000000000000000000000000000000000000000000000000000000000000000000000000000000000000000000000000000000000000000000000000000000000000000000
00000000000000000000000000000000000000000000000000000000000000000000000000000000000000000000000000000000000000000000000000000000000000000000000000000000000000000000000000000000000000000000000000000000
00000000000000000000000000000000000000000000000000000000000000000000000000000000000000000000000000000000000000000000000000000000000000000000000000000000000000000000000000000000000000000000000000000000
00000000000000000000000000000000000000000000000000000000000000000000000000000000000000000000000000000000000000000000000000000000000000000000000000000000000000000000000000000000000000000000000000000000
00000000000000000000000000000000000000000000000000000000000000000000000000000000000000000000000000000000000000000000000000000000000000000000000000000000000000000000111000000000000000000000000000000000
00000000000000000000000000000000000000000000000000000000000000000000000000000000000000000000000000000000000000000000000000000000000000000000000000000000000000000000111000000000000000000000000000000000
00000000000000000000000000000000000000000000000000000000000001110000000000000000000000000000000000000000000000000000000000000000000000000000000000000000000000000000000000000000000000000000000000000000
00000000000000000000000000000000000000000000000000000000000001110000000000000000000011100000000000000000000000000000000000000000000000000000000000001110000000000000000000000000000000000000000000000000
00000000000000000000000000000000000001000000000001110000000001110001110000000000000011100000000000000000000000000000000000110000000000000000000000001110000000000000000000000000000000000000000000000000
00000000000000000000000000000000000001000000000001100000000000000001110000000000000000111111111000000000000000000000000001000000000000000000000000000000000000000000000000000000000000000000000000000000
00000000000000000000000000000000000000000000000000000000000000000000000000000000000001111111111111110000000000000000000000000000000000000000000000000000000000000000000000000000000000000000000000000000
00000000000000000000000000000000000000000000000000000000000000000000000000000000000011111111111111111000000000000000000000000000001110000000000000000000000000000000000000000000000000000000000000000000
00000000000000000000000000000000000000000000000001111111110000000000000000000000000011111111111111110000000000000000000000000000001110000000000000000000000000000000000000000011100000000000000000000000
00000000000000000000000000000000000000000000111111111111111000000000000000000000000011111111111111111000000000000000000000000000001110000000000000000000000000000000000000000011100000000000000000000000
00000000000000000000000000000000000000000001111111111111111100000000000000000000000001111111111111111110000000000000000010001000001110000000000000000000000000000000000000000000000000000000000000000000
00000000000000000000000000000000000000000011111111111111111100000000000000000000010001111000001111111111011011111111111111111000000000000000000000000000000000000001111111000000000000000000000000000000
00000000000000000000000000000000000000000011111110000000000011111100000000000000111011110000000111111111111111111111111111111000000000000000000000000000000000011111111111000000000000000000000000000000
00000000000000000000000000000000000000000011111110000000000000001110000000000000011111100000000001111111111111111110111111111000000000000000000000000000000000111111111100000000000000000000000000000000
00000000000000000000000000000000000000000000001111000000000000000111000000000000111111000000000001111111111111111100011111111000000000000000000000000000000001111111111100000000000000000000000000000000
00000000000000000000000000000000000111000000000111000000000000001111100000000011111110000000000001111111111111111110000011111000000000000000000000000000000000011111111000000000000000000000000000000000
00000000000000000000000000000000000111000000000000000000000000001111100000000011111110000000000011111111111111110111000011111000000000000000000000000000000000011111111000000000000000000000000000000000
00000000000000000000000000000000000000000000000000000000000000000111100000000000111100000000000011111111111111110111111111111000000000000000000000000000001111111111110000000000000000000000000000000000
00000000000000000000000000000000000000000000000000000000000000000111110000000000000000000000000001111110111111111111111111111000000000000000000000000000011111111111100000000000000000000000000000000000
00000000000000000000000000000000000000000000000000000000000000000111110000000000000000000000000001111110111111111111111111111000000000000000000000000000111111111111100000000000000000000000000000000000
00000000000000000000000000000000000000000000000000000000000000000100000000000000000000000000000000011100011110001100000011111000000000000000000000000011111111111111100000000000000000000000000000000000
00000000000000000000000000000000000000000000000000000000000000000100000000000000000000000000000010011100011100000000000011111000001110000000110000000111111111111111100000000000000000000000000000000000
00000000000000000000000000000000000000000000000000000000000000000111100000000000000000000000000111111100111100000000000011111000001110000000111000111111111111111100000000000000000000000000000000000000
00000000000000000000000001110000000000000000000000000000000000001111000000000000000000000000000111111000111111100000000111111001110000000001111111111111111111111000000000000000000000000000000000000000
00000000000000000000000001110000000111000000000000000000000000001000000000000000000000000000001111110000011011100000000011111001110000001111111111111111111111111001000000000000000000000000000000000000
00000000000000000000000000000000000111000000000000000000000000011100000000000000000000000000011111110000000000000000000001111000000000011101111111111111111111111111110000000000000000000000000000000000
00000000000000000000000000000000000000000000000000000000000001111110000000000000000000000000111111100000000000000000000001111000011100111000110111111110111111111111111100000000111000000000000000000000
00000000000000000000000000000000000000000000000000000000000011111100000000000000000000000001111111000000000000000000000011110001111111111000000111111100011111110111111100000000110000000000000000000000
00000000000000000000111000000000000000000000000000000000001111110000000000000000000000000011111111000000000000000000000111111011111000000000011111111000111111100000111000000000000000000000000000000000
00000000000000000000111111000000111000000000000000000000011111100000000000000000000000000111111110000000000000000000000111111111110000000000111111110000111111000000001000000000000000000000000000000000
00000000000000000000000111000000111000000000000000000001111111000000000000000000000000001111111100000000000000000000001111001110000000000001111111100001111111100000000000000000000000000000000000000000
00000000000000000000000000000000000000000000011100000011111110000000000000000000001110111111111000000000000000000000011110000000000000000011111111000011111111110000000000000000000000000000000000000000
00000000000000000000000000000000000000000011111100000111111000000000000000000000001111111111000000000000000000000000111111000000000000000001111111111111111111100000000000000000000000000000000000000000
00000000000000000000000000000000000000000011100000001111100000000000000000000000000110001110000000000000000000000011111011111000000000001101111111111011111011000000000000000000000000000000000000000000
00000000000000000000000000000000000000000000000000000111000000000000000000000000000110001110000000000000000000001111110011111000000000011111111111111011110001100000000000000000000000000000000000000000
00000000000000000000000000000000000000000000000001000110000000000000000000000000000111111100000000011100000000111111100111111000000000011111111111111111110000000000000000000000000000000000000000000000
00000000000000000000000000000000000000000000000111110000000000000000000000000000001111110000000000011100000111111111000111111000111000100111111111111111110000000000000000000000000000000000000000000000
00000000000000000000000000000000000000000000011111110000000000000000000011100011111111100000000000000000011111111100000111111000111000100011111000111111110000000000000000000000000000000000000000000000
00000000000000000000000000000000000000000000111111100000000000000000000011100111111111100000000000000001111111110000001111111000000000110011100000111111111000000000000000000000000000000000000000000000
00000000000000000000000000000000000000000000111110000000000000000000000000000111111111000000000000000111111110000000000111111000000111000000000111111111111100000000000000000000000000000000000000000000
00000000000000000000000000000000000000000011111000010000000000000000000000001111111110000000000000011111111000000000000111110000000111000000001111111111111100000000000000000000000000000000000000000000
00000000000000000000000000000000000000000111110000010000000000000000000000011111110000000000000001111111100000000000000111110000000000000000011111111111111000000000000000000000000000000000000000000000
00000000000000000000000000000000001000001111100000000000000000000000000000111111100000000000001111111110000000000000000111111000000000000000011111111111110000000000000000000000000000000000000000000000
00000000000000000000000000000000000000001111000000000000000000000000000000011111000000000000111111111000000000000000001111111000000000000000011111111111100000000000000001110000000000000000000000000000
00000000000000000000000000000000010000001100000000000000000000000000000000111110000000000011111111100000000000000000001111111000000000000000011111110010000000000000000000000000000000000000000000000000
00000000000000000000000000000000011110001100001110000100111111111000000011111100000000011111111100000000000000000000001111111000000000000000000000000000000000000001110000000000000000000000000000000000
00000000000000000000000000000000001111011110011111111111111111111000000111111100000001111111110000000000000000000000001111111000000000000000000000000000000000000001110000000000000000000000000000000000
00000000000000000000000000000000001111111111111111111111111111111000001111111100001111111111000000000000000000000000001111110000000000000000000000000000000000000000000000000000000000000000000000000000
00000000000000000000000000000000011111110011111111101111100000000000001111111111111111111100000000000000000000000000001111110000000000000000000000000000000000000000000000000000000000000000000000000000
00000000000000000000000000000000111111100001111111100110000000000000011111111111111111111000000000000000000000000000001111100000000000000000000000000000000000000000000000000000000000000000000000000000
00000000000000000000000000000000111111111000001111111000111111111000111111111111111111111100000000000000000000000000001111100000000000000000000000000000000000000000000000000000000000000000000000000000
00000000000000000000000000000000111110000000000000111001111111111111111111111111111111111110000000000000000000000000001111000000000000000000000000000000000000000000000000000000000000000000000000000000
00000000000000000000000000000000000000000000000000000111111111111111111111111111111111111111100000000000000000000000000000000000000000000000000000000000000000000000000000000000000000000000000000000000
00000000000000000000000000000000000000000000000000000000000011111110001111111111111111111111000000000000000000000000000000000000000000000000000000000000000000000000000011100000000000000000000000000000
00000000000000000000000000000000000000000000000000000000000000000000000000011111111101111111000000000000000000000000000000000000000000000000000000000000000000000000000011100000000000000000000000000000
00000000000000000000000000000000000000000000000000000000000000000000111000000000011000111111000000000000000000000000000000000000000000000000000000000000000000000000000000000000000000000000000000000000
00000000000000000000000000000000000000000000000000000000000000000000111000000000000000011111000000000000000000000000000000000000000000000000000000000000000000000000000000000000000000000000000000000000
00000000000000000000000000000000000000000000000000000000000000000000000000000000000000000011000000000000000000000000000000000000000000000000000000000000000000000000000000000000000000000000000000000000
00000000000000000000000000000000000000000000000000000000000000000000000000000000000000000000000000000000000000000000000000000000000000000000000000000000000000000000000000000000000000000000000000000000
00000000000000000000000000000000000000000000000000000000000000000000000000000000000000000000000000000000000000000000000000000000000000000000000000000000000000000000000000000000000000000000000000000000
00000000000000000000000000000000000000000000000000000000000000000000000000000000000000000000000000000000000000000000000000000000000000000000000000000000000000000000000000000000000000000000000000000000
00000000000000000000000000000000000000000000000000000000000000000000000000000000000000000000000000000000000000000000000000000000000000000000000000000000000000000000000000000000000000000000000000000000
00000000000000000000000000000000000000000000000000000000000000000000000000000000000000000000000000000000000000000000000000000000000000000000000000000000000000000000000000000000000000000000000000000000
