P1
200 70
00000000000000000000000000000000000000000000000000000000000000000000000000000000000000000000000000000000000000000000000000000000000000000000000000000000000000000000000000000000000000000000000000000000
00000000000000000000000000000000000000000000000000000000000000000000000000000000000000000000000000000000000000000000000000000000000000000000000000000000000000000000000000000000000000000000000000000000
00000000000000000000000000000000000000000000000000000000000000000000000000000000000000000000000000000000000000000000000000000000000000000000000000000000000000000000000000000000000000000000000000000000
00000000000000000000000000000000000000000000000000000000000000000000000000000000000000000000000000000000000000000000000000000000000000000000000000000000000000000000000000000000000000000000000000000000
00000000000000000000000000000000000000000000000000000000000000000000000000000000000000000000000000000000000000000000000000000000000000000000000000000000000000000000000000000000000000000000000000000000
00000000000000000000000000000000000000000000000000000000000000000000000000000000000000000000000000000000000000000000000000000000000000000000000000000000000000000000000000000000000000000000000000000000
00000000000000000000000000000000000000000000000000000000000000000000000000000000000000000000000000000000000000000000000000000000000000000000000000000000000000000000000000000000000000000000000000000000
00000000000000000000000000000000000000000000000000000000001110000000000000000000000000000000000000000011100000000000000000000000000000000000000000000000000000000000000000000000000000000000000000000000
00000000000000000000000000000000000000000000000000000000001110000000000000000000000000000000000000000011100000000000000000000000000000000000000000000000000000000000000000000000000000000000000000000000
00000000000000000000000000000000000000000000000000000000000000000000000000000000000000000000000000000000000000110000000000000000000000000000000000000000000000000000000000000000000000000000000000000000
00000000000000000000000000000000000000000001111111111111000000000000000000000111001110000000000000000000000000000000000000000000000000000000000000000000000000000000000000000000000000000000000000000000
00000000000000000000000111000000000000011111111111111111100111000000000000000111001110000000000000000000000000000000000000000000000000000000000000000000000000000000000000000000000000000000000000000000
00000000000000000000000111100000000000111111111011111111111111100000000000000000000000000000000000000000000110000000000000000000000000000000000000000000000000000000000000000000000000000000000000000000
00000000000000000000000011110000000000111111111011111111111111110000000000000000000000000000000000000000111111110000000000000000000000000000000000000000000000000000000000000000000000000000000000000000
00000000000000000000000001110000001110111111111111110111111111111000000000000000000000000000000000000001111111111001111000000000000000000000000000000000000000000000000000000000000000000000000000000000
00000000000000000000000000000000001110011111111111110111111111111100000111111110000000000000000000011111111011111111111111110000000000000000000000000000000000000000000000000000000000000000000000000000
00000000000000000000000000000000000000011111111111111111111110111110001111111111110000000000000000011111111011111111101111111000000000000000000000000000000000000000000011100000000000000000000000000000
00000000000000000000000000000000000000011111111111100111111110111110001111111111111111000000000000111111111111111111000111111110000000000000000000000000000000000000000011100000000000000000000000000000
00000000000000000000000000000000000000011111111111000011111111111110001111111111111110001000000000001111111111111110000111111111000000000000000000000000000001000000000000000000000000000000000000000000
00000000000000000000000000000000000000011100000000000001111111111110011111111111111110011110000000001111111111111111001111111111100000010000000000000000000111000000010000000000000000000000000000000000
00000000000000000000000000000000000000000000000000000000111111111110011111001111111001111111000000111111111111111111111111111111110000010000000000000000000000000000110000000000000000000000000000000000
00000000000000000000000000000000000000000000000000000000011110011111011110000111111011111111110000111111110111110000001111111111111000000000000000110110000000000011111000000000000000000000000000000000
00000000000000000000000000000000000000000000000000000000011100011111011110000011111111111111111000111111110111000000000111111111111100000000000011111111110000000111111100000000000000000000000000000000
00000000000000000000000000000000010000000000000000000000011100111110011110000000001111111111111000011111111111000000000011111111111100000000000000001111001111111111110000000000000000000000000000000000
00000000000000000000000000000000010001110000000000000000011111111110001100000000000001111111111000011111111111000000000001111111111110000000100000000110001111111111100000000000000000000000000000000000
00000000000000000000000000011100000000000000000000000000011111111110000000000000000000111111111100011111111111000000000001111111111110000001111111100000011111111111000000000000000000000000000000000000
00000000000000000000000000011100000000000000000000000000011111111100000000000000000000111111111100001111111111100000000000111111111111000011111111000001111111111110000000000000000000000000000000000000
00000000000000000000000000001000000000000000000000000000111111111100000000000000000000011111111100000000011111100000000000111111111111000001111110000111111111111110000000000000000000000000000000000000
00000000000000000000000000011100000000000000000000000000111111111100000000000000000000011111111000000000001111100000000000111101111111000011111111111111111101111100000000000000000000000000000000000000
00000000000000000000000000011100000000000000000000111001111111111100000000000000000000111111111000000000011111000000000001111101111111001111111111111111110000111100000000111000000000000000000000000000
00000000000000000000000000001110000000011100000000111001111111111111111111111111100001111111110000000000111111100111111111111111111111001111111111111100000000111000000000111000000000000000000000000000
00000000000000000000000000001110000000011100000000000011111111111111111111111111111111111111110000000001111111111111111111111111111111111111111111100000000000000000000000000000000000000000000000000000
00000000000000000000000000000000000000000000000000000111111111111111111111111111111111111111100100011111111111111111101111111111111111111101111100000000000000000000000000000000000000000000000000000000
00000000000000000000000000000000000011100000000000000111111111111111111111111111111111101111100100111111111111101111101111111111110111111100110000000000000000000000000000000000000000000000000000000000
00000000000000000000000000000000000011100000000000001111111111000000000000000000001111000111110001111111111111101111111111111111110111111111000000000000000000000000000000000000000000000000000000000000
00000000000000000000000000000000000000000000000111111111111110000000000000000000001110001110000000111111111111111111111111111111111111111111101111111000010000000000000000000000000000000000000000000000
00000000000000000000000000000000000000000000001111111111111100000000000000000000011111001100000000111111111111111111111111111111100001111111111111111111110000000000000000000000000111000000000000000000
00000000000000000000000000000000000000000001111111111111100000000000000000000000011111110000000000111111111111111111111101111111100001111111111111111111111000000000000000000000000111000000000000000000
00000000000000000000000000000000000000000011111111111111000000000000000000000000111111110000000000111111111111100000000000111111110001111111100000001111111100000000000000000000000000000000000000000000
00000000000000000000000000000000000000000111111111111111000000000000000000000001111111110000000000111111111110000000000001111111111001111110000000000011111100000000000000000000000000000000000000000000
00000000000000000000000000000000000000111111111111111111000000000000000000000011111111000000000000011111111100000000000000111111111111111110000000000001111000000000000000000000000000000000000000000000
00000000000000000000011100000000000001111110111111111110000000011100000000000011111110000000000000011110111110000000000000111111111111111100000000000001111000000000000000000000000000000000000000000000
00000000000000000000011100000000000001111110111111111000000000011100000000000111111000000000000000111110111111000000000000011111111111111100000000000001111110000000000000000000000000000000000000000000
00000000000000000000000000000000000000111111111001110000000000000000000000000111110000000000000000111111111111000000000000011111111111111100000000000001111110000000000000000000000000000000000000000000
00000000000000000000000000000000001000111111110000110000000000000000000000000111111000000011110000011111111111000000000000001111111101111100000000000011111110000000000000000000000001000000000000000000
00000000000000000000000000000000011111001111110011000000000000000000000000001111111000001111110000011111111111000000000000000011111101111000000000000011110000000000000000000000000001000000000000000000
00000000000000000000000000000000111110011111111110000000000000000000000000000111111000001111111000011111101111000000000000000011111111111000000000000011110000000000000000000000000000000000000000000000
00000000000000000000000000000000011100011111111111000000000000000000000000001111111110001111111000001111000111100000000000001111111111111000000000000111111000000000000000000000000000000000000000000000
00000000000000000000000000000000001000011111111111111000000000000011100000011111111100001111111111000110001111111110000000001111111001111100000000000100111000000000000000000000000000000000000000000000
00000000000000000000000000000000000000011111111111111111000000000011100000111111111110011111111111000010011111111111000000010001110001111100000000000000111000000000000000000000000000000000000000000000
00000000000000000000000000000000000000011111111111111111100100000000000001111111111111111111100000000001111111111111111111111000001111111100000000000001110000000000000000000000000000000000000000000000
00000000000000000000000000000000000000011111101111111111111110000000000001111111111111111000000000000001111111111111111111111110011111111100000000011111100000000000000000000000000000000000000000000000
00000000000000000000000000000000000000011111000111111111111111100000000001111111111111000000000000000011111111101111111111111111111111111100000000111111000000000000000000000000000000000000000000000000
00000000000000000000000000000000000000000100011000011111111111100000000001111111111100000000000000000000001111101111111111111111111111111100000001111110000000000000000000000000000000000000000000000000
00000000000000000000000000000000000000000000011000011111111100000000000000111111111000000000000000000000000000111111111111111111101111111100001111111100000000000000000111000000000000000000000000000000
00000000000000000000000000000000000000000000000000111111111000000000000000111111000000111000000000000000000000111111111110111111101111111111111111111000000000000000000000000000000000000000000000000000
00000000000000000000000000000000000000000000000000011111111001000000000000011100000000111000000000000000000000000011111110111111111111111111111111100000000000000000000000000000000000000000000000000000
00000000000000000000000000000000000000000000000000001111111111000000000000011100000000000000000000000000000000000000011111111111110011111111110010000000000000000000000000000000000000000000000000000000
00000000000000000000000000000000000000000000000000001000001111000000000000001110000000000000000000000000000000000000000000001111100000001111100000000000000000000000000000000000000000000000000000000000
00000000000000000000000000000000000000000000000000000000000000000000000000001110000000000000000000000000000000001000000000000000000000000000000000000000000000000000000000000000000000000000000000000000
00000000000000000000000000000000000000000000000000000000000000000000000000000000000000000000000000000000000000001000000000000000000000000000000000000000000000000000000000000000000000000000000000000000
00000000000000000000000001110000000000000000000000000000000000000000000000000000000000000000000000000000000000000000000000000000000000000000000000000000000000000000000000000000000000000000000000000000
00000000000000000000000001110000000000000000000000000000000000000000000000000000000011100000000000000000000000000000000000000000000000000000000000000000000001110000000000000000000000000000000000000000
00000000000000000000000000000000000000000000000000000000000000000000000000000000000011100000000000000000000000000000000000000000000000000000000000000000000001110000000000000000000000000000000000000000
00000000000000000000000000000000000000000000000000000000000000000000000000000000000000000000000000000000000000000000000000000000000000000000000000000000000000000000000000000000000000000000000000000000
00000000000000000000000000000000000000000000000000000000000000000000000000000000000000000000000000000000000000000000000000000000000000000000000000000000000000000000000000000000000000000000000000000000
00000000000000000000000000000000000000000000000000000000000000000000000000000000000000000000000000000000000000000000000000000000000000000000000000000000000000000000000000000000000000000000000000000000
00000000000000000000000000000000000000000000000000000000000000000000000000000000000000000000000000000000000000000000000000000000000000000000000000000000000000000000000000000000000000000000000000000000
00000000000000000000000000000000000000000000000000000000000000000000000000000000000000000000000000000000000000000000000000000000000000000000000000000000000000000000000000000000000000000000000000000000
00000000000000000000000000000000000000000000000000000000000000000000000000000000000000000000000000000000000000000000000000000000000000000000000000000000000000000000000000000000000000000000000000000000
