P1
200 70
00000000000000000000000000000000000000000000000000000000000000000000000000000000000000000000000000000000000000000000000000000000000000000000000000000000000000000000000000000000000000000000000000000000
00000000000000000000000000000000000000000000000000000000000000000000000000000000000000000000000000000000000000000000000000000000000000000000000000000000000000000000000000000000000000000000000000000000
00000000000000000000000000000000000000000000000000000000000000000000000000000000000000000000000000000000000000000000000000000000000000000000000000000000000000000000000000000000000000000000000000000000
00000000000000000000000000000000000000000000000000000000000000000000000000000000000000000000000000000000000000000000000000000000000000000000000000000000000000000000000000000000000000000000000000000000
00000000000000000000000000000000000000000000000000000000000000000000000000000000000000000000000000000000000000000000000000000000000000000000000000000000000000000000000000000000000000000000000000000000
00000000000000000000000000000000000000000000000000000000000000000000000000000000000000000000000000000000000000000000000000000000000000000000000000000000000000000000000000000000000000000000000000000000
00000000000000000000000000000000000000000000000000000000000000000000000000000000000000000000000000000000000000000000000000000000000000000000000000000000000000000000000000000000000000000000000000000000
00000000000000000000000000000000000000000000000000000000000000000000000000000000000000000000000000000000000000000000000000000000000000000000000000000000000000000000000000000000000000000000000000000000
00000000000000000000000000000000000000000000000000000000000000000000000000000000000000000000000000000000000000000000000000000000000000000000000000000000000000000000000000000000000000000000000000000000
00000000000000000000000000000000000000000000000000000000000000000000000000000000000000000000000000000000000000000000000000000000000000000000000001110000000000000000000000000000000000000000000000000000
00000000000000000000000000000000000000000000000000000000000000000000000000000000000000000000000000000000000000000000000000000000000000001110000001110000000000000000000000000000000000000000000000000000
00000000000000000000000000000000000000000000000000000000000000000000000000000000000000000000000000000000000000000000000000000000000000001110000000000000000000000000000000000000000000000000000000000000
00000000000000000000000000000000000000000111000000000000000000001110000000000000000000000000000000000000000000000000000000000000000000000000000000000000000000000000000000000000000000000000000000000000
00000000000000000000000000000000000000000111000000000000000000001100000000000000000000000000000000000000000000000000000000000000000000000000000000000000000000000000000000000000000000000000000000000000
00000000000000000000000000000000000000000000000000000000000000000000000000000000000000000000000000000000000000000000000000000000000000000000000000000000000000000000000000000000000000000000000000000000
00000000000000000000000000000000000000000000000000000000000000000000000000000000000000000000000000000000000000000000000000000000000000000000000000001000000000000000000000000000000000000000000000000000
00000000000000000000000000000000000000000000000000111100000000000000000000000000000000000000000000000000000000000000000000000000000000000000000000111000000000000000000000000000000000000000000000000000
00000000000000000000000000000000000000000000011111111110000000000000000000000000000000000000000000000000000000000000000000000000000000000000000000000000000000000000000000000000000000000000000000000000
00000000000000000000000000000000000000001111111111111110000000000000000000000000000000000000000000000000000000000000000000000000000011100000000000000000000000000000000000000000000000000000000000000000
00000000000000000000000000000000000000000111111111111111000000000000000000000000000000000000000000000000000000100011100000000000000011100000000000000001111111100000000000000000000000000000000000000000
00000000000000000000000000000000000000001111111111100111000000000001110000000111111000000000000000000000000000100001111110000000000000000000000000001111111111111000011100000000000000000000000000000000
00000000000000000000000000000000000000011111111100000011100000000001110000111111111110000000000000000000111000110011111100000000000000000000000000011111111110111100011100000000000000000000000000000000
00000000000000000000000000000000001000111111111000000111111111100000001111111111111111000000000000000000111101111111111101100010000000000000000001111111111110111110000000000000000000000000000000000000
00000000000000000000000000000000011101111111000000011111100111100000011100011111111111100000000000000000011111111111111111111110000000000000000011111111011111111110000000000000000000000000000000000000
00000000000000000000000000000000111111111110000000011111000000000001111100000000000111100000000000000000011111111111111111100000000000000000000111111110001111111111011100000000000000000000000000000000
00000000000000000000000000000000011111111100000000011111100000000011111000000000000011100000000000000000011111111001111111000000000000000000111111111000001111111111111100000000000000000000000000000000
00000000000000000000000000000000001111111000000000011111100000000111110000000000000011100000000000000000000000000000111110000000000000000001111111110011100111111111100000000000000000000000000000000000
00000000000000000000000000000000000111110000000000011111100000000011100000000000000111000000000000000000000000000000011111000000000000000001111111110011000111111111100000000000111000000000000000000000
00000000000000000000000000000000000111111000000000001111000000000000000000000000000111000000000000000000000000000000001111110000000000000011111111100000000111111111100000000000000000000000000000000000
00000000000000000000000000000000000111111100000000001111000000000000000000000000000111000000000000000000000000000000001111110000000000000111110111100000000111111111100000000000000000000000000000000000
00000000000000000000000000000000000011111111000000011111111000000000000000000000001111000000000000000000000000000000001111110000000000001111110111000000000111110111100000000000000000000000000000000000
00000000000000000000000000000000000001111111100000011111111000000000000000000000011110000000000000000000000011100000000011110000000000011111111111000000000111110111100000000000000000000000000000000000
00000000000000000000000000000000000000011111111000111110000000000000000000001110111100000000000000000000000011100000010011110000011100011111111111000000000111111111100000000000000000000000000000000000
00000000000000000000000000000000000000000111111101111100000000000000000000011111111000000000000000000000000111111111111111100000011100111111111111000000000111111111110000000000000000000000000000000000
00000000000000000000000000000000000000000011111111111100000000000000000001111111110000000000000000000000001111111111111111000000000000111111111111000000000111111111110000000000000000000000000000000000
00000000000000000000000000000000000000000000111111111100000000000000000001111111110000000000000000000000011111111111111111000000000000111111111110000000000011111111110000000000000000000000000000000000
00000000000000000000000000000000000000000000001111111110000000000000000001110111110000000000000000000000011111111111111110000000000001111111111110000000000111111111110000000000000000000000000000000000
00000000000000000000000000000000000000000000000111111111110000000000000000000000001100000000000000000000001111111011111000000000000011111111111100000000001111111111110000000000000000000000000000000000
00000000000000000000000000000000000000000000000111111111111111000000000000000000011110000000000000000000000111111011000000000000000011111111111100000000001111001001110000000000000000000000000000000000
00000000000000000000000000000000000000000000000111111100000111100111111111111111111111100111111111111000000001111111000000000000000111111111111000000000001111000000110000000000000000000000000000000000
00000000000000000000000000000000000000000000011111000000000011111111111111111111111111111001111111111111111111111111100000000000001111111111111000011100001111110001100000000000000000000000000000000000
00000000000000000000000000000000000000000000111111000000000011111111111111111111111111111101111111111111111111111111110000000000001111111111111000011100011111111111100000000000000000000000000000000000
00000000000000000000000000000001110001110000111110000000000000000011000111111111111111111111110011111111111111111111111111000000001111111111111000000000011101111111100000000000000000000000000000000000
00000000000000000000000000000001110001110001111100000000000000000000000000000000011111100001110000000000001111111111111111100000001111111111111000000000011101111111110000000000000000000000000000000000
00000000000000000000000000000000000000000001111100000000000000000000000000000000001111000001111100000000000000011111111111111111011111111111111000000000011111111111110000000000000000000000000000000000
00000000000000000000000000000000000000000011111000000000000000000000000000000000011110000001111100000000000000010011111111111111111101111111110000000000011111111111110000000000000000000000000000000000
00000000000000000000000000000000000000000111110000000000000000000000000000000000011110000011111110000000000000111011110000011111111101111111110000000000011101111111110000000000000000000000000000000000
00000000000000000000000000000000000000001111110000000000000000000000000000000000111100000011111111100000000000111111100000000011111111111101110000000000011101111111110001100001110000000000000000000000
00000000000000000000000000000000000000011111100000000000001100000000000000000001111100000001111111111111100001001111000000000001111111111100100000000000111111110111100011100001110000000000000000000000
00000000000000000000000000000000000000011111000000000000011111000000000000000111111000000000111111111111110001101110000000000000111111111110000000000000111111110111100000000000000000000000000000000000
00000000000000000000000000000000000000011111000000000000011111110000000000111111110000000000011111111101110001111110000000000000111111111111000000000000100111111111100000000000000000000000000000000000
00000000000000000000000000000000000000111110000000000000001111111110000001111111000000000000000111111101100011111100000000000000000111111111111000000000100011011111000000000000000111000000000000000000
00000000000000000000000000000001110000111100000000000000000111111111111111111100000000000000000001111111110111111000000000000000100111111111111110000000000111011111000000000000000001000000000000000000
00000000000000000000000000000001110000111000000000000000000011111111111111111000000000000000000000111111111111110000000000000000011111111111111111000001001111111111000000000000000000000000000000000000
00000000000000000000000000000000000001111100000000000000000000000001111011000001110000000000000000000000011110000000000000000000011111111111111111110001111111111110000000000000000000000000000000000000
00000000000000000000000000000000000001111110000011111100000000000000000000000001110000000000000000000000000000000000000000000000011111111111101111111111111111111110000000000000000000000000000000000000
00000000000000000000000000000000000001111111111111111110000000000000000000000000000000000000000000000000000000000000000000000000011111111111000011111111111111111100000000000000000000000000000000000000
00000000000000000000000000000000000001111111111111111110000000000000000011100000000000000000000000000000000000000000000000000000011111111111100001111111111111111100000000000000000000000000000000000000
00000000000000000000000000000000000001111111111111111100000000000000000011100000000000000000001100000000000000000000000000000000001111111111100000011111111111111100000000000000000000000000000000000000
00000000000000000000000000000000000001111111111111111000000000000000000000000000000000000000001110000000000000000000000000000000000111111111110000001111111110111000000000000000000000000000000000000000
00000000000000000000000000000000000000000000000000000000000000000000000000000000000000000000000000000000000000000000000000000000000001111101111111111111111110110000000000000000000000000000000000000000
00000000000000000000000000000000000000000000000000000000000000000000000000000000000000000000000000000000000000000000000000000000000000011000111111111111111111111001110000000000000000000000000000000000
00000000000000000000001110000000000000000000000000000000000000000000000000000000000000000000000000000000000000000000000000000000000000000000111111111110111111111111110000000000000000000000000000000000
00000000000000000000001110000000000000000000000000000000000000000000000000000000000000000000000000000000000000000000000000000000000000000000111111111110011111111111000000000000000000000000000000000000
00000000000000000000000000000000000000000000000000000000000000000000000000000000000000000000000000000000000000000000000000000000000000000000000011111111000000111111000000000000000000000000000000000000
00000000000000000000000000000000000000000000000000000000000000000000000000000000000000000000000000000000000000000000000000000000000000000000000000111000000000011111110000000000000000000000000000000000
00000000000000000000000000000000000000000000000000000000000000000000000000000000000000000000000000000000000000000000000000000000000000000000000000000000000000001111111000000000000000000000000000000000
00000000000000000000000000000000000000000000000000000000000000000000000000000000000000000000000000000000000000000000000000000000000000000000000000000000000000000111111100000000000000000000000000000000
00000000000000000000000000000000000000000000000000000000000000000000000000000000000000000000000000000000000000000000000000000000000000000000000000000000000000000001111000000000000000000000000000000000
00000000000000000000000000000000000000000000000000000000000000000000000000000000000000000000000000000000000000000000000000000000000000000000000000000000000000000000111000000000000000000000000000000000
