P1
200 70
00000000000000000000000000000000000000000000000000000000000000000000000000000000000000000000000000000000000000000000000000000000000000000000000000000000000000000000000000000000000000000000000000000000
00000000000000000000000000000000000000000000000000000000000000000000000000000000000000000000000000000000000000000000000000000000000000000000000000000000000000000000000000000000000000000000000000000000
00000000000000000000000000000000000000000000000000000000000000000000000000000000000000000000000000000000000000000000000000000000000000000000000000000000000000000000000000000000000000000000000000000000
00000000000000000000000000000000000000000000000000000000000000000000000000000000000000000000000000000000000000000000000000000000000000000000000000000000000000000000000000000000000000000000000000000000
00000000000000000000000000000000000000000000000000000000000000000000000000000000000000000000000000000000000000000000000000000000000000000000000000000000000000000000000000000000000000000000000000000000
00000000000000000000000000000000000000000000000000000000000000000000000000000000000000000000000000000000000000000000000000000000000000000000000000000000000000000000000000000000000000000000000000000000
00000000000000000000000000000000000000000000000000000000000000000000000000000000000000000000000000000000000000000000000000000000000000000000000000000000000000000000000000000000000000000000000000000000
00000000000000000000011100000000000000000000000000000000000000000000000000000000000000000000000000000000011100000000000000000000000000000000000000000000000000000000100000000000000000000000000000000000
00000000000000000000011100000000000000000000000000000000000000000000000000000000000000000000000000000000011100000000000000000000000000000000000000000000000000000001110000000000000000000000000000000000
00000000000000000000000000000000000000000000000000000000000000000000000000000000000000000000000000000000000000000000000000000000000000000000000000000000000000000001111100000000000000000000000000000000
00000000000000000000000000000000000000000000000000000000000000000000000000000000000000000000000000000000000000000000000000000000000000000000000000000000000000000011111000000000000000000000000000000000
00000000000000000000000000000000000000000000000000000000000000000000000000000000000000000000000000000000000000000000000000000000000000000000000000000000000000000011111000000000000000000000000000000000
00000000000000000000000000000000000000000000000000000000000000000000000000000000000000000000000000000000000000000000000000000000000000000000000000000000000000000111110000000000000000000000000000000000
00000000000000000000000000000000000000000000000000000000001110000000000000000000000000000000000000000000000000000000000000000000000000000000000000000000000000001111100000000000000000000000000000000000
00000000000000000000000000000000000000000000000000000000001110000000000000011111100000000000000000000000000000000000000000000000000000000000000000000000000000001111100000000000000000000000000000000000
00000000000000000000000000000000000000000000000000000000000000000000001111111111111110000000000000000000000000000000000000000000000000000000000000000000000000011111000000000000000000000000000000000000
00000000000000000000000000000000000000000000000000000000000000000000011111111111111111000001110000000000000000000000000011111000000000000000000000000000000000011111000000000000000000000000000000000000
00000000000000000000000000000000000000000000000000000000000011100000111111100111111111100001110000000001111111111111100011111100000000000000000000000000000000111110000000000000000000000000000000000000
00000000000000000000000000000000000000000000011110000000000011100000111111000001111111110000000000000001111111111111111100111111000000000000000000000011100001111110000000000000000000000000000000000000
00000000000000000000000000000000000000000000011111111100000000000000011111000000111111110000000000000001110011111111110000111111000000000000000000000011100011111111000000000000000000000000000000000000
00000000000000000000000000000000000000000000000111111111100000000000011110000000011111110000000000000000000011111111110011111111000000000000000000000001111111111111110000000000000000000000000000000000
00000000000000000000000000000000000000000000100111111111110000000000001110000000011111100000000000000000000111111111111111111111000000000000000000000001111111111111110000000000000000000000000000000000
00000000000000000000000000000001110000000000111111100011111000000000001111000000001111100000000000000000000000000000000000111100000000000000000000001111111110111111110000000000000000000000000000000000
00000000000000000000000000000001110000000001111110000001111100000000001110000000001111111100000000000000000000000000000001111100000000000000000000111111111100011111100000000000000000000000000000000000
00000000000000000000000000000000000000000111111100000000111110000000001110000000000111111100000000000000000000000000000001111110000000000000000011111111111110011111100000000000000000000000000000000000
00000000000000000000000000000000000000000111111000000000011110000000001100000000000111110000000000000000000000000000000001111110000000000000000011111111111110011111100000000000000000000000000000000000
00000000000000000000000000000000000000000011111000000000011111000000000100000000000111100000000000000000000000000000000011111100000000000000001111111111111100000010000000000000000000000000000000000000
00000000000000000000000000000000000000000000110000000000001111100000000000000000000111100000000000000000000000000000000011111100000000000000011111111001111000000000000000000000000000000000000000000000
00000000000000000000000000000000000000000000000000000000001111110000000000000000000111110000000000000000000000000000000111111000000000000000111100110000111000000000000000000000000000000000000000000000
00000000000000000000000000000000000000000000010000000000001111110000000000000010001111111000000000000000000000000000000111111000000000000000111000011001110000000000000000000000000000000000000000000000
00000000000000000000000000000000000000000000010000000000001111110000000000001110001111110000000000000000000000000000001111110000000000000001111100111111100000000000000000000000000000000000000000000000
00000000000000000000000000000000000000000000000000000000001111110000000111000000111111110000000000000000000000000000001111110000000000000011111111111110000000000000000000000000000000000000000000000000
00000000000000000000000000000000000000011100000000000000011111110000000111000011111111111100000000000000000000000000011111100000000000000111111111111100000000000000000000000000000000000000000000000000
00000000000000000000000111000000000000011100000000000000011111100000000000000111111111111110000000000000000000000000111111100000000000001111111111111000000000000000000000000000000000000000000000000000
00000000000000000000000111000000010000011000001110000000000111100000000000000111111111111111000000000000000000000000111111000000000000011111111111000000000000000000000000000000000000000000000000000000
00000000000000000000000000000000011111111000001110000000100111100000000001110000111111111110000000000000000000000000111111000000000000011111111111000011111000000000000000000000000000000000000000000000
00000000000000000000000000000000011111111111001110000001111111000000000011110000000001111110010000000000000000000001110110000000000000011111111111111111111000000000000000000000000000000000000000000000
00000000000000000000000000000000011111111111111111100011111110000000000111100000000000111111111000000000000000000001110010000000000000011110111111111111111100100000000000000000000000000000000000000000
00000000000000000000000000000000000000011100111111111111111100000001110111000000000000011111111000000000000000000011111100000000000000011110111111111111111111110000000000000000000000000000000000000000
00000000000000000000000000000000000000000000011111111110111110000001110000000000000000011111111000000000000000000011111100000000000001111111111110111111111111111000000000000000000000000000000000000000
00000000000000000000000000000000000000000000000111111110111111000000000000000000000000001111111000000000000000000011111100000000000011111111111100011111101111111100000000000000000000000000000000000000
00000000000000000000000000000000000000000000000010011111111111111110000000000000000000001111111100000000000000000111111000000000011111111111000011111111000111111100000000001110000000000000000000000000
00000000000000000000000000000000000000000000000110011110011111111111111111000000000000001111111100000000000000000111110000000000111101111100000000000000001111111100000000001110000000000000000000000000
00000000000000000000000000000000000000000000001111111000000011111111111111111000100000000111111100000000000000000111100000111001111001111100111000000000001111111100000000000000000000000000000000000000
00000000000000000000000000000000000000000000001100000000000000000011111111111101111111111111111111000000000000001111111111111111110011111111110000000000001111111100000000000000000000000000000000000000
00000000000000000000000000000000000000000000011000000000000000000000000001111111111111111111111111111111111111111111111111111110000011111111100000000000001111111100000000000000000000000000000000000000
00000000000000000000000000000000000000000011111000000000000000000000000000011110111111111111111111111111111111111111111111110000000011111111100000000000001111111100000000000000000000000000000000000000
00000000000000000000000000000000000000000111111000000000000000000000000000011100000000111111111111111111111111111111111110000000000011111111000000000000001111111100000000000000000000000000000000000000
00000000000000000000000000000000000000011111110000000000000000000000000000011110000000011111111111111111111110011111110000000000000011111111000000000000000111111100000000000000000000000000000000000000
00000000000000000000000000000000000000111111000000000111000000000000000000011110000000001111100000000000000000011111110000000000000011111000000000000000000111111100000000000000000000000000000000000000
00000000000000000000000000000000000001111110000000000111100000000000000000001111000000011110000000000000000000111111110000000000000111111000000000000000001111111100000000000000000000000000000000000000
00000000000000000000000000000000000011111000000000000111100000000000000111001111101111111100000000000000000000111111110000000000000111111100000000000000001111111000000000000000000000000000000000000000
00000000000000000000000000000000001111110000000000001111100000000000000110001111111111111011100000000000000000111111110000000000000111111100000000000000011111111000000000000000000000000000000000000000
00000000000000000000000000000000011111111111111111111111000000000000000000000111111111100001100000011100000000111111110000000000000111111100000000000000000111111000000000000000000000000000000000000000
00000000000000000000000000000000111111111111111111111111000000000000000000000111111110000000000000011100000000111111110000000000000111111100000000000000000001111100000000000000000000000000000000000000
00000000000000000000000000000001111111111110011111111110000000000000000000000111111100000000000000000000000000011111100000000000000111111110000000000000111001111110000000000000000000000000000000000000
00000000000000000000000000000001111111100000011111111110000000000000000000000001100000000000000000000000000000011111100000000000000011111110000000000000011111101110000000000000000000000000000000000000
00000000000000000000000000000011111111000001111111111110000000000000000000000000000000000000000000000000000000000110000000000000000011111110000000000010011111100000000000000000000000000000000000000000
00000000000000000000001110000011111000000000000111000000000000000000000000000000000000000000000000000000000000000000000000000000000111111111000000000111111111000000000000000000000000000000000000000000
00000000000000000000001110000000000000000000000111000000000000000000000000000000000000000000000000011000000000000000000000000000000011111111111000011111111110000000000000000000000000000000000000000000
00000000000000000000000000000000000000000000000111001110000000000000000000000000000000000000000000011000000000000000000000000000000001111111111111111111111100011100000000000000000000000000000000000000
00000000000000000000000000000000000000000000000000001110000000000000000000000000000000000000000000000000000000000000000000000000000001111111111110011111011100011100000000000000000000000000000000000000
00000000000000000000000000000000000111000000000000000000000111000000000000000000000000000000000000000000000000000000000000000000000000111110111100001111000000000000000000000000000000000000000000000000
00000000000000000000000000000000000111000000000000000000000111000000000000000000000000000000000000000000000000000000000000000000000000011100111110011111100000000000000000000000000000000000000000000000
00000000000000000000000000000000000000000000000000000000000000000000000000000000000000000000000000000000000000000000000000000000000000000111111111111111000000000000000000000000000000000000000000000000
00000000000000000000000000000000000000000000000000000000000000000000000000000000000000000000000000000000000000000000000000000000000000000000011111111000000000000000000000000000000000000000000000000000
00000000000000000000000000000000000000000000000000000000000000000000000000000000000000000000000000000000000000000000000000000000000000000000000000000000000000000000000000000000000000000000000000000000
00000000000000000000000000000000000000000000000000000000000000000000000000000000000000000000000000000000000000000000000000000000000000000000000000000000000000000000000000000000000000000000000000000000
00000000000000000000000000000000000000000000000000000000000000000000000000000000000000000000000000000000000000000000000000000000000000000000000000000000000000000000000000000000000000000000000000000000
00000000000000000000000000000000000000000000000000000000000000000000000000000000000000000000000000000000000000000000000000000000000000000000000000000000000000000000000000000000000000000000000000000000
