P1
200 70
00000000000000000000000000000000000000000000000000000000000000000000000000000000000000000000000000000000000000000000000000000000000000000000000000000000000000000000000000000000000000000000000000000000
00000000000000000000000000000000000000000000000000000000000000000000000000000000000000000000000000000000000000000000000000000000000000000000000000000000000000000000000000000000000000000000000000000000
00000000000000000000000000000000000000000000000000000000000000000000000000000000000000000000000000000000000000000000000000000000000000000000000000000000000000000000000000000000000000000000000000000000
00000000000000000000000000000000000000000000000000000000000000000000000000000000000000000000000000000000000000000000000000000000000000000000000000000000000000000000000000000000000000000000000000000000
00000000000000000000000000000000000000000000000000000000000000000000000000000000000000000000000000000000000000000000000000000000000000000000000000000000000000000000000000000000000000000000000000000000
00000000000000000000000000000000000000000000000000000000000000000000000000000000000000000000000000000000000000000000000000000000000000000000000000000000000000000000000000000000000000000000000000000000
00000000000000000000000000000000000000000000000000000000000000000000000000000000000000000000000000000000000000000000000000000000000000000000000000000000000000000000000000000000000000000000000000000000
00000000000000000000000000000000000000000000000000000000000000000000000000000000000000000000000000000000000000000000000000000000000000000000000000000000000000000000000000000000000000000000000000000000
00000000000000000000000000000000000000000000000000000000000000000000000000000000000000000000000000000000000000000000000000000000000000000000000000000000000000000000000000000000000000000000000000000000
00000000000000000000000000000000000000000000000000000000000000000000000000000000000000000000000000000000000000000000000000000000000000000000000000000000000000000000000000000000000000000000000000000000
00000000000000000000000000000000000001110000000000000000000000000000000000000000000000000000000000000000000000000000000000000000000000000000000000000000000000000000000000000000000000000000000000000000
00000000000000000000000000111000000001110000000000000000000000000000000000000000000000000000000000111000000000000000000000000000000000000000000000000000000000000000000000000000000000000000000000000000
00000000000000000000000000111000000000000000000000000000000000000000000000000000001111100000000000111000000000000000000000000000000000000000000000000000000000000000000000000000000000000000000000000000
00000000000000000000000000000000000000000000000000000000000000000000000000000011111111111000000000000000000000000000000000000000000000000000000000000000000000000000000000000000000000000000000000000000
00000000000000000000000000000000000000000000000000000000000000000000000000001111111111111100000000000000000000000000000000000000000000000000000000000100000000000011100000000000000000000000000000000000
00000000000000000000000000000000000000000000000000000000000000000000000001111111111011111110000000000000000000000000000000000000000000000000000000011110001100000011000000000000000000000000000000000000
00000000000000000000000000000000000000000000000000000000000000000000000001111111111011111110000000000000000000000000000000000000000000000000000001111111111110000000000000000000000000000000000000000000
00000000000000000000000000000000000000000000000000000000000000000000110011111111111111111110000000000000000000000000000000000000000000000000011000111101111111000000000000000000000000000000000000000000
00000000000000000000000000000000000000000000000000000000000000000011111111111111111111111111000000000000000000111111111000000000000000000000011101111101111111100000000000000000000000000000000000000000
00000000000000000000000000000111000000000000000000000000000000001111111111111111111111111110000000000000000011111111111111100000000000000000011111111111111111110000000000000000000000000000000000000000
00000000000000000000000000000111000000000000000000000000000000011001111101111111111111111110000000000000000111111111111111110000000000000001111111111111111111100000000000000000000000000000000000000000
00000000000000000000000000000000000000000100000000111000000001111101111101111111111111111110000000000000000001111111111111111100000000000011111111111111111111110000000000000000000000000000000000000000
00000000000000000000000000000000000000001111100000111000000001111111111111111111111111111110000000000000000000111111111111111111000000000111111011100000110011111110000000000000000000000000000000000000
00000000000000000000000000000000000011111111111111110000000001111111111110011111111111111110000000000000011000111111001111111111000000000111110001000000000011111110000000000000000000000000000000000000
00000000000000000000000000000000000111111111111111110000000001111111011100000111111111111110000000000000000111001110001111111111100000001111100100000000000011111110000000000100000000000000000000000000
00000000000000000000000000000000001111111111111111111000000001111111001000000111111111111100000000001111001111101111111111111111100000001111000000000000000011111111000000011100000000000000000000000000
00000000000000000000000000000000001111111111111111110000000001111111000000000000011111111100111111111111111111111111111111111111110000001111000000000000000011111111100000000000000000000000000000000000
00000000000000000000000000000000011111111111111111110111000001111100000000000000111100111110011111111111111111111111111111111101111000001111100000000000000001111111100000000000000000000000000000000000
00000000000000000000000000000000011111111111111111111111100001111000000000000000111000011000001111111001111111111000000011111101111100001111111000000000000001111011100000000000000000000000000000000000
00000000000000000000000000000000011111111100000001111111110000010000000000011000011100111001110000000000001111000000000000011111111111011111111000000000000000111011100000000000000000000000000000000000
00000000000000000000000000000000000111111000000000111111110000000000000000011110011111111100000000000001001111000000000000001111111111111111111000000000000000111111100000000000000000000000000000000000
00000000000000000000000000000000000111110000000000011111111000000000000000011111111111100000000000000001111111000000000000001111111111111111111000000000000000111111110000000000000000000000000000000000
00000000000000000000000000000011111111110000000000011111111000000000000011111111111111000000000000000001111111000000000000001111111111111111111000000000000000011111110000000110000000000000000000000000
00000000000000000000000000000011100001100000000000001111111000000000001111111111111100000000000000000001111111000000000000001111111111111111111100000000000000001111110000000110000000000000000000000000
00000000000000000000000000000000000000000000000000001111111000000001111111111111111100000000000000000001111011000000000000001111111111111111111100000000000000000111100000000000000000000000000000000000
00000000000000000000000000000000000000000000000000011111111000000111111111111111111100000000000000000001111011100000000000001110011110011111111100000001111000000111110000001000000000000000000000000000
00000000000000000000000000000000000000000000000000011111111000111111111111111111111111000000000000000000111111100000000000011110001110001111111100000001111100001111111000001110000000000000000000000000
00000000000000000000000000000000000000000000000001111111111111111111111101111111111011100000000000000000111111110000000000111111001110000111111110000011111110001111111000000000000000000000000000000000
00000000000000000000000000000000010000000000000111111111111111111111111000111111111011110000000000000000011111111000000001111011111110000111111111000111111000000111111000000000000000000000000000000000
00000000000000000000000000000000011111111111111111111111111111110000110001111111111111110000000000000000011111111111111111111011111110000111111111100111111000000111111000000000000000000000000000000000
00000000000000000000000000000000011111111111111111111100111110000000111000011111111111111000000000000000011111111111111111111111111100000011111111111111111111000011111100000000000000000000000000000000
00000000000000000000000000000000011111111111111111111100000000000000111110001111111111111000000000000000001111111111111101111111111100000011111111111111111111000011111100000000000000000000000000000000
00000000000000000000000000000000000000011111111111111100000000000000111110000111111111111000000000000000000111111111111100111111111100000011111111111111111110000111111100000000000000000000000000000000
00000000000000000000000000000000000000000001111111111100000000000000111000000001111111111000000000000000000011111111111111100111111100000011111111111111111100000111111100000000000000000000000000000000
00000000000000000000000000000000000000000000111111111000000000000000000000000001111111111000000000000000000000011111111110000111111100000001111111111111111000000111111100000000000000000000000000000000
00000000000000000000000000000000000000000001111111100000000000000000000000000001111111111000000000000111000000000110000000000111111000000000111111111001110000000111111100000000000000000000000000000000
00000000000000000000000000000000000000001111111111000000000000000000000000000000111111110000000111000111000000000000000000001111111000000000111111100001110000000111111110000000000000000000000000000000
00000000000000000000000000000000000000001111111111000000000000000000000000000000111111100000000111000000000000000000000000001111111000000000111111110011111100000011111111000000000000000000000000000000
00000000000000000000000000000000000000000111111110000000111111000000000000000000111111110000000000000000000000000000000000011111110000000000111111110001111110000011111111000000000000000000000000000000
00000000000000000000000000000000000001110111111000000001111111000000000000000000011111110000000000000000000000000000000000111111110000000000011111110000111111000011111110011100000000000000000000000000
00000000000000000000000000000000000011111111110000000011111111000000000000000000111111100000000000000000000000000000000000111111100000000000011111100000011111000011111110011100000000000000000000000000
00000000000000000000000000000000000011111111000001111111111111100000000000000011111111100000001110000000000000000000000000111111000000000000000111100000001111100011111100000000000000000000000000000000
00000000000000000000000000000000000111111111100111111111111111100001110000001111111111100000001100000000000000000000001100111111000000000000000011001100000111110011111110000000000000000000000000000000
00000000000000000000000000000000001111110111111110111111111111100001110000111111111111000000000000000001110000000000111111111110000000000000000111011110000011111111111110000000000000000000000000000000
00000000000000000000000000000000001111110111111100111111111111100000111011111111111110000000000000000001111111111111111111111100000000000000000011111111000011111111111110000000000000000000000000000000
00000000000000000000000000000000011111111111111001111111111111110001111111111111111110000000000000000000011111111111111111110000000000000000000011111111111000111111111100000000000000000000000000000000
00000000000000000000000000000000011111111111111011111111100011110000111111111111111100000000000000000000011111111111111111100000000000000000000000111111111000011111110000000000000000000000000000000000
00000000000000000000000000000000111111111111111111110000000001111001111111111111111000000000100000000000111111111111111110000000000000000000000000011111111000011111110011000000000000000000000000000000
00000000000000000000000000111000111111111111111000000000000001111111111111111111110000000011100000000001111111111110011100000000000000000000000000111111111111111111111111000000000000000000000000000000
00000000000000000000000000111000011111111111110000000000000011111111011111111111100000000000000000000000011111111100000000000000000000000000000000011111111111111111111000000000000000000000000000000000
00000000000000000000000000000000011111100000000000000000000011111111011111111111000000000000000000000000000000000000000000000000000000000000000000011111111111111111111000000000000000000000000000000000
00000000000000000000000000000000111111000000000000000000000011111111111111111100000000000000000000000000000000000000000000000000000000000000000000000111111111111111111000000000000000000000000000000000
00000000000000000000000000000000011000000000000000000000000001111111111111100000000000000000000000000000000000000000000000000000000000000000000000000011111101111111111100000000000000000000000000000000
00000000000000000000000000000000000000000000000000000000000000111111111111000000000000000000000000000000000000000000000000000000000000000000000000000000111101111111111100000000000000000000000000000000
00000000000000000000000000000000000000000000000000000000000000010011000000000000000000000000000000000000000000000000000000000000000000000000000000000000011111110001111110000000000000000000000000000000
00000000000000000000000000000000000000000000000000000000000000000000000000000000000000000000000000000000000000000000000000000000000000000000000000000000000000000000111000000000000000000000000000000000
00000000000000000000000000000000000000000000000000000000000000000000000000000000000000000000000000000000000000000000000000000000000000000000000000000000000000000000010000000000000000000000000000000000
00000000000000000000000000000000000000000000000000000000000000000000000000000000000000000000000000000000000000000000000000000000000000000000000000000000000000000000000000000000000000000000000000000000
00000000000000000000000000000000000000000000000000000000000000000000000000000000000000000000000000000000000000000000000000000000000000000000000000000000000000000000000000000000000000000000000000000000
00000000000000000000000000000000000000000000000000000000000000000000000000000000000000000000000000000000000000000000000000000000000000000000000000000000000000000000000000000000000000000000000000000000
