P1
200 70
00000000000000000000000000000000000000000000000000000000000000000000000000000000000000000000000000000000000000000000000000000000000000000000000000000000000000000000000000000000000000000000000000000000
00000000000000000000000000000000000000000000000000000000000000000000000000000000000000000000000000000000000000000000000000000000000000000000000000000000000000000000000000000000000000000000000000000000
00000000000000000000000000000000000000000000000000000000000000000000000000000000000000000000000000000000000000000000000000000000000000000000000000000000000000000000000000000000000000000000000000000000
00000000000000000000000000000000000000000000000000000000000000000000000000000000000000000000000000000000000000000000000000000000000000000000000000000000000000000000000000000000000000000000000000000000
00000000000000000000000000000000000000000000000000000000000000000000000000000000000000000000000000000000000000000000000000000000000000000000000000000000000000000000000000000000000000000000000000000000
00000000000000000000000000000000000000000000000000000000000000000000000000000000000000000000000000000000000000000000000000000000000000000000000000000000000000000000000000000000000000000000000000000000
00000000000000000000000000000000000000000000000000000000000000000000000000000000000000000000000000000000000000000000000000000000000000000000000000000000000000000000000000000000000000000000000000000000
00000000000000000000000000000000000000000000000000000000000000000000000000000000000000000000000000000000000000000000000000000000000000000000000000000111001110000000000000000000000000000000000000000000
00000000000000000000000000000000000000000000000000000000000000000000000000000000000000000000000000000000000000000000000000000000000000000000000000000111001110000000000000000000000000000000000000000000
00000000000000000000000000000000000000000000000000000000000000000000000000000000000000000000000011100000000000000000000000000000001110000000000000000000000001110000000000001110000000000000000000000000
00000000000000000000000000000000000000000000000000000000000000000000000000000000000000000000000000000000000000000000000000000000001110000000000000000000000000000000000000001110000000000000000000000000
00000000000000000000000000000000000000000000011100000000000000000000000000000000000000000000000100000000000000000000000000000000000000000000000000000000000000000000000000000000000000000000000000000000
00000000000000000000000000000000000000000000011100000000000000000000000000000000000000000000000111000011000000000000000000000000000000000000000000000000011100000011100000000000000000000000000000000000
00000000000000000000000000000000000000000000000000000000000000000000000000000000000000000000000000000011000000000000000100000000000000000000000000000000001100000011100000000000001110000000000000000000
00000000000000000000000000000000000000000000000011111000000000000000000000000000000000000000000000000000000000000111111111110000000000000000000000000000000000000000000000000000001110000000000000000000
00000000000000000000000000000000000000000000011111111111000000000000000000000000000000000000000000000000000000011111111111111000000000000000000000000000000000111000000000000000000110000000000000000000
00000000000000000000000000000000001000000000111111111111000000000000000000000000000000000011100000000000000000111111111111111100010000000000000000000000000000111000000000000000000111000000000000000000
00000000000000000000000000000000001110000111111111111111100000000000000000000000000000000011100000000000000001111111111111111111111000000000000000000000000000000000000000000000000011000000000000000000
00000000000000000000000000000000011111111111111111111111110000000000000000000000000000000000000000000000001111111111111111101111111110000000000000000000000000000000000000000000000000000000000000000000
00000000000000000000000000000000011111111111111100111111111000000000000000000000001111110000000000000000001111111111100111101111110000000000000000000000111111111100000000000000000000000000000000000000
00000000000000000000000000000000000111111111110000001111111000000000000000000000011111111000000000000000011111111111000001111111100000000000000000000011111111111111100000000000000000000000000000000000
00000000000000000000000000000000000001111111100000000011110000000000000000000000111111110000000001110000011111111111000000011111100111000000000000000111111111111111110000000000000000000000000000000000
00000000000000000000000000000000000000111111100000000001110000000000000000000000111111111000000001110000111111111110000000001111111111000000000000011111011111111111111000000000000000000000000000000000
00000000000000000000000000000000000000111111110000000011000110000000000000000001111111111000000000000000111111111110000000001111111111000000000000111111001110011111111100000000000000000000000000000000
00000000000000000000000000000000000000111111110000000000000110000000000000000001111101111000000000000000011111111100000000001111011111000000000001111111000000000111111100000000000000000000000000000000
00000000000000000000000000000000000000100011111000000000001110000000000000000000111101111000000000000000011111111100000000000111011111100000000001111110000000000011111100000000000000000000000000000000
00000000000000000000000000000000000000000000111100100001111100000111000000000001111111110000000000000000011111111100000000000111111111000000111011111100000000000011111110000000000000000000000000000000
00000000000000000000000000000000000000000000011111111111111100000111000000001111111111000000000000000000001111111100000000000111111111000000111111111100000000000001111110000000000000000000000000000000
00000000000000000000000000000000000000000000000011111111111100111000000000011111111111000000000000000000000001000000000000000111111111000000000111111000000000000001111110000000000000000000000000000000
00000000000000000000000000000000000000000000000000111111111100111000000000011111111111110000000000000000000000000000000000001111111110000000000111110000000000000001111100000000000000000000000000000000
00000000000000000000000000000000000000000000000000011111111110000000000000111111100111110000000000000000000000000000000000011111111100000000001111100000000000000011111000000000000000000000000000000000
00000000000000000000000000000000000000000000000000001111111111000000000001111111000111110000000000000000000000000000000000011111111100000000000011100000000000000011111100000000000000000000000000000000
00000000000000000000000000000000000000000000000000001111111111100000000011111110001111110000000000000000000000000000000000111111111100000000000011100000000000000011111100000000000000000000000000000000
00000000000000000000000000000000000000000000000011100111111111111000000011111110011111110000000000000000000000000000000001111111111000000000011111100000000000000011111100000000000000000000000000000000
00000000000000000000000000000000000000000000011111110111111111111100001001111101111111110000000000000000000000000000000011111111110000000000111111000001111100000011111100011100000000000000000000000000
00000000000000000000000000000000000000000111111111111111100111011111011001111000111111110000000000000000000000000000001111111111000000000000111111000001111110000011111000011100000000000000000000000000
00000000000000000000000000000000000000011111000001111111000010001100000111110000011111110000000000000000000000000000011001111110000000000000111111000001111110000111111000000000000000000000000000000000
00000000000000000000000000000000000001111110000000111100000000001000001111110000000111110000000000000000000000000001000001111100000000000000111111000010011110000111111000000000000000000000000000000000
00000000000000000000000000000000000011111110011111110000000000000111111111110000000111100000000000000000000000000011100111111100000000000000111110011111011110001111100000000000000000000000000000000000
00000000000000000000000001110000000111111111111000000000000000000011111110111000111111100000000000000000000000000111111111111000000000000001111110011111111100001111000000000000000000000000000000000000
00000000000000000000000001110000000011111111110000000000000000000001111110111101111111000000000000000000000000001111111111110000000000000001111110000111100000011111100000000000000000000000000000000000
00000000000000000000000000000000000111110001110000000000000000000001111111111111111111000000000000000000000000011111111111000000000000000001111100000000000000011111100000000000000000000000000000000000
00000000000000000000000000000000011111100001110000000000000000000000011111111111111111111100000000000000000000011011111110000000000000000011111110000000000000111111000000000000000000000000000000000000
00000000000000000000000000000000111111100000000000000000000000000000000000111111111111111111110000000000000000110001111100000000000001111111111111100000000000111111000000000000001110000000000000000000
00000000000000000000000000000000111111000000000000000000000000000000000000000001111111011111111110001111111111100000111100011111111110011111111111111111111000111110000000000000000010000000000000000000
00000000000000000000000000000000111111100111100000000000000000000000000000001111111111001111111111011111111111110001111110111111111111011111111111111111111100011110000000000000000000000000000000000000
00000000000000000000000000011100001111111111111000000000000000000000000000111111111111111110011111111111111111111111111111111111111111111111100001111111111110011100000000000000000000000000000000000000
00000000000000000000000000011100000011111111111100000000000000000000000000111111111011110000000000001111111111111111111111111111111111100111100000000000011111111100000000000000000000000000000000000000
00000000000000000000000000000000000000011111111110010000000000000000000001111111111011110000000000000000000001111111111111100001111111000011111000000000001111001110000000000000000000000000000000000000
00000000000000000000000000000000000000000111111111111000000000000000000000111111111111111100000000000000000000111111111111000000111111000011111100000000001000001111100000000000000000000000000000000000
00000000000000000000000000000000000000000001111111111111000000000000000000011111111111111100000000000000001110111111111110001110011111000011111100000000011100011111110000000000000000000000000000000000
00000000000000000000000000000000000000000000001111111111110000000000000000000001111111111110000000000000001110000000011001001110001111000111111100000000111110000111111100000000000000000000000000000000
00000000000000000000000000000000000000111000000011111111111100000000000000000000001111111110000000000000000000000000000000000000000000000111111110000111111110000000111000000000000000000000000000000000
00000000000000000000000000000000000000111000000000111111011110000000000000000000000001111100000000000000000000000000000000000000000000000111111111111111111000000000011000000000000000000000000000000000
00000000000000000000000000000000000000000000000000011111011110000000000000000000000000011000000000000000000000000000000000000000000000000011111111111111110000000000000000000000000000000000000000000000
00000000000000000000000000000000000000000000000000000011111110000000000000000000000000000000000000000000000000000000000000000000000000000011111111111111100011100000000000000000000000000000000000000000
00000000000000000000000000000000000000000000000000000001111110011100000000000000000000000000001110000000000000000000000000000001110000000011111111111100000011100000000000000000000000000000000000000000
00000000000000000000000000000000000000000000000000000000011110011100000000000000000000000000001110000000000000000000000000000001110000000001111111111000000000000000000000000000000000000000000000000000
00000000000000000000000000000000000000000000000000000000001110000000000000000000000000000000000000000000000000000000000000000000000000000000111111110000000000000000000000000000000000000000000000000000
00000000000000000000000000000000000000000000000000000000000000000000011100000000000000000000000000000000000000000000000011100000000000000000000010000000000000000000000000000000000000000000000000000000
00000000000000000000001110000000000000000000000000000000000000000000011100000000000000000000000000000000000000000000000000000000000000000000000000000000000000000000000000000000000000000000000000000000
00000000000000000000001110000000000000000000000000000000000000000000000000000000000000000000000000000000000000000000000000000000000000000000000000000000000000000000000000000000000000000000000000000000
00000000000000000000000000000000000000000000000000000000000000000000000000000000000000000000000000000000011100000000000000000000000000000000000000000000000000000000000000000000000000000000000000000000
00000000000000000000000000000000000000000000000000000000000000000000000000000000000000000000000000000000011100000000000000000000000000000000000000000000000000000000000000000000000000000000000000000000
00000000000000000000000000000000000000000000000000000000000000000000000000000000000000000000000000000000000000000000000000000000000000000000000000000000000000000000000000000000000000000000000000000000
00000000000000000000000000000000000000000000000000000000000000000000000000000000000000000000000000000000000000000000000000000000000000000000000000000000000000000000000000000000000000000000000000000000
00000000000000000000000000000000000000000000000000000000000000000000000000000000000000000000000000000000000000000000000000000000000000000000000000000000000000000000000000000000000000000000000000000000
00000000000000000000000000000000000000000000000000000000000000000000000000000000000000000000000000000000000000000000000000000000000000000000000000000000000000000000000000000000000000000000000000000000
00000000000000000000000000000000000000000000000000000000000000000000000000000000000000000000000000000000000000000000000000000000000000000000000000000000000000000000000000000000000000000000000000000000
00000000000000000000000000000000000000000000000000000000000000000000000000000000000000000000000000000000000000000000000000000000000000000000000000000000000000000000000000000000000000000000000000000000
