P1
200 70
00000000000000000000000000000000000000000000000000000000000000000000000000000000000000000000000000000000000000000000000000000000000000000000000000000000000000000000000000000000000000000000000000000000
00000000000000000000000000000000000000000000000000000000000000000000000000000000000000000000000000000000000000000000000000000000000000000000000000000000000000000000000000000000000000000000000000000000
00000000000000000000000000000000000000000000000000000000000000000000000000000000000000000000000000000000000000000000000000000000000000000000000000000000000000000000000000000000000000000000000000000000
00000000000000000000000000000000000000000000000000000000000000000000000000000000000000000000000000000000000000000000000000000000000000000000000000000000000000000000000000000000000000000000000000000000
00000000000000000000000000000000000100000000000000000000000000000000000000000000000000000000000000000000000000000000000000000000000000000000000000000000000000000000000000000000000000000000000000000000
00000000000000000000000000000000001110000000000000000000000000000000000000000000000000000000000000000000000000000000000000000000000000000000000000000000000000000000000000000000000000000000000000000000
00000000000000000000000000000000111110000000000000000000000000000000000000000000000000000000000000000000000000000000000000000000000000000000000000000000000000000000000000000000000000000000000000000000
00000000000000000000000000000000011111000000000000000000000000000000000000000000000000000000000000000001110000000000000000000000000000111000000000000000000000000000000000000000000000000000000000000000
00000000000000000000000000000000011111000000000000000000000000000000000000000000000000000000000000000001110000000000000000000000000000111000000000000000000000000000000000000000000000000000000000000000
00000000000000000000000000000000001111100000000000000000000000000000000000000000000000000000000000000000000000000000000000000000000000000000000000000000000000000000000000000000000000000000000000000000
00000000000000000000000000000000001111110000000000000000000000000000000000000000000000000000000000000000000000000000000000000000000000000000000000000000000000000000000000000000000000000000000000000000
00000000000000000000000000000000000111110000000000000000000000000000000011100011110000000000000000000000000000000000000000000000000000000000000000000000000000000000000000000000000000000000000000000000
00000000000000000000000000000111000011111000000000000000000000000000000011111111110000000000000000000000000000000000000000000000000000000000000001110000111111111111000000000000000000000000000000000000
00000000000000000000000000000111000011111000000000000000000000000000000011111111110000000000000000000000000000000000000111111110000000000000000000000001111111111111100000000000000000000000000000000000
00000000000000000000000000000000000001111100000000000000000000000000000011111111100000000110000000000000000000000000001111111111111110000000000000000011111111111111111000000000011100000000000000000000
00000000000000000000000000000000000001111110000000001110000000000000000111111111110000001110000000000000000000000001111111111111111111000000000000000111111011111111111100000000011100000000000000000000
00000000000000000000000000000000000000111111111000111110000000000000000111111111111000000000000000000000001111111111111111111111111111100000000000000111111001101111111110000000000000000000000000000000
00000000000000000000000000000000000000011111111101111110000000000000000111111111111000000000000000000000000111111111111111111111111111110000000000000011111100000011111100000000000000000000000000000000
00000000000000000000000001110000000000011111111111111111100000000000001111111111111000000000000000000000001111111101111111111111111111111000000000000111111000000001111110000000000000000000000000000000
00000000000000000000000001110000000000011111111111111111110000000000001111111111111000000000000000000000011111111101111111111111111111111100000000001111110000000000111111100000000000000000000000000000
00000000000000000000000000000000000000001111111001111111111100000000011111111111111000000000000000000000111111111111111111111111111111111100000000001111110000000000011111100000000000000000000000000000
00000000000000000000000000000011000000000001111000111111111100000000011111111111111100000000000000000000111111111111111111111111110111111110000000011111100000000000011111110000000000000000000000000000
00000000000000000000000000000011100000000000111000001111111110000000011111111111111100000000000000000000111111111111110011111111110111111110000000011111100000000000001111110000000000000000000000000000
00000000000000000000000000000000000000000001111110000011111111000000011111111111111000000000000000000000111111111111000000001111111111011110000000000001000000000000001110010000000000000000000000000000
00000000000000000000000000000000000000000000111110000001111111000000000111111111111000000000000000000000011111001000000000000111111111011110000000000000000000000000000100010000000000000000000000000000
00000000000000000000000000000000000000000000011111000011111111000000000010011111111100000000000000000000011110000000000000000011111111111110000000000000000000000000000000010000000000000000000000000000
00000000000000000000000000000000000000000000001111100011111111000000100000011111111100000000000000000000011100000000000000000011111111111000000000000000000000000000001000110000000000000000000000000000
00000000000000000000000000000000000000000000000111110001111110000000111100011111111100000000000000000000010000000000000000000011111111111000000000000000000000000000001111110000000000000000000000000000
00000000000000000000000000000000000000000000000011111011111110000001111100001111111110000000000000000000000000000011100000000011111111111100000001110000000000000000011111100000000000000000000000000000
00000000000000000000000000000000000000000000000001111111111110000001111100001111111110000000000000000000000000000011100000000011111111011100000001110000000000000000011111100000000000000000000000000000
00000000000000000000000000000000000000000000000000111111000000000001111100011110111110000000000000000000000000000000000000000001111111011100000000000000000000000000111100000000000000000000000000000000
00000000000000000000000000000000000000000000000000011111000000000000111000011110111110000000000000000000000000000000000000000000110111111100000000000000000000000001111100000000000000000000000000000000
00000000000000000000000000000000110000000000000000011111110000000000111000001111111000000000000000000000000000000000001110000001110111111000000000000000000000000011111110000000000000000000000000000000
00000000000000000000000000000000110000000000000000111111111100000011111000001111111000000000000000000000000000000000001110011111111111111000000000000000000000000111111110000000000000000000000000000000
00000000000000000000000000000000000000000000000011111111111110000011110000001111111110000000000000000000000000000000000000011111111111110000000000000000000000001111111100000000000000000000000000000000
00000000000000000000000000000000000000000000000111111111111111000111110000000111111111000000000000000000000000000000000000111111111111100000000000000000000000011111111000000000000000000000000000000000
00000000000000000000000000000000000000000000001111110000111111100111110000000111111111111110000000000000000000000000000001111111111111100000000000000000000000111111110000000000000000000000000000000000
00000000000000000000000000000000000000000000111111100000001111111111100000001111111111111111000000000000000001110000000011110111111111000000000000000000000000111111100000000000000000000000000000000000
00000000000000000000000000000000000000000001111110000000000111111111100000001111111101111111000000000000000001110000000111110111111110000000000000000000000000111111100000000000000000000000000000000000
00000000000000000000000000000000000000000011111000000000000011111111100000001111111101111111000000000000000000000000001111111111111110000000000000000000000000111111111000000000000000000000000000000000
00000000000000000000000000000000000000000000110000000000000001000111100111111111111111111111000000000000000000000000111111111111111000000000000000000000001001111111111000000000000000000000000000000000
00000000000000000000000000000000000000000000000000000000000000000000111111111111111111100000000000000000000000000001111111111111110000000000000000000000011111111111111100000000000000000000000000000000
00000000000000000000000000000000000000111100000000000000000011111000001111111111111011100000000000000000000000000011111111111111110000000000000000000000011111111111110000000000000000000000000000000000
00000000000000000000000000000000000011111100000000000000000011111111001111111111111011100000000000000000000000000111111111111111000000000000000000000000111111111111100000000000000000000000000000000000
00000000000000000000000000000000000111110000000000000000000000011111111111111111111111110000000000000000000000001111111110011111000000000000000000000001111111111110000000000000000000000000000000000000
00000000000000000000000000000000001111100000000000000000000000011111111111111111111111111100000000000000000000011111111110000011110000000000000000000011101111111100000000000000000010000000000000000000
00000000000000000000000000000000011111000000000000011000000000011111100000011111111111111111000000000000000001111111111111100001110000000000000000000011001111100000111000000000000000000000000000000000
00000000000000000000000000011100001111000000000001110000000000001100000000001100111111111111100000000000000011111111111111110000000000000000000000000000111110000000111000000000000000000000000000000000
00000000000000000000000000011111000111000000000111110000000000000000000000000000011111111111100000000000000111110111111111100000000000000000000001111001111100000000000000000000000000000000000000000000
00000000000000000000000000001111110111110001111111100000000000000000000000000011001111111111100000000001110111100011111111110000000000000000001111111111111000000000000011100000000000000000000000000000
00000000000000000000000000001111111111111011111111000000000000000000000000000011001111011111111000000001110000000111111111111100001110000001111111111111111000001111000111100000000000000000000000000000
00000000000000000000000000001111111111111111111110000000000000000000000000011000111110001111111111110001110000001111111111111110111111111111111111111111111111111111101111100000000000000000000000000000
00000000000000000000000000011111111111111111111110000000000000000000000000111101111110000011111111111111111111111111111111111111111111111111111100011111111111111111111111100000000000000000000000000000
00000000000000000000000001111111111111111111111000000000000000000000000000111111110000000000011111111111111111111111111111111111011111111111100000011111110111111111111111100000000000000000000000000000
00000000000000000000000001111111111101000000000000000000000000000000000000111110000000000000000000001111111111111011111111111111011111101110000000011111110111101111111111000000000000000000000000000000
00000000000000000000000011111111000000000000000000000000000000000000000000111000000000000000000000000000001111111011111110111111111111000110000000011101111111000111000000000000000000000000000000000000
00000000000000000000000010000000000000000000000000000000000000000000000000000000000011100000000000000000000011111111111110111111111111000110000000011100111110000000000000000000000000000000000000000000
00000000000000000000000000000000000000000000000000000000000000000000000000000000000011100000000000000000000001100001111111111111111111101110000000011111100000000000000000000000000000000000000000000000
00000000000000000000000000000000000000000000000000000000000000000000000000000000000000000000000000000000000000000000000000100111111111111110000000001100000000000000000000000000000000000000000000000000
00000000000000000000000000000000000000000000000000000000000000000011100000000000000000000000000000000000000000000000000000000001111111111110000000000000000000000000000000000000000000000000000000000000
00000000000000000000000000000000000000000000000000000000000000000011100000000000000000000000000000000000000000000000000000000000000011111110000000000000000000000000000000000000000000000000000000000000
00000000000000000000000011100000000000000000000000000111000000000000000000000000000000000000000000000000000000000000000000000000000000000000000000000111000000000000000001110000000000000000000000000000
00000000000000000000000011100000000000000000000000111111110000000000000000000000000000000000000000000000000000000000000000011100000000000000000000000111000000000000000000110000000000000000000000000000
00000000000000000000000000000000000000000000000000111001110000000000000000000000000000000000000000000000000000000000000000011100000000000000000000000000000000000000000000000000000000000000000000000000
00000000000000000000000000000000000000000000000000000000000000000000000000000000000000000000000000000000000000000000000000000000000000000000000000000000000000000000000000000000000000000000000000000000
00000000000000000000000000000000000000000000000000000000000000000000000000000000000000000000000000000000000000000000000000000000000000000000000000000000000000000000000000000000000000000000000000000000
00000000000000000000000000000000000000000000000000000000000000000000000000000000000000000000000000000000000000000000000000000000000000000000000000000000000000000000000000000000000000000000000000000000
00000000000000000000000000000000000000000000000000000000000000000000000000000000000000000000000000000000000000000000000000000000000000000000000000000000000000000000000000000000000000000000000000000000
00000000000000000000000000000000000000000000000000000000000000000000000000000000000000000000000000000000000000000000000000000000000000000000000000000000000000000000000000000000000000000000000000000000
00000000000000000000000000000000000000000000000000000000000000000000000000000000000000000000000000000000000000000000000000000000000000000000000000000000000000000000000000000000000000000000000000000000
