P1
200 70
00000000000000000000000000000000000000000000000000000000000000000000000000000000000000000000000000000000000000000000000000000000000000000000000000000000000000000000000000000000000000000000000000000000
00000000000000000000000000000000000000000000000000000000000000000000000000000000000000000000000000000000000000000000000000000000000000000000000000000000000000000000000000000000000000000000000000000000
00000000000000000000000000000000000000000000000000000000000000000000000000000000000000000000000000000000000000000000000000000000000000000000000000000000000000000000000000000000000000000000000000000000
00000000000000000000000000000000000000000000000000000000000000000000000000000000000000000000000000000000000000000000000000000000000000000000000000000000000000000000000000000000000000000000000000000000
00000000000000000000000000000000000000000000000000000000000000000000000000000000000000000000000000000000000000000000000000000000000000000000000000000000000000000000000000000000000000000000000000000000
00000000000000000000000000000000000000000000000000000000000000000000000000000000000000000000000000000000000000000000000000000000000000000000000000000000000000000000000000000000000000000000000000000000
00000000000000000000000000000000000000000000000000000000000000000000000000000000000000000000000000000000000000000000000000000000000000000000000000000000000000000000000000000000000000000000000000000000
00000000000000000000000000000000000000000001110000000000000000000000000000000000000000000000000000000000000000000000000000000000000000000000000000000000000000000111000000000000000000000000000000000000
00000000000000000000000000000000000000000001110000000000000000000000000000000000000000000000000000000000000000000000000000000000000000000000000000000000000000000111000000000000000000000000000000000000
00000000000000000000000000000000000000000000000000000000000000000000000000000000000000000000000000000000000000000000000000000000000000000000000000000000000000000000000000000000000000000000000000000000
00000000000000000000000000000000000000000000000000000000000000000000000000000000000000000000000000000000000000000000000000000010000000000000000000000000000000000000000000000000000000000000000000000000
00000000000000000000000000000000000001110000000000000000000000000000000000000000000000000000000000000111000000000000000000000010000000000000000000000000000000000000000000000000000000000000000000000000
00000000000000000000000000000000000001110000000000000000000000000000000000000000000000000000000000000100000000000000000000000000000000000000000000000000000000000000000000000000000000000000000000000000
00000000000000000000000000000000000000000000000000000000000000000000000000000000000000000000000000000000000000000000000000000000000000000000000000000000000000000000000000000000000000000000000000000000
00000000000000000000000000000000000000000000000000000000000000000000000000000000000000000000000000000000000000000000000000000000000000000000000000000000000000000000000011111110000000000000000000000000
00000000000000000000000000000000000000000000000000000000000000000000000000000000000000011100000000000000000000000000000000000000000000000000000000000000000011110001111111111110000000000000000000000000
00000000000000000000000000000000000000100000000000000000000000000000000000000000000000011100000000000000000000000000000000000000000000000000000000011111111001111111111111111100000000000000000000000000
00000000000000000000000000000000001111111111100000000000000000000000000000000000000000011000000000000000000000000000000000000000000000000000000000111111111101111111111111111110000000000000000000000000
00000000000000000000000000000110011111111110001100000000000000000000000000000000000000011000000000000000000000000000000000000000000000000000000001111111111111111111111111111100000000000000000000000000
00000000000000000000000000000111111111111111011111000000000000000000000000000000000000000000000000000000000000001111111000000000000000000000000001111111111111111111111111111100000000000000000000000000
00000000000000000000000000000111111111111111111111110000000000000000000000000000000000000000000000000000000001111111111100000000000000000000000011111111111111111111111111111000000000000000000000000000
00000000000000000000000000000111111111111111111111111000000000000000000000000000000000001100000000000000000011111111111111000000000000000000000011111011111111111011111111001000000000000000000000000000
00000000000000000000000000001111111111111110001111111000000000000000000000000000000000011111000000000000000111111111111111100000000000000000000111111011111111111011111111000000000000000000000000000000
00000000000000000000000000001001111111111110001111111000000000000000000001110000000000011111111000000000001111111111111111100000000000000000000111111111111111111111111111100000000000000000000000000000
00000000000000000000000000000000111111111111111111111100000000000000000001110000000000111111111110000000011111111000001111110000000000000000000111111111111111111111111111100000000000000000000000000000
00000000000000000000000000000000111000000000011111111110000000000000000000000000000000111111111110000000011111100000000111110000000000000000001111000000000000011111101111100000000000000000000000000000
00000000000000000000000000000111100000000000001111111110000000000000000000000000000001111111111110000000011111000000000111111000000000000000001110000000000000011111000111000000000000000000000000000000
00000000000000000000000000000110000000000000001111111110000000000000000000000000001111111111111110000000011110000000000111111000000000000000000000000000000000011111101111000000000000000000000000000000
00000000000000000000000000000000000000000000001111101110001100000000000000000000011111111111111110000001111110000000000011111000000000000000000000000000000000011111111110000000000000000000000000000000
00000000000000000000000000000000000000000000001111101110001100000000000000000000111111111111111110000001111110000000000011111000000000000000000000000000000001100111111100000000000000000000000000000000
00000000000000000000000000000000001000000000011111111100000000000000000000000001111111111111111110000001111100000000000011111000000000000000000000000000000011100011111100000000000000000000000000000000
00000000000000000000000000000000001111000000011111111000000000000000000000000011111111111111111110000000111100000000000011111000000000000000000000000000000111110001111111000000000000000000000000000000
00000000000000000000000000000000011111111000011111110000000000000000000000000111111111111111111100000000000000000000000011111000000000000000000000000000001111111011111111000000000000000000000000000000
00000000000000000000000000000000011111111111111011100000000000000000000000001110011111111111111110000000000000000000000111111000000000000000000000000000011111111111111000000000000000000000000000000000
00000000000000000000000000000000000011101111111011110000000000000000000000011110011111111111111110001110000000000000000111111000000000000000000000000000011111111111111000000000000000000000000000000000
00000000000000000000000000000000000001000111111111110000000000000000000000111111111100111111111100001110000000000000111111110000000000000000000011100001111111111111110000000000000000000000000000000000
00000000000000000000000000000000000000000011111111111000000000000000001111111111111000011110111100000000000000000000110011100000000000000000000011100011111111111111110000001110000000000000000000000000
00000000000000000000000000000000000000000011111111111110000000000000001111111111110000011110011000000000000000000010000011100000000000000000000000000011111111111111100000001110000000000000000000000000
00000000000000000000000000000000000000000011111111111111100000000000001110111111100000111111100000000000000000000110001111100000000000000000000000000111111111111110000000000000000000000000000000000000
00000000000000000000000000000000000000000111111111011111000000000000011110111111100001111111110000000000000000011100011111100000000000000000000000011111111111100100000000000000000000000000000000000000
00000000000000000000000000000000000000001111111110000111000010000000011111111011110001111111111000000000000000000000111111000000000000000000000000011111111111000000000000000000000000000000000000000000
00000000000000000000111000000000000000001111111100000000111111000000111111110001100001111111111000000000000000000001111001000000000000000000000000111111111111100000000000000000000000000000000000000000
00000000000000000000111000000000000000011111111100000000011111111111111111111000000001111111111111000000000000000011111000000000000000000000000001111111111100000000000000000000000000000000000000000000
00000000000000000000000000000000000000011111111000000000000011111111111111110000000011110111111111000000000000000011111100000000000000000000000011111101111000000000000000000000000000000000000000000000
00000000000000000000000000000000000000111111110000000000000000111111111111100000000011110111111000000000000000000111111000000111000000000000000111111101111000000000000000000000000000000000000000000000
00000000000000000000000000000000000000111111110000000000000000000011111111110000000011111111111000000000000000001110111000000111000000000000111111111111111000000000000000000000000000000000000000000000
00000000000000000000000000000000000001111111100000000000000000000011111111111111100011111111110000111000000000001110010000000000000000000001111111111111110000000000000000000000000000000000000000000000
00000000000000000000000000000000000001111111100000011111111000000111111111111111111011111011110000111000110000001111000100000000000000001111111111111111100000000000000000000000000000000000000000000000
00000000000000000000000111000000000001111111000000001111111000001111111111111111111100111011110000000000110000011111000100000000000011111111110111111111100000000000000000001000000000000000000000000000
00000000000000000000000111000000000011111111000110000111111000001111111111111111111110111111111111000000000000111111000000000000000111111111110111111111000000000000000000001110000000000000000000000000
00000000000000000000000000000000000111111111000011001111111000011111111111111111111111111111101111100000000000111111000000000111111111101111111111111110000000000000000000000000000000000000000000000000
00000000000000000000000000111000000111111111110111111111111000001111111111111111111111111111101111100111000001111111000000011111111111101111111111111100000000000000000000000000000000000000000000000000
00000000000000000000000000111000001111111100111111111111110000001111111111111111101111111111111111111110001111111111111111111111111111111111111111110000000000000000000000000000000000000000000000000000
00000000000000000000000000000000001111111101111110000010000000011111111111111111101111111111111111111111011111111111111111111111111111111111111111100000000000000000000000000000000000000000000000000000
00000000000000000000000000000000011111111111111100000000000000000000001100011111111111111111111111011111111111111111111101111111111111111111111110000000000000000000000000000000000000000000000000000000
00000000000000000000000000000000011111111111111110000000000000000000000000000000111111111111111110001111111111111111111101111111111111111111111100000000000000000000000000000000000000000000000000000000
00000000000000000000000000000000011111111101111111000000000000000000000000000000011111111001100111000000000001111111111111111110011111111111111100000000000000000000000000000000000000000000000000000000
00000000000000000000000000000000011111111101111100000000000000000000000000000000011111110001000000000000000000111110011111111100001110000111111000000000000000000000000000000000000000000000000000000000
00000000000000000000000000000000000111111111110000000000000000000000000000000000011111001111000000000000000000000000000000001100000000000000000000000000000000000000000000000000000000000000000000000000
00000000000000000000000000000000000111111110000000000000000000000000000000000000011111011111000000000000000000000000000000000000000000000000000000000000000000000000000000000000000000000000000000000000
00000000000000000000000000000000001111111100000000000000000000000000000000000000011111111111000000000000000000000000000000000000000000000000000000000000000000000000000000000000000000000000000000000000
00000000000000000000000000000000001111111000000000000000000000000000000000000000001111111110000000000000000000000000000000000000000000000000000000000000000000000000000000000000000000000000000000000000
00000000000000000000000000000000000111110000000000000000000000000011100000000000001111111100000000000000000000000000000000000000000000000000000000000000000000000000000000000000000000000000000000000000
00000000000000000000000000000000000111000000000000000000000000000011100000000000111111111100000000000000000001110000000000000000000000000000000000000000000000000000000000000000000000000000000000000000
00000000000000000000000000000000000110000000000000000000000000000000000000000000111111111100000000000000000000000000000000000000000000000000000000000000000000000000000000000000000000000000000000000000
00000000000000000000000000000000000000000000000000000000000000000000000000000000000000000000000000000000000000000000000000000000000000000000000000000000000000000000000000000000000000000000000000000000
00000000000000000000000000000000000000000000000000000000000000000000000000000000000000000000000000000000000000000000000000000000000000000000000000000000000000000000000000000000000000000000000000000000
00000000000000000000000000000000000000000000000000000000000000000000000000000000000000000000000000000000000000000000000000000000000000000000000000000000000000000000000000000000000000000000000000000000
00000000000000000000000000000000000000000000000000000000000000000000000000000000000000000000000000000000000000000000000000000000000000000000000000000000000000000000000000000000000000000000000000000000
00000000000000000000000000000000000000000000000000000000000000000000000000000000000000000000000000000000000000000000000000000000000000000000000000000000000000000000000000000000000000000000000000000000
