P1
200 70
00000000000000000000000000000000000000000000000000000000000000000000000000000000000000000000000000000000000000000000000000000000000000000000000000000000000000000000000000000000000000000000000000000000
00000000000000000000000000000000000000000000000000000000000000000000000000000000000000000000000000000000000000000000000000000000000000000000000000000000000000000000000000000000000000000000000000000000
00000000000000000000000000000000000000000000000000000000000000000000000000000000000000000000000000000000000000000000000000000000000000000000000000000000000000000000000000000000000000000000000000000000
00000000000000000000000000000000000000000000000000000000000000000000000000000000000000000000000000000000000000000000000000000000000000000000000000000000000000000000000000000000000000000000000000000000
00000000000000000000000000000000000000000000000000000000000000000000000000000000000000000000000000000000000000000000000000000000000000000000000000000000000000000000000000000000000000000000000000000000
00000000000000000000000000000000000000000000000000000000000000000000000000000000000000000000000000000000000000000000000000000000000000000000000000000000000000000000000000000000000000000000000000000000
00000000000000000000000000000000000000000000000000000000000000000000000000000000000000000000000000000000000000000000000000000000000000000000000000000000000000000000000000000000000000000000000000000000
00000000000000000000000000000000000000000000000000000011100000000000000000000000000000000000000000000000000000000000000000000000000000000000000000000000000000000000000000000000000000000000000000000000
00000000000000000000000000000000000000000000000000000011100000000000000000000000000000000111000000000000000000000000000000000000000000000000000000000000000000000000000000000000000000000000000000000000
00000000000000000000000000000000000000000000000000000000000000000000000000000000000000000111000000000000000000000000000000000000000000000000000000000000000000000000000000000000000000000000000000000000
00000000000000000000000000000000000000000000000000000000000000000000000000000000000111000000000000000000000000000000000000000000000000000000000000000000000000000000000000000000000000000000000000000000
00000000000000000000000000000000000000011000000000000000000000000000000000000000000111000000000000000000000000000000000000000000000000000111000000000000000000000000000000000000000000000000000000000000
00000000000000000000011100000000000000011100000000000000000000000000000000000000000000000000001110000000000000000000000000000000000000000111000000000000000000000011100000000000000000000000000000000000
00000000000000000000011100000000000000000000000000000000000000000000000011100000000000000000001110000000000000111111000000000000000000000000000000000000000000000011100000000000000000000000000000000000
00000000000000000000000000000000000000000000000000000000000000000000000011100000000000000000000000000000000001111111111111100000000000000000000000000000000000011111000000000000000000000000000000000000
00000000000000000000000000000000000000000000000000000000000000000000000111000000000000000000000000000000000001110111111111110000000000000000000000000000000111111111000000000000000000000000000000000000
00000000000000000000000000000000000000000000000000000000000000000000001111100000000000000000000000000000000001110111111111100000110000000000000000000000011111111111100000000000000000000000000000000000
00000000000000000000000000000000000000000000000000000000000000000000001111111000000000000000000000000000000011111111111111100111111100000000000000000000111111111111110000000000000000000000000000000000
00000000000000000000000000000000000000000000000000111111111000000000001111111111100000011100000000000000000011111111110111111111111110000000000000000111111111111111110000000000000000000000000000000000
00000000000000000000000000111000000000000000000011111111111110000000001111111111111100111100000000000000000011111011100011111111111111000000000000001111111011111111110000000000000000000000000000000000
00000000000000000000000000111000000001110000111111111111111111000000011111111111111111111100000000000000000011110011110111111111111111100000000000100111110001111111110000000000000000000000000000000000
00000000000000000000000000000000000001110011111110010011111111100000011111111111011111111110000000000000000001000111111111111111111111100000000001110111110001111111110000000000000000000000000000000000
00000000000000000000000000000000000000111111111100000001111111110000011111111111011111111100000000000000000000000000001100111111111111110000000011111111000000111111110000000000000000000000000000000000
00000000000000000000000000000000000000011111110000000000111111110000011111111111111111111100000000000000000000000000000000011111111111111100000111110010000000011111110000000000000000000000000000000000
00000000000000000000000000000000000000011111000000000000011111100000001111111111111111111110000000000000000000000000000000011111111101111100001111100000000000001111110000000000001110000000000000000000
00000000000000000000000110111000000000011110000000000000011111100000001111111111110111111111000000000000000000000000000000001111111101111000001111110000000000001111110000000000001110000000000000000000
00000000000000000000001110111000000011111100000000000000011111110000111111111001100011111111000000000000000000000000000000001111111111110000011110000000000000001111110000000000000000000000000000000000
00000000000000000000000000000000000011111100000000000000011111110000110111111000000111111110000000000000000000000000000000001111111110110000011110000000000000011111110000000000000000000000000000000000
00000000000000000000000000000000000011111000000000000000011101110000110111110000000000111110000000000000000000000000000000001111111110110000111111000000000000011111110000000000000000000000000000000000
00000000000000000000000000000000000111110000000000000000111100100001111111110000000000001111000000000000000000000000000000001111101111110000111110000000000000011111110000000000000000000000000000000000
00000000000000000000000000000000000111110000000000000000111111000001001111000000000000000000000000000000000000001110000000001111101110000000001110000000000000111111110000000111000000000000000000000000
00000000000000000000000000000000000011100000000000000000111111000001101111000000000000000000000000000000000000001100001110000111111110000000001110000000000000111101100000000111000000000000000000000000
00000000000000000000000000000000000000000000000000000001111110000001111111111111100000000000000000000000000000001110011111001111111111100001111110000000000000111100100000000000000000000000000000000000
00000000000000000000000000000000000000000000100000000001111110000001111111111111111000000000000000000000000000011111111111111111111111100001111110000000000001111111100000000000000000000000000000000000
00000000000000000000000000000000000000000011100000000011111100000001111111111111110000000000000000000000000000011111111111111111111111000001111100000000000011111111100000000000000000000000000000000000
00000000000000000000000000000000000000000000000000000011111000000011111111111111111001111000000000000000000000011111111111111110111110000011111000000000000011111111100000000000000000000000000000000000
00000000000000000000000000011100000000000000000000000011110000000011111111111111111111111100000000000000011100011111111111111100011100000011111000000000000111111111100000000000000000000000000000000000
00000000000000000000000000011100000000000000000000001100000000000011111111111111111111111111110000000000011100001111111111111110000000000001111110000000001111111111100000000000000000000000000000000000
00000000000000000000000000000000000000000000000000011100000000000111111111111111111111111111111111100000000000000011111111111111000000000001111110000000000111111111000000000000000000000000000000000000
00000000000000000000000000000000000000000000000000111110000000111111111111111111111111111111111111111111100000000000001111111111110000000001111111100000001111111110000000000000000000000000000000000000
00000000000000000000000000000000000000000000000001111111100001111111110000000011111111111111111111111111111100000000000111111111110000000001111111111111111111111110000000000000000000000000000000000000
00000000000000000000000000000000000000000000000011111111110011111110000000000001111111111111000000000111111111100000000111111111111000000001111111111111110001111110000000000000000000000000000000000000
00000000000000000000000000000000000000000000000001111111111111110000000000000000111111111111000000000011111111111110000000111110111000000001111111111111100000011110000000000000000000000000000000000000
00000000000000000000000000000000000000000000011001111111111110000000000000000000011111111111100000000001111111111111110000111110111000000000001111111111100000011100000000000000000000000000000000000000
00000000000000000000000000000000000000000000111111111111111000000000000000000000001111111111100000000000111111111111111111111111111000000000000111111111000011111100000000000000000000000000000000000000
00000000000000000000000000000000000000000001111111111111000000000000000000000000001111111110000000000000111110000000111111111111111000000000000100011000000011111100001110000000001110000000000000000000
00000000000000000000000000000000000000000011111111111100000000000000000000000000000111111100000111000000110000000000011111111111111000000000000000000000000011111000001110000000001110000000000000000000
00000000000000000000000000000000000000000001111111111000000000000000000000000000000111111110010111000000000001111110000011111111111100000000000000000000000111111000000000000000000000000000000000000000
00000000000000000000000001110000000000000001111111000011100000110000000000000000000001111111110000000000001111111110000000111111111111100000000000000000000111110000000000111000000000000000000000000000
00000000000000000000000001110000000001000111111110000111110000111000000000000000000001111111110000000000111111111111000100111111111111111111110000000000000111100000000000111000000000000000000000000000
00000000000000000000000000000000000001111111111100000111110001111110000000000000000111111111110000000000111111111111111111111111111111100111111110000000001111100000000000000000000000000000000000000000
00000000000000000000000000000000000000111111111000000111110001111111000000000000001111111110011000000000111111111111111111111111111001000011111111110000011111100000000000000000000000000000000000000000
00000000000000000000000000000000000100111111100000001111110001111111000000000000001111111110000000000000011111011111111111111111110000000001111111111111111111100000000000000000000000000000000000000000
00000000000000000000000000000000001111111111000000011111100011111111000100000000011111001111000000000000000110011111101111111111110000000011111111111111111111111111100000000000000000000000000000000000
00000000000000000000000000000000111111111110011111111111100001111111011111100000111111000011110000000000000001111111101111111111110000000001110001111111111111111111110000000000000000000000000000000000
00000000000000000000000000000011111111111111111111111111000011111111111111111111111111110011110000000000000001111111111111111111100000000001100000111111110011111111111000000000000000000000000000000000
00000000000000000000000000001111111111111111111111111111000111111111111111111111111111111111110000000000000000001111011111111111000000000001110000111111100000001111111000000000000000000000000000000000
00000000000000000000000000011111111111111111111111111111000011111111111111111111111111111111100000000000000000000110011111111111000000000001111111111111110000000000000000000000000000000000000000000000
00000000000000000000000000111111111111111111111111111100000001111111111111111111111111111111100000000000000000000000111111111000000000000000111111011111100000000000000000000000000000000000000000000000
00000000000000000000000001111111111111111111111111000000000000011111111101111111111111111111100111000000000000000000011111110000000000000000111111011111000000000000000000000000000000000000000000000000
00000000000000000000000001111111111111111000000000000000000000001111111101111111111101111111000111000000000000000000000000100000000000000000001111111110000000000000000000000000000000000000000000000000
00000000000000000000000001111111111111000000000000000000000000000011111111111111111101111110000000000000000000000000000000000000000000000000000000000000000000000000000000000000000000000000000000000000
00000000000000000000000001100111000100000000001110000000000000000000000111111111111111111000000000000000000000000000000000000000000000000000000000000000000000000000000000000000000000000000000000000000
00000000000000000000000000000000000000000000001110000000000000000000000000000111111110000000000000000000000000000000000000000000000000000000000000000000000000000000000000000000000000000000000000000000
00000000000000000000000000000000000000000000000000000000000000000000000000000000000000000000000000000000000000000000000000000000000000000000000000000000000000000000000000000000000000000000000000000000
00000000000000000000000000000000000000000000000000000000000000000000000000000000000000000000000000000000000000000000000000000000000000000000000000000000000000000000000000000000000000000000000000000000
00000000000000000000000000000000000000000000000000000000000000000000000000000000000000000000000000000000000000000000000000000000000000000000000000000000000000000000000000000000000000000000000000000000
00000000000000000000000000000000000000000000000000000000000000000000000000000000000000000000000000000000000000000000000000000000000000000000000000000000000000000000000000000000000000000000000000000000
00000000000000000000000000000000000000000000000000000000000000000000000000000000000000000000000000000000000000000000000000000000000000000000000000000000000000000000000000000000000000000000000000000000
00000000000000000000000000000000000000000000000000000000000000000000000000000000000000000000000000000000000000000000000000000000000000000000000000000000000000000000000000000000000000000000000000000000
