P1
200 70
00000000000000000000000000000000000000000000000000000000000000000000000000000000000000000000000000000000000000000000000000000000000000000000000000000000000000000000000000000000000000000000000000000000
00000000000000000000000000000000000000000000000000000000000000000000000000000000000000000000000000000000000000000000000000000000000000000000000000000000000000000000000000000000000000000000000000000000
00000000000000000000000000000000000000000000000000000000000000000000000000000000000000000000000000000000000000000000000000000000000000000000000000000000000000000000000000000000000000000000000000000000
00000000000000000000000000000000000000000000000000000000000000000000000000000000000000000000000000000000000000000000000000000000000000000000000000000000000000000000000000000000000000000000000000000000
00000000000000000000000000000000000000000000000000000000000000000000000000000000000000000000000000000000000000000000000000000000000000000000000000000000000000000000000000000000000000000000000000000000
00000000000000000000000000000000000000000000000000000000000000000000000000000000000000000000000000000000000000000000000000000000000000000000000000000000000000000000000000000000000000000000000000000000
00000000000000000000000000000000000000000000000000000000000000000000000000000000000000000000000000000000000000000000000000000000000000000000000000000000000000000000000000000000000000000000000000000000
00000000000000000000000000000000000000000000000000000000000000000000000000000000000000000000000000000000000000000000000000000000000000000000000000000000000000000000000000000000000000000000000000000000
00000000000000000000000000000000000000000000000000000000000000000000000000000000000000000000000000000000000000000000000000000000000000000000000000000000000000000000000000000000000000000000000000000000
00000000000000000000000000000000000000000000000000000000000000000000000000000000000000000000000000000000000000000000000000000000000000000000000000000000000000000000000000000000000000000000000000000000
00000000000000000000000000000000000000000000000000011100000000000000000000000000000000000000000001000000000000000000000000000000000000000000000000000000000000000000000000000000000000000000000000000000
00000000000000000000000000000000000000000000000000001100000000000000000000000000001100000000000001110000000000000000001111111100000000000000000000000000000000000000000000000000000000000000000000000000
00000000000000000000000000000000000000000000000000000000000000000000000000000000001100000000000000000000000000000000011111111111000000000000000000000000000000000000000000000000000000000000000000000000
00000000000000000000000000000000000000000000000000000000000000000000000001111000000000000000000000000000000000000000111111111110000000000000000000000000000000000000000000000000000000000000000000000000
00000000000000000000000000000000000000000000000000000000000000000000000011111000000000000000000000000000000000000001111111111111000000001100000000000000000000000000000000000000000000000000000000000000
00000000000000000000000000000000000000000011100010000000000000000000000011111100111100011000000000000000000000000011111111110111110000001100011110001110000111100111000000000000000000000000000000000000
00000000000000000000000000000000000000001111110111000000000000000000000111111111111111111000000000000000000000000111111111110111111111001110011000111111111111111000110000000000000000000000000000000000
00000000000000000000000000000000011101111111111111100000000000000000000111111111111111111100000000001110001111111111111111111111111111111111000000011111111111111000000000000000000000000000000000000000
00000000000000000000000000000000011111111111111111110000000000000000000111111111111111111100000111111111011111111111111111111111111111111111100100001111111100000010001000000000000000000000000000000000
00000000000000000000000000000000000000111100000000111111000000000000001111111111111111111110001111111111111111111111110111111111111111110011111110001101110000000000011000000000000000000000000000000000
00000000000000000000000000000000000001111000000000111111100001110000001111001111111111111111111111111111111000111111110111111111110000000001111100011101110010000000000000000000000000000000000000000000
00000000000000000000000000000000000011111000000000011011100001110000011111011111110011111111000000000000000000111111111111111111100000000011111100011111111111001100000000000000000000000000000000000000
00000000000000000000000000000000000111111100000000011011100000000011111111111111100001111100000000000000000001111111001111111111100000000111111100000000011111111111100000000000000000000000000000000000
00000000000000000000000001000000000111110000000000011111111110001111111111111000000000111000000000000000000001111111001111111111100000000110011110000000000001111111111100000000000000000000000000000000
00000000000000000000000001000000000111100000000000011111111110001111111111100000000000000000000000000000000011111111101111111111100000000000001110000000000000001111111100000000000000000000000000000000
00000000000000000000000000000000000111000000000000111111111111000111111111000000000000000000000000000000000011111111101111111111100000000000011111000000000000000001111000000000000000000000000000000000
00000000000000000000000000000000000000000000000001111111111110000000111000000000000000000000000000000000000111111111000011111111100000000000011111000000000000000000001000000000000000000000000000000000
00000000000000000000000000000000000000000000011111111111100000000001111000000000000000000000000000000000001111111110000011111111100000000000000011000000000000000000000000000000000000000000000000000000
00000000000000000000000000000000000000000001111111111111000000000001111110011000000000000000000000000000001111111100001111111100100000000000000000000000000000000000000000000011100000000000000000000000
00000000000000000000000000000000000000111111111111111110000000000011111111111111110000000000000000000000011111111000011111111100000000000000000000100000000001111111100000000011100000000000000000000000
00000000000000000000000000000000000011111111111111111110000000000011111111111111111000000000000000000000111111000000011111111111000000000000000111110000111111111111110000000000000000000000000000000000
00000000000000000000000000000000001100111110000001111100000000000011111111111111111100000000000000000001111111000000011111111111000000000000000111110111111111111111111100000000000000000000000000000000
00000000000000000000000000000000111110010000000011111100000000000111111100111111111000000000000000000011101111110000011111111110000000000111000011100111111111111111111110000000000000000000000000000000
00000000000000000000000000000000111111000000000111111000000000000111111000000011111001000000000000000111101111100000011111111111000000000111000011101111111100000011111111000000000000000000000000000000
00000000000000000000000000000000011100000000000111110000000000000011111000000001111111100000000000000111111110000000011111111111000000000000000001111111110000000001111111100000000000000000000000000000
00000000000000000000000000000000010000000000001111100000000000000000000000000000111111100000000000001111111100011100011111111111000000000000000001111111000000000001111111100000000000000000000000000000
00000000000000000000000001110000000000000000011111000000000000000000000000000111011111100000000000001111111100011100011111110111000000000000000000011110000000000000111111100000011100000000000000000000
00000000000000000000000001110000000000000000111110000000000000000000000000000111001000000000000000011111111100000000011111110111000000000000000000001100000000000000011110000000011100000000000000000000
00000000000000000000000000000000000000000000111100000000000000000000000000000000000000010000000000111111111000000000011111111111000000000000000000011100000000000000011100010000000000000000000000000000
00000000000000000000000000000000000000000000000000000000000000000000000000000000000111110000000001111111111100000000111111111111111110000000000000000000000000000000001100010000000000000000000000000000
00000000000000000000000000000111000000000011000000000000000000000000000000000000000111111000000001111101111111000011111111111111111111000000000000000000000000000000011100000000000000000000000000000000
00000000000000000000000000011111000000000111110000000000000000000000000000000000000111111000111001111101111111100011111111111111111111000000000000000000000000000000011000000000000000000000000000000000
00000000000000000000000000011100000000001111110000000000000000000000000000000000000111111000111001111111111011110001111111111111111111000000000000000000000000000000001100110000000000000000000000000000
00000000000000000000000000000000000000011111100000000000000000000100000000000000001111110000000001111111111011111001111111111111111111000000000000000000000000000000001111110000000000000000000000000000
00000000000000000000000000000000000000111111000000011100000000111110000000000000000111110000000000111111111111111111111111111111011111000000000000000000000000000000001111110000000000000000000000000000
00000000000000000000000000000000000000111000000000111100000001111110000000000000000111110000000000111111111111111111111111111111011111000000000000000000000000000000001111100000000000000000000000000000
00000000000000000000000000000000000000010000000000111100000000111110000000000000001111000000000011111111111111111111111111111111111111000000000000000000000000000000001111100000000000000000000000000000
00000000000000000000000000000000000000111000000000011100000000111111000000000000011111000000000011111111111111111111111111111111111111000000000000000000000000000000011111100000000000000000000000000000
00000000000000000000000000000000000011110000000000011000000011111111000000000001111111100000000011111110000111111100111111111111100000000000000000000000000000000000011100000000000000000000000000000000
00000000000000000000000000000000000111110000000001111000000011111111100000000011111111000000000011111100000011111000111111111111000000000000000000000111000000000000011100000000000000000000000000000000
00000000000000000000000000000000001111100000011111111000000001111111111100011111111111000000000011111110000000000000111111111111100000000000000000000111100000000000111110000000000000000000000000000000
00000000000000000000000000000000011111000001111111110000000001111111111111111111111110000000000001110000000000000001111111111111100000000000000000000111110000000001111100000000000000000000000000000000
00000000000000000000000111000000011110001111111111110000000000111111111111111111111100000000000000000000000000000000011111111111000000000111000000000111110000000011111100000000000000000000000000000000
00000000000000000000000111000000111001111111111111110000000000011111111110111111110000000000000000000000000000000000011111011110000000010111000000000011111000001111100000000000000000000000000000000000
00000000000000000000000000000001111011111111111111100000000000001111111110011111100000000000000000000000000000000001111111011110000000010000000000000001111111111111000000000000000000000000000000000000
00000000000000000000000000000001111111111111111111110000000000000000011110000000000000000000000000000000000000000001111111111000000000000000000000000001111111111111100000000000000000000000000000000000
00000000000000000000000000000011111111111111111111110000000000000000000000000000000000000000000000000000000000000001111111000000001110000000000000000001111111111110000000000000000000000000000000000000
00000000000000000000000000000111111111111110011100000000000000000000000000000000000000000000000000000000000000000000000000000000001110000000000000000001111111111100000000000000000000000000000000000000
00000000000000000000000000000111111111111000000000000000000000000000000000000000000000000000000000000000000000000000000000000011000000000000000000000000111111100000000000000000000000000000000000000000
00000000000000000000000000001111111111100000000000000000000111000000000000000000001110000000000000000000000000000000000000000011000000000000000000000000111110000000000000000000000000000000000000000000
00000000000000000000000000011111111100000000000000000000000111000000000000000000001110000000000000000000000000000000000000000000000000000000000000000000000000000000000000000000000000000000000000000000
00000000000000000000000000011111110000000000000000000000000000000000000000000000000000000000000000000000000000000000000000000000000000000000000000000000000000000000000000000000000000000000000000000000
00000000000000000000111000011111100000000000000000000000000000000000000000001110000000000000000000000000000000000000000000000000000000000000000000000000000000000000000000000000000000000000000000000000
00000000000000000000111000011110000000000000000000000000000000000000000000001110000000000000000000000000000000000000000000000000000000000000000000000000000000000000000000000000000000000000000000000000
00000000000000000000000000011000000000000000000000000000000000000000000000000000000000000000000000000000000000000000000000000000000000000000000000000000000000000000000000000000000000000000000000000000
00000000000000000000000000000000000000000000000000000000000000000000000000000000000000000000000000000000000000000000000000000000000000000000000000000000000000000000000000000000000000000000000000000000
00000000000000000000000000000000000000000000000000000000000000000000000000000000000000000000000000000000000000000000000000000000000000000000000000000000000000000000000000000000000000000000000000000000
00000000000000000000000000000000000000000000000000000000000000000000000000000000000000000000000000000000000000000000000000000000000000000000000000000000000000000000000000000000000000000000000000000000
00000000000000000000000000000000000000000000000000000000000000000000000000000000000000000000000000000000000000000000000000000000000000000000000000000000000000000000000000000000000000000000000000000000
00000000000000000000000000000000000000000000000000000000000000000000000000000000000000000000000000000000000000000000000000000000000000000000000000000000000000000000000000000000000000000000000000000000
