P1
200 70
00000000000000000000000000000000000000000000000000000000000000000000000000000000000000000000000000000000000000000000000000000000000000000000000000000000000000000000000000000000000000000000000000000000
00000000000000000000000000000000000000000000000000000000000000000000000000000000000000000000000000000000000000000000000000000000000000000000000000000000000000000000000000000000000000000000000000000000
00000000000000000000000000000000000000000000000000000000000000000000000000000000000000000000000000000000000000000000000000000000000000000000000000000000000000000000000000000000000000000000000000000000
00000000000000000000000000000000000000000000000000000000000000000000000000000000000000000000000000000000000000000000000000000000000000000000000000000000000000000000000000000000000000000000000000000000
00000000000000000000000000000000000000000000000000000000000000000000000000000000000000000000000000000000000000000000000000000000000000000000000000000000000000000000000000000000000000000000000000000000
00000000000000000000000000000000000000000000000000000000000000000000000000000000000000000000000000000000000000000000000000000000000000000000000000000000000000000000000000000000000000000000000000000000
00000000000000000000000000000000000000000000000000000000000000000000000000000000000000000000000000000000000000000000000000000000000000000000000000000000000000000000000000000000000000000000000000000000
00000000000000000000000000000000000000000000000000000000000000000000000000000000000000000000000000000000000000000000000000000000000000000000000000000000000000000000000000000000000000000000000000000000
00000000000000000000000000000000000000000000000000000000000000000000000000000000000000000000000000000000000000000000000000000000000000000000000000000000000000000000000000000000000000000000000000000000
00000000000000000000000000000000000000000000000000000000000000001100000000000000000000000000000000000000000000000000000000000000000000000000000000011100000000000000000000000000000000000000000000000000
00000000000000000000000000000000000000000000000000000000011111111110000000000000000000000000000000000000000000000000000000000000000000000000000000011100000000000000000000000000000000000000000000000000
00000000000000000000000000000000000000000000000000001100111111111111100000000000000000000000000000000000000000000000000000000000000000000000000000000001110000000000000000000000000000000000000000000000
00000000000000000000000000000000000000000000000001111111111111111111110000000000000000000000000000000000000000000000000000000000000000000000000000000001110001110000000000000000000000000000000000000000
00000000000000000000000000000000000000000000000001111111111100111111111000000000000000000000000000011100000000000000000000000010000000000000000000000000000001111100000000000000011100000000000000000000
00000000000000000000000000000000000000000000000000111111111000011111111100000000000000011111111000111110000000001111111111111100011111000000011100000000000000011100000000000000000000000000000000000000
00000000000000000000000000000000000000000000000000011111000000011111111100000000000000001111111111111111000001111111111111111110111111111111111110000000000000000000000000000000000000000000000000000000
00000000000000000000000000000000000000000000000000111110000000011111111110000000000000000111111111111111111111111111111111111111111111111111111111110000000000000000000000000000000000000000000000000000
00000000000000000000000000000000000000000000000000111100000000001111111110000000000001110011111111111111111111111111111110000000000001111110011111111111110000000000000000000111000000000000000000000000
00000000000000000000000000000000000000000000000001111100000000001111111110000000000011110001111111111111111111111111111000000000000000000000001111111111111100000000000000000111000000000000000000000000
00000000000000000000000000000000000000000000000001111000000000001111111110000000000011110000111111111111111111111111111000000000000000000000000111111111111111100000000111000000000000000000000000000000
00000000000000000000000000000000000000000000000001111000000000000111110110000001110111110001111111111111111111111111111000000001110000000000000111111111111111111000000100000000000000000000000000000000
00000000000000000000000000000000000000000011100001110000000000000000100110000001111111100011111111111000001111111111111100100001110000000000000011111111111111111100000000000000000000000000000000000000
00000000000000000000000000000000000000000011111001110000000000000000011110000000011111111111111110000000011101111111111111100000000000000000000111111100000111111111000000000000000000000000000000000000
00000000000000000000000000000000000000000000111000000000000000001100111110000000011111111111110000000000001101111000000111110000000000000000011111111000000011111111110000000000000000000000000000000000
00000000000000000000000000000000000000000000000000000000000000001111111100000000011110011111000000000000001111110000000001111110000000000000111111111000000001111111111100000000000000000000000000000000
00000000000000000000000000000000000000000000000000000000000000001111111100000000111100011111000000000000001111110000000000011111000000000000111111110000000011110011111100000000000000000000000000000000
00000000000000000000000000000000000000000000000000000000000000001111111100000001111100111111000000000000001111110000000000001111100000000001111111100000000011100001111000000000000000000000000000000000
00000000000000000000000000000000000000000000000000000000000000011111111100000111111111111111100000000000011111110000000000001111100000000001111111100000000001100011111000000000000000000000000000000000
00000000000000000000000000000000000000000000000000000000000000011111111100001111111111111111110000000000011111110000000000001111110001110011111110000000000000000011100000000000000000000000000000000000
00000000000000000000000000000000000000000000000000000000000000111111111000111111100111111111111000000000011111110000000000000111110001110011111110000000000000000001100000000000000000000000000000000000
00000000000000000000000000000000000000000000000000000000000000110111110001111110000000011111110000000000001111110000000000000111111000001111111111000000000000000001110000000000000000000000000000000000
00000000000000000000000000000000000000000000000000000000000001110111111011111000000000000111110000000000000111111000000000000110111000001111111111111111100000000001110000000000000000000000000000000000
00000000000000000000000000000000000000000000000000000000000011111111111111110000000000000011111000000000000111111000000000000110111000000111111111111111111000000000000000000000000000000000000000000000
00000000000000000000000000000000000000000000000000000000000011111111111111000000000000000001000000000000000111111000000000000111111000000111111111111111111111000000000000000000000000000000000000000000
00000000000000000000111000000000000000000000000000000000000111001111110000000000000000000000000111100000011111000000000000001111100000000111111110001111111111000000000000000000000000000000000000000000
00000000000000000000111000000000000000000000000000000000001111001111100000000000000000000000011111100000011100001110000000001111100000001001111100000111111111000000000000000000000000000000000000000000
00000000000000000000000000000000000000000000000000000000011111111110000001110000000000000000000111110000000000011111000000011111111000011101111000000111111110000000000000000000000000000000000000000000
00000000000000000000000000000000000000000000000000000000111111111100000001110000000000000000000011110000000000011111110011111100000000011111111000000011111111000000000000000000000000000000000000000000
00000000000000000000000000000000000000000001000000000011111111111000000000100000000000000000001100010000000000011111111100011100000000001111111000000001111111000000000000000000000000000000000000000000
00000000000000000000000000000000000000000000110000001001111111100000000001110000000000000000001110000000000000111101111110111111000000001111111000011001111100000000000000000000000000000000000000000000
00000000000000000000000000000000000000000000000001111101111111000000000001110000000000000000001111000000000111111000011111111110000000011111111000000011111000000000000000000000000000000000000000000000
00000000000000000000000000000000000000000000011111111111111110000000000000000000000000000000000111110000001111111100000111111100000000111111110000000011111100000000000000000000000000000000000000000000
00000000000000000000000000000000000000011111111111111111111100000000000000000000000000000000000111110000001111110000000001111110000000111111110001111111111100000000000000000000000000000000000000000000
00000000000000000000000000000000011111111100111111111111110000000000000000000000000000000000000111110000011111100000000000111100000000111111110001111111111100000000000000000000000000000000000000000000
00000000000000000000000000000000011111110000011001111111100000000000000000000000000000000000001111110000001101110000000000011110000000111101100000011111111000000000000000000000000000000000000000000000
00000000000000000000000000000000011111100000000000111110000000000000000000000000000000000000001111110000001101110000000000011111100000111101110000011111111000000000000000000000000000000000000000000000
00000000000000000000011100000000010000000000000001111100000000000000000000000000000000000000001111110000001111110000000000001111100000111111110000111111110000000000000000000000000000000000000000000000
00000000000000000000011101110000000000000000011111111000000000000000000000000000000000000000001111110000000011110000000000000000000001111111110000111111100000000000000000000000000000000000000000000000
00000000000000000000000001110000000000000000111111100000000000000000000111100000000000000000011111100000000011100000000000000000000000111111100001111111000000000000000000000000000000000000000000000000
00000000000000000000000000001100000000000000011100000000000000000000000111111000000010000000111111000000001111100000000000000111110000111111000011111111000000000000000000000000000000000000000000000000
00000000000000000000000000001100000000000100111000000000000000000000001111111100000011100001111111000000011111110000000000001111110000100111100111111110000000000000000000000000000000000000000000000000
00000000000000000000000000000000000000001111111000000000000000000000001111111100000000000001111110000000001111111000000000001111110001000111111111111000000000000000000000000000000000000000000000000000
00000000000000000000000000000000000000001111111111111111111111111111100111111110000000100001111100000000001001111000000000001111110000001111111111100000000000000000000000000000000000000000000000000000
00000000000000000000000000000000000000011111111111111111111111111111110001111111111001110001110000000000000001111000000000011111110000000111111100000000000000000000000000000000000000000000000000000000
00000000000000000000000000000000000000111111111011111111111111111111110001111111111111111111100000000000000111111100000000011110000000000001100000000000000000000000000000000000000000000000000000000000
00000000000000000000000000000000000000111111111011111111111111111111100001110011111000111100000000000000000111011111000000011100000000000000000000000000000000000000000000000000000000000000000000000000
00000000000000000000000000000000000000111111111111111111111111111111100000000000000000000000000000000000000000011111100000000000000000000000000000000000000000000000000000000000000000000000000000000000
00000000000000000000000000000000000001111111111111111111111111111111000000000000000000000000000000000000000000111111111111000000000000000000000000000000000000000000000000000000000000000000000000000000
00000000000000000000000000000000000001111111111111111111111111111111000000000000000000000000000000000000000000011111111111111110000000000000000000000000000000000000000000000000000000000000000000000000
00000000000000000000000000000000000001111111111111111111111111111111000000000000000000000000000000000000000000000110001111111000000000000000000000000000000000000000000000000000000000000000000000000000
00000000000000000000000000000000000000000000000000000000000000000000000000000000000000000000000000000000000000000000000111100000000000000000000000000000000000000000000000011100000000000000000000000000
00000000000000000000000000000000000000000000000000000000000000000000000000000000000000000000000000000000000000000000001110000000000000000000000000000000000000000000000000011100000000000000000000000000
00000000000000000000000000000000000000000000000000000000000000000000000000000000000000000000000000000000000000000000000110000000000000000000000000000000000000000000000000000000000000000000000000000000
00000000000000000000000000000000000000000000000000000000000000000000000000000000000000000000000000000000000000000000000000000000000000000000000000000000000000000000000000000000000000000000000000000000
00000000000000000000000000000000000000000000000000000000000000000000000000000000000000000000000000000000000000000000000000000000000000000000000000000000000000000000000000000000000000000000000000000000
00000000000000000000000000000000000000000000000000000000000000000000000000000000000000000000000000000000000000000000000000000000000000000000000000000000000000000000000000000000000000000000000000000000
00000000000000000000000000000000000000000000000000000000000000000000000000000000000000000000000000000000000000000000000000000000000000000000000000000000000000000000000000000000000000000000000000000000
00000000000000000000000000000000000000000000000000000000000000000000000000000000000000000000000000000000000000000000000000000000000000000000000000000000000000000000000000000000000000000000000000000000
00000000000000000000000000000000000000000000000000000000000000000000000000000000000000000000000000000000000000000000000000000000000000000000000000000000000000000000000000000000000000000000000000000000
00000000000000000000000000000000000000000000000000000000000000000000000000000000000000000000000000000000000000000000000000000000000000000000000000000000000000000000000000000000000000000000000000000000
