P1
200 70
00000000000000000000000000000000000000000000000000000000000000000000000000000000000000000000000000000000000000000000000000000000000000000000000000000000000000000000000000000000000000000000000000000000
00000000000000000000000000000000000000000000000000000000000000000000000000000000000000000000000000000000000000000000000000000000000000000000000000000000000000000000000000000000000000000000000000000000
00000000000000000000000000000000000000000000000000000000000000000000000000000000000000000000000000000000000000000000000000000000000000000000000000000000000000000000000000000000000000000000000000000000
00000000000000000000000000000000000000000000000000000000000000000000000000000000000000000000000000000000000000000000000000000000000000000000000000000000000000000000000000000000000000000000000000000000
00000000000000000000000000000000000000000000000000000000000000000000000000000000000000000000000000000000000000000000000000000000000000000000000000000000000000000000000000000000000000000000000000000000
00000000000000000000000000000000000000000000000000000000000000000000000000000000000000000000000000000000000000000000000000000000000000000000000000000000000000000000000000000000000000000000000000000000
00000000000000000000000000000000000000000000000000000000000000000000000000000000000000000000000000000000000000000000000000000000000000000000000000000000000000000000000000000000000000000000000000000000
00000000000000000000000000000000000000000000000000000000000000000000000000011000000000000000000000000000000000000000000000000000011100000000011100000000000000000000000000000000000000000000000000000000
00000000000000000000000000000000000000000000000000000000000000000000000000011000000000000000000000000000000000000000000000000000011100000000011100000000000000000000000000000000000000000000000000000000
00000000000000000000000000000000000011100000000000000000000000000000000000000000000000000000000000000000000000000000000000000000000000000000000000000000000000000000011100000000000000000000000000000000
00000000000000000000000000000000000011100000000000000000000000000000000000000000000011100000000000000000000000000000000000000000000000000000000000000000000000000000001100000000000000000000000000000000
00000000000000000000000000000000000000000000000000000000000000000000000000000000000011100000000000000000000000000000000000000000000000000000000000000000000000000000000000000000000000000000000000000000
00000000000000000000000000000000000000000000000000000000000000000000000000000011111111000000000000000000000000000000000001110000000000000000000000000000000000000000000000001000000000000000000000000000
00000000000000000000000000000000000000010000000000000000000000000000000000011111111111000000000000000000000000000000010001110111000000000000000000000000000000000000000000001000000000000000000000000000
00000000000000000000000000000000000001110000000000000000000000000000000000111111111111100000000000000000000000000000000000000111000000000000000000000000000000000000000000000000000000000000000000000000
00000000000000000000000000000000000000000000000000000000000000000000000001111100111111110000000000000000000110000100000000000000000000000000000000000000000000000000000000000000000000000000000000000000
00000000000000000000000000000000000000000000000000000000000000000000000011111000011111111000000000000000001110000111111110000000000000000000000000000000000000001110000000000000000000000000000000000000
00000000000000000000000000000000000000000000000000000000000000000000000011110000011111111000000000000000001111000111111111100000000000000000000000000000000000001110000000000000000000000000000000000000
00000000000000000000000000000000000000000000000000000000000000000000000111111000000011111100000000000000001110000011111111111100000000000000000000000000000000000000000000000000000000000000000000000000
00000000000000000000000000000000000000010000000111110000000000000000001111110000000001111110000000000000001111000111111111111111100000000000000000000000000000000000000000000000000000000000000000000000
00000000000000000000000000000000000000010000011111111000000000000000001111110000000001111110000000000000011111111111111111111110000000000000000000111000000000000000000000000000011100000000000000000000
00000000000000000000000000000000000000000111111111111111100000000000001111110000000001111110000000000000011111111111111111111110000000000000000000111100000000000000000000000000000000000000000000000000
00000000000000000000000000000000000000011111111111111111100000000000011111100000000000111110000000000000011111110111111111111111100000000000000001111111111110000000000000000000000000000000000000000000
00000000000000000000000000000000000000111111111111111111110000000000011111000000000000000000000000000000011111110111110111111111100000000000000111111111111110000000000000111000000000000000000000000000
00000000000000000000000000000000000001111111110111111111110000000000011111000000000000000000000000000000011111111111110111111111000000001110000111111111110111001000000000111000000000000000000000000000
00000000000000000000001110000000000011100111100011111111111000000000100011000000000000000000000000000000111000000011111111111110000000001100000000111111100011111110000000000000000000000000000000000000
00000000000000000000001110000000000111100000100011111111111000000000100000000000000000000000000000000000111000000001111111111110000000000000000000000000000011111111000000000000000000000000000000000000
00000000000000000000000000000000000111111000000000111111110000000001111100001111110000000000000000000000000000000001111111111110000000000000000000000000100111111100110000000001110000000000000000000000
00000000000000000000000000000000000111111110000000111111110000000001111000111111111000000000000000000000000000000001111111111110000000000000000000000001111111111101110000000001000000000000000000000000
00000000000000000000000000000000000111111100000000011111110000000001111001111111111100000000000000000000000000000001111111111100000000000000000000111001111111111111100000000000000000000000000000000000
00000000000000000000000000000000000000111100000000011111111000000001111111111111111110000000000000000000000000000011111111111000000000000000000000111011111111111111100000000000000000000000000000000000
00000000000000000000000000000000000000011000000000011111111110000001111111111111111111000000000000000000000000000011111111111000000000000000000000000011111111111111100000000000000000000000000000000000
00000000000000000000000000000000000100011000000000111111111110000011111111110000111111000000000000000000000000000111111111111000000000000000000000000111111110011111000000000000000000000000000000000000
00000000000000000000000000000000000000000000000000111111110000000011101111000000000011100000000000000000000000000111011110110000000000000000000000000111111110011100000000000000000000000000000000000000
00000000000000000000000000000000000000000000000001111111100000000011101110000000000011100000000000000000000000000111011100010000000000000000011100001111111111111100000000000000000000000000000000000000
00000000000000000000000000000000000000000000000011111111000000000011111100000000001111100000000000000000000000000111111110000000000000000000011100001111111110111000000000000000000000000000000000000000
00000000000000000000000000000000000000000000000111011111000000000001111000000000001111100000000000000000000000001110111111000000000000000000000000011111111110110000000000000000000000000000000000000000
00000000000000000000000000000000000000000000001111011111100110000011110000000000001111100000000011100000000000001110111111000000000000000000000000111111111111110000010000000000000000000000000000000000
00000000000000000000000000000000000000111111111111111111111111111111111000000000001111100000000011100000111000001111111111000000000000000000000000111111111111110001110000000000000000000000000000000000
00000000000000000000000000000000000011111111111111111111111111111111111100000000001111110000000000000001111000011101111111000000000000000000000000111111110111111111111000000000000000000000000000000000
00000000000000000000000000000001000111111111111111111111111111111111111111100000011111100000000000000001110000011101111111000000000000000000000000111111110111011111111000000000000000000000000000000000
00000000000000000000000000000001110011111111111111110000000000000111111111000111111111100000000000000000000000011111111111000000000000000000000001111111111110011111100000000000000000000000000000000000
00000000000000000000000000000000111001000111111111100000000000000111111111101111111111100000000000000000000000011111111110000000000000000000000011111111111111011110000000000000000000000000000000000000
00000000000000000000000000000000011100001111111111000000000000000111111101111111111111110000000000000000000000011101111110000000000000000000000111111111111111111000000000000000000000000000000000000000
00000000000000000000000000000000010000001111111110000000000000000000011000000001111111100111111000000000000000011001111110000000000000000000000111111111111111100000000000000000000000000000000000000000
00000000000000000000000000000000000000001111111100000000000000000000011100000000111111101111111111000000000000000011111100000000000000000000001111111101111100000000000000000000000000000000000000000000
00000000000000000000000000000000000000001111111000000000000000000011111100000001111111111111111111111100000000100111111100000000000000000000011111111101111000000000000000000000000000000000000000000000
00000000000000000000000000000000000000001111110000000000000000000011111110000001111110000000011111111111111001111111111100000000000000010001111111111111100000000000000000000000011100000000000000000000
00000000000000000000000000000001110001111111100000000000000000000001111111000111111100000000000001111111111111111111111111111111111111111111111111111111100000000000000000000000011100000000000000000000
00000000000000000000000000000001110000111111000000000000000000000001111110001111111100000000000000001111100111011111111111111111111111111111111111111111000000000000000000000000000000000000000000000000
00000000000000000000000000000000000001111110000000001111100000000000111111011111111000000000000000000000000010011111111111111111111111111111111111111111000000000000000000000000000000000000000000000000
00000000000000000000000000000000000001111110000111111111100000000000111111111111110000000000000000000000000001111111111100111111111111001111111111111110000000000000000000000000000000000000000000000000
00000000000000000000000111000000000011111111111111111111100000000000011111111001100000000000000000000000000001111001111000110000000000000111111111111110000000000000000000000000000000000000000000000000
00000000000000000000000111000000000111111111111111111111100000000000000111110000000000000000000000000000000000110000111001110000000000000001111111111100000000000000000000000000000000000000000000000000
00000000000000000000000000000000000111111111111111111111100000000000000000000000000000000001000000000111111100110001110001110000000000000000111111111000000000000000000000000001000000000000000000000000
00000000000000000000000000000000000111111011111111111111100000000000000000000000000000000001000000000111111111111011110000000000000000000000001111111000000000000000000000000000000000000000000000000000
00000000000000000000000000000000000001111011111111111111000000000000000000000000000000000000000000000111111111111111111110000000000000000000000111111100000000000000000000000000000000000000000000000000
00000000000000000000000000000000000001111111111111110000000000000000000000000000000000000000000000000111111111111111111111111000000000000000000001111110000000000000000000000000000000000000000000000000
00000000000000000000000000000000000111111111011000000000000000000000000000000000000000000000000000000111111111111111111111110000000000000000000000001111100000000000000000000000000000000000000000000000
00000000000000000000000000000000000111111000000000000000000000000000000000000000000000000000000000001111111111111111111111110000000000000000000000000111100000000000000000000000000000000000000000000000
00000000000000000000000000000000000000000000000000000000000000000000000000000000000000000000000000000111111111111111111111110000000000000000000000000111100000000000000000000000000000000000000000000000
00000000000000000000000000000000000000000000000000000000000000000000000000000000000000000000000000000111111111111111111111110000000000000000000000000011100000000000000000111000000000000000000000000000
00000000000000000000000000000000000000000000000000000000000000000000000000000000000000000000000000001111111111111111111111100000000000000000000000000000000000000000000000111000000000000000000000000000
00000000000000000000000000000000000000000000000000000000000000000000000000000000000000000000000000000001110011111111111111100000000000000000000000000000000000000000000000000000000000000000000000000000
00000000000000000000000000000000000000000000000000000000000000000000000000000000000000000000000000000000000000000000111111000000000000000000000000000000000000000000000000000000000000000000000000000000
00000000000000000000000000000000000000000000000000000000000000000000000000000000000000000000000000000000000000000000000000000000000000000000000000000000000000000000000000000000000000000000000000000000
00000000000000000000000000000000000000000000000000000000000000000000000000000000000000000000000000000000000000000000000000000000000000000000000000000000000000000000000000000000000000000000000000000000
00000000000000000000000000000000000000000000000000000000000000000000000000000000000000000000000000000000000000000000000000000000000000000000000000000000000000000000000000000000000000000000000000000000
00000000000000000000000000000000000000000000000000000000000000000000000000000000000000000000000000000000000000000000000000000000000000000000000000000000000000000000000000000000000000000000000000000000
00000000000000000000000000000000000000000000000000000000000000000000000000000000000000000000000000000000000000000000000000000000000000000000000000000000000000000000000000000000000000000000000000000000
