P1
200 70
00000000000000000000000000000000000000000000000000000000000000000000000000000000000000000000000000000000000000000000000000000000000000000000000000000000000000000000000000000000000000000000000000000000
00000000000000000000000000000000000000000000000000000000000000000000000000000000000000000000000000000000000000000000000000000000000000000000000000000000000000000000000000000000000000000000000000000000
00000000000000000000000000000000000000000000000000000000000000000000000000000000000000000000000000000000000000000000000000000000000000000000000000000000000000000000000000000000000000000000000000000000
00000000000000000000000000000000000000000000000000000000000000000000000000000000000000000000000000000000000000000000000000000000000000000000000000000000000000000000000000000000000000000000000000000000
00000000000000000000000000000000000000000000000000000000000000000000000000000000000000000000000000000000000000000000000000000000000000000000000000000000000000000000000000000000000000000000000000000000
00000000000000000000000000000000000000000000000000000000000000000000000000000000000000000000000000000000000000000000000000000000000000000000000000000000000000000000000000000000000000000000000000000000
00000000000000000000000000000000000000000000000000000000000000000000000000000000000000000000000000000000000000000000000000000000000000000000000000000000000000000000000000000000000000000000000000000000
00000000000000000000001110000000000000000000000000000000000000000000000000000000000000000000000111000000000000000000000000000000000000000000000000000000000000000000000000000000000000000000000000000000
00000000000000000000001110000000000000000000000000000000000000000000000000000000000000111000000111000000000000000000000000000000000000000000000000000000000000000000000000000000000000000000000000000000
00000000000000000000000000000000000000000000000000000000000000000000000000000000000000111000000000000000000000000000000000000000000000000000001000000000000000000000000000000000000000000000000000000000
00000000000000000000000000000000000000000000000000111000000000011000000000000000000000000000000000000000000000000000000000000000000000000000100000000000000000000000000000000000000000000000000000000000
00000000000000000000000000000000000000000000001001111111111111111100000000000000000000000000000000000000000000000000000000000000000000000000000000000000000000000000000000000000000000000000000000000000
00000000000000000000000000000000000000111111111111111111111111111111000000000000000000000000000000000000000000000000000000011100000000001110000000000000000000000000000000000000000000000000000000000000
00000000000000000000000000000000000011111111111111111111111111111111000000000000000000000000000000000000001111110000000000010000000000001110000110000000000000000000000000000000000000000000000000000000
00000000000000000000000000000000001111111111111111111111111111111000000111100000000000000000000000000111111111110000000000000000000000000111001111111000000000000000000000000000100000000000000000000000
00000000000000000000000000000000111111110000000111111111000000000000111111111100000000000000000000000011111111110000000000000000000000001111111111111110000000000000000000000000100000000000000000000000
00000000000000000000000000000001001110000000000111001110000000000100001111111111110000000000110001100111111101111000000000000000000000111111111111111110000000000000000000000000000000000000000000000000
00000000000000000000000000000001000100000000000111000000001111111100000001111111111100000111111111111111111101111000000000000000000111111111111111111110000000000000011100000000000000000000000000000000
00000000000000000000000000000000010000000000000000000011111111111110000000000111111111111111111111111111111111110000000000000000111111111111111111111111000000000000011100000000000000000000000000000000
00000000000000000000000000000000000000000000000000001111111111111111111100000000111111111101111111111111111111111000000000000001111101111110000000111111100000000000000000000000000000000000000000000000
00000000000000000000000000000000000000000000000000011111111111111111111100000000011111111101111111111110000011111100000000000001111101111000000000011111110000000000000000000000000000000000000000000000
00000000000000000000000000000000000000000000000000111111111111111111111110000000001111111111111111110000000001111110000000000001111111100000000000011111110000000000000000000000000000000000000000000000
00000000000000000000000000000000000000000000000000111111111111111111111100000000011111111111111000000000000011111111100000000001111111000000000000001111110000000000000000000000000000000000000000000000
00000000000000000000000000000000000000000000000000111111111111111111111100000001111111111111111000000000000011111110000000000001111100000000000000001111110000000000000000000000000000000000000000000000
00000000000000000000000000000000000000000000000001111111111111111101111100000001111111111011111111110000000011111100000000000001111000000000000000001111110000000000000000000000000000000000000000000000
00000000000000000000000000000000000000000000000001111110000001111101111110000011101110000000011111111100000011111110000000000000111000000000000000001111110000000000000000000000000000000000000000000000
00000000000000000000000000000000000000000000000001111000000000011111111110000001101100000000000111111110000001111110000000000000000000000000000000011111110000000000000000000000000000000000000000000000
00000000000000000000000000000000000000000000000001100000000000001101111110000011111110000000000000111111110001111111000000000000000000000000000000111111100000000000000000000000000000000000000000000000
00000000000000000000000000000000000000000000000000000000000000001101111100000111111100000000000000001111111111111111000000000000000000000000000000111111000000000000010000000000000000000000000000000000
00000000000000000000000000000000000000000000000000000000000000011111111100001111111000000000000000000111111111111111000000000000000000000000000001111111000000000111111000000000000000000000000000000000
00000000000000000000000000000000000000000000000000000000000000011111111000001111110000000000000000111000111111111111000000000000000000000000000011111110000000000111111000000000000000000000000000000000
00000000000000000000000000000000000000000000000000000000000000011111111000001111111000011110000000000000000001111111100000000000000000000000001111111110000000001111111100000000000000000000000000000000
00000000000000000000000000000000000000000000000000000000000000111111111000000011111111111111000000000000000000111111111100000000000000000000001111111110000000011111110000000000000000000000000000000000
00000000000000000000000000000000000000000000000000000000000000111111111000000011111111111111100000000000000000111111111111000000000000000000001111111111000011111111100000000000000000000000000000000000
00000000000000000000000000000000000000000000000000000000000001111111111000001111111111111111100000000000000000011111111111111000000000000000001111111111111111111110000000000000000000000000000000000000
00000000000000000000000000000000000000000000000000000000000111111111111000001111111111111111100000000000000000011111111111111111000000000000011111111111111111111100000000000000000000000000000000000000
00000000000000000000000000000000000000000000000000000000000111111111110000001111100011111111110000000000000000011111111000111110011111111111111111100111111110000000000000000000000000000000000000000000
00000000000000000000000000000000000000000000000000000000000011111111110000001111100000001111110000000000000000011111110000011100011111111111111111101111110000000000000000000000000000000000000000000000
00000000000000000000000000000000000000000000001110000000000111111111101110001111110000000111110000000000000000001111110000000010001111111111111111111100000000000000000000000000000000000000000000000000
00000000000000000000000000000000000000000000001110000111111111111111000110001111110000000111110000000000000000001111111000000000000001111111111111100000000000000000000000000000000000000000000000000000
00000000000000000000000000000000000000000000000000001111110001111111000000001111110000000111111000000000000000000111111000000000000000000011111110000000000000000000000000000000000000000000000000000000
00000000000000000000000000000000000000000000000000111111110001111100000000000111110000000111110000000000000000000111111000000000000000000011111110000000000000000000000000000000000000000000000000000000
00000000000000000000000000000001110000000000000111111111111111111000000000000111110000000111110000000000000000000111111000000000000000000111111101110000000000000000000000000000000000000000000000000000
00000000000000000000000000000000000000000000111111111111111111110000000000000111111000000111110000000000000000000111111100000000000000000111111001110000000000000000000000000000000000000000000000000000
00000000000000000000000000000000000000000011111110111000000111000000000000000011111000000111110000000000000000000111111100000000000000001111110000000000000000000000000000000000000000000000000000000000
00000000000000000000000000000000000000000111111110110000000000000000000000000011111100000111110000000000000000000011111100000000000000001111110000000000000000000000000000000000000000000000000000000000
00000000000000000000000000000000000000000111111111111001110000000000000000000011111110001111100000000011100000000011111100000000000000001111100000011100000000000000000000000000000000000000000000000000
00000000000000000000000000000000000000001111111111111111100000000000000000000001111111111111100000000011100000000011111110000000000000011111100000011111110000000001110000000000000000000000000000000000
00000000000000000000000000000000000011111111111111111110000000000000000000000000111111111111100000000000000000000011111110000000000000011111000000000111110000000001110000000000000000000000000000000000
00000000000000000000000000000000000011111111111111111110000000000000000000000000111111111111111100000000000000000001111110000000000000111111000000000111100000000000000000000000000000000000000000000000
00000000000000000000000000000000000000111111111111111111110000000000000000000000011111111111011100000001110000000001111110000001110001111111000001001111100000000000000000000000000000000000000000000000
00000000000000000000000000000000000000011111111111110011111100000000000000000000001110001110000000000001110000000001111111000001110001111110000011111111100000000000000000000000000000000000000000000000
00000000000000000000000000000000000000000111111111100001111110000000000000000111000000000000000000000000000000000001111111000000000011111100011111011110000000000000000000000000000000000000000000000000
00000000000000000000000000000000000000000000111111110011111111111000000000000000000000000000000000000000000000000000111111000000000011111100111111001110000000000000000000000000000000000000000000000000
00000000000000000000000000000000000000000000001111111111111111111111000000000000000000000011000000000000000000000000000111000000000011111101111111110000000000001110000000000000000000000000000000000000
00000000000000000000000000000000000000000000000001111111111111111111000000000000000000000111000000000001110000000000000000000000000000111111111111100000000000001110000000000000000000000000000000000000
00000000000000000000000000000000000000000000000000011111111111111111100000000000000000000000000000000001110000000000000000000000000100111011111000000000000000000000000000000000000000000000000000000000
00000000000000000000000000000000000000000000000000000111111111111100100000000000000000000000000000000000000000000000000000000000001111111011110000000000000001110000000000000100000000000000000000000000
00000000000000000000000000000000000000000000000000000011111111111100000000000000000000000000000000000000000000000000000000000000001111111111110000000000000001110000000000000100000000000000000000000000
00000000000000000000000000000000000000000000000000000000111111111111100011100000000000000000000000000000000000000000000000000000001111111111000000000000000000000000000000000000000000000000000000000000
00000000000000000000000000000000000000000000000000000000000001111111100011100000000000000000000000000000000000000000000000000000001111111110000000000000000000000000000000000000000000000000000000000000
00000000000000000000000000000000000000000000000000000000000000111111100000000000000000000000000000000000000000000000000000000000001111111000000000000000000000000000000000000000000000000000000000000000
00000000000000000000000000000000000000000000000000000000000000111111000000000000000000000000000000000000000000000000000000000000000111110000000000000000000000000000000000000000000000000000000000000000
00000000000000000000000000000000000000000000000000000000000000001111000000000000000000000000000000000000000000000000000000000000000111000000000000000000000000000000000000000000000000000000000000000000
00000000000000000000000000000000000000000000000000000000000000000111000000000000000000000000000000000000000000000000000000000000001110000000000000000000000000000000000000000000000000000000000000000000
00000000000000000000000000000000000000000000000000000000000000000001000000000000000000000000000000000000000000000000000000000000000000000000000000000000000000000000000000000000000000000000000000000000
00000000000000000000000000000000000000000000000000000000000000000000000000000000000000000000000000000000000000000000000000000000000000000000000000000000000000000000000000000000000000000000000000000000
00000000000000000000000000000000000000000000000000000000000000000000000000000000000000000000000000000000000000000000000000000000000000000000000000000000000000000000000000000000000000000000000000000000
00000000000000000000000000000000000000000000000000000000000000000000000000000000000000000000000000000000000000000000000000000000000000000000000000000000000000000000000000000000000000000000000000000000
00000000000000000000000000000000000000000000000000000000000000000000000000000000000000000000000000000000000000000000000000000000000000000000000000000000000000000000000000000000000000000000000000000000
