P1
200 70
00000000000000000000000000000000000000000000000000000000000000000000000000000000000000000000000000000000000000000000000000000000000000000000000000000000000000000000000000000000000000000000000000000000
00000000000000000000000000000000000000000000000000000000000000000000000000000000000000000000000000000000000000000000000000000000000000000000000000000000000000000000000000000000000000000000000000000000
00000000000000000000000000000000000000000000000000000000000000000000000000000000000000000000000000000000000000000000000000000000000000000000000000000000000000000000000000000000000000000000000000000000
00000000000000000000000000000000000000000000000000000000000000000000000000000000000000000000000000000000000000000000000000000000000000000000000000000000000000000000000000000000000000000000000000000000
00000000000000000000000000000000000000000000000000000000000000000000000000000000000000000000000000000000000000000000000000000000000000000000000000000000000000000000000000000000000000000000000000000000
00000000000000000000000000000000000000000000000000000000000000000000000000000000000000000000000000000000000000000000000000000000000000000000000000000000000000000000000000000000000000000000000000000000
00000000000000000000000000000000000000000000000000000000000000000000000000000000000000000000000000000000000000000000000000000000000000000000000000000000000000000000000000000000000000000000000000000000
00000000000000000000000000000000000000000000000000000000000000000000000000000000000000000000000000000000100000000000000000000000000000000000000000000000000000000000000000000000000000000000000000000000
00000000000000000000000000000000000000000000000000000000000000000000000000000000000000000000000000000000100000000000000000000100000000000000000000000000000000000000000000000000000000000000000000000000
00000000000000000000000000000000000000000000000000000000000000000000000000000000000000000000000000000000000000000000000000000100000000000000000000000000000000000000000000000000000000000000000000000000
00000000000000000000000000000000000000011100000000000000000000000000000011100000000000000000000000000000000000000000000000000000000000000000000000111000000000000000000000000000000000000000000000000000
00000000000000000000000000000000000000011100000000000000000000000000000011100000000000000000000000000000000000000000000000000000000000000000000001111000000000000000000000000000000000000000000000000000
00000000000000000000000000000000000000000000000000000000000000011111100000000000000000000000000000000000000000000000000000001111111000000000000011110001110000000000000000000000000000000000000000000000
00000000000000000000000000000000000000000000000000000000000011111111110000000000000001110000000000000000000000000000000000111111111000000000000011100001110000011100000000000000000000000000000000000000
00000000000000000000000000000000000000000000000000000000011111111111111000000000000001110000000000000000000000000000000001111111111000000000000000000000000000011100000000000000000000000000000000000000
00000000000000000000000000000000000000000000000000000000111111111111110000000000000000100000000000000000111000000000000001111111111000000000000000000000000000000000000000000000000000000000000000000000
00000000000000000000000000000000000000000000000000000011111111111111110000000000000000111110000000000000111000000000000011111111111000000000000000000000010000000000000000000011100000000000000000000000
00000000000000000000000000000000000000000000000000001111111111111111111100000000000111111111110000000000000000000000100011111111110000000000000000000001111111000000000000000011100000000000000000000000
00000000000000000000000000000000000000000000000000111111111111111111111110000000000111111111111100000000000000000000100011111111110000000000000000000111111110000000001000000000000000000000000000000000
00000000000000000000000000000000000000000000000001111011111100011111111110000000001110111111111110000000000000000000110111111111110000000000000000011111111100001111111000000000000000000000000000000000
00000000000000000000000000000000000000000000000011111001110000000111111110000000011110111111111111100000000000000000111111111111110000000000000000111111111110000111111000000000000000000000000000000000
00000000000000000000000000000000000001110000000011111110000000000011111110000000011111111111111111110000000000000000111111111111110011100000000001111111111111000111111000000000000000000000000000000000
00000000000000000000000000000000000001110000000111100100000000000011111100000000011111111100111111111000000000000000111111111111110011100000000011111111111111111000000000000000000000000000000000000000
00000000000000000000000000000000000000000000000111000000000000000011111100000000111111110000001111100000000000000001111111101111110011100000001111111001111011100000000000000000000000000000000000000000
00000000000000000000000000000000000000000000001111000000000000000011111100000000111111100000000111100000000000000001111001001111100000000001111111110000110000000000000000000000000000000000000000000000
00000000000000000000000000000000000111000000001111000000000000000011111100000000111111000000000011111100000000000001110000111111100000001000111111110000011000000000000000000000000000000000000000000000
00000000000000000000000000000000000111000000000110001110000000000000111100000000111111000000000011111110000000000001110000111111110011111000111111110000000000010000000000000000000000000000000000000000
00000000000000000000000011100000000000000000000000001110000000000000111100000000111110000000000001111110000000000001100000111111111111111000111111100000000000111000000000000000000000000000000000000000
00000000000000000000000011100000000000000000000000000000010000000011111110000000111110000000000001111110000000000000000000111111111111111000111111000000000000000000000000000000000000000000000000000000
00000000000000000000000000000000000000000000000001110000011100000111111100000000111000000000000000111110000000000000000001111111111111000001111111000000000000000000000000000000000000000000000000000000
00000000000000000000000000000000000000000000000001110000000000000111111000000000111000000000000000000000000000000000000001111111111100000001111110000111110000000000000000000000000000000000000000000000
00000000000000000000000000000000000000000000000000000000000000001111110000000000111100011110000000000000000000000000000111111110000000000001111110011111111000000000000000000000000000000000000000000000
00000000000000000000000000000000000000000000000000000000000000001111110000000000111100011111110000000000000000000000011111101110000000000001111110111111111000000000000000000000000000000000000000000000
00000000000000000000000000000000000000000000000000000000000000011111100000000000111110111111111000000000000000000011111111101111000000000001111111111111111100000000000000000000000000000000000000000000
00000000000000000000000000000000000000000000000000000000000000111111100000000001111111111111111110000000000000001111111111111111000000000001111111111111111110000000000000000000000000000000000000000000
00000000000000000000000000000000000000000000000000000000000000111111000000000001111101111110111111000000000000111111111011111111000000000011111111111111111100000000000000000000000000000000000000000000
00000000000000000000000111000000000000000000000000000000000001111111000000000000011000100000011111000000000111111111000001111111000000000111111111111111101100000000000000000000000000000000000000000000
00000000000000000000000111000000000000000011100000000000000001111111000000000000000011000000111111100000011111111100000000011111000000001111111111111111101100000000000000000000000000000000000000000000
00000000000000000000000000000000000000000011100000000000000011111111100000000000100110000000011111100001111111110000000010011111000000001111111110000111111100000000000000000000000000000000000000000000
00000000000000000000000000000000000000000000000000000000000111111100000000000000111110000000001111111111111110000000000011111111000001001111111110000111110000000000000000000000000000000000000000000000
00000000000000000000000000000000000000000000000000000000001001111000000000000000111110000000000111111111111000000000000011111111000001001111111100000111110000000000000000000000000000000000000000000000
00000000000000000000000000000000000000000000000000000000011101110000000000000001111100000000001111111111100000000000000011111110000000001111111000000111111000000000000000000000000000000000000000000000
00000000000000000000000000000000000000000000000000000000111111100000000000000000111000000000001111111110000000000000000000111110000000011111110000000011111000000000000000000000000000000000000000000000
00000000000000000000000000000000000000000000000000000001111111000000000000000000111000000000011111111000000000000000000000111110000000011111110000000011111000000000000000000000000000000000000000000000
00000000000000000000000000000000000000000000000000000011111110000000000111000000111100000000111111110000000000000000000111111110000000011111100000001111110000000000000000000000000000000000000000000000
00000000000000000000000000000000000000000000000000000011111100000000000111000000111100000011111111110000000000000000000111111110000000111111110000001111110000000000000000000000000000000000000000000000
00000000000000000000000000000000000000000000000000000111111000000000000000000000111000011111111111100000000000000000000111111100000000011111110000011111110000000000000000000000000000000000000000000000
00000000000000000000000000000000000000000000000000001111111000000000000000000000111100111111111110000000000000000000001111111100000000011111110000111111100000000000000000000000000000000000000000000000
00000000000000000000000000000000000000000000000000011111110000000000000000000000111111111111111110000000000000000000001111111000000110011111111001111111100000000000000000000000000000000000000000000000
00000000000000000000000000000001110000000000000000001111100000000000000000000000111111111000001111000000000000000000001111111000000000111111111111111111000000000000000000000000000000000000000000000000
00000000000000000000000000000001110000000000000000011111100000000000000000000001111111110000000110000000000000000000001111111000000000011111111111111110000000000000000000000000000000000000000000000000
00000000000000000000000000000000000000000000000011111111000000000000000000000111111111100001110000000000000000000000011111111000000000011111111111111110000000000000000000000000000000000000000000000000
00000000000000000000000000000000000000000000000011111110000000000000000000111111111111110111111000000000000001110001111111111100000000011111110111111000000000000000000000000000000000000000000000000000
00000000000000000000000000000000000000000000000111100100000000000000000001111111100111111111111100000000000001111111111111111111111110001111110111110000000000000000000000000000000000000000000000000000
00000000000000000000000000000000000000000000001111100000000000000000011111111110000011111111111000000000000001111111110011111011111110001111111111100000000000000000000000000000000000000000000000000000
00000000000000000000000000000000000000000000011111110000000000001111111111110000000011111111110000000000000011111011100001111011111110000111111110000000000000000000000000000000000000000000000000000000
00000000000000000000000000000000000000000000111111100000000000111111001111000000000001111111000000000111000011111011100100111111111110000000010000000000000000000000000000000000000000000000000000000000
00000000000000000000000000000000000000000011111111100001111111111110000000000000000000000000000000000111000011111111111110011111111100000000000000000000000000000000000000000000000000000000000000000000
00000000000000000000000000000000000000000111111111111111111111111111000000000000000000000000000000000000000000000011111111100111111100000000000000000000000000000000000000000011100000000000000000000000
00000000000000000000000000000000000000000111111111111111111111111111000000000000000000000000000000000000000000000001111110000011111100000000000000000000000000000000000000000011100000000000000000000000
00000000000000000000000000000000000000000000111111111111111111111111000000000000000000000000000000000000010000000001111000000111111000000000000000000000000000000000000000011100000000000000000000000000
00000000000000000000000000000000000000001000000111111111111111111100000000000000000000000000000000000000010000000011100000000000000000000000000000000000000000000000000000000000000000000000000000000000
00000000000000000000000000000000000000001100000001111111100000000000000000000000000000000000000000000000000000000000000000000000000000000000001110000000000000000000000000000000000000000000000000000000
00000000000000000000000000000000000000001111111001111110000000000000000000000000000000000000000000000000000000000000000000000000000000000000001110000000000000000000000000000000000000000000000000000000
00000000000000000000000000000000000000001111111111110000000000000000000000000000000000000000000000000000000000000000000000000000000000000000000000000000000000000000000000000000000000000000000000000000
00000000000000000000000000000000000000111111111110000000000000000000000000000000000000000000000000000000000000000000000000000000000000000000000000000000000000000000000000000000000000000000000000000000
00000000000000000000000000000000000111111111111000000000000000000000000000000000000000000000000000000000000000000000000000000000000000000000000000000000000000000000000000000000000000000000000000000000
00000000000000000000000000000000111111111110000000000000000000000000000000000000000000000000000000000000000000000000000000000000000000000000000000000000000000000000000000000000000000000000000000000000
00000000000000000000000000000000111111110000000000000000000000000000000000000000000000000000000000000000000000000000000000000000000000000000000000000000000000000000000000000000000000000000000000000000
00000000000000000000000000000000011110000000000000000000000000000000000000000000000000000000000000000000000000000000000000000000000000000000000000000000000000000000000000000000000000000000000000000000
