P1
200 70
00000000000000000000000000000000000000000000000000000000000000000000000000000000000000000000000000000000000000000000000000000000000000000000000000000000000000000000000000000000000000000000000000000000
00000000000000000000000000000000000000000000000000000000000000000000000000000000000000000000000000000000000000000000000000000000000000000000000000000000000000000000000000000000000000000000000000000000
00000000000000000000000000000000000000000000000000000000000000000000000000000000000000000000000000000000000000000000000000000000000000000000000000000000000000000000000000000000000000000000000000000000
00000000000000000000000000000000000000000000000000000000000000000000000000000000000000000000000000000000000000000000000000000000000000000000000000000000000000000000000000000000000000000000000000000000
00000000000000000000000000000000000000000000000000000000000000000000000000000000000000000000000000000000000000000000000000000000000000000000000000000000000000000000000000000000000000000000000000000000
00000000000000000000000000000000000000000000000000000000000000000000000000000000000000000000000000000000000000000000000000000000000000000000000000000000000000000000000000000000000000000000000000000000
00000000000000000000000000000000000000000000000000000000000000000000000000000000000000000000000000000000000000000000000000000000000000000000000000000000000000000000000000000000000000000000000000000000
00000000000000000000000000000000000000000000000000000000000000000000000000000000000000000000000000000000000000000000000000000000000000000000000000000000000000000000000000000000000000000000000000000000
00000000000000000000000000000000000000000000000000000000000000000000000000000000000000000000000000000000000000000000111000000000000001110000000000000000000000000000000000000000000000000000000000000000
00000000000000000000000000000000000000000000000000000000000000000000000000000000000000000000001110000000000000000000111000000000000001110000000000000000000000000000100000000000000000000000000000000000
00000000000000000000000000000000000000000000000000000000000000000000000000000000000000000000001110000000000000000000000000000000000000000000000000000000000000000001110000000000000000000000000000000000
00000000000000000000000000000000000000000000000000000000000000000000000000000000000000000000000000000000000000000000000000000000000000000000000000000000000000000011111100000000000000000000000000000000
00000000000000000000000000000000000000000000000000000000000000000000000000000000000000000000000000000000000000000000000000000000000000000000000000000000111000000111111000000000000000000000000000000000
00000000000000000000000000000000000000000000000000000000000000000000000000000000000000000000000000000000000000000000000000000000000000000000000000000000111000000111110000000000000000000000000000000000
00000000000000000000000000000000000000000000000000000000000000000000000000000000001001111111000000000000000000000000000000000000000000000000000000000000000000001111100000000000000000000000000000000000
00000000000000000000000000000000000000000000001110000000000000000000000000000000111111111111100111100000000000000000000000000000000000000000000000000000000000011111100000000000000000000000000000000000
00000000000000000000000000000000000000000000001111000000000000000000000000000000111111111111111111111100000000000000000000000000000000000000000111100000000000111111000000000000000000000000000000000000
00000000000000000000000000000000000000000000011111100000000000000000000000000001111111111111111111111110000000000001111100000000000000000000111111111111000000111111000000000000000000000000000000000000
00000000000000000000000000000000000000000111110001111100000000000011100000000111111111111110001111111110000000000011111110000000000000000001111111111111100001111111000000000000000000000000000000000000
00000000000000000000000000000000000000000111110001111110000000000011100000011111110000000000000111111110000000001111111111100000000000000111111111111111111111110000000000000000000000000000000000000000
00000000000000000000000000000000000000001111111111111111100000000000000111111111110000000000000001111110000000001101111111100000000000000111001111111111111111100000000000000000000000000000000000000000
00000000000000000000000000000000000000001111100000001111110000000000000111111111111000000000000000111100000000011000111111110000000000001110000110001111111111110000000000000000000000000000000000000000
00000000000000000000000000000000000000000000000000000001110000000000000011111111111000000000000000001100000000111000111111110000000000011111000000000111111111100000000000000000000000000000000000000000
00000000000000000000000000000000000000000000000000000000111100000000000001111111100000000000000000000000000000011100000111000000000000011100111000000011111111000000000000000000000000000000000000000000
00000000000000000000000000000000000000000000000000000000111110000000000011101111000000000000000000000000000000011110000010000000000000011101110000000111111111100000000000000000000000000000000000000000
00000000000000000000000000000000000000000000000000000000011111000000000011101111000000000000000000000000000000011110000001000000000000111111110000001111111111100000000000000000000000000000000000000000
00000000000000000000000000000000000000000000000000000000001111000000000011111110000011000000000000000111000000000000000001000000000000111111100000111111111111110000000000000000000000000000000000000000
00000000000000000000000000000000000000000000000000000000000111000000000011111100000111111100000000000111000111000000000000111000000000111111000001111111001111111000000000000000000000000000000000000000
00000000000000000000000000000000000000000000000000000000000111100000000111101110001111111110000000000000111100011100000000111000000000111100000111111110000111111100000000000000000000000000000000000000
00000000000000000000000000000000000011100000000000000000000111100000000111101111111111111111100000000000111000011100000000110000000000111100111111111000000111111100000000000000000000000000000000000000
00000000000000000000000000000000000011100000000000000000000011100000000111111111111111111111110000000000000000011100000000110000000000011111111111110000000011011100000000000000000000000000000000000000
00000000000000000000000000000000000000000000000000000000000011100000000111111111111100111111111000000000000000000000000001111100000000011111111110000000000011001100000000000000000000000000000000000000
00000000000000000000000000000000000000000000000000000000000011100000000111111111000000011111111110000000000000000000000001111110000011111111111000000000000011100000000000000000000000000000000000000000
00000000000000000000000000000000000000000000000000000000000011100000001111111000000011100111111111000000000000000000000001111110011111111111100000000000000011110000000000000000000000000000000000000000
00000000000000000000000000000000000000000000000000000000000011110000001111111000000000000011111111000000000000000000000001111111111111111111000000000000000011111100000000000000000000000000000000000000
00000000000000000000000000000000000000000000000000000000000011110000001111111000000000000001111111100000000000000111100111111111111111111111000000000000000011111100000000000000000000000000000000000000
00000000000000000000000000000000000000000000000000000000000011110000001111111000000000000000100111100000001111111111111111111111110001110111100000000000000001111100000000000000000000000000000000000000
00000000000000000000000000000000000000000000000000000000000111100000001111111000000000000000000011111111111111111111111110111110000000100111100000000000000001111100000000000000000000000000000000000000
00000000000000000000000000000000000000000000000000000000000111100000000111111000000000000000000111111111111111111100011110111000000000111111110000000000000111111100000000000000000000000000000000000000
00000000000000000000000000000000000000000000000000000000001111100000000111111000000000111111001111111111111000000000001111110000000000011111111000000000011111111110000000000000011100000000000000000000
00000000000000000000000000000000000000000000000000000000011111000000000111111100111111111111111111111111100000000000001100000000000000011111111100000000111111111110000000000000011000000000000000000000
00000000000000000000000000000001110000000000000000000000111111000000000111111111111110011111111111110000000000000000011100000000000000011111111111110001111111111110000000000000000000000000000000000000
00000000000000000000000000000001110000000000000000000001111110000000011111111110011100000000111111110000000000000000111111000000000000000111111111111111101111111110000000000000000000000000000000000000
00000000000000000000000000000000000000000000000000000011111100000111111111111100000000000000011111110000000000000001111111000000000000000011111111111111100111111110000000000000000000000000000000000000
00000000000000000000000000001000000000000000000000000011111100011111111111111100000000000000011101110000000000000011111110000000000000000011111111111111111111111110000000000000000000000000000000000000
00000000000000000000000000000000000000000000000000000111111110111111110011111110000000000000011101110000000000000111100100000000000000000001111111111111110011111110000000000000000000000000000000000000
00000000000000000000000000000000000000000000000000011111111111111000000001111111100000000000011111110000000000000011100000000000000000000000111111111111100011111110000000000000000000000000000000000000
00000000000000000000000000000000000000000000011111111111111110000000000000011111110000000000111111100000000011000011110000000000000000000000001111100000000011111110000000000000000000000000000000000000
00000000000000000000000000000000000000000011111111111100100000000000000000001111111000000001111111100000000011100111100000000000000000000000000000000000000011110000000000000000000000000000000000000000
00000000000000000000000000000000000000111111111111111000000000000000000000000111110000000011111111000000000001111000000000000000000000000000000000000000000011110000000000000000000000000000000000000000
00000000000000000000000000000000011111111111111111111000000000000000000000000011111011100111111111000000000001111000000000000000000000000000000000000000000111111100000000000000000000000000000000000000
00000000000000000000000000000000011111111000001111110000000000000000000000000111111111111111100011000000000011111100000000000000000000000000000000000000000111111100000000000000000000000000000000000000
00000000000000000000000000000000011111110000001111100000000000000000000000000111111111111111100001000000000111111000000000000000000011111100000000000000000111111100000000000000000000000000000000000000
00000000000000000000000111000000010000000000111111100000000000000000000000000000000111111111111110000000000111111000000000000000000011111100000000000000000111111000000000000000000000000000000000000000
00000000000000000000000111000000000000000000111111000000000000000000000000000000000011111111111110000000001111110000000000000000000011111110000000000000001111111000000000000000000000000000000000000000
00000000000000000000000000000000000000000000111100000000000000000000000000000000000001111111111100000000011111110000011111000000000011111110000000000000011101111000000000000000000000000000000000000000
00000000000000000000000000000000000000000000111000000000000000000000000000000000000000011111111000000000111111111111111111111111000001111111000000000000001101110000000000000000000000000000000000000000
00000000000000000000000000000000000000000001110000000000000000000000000000000000000000000000000000000000111111111111111111111111000001111111111100000000001111110000000000000000000000000000000000000000
00000000000000000000000000000000000000000111100000000001000000000000000000000000000000000000000000000000111111111111111111111111100001111111111100000011100111111000000000000000000000000000000000000000
00000000000000000000000000000000000000001111100010000001110000000000000000000000000000000000000000000000111111111111111111111100111101111111111000001111110111111000000000000000000000000000000000000000
00000000000000000000000000000000000000011111110111100001100000000000000000000000000000000000000000000000111111111111111111111000011100111111111000111111111111000000000000000000000000000000000000000000
00000000000000000000000000000000000000011111111111111111111000000000000000000000000000000000000000000000000001111111000000000000000000000111111101111111111110000000000000000000000000000000000000000000
00000000000000000000000000000000000000000001111111111111111100111110000000000000000000000000000000000000000000001100000000000000000000100111111111111111111100000000000000000000000000000000000000000000
00000000000000000000000000000000000000000000000000000111111111111110000000000000000000000000000000000000000000000000000000000000000000111111111111111111110000000000000000000000000000000000000000000000
00000000000000000000000000000000000000000000000000000000001111111110000000000000000000000000000000000000000000000000000000000000000000000011111111111111000000000000000000000000000000000000000000000000
00000000000000000000000000000000000000000000000000000000000000000000000000000000000000000000000000000000000000000000000000000000000000000000111111111000000000000000000000000000000000000000000000000000
00000000000000000000000000000000000000000000000000000000000000000000000000000000000000000000000000000000000000000000000000000000000000000000000000000000000000000000000000000000000000000000000000000000
00000000000000000000000000000000000000000000000000000000000000000000000000000000000000000000000000000000000000000000000000000000000000000000000000000000000000000000000000000000000000000000000000000000
00000000000000000000000000000000000000000000000000000000000000000000000000000000000000000000000000000000000000000000000000000000000000000000000000000000000000000000000000000000000000000000000000000000
00000000000000000000000000000000000000000000000000000000000000000000000000000000000000000000000000000000000000000000000000000000000000000000000000000000000000000000000000000000000000000000000000000000
