P1
200 70
00000000000000000000000000000000011111111000000000000000000000000000000000000000000000000000000000000000000000000000000000000000000000000000000000000000000000000000000000000000000000000000000000000000
00000000000000000000000000000000011111111111000000000000000000000000000000000000000000000000000000000000000000000000000000000000000000000000000000000000000000000000000000000000000000000000000000000000
00000000000000000000000000000000011111111111111100000000000000000000000000000000000000000000000000000000000000000000000000000000000000000000000000000000000000000000000000000000000000000000000000000000
00000000000000000000000000000000000000011111111111111111111110000000000000000000000000000000000000000000000000000000000000000000000000000000000000000000000000000000000000000000000000000000000000000000
00000000000000000000000000000000000000000001111111111111111111111111111111000000000000000000000000000000000000000000000000000000000000000000000000000000000000000000001000000000000000000000000000000000
00000000000000000000000000000000000000000000001111111111111111111111111111111111111111111111110000000000000000000000000000000000000000000000000000000000000000001111111000000000000000000000000000000000
00000000000000000000000000000000000000000000000000000111111111111111111111111111111111111111111111111111111111111111111110000000000000000000000000111111111111111111111000000000000000000000000000000000
00000000000000000000000000000000000000000000000000000000000000000000111111111111111111111111111111111111111111111011111111111111111111111111111111111111111111111111111000000000000000000000000000000000
00000000000000000000000000000000000000000000000000000000000000000000000000000000111111111111111111110011111111111011111111111111111111111111111111111111111111111000000000000000000000000000000000000000
00000000000000000000000000000000000000000000000000000000000000000000000000000000000000000000000000000001111111111111111111001111111011111111111111111111111111110000000000000000000000000000000000000000
00000000000000000000000000000000000000000000000000000000000000000000000000000000000000000000000000000000000000000000000000000111110001111111110100001111100011111000000000000000000000000000000000000000
00000000000000000000000000000000000000000000000000000000000000000000000000000000000000000000000000000000000000000000000000000000000000000001111110001111111111111000000000000000000000000000000000000000
00000000000000000000000000000000000000000000000000000000000000000000000000000000000000000000000000000000000000000000000000000000000000000001111111111111111111111000000000000000000000000000000000000000
00000000000000000000000000000000000000000000000000000000000000000000000000000000000000000000000000000000000000000000000000000000000000000000111111111111111111111100000000000000000000000000000000000000
00000000000000000000000000000000000000000000000000000000000000000000000000000000000000011100000000000000000011000000000000000000000000000000111111111111111111111110000000000000000000000000000000000000
00000000000000000000000000000000000000000000000000000000000000000000000000000000000000011100000000000011111111111000000000000000000000000001111111111111111111111111000000000000000000000000000000000000
00000000000000000000000000000000000000000000000000000000000000000000000000000000111100001000000000111111111111111111000000000000000000000001111111111111111111111111100000000000000000000000000000000000
00000000000000000000000000000000000000000000000111100000000000000000000000000001111111111100000000111111111111111111110000000000000000000001111110000001111111111111100000000000000000000000000000000000
00000000000000000000000000000000000000000000011111110000000000000000000000001111111111111110000000011111111111111111110000000000000000000000110000000000001111111111100000000000000000000000000000000000
00000000000000000000000000000000000000000000111111111110000000000000000000011110111111111100000000001111111111111111100000100000000000000000000000000000000111111111000000000000000000000000000000000000
00000000000000000000000000000000000000000000111111111111000000000000000000111110111111111100000000011101111111001111110000100000000000000000000000000000000111111111000000000000000000000000000000000000
00000000000000000000000000000000000000000001111000110011100000000000000001111111111111111111100000011101111111000011111110000000000000000000000000000000000000111111110000000000000000000000000000000000
00000000000000000000000000000000000000000000110000000011110000000000000000111111110001111111100000111111111111110011111110000000000000000000000000000000000000111111100000000000000000000000000000000000
00000000000000000000000000000000000000000000000000000111110000000000000000111111000000111111100000111111111111111111111110000000000000000000000000000111000000111111110000000000000000000000000000000000
00000000000000000000000000000000000000000000000000000111111000000000000000011100000000011111110000111111000000011111111110000000000000000000000000000000000000011111110000000000000000000000000000000000
00000000000000000000000000000001110000000000000000000011111100000000000000011000000000011111100000110000000000011111111110000000000000000000000000000000000000111111110000000000000000000000000000000000
00000000000000000000000000000001100000000000000000000001111100111000000000111000000000001111000000000000000000011111111110000000000000000000000000000000000000111111100000000000000000000000000000000000
00000000000000000000000000000000000000000000000000000001111110111000000001111000000000000000000000000000000000011111111110000000000000000000000000000000000000111111100000000000000000000000000000000000
00000000000000000000000000000000000000000000000000000000111110000000001111111000000000000000000000000000000000111111111110000000000000000000000000000000000000111111100000000000000000000000000000000000
00000000000000000000000000000000000000000000000000000000111110000000011111110000000000000000000000000000000000111111111000000000111000000000000000000000000001111111110000000000111000000000000000000000
00000000000000000000000000000000000000000000000000000000111110000000011111000000000000000000000000000111000000011111111000000000111000000000000111000000000001111111110000000000111000000000000000000000
00000000000000000000000000000000011100000000000000000000111110000000001111000000001110000000000000000111000000011111111110000000010000000000000111000000000011111111000000000000000000000000000000000000
00000000000000000000000000000000011100000000000000000000111110000000001111100001111111000000000000000000000001111111111100000000111000000000000000001110000111111110000000000000000000000000000000000000
00000000000000000000000000000000000000000000000000000000111111000000001111110011111111110000000000000001111111111111111100000000110000000000000000001110001111111100000000000000000000000000000000000000
00000000000000000000000000000000000000000000000000000000111111000000001111110000111111111000000000000001111111111111111000000000000000000000000000000000011111111100000000000000000000000000000000000000
00000000000000000000000000000000000000000000000000000000111110000000001111111000011111111100000000000001111111111111110000000000000000000000000000000000111111111000000000000000000000000000000000000000
00000000000000000000000000000000000000000000000000000111111100000000001111111100011111110000000000000001111111111111100000000000000000000000000000000011111011110000000000000000000000000000000000000000
00000000000000000000000000000000000000000000000000001111111100000000001111111111101111110010000000000001111111111111110000000000000000000000000011100111111001100000000000000000000000000000000000000000
00000000000000000000000000000000000000000000000000011111111000000000000111111111000001111111000000000001111111111111111100000000000011000000000011111111111110000000000000000000000000000000000000000000
00000000000000000000000000000000000000000011100001111111110000000000000111111110000001111111000000000001111111111111111110000000000000000000000000111111111100000000000000000000000000000000000000000000
00000000000000000000000000000000000000000011100111111111111000000000001111111100000000111110000000000001111111111111111111000000000000000000000000111110111000000000000000000000000000000000000000000000
00000000000000000000000000000000000000000000011111111100111000000000001111111100000000111110000000000001111111111111111111110000000000000000001001111110010000000000000000000000000000000000000000000000
00000000000000000000000000001100000000000000111111110000000000000000000111111000000000111110000000000000000011111111011111110000000000000000001111111111000000000000000000000000000000000000000000000000
00000000000000000000000000011100000000000011111111000000000000000000000011110000000000111100000000000000000011100111011111110000000000000000011111111110000000000000000000000000000000000000000000000000
00000000000000000000000000000000000000000011111000000000000000000000000011110000000000011100000000000000000011100011111111110000000000000000111111111100000000000000000000000000000000000000000000000000
00000000000000000000000000000000000000100111100000000000000000011100000011111000000000111110000000000000000000000011111111110000000000000011111111111000000000000000000000000000000000000000000000000000
00000000000000000000000000000000000000111111100000000000000000011100000011111000000000111110000000000000000000000001111111110000000000000111111111110011100000000000000000000000000000000000000000000000
00000000000000000000000000000000000000111111111000000000000000000000000011111000000000111110000000000000000000000001111111110000000000001111111111000011100000000000000000000000000000000000000000000000
00000000000000000000000000000000000000001111111100000000000000000000000011111000000000111110000000000000000000000001111111110000000000011111111110000000000000000000000000000000000000000000000000000000
00000000000000000000000000000000000000000111111110000000000000000000000001111100000000111110000000001110000000000001111111111000000000011111110000000000000000000000000000000000000111000000000000000000
00000000000000000000000000000000000000000001111111100000000000000000000001111100000001111100000000001110000000000011111111111000000000011111100000000000000000000000000000000000000111000000000000000000
00000000000000000000000000000000000000000000111111111000000000000000111001111100000001110000000000000000000000000001111111111000000000111111111000000000000000001110000000000000000000000000000000000000
00000000000000000000000000000000000000000000001111111111000000000000111000111110000011110000001110000000000000000001111111110000000000111111111110000000000000001110000000000000000000000000000000000000
00000000000000000000000000000000000000000000000011111111000000000000000000111111000011111000001111000000000000001111111111110000000000111111111111100000000000000000000000000000000000000000000000000000
00000000000000000000000000000000000000000000000001111111100000000000000000111111111111111000001111111111000111111111111111110000000000011111111111110000000000000000000000000000000000000000000000000000
00000000000000000000000000000000000000000000000000001111000000000000000000010011111111110000000111111111111111111111111011110000000000000111111111111000000000000000000000000000000000000000000000000000
00000000000000000000000000000000000000000000000000000111000000000000000000000011111111110000000111011111111111111111111011100000000000000000011111111111000000000000000000000000000000000000000000000000
00000000000000000000000000000000000000000000000000000000000000000000000000001111111111100000000110011111111111101111111111000000000000000000001111111111110000000000000000000000000000000000000000000000
00000000000000000000000000000000000000000000000000000000000000000000000000000111111001000000000000111111111111101111111111000000000000000000001111111111111000000000000000000000000000000000000000000000
00000000000000000000000000000000000000000000000000000000000000000000000000000011110000000000000001111110011111111111111110000000000000000000000001111111111000000000000000000000000000000000000000000000
00000000000000000000000000000000000000000000000000000000000000000000000000000000000000000000000111111100011111111111111100000000000000000000000000111111100000000000000000000000000000000000000000000000
00000000000000000000000000000000000000000000000000000000000000000000000000000000000000000000000011111000111111111111100000000000000000000000000000011111100000000000000000000000000000000000000000000000
00000000000000000000000000000000000000000000000000000000000000000000000000000000000000000000000001110000011111111111000000000000000000000000000000000011110000000000000000000000000000000000000000000000
00000000000000000000000000000000000000000000000000000000000000000000000000000000000000000000000000000000011110000000000000000000000000000000000000000001110000000000000000000000000000000000000000000000
00000000000000000000000000000000000000000000000000000000000000000000000000000000000000000000000000000000000000000000000000000000000000000000000000000000000000000000000000000000000000000000000000000000
00000000000000000000000000000000000000000000000000000000000000000000000000000000000000000000000000000000000000000000000000000000000000000000000000000000000000000000000000000000000000000000000000000000
00000000000000000000000000000000000000000000000000000000000000000000000000000000000000000000000000000000000000000000000000000000000000000000000000000000000000000000000000000000000000000000000000000000
00000000000000000000000000000000000000000000000000000000000000000000000000000000000000000000000000000000000000000000000000000000000000000000000000000000000000000000000000000000000000000000000000000000
00000000000000000000000000000000000000000000000000000000000000000000000000000000000000000000000000000000000000000000000000000000000000000000000000000000000000000000000000000000000000000000000000000000
00000000000000000000000000000000000000000000000000000000000000000000000000000000000000000000000000000000000000000000000000000000000000000000000000000000000000000000000000000000000000000000000000000000
