P1
200 70
00000000000000000000000000000000000000000000000000000000000000000000000000000000000000000000000000000000000000000000000000000000000000000000000000000000000000000000000000000000000000000000000000000000
00000000000000000000000000000000000000000000000000000000000000000000000000000000000000000000000000000000000000000000000000000000000000000000000000000000000000000000000000000000000000000000000000000000
00000000000000000000000000000000000000000000000000000000000000000000000000000000000000000000000000000000000000000000000000000000000000000000000000000000000000000000000000000000000000000000000000000000
00000000000000000000000000000000000000000000000000000000000000000000000000000000000000000000000000000000000000000000000000000000000000000000000000000000000000000000000000000000000000000000000000000000
00000000000000000000000000000000000000000000000000000000000000000000000000000000000000000000000000000000000000000000000000000000000000000000000000000000000000000000000000000000000000000000000000000000
00000000000000000000000000000000000000000000000000000000000000000000000000000000000000000000000000000000000000000000000000000000000000000000000000000000000000000000000000000000000000000000000000000000
00000000000000000000000000000000000000000000000000000000000000000000000000000000000000000000000000000000000000000000000000000000000000000000000000000000000000000000000000000000000000000000000000000000
00000000000000000000000000000000000000000000000000000000000000000000000000000000000000000000000000000000000000000000000000000000000000000000000000000000000000000000000000000000000000000000000000000000
00000000000000000000000000000000011000000000000000000000000000000000000000000000000000000000000000000000000000000000000000000000000000000000000000000000000000000000000000000000000000000000000000000000
00000000000000000000000000000000011100000000000000000000000000000000000000000000000000000000000000000010000000000000000000000000000000000000000000000000000000000000000000000000000000000000000000000000
00000000000000000000000000000000000000000000000000000000000000000011100000000000000000000000111100000010000000000001110000000000000000000000000000000000000000000000000000000000000000000000000000000000
00000000000000000000000000000000000000000000000000000000000000000011100000000000000111111111111110000000000000000000110000000000000000000000000000000000000000000000000000000000000001000000000000000000
00000000000000000000000000000000000000000000000000000000000000000000000000000000001111111111101110000000000000000000000000000000000000000000000000000000000000000000000000000111000000000000000000000000
00000000000000000000000000000000000000000000000000000000000000000000000000000000111111111111101110000000000000000111000000000000000000000000000000000000000000000000000000000111000000000000000000000000
00000000000000000000000001110000000000000000000000000000000000000000000000000001111111110111111110000000000000000000000001111111111000000000000000000000011100000000000000000000000000000000000000000000
00000000000000000000000001110000000000000000000000000000000000000000000000000011110111100001111110000000000000000000001111111111111111000000000000000000011100000000000000000000100000000000000000000000
00000000000000000000000001110000000000000000000000000000000000000000000000000111100011100000011110000000000000000000011111111111111111110000000000000000000000000000000000000011100000000000000000000000
00000000000000000000000001110000000000000000000000000000000000000000000000001111100011100000001110000000000000000000111111111011111111110000000000000000000000000000000000000000000000000000000000000000
00000000000000000000000000000000000000000000000011111111100000000000000000011111000000000000011100000000000000000001111111111001111111111000000111111100000000000000000000000000000000000000000000000000
00000000000000000000000000000000000000000000000111111111110000000000000000001111000000000000000000000000000000000011101111111000000111111111001111111111000000000000000000000000000000000000000000000000
00000000000000000000000000000000000000000000011111111111100000000000000000011110000000000000000000000000000000000111101111111000000011111111111111111111100000000000000000000000000000000000000000000000
00000000000000000000000000000000000000000000111111111111100000000000000001111110000000000000000000000000000000001111111111110000000011110111111111111111100000000000000000000000000000000000000000000000
00000000000000000000000000000000000000000000111111111111111100000000000001101100000000000000000000000000000000011111111111110000000011110111111111111111100000000000000000000000000000000000000000000000
00000000000000000000000000000000000000000001111111100011111100000000000011100100000000000000000000000000000000111111111111100000000011111111111110011111100000000000000000000000000000000000000000000000
00000000000000000000000000000000000000000011111110000001111110000000000111111000000000000000000000000000000000111111111111100000000111111111110000001101100000000000000000000000000000000000000000000000
00000000000000000000000000000000000000000011111000000001111110000000000111111000111111111111110000000000000000011111111111100000000111111111110000001000111110000000001000000000000000000000000000000000
00000000000000000000000000000000000000000111111000000000111110000000001111111000111111111111111111111100011000011111111111000000000111111111110000000001111111000011000000000000000000000000000000000000
00000000000000000000000000000000000000000011111000000000111110000111111111111101111111111111111111111111111111100111111111100000000111111111111000110011111111111111000000000000000000000000000000000000
00000000000000000000000000000000000000000011110000000000001111111111111111111111111111111111111111100111111111110111111111111111100011111111111111111111111111111111000000000000000000000000000000000000
00000000000000000000000000000000000000000000100000000000000111111111111111110000001111111111111100000011111111111111111111111111110111111111111111111111111111111000000000000000000000000000000000000000
00000000000000000000000000000000000000000000000000000000001111111110011111100001001111111111111000000000000011111101111111111111111111111111111111111111111000000000000000000000000000000000000000000000
00000000000000000000000000000000000000000000000000000011111111110000001111110011111111111111111100000000000001111101111111111110011111111111111000111111110000000000000000000000000000000000000000000000
00000000000000000000000000000000000000000000000000001111111111000000001111110011111100011111111110000001110001111111111110000000001111111111110000011111110000000000000000000000000000000000000000000000
00000000000000000000000000000000000000000000000000011111111110000000001111110001100000001111111110000001110000111111111100000000011111111111110000011111110000000000000000000000000000000000000000000000
00000000000000000000000000000000000000000000000001111111111100000000011111111110000000000111111110000000000000001111111100000000011111111111100000011111110000000000000000000000000000000000000000000000
00000000000000000000000000000000000000000000000011111111111100000000011111111110000000000011101111000000001110001111111100000000111111111011100000011111110000000000000000000000000000000000000000000000
00000000000000000000000000000000000000000000001100111111111100000000111111111110000000000011101111000000001110011111111100000001111111111011100000011110110000000000000000000000000000000000000000000000
00000000000000000000000000000000000000000000011110111111110000000000111111111100000000000001111110000000000000011111111111000001111111111111100000011110111111000000000000000000000000000000000000000000
00000000000000000000000000000000000000000000111111111111110001100000111111111000000000000001111110000000000000001111111111100001111111111111100000011111111111000000000000000000000000000000000000000000
00000000000000000000000000000000000000000001111111111111100000000000011111111000000000000000111110000000000000000011111111000011111111111111000000011111111000000111000000000000000000000000000000000000
00000000000000000000000000000000000000000011111111111111000000000000011111111000000000000000111111000000000000000000011110001111111111111111000000011111111000000111000000000000000000000000000000000000
00000000000000000000000000000000000000001111111111111110000000000000111111110000000000000001001111000000000000000000000000000011111111111111000000011111110000000000000000000000000000000000000000000000
00000000000000000000000000000000000000011111111111111110000000000000111111110000000000000001101110000000000000000000000000000011111111000110000000011111110000000000001000000000000000000000000000000000
00000000000000000000000000000000000000111111111111111000000000000000111111110000000000000001111110000000111000000000000000000011111111000000000000011111110000000000001000000000000000000000000000000000
00000000000000000000000000000000000001111111111111110000000000000000111111110000000000000011111110000001111110000111000000000011111111111100000000011111111111111000000000000000000000000000000000000000
00000000000000000000000000000000000011111111111111100000000000000000111111110000000000000011101110000001111100000111000000000111111111111000000000001111111111111000000000000000000000000000000000000000
00000000000000000000000000000000000111111111111110000000000000000000111111110000000000000011101100000001111100000000000000001111111111100000000000001111110000000000000000000000000000000000000000000000
00000000000000000000000000000000001111110111111100000000000000000000111111110000000000000011111100000011111111000000000000000111111111000000000000001111000000000000000000000000000000000000000000000000
00000000000000000000000000000000011111110111111000000000000000000000111111110000000000000011111101110011111111000000000000001111111111100000000000011111000000000000011100000000000000000000000000000000
00000000000000000000000000000000011111111111110000000000000000000000000111100000000000000111111000110011111111110000000000111111110111100000000000001111110000000000011100000000000000000000000000000000
00000000000000000000000000000000111101111111100000000000000000000000000111100000000000000111110000000001111111111000001111001111110011000000000000001111111000000000000000000000000000000000000000000000
00000000000000000000000000000001111101111111000000000000000000000000011111100000000000001110000000000001111111111100111111101111111100000000000000001111111000000000000000000000000000000000000000000000
00000000000000000000000000000000111111111100000000000000000000000000111111100000000000001110000000000000000011111111111111111111111000000000000000001111111000000000000000000000000000000000000000000000
00000000000000000000000000000000011110111000001100000000000000000000111111110000000000011111000000000000000001111111111111111111100000000000000000001111111000000000000000000000000000000000000000000000
00000000000000000000000000000000011110110001111111100000000111000000111111110000000000111111000000000000000000000111111111111111000000000000000000001111111000000000000000000000000000000000000000000000
00000000000000000000000000000000111111110001111111111111001111000000011111111000000000111111000000000000000000000000000100010000000000000000000000000110111000000000000000000000000000000000000000000000
00000000000000000000000000000000111111000001111101111111111111000000011111111000000001111110000000000000000000000000000000000000000000000000000000000100111000000000000000000000000000000000000000000000
00000000000000000000001111110000111110001110011101111101111111000000011111111100001111111000000000000000000000000000000000000000000000000000000000000001111111111110000000000000000000000000000000000000
00000000000000000000001000110000000000110000001111111001111111000000001111111111111111110000000111000000000000000000000000000000000000000000000000000001111111011110000000000000000000000000000000000000
00000000000000000000000000000000000000000000000001100011111111111000001111111111111110000000000111000000000000000000000000000000000000000000000000001110011111001100000111000000000000000000000000000000
00000000000000000000000000000000000000000000000000000000001100111011100111111111111100000000000000000000000000000000000000000000000000000000000000011110001111111000000000000000000000000000000000000000
00000000000000000000000000000000000000000000000000000000011100000011100011111111111000000000000000000000000000000000000000000000000000000000001100111110001100000111000000011100000000000000000000000000
00000000000000000000000000000000000000000000000000000000000000000000000001111111100000000000000000000000000000000000000000000000000000000000011111111110000000000111000000011100000000000000000000000000
00000000000000000000000000000000000000000000000000000000000000000000000000011110000000000000000000000000000000000000000000000000000000000000011111111100000000000000000000000000000000000000000000000000
00000000000000000000000000000000000000000000000000000000000000000000000000000000000000000000000000000000000000000000000000000000000000000000011111110000000000000000000000000000000000000000000000000000
00000000000000000000000000000000000000000000000000000000000000000000000000000000000000000000000000000000000000000000000000000000000000000000011110000000000000000000000000000000000000000000000000000000
00000000000000000000000000000000000000000000000000000000000000000000000000000000000000000000000000000000000000000000000000000000000000000000000000000000000000000000000000000000000000000000000000000000
00000000000000000000000000000000000000000000000000000000000000000000000000000000000000000000000000000000000000000000000000000000000000000000000000000000000000000000000000000000000000000000000000000000
00000000000000000000000000000000000000000000000000000000000000000000000000000000000000000000000000000000000000000000000000000000000000000000000000000000000000000000000000000000000000000000000000000000
00000000000000000000000000000000000000000000000000000000000000000000000000000000000000000000000000000000000000000000000000000000000000000000000000000000000000000000000000000000000000000000000000000000
