P1
200 70
00000000000000000000000000000000000000000000000000000000000000000000000000000000000000000000000000000000000000000000000000000000000000000000000000000000000000000000000000000000000000000000000000000000
00000000000000000000000000000000000000000000000000000000000000000000000000000000000000000000000000000000000000000000000000000000000000000000000000000000000000000000000000000000000000000000000000000000
00000000000000000000000000000000000000000000000000000000000000000000000000000000000000000000000000000000000000000000000000000000000000000000000000000000000000000000000000000000000000000000000000000000
00000000000000000000000000000000000000000000000000000000000000000000000000000000000000000000000000000000000000000000000000000000000000000000000000000000000000000000000000000000000000000000000000000000
00000000000000000000000000000000000000000000000000000000000000000000000000000000000000000000000000000000000000000000000000000000000000000000000000000000000000000000000000000000000000000000000000000000
00000000000000000000000000000000000000000000000000000000000000000000000000000000000000000000000000000000000000000000000000000000000000000000000000000000000000000000000000000000000000000000000000000000
00000000000000000000000000000000000000000000000000000000000000000000000000000000000000000000000000000000000000000000000000000000000000000000000000000000000000000000000000000000000000000000000000000000
00000000000000000000000000000000000011000000000000000000000000000000000000000000000000000000000000000000000000000000000001111110000000000000000000000000000000000000000000000000000111000000000000000000
00000000000000000000000000000000000011000100000000000000000000000000000000000000000000000000000000000000000000000000000111111111100000000000000000000000001110000000000000000000000111000000000000000000
00000000000000000000000000000111000000011100000000000000000000000000000000000000000000000000000000000000000000000000011111111111100000000000000000000000001110000000000000000000000000000000000000000000
00000000000000000000000000000111000000000000000000000000000000000000000000000000000000000000000000000000000000000000111111111111000000000000000000000000000000000000000000000000000000000000000000000000
00000000000000000000000000000110000000000000000000000000000000000000000000000001111100000000000000000000000000000011111111111111000000000000000000000000000000000000000000000000000000000000000000000000
00000000000000000000000000001110000000000000000000000000000000000000000000000000111111111100000000000000000000001111111111111110000000000000000000000000000000000000000000000000000000000000000000000000
00000000000000000000000000001110000000000000000000111110001000000000000111000001111101111111111110000000000001111111111111111110000000000000000000000000000000000000000000000000000000000000000000000000
00000000000000000000000000000000000000000000000011111111111110000000000111000011111101111111111111111110000001111110001111111110000000000000000000000000000000000000000000000000000000000000000000000000
00000000000000000000000000000000000000000000001111111111111100000000000000000011111111111111111111111111111111111100000111111110000000000000000000000000000000111000000000000000000000000000000000000000
00000000000000000000000000000000000000000000111111111101111110000000000000000011111111110111111111111111111111111110000111111110000000000000000000000000111111111100000000000000000000000000000000000000
00000000000000000000000000000000000000000011111111111101111111110000000000000000111111100011111111011111111111111000000111111110000000000000000000000000111111111100010000000000000000000000000000000000
00000000000000000000000000000000000000000111111111111111111101110000000000000000000000000000001110001111011111110000000111111100000000000000000000000001111111111110111000000000000000000000000000000000
00000000000000000000000000000000000000001111111111111111111101110000000000000000000000000000000000001111011100000000001110111100000000000000000000001111111111111111111000000000000000000000000000000000
00000000000000000000000000000000000000011111111111111111111111111000000000000000000000000000000000001111111000000000001110111100000000000000000000001111110111111111111000000000000000000000000000000000
00000000000000000000000000000000000000001111111111111111111111111000000000000000000000000000000000011111110000100000001111111100000000000000000000011111110011111111011100000000000000000000000000000000
00000000000000000000000000000000000000001111111111110011111111111100000000000000000000000000000000111111100000111000001111111000000000000000000000011111111000111111001110000000000000000000000000000000
00000000000000000000000000000000000000011111111111000001111111111110000000000000000000000000000001111011000110000000001111111000000000000000000000111111110000011111110001000000000000000000000000000000
00000000000000000000000000000000001011111111111000000111110111110111111111000000000000000000000001110001101110000000001111111000000000000000000001111111100000000111111001000000000000000000000000000000
00000000000000000000000000000000111111111111111100001111110111110111111111111111110000000000000011111011000000000000001111110000000000000000000011111111100000000001111111000000000000000000000000000000
00000000000000000000000000000000000011111111011111111101111111111111111111101111111110000000000111111111000000000000001111100000000000000000000011111111000000000001111111000000000000000000000000000000
00000000000000000000000000000000000011111110011111111000111111111110000001000111111111100000000111111110000000000000011111100000000000000000000011111111000000000001111111000000000000000000000000000000
00000000000000000000000000000000000001111101111111111100111111111110000000000000111111110010000001111110000000000000011111110000000000000000000001111110000000000001111111000000000000000000000000000000
00000000000000000000000000000000000001111111111111000000111111111110000000000000000111111111110000111100000000000000011111110000000000000000000001111111000000000001111111000000000000000000000000000000
00000000000000000000000000000000000000111111111100000001111111111100000000000000000000111111111100111100000000000000011111110000000000000000000001111111000000000001111111000000000000000000000000000000
00000000000000000000000000000000000000011111111000000001111111111100000000000000000000000011111111111110000000000000111111110000000000000000000001111111000000000011111111000000000000000000000000000000
00000000000000000000000000000000000001100111100000000001111111111100000000000000000000000000111111111111111100000000111111100000000000000000000001111111100000000111111111000000000000000000000000000000
00000000000000000000000000000000000011100011000000000001111111111000000000000000000000000000111111111111111111100000111111100000000000000000000000111111110000001111111111000000000000000000000000000000
00000000000000000000000000000000000100011100000000000001111111011000000000000000000000000000111111111111111111111111111111000000000000000000000000111111111001111111111111000000000000000000000000000000
00000000000000000000000000000000001110011000000000000011111111001000000000000000000000000000111111100000000111111111111111100000000111000000000000111111111111111111111110000000000000000000000000000000
00000000000000000000000000000000001111100000000000000111111111110000000000000000000000000001111111000000000011100111111111111000000111000000000000011111111111111111011110000000000000000000000000000000
00000000000000000000000000000000011111000000000000000111111110010000000000000000000000000001111110000000000000000011111111111111000110000000000000000100111111111111011110111000000000000000000000000000
00000000000000000000000000000000111111000000000000000110111110011100000000000000000000000011111110000000000000000001111111111111111111000000000000000000111111111111111110111000000000000000000000000000
00000000000000000000000000000001100010000000000000001110111111101110000000000000000000000111111110000000000000000000110111110011111111100011100000000001111111111111111100000000000000000000000000000000
00000000000000000000000000000000000000000000000000011111111111101111000000000000000000000111111100000000000000000000110111000001111100000111111111110001111111111111111100000000000000000000000000000000
00000000000000000000000000000000001000000000000000111111111111000111000000000000000000001111111100000000000000000001111111000000000000001111111111110000111100001111111100000000000000000000000000000000
00000000000000000000000000000000000000000000000000111111111110000000000000000000000000001111111000000000000000000001111111000000000000000000111111111001111100001111111000000000000000000000000000000000
00000000000000000000000000000000000000000000000001111111111110000000000000000000000000001111111000000000000000000001111110000000000000000000000000111111111111111111110000000000000000000000000000000000
00000000000000000000011100000000000000000000000011111111111100000000000000000000000000000011111000000000000000000011111000000000000000000000000000000011100111111111110000000000000000000000000000000000
00000000000000000000011100000000000000000000000011111111111100000000000000000000000000010011110000000000000000000011111000000000000000000000000000000000000011111111111110000000000000000000000000000000
00000000000000000000000000000000000000000000000111111111111000000000000000000000000000111111100000000000000000000011111100000000000000000000000000000000000011111111111110000000000000000000000000000000
00000000000000000000000000000000000000000000001111111111110000000000000000000000000000111111100000000000000000000011111100000000000000000000000000001000000011111111111100000000000000000000000000000000
00000000000000000000000000000000000000000000001111111111110000000000000000000000000001111111101110000000000000000011111100000000000000000000000000011111001111111111111100000000000000000000000000000000
00000000000000000000000000000000000000000000011111111111100000000000011100000000000001111111101110000000000000000011111100000000000000000000000000011111111111111111111000000000000000000000000000000000
00000000000000000000000000000000000000000000111111111111111111100000111100000000000001111111000000000000000000000011111100000000000000000000000000111110111011111100000000000000000000000000000000000000
00000000000000000000000000000000000000000001111111111111111111110011111100000000000011111110000000000000000000000111111000000000000000011100000000111100111011111000000000000000000000000000000000000000
00000000000000000000000000000000000000000001111111111111111011111111111110000000000011111100000000000000000000000111111000000000000000011100000000100011111111111000000000000000000000000000000000000000
00000000000000000000000000000000000000000001111111111111111011111111111111000000000111110000000000000000000000001110111000000000000000000000000000000011111111100000000000000000000000000000000000000000
00000000000000000000000000000000000000000000111111111111111111111111111110000000001111110000000000000000000000001110111000000000000000000000000000000111111111000000000000000000000000000000000000000000
00000000000000000000000000000000000000000000011111111111111110111011111110000000001111111000000000000000000000001111111000000000000000000001110000000001111100000000000000000000000000000000000000000000
00000000000000000000000000000000000000000000011110111111111110111011111111000000011111111110000000000000000000001111111000000000000000000001110000000000000000000000000000000000011100000000000000000000
00000000000000000000000000000000000000000000011110111111111111111111111111000000011111111110000000000000011111111111111100000000000000000000000000000000000000000000000000000000011100000000000000000000
00000000000000000000000000000000000000000000011111111111111111111111111111100000010000000000000000000000001111111111111111111000000000000000000000000000000000000000000000000000000000000000000000000000
00000000000000000000000000000000000000011100000001001100010000000000010001000000000000000000000000000000001110111110111111111000000000000000000000000000000000000000000000000000000000000000000000000000
00000000000000000000000000000000001111111100000000000000000000000000000000000000000000000000000000000000011110011100111111111000000000000000000000000000111000000000000000000000000000000000000000000000
00000000000000000000000000000000001111100000000000000000000000000000000000000000000000000000000000000000000111111111111001111000000000000000000000000000111000000000000000000000000000000000000000000000
00000000000000000000000000000000000000000000000000000000000000000000000000000000000000000000000000000000000001111000000000111000000000000000000000000000000000000000000000000000000000000000000000000000
00000000000000000000000000000000000000000000000000000000000000000000000000000000000000000000000000000000000000111000000000000000000000000000000000000000000000000000000000000000000000000000000000000000
00000000000000000000000000000000000000000000000000000000000000000000000000000000000000000000000000000000000000000000000000000000000000000000000000000000000000000000000000000000000000000000000000000000
00000000000000000000000000000000000000000000000000000000000000000000000000000000000000000000000000000000000000000000000000000000000000000000000000000000000000000000000000000000000000000000000000000000
00000000000000000000000000000000000000000000000000000000000000000000000000000000000000000000000000000000000000000000000000000000000000000000000000000000000000000000000000000000000000000000000000000000
00000000000000000000000000000000000000000000000000000000000000000000000000000000000000000000000000000000000000000000000000000000000000000000000000000000000000000000000000000000000000000000000000000000
00000000000000000000000000000000000000000000000000000000000000000000000000000000000000000000000000000000000000000000000000000000000000000000000000000000000000000000000000000000000000000000000000000000
00000000000000000000000000000000000000000000000000000000000000000000000000000000000000000000000000000000000000000000000000000000000000000000000000000000000000000000000000000000000000000000000000000000
