P1
200 70
00000000000000000000000000000000000000000000000000000000000000000000000000000000000000000000000000000000000000000000000000000000000000000000000000000000000000000000000000000000000000000000000000000000
00000000000000000000000000000000000000000000000000000000000000000000000000000000000000000000000000000000000000000000000000000000000000000000000000000000000000000000000000000000000000000000000000000000
00000000000000000000000000000000000000000000000000000000000000000000000000000000000000000000000000000000000000000000000000000000000000000000000000000000000000000000000000000000000000000000000000000000
00000000000000000000000000000000000000000000000000000000000000000000000000000000000000000000000000000000000000000000000000000000000000000000000000000000000000000000000000000000000000000000000000000000
00000000000000000000000000000000000000000000000000000000000000000000000000000000000000000000000000000000000000000000000000000000000000000000000000000000000000000000000000000000000000000000000000000000
00000000000000000000000000000000000000000000000000000000000000000000000000000000000000000000000000000000000000000000000000000000000000000000000000000000000000000000000000000000000000000000000000000000
00000000000000000000000000000000000000000000000000000000000000000000000000000000000000000000000000000000000000000000000000000000000000000000000000000000000000000000000000000000000000000000000000000000
00000000000000000000000000000000000000000000000000000000000000001110000000000000000000000000000000000000000000000000000000000000000000000000000000000000000000000000000000000000000000000000000000000000
00000000000000000000000000000000000000000000000000001110000000001110000000000000000000000000000000000000000000000000000000000000000000000000000000000000000000000000000000000000000000000000000000000000
00000000000000000000000000000000000000000000000000001100000000000000000000000000000000000000000000000000000011110000000000000000000000000000000000000000000000000000000000000000000000000000000000000000
00000000000000000000000000000000000000000000000000000000000000000000000000000000000000000000000000000011100000010000000000000000000000000000000000000000000000001000000000000000000000000000000000000000
00000000000000000000000000000000000000000000000000000000000000000000000000000000000000000000000000000011100000000000000000000000000000000001110000000000111000111111111000000000000000000000000000000000
00000000000000000000000000000000000000000000000000000000000000000000000000000000000000000000000000000000000000000000000000000000000000000000111100000111111101111111111000000000000111000000000000000000
00000000000000000000000000000000000000000000000000000000000000000000000000000000000000000000000000000000000000000000000000000000000000000000111111111111111111111111111000000000000001000000000000000000
00000000000000000000000000000000000000000000000000000000000000000000000000000000000000000000000000000000000000000000000000000000000000000001111111111111110000000000001000000000000000000000000000000000
00000000000000000000000000000000000000000000000000000000000000000000000000000000000000000000000000000000000000000000000000000000000000000011111111111111110000000000000000000011100000000000000000000000
00000000000000000000000000000000000100000000000000000000000000000000000000000000000000000000000001111110000000001110001110000000000000000111111111111111111100000000000000000011100000000000000000000000
00000000000000000000000000000000001110000000000000000000000000000000000000000000000000111000000001111111001111111111111110000000000000011111111111111111111110000000000000000000000000000000000000000000
00000000000000000000000000000000111111000000000000000000000000000000000000000000000000110000000011111111110011111111111110000000000000111111111111111111111111110000000000000000000000000000000000000000
00000000000000000000001110000000011111100000000000000000000011000000000000000000000000000000111111111111111001111111111110000000001111111111111111111111111111111111100000000000000000000000000000000000
00000000000000000000001110000000000011100000000000000011100111100000000000000000000000001111111111011111111100111111111110000000011111110001111100000111111111111111110000000000000000000000000000000000
00000000000000000000000001110000000011110000000111111111111111110000000000000000000011111111111111011101111100011111111110000001111111000000111100000000011111111111111100000000000000000000000000000000
00000000000000000000000001110000000111100011111111111111111111111100000000000111111111111111111111111100011100001101111110000111111100000000000100000000001111111111111001000000000000000000000000000000
00000000000000000000000000000000000111101111111111111111111111111110000011111111111111111111111111111000000000000000111110001111110000000000000000000000000000111111111001000000000000000000000000000000
00000000000000000000000000000000000111111111111111111111111111111111000111111111111111111111111100111000000000000000111111111111100000000000000000000000000000000111111111000000000000000000000000000000
00000000000000000000000000000000000111111111111110111111111111111110001111111111111111110111110000000100000000000000111111111110000000000000000000000000000000000011111110000000000000000000000000000000
00000000000000000000000000000000001111111111110000001111111111111110001111111111111110000011110000000000000000000001111111111000000000000000000000000000000000000111111100000000000000000000000000000000
00000000000000000000000000000000001111111111110000000111111111111111001111111000111000000001111000000000000000000001111111100000000000000000000011100000000000011111111000000000000000000000000000000000
00000000000000000000000000000000001111111111111000000111101111111111000000000000000000000001100000000000000000000011111110000000000000000000000011100000000000011111100000000000000000000000000000000000
00000000000000000000000000000000001111110011111100000011101111111111000000000000000000001110000000000000011100001111111000000000000000000000000000000000000000111111000000000111000000000000000000000000
00000000000000000000000000000000001111110001111100000011111111111111001110000000000000001110000000000000011110111111110000000000000000000000000000000000000000111110000000000111000000000000000000000000
00000000000000000000000000000000001111100000111110000011111111111111001000000000000000011110000000000000001111111111111100000000000000000000000000000000000011111100000000000000000000000000000000000000
00000000000000000000000000000000000000000000011111111111111111111111000000000000000001111100000000000000011111111111111110000000000000000000000000000000000011111100000000000000000000000000000000000000
00000000000000000000000000000000000000000000000011111111111111111111000000000000000011111000000000000001111111110111110000000000000000000000000000000000000011111000000000000000000000000000000000000000
00000000000000000000000000000000111000000111000000111111111111111110000000000000001111110000000000000111111110000011100000000000000000000000000000000000000111110000000000000000000000000000000000000000
00000000000000000000000000000000111000000111000000011111111111111100000000000000001111100000000000011111111000000011100000000000000000000000000000000000001111100000000000000000000000000000000000000000
00000000000000000000000000000000000000000000000000001111111111111000000000000000000111000000000000111111100000000111110000000000000000000000000000000000011111000000000000000000000000000000000000000000
00000000000000000000000000000000000000000000000000000111111111111000000000000000000111000000001111111110000000000111110000000000000000000000000000000000001111000000011100000000000000000000000000000000
00000000000000000000000000000000000000000000000111001111101111111111100000000000011000000111111111111000000000000111110000000000000000000000000000000000000110000000011100000000000000000000000000000000
00000000000000000000000000000000000000000000000111001111001111111111100000000001111100111111111110000000000000000111110000000000000000000000000000111000001100000000000000000000000000000000000000000000
00000000000000000000000000000000000000000000000000011110011111111100011111111111111111111111110000000111000000001111100000000000000000000000000000111000011100011100000000000000000000000000000000000000
00000000000000000000000000000000000000000000000000111110111111111000011111111111111111111100000000001111000000001111100000000000000000000000000000000011111000011100000000000000000000000000000000000000
00000000000000000000000000000000000000000000000001111111111110000000111111111111111111100000000000001110000000001111100000000000000000000000000000000111111000000000000000000000000000000000000000000000
00000000000000000000000000000000000000000000000111111111111100000000000001111111111000000000000000000000000000011111100000000000000000000000000000000111100000000000000000000000000000000000000000000000
00000000000000000000000000000000000000000000001111111111111000000000000000111110000000000000000000000000000001111111100000000000000000000000000000001111100000000000000000000000000000000000000000000000
00000000000000000000000000000000000000000000011111101110000000000000000000111100000000000000000000000000000001111111100000000000000000000000000000001111000000000000000000000000000000000000000000000000
00000000000000000000000000000000000000000011111111100100000000000000000001110000000000000000000000000000000000111111000011100000000000000000000000011111000000000000000000000000000000000000000000000000
00000000000000000000000000000000000000001111111111111100111000000000000111110000000000000000000000011100000000111111000011100000000000000000000000011110000000000000000000000000000000000000000000000000
00000000000000000000000000000000000011111111111111100000111000000000001111110000000000000000000000011100000000111110000000000000000000000000000000111110000000000000000000000000000000000000000000000000
00000000000000000000000000000000011111111111111100000000000000000000001111110000000000000000000000000000000000111100000000000000000000000000000001111100000000000000000000000000000000000000000000000000
00000000000000000000000000000001111111111111110000000000000000000000000111100000000000000000000000000000000000111110000000000000000000000000000001111000000000000000000000000000000000000000000000000000
00000000000000000000000000000001111111111111000000000000000000000001110011000000000000000000000000000000000000111110000000000000000000000000000001111000000000000000000000000000000000000000000000000000
00000000000000000000000000000001110111111110000000000000000000000001111100000000000000000000000000000000000001111110000000000000000000000000000011110000000000000000000000000000000000000000000000000000
00000000000000000000000000000001110111111111111000000000011110000011110000000000000000000000000000000000000000111100000000000000000000000000000111110000000000000000000000000000000000000000000000000000
00000000000000000000000000000001111111111111111100000000011110000111100000000000000000000000000000000000000000011100000000000000000000000000000111100000000000000000000000000000000000000000000000000000
00000000000000000000000000000000111111111111111111111000011110001111110000000000000001110000000000000000000000000000000000000000000000000000000111100000000000000000000000000000000000000000000000000000
00000000000000000000000000000000011110011110111111111100111110000000100000000000000001110000000000000000000000000000000000000000000000000000001111000000000000000000000000000000000000000000000000000000
00000000000000000000000000000000000000011110111111111111111110000000000000000000000000000000000000000000000000000000000000000000000000000000011111000000000000000000000000000000000000000000000000000000
00000000000000000000000000000000000000111111111111110111111110000000000000000000000000000111000000000111000000000000000000000000000000000000011110000000000000000000000000000000000000000000000000000000
00000000000000000000000000000000000000000011111111110111111110000000000000000000000000000111000000000111000000000000000000000000000000000000011100000000000000000000000000000000000000000000000000000000
00000000000000000000111000000000000000000000111111111111111110000000000000000000000000000000000000000000000000000000000000000000000000000000000000000000000000000000000000000000000000000000000000000000
00000000000000000000111000000000000000000000001111111111111110000000000000000000000000000000000000000000000000000000000000000000000000000000000000000000000000000000000000000000000000000000000000000000
00000000000000000000000000000000000000000000000011111111111100000000000000000000000000000000000000000000000000000000000000000000000000000000000000000000000000000000000000000000000000000000000000000000
00000000000000000000000000000000000000000000000001111111111100000000000000000000000000000000000000000000000000000000000000000000000000000000000000000000000000000000000000000000000000000000000000000000
00000000000000000000000000000000000000000000000000011111111100000000000000000000000000000000000000000000000000000000000000000000000000000000000000000000000000000000000000000000000000000000000000000000
00000000000000000000000000000000000000000000000000000011111000000000000000000000000000000000000000000000000000000000000000000000000000000000000000000000000000000000000000000000000000000000000000000000
00000000000000000000000000000000000000000000000000000001111000000000000000000000000000000000000000000000000000000000000000000000000000000000000000000000000000000000000000000000000000000000000000000000
00000000000000000000000000000000000000000000000000000000010000000000000000000000000000000000000000000000000000000000000000000000000000000000000000000000000000000000000000000000000000000000000000000000
00000000000000000000000000000000000000000000000000000000000000000000000000000000000000000000000000000000000000000000000000000000000000000000000000000000000000000000000000000000000000000000000000000000
00000000000000000000000000000000000000000000000000000000000000000000000000000000000000000000000000000000000000000000000000000000000000000000000000000000000000000000000000000000000000000000000000000000
