P1
200 70
00000000000000000000000000000000000000000000000000000000000000000000000000000000000000000000000000000000000000000000000000000000000000000000000000000000000000000000000000000000000000000000000000000000
00000000000000000000000000000000000000000000000000000000000000000000000000000000000000000000000000000000000000000000000000000000000000000000000000000000000000000000000000000000000000000000000000000000
00000000000000000000000000000000000000000000000000000000000000000000000000000000000000000000000000000000000000000000000000000000000000000000000000000000000000000000000000000000000000000000000000000000
00000000000000000000000000000000000000000000000000000000000000000000000000000000000000000000000000000000000000000000000000000000000000000000000000000000000000000000000000000000000000000000000000000000
00000000000000000000000000000000000000000000000000000000000000000000000000000000000000000000000000000000000000000000000000000000000000000000000000000000000000000000000000000000000000000000000000000000
00000000000000000000000000000000000000000000000000000000000000000000000000000000000000000000000000000000000000000000000000000000000000000000000000000000000000000000100000000000000000000000000000000000
00000000000000000000000000000000000000000000000000000000000000000000000000000000000000000000000000000000000000000000000000000000000000000000000000000000000000000001110000000000000000000000000000000000
00000000000000000000000000000000000000000000000000000000000000000000000000000000000000000000000000000000000000000000000000000000000000000000000000000000000000000011111100000000000000000000000000000000
00000000000000000000000000000000000000000000000000000000000000000000000000000000000000000000000000000000000000000000000000000000000000000000000000000000000000000111111000000000000000000000000000000000
00000000000000000000000000000000000000000000000000000000000000000000000000000000000000000000000000000000000000000000000000000000000000000000000000000000000000000011110000000000000000000000000000000000
00000000000000000000000000000000000000000000000000000000000000000001110000000000000000000000000000000000000000011111110000000000000000000000111100000000000000000111100000000000000000000000000000000000
00000000000000000000000000000000000000000000000000000000000011100001110000000000000000000000000000000000001111111111111100000000000000000000111111111000111110011111100000000000000000000000000000000000
00000000000000000000000000000000000000000000000000000000000011100000000000000000000000000000000000000000000111111111111000000000000000000001111111111111000111111111000000000000000000000000000000000000
00000000000000000000000000000000000000000000000000000000000000000000000000000000000000000000000000001111101111111111111100110000000000000001111111111111100111111111000000000000000000000000000000000000
00000000000000000000000000000000000000000000000000000000000000000000000000000011111000000000000000011111111111000001111111111000000000000001111111111111110011110111000000000000000000000000000000000000
00000000000000000000000000000000000000000011100000000000111111111110000000000111111111101110000000011111111100000000011111111100000000000001111111111111111011110111000000000000000000000000000000000000
00000000000000000000000000000000000000000011111111111001111111110111111111001111111111110000000000011111111000000000000000011110000000000001111111111111111111111111000000000000000000000000000000000000
00000000000000000000000000000000000000000111111101111111111111110111111111111111111111110000000000111111100000000000000000011111000000000001111000000011111111111110000000000000000000000000000000000000
00000000000000000000000000000000000111111111111000111111111111111111111111111011111111111100000000111111100000000000000011111111100000000001111000000011111111111110000000000000000000000000000000000000
00000000000000000000000000000000111110111111111000111111111000000000000001111011111111111111111000011111000000000000000011111111100000000001111000000111011111111110000000000000000000000000000000000000
00000000000000000000000000000000111100011111111101111111111000000000000000011111111111111111111111011110000000000000000001111111100000000001111000011110001001111000000000000000000000000000000000000000
00000000000000000000000000000000011110111111111111111111111100000000011000011111000000111111111111111111100000000000000001111111100000000001111001111111000001110000000000000000000000000000000000000000
00000000000000000000000000000000010000111111111111111111111110000000011100001111000000011110011111111111111100000000000000111111100000000001110111111000000011111000000000000000000000000000000000000000
00000000000000000000000000000000000000111111110000000011111111000000000000001111000000001110000001111111000001000000000000111111100000000000000111110000000011111000000000000000000000000000000000000000
00000000000000000000000000000000000000111111100000000000111111100000000000011111000000001111100000001110000011111110000000111111110000000000000011100000000011110000000000000000000000000000000000000000
00000000000000000000000000000000000000111110000000000000111011110000000000011111000000000111100000000000001111111111111111111100011111111111100010000000000011110000000000000000000000000000000000000000
00000000000000000000000000000000000001111110000000000000010011110000000001111111000000000011110000000000000000111111111111111000111111111111111000000000000100110000000000000000000000000000000000000000
00000000000000000000000000000000000001001111000000000000001111111000000001111111100000000011110000000000000000000111111100111001111111110001100000000000000110010000000000000000000000000000000000000000
00000000000000000000000000000000000001001111000000000000001111111000000000001111100000000111110000000000000000000000000000011111111111000000000000000000001111000011100000000000000000000000000000000000
00000000000000000000000000000000000000111111000000000000001111111000000000000111100000000111110000000000000000000000000000111111110000000000000000000000001111000011100000000000000000000000000000000000
00000000000000000000000000000000000000111111000000000000001111001000000000000111110000000111110000000000000000000000000000111111110000000000000000000000011111000000000000000000000000000000000000000000
00000000000000000000000000000000000000111111000000000000001110001111000000000011111110011111110000000000000000000000000000111111110000000000000000000000011111000000000000000000000000000000000000000000
00000000000000000000000000000000000000011110000000000000000001111111000000000011111111111111100000000000000000000000000001111111100000000000000000000000111111000000001110000000000000000000000000000000
00000000000000000000000000000000000000000000000000000000010011110000000000000001111111111011101110000000000000000000000001111111100000000000000000000000111111000000001110000000000000000000000000000000
00000000000000000000000000000000000000000000000000000000111111110000000000000000111111111011111110000000000000000000000011111111000000000000000000000000111110000000000000000000000000000000000000000000
00000000000000000000000000000000000000000111000000000001110111100000000000000000111111111111111100000000000000000000000001111110000000000000000111000000111110000000000000000000000000000000000000000000
00000000000000000000000000000000000000000111000000000011110111000000000000000001111111111111111100000000000000000000000001111110000000000000000111000001111100000000000000000000000000000000000000000000
00000000000000000000000000000000000000000000000000000011111110000000000000000001111111101111100010000000000000000000000011111110000000000000000000000001111100000000000000000000000000000000000000000000
00000000000000000000000000000000000000000000000000000001111100000000000000000001111110000000000111000000000000000000000111111100000000000000000000000011111000000000000111000000000000000000000000000000
00000000000000000000000000000000000000000000000001110001111100000000000000000011111100000000011111100000000000000000001111111000000000000000000000000011111000000000000111000000000000000000000000000000
00000000000000000000000000000000000000000000000001111011111000000000000000000011111000000000011111100000000000000000000111110000000000000000000000000011111000000000000000000000000000000000000000000000
00000000000000000000000000000000000000000000000001111111110000000000000000000011111000000000001111110000000000000000100111100000000000000000000000000111111110000000000000000000000000000000000000000000
00000000000000000000000000000000000000000000000011111111000000000000000000000111111000000000000111111000000000000011111111000000000000000000000000001111111110000000000000000000000000000000000000000000
00000000000000000000000000000000000000000111000111111110000000000000000000000111111000000000000111111000000000001111111110000000000000000000000000001111111110000000000000000000000000000000000000000000
00000000000000000000000000000000000000000111000111111100000000000000000000000011111000000000000011111000000000000111111100000000000000000001110000001111111110000000000000000000000000000000000000000000
00000000000000000000000000000000000000000000001111111100000000000000000000000011111000000000000011111000000000000111111000000000000000000001110000011111100000000000000000000000000000000000000000000000
00000000000000000000000000000000000000000000011111111000000000000001111000000011110000000000000011111000000000011111110000000000000000000000000000111111000000000000000000000000000000000000000000000000
00000000000000000000000000000000000000000000011111110000000000011111111000000111100000000000000011111100000000111111110000000000000000000000000000111111000000111000000000000000000000000000000000000000
00000000000000000000000000000000000000000000111111110000000000111111111000000000011000000000000111111100000001111111100000000000000000000000000001111110000000111000000000000000000000000000000000000000
00000000000000000000000000000000000000000000111111100000000111111011111000111000111100000000000111111000000011101111000000000000000000000000000011111110000000000000000000000000000000000000000000000000
00000000000000000000000000000000000000000000111111000000000011111001100000111111111110000000001111110000001111100110000000000000000011000000111111111100000000000000000000000000000000000000000000000000
00000000000000000000000000001110000000000000001111000001110111111110000111001111111111000000001111110000001111111100000000000000000011100000001111011100000000000000000000000000000000000000000000000000
00000000000000000000000000001110000000000001001111001111111111111000000011000011111111100111000110000000001111111111000000000000000011110000000111011000000000000000000000000000000000000000000000000000
00000000000000000000000000000000000000000001111111111111111111000000000011100001111111111111101110000000001111111111111111000000000011111000000111111000000000000000000000000000000000000000000000000000
00000000000000000000000000000000000000000001111111111111111110000000000001110000111111111111111111000000001111111111111111111000000011111000001111110000000000000000000000000000000000000000000000000000
00000000000000000000000000000000000000000001111111111111111110000000000001110000111111111111111110000000001111111111111111111100100011111000011111110000000000000000000000000000000000000000000000000000
00000000000000000000000000000000000000000001111111111111000010000000000000000000001111111111001000000000000001111111111111111111111111110000011111100000000000000000000000000000000000000000000000000000
00000000000000000000000000000000000000000001111111111100000000000000000000000010001111111111000000000000000000001111111111111111111111110000011111100000000000000111000000000000000000000000000000000000
00000000000000000000000000000000000000000001111111111000000000000000000000000010000001000011100000000000000000000000111111111111111111111000000111000000000000000110000000000000000000000000000000000000
00000000000000000000000000000000000000000001111111100000000000000000000000000000000000000011110000000000000000000000000001111111111011111000000000000000000000000000000000000000000000000000000000000000
00000000000000000000000000000000000000000001111110000000000000000000000000000000000000000001111000000000000000000000000000001001111011111101110000000000000000000000000000000000000000000000000000000000
00000000000000000000000000000000000000000001111000000000000000000000000000000001110000000000111000000000000000000000000000000000111111111111110000000000000000000000000000000000000000000000000000000000
00000000000000000000000000000000000001110001110000000000000000000000000000000001110000000000111000000000000000000000000000000000001111111100000000000000000000000000000000000000000000000000000000000000
00000000000000000000000000000000000001110000000000000000000000000000000000000000000000000000000000000000000000000000000000000000000000111100000000000000000000000000000000000000000000000000000000000000
00000000000000000000000000000000000000000000000000000000000000000000000000000000000000000000000000000000000000000000000000000000000000000100000000000000000000000000000000000000000000000000000000000000
00000000000000000000000000000000000000000000000000000000000000000000000000000000000000000000000000000000000000000000000000000000000000000000000000000000000000000000000000000000000000000000000000000000
00000000000000000000000000000000000000000000000000000000000000000000000000000000000000000000000000000000000000000000000000000000000000000000000000000000000000000000000000000000000000000000000000000000
00000000000000000000000000000000000000000000000000000000000000000000000000000000000000000000000000000000000000000000000000000000000000000000000000000000000000000000000000000000000000000000000000000000
00000000000000000000000000000000000000000000000000000000000000000000000000000000000000000000000000000000000000000000000000000000000000000000000000000000000000000000000000000000000000000000000000000000
00000000000000000000000000000000000000000000000000000000000000000000000000000000000000000000000000000000000000000000000000000000000000000000000000000000000000000000000000000000000000000000000000000000
