P1
200 70
00000000000000000000000000000000000000000000000000000000000000000000000000000000000000000000000000000000000000000000000000000000000000000000000000000000000000000000000000000000000000000000000000000000
00000000000000000000000000000000000000000000000000000000000000000000000000000000000000000000000000000000000000000000000000000000000000000000000000000000000000000000000000000000000000000000000000000000
00000000000000000000000000000000000000000000000000000000000000000000000000000000000000000000000000000000000000000000000000000000000000000000000000000000000000000000000000000000000000000000000000000000
00000000000000000000000000000000000000000000000000000000000000000000000000000000000000000000000000000000000000000000000000000000000000000000000000000000000000000000000000000000000000000000000000000000
00000000000000000000000000000000000000000000000000000000000000000000000000000000000000000000000000000000000000000000000000000000000000000000000000000000000000000000000000000000000000000000000000000000
00000000000000000000000000000000000000000000000000000000000000000000000000000000000000000000000000000000000000000000000000000000000000000000000000000000000000000000000000000000000000000000000000000000
00000000000000000000000000000000000000000000000000000000000000000000000000000000000000000000000000000000000000000000000000000000000000000000000000000000000000000000000000000000000000000000000000000000
00000000000000000000000000000000000000000000000000000000000000000000000000000000000000000000000000000000000000000000000000000000000000000000000000000000000000000000000000000000000000000000000000000000
00000000000000000000000000000000000000000000000000000000000000000000000000000000000000000000000000000000000000000000000000000000000000000000000000000000000000000000000000000000000000000000000000000000
00000000000000000000000000000000000000000000000000000000000000000000000000000000000000000000000000000000000000000000000000000000000000011100000000000000000000000000000000000000000000000000000000000000
00000000000000000000000000000000000000000000000000000000000000000000000000000000000000000000000000000000000000000000000000000000000000011100000000000000000000000000000000000000000000000000000000000000
00000000000000000000000000000000000000000000000000000000000000000000000000000000000000000000000000000000000000000000000000000000000000000000000000000011111000000000000000000000000000000000000000000000
00000000000000000000000000000000000000000000000000000000000000000111001110000000000000000000000000000000000000000000000000000000000000000000000000001111111110000000000000000000000000000000000000000000
00000000000000000000000000000000000000000000000110001110100000000111001110000000000000000000000000000000000000000000000000000000000000000000000000001111111111110000000000000000000000000000000000000000
00000000000000000000000000000000000000000011001111111111111000000000001110000000000000000000000000000000000000000000000000000000000000000011100000011111111111111100000000000000000000000000000000000000
00000000000000000000000000000000000000100111111111111111111100000000001110000000000000000000000000000000000000000000000000000000000000000011100000111111111111111110000000000000000000000000000000000000
00000000000000000000000000000000000000111111111111111111111110000000000100000000000000000000000000000000000000000000000000000000000000000000000000111111111111111111000000000000000000000000000000000000
00000000000000000000000000000000000001111011111111111111111111000000001110000000011100000000000000000000000011101111000000000000000000000000000001111111111111111111100000000000000000000000000000000000
00000000000000000000000000000000000001111011111111111111111111000000001110000000011100000000000000000000001111000111110000000000000000000000000001111111111111111111110000000000000000000000000000000000
00000000000000000000000000000000000011111111111111111111111111100011111100000000000000000000000000000000001111101111111000000000000000000000000001111111110011111111110000000000000000000000000000000000
00000000000000000000000000000000000011111111111111111111111111100111111100000000000011100000000000000000001111111111111111000000000000000000000001111111100000111111111000000000000000000000000000000000
00000000000000000000000000000000000011111111111111111111111111111111111110010000000011100000000000000000011111111111111111110000000000000000000001111111100000011111111001110000000000000000000000000000
00000000000000000000000000000000011100111111110011111111111111111111111111111110000000000000000000000000011110111111111111111000000000000000000000011111000000010011111000110000000000000000000000000000
00000000000000000000000000000000011100010000000000000011101111111111111111111111100000000000000000000000011110111111111111111110000000000000000000000011000000000011111000000000000000000000000000000000
00000000000000000000000000000000001110000000000000000011101111111111100111111111111000000000000001110000011111111111111111111111000000000000000000000000000000001111111100000000000000000000000000000000
00000000000000000000000000000000000000000000000000000111111111111111000000001111111100000000000001110000011111111111111111110111100000000000000000000000000000011111111100000000000000000000000000000000
00000000000000000000000000000000000000000000000000000111111111111110000000001111111100000000000000000000011111111000000111110111110000000000000000000000000000011111111100000000000000000000000000000000
00000000000000000000000000000000000000000000000000000111111111111110000000011111111000000000000000000000001111111000000011111111110000000000000000000000000000011111111100000000000000000000000000000000
00000000000000000000000000000000000000000001110000000011111111111111000000011100111100000000000000000000000001100000000001111111111000000000000000000000000000011111111100000000000000000000000000000000
00000000000000000000000000000000000000000001110000000111111111111111100000000000011111100000000000000000000000000000000001111111111000000000000000000000110001111111111000000000000000000000000000000000
00000000000000000000000000000000000000000000000000001111111111111110000000000000011111100000000000000000000000000000000001111111111000000000000000000000111111111111111000000000000000000000000000000000
00000000000000000000000000000000000000000000000000001111011111111110000000000000011111100000000000000000000000000000000001111111111000000000000000000000111111111111110000000000000000000000000000000000
00000000000000000000000000000000000000000000000000011111011111111111110000000000011111100000000000000000000000000000000000011111111111100000000000000000111111111111110000000000000111000000000000000000
00000000000000000000001110000000000000000000000000111111111111100011100000000000011111100000000000000000000000000000000000001111111011100000000000000001111111111111110000000000000111000000000000000000
00000000000000000000001110000000000000000000000000111111111111000001110000000000011111100000000000000000000000000011000000001111111001110000000000000001111111111111100000000000000000000000000000000000
00000000000000000000000000000000000000000000000001111111111111000011111100000000111111100000000000000000000000000111100011110000010001110000000000000000111111111111000000000000000000000000000000000000
00000000000000000000000000000000000000000000000011111111111110000011111111101111111111000000000000000000000000000111100011111000000000000000000000000000011111001110000000000000000000000000000000000000
00000000000000000000000000000000000000000000001111111111111110000000111111111111111111000000000000000000000000001111000111111111000000000000000000000000001111001100000000000000000000000000000000000000
00000000000000000000000000000000000000000000111111111111111100000000111101111111111100000000000000000000000000001111101111111100000000000000011110000000000111111110000000000000000000000000000000000000
00000000000000000000000000000000000000000001100111111111110000000001111101111111111100000000000000000000000000001111111111111000000000000000011111000000000000111111000000000000000000000000000000000000
00000000000000000000000000000000000000000011110111111111100000000001111111111111111110000000000000000000000000000001111111111100000000000000011111110000000000011111000000000000000000000000000000000000
00000000000000000000000000000000000000000111111111111111100000000010011110000011111111000000000000000000000000000000111111111100000000000000011111111000000000011111100000000000000000000000000000000000
00000000000000000000000000000000000000011111111111111111000000000000001000000000011111100000000000000000000111000000011111111110000000000000011111111000000000111111100000000000000000000000000000000000
00000000000000000000000000000000000001111111111111111110000000000001110000000000001111110000000000000000000111000000011111111110000000000000011111111000000001111111100000000000000000000000000000000000
00000000000000000000000000000000000111111111111111111000000000000000110000000000000111110000000000000110000000000000001111111110000000000000011111111000000001111111110000000000000000000000000000000000
00000000000000000000000000000000001111011111111111110000000000001000010000000000000111110000000000000111000000000000001111111111000000000000011111111000000001111111110000000000000000000000000000000000
00000000000000000000000000000000011111011111110111000000000000001100010000000000000111111000000000000011111100000000001111111111000000000000011111111100000001111111110000000000000000000000000000000000
00000000000000000000000000000001111111111111110010000000000000001111110000000000000111111000011100000111111110000000001111011110000000000000001111111110000011111111110000000000000000000000000000000000
00000000000000000000000000000011111111111111111000001110000000001111110000000000000111111000011100001111111110000000011111011110000000000000001111111111000011111011111000000000000000000000000000000000
00000000000000000000000000001111111111011111110000001110000000001111110000000000001111111000000000001111111111000000111111111100000000000000000111111111111111111011111000000000000000000000000000000000
00000000000000000000000000011111111111011111100000000000000000000111110000000000111111111110000000011110111111101111111111111100000000000000000011111111111111111111100000000000000000000000000000000000
00000000000000000000000000111111111111111111000000000000000000000011111001111111111111111111001111111110111111111111111111100000000000000000000001111110111111111111100000000000000000000000000000000000
00000000000000000000000001111111111111111111100000000000000000000111111111111111111111111111111111111111111111111111111111100000000000000000000011111110111111111111000000000000000000000000000000000000
00000000000000000000000111111111111111111111111000000000000000111111111111111111111111111111111111111110111111111111111111111111111111111111000111111111111111111111000000000000000000000000000000000000
00000000000000000000000111111111111111110111111001100011111111111111111111111111111111000000000000001100111111111111111111111111111111111111101111111111111111111110000000000000000000000000000000000000
00000000000000000000000011111111101111110111100111110111111111111111111111111111011110000000000000000001111111111111101111111111111111111111111111111111111111111110000000000000000000000000000000000000
00000000000000000000000001111111101111111111000111111111111111110001111111111111001000000000000000000000111111111111000111111111111111111111100000000111111111111100000000000000000000000000000000000000
00000000000000000000000011111111111111101110001111111111111100000000111111111111100000000000000000000000001111111111000000000000000000000000000000000001111111111000000000000000000000000000000000000000
00000000000000000000000111111111111111101111011111111011111000000000011110111111100000000000000000000000000000001100000000000000000000000000000000000000011111110000000000000000000000000000000000000000
00000000000000000000000011111111111111111111111111111011110000000000000100000000000000000000000000000000000000000000100000000000000000000000000000000000000011000000000000000000000000000000000000000000
00000000000000000000000000000011111111111111111111111111110000000000000000000000000000000001110000000000000000000000111000000000000000000000000000000000000000000000000000000000000000000000000000000000
00000000000000000000000000000000000011111111111111111111110000000000000000000000000000000001111000000000000000000000000000000000000000000000000000000000000000000000000000000000000000000000000000000000
00000000000000000000000000000000000000111111111111111111100000000000000000000000000000000000111000000000000000000000000000000000111000000000000000000000000000000111000000000000000000000000000000000000
00000000000000000000000000000000000000111111100011111111100000000000000000000000000000000000000000000000000000000000000000000000111000000000000000000000000000000111000000000000000000000000000000000000
00000000000000000000000000000000000001111110000000000001100000000000000000000000000000000000000000000000000000000000000000000000000000000000000000000000000000000000000000000000000000000000000000000000
00000000000000000000000000000000000011111100000000000000000000000000000000000000000000000000000000000000000000000000000000000000000000000000000000000000000000000000000000000000000000000000000000000000
00000000000000000000000000000000001111111000000000000000000000000000000000000000000000000000000000000000000000000000000000000000000000000000000000000000000000000000000000000000000000000000000000000000
00000000000000000000000000000000011111110000000000000000000000000000000000000000000000000000000000000000000000000000000000000000000000000000000000000000000000000000000000000000000000000000000000000000
00000000000000000000000000000000111111100000000000000000000000000000000000000000000000000000000000000000000000000000000000000000000000000000000000000000000000000000000000000000000000000000000000000000
00000000000000000000000000000000011110000000000000000000000000000000000000000000000000000000000000000000000000000000000000000000000000000000000000000000000000000000000000000000000000000000000000000000
