P1
200 70
00000000000000000000000000000000000000000000000000000000000000000000000000000000000000000000000000000000000000000000000000000000000000000000000000000000000000000000000000000000000000000000000000000000
00000000000000000000000000000000000000000000000000000000000000000000000000000000000000000000000000000000000000000000000000000000000000000000000000000000000000000000000000000000000000000000000000000000
00000000000000000000000000000000000000000000000000000000000000000000000000000000000000000000000000000000000000000000000000000000000000000000000000000000000000000000000000000000000000000000000000000000
00000000000000000000000000000000000000000000000000000000000000000000000000000000000000000000000000000000000000000000000000000000000000000000000000000000000000000000000000000000000000000000000000000000
00000000000000000000000000000000000000000000000000000000000000000000000000000000000000000000000000000000000000000000000000000000000000000000000000000000000000000000000000000000000000000000000000000000
00000000000000000000000000000000000000000000000000000000000000000000000000000000000000000000000000000000000000000000000000000000000000000000000000000000000000000000000000000000000000000000000000000000
00000000000000000000000000000000000000000000000000000000000000000000000000000000000000000000000000000000000000000000000000000000000000000000000000000000000000000000000000000000000000000000000000000000
00000000000000000000000000000000000000000000000000000000000000000000000000000000000000000000000000000000000000000000000000000000000000000000000000000111000000000000000000000000011100000000000000000000
00000000000000000000000000000000000000000000000000000000000000000000000000000000000000000000000000000000000000000000000000000110000000000000000000000111000011100000000000000000011100000000000000000000
00000000000000000000000000000000000000000000000000000000000000000000000000000000000000000000000000000000000000000000000000111111111000000000000000000000000011100000000000000000000000000000000000000000
00000000000000000000000000000000000000000000000000000000000000000000000000000000000000000000000000000000000000000001111111001111111100000000000000000000000000000000000000000000000000000000000000000000
00000000000000000000000000000000000000000000000000000000000000000000000000000000000000000000000000000000000000011111111111101110001111000000000000000000000000000000000000000000000000000000000000000000
00000000000000000000000000000000000000000000000000011100000000000000000000000000000000000000000000000000001111111111111111111100001111100000001110000000000000000000000000000000000000000000000000000000
00000000000000000000000000000000000000000000000000011100000000000000000000000000000000111000000000000011111111111111111111100011111111100000001110000000000000000000000000000000000000000000000000000000
00000000000000000000000000000000000000000000000000000000000000000000000000000000000000111000000000001111111111111111111110000111111111110000000000000000000000000000000000000000000000000000000000000000
00000000000000000000000000000000000000000000000000000000000000000000000000000000000000000000000000001111111111001111111110011111111111111000000000000000000000000000000000000000000000000000000000000000
00000000000000000000000000000000000000000011100000000000000000000000000000000000000000000000000000000111111110000111111111111111111101111000000000000000000000000000000000000000000000000000000000000000
00000000000000000000000000000000000000000011100000000000000001110000000000000000000000000000000000000111111111000111111111111011111101111000000000000000000000000000000000000000000000000000000000000000
00000000000000000000000000000000000000000000000111100000000001110000000000000111111100000000000000000111110111111111100011110001111111111001110000000000000000000000000000000000000000000000000000000000
00000000000000000000000000000000000000000000001111111100000000000000000000000111111110000000000000000111110011000000000000000001111111111001110000000011110000000000000000000000000000000000000000000000
00000000000000000000000000000000000000000000001111111100011100000000000000001111111111100000000000000011111000000000000001000011111111111000000000000011111100000000000000000000000000000000000000000000
00000000000000000000000000000000000000000000011101111100001111000000000000011111111111100000000000000011100000000000000011101111111111111000000011111001111110000000111000000000111000000000000000000000
00000000000000000000000000000000000000000000011101111110011111100000000000011111111111110000000000000000000000000000000000001111111111111000000011100001111111000000111000000000111000000000000000000000
00000000000000000000000000000000001000000000011111111111111111111000000000011111111111111111000000000000000000000000000000001111111111111000000111100111111111100000000000000000000000000000000000000000
00000000000000000000000000000000001111000000111111111111111111111100000000111111111111111111000000000000000000000000000000001111111111110000001111111111111111110000000000000000000000000000000000000000
00000000000000000000000000000000011110011001111111111111111111111110000000111111111111111111100000111000111000000000000000011111011111110000011111111111111111110000000000000000000000000000000000000000
00000000000000000000000000000000011110111111111110000111111111101111000000111111111100111011110000111000111000000000000000011111011111110000011111111000111110111000000000000000000000000000000000000000
00000000000000000000000000000000001111111111011110000000011111101111100000111111111000010011111000000000000000000000000000111111111111100000111111110000011110111000000000000000000000000000000000000000
00000000000000000000000000000000001110011110011111100000000111111111100000111111110000001111111000000000000000111000000011111111111111100000111111100000001111111000111000000000000000000000000000000000
00000000000000000000000111000000000000000001111111111000000111111111100000111111110000001111111000000000000000111100000111111111011111000000111111100000001111111111111000000000000000000000000000000000
00000000000000000000000111000000000000000000001111111100000111111111100000111111110000001111111100000000000000111111101111111111011100000000011111100000000111111111100000000000000000000000000000000000
00000000000000000000111000000000000000000000000000111111001111111111100000111111110000001111111100000000000000111111111111111111111000000000011111000000000111111110000000000000000000000000000000000000
00000000000000000000111000000000000000000000000000000111111111111111100000111111110000001111111100000000000000011011111111111111111100000000111100000000000111111100000000000000000000000000000000000000
00000000000000000000000000000000000000000000000000000000011111111111000111111111111000001111111100000000000000010011111111111111111111000000111100100000000111111100000000000000000000000000000000000000
00000000000000000000000000000000000000000000000000000000001111111111000111111111111100011111111100000000000000001111111111111111110111100000011111100000000111111110000000000110000000000000000000000000
00000000000000000000000000000000000000000000000000000000011111111111000111111111111111111111111110000000000000011111111111111101110111110000011101110000001111111110000000001110000000000000000000000000
00000000000000000000000000000000000000000000000000000000011111111110000011111111111111111111111111111100011111111111111111111101111111110000011000111000011111111110000000000000000000000000000000000000
00000000000000000000000000000000000000000000000000000000111111111100000011111111111111111111111111111100011111111111111111111111111111111000001000011111111111111100000000000000000000000000000000000000
00000000000000000000000000000000000000000000000000000001111111110000000011111111111111111111111111100000111111111100111111111111111111111000001000011111111111111100000000000000000000000000000000000000
00000000000000000000000000000000000000000001110000000011111111100000011111111111101111111111110000000000111111100000011111111111111111111100000011111111111111111111000000000000000000000000000000000000
00000000000000000000000000000000000000000001110000001111111100100000011110111111000111111100000000000000000000000000000011111111111111111100000011111111111110111111000000000000000000000000000000000000
00000000000000000000011100000000000000000000000000011111111100100000111110111111001111111100000000000000000000000000000000000011111111111100000010000111111000111111000000000000000000000000000000000000
00000000000000000000011100000000000000000000000001111111111111110000111111111000000011111110000000000000000000000000000000000001111111111110000000000011110000111111000000000000000000000000000000000000
00000000000000000000000000000000000000000000000000111111111111110000111111110000000011111111000000000000000000000000000000000011111111111111000000000110000000111111000000000000000000000000000000000000
00000000000000000000000000000000000000000000000000111111111000000000111111110000000001111111100000000000000000000000000000001111111111111111100000000000000000111111000000000000000000000000000000000000
00000000000000000000000000000000000000000000011111111111100000000000111111110000000001111111100000000000000000000000000000001111111111111111110011000000000000110111000000000000000000000000000000000000
00000000000000000000000000000000000000000000011111111111000000000001111111100000000001111111110000000000000110000000000000000001111111111111111111110000000001110111000111000000000000000000000000000000
00000000000000000000000000000000000001110000001111111110000000000001111111100000000001111111110000000000011111100000000000000000011111111110001111111111000001111111000111000000000000000000000000000000
00000000000000000000000000000000000001100000001111111110000000000000000111100000000000111101110000000000011111111000000000000010011111111110000011111111100001111110000000000000000000000000000000000000
00000000000000000000000000000000000000000000111111110000000000000000000111110000000001111101110000000000001111111111110000000111111111111110000001111111111011111110000000000000000000000000000000000000
00000000000000000000000000000000000000001111111111100000000000000000001111110000000000111111110000000000000111111111111111000011111111111110000000111111111111111100000000000000011100000000000000000000
00000000000000000000000000000000000000011111111111000000000000000001111111100000001001111111100000000000000111110111111111100111111111111100000000111111111110111000000000000000011100000000000000000000
00000000000000000000000000000000000001111111111110001110000000000001111111100000001111111111100000000000000011110111111111111111111101111100000000001111111110010000000000000000000000000000000000000000
00000000000000000000000000000000000111111111111000001110000000000001111111100011111111111111100000000000000011111111111111111111111101111100000000000111111111100000000000000000000000000000000000000000
00000000000000000000000000000000001111111111110000000000000000000000111111110111111111111111100000000000000011111111111110111111111111111100000000000011111111100000000000000000000000000000000000000000
00000000000000000000000000000000001101111101100000000000000000000000011111111111111101111001000000000000000001111111111110111111111111111000000000000000011111110000000000000000000000000000000000000000
00000000000000000000000000000000011101111101110000000000000000000000011111111111111101111000000000000000000000001111111111111111111011110000000111000000001111100000000000000000000000000000000000000000
00000000000000000000000000000000111111111111111111111111100000000000001111111111111111111000000000000000000000000001111001111111110001100000000111000000000111000010000000000000000000000000000000000000
00000000000000000000000000000000111111110111111111111111000000000000000001111111111110010000000000000000000000000000000000111111100000000000000000000000000111000111000000000000000000000000000000000000
00000000000000000000000000000000111111110111111111111111000000000000000000011111111100000000000000000000000000000000000000000011000000000000000000000000000111001111000000000000000000000000000000000000
00000000000000000000000000000000011111111111111111111110000000000000000000000011000000000000000000000000000000000000001110000000000000000000000000000001000000011111100000000000000000000000000000000000
00000000000000000000000000000000111111111111111111111111000000000000000000000000000000000000001100000000000000000000001110000000000000000000000000000001000000001111111000000000000000000000000000000000
00000000000000000000000000000001111111111111111111111111110000000000000000000000000000000000000100000000000000000000000000000000000000000000000000000000000000000111111000000000000000000000000000000000
00000000000000000000000000000000111111111111111111111111110000000000000000000000000000000000000000000000000000000000000000000000000000000000000000000000000000000011111000000000000000000000000000000000
00000000000000000000000000000000111111111111111100000000000000000000000000000000000000000000000000000000000000000000000000000000000000000000000000000000000000000011111100000000000000000000000000000000
00000000000000000000000000000000000000000000000000000000000000000000000000000000000000000000000000000000000000000000000000000000000000000000000000000000000000000001111100000000000000000000000000000000
00000000000000000000000000000000000000000000000000000000000000000000000000000000000000000000000000000000000000000000000000000000000000000000000000000000000000000000111110000000000000000000000000000000
00000000000000000000000000000000000000000000000000000000000000000000000000000000000000000000000000000000000000000000000000000000000000000000000000000000000000000000111000000000000000000000000000000000
00000000000000000000000000000000000000000000000000000000000000000000000000000000000000000000000000000000000000000000000000000000000000000000000000000000000000000000010000000000000000000000000000000000
00000000000000000000000000000000000000000000000000000000000000000000000000000000000000000000000000000000000000000000000000000000000000000000000000000000000000000000000000000000000000000000000000000000
