P1
200 70
00000000000000000000000000000000000000000000000000000000000000000000000000000000000000000000000000000000000000000000000000000000000000000000000000000000000000000000000000000000000000000000000000000000
00000000000000000000000000000000000000000000000000000000000000000000000000000000000000000000000000000000000000000000000000000000000000000000000000000000000000000000000000000000000000000000000000000000
00000000000000000000000000000000000000000000000000000000000000000000000000000000000000000000000000000000000000000000000000000000000000000000000000000000000000000000000000000000000000000000000000000000
00000000000000000000000000000000000000000000000000000000000000000000000000000000000000000000000000000000000000000000000000000000000000000000000000000000000000000000000000000000000000000000000000000000
00000000000000000000000000000000000000000000000000000000000000000000000000000000000000000000000000000000000000000000000000000000000000000000000000000000000000000000000000000000000000000000000000000000
00000000000000000000000000000000000000000000000000000000000000000000000000000000000000000000000000000000000000000000000000000000000000000000000000000000000000000000000000000000000000000000000000000000
00000000000000000000000000000000000000000000000000000000000000000000000000000000000000000000000000000000000000000000000000000000000000000000000000000000000000000000000000000000000000000000000000000000
00000000000000000000000000000000000000000000000000000000000000000000000000000000000000000000000000000000000000000000000011100000000000000000000000000000000000000000000000000000000000000000000000000000
00000000000000000000000000000000000000111000000000000000011111100000000000000000000000000000000000000000000000000000000011100000000000000000000000000000000000000000000000000000000000000000000000000000
00000000000000000000000000000000000000111000000000001110001111110000000000000000000000000000000000000000000000000000000000000000000000000000000000000000000000000000000000000000000000000000000000000000
00000000000000000000000000000000000000000000000001111110001111111000000000000000000000000000000000000000000000000000000000000000000000000000000000000000000000000000000000000000000000000000000000000000
00000000000000000000000000001110000000000000000111111100011111111110000000000000000000000000000000000000000000000000000000000000000000000000000000000000000000000000000000000111000000000000000000000000
00000000000000000000000000001110000000000000000111111110111111111110000000000000000000000000000000000000000000011100000000000000000000000000000000000000000000000000000000000111000000000000000000000000
00000000000000000000000000000000000000000000001111111111111111111111000000000000000000000000000000000000000000011100000000000000000000000000000001110000000000000000000000000000000000000000000000000000
00000000000000000000000000000000000000000001111111111111111111111111000000000000000000000000000000001000111000011000000000000001111111110000000001111100000000000000000000000000000000000000000000000000
00000000000000000000000000000000000000000011111111111111111111111111000000000000000000111111111111111111111111111100000000000111111111110000000001111110000000000000000000000000000000000000000000000000
00000000000000000000000000000000000000000111111111110111111111111111000000000000111111111111111111111111111111111111111110011111011111111000000001111111100000000000000000000000000000000000000000000000
00000000000000000000000000000001110000000111111011100011111111111111100001111110001111111111111100111111111111001111111001111111001111111000000001111111111000000000000000000000000000000000000000000000
00000000000000000000000000000001111111111111111011100011111111111111111111111111000011111111111000000111000000000111110011111111100111111000000011111111111100000000000000000000000000000000000000000000
00000000000000000000000000000000111111111111111111110111110111111111111011111111100001111111110011000000000000000000001111111111110111111100000011111111111111100001000000000000000000000000000000000000
00000000000000000000000000000000011111111111111111111111100011111111110001000000000011110000100111100000000000000000011111111111111111111100000011111111111111110001110000000000000000000000000000000000
00000000000000000000000000000000011111111111111111111111100111111111000000000000000111000000011111100000000000000000111111111001111111111110000011110001111111111110000000000000000000000000000000000000
00000000000000000000000000000000000000001110001111111100001111111110000000000000011111000000001111100000000000000000111111111000111111111111000001100000011111111111100000000000000000000000000000000000
00000000000000000000000000000000000000000100000000000000011110111100000000000000111110000000001111100000000000000001111111111100111101111111110001100000000111111111110000000000000000000000000000000000
00000000000000000000000000000000000000000011100000000000011100011100000000000001111100000000001111100000000000111011111111111100111101111111111000000000000011111111110000000000000000000000000000000000
00000000000000000000000000000000000000000011100000000000011110111100000000000001110000000000001111100000000000111111111111100000111111111111111100000000000000011111110000000000000000000000000000000000
00000000000000000000000000000000000000000000000000000000111111111000000000000011110000011100001111000000000000000100111111100000111111110001111111000000000000000111111000000000000000000000000000000000
00000000000000000000000000000000000000000000000000000001111111111000000000000011111000011100011110000000000000001110011111000000111111000000111111100000000000000011111000000000000000000000000000000000
00000000000000000000000000000000000000000000000000000001111111110000000000000111111000000000011110000000000000001111001111000000011111000000111111110000000000000011110000000000000000000000000000000000
00000000000000000000000000000000000000000000000000000011111111110000000000000111111000000000111100000000000000001111101111100000111111110000111111111000000000000111110000000000000000000000000000000000
00000000000000000000000000000000000000000000000000000111111111100000000000000111111000000000100000000000000000001111111111100001111111000000000011111100000000001110000000000000000000000000000000000000
00000000000000000000000000000000000000000000000000001111111111000000000000000111111110000001100000000000000000001111111011100011111110000000000001111111000000001110000000000000000000000000000000000000
00000000000000000000000000000000000000000000000000011111111111000000000000000011111111000111110000000000000000001111111011100011111111000000000000111111110000011111000000000000000000000000000000000000
00000000000000000000000000000000000000000000000000111111111110000000000000000011111111100111111100000000000011111111111111100011111110000000000000001111001000111110000000000000000000000000000000000000
00000000000000000000000000000000011100000000000000111001111100000000000000000001111111100010011100000000000011101111111111111111111000000000000000000110011101111100000000000000000000000000000000000000
00000000000000000000000000000000011110000000000001111000001000000000000000000000111111110000000000000000000000000111111111111111111001000000000000000001111111111100000000000000000000000000000000000000
00000000000000000000000000000000001110000000000111111110000000000000000000111000111111111111000000000000000000000111111111111111111111110000000000000000111111111100000000000000000000000000000000000000
00000000000000000000000000000000000000000000000111011111100000000000000000111000011111111111000000000000000000000011111111111101111111110000000000000000001111111000000000000000000000000000000000000000
00000000000000000000000000000000000000000000001111011111000000000000000000000000001111111111100000000000000000000001111111111000111111111000000000000000000111111000000000000000000000000000000000000000
00000000000000000000000000000000000000000000011111111110000000000000000000000000100011111111110000000000000000000011111111100000011111111100000000000000001111111000000000000000000000000000000000000000
00000000000000000000000000000000000000000000111111111110000000000000000000000001100000111111110000000000000000000111111110000000011111111100000000000000001111111110000000000000000000000000000000000000
00000000000000000000000000000000000000000001111111111111000000000000000000000011100000011111110000000000000000001111111000000001111111111100000000000000001111111111000000000000000000000000000000000000
00000000000000000000000000000000000000000011111111111111000000000000000000001111100000000111111000000000000000011111111000000001111111111100000000000000001111011111000000000000000000000000000000000000
00000000000000000000000000000000000000000111111111100000000000000000000000001111000000000111111100000000000000111111111100000000111101111000000000000000111100001111100000000000000000000000000000000000
00000000000000000000000000110000000000001111111111000000000000000000000000011110000000000011111100000000000000111111111111100000111101111000000000000001111100001111110000000000000000000000000000000000
00000000000000000000000001110000000000011111111110000000000000000000000000011110000000000011111000000000000001111111111111100001111111111100000000000001111100000111110000000000000000000000000000000000
00000000000000000000000000000000000000111111111100000000000000000000000000111110000000000011111000000000000001111111111000000001111101111000000000000011111100000011110000000000000000000000000000000000
00000000000000000000000000000000000011111111111000000000000000000000000000111110000000000011111000000000000011111111111000000001111101111000000000000011111000000011111000000000000000000000000000000000
00000000000000000000000000000000000111111111110000000000000000000000000011111110000000000001111000000000000011111110110000000011111111111000000000000111110000000001111100000000000000000000000000000000
00000000000000000000000000000000000111111111111110000000000000000000000011111110000000000011111000000000000111111110110000000011111111111000000000001111110000000000111110000000000000000000000000000000
00000000000000000000000000000000001111111111111111111111110000000000000000111111000000000011111000000000000011111111110000000011111111110000000000001111110000000000111100000000000000000000000000000000
00000000000000000000000000000000001111111111111111111111111000000000000000011111000000000011110000000000000011111111110000000011111101110000000000001111100000000000011100000000000000000000000000000000
00000000000000000000000000000000001111111111111111111111111100000000000000001111100000000111100000000000000111111111110000000011111000100000000000011111000000000000011100000000000000000000000000000000
00000000000000000000000000000000000111111110111111111111111000000000000000001111110000001111000000000000000111111111110000000111110001000000000000111111100000000000000000000000000000000000000000000000
00000000000000000000000000000000000111111110111111111111111000000000000000000111111111111111000000000000001111111111111000000111111000000000000000011111100000000000000000000000000000000000000000000000
00000000000000000000000000000000001111111111111111111111111000000000000000000001111111111100000000000000011111111111111100000111111100000000000000111110000000000000000000011100000000000000000000000000
00000000000000000000000000000000001111111111111111111111111000000000000000000000001100000000000000000000011111111110000011110111111000111000000001111100000000000000000000011100000000000000000000000000
00000000000000000000000000000000000000000011100111000011110000000000000000000000000000000000000000000000000001111110000111111111110000111000000001111000000000000000000000000000000000000000000000000000
00000000000000000000000000000000000000000000000010000000010000000000000000000000000000000000000000000000000000111111111111111111000000000000000000000000000000000000000000000000000000000000000000000000
00000000000000000000000000000000000000000000000111000000000000000000001110000000000000000000000000000000000000111111111111100000000000000000000000000000000000000000000000000000000000000000000000000000
00000000000000000000000000000000000000000000000111000000000000000000001110000000000000000000000000000000000000001111111111000000000000000000000000000000000000000000000000000000000000000000000000000000
00000000000000000000000000000000000000000000000000000000000000000000000000000000000000000000000000000000000000000000000000000000000000000000000000000000000000000000000000000000000000000000000000000000
00000000000000000000000000000000000000000000000000000000000000000000000000000000000000000000000000000000000000000000000000111000011100000000000000000000000000000000000000000000000000000000000000000000
00000000000000000000000000000000000000000000000000000000000000000000000000000000000000000000000000000000000000000000000000111000011100000000000000000000000000000000000000000000000000000000000000000000
00000000000000000000000000000000000000000000000000000000000000000000000000000000000000000000000000000000000000000000000000000000000000000000000000000000000000000000000000000000000000000000000000000000
00000000000000000000000000000000000000000000000000000000000000000000000000000000000000000000000000000000000000000000000000000000000000000000000000000000000000000000000000000000000000000000000000000000
00000000000000000000000000000000000000000000000000000000000000000000000000000000000000000000000000000000000000000000000000000000000000000000000000000000000000000000000000000000000000000000000000000000
00000000000000000000000000000000000000000000000000000000000000000000000000000000000000000000000000000000000000000000000000000000000000000000000000000000000000000000000000000000000000000000000000000000
00000000000000000000000000000000000000000000000000000000000000000000000000000000000000000000000000000000000000000000000000000000000000000000000000000000000000000000000000000000000000000000000000000000
00000000000000000000000000000000000000000000000000000000000000000000000000000000000000000000000000000000000000000000000000000000000000000000000000000000000000000000000000000000000000000000000000000000
