P1
200 70
00000000000000000000000000000000000000000000000000000000000000000000000000000000000000000000000000000000000000000000000000000000000000000000000000000000000000000000000000000000000000000000000000000000
00000000000000000000000000000000000000000000000000000000000000000000000000000000000000000000000000000000000000000000000000000000000000000000000000000000000000000000000000000000000000000000000000000000
00000000000000000000000000000000000000000000000000000000000000000000000000000000000000000000000000000000000000000000000000000000000000000000000000000000000000000000000000000000000000000000000000000000
00000000000000000000000000000000000000000000000000000000000000000000000000000000000000000000000000000000000000000000000000000000000000000000000000000000000000000000000000000000000000000000000000000000
00000000000000000000000000000000000000000000000000000000000000000000000000000000000000000000000000000000000000000000000000000000000000000000000000000000000000000000000000000000000000000000000000000000
00000000000000000000000000000000000000000000000000000000000000000000000000000000000000000000000000000000000000000000000000000000000000000000000000000000000000000000000000000000000000000000000000000000
00000000000000000000000000000000000000000000000000000000000000000000000000000000000000000000000000000000000000000000000000000000000000000000000000000000000000000000000000000000000000000000000000000000
00000000000000000000000000000000000000000000000000000000000000000000011100000000000000000000000000000000000000000000000000000000000000000000000000000000000000000000000000000000000000000000000000000000
00000000000000000000000000000000000000000000000000000000000000000000011100000000000000000000000000000000000000000000000000000001110000000000000000000011100000000000000000000000000000000000000000000000
00000000000000000000000000000000000000000000000000000000000000000000000000000000000000000000000000000000000000000000000000000001110000000000000000000011100000000000000000000000000000000000000000000000
00000000000000000000000000000000000000000000000000000000000000000000000000000000000000000000000000000000000000000000000000000000000000000000000000000000000000000000000000000000000000000000000000000000
00000000000000000000000000000000000000000000000000000000000000000000000000000000000000000000000000000000000000000000000000000000000000000010000000000000000000000000000000000000000000000000000000000000
00000000000000000000000000000000000000000000000000000000000000000000000000000000000000000000000111000000000000000000000000000000000000000000000000000000000000000000000000000000000000000000000000000000
00000000000000000000000000000000000000000000000000000000000000000000000000000000000000000000000111000000000000011100000000000000000000000000000000000000000000000000000000000000000000000000000000000000
00000000000000000000000000000000000000000000000000000000000000000000000000000000000000011111000000000000000000011100000000000000000000000000000000000000000000000000000000000000000000000000000000000000
00000000000000000000000000000000000000000011100000000000000000000000000000000000000011111111100000000000000000000000000000000000000000000000000000000000000000000000000011000000000000000000000000000000
00000000000000000000000000000000000000000011100000000111111111110000000000000000000111111111110000000000000000000000000000000000000000000000000001110000000000000001110110000000000000000000000000000000
00000000000000000000000000000000000000000000000000011111111111111000000000000000011111101111110000000000000000000000000000000000001111111110001111110000001100000001111000000000000000000000000000000000
00000000000000000000000000000000000000000000000111111111111111111100000000000000111111000111111000000000000000011100000000000000111111110001111111110000011100011111111100000000000000000000000000000000
00000000000000000000000000000000000000000000001111111111111111111100000000000001111100000011111100000000000000011100000000000011111111110011111111111000000001111111111110000000000000000000000000000000
00000000000000000000000000000000000000110000111111111111111111111100000000000001111000000001111000000000000000000000000000001111111111111111111111111100000001111111111111000000000000000000000000000000
00000000000000000000000000000000000111111001111111111100011111111110000000000011110000000000111000000000000000000000001110111111111111111111111111111100000001111111111111110000000000000000000000000000
00000000000000000000000000000011111111011111111111111000000111110010000000000001000000000000111100000000000000000000001111111111111111111111111111111110000001111111111111110000000000000000000000000000
00000000000000000000000000000011111110001111111111111100111111110000000000000000000000000000111100000000000000000000000111111111111111111111111111111110000000000000111110000000000000000000000000000000
00000000000000000000000000000000111110000011111111111111111111111110000000011110000000000000111100000000000000000000000011111111011111111111111111111110000000000001111110000111000000000000000000000000
00000000000000000000000000000000010000000000000000000111111111111110000000111100000000000000111100000000000000000000000111111111011111000111111111111110000000000001111100000111000000000000000000000000
00000000000000000000001110000000000000000000000000000000011111111111000000111100000000000000111111000000000000000000001111111111111100000011110000001110000000000011111100000000000000000000000000000000
00000000000000000000001110000000000000000000000000000000000111111111110000111000000000000000111111000000000000000000001111011111110000000011110000001110000000000011111100000000000000000000000000000000
00000000000000000000000000000000000000000000000000000000000111111111110001111000000000000011111110000000000000000000001111001111100000000001111111111110000011100011111100000000000000000000000000000000
00000000000000000000000000000000000000000000000000000000000110111111111000001000000000000011111100000000000000000000011111110011100000000001111111111110000011100011111100000000000000000000000000000000
00000000000000000000000000000000000000000000000000000000001110111000111110011100000000000111111100000000000000011100011111111011100000000011111111100100000000000011111100000000000000000000000000000000
00000000000000000000000000000000000000000000000000000000011111110000000111111111000000000111011000000000000000000000011111111111000000000011111111100000000000111001111100000000000000000000000000000000
00000000000000000000000000000000000000000000000000000000111111110000000011111111100000001110011000000000000000000000011111111110000000000011111111111000000000100000111000000000000000000000000000000000
00000000000000000000111000000000000000000000000000000001111111100000000001111101110000011110111000000000000000000000011111111110000000000011111111111000000000000001111000000000000000000000000000000000
00000000000000000000111000000000000000011100000000000011111111000000000001111000111111111101111000000000000000000000011111111111000000000011111111111000000000111111111100000000000000000000000000000000
00000000000000000000000000000000000000011100000000000111111110000000000000111101111111110001111000000000000000000000011111111111000000011111111111110000000011111111111100000000000000000000000000000000
00000000000000000000000000000000000000000000000000000111100100000000000000111111111111110001111000000000000000000000011111111111000000011111111111110000000111111111110000000000000000000000000000000000
00000000000000000000000000000000000000000000000000001111100000000000000000001111111111111111110000000000000000000000011111111111100001111111111111100000011110000111100000000000000000000000000000000000
00000000000000000000000000000000000000000000000000111111110000000000000000000111111111111111111000000000011100000000001111111111100011111111111111000000111110000111110000000000000000000000000000000000
00000000000000000000000000000000000000000000000011111111100000000000000000000001100000001111111110000000011100000000001111111111100111111111111111000011111111011111100000000000000111000000000000000000
00000000000000000000000000000011100000000000001111111111000000000000000000000011100000000111111111110000000000000000000111111111001111111111111011000011111100011111100000000000000111000000000000000000
00000000000000000000000000000001100000000000011111111110000000000000000000000011100000000111111111111100000000000000000111111111000011111111111001100010001000011111100000000000000000000000000000000000
00000000000000000000000000000000000000000001111111000000000000000000000000000000000000000111000110011111100000000000000011111111110011111111111100011000000000011111100000000000000000000000000000000000
00000000000000000000000000000000000000000111111110000000000000000000000001110000000000001111000000001111111100000000000001111111111111111111111110011000000000011111100000000000000000000000000000000000
00000000000000000000000000000000000000011111101110000000000000000000000001110000000000011110000000001111111111000001110000111111111111111111111111100000000000011111000000000000000000000000000000000000
00000000000000000000000000000000000000111111100100000000000000000000000000000000000000111110000000000001111111100011111000111111111111111111111110000000000000111110000000000000000000000000000000000000
00000000000000000000000000000000000011111111111000000000000000000000000000000000000011111100000000000000001111100111111111111111111111111111111000000000000000111111000000000000000000000000000000000000
00000000000000000000000000000000000011111111000000000000000000000000000000000000000111111000000000000000000000001111111111111111111111111111110000000000000000111111111000000000000000000000000000000000
00000000000000000000000000000001000111111110000000000000000000000000000000000000111111110000000000000000000000001111111111111100111111111111100000000000000000011111111000000000000000000000000000000000
00000000000000000000000000001111111111111000000000000000000000000000000000001111111111000000000000000000000000001111100000000000011111111111000000000000000000111110000000000000000000000000000000000000
00000000000000000000000000111111111111110000000000000000000000000000000000000111111100000000000000000000000000000111110000000011111111111110000000000000000000111110000000000000000000000000000000000000
00000000000000000000000000111111111111100000000000000000000000000000000000000011111000000000000000000000000000000011111111111111111111111100000000000000000001111100000000000000000000000000000000000000
00000000000000000000000000011111111111110000000000000000000000000000000000000001110000000000000000000000000000000011110111111111111111111000000000000001000001111100000000000000000000000000000000000000
00000000000000000000000000001111111111111111100000000000000000000000000000000000000000000000000000000000000000000111110111111111111111110000000000000011111011111000000000000000000000000000000000000000
00000000000000000000000000000111111111111111110000000000000000000000000000000000000000000000111000000000000000000111111111111111111111110000000000000011111111111000000000000000000000000000000000000000
00000000000000000000000000000000000111111111111111000000000000000000000000000000000000000000000000000000000000000011111111111111111111000000000000000001111111111100000000000000000000000000000000000000
00000000000000000000000000000000000011111111111111110000000000000000000000000000000000000000000000000000000000000000001111111111111110000000000000000000111111111100000000000000000000000000000000000000
00000000000000000000000000000000000000001111111111110000000000000000000000000000000000000000000000000000000000000000000111111111111100000000000000000000011111111110000000000000000000000000000000000000
00000000000000000000000000000000000000000000011111110000000000000000000000000000000000000000000000000000000000000000000011111110000000000000000000000000000011111111110000000000000000000000000000000000
00000000000000000000000000000000000000000000000111100000000000000000000000000000000111000000000000000000000000000000000000111100000000000000000000000000000000011111110000000000000000000000000000000000
00000000000000000000000000000000000000000000000001100000000000000000000000000000000000000000111000000000000000000000000000000000000000000000000000000111000000000011100000000000000000000000000000000000
00000000000000000000000000000000000000000000000000000000000000000000000000000000000000000000111000000011100000000000000000000000000000000000000000000111000000000001100000000000000000000000000000000000
00000000000000000000000000000000000000000000000000000000000000000000000000000000000000000000000000000011100010000000000000000000000000000000000000000000000000000000000000000000000000000000000000000000
00000000000000000000000000000000000000000000000000000000000000000000000000000000000000000000000000000000000010000000000000000000000000000000000000000000000000000000000000000000000000000000000000000000
00000000000000000000000000000000000000000000000000000000000000000000000000000000000000000000000000000000000000000000000000000000000000000000000000000000000000000000000000000000000000000000000000000000
00000000000000000000000000000000000000000000000000000000000000000000000000000000000000000000000000000000000000000000000000000000000000000000000000000000000000000000000000000000000000000000000000000000
00000000000000000000000000000000000000000000000000000000000000000000000000000000000000000000000000000000000000000000000000000000000000000000000000000000000000000000000000000000000000000000000000000000
00000000000000000000000000000000000000000000000000000000000000000000000000000000000000000000000000000000000000000000000000000000000000000000000000000000000000000000000000000000000000000000000000000000
00000000000000000000000000000000000000000000000000000000000000000000000000000000000000000000000000000000000000000000000000000000000000000000000000000000000000000000000000000000000000000000000000000000
00000000000000000000000000000000000000000000000000000000000000000000000000000000000000000000000000000000000000000000000000000000000000000000000000000000000000000000000000000000000000000000000000000000
