P1
200 70
00000000000000000000000000000000000000000000000000000000000000000000000000000000000000000000000000000000000000000000000000000000000000000000000000000000000000000000000000000000000000000000000000000000
00000000000000000000000000000000000000000000000000000000000000000000000000000000000000000000000000000000000000000000000000000000000000000000000000000000000000000000000000000000000000000000000000000000
00000000000000000000000000000000000000000000000000000000000000000000000000000000000000000000000000000000000000000000000000000000000000000000000000000000000000000000000000000000000000000000000000000000
00000000000000000000000000000000000000000000000000000000000000000000000000000000000000000000000000000000000000000000000000000000000000000000000000000000000000000000000000000000000000000000000000000000
00000000000000000000000000000000000000000000000000000000000000000000000000000000000000000000000000000000000000000000000000000000000000000000000000000000000000000000100000000000000000000000000000000000
00000000000000000000000000000000000000000000000000000000000000000000000000000000000000000000000000000000000000000000000000000000000000000000000000000000000000000001110000000000000000000000000000000000
00000000000000000000000000000000000000000000000000000000000000000000000000000000000000000000000000000000000000000000000000000000000000000000000000000000000000000001111100000000000000000000000000000000
00000000000000000000000000000000000000000000000000000000000000000000000000000000000000000000000000000000000000000000000000000001110000000000000000000000000000000011111000000000000000000000000000000000
00000000000000000000000000000000000000000000000000000000000000000000000000000000000000000000000000000000000000000000000000000001110000000000000000000000000000000111110000000000000000000000000000000000
00000000000000000000000000000000000001100000000000000000000000000000000000000000000000011100000000000000000000000001111000000000000000000000000000000000000000001111110000000000000000000000000000000000
00000000000000000000000000000000000011100000000000000000000000000000000000000000000000011100000000000000000000000111111000000000000000000000000000000000000000001111100000000000000000000000000000000000
00000000000000000000000000000000000000000110000000000000000000000000000000000000000000000000000000000000000011111111111000000000000000000000000000000000000000001111000000000000000000000000000000000000
00000000000000000000000000000000000000001111001000000000000000000000000000000000000000000000000000000001111111111111100100000000000000000000000000000000000000011110000000000000000000000000000000000000
00000000000000000000000000000000000000111111111111111110000000000000000000000000000000000000000000111111111111111111000000000000000000000000000000000000000000111110000000000000000000000000000000000000
00000000000000000000000000000000000111111111111111111111110000000000000000000000000000000000000111111111111111111111100000000000011100000000000000000000000001111100000000000000000000000000000000000000
00000000000000000000000000000000111111111111110001111111111111000000000000000000000000000000000111111111111111111111110000000000011100000000001110000000000011111000000000000000000000000000000000000000
00000000000000000000000000000000111111110000000000011111111111111000000000000000000000011000000011111111111111100111110000000000000000000000001110000000000111110000000000000000000000000000000000000000
00000000000000000000000000000000011000000000000000000000000111111111000000000000000000011100000011111111110000000111000000000000000000000000000000000000000111100000000000000000000000000000000000000000
00000000000000000000000000000000010000000000000000000000000011111111110000000000000000000000000111111000000000000110000000000000000000000000000000000000000111000000000000000000000000000000000000000000
00000000000000000000000000000000000000000000001100000000111111111111111110000000000000000000000111100000000000000000010000000000000000000000000000100000000110000000000000000000000000000000000000000000
00000000000000000000000000000000000000000000000000001111111111111111111111100000000000000000000111000000000000000100000000000000000000000000000011110001000100000000000000000000000000000000000000000000
00000000000000000000000111000000000000000000000001111111111111111101111111111000000111100000000111100000000000000111110000000000000000000000001111111111111000000000000000000000000000000000000000000000
00000000000000000000000111000000000000011100111011111111101111111110000111111100000111100000000111100000000000000111110000000000000000000001111111111111111000000000000000000000000000000000000000000000
00000000000000000000000000000000000000011100111111001000000000011111000011111111000111100000000111110000000000000111110000000000000000000111111111111111110000000000000000000000000000000000000000000000
00000000000000000000000000000000000000000000000010000000000000001111100011111110000111100000000111100000000000001111100000000000000000001111111111111111110000000000000000000000000000000000000000000000
00000000000000000000000000000000000000000000000000000000000000000111100011111111001111100000000000000000000000001111100000000000000000011110001111111110000000000000000000000000000000000000000000000000
00000000000000000000000000000000000000000000000000000000000000000011100011111111111111100000000000000000000000001111100000000000000000000000001111111100000000000000000000000000000000000000000000000000
00000000000000000000000000000000000000000000000000000000000000000011100011101111011111110000000000000000000000001111100000000000000000000000001111111000000000000000000000000000000000000000000000000000
00000000000000000000000000000000000000000000000000000000000000000011100011000111011111111100000000000000000000001111000000000000000000000000011111100000000000000000000000000000000000000000000000000000
00000000000000000000000000000000000000000000000000000000000000000011100000000011111111111111100000000000000000011111000000000000000000000000100111100000000000000000000000000000000000000000000000000000
00000000000000000000000000000000000000000000000000000000000000000111100000000000111111111111111000000000000000010000000000000000000011100001110011110000000000000000000000000000000000000000000000000000
00000000000000000000000000000000000000000000000000000000000000001111000000000000011111111111111111000000000000011000000000000000000011110111111100010000000000000000000000000000000000000000000000000000
00000000000000000000000000000000000000000111000000000011111011111110000000000000011111100001111111111100000000011110000000000000000001111111111100000000000000000000000000000000000000000000000000000000
00000000000000000000000000000000000000000000000000000111111111111000000000000000011111100000011111111111000000111110000000000000000011111111111110000000000000000001000000000000000000000000000000000000
00000000000000000000000000000000000000000000000000000111111111110000000000000000011111100000000001111110000100111110000000000000011111111111111111000000000000000001110000000000000000000000000000000000
00000000000000000000000000000000000000000000000000000000011111110000011000000000011111100000000000001110001111111111111111111111111111110000111111100000000000000000000111000000000000000000000000000000
00000000000000000000000000000000000000000000000000000000000111110000111000000000000111110000000000000001111111111111111111111111111111000001111111100000000000000000000111000000000000000000000000000000
00000000000000000000000000000000000000000000000000000000000001111100000000000000000011110000000000000000001111111111111111111111110000000001111111000000000000001110000000000000000000000000000000000000
00000000000000000000000000000000000000000000000000000000000000111110000000000000000111110000000000000000000011111111111111000010000000000001110111000000000000001110000000000011100000000000000000000000
00000000000000000000000000000000000000000000000000000000000000011110000111000000011111110000000000000000000011111100000000000000000000000001110111000000000000000000000000000011100000000000000000000000
00000000000000000000000000000000000000000011100000000000000000011111000111000000011111110000000000000000000011111000000000000000000000000001111111000000000000000000000000000000000000000000000000000000
00000000000000000000000000000000000000000001100000000000000000001111000000000000011111110000000000000000000011111000000000000000000000000011111110000000000000000000000000000000000000000000000000000000
00000000000000000000000000000011100000000000000001110000000000001111000000000000011110010000000000000000000011111000000000000000000000000011111110000000000000000000000000000000000000000000000000000000
00000000000000000000000000000011100000000001000001110000000000001111000000000000011110110000000000000000000111111000000000000000000000000011111110000000000000000000000000000000000000000000000000000000
00000000000000000000000000000000000000000011100000000000000000001111000000000000001111110000000000000111000111111000000000000000000000000000111100000000000000000000000000000000000000000000000000000000
00000000000000000000000000000000000000000011110000000000000000001111000000000000001111110000000000000111000111110000000000000000000000000100111100000000000000000000000000000000011100000000000000000000
00000000000000000000000000000000000000000011111000000000000000011111000000000000011111110000000000000000000011110000000000000000000000000111111100000000000000000000000000000000011100000000000000000000
00000000000000000000000000000000000000000001111111100000000001111110000000000000011101110000000000000000000011100000000000000000000000000111111100111000000000000000000000000000000000000000000000000000
00000000000000000000000000000000000000000000011111111100000011110000000000000000011101110000000000000000000111100000000000000000000000000011111000111001110000000000000000000000000000000000000000000000
00000000000000000000000000000000000000000000000111111100011111100000000000000000001111110000000000000000001111100000000000000111000000000011111000000001110000000000000000000000000000000000000000000000
00000000000000000000000000000000000000000000000001111100011111000000000000000000001111110000000000000000001111000000000000000111110000001111111000000000000000000000000000000000000000000000000000000000
00000000000000000000000000000000000000000000000000000100111100000000000000000000001111110000000000000000001111000000000000000011110000011101111000000000000000000000000000000000000000000000000000000000
00000000000000000000000000000000000000000000000000000000000000000000000000000000001111110000000000000000011111000000111000000000011111111101110000000000000000000000000000000000000000000000000000000000
00000000000000000000000000000000000000000000000000000000000000000000000000000000011111110011100000000000011111000000111000000000001111111111110000000000000000000000000000000000000000000000000000000000
00000000000000000000000000000000000000000000000000000000000000000000000000000000011111110011100000000000000111000000000000000000000001111111110000000000000000000000000000000000000000000000000000000000
00000000000000000000000000000000000000000000000000000000000000000000000000000000011001111000000000000000000000000000000000000000000000011111111000000000000000000000000000000000000000000000000000000000
00000000000000000000000000000000000000000000000000000000000000000000000000000000000000111000000000000000011000000000000000000000000000000111111100000000000000000000000000000000000000000000000000000000
00000000000000000000000000000000000000000000000000000000000000000000000000000000000000000000000000000000000000000000000000000000000000000001111111000000000000000000000000000000000000000000000000000000
00000000000000000000000000000000000000000000000000000000000000000000000000000000000000000000000000000000000000000000000000000000000000000000001111100000000000000000000000000000000000000000000000000000
00000000000000000000000000000000000011100000000000000000000000000000000000000000000000111000000000000000000000000000000000000000000000000000000111111000000000000000000000000000000000000000000000000000
00000000000000000000000000000000000011100000000000000000000000000000000000000000000000111000010000000000000000000000000000000000000000000000000011111000000000000000000000000000000000000000000000000000
00000000000000000000000000000000000000011110000000000000000000000000000000000000000000000000010000000000000000011100000000000000000000000000000000011000000000001110000000000000000000000000000000000000
00000000000000000000000000000000000000001110000000000000000000000000000000000001110000000000000000000000000000011100000000000000000000000000000000001100000000001110000000000000000000000000000000000000
00000000000000000000000000000000000000000000000000000000000000000000000000000001110000000000000000000000000000000000000000000000000000000000000000000000000000000000000000000000000000000000000000000000
00000000000000000000000000000000000000000000000000000000000000000000000000000000000000000000000000000000000000000000000000000000000000000000000000000000000000000000000000000000000000000000000000000000
00000000000000000000000000000000000000000000000000000000000000000000000000000000000000000000000000000000000000000000000000000000000000000000000000000000000000000000000000000000000000000000000000000000
00000000000000000000000000000000000000000000000000000000000000000000000000000000000000000000000000000000000000000000000000000000000000000000000000000000000000000000000000000000000000000000000000000000
00000000000000000000000000000000000000000000000000000000000000000000000000000000000000000000000000000000000000000000000000000000000000000000000000000000000000000000000000000000000000000000000000000000
00000000000000000000000000000000000000000000000000000000000000000000000000000000000000000000000000000000000000000000000000000000000000000000000000000000000000000000000000000000000000000000000000000000
00000000000000000000000000000000000000000000000000000000000000000000000000000000000000000000000000000000000000000000000000000000000000000000000000000000000000000000000000000000000000000000000000000000
