P1
200 70
00000000000000000000000000000000000000000000000000000000000000000000000000000000000000000000000000000000000000000000000000000000000000000000000000000000000000000000000000000000000000000000000000000000
00000000000000000000000000000000000000000000000000000000000000000000000000000000000000000000000000000000000000000000000000000000000000000000000000000000000000000000000000000000000000000000000000000000
00000000000000000000000000000000000000000000000000000000000000000000000000000000000000000000000000000000000000000000000000000000000000000000000000000000000000000000000000000000000000000000000000000000
00000000000000000000000000000000000000000000000000000000000000000000000000000000000000000000000000000000000000000000000000000000000000000000000000000000000000000000000000000000000000000000000000000000
00000000000000000000000000000000000000000000000000000000000000000000000000000000000000000000000000000000000000000000000000000000000000000000000000000000000000000000000000000000000000000000000000000000
00000000000000000000000000000000000000000000000000000000000000000000000000000000000000000000000000000000000000000000000000000000000000000000000000000000000000000000000000000000000000000000000000000000
00000000000000000000000000000000000000000000000000000000000000000000000000000000000000000000000000000000000000000000000000000000000000000000000000000000000000000000000000000000000000000000000000000000
00000000000000000000000000000000000000000000000001110000000000000000000001110000000000000000000000001110000000000000001100000000000000011100000000000000000000000000000000000000000000000000000000000000
00000000000000000000000000000000000000000000000000010000000000000000000001110000000000000000000000001110000000000001111111111000000000011100000000000000000001110000000000000000000000000000000000000000
00000000000000000000000000000000000000000000000000000000000000000000000000000000000000000000000000000000000000010011101111111100000000000000000000000000000001110000000000000000000000000000000000000000
00000000000000000000000000000000000000000000000000000000000000000000000000000000000000000000000000000000001111111111101111111111000000000000000001110000000000000000000000000000000000000000000000000000
00000000000000000000000000000000000000000000000000000000000000000000000000000000000000000000000000000000011111111111111111111111100000000000000000010000000000000000000000000000000000000000000000000000
00000000000000000000000000000000000000000000000000000000000000000000000000000000000000000000000000000011111111111111111111111111110000000000000000000000000000000000000000000000000000000000000000000000
00000000000000000000000000000000000000000000000000000000000000000011110000000000000000000000000000001111111111111111111111111111110000000000000011100000000000000000000000000000000000000000000000000000
00000000000000000000000000000000000000000000000000000000000000000011110000000000000000000000000000011111111000000111111111111111110000000000000011100000000000000000000000000000000000000000000000000000
00000000000000000000000000000000000000000000000000000000000000000111111000000000000000000000000001111111110000000011111111111111111000000000000000000000011100000000000000000000000000000000000000000000
00000000000000000000000000000000000000111100000000000000000000000111100000000000000000000000000111111111110000000011111111111110111000000000000000000000011100000000000000000000000000000000000000000000
00000000000000000000000000000000011111111111111000110000000000001111000000000000000000000000000011001111111000000011111111111110111000000000000000000000000000000000111000000000000000000000000000000000
00000000000000000000001110000000011111111111111000111100000000011110011000000000000000000000000110000111111000000111101110011111111000000000000000000000000000000000111000000000000000000000000000000000
00000000000000000000001110000000001111111111111000111110000000011100011000000000000000000000001111001110111000000101001110000011111000000000000000000000000000000000000000000000000000000000000000000000
00000000000000000000000000000000000111111111111100000111000000011100111100000000000000000000011111111110111000000001111111100001110000000000000000000000000000011100000000000000000000000000000000000000
00000000000000000000000000000000000111111111111111000111100001111100111100000000000000000000111111111111111000000001111111111001110000000000000000000000000001110001110000000000000000000000000000000000
00000000000000000000001110000000000111111111111111111111111111110000111100000000000000000000111111111111111000000000111111111111110000000000000000000000000111110011110000000000000000000000000000000000
00000000000000000000011110000000001111111111111111111110111111110011111110000000000000000000111111111011111101100001111111110111110000000000000000000000001111001111111000000000000000000000000000000000
00000000000000000000111100000000011111111111111111111110111111111111001111000000000000000000111111111011111100000001111111110111100000000000000000000000011110000001110000000000000000000000000000000000
00000000000000000000111000000000011111000000000000111111110111111111101111111111100000000001111111111111111100000001111111111111100000000000000000000000111100000000110000000000000000000000000000000000
00000000000000000000000000000000000000000000000000111111100011100011111111111111111111111111111111111111111110000001111111111111000000000000000000000001111000000000000000000000000000000000000000000000
00000000000000000000000000000000000000000000000000111111100000000000011111111111111111111111111111111111111111100001111111111110000000000000000000000011110000000000000000000000000000000000000000000000
00000000000000000000000000000000000000000000000001111111000000000000001111000000111111111111111111111111111111111111111111111100000000000000000000000011110000000000000110000000000000000000000000000000
00000000000000000000000000000000000000000000000001111110000000000000001110000000000000111111111111111111110111111111111111111000000000000000000111000011100000000000001111000000000000000000000000000000
00000000000000000000000000000000000000000000000011111100000000000000000111000000000000000000000001111111110111111111111111110000000000000000000111000011000000000000001111000000000000000000000000000000
00000000000000000000000000000000000000000000000001111000000000000000000111000000000000000000000000011111111111111111111111111001111111100000000000000000000000000000001111000000000000000000000000000000
00000000000000000000000000000000000000000000011001110000000000000000000111000000000000000000000000001111111111111111111111111111111111111100000000000000000000000000001110000000000000000000000000000000
00000000000000000000000000000000000000001111111111100000000000000000000111000000000000000000000000111111111000000001111111111100111111111111110000000000000000000000001110000000000000000000000000000000
00000000000000000000000000000000000000011111111111000000000000000000000111000000000000000000000011111111110000000000011111111000011111111111111100000000000000000000011111000000000000000000000000000000
00000000000000000000000000000000000000011111111110000000000000000000000011100000000000000000000011111111110000000000000111111100011110000111111111000000000000000000111111000000000000000000000000000000
00000000000000000000000000000000000000111111111110000000000000000000000011100000000000000000000001111111111000000000000111111111001110000000111111110000000000000001111100000000000000000000000000000000
00000000000000000000000000000000000000000110001111000000000000000000000011100000000000000000000000111111111100001110000111111111101111000000001111111100000000000011110000000000000000000000000000000000
00000000000000000000000000000000000000000000001110000000000000000000000011100000000000000000010001111111111100001110000011111111111111000000000011111100000000000111110000000000000000000000000000000000
00000000000000000000000000000000000000000000001110000000000000000000000011100000000000000000111111111111111000000000000011111111111100100000000000110001100000001111100000000000000000000000000000000000
00000000000000000000000000000000000000000000001111100000000000000000000001110000000000000000111111111111111000000000000011111111111101110000000000000001111000011111000000000000000000000000000000000000
00000000000000000000000000000000000000000000011111100000000000000000000001110000000000000000111111111111111000000000000011110111111111110000000000000011111111111110000000000000000000000000000000000000
00000000000000000000000000000000000000011100011111100000000000000000000001110000000000000000011111101111111100000000000011100111111111110000000000000001111111111110000000000000000000000000000000000000
00000000000000000000000000000000000000011100011101100000000000000000000001110000000000000000011111000111111100000000000011001111111111110000000000100000111111111000000000000000000000000000000000000000
00000000000000000000000000000000000000000000011101110000000000000001000001110000000110111000011100001111111100000000000010011111111111110000000000111000011111111000000000000000000000000000000000000000
00000000000000000000000000000000000000000000011111111100000000000001110001110000011111111000011000011111111110000000000011111111111111110000000000000000011111111000000000000000000000000000000000000000
00000000000000000000000000000000000000000000111111111100000000000000000000110000111111000000000000111111111110000000000011111111111111111000000000000000111111111110000000000000000000000000000000000000
00000000000000000000000000000000000000000000111110000000000000000000000000111001111111000000000011111111111111000000000011111111111111110000000000000001111111111111000000000000000000000000000000000000
00000000000000000000000000000111000000000000111100000000000000000000000000111111111110000000000011111111111111100000000011111111111111110000000000000011111011111111000000000000000000000000000000000000
00000000000000000000000000000111000000000000111110000000000000000000000000111111000000000000000001111111111111110000000111011111111111100000000000000111110111111111100000000000000000000000000000000000
00000000000000000000000000000111000000011101111100000000000000000000000001111100000000000000000000011111111111111111111111011111111111100000000000001111100111001111110000000000000000000000000000000000
00000000000000000000001110000111000000011111111000000000000000000000000111111000000000000000000000000111111111111111111111111111111111000000000000011110000000000111111000000000000000000000000000000000
00000000000000000000001111000111000000000110000000000000000000000000001111110000000000000000000000000000111111111111111111111111111111000000000000011100000000000011111100000000000000000000000000000000
00000000000000000000000111101111000000000000000000000000000000000000011111000000000000000000000000000000000001111111111111111111111100000000000000011000000000000011111100000000000000000000000000000000
00000000000000000000000011101111110000011100000000000000000000000000111110000000000000000000000111000000000000000000111111111111111000000000000011100000000000000011111110000000000000000000000000000000
00000000000000000000000000011111111111111110000000000000000000000001111100000000000000000000000111000000000000000000000000110000000000000000000111100000000000001111111000000000000000000000000000000000
00000000000000000000000000111111111111100110000000000000000000000000110000000000000000000000000000000000000000000000000000000000000000000000001111100011111111000111110000000000000000000000000000000000
00000000000000000000000000111111111111000000000000000000000000000000000000000000000000000000000000000000000000000000000000000000000000000000001110000111111110000111100000000000000000000000000000000000
00000000000000000000000000000111111111100000000000000000000000000000000000000000000000000000000000000000000000000000000000000000000000000000001100011111111111001111100000011100000000000000000000000000
00000000000000000000000000000001110000011000000000000000000000000000000001000000000111000000000000000000000000000000000000001000000000000000000000000011101111111111000000011100000000000000000000000000
00000000000000000000000000000000000000011000000000011100000000000000000001000000000111000000000000000000000000000000000000000000000000000000000000000000000000000000000000000000000000000000000000000000
00000000000000000000000000000000000000000000000000011100000000000000000000000000000000000000000100000000000000000000000000000000000000000000000000000000000000000000000000000000000000000000000000000000
00000000000000000000000000000000000000000000000000000000000000000000000000000000000000000000011100000000000000000000000000000000000000000000000000000000000000000000000000000000000000000000000000000000
00000000000000000000000000000000000000000000000000000000000000000000000000000000000000000000000000000000000000000000000000000000000000000000000000000000000000000000000000000000000000000000000000000000
00000000000000000000000000000000000000000000000000000000000000000000000000000000000000000000000000000000000000000000000000000000000000000000000000000000000000000000000000000000000000000000000000000000
00000000000000000000000000000000000000000000000000000000000000000000000000000000000000000000000000000000000000000000000000000000000000000000000000000000000000000000000000000000000000000000000000000000
00000000000000000000000000000000000000000000000000000000000000000000000000000000000000000000000000000000000000000000000000000000000000000000000000000000000000000000000000000000000000000000000000000000
00000000000000000000000000000000000000000000000000000000000000000000000000000000000000000000000000000000000000000000000000000000000000000000000000000000000000000000000000000000000000000000000000000000
00000000000000000000000000000000000000000000000000000000000000000000000000000000000000000000000000000000000000000000000000000000000000000000000000000000000000000000000000000000000000000000000000000000
00000000000000000000000000000000000000000000000000000000000000000000000000000000000000000000000000000000000000000000000000000000000000000000000000000000000000000000000000000000000000000000000000000000
