P1
200 70
00000000000000000000000000000000000000000000000000000000000000000000000000000000000000000000000000000000000000000000000000000000000000000000000000000000000000000000000000000000000000000000000000000000
00000000000000000000000000000000000000000000000000000000000000000000000000000000000000000000000000000000000000000000000000000000000000000000000000000000000000000000000000000000000000000000000000000000
00000000000000000000000000000000000000000000000000000000000000000000000000000000000000000000000000000000000000000000000000000000000000000000000000000000000000000000000000000000000000000000000000000000
00000000000000000000000000000000000000000000000000000000000000000000000000000000000000000000000000000000000000000000000000000000000000000000000000000000000000000000000000000000000000000000000000000000
00000000000000000000000000000000000000000000000000000000000000000000000000000000000000000000000000000000000000000000000000000000000000000000000000000000000000000000000000000000000000000000000000000000
00000000000000000000000000000000000000000000000000000000000000000000000000000000000000000000000000000000000000000000000000000000000000000000000000000000000000000000000000000000000000000000000000000000
00000000000000000000000000000000000000000000000000000000000000000000000000000000000000000000000000000000000000000000000000000000000000000000000000000000000000000000000000000000000000000000000000000000
00000000000000000000000000000000000000000000000000000000000000000000000000000000000000000000000000000000000000000000000000000000111000000000000000000000000000000000000000000000000000000000000000000000
00000000000000000000000000000000000000000000000111000000000000000000000000000000000000000000000000000000000000000000000000000000111000000000000000000000000000000000000000000000000000000000000000000000
00000000000000000000000000000000000000000000000111000000000000000000000000000000000000000000000000000011100000000000000000000000000000000000000000000000000000000000000000000000000000000000000000000000
00000000000000000000000000000000000000000000000000000000000000000000000000000000000000000000000000000011100000000000000000000000000000000000000000000000000000000000000000000000000000000000000000000000
00000000000000000000000000000000000000000000000000000000000000000000000000000000000000000000000000000000000000000000000000000000000000000000000000000000000000000000000000000000000000000000000000000000
00000000000000000000000000000000000000000000000000000000000000000000000000000000000000000000000000000000000000000000000000000000000000000000000000000000000000000000000000000000000000000000000000000000
00000000000000000000000000000000000000000000000000000000000000000000000000000000000000000000000000000000000000000000000000000111110011111100000000000000000000000000000000000000000000000000000000000000
00000000000000000000000000000000000000000000000000000000000000000000000000000000000000000000000000000000000000000000000000011111111111111100000000000000000000000000000000000000000000000000000000000000
00000000000000000000000011100000000000000000000000000000001111111000000000000000000000000000000000000000000000000000000000111111111111111100000000000000000000000000000000000000000000000000000000000000
00000000000000000000000011100000000000000000000000000011111111111111000000000000000000000000000000100000000000000000000001111111111111111100011111111100000000000000000000000000000000000000000000000000
00000000000000000000000000000000000000000000000111111111111111111111000000000000000000000000000000100000000000000000000111111111111111111000111111111111000000000000000000000000000000000000000000000000
00000000000000000000000000000000000000000000011111111111111111111111100000000000000000000000000000000000000000000000001111111111111111111100011111111111111110000000000000000000000000000000000000000000
00000000000000000000000000000000000000000000111111111111111111111111100000000000011000000000000000000000000000000000001101111111111111111110011101111111111111000000000000000000000000000000000000000000
00000000000000000000000000000000000000000001111111111111111111111111100000000011111111000000000000000000000000000000011101110000000111001111111000111111111111110000000000000000000000000000000000000000
00000000000000000000000000000000000000000001110111111111111111111111110000001111111111100000000000000111000000000000011111100000000000001111111100000000011111110000000000000000000000000000000000000000
00000000000000000000000000000000000000000001110011111111111111111111110000001111111100000000000000000111000000000000011111100000000000111111111100000000000111111000000000000000000000000000000000000000
00000000000000000000000000000000000000000001111100011111111111111111100000011111111100000110000000000000000000000000111111100000000000111111111111100000000011111100000000000000000000000000000000000000
00000000000000000000000000000000000000000011111100000010111011111111100000011111111111111111000000000000000000001001111111000000000000111111111111110000000011111110000000000000000000000000000000000000
00000000000000000000000000000000000000000000111000000000010011111111100000011111111111111111110000000000000000001111111110000010000000111111111001110000000011111110000000000000000000000000000000000000
00000000000000000000011100000000000000000000000000000000001111111111100000011111111111111111111000000000000000000000011110000010000000000111111000000000000011111110000000000000000000000000000000000000
00000000000000000000011100000000000000000000000000000000001111111111000000000111110000001111111100000000000000000000001000000000000001000011111100000000000001111110000000000000000000000000000000000000
00000000000000000000000000000000000000000000000000000000001111111111000000000011100000000011111100000000000000000000000000000000000001110001111100000000000000111110000000000000000000000000000000000000
00000000000000000000000001110000000000000000000000000000011111100000000000000000000000000001111110000000000000000000000000000000000111111111000000000000000000111110000000000000000000000000000000000000
00000000000000000000000001110000000000000000000000000000011111100000000000000000011100000001111111000000000000000000000000000000011111111110000000000000000001111110000000000000000000000000000000000000
00000000000000000000000000000000000000000000000000000000111111111100000000000000011100000000111111000000000000000000000000000000011111111110000000000000000011111110000000000000000000000000000000000000
00000000000000000000000000000000000000000000000000000001111111111100000000000000000000000000111111000000000000000000000000000001111111111100000000000000000011111000000000000000000000000000000000000000
00000000000000000000000000000000000000000000001110011110011111111000000000000000000000000000011111100000000000000000000000000011111111111000000000000000000011111000000000000000000000000000000000000000
00000000000000000000000000000000000000000000001111111111011111110000000000000000000000000000001111100000000000000000000000001111111111110000000000000000000011111110000000000000000000000000000000000000
00000000000000000000000000000000000000000000001111111111111111000000000000000000000000000000001111100000000000000000000000011111111111000000000000000000000001111111000000000000000000000000000000000000
00000000000000000000001110000000000000000000001111101111111110000000000000000000000000000000011111100000000000000000000000111101111110000000000000000000000001110000000000000000000000000000000000000000
00000000000000000000001110000000000000000000011111101111111111000000000000000000000000000000111111100000000000000000000001111101111100000000000000000000000011100000000000000000000000000000000000000000
00000000000000000000000000000000000000000000011111111111111011100000000000000000000000111000111111000000000000000000000011111111111100000000000000000000011111000000000000000000000000000000000000000000
00000000000000000000000000000000000000000000011111111111111011110111000000000000000000111001111110000000000000000100000111111110001110000000000000111000111110000000000000000000000000000000000000000000
00000000000000000000000000000000000000000000011111111111111111111111000000000000000000000011111111001111111000111111111111111110001110000000000000111001111100000000000000000000000000000000000000000000
00000000000000000000000000000000000000000000000000111111111111111000000000000000000000000111111111111111111111111111111111111111000000000000000000000001111100000000000000000000000000000000000000000000
00000000000000000000000000000000000000100000000000000111111111111000000000000000000001111111111111111111111111111111111111111111111000000000000011100011111000000000111000000000000000000000000000000000
00000000000000000000000000000000000000100000000000000011111111111000000000000000001111111111111111111111111000111111111111111111111111100000000011100111110000000000011000000000000000000000000000000000
00000000000000000000000000000000000000000000000000000011111111111000000000000001111111111111110000000000000000111111111111100011111111111000000000001111100000000000000000000000000000000000000000000000
00000000000000000000000000000000000000000000000000000011111111111000000011111111111111111111000000000000000000111111111110000000011111111000110000011111000000000000000000000111000000000000000000000000
00000000000000000000000000000000000000000000000000000111111111111000000111111011111111111000000000000000000001111111100100000000011111110001111000100010000000000000000000000111000000000000000000000000
00000000000000000000000000000000000000000000000000001111111111111111000011110011111111100000000000000000000011111111000000000011111111110001111111100001110000000000000000000000000000000000000000000000
00000000000000000000000000000000000001000000000000000011111111111111110001101111111110000000000001100000000111111110000011111111111111110001111111110001110000000000000000000000000000000000000000000000
00000000000000000000001110000000000001110000000000000011111111111111110000011111111000000000000001100000111111111110000011111111111111110000010011111000000000000000000000000001110000000000000000000000
00000000000000000000001110000000000001111100000000000111111111111110000000111111110000000000000000000001111111111111100111111111111111110000000011111100000000000000000000000001110000000000000000000000
00000000000000000000001100000000000001111111000000001111111111110000000000111111100000000000000000000001111111111111111111111111111000100000001111111110000000000000000000000000000000000000000000000000
00000000000000000000011100000000000001111111100101111111111111100000000001001111000000000000000000000001111111111111111111111111111000000000011111111111111111111000000000000000000000000000000000000000
00000000000000000000011100000000000000111111111100111111111111000000000011101100000000000000000000000011111111111111110011111111111100000000011111111111111111111100000000000000000000000000000000000000
00000000000000000000000000000000000001111111111110111111111111000000000011111100000000000000000000000011111111111111000011111111111110000000011111111111111111101100000000000000000000000000000000000000
00000000000000000000000000000000000011111110111111111111111110000000000011111110000000000000000000000111111111111110001111011110000000000000000111111111111111100100000000000000000000000000000000000000
00000000000000000000000000000000000001111110111111111111111110000000000011111111111111000000000000000111111111111111000000000000000000000000000111111111111111111000000000000000000000000000000000000000
00000000000000000000000000000000000001111111111111111111100000000000000011111111111111111000000000001111111100000000000000000000000000000000001111110000011111111000000000000000000000000000000000000000
00000000000000000000000000000000000011111111111111111111000000000000000111111111111111111100000000000010000000000000000000000000000000000000000000000000001111111000000000000000000000000000000000000000
00000000000000000000000110000000001111111100000111111110000000000000000011111111111111111110000000000000000000000000000000000000000000000000000000000011100011111100000000000000000000000000000000000000
00000000000000000000000110000000111111110000000000001000000000000000000000000001111111111111000000000000000001110000111000000000000000000000000000000011100001111110000000000000000000000000000000000000
00000000000000000000000000000000001111000000000000000000000000000000000000000000000011111111000000000000000001110000111000000000000000000000000000000000000000111111111000000000000000000000000000000000
00000000000000000000000000000000000100000000000000000000000000000000000000000000000000000110000000000000000000000000000000000000000000000000000000000000000000011111111000000000000000000000000000000000
00000000000000000000000000000000010000000000000000000000000000000000000000000000000000000000000000000000000000000000000000000000000000000000000000000000000000001111111000000000000000000000000000000000
00000000000000000000000000000000000000000000000000000000000000000000000000000000000000000000000000000000000000000000000000000000000000000000000000000000000000000111111000000000000000000000000000000000
00000000000000000000000000000000000000000000000000000000000000000000000000000000000000000000000000000000000000000000000000000000000000000000000000000000000000000011111000000000000000000000000000000000
00000000000000000000000000000000000000000000000000000000000000000000000000000000000000000000000000000000000000000000000000000000000000000000000000000000000000000001111100000000000000000000000000000000
00000000000000000000000000000000000000000000000000000000000000000000000000000000000000000000000000000000000000000000000000000000000000000000000000000000000000000000111110000000000000000000000000000000
00000000000000000000000000000000000000000000000000000000000000000000000000000000000000000000000000000000000000000000000000000000000000000000000000000000000000000000111000000000000000000000000000000000
00000000000000000000000000000000000000000000000000000000000000000000000000000000000000000000000000000000000000000000000000000000000000000000000000000000000000000000010000000000000000000000000000000000
