P1
200 70
00000000000000000000000000000000000000000000000000000000000000000000000000000000000000000000000000000000000000000000000000000000000000000000000000000000000000000000000000000000000000000000000000000000
00000000000000000000000000000000000000000000000000000000000000000000000000000000000000000000000000000000000000000000000000000000000000000000000000000000000000000000000000000000000000000000000000000000
00000000000000000000000000000000000000000000000000000000000000000000000000000000000000000000000000000000000000000000000000000000000000000000000000000000000000000000000000000000000000000000000000000000
00000000000000000000000000000000000000000000000000000000000000000000000000000000000000000000000000000000000000000000000000000000000000000000000000000000000000000000000000000000000000000000000000000000
00000000000000000000000000000000000000000000000000000000000000000000000000000000000000000000000000000000000000000000000000000000000000000000000000000000000000000000000000000000000000000000000000000000
00000000000000000000000000000000000000000000000000000000000000000000000000000000000000000000000000000000000000000000000000000000000000000000000000000000000000000000000000000000000000000000000000000000
00000000000000000000000000000000000000000000000000000000000000000000000000000000000000000000000000000000000000000000000000000000000000000000000000000000000000000000000000000000000000000000000000000000
00000000000000000000000000000000000000000000000111000000000000000000000000000000000000000000000000000000000000000000000000000000000000000000000000000000000000000000000000000111000000000000000000000000
00000000000000000000000000000000000000000000000111000000000000000000000000000000000000000000000000000000000000000000000000001110000000000000000000000000000000000000000000001111000000000000000000000000
00000000000000000000000000000000000000000000000000000000000000000000011100000000000000000000000000000000000000000000000000001110000000000000000000000000000000000000000000001110000000000000000000000000
00000000000000000000000000000000000000000000000000000000000000000000011100000000000000000000000000000000000000000111000000000000000000000000000000000000000000000000000000000000000000000000000000000000
00000000000000000000000000000000000000000000000011100000000000000000000000000000000000000000000000000000000000000111000000000000000000000000000000000000000000000000000000000000000000000000000000000000
00000000000000000000000000000000000001110000000011100000000000000000000000000000000000000000000000000000000000000000111000000000000000000000000000000000000000000000000000000000000000000000000000000000
00000000000000000000000000000000000001110000000000000000000000000000000000000000000000000000000011110000000000000000011000000000000000000000000000000000010000000000000000000000001110000000000000000000
00000000000000000000000000000000000000000000000000001110000000000000000000000000000000000000111111111100000000000000000000000000000000000000000000001100010000000000000000000001111000000000000000000000
00000000000000000000000000000000000000000000110000001110000000000000000000000000000000000001111111111110000011100000000000000000000000000000000000001110000000000010111000000001110000000000000000000000
00000000000000000000000000000000000000000000111111100000000000000000011100000000000000000111111111111110001111110011000000000000000000000000000000000000000001111111111111100000000000000000000000000000
00000000000000000000000000000000000000000000111000110000000000000000011100000000000000001111111111111110001111111111100000000000000000000000000000000000011100111111111111100000000000000000000000000000
00000000000000000000000000000000000000000001111101111111000000000000000000000000000000111111111111111110000111111111111000000000000000000000000000000011111110111111111110000000000000000000000000000000
00000000000000000000000000000000000000000001111111111111100000000000000000000000000011111111011111111111001111111111111000000000000000000000000000001111111111111111111100000000000000000000000000000000
00000000000000000000000000000000000000000001111111101111111000000000000000000000000111111110011111111111111111111111110010000000000001110001111111111111111111111101000000000000000000000000000000000000
00000000000000000000000000000000000000000001110000000011111100000000000000000000011111111000011101111111111111000000100111000011111111111011111111111111111110000000000000000000000000000000000000000000
00000000000000000000000000000000000000000011100000000011111111000000000000000000111111100000011100111111001111000000111111111111111111111111111101111011111111000000000000000000000000000000000000000000
00000000000000000000000000000000000000000011110000000001111111111000000000000001001111100000011111001111111110001111111111111111111111111111111001110001111111111100000000000000000000000000000000000000
00000000000000000000000000000000000000000001100000000001111111111000000000000001101111111000111111101111111111011111111111111110000000000000000011111000011111111110000000000000000000000000000000000000
00000000000000000000000000000000000000000000000000000001111111111110001111110011111111111101111111111111111111111111111111111100000000000000000111110000000001111111100000000000000000000000000000000000
00000000000000000000000000000000000000000000000000000000111111111111111111100111111111111111111101111111111111111100000011111100000000000000011111100000000000011111110000000000000000000000000000000000
00000000000000000000000000000000000000000000000000000000111111111111111111000111111100011111111101111111000000000000000001111100000000000000111111000000000000000111111100000000000000000000000000000000
00000000000000000000000000000000000000000000000000000001111111111111111110000111111000000000011111111111000000000000000001111110000000000001111110000000000000000011111000000000000000000000000000000000
00000000000000000000000000000000000000000000000000001111111111111000000000000011111000000000001111111110000000000000000001111110000000000001111100000001111111100000100000000000000000000000000000000000
00000000000000000000000000000000000000000000000000111111111111110000000000000111111000000000001111111110000000000000000000111110000000000011111100000011111111110000000000000000000000000000000000000000
00000000000000000000000000000000000000000000000111111111111111000000000000000111110000000011001111111100000000000000000000111110000000000011111000111111111111111000000000000000000000000000000000000000
00000000000000000000000000000000000000000000011111111111111110000000000000000111110000000111011111111100000000000000001100111110000000000001111111111111111111111100000000000000000000000000000000000000
00000000000000000000000000000000000000000000111111111111111111000000000000000011100000000000011101111100000000000000001100111110000000000001111111111111111111111110000000000000000000000000000000000000
00000000000000000000000000000000000000000010011111111111111110000000000000000000000000000000011101111000000000000000000001111100000000001111111111111000001111001110000000000000000000000000000000000000
00000000000000000000000000000000000000000111011111111111111000000000000000000000000000000000111111111000000000000111000001111000000000001111111111000000000111001111000000000000000000000000000000000000
00000000000000000000000000000000000000001111111111111111111000000000000000000000000000000000111111110000000000000111000011111100000000011111111110000000000111111111000000000000000000000000000000000000
00000000000000000000000000000000000000011111110011111111111000000000000000000000000000000000011111110000000000000000000011111110000000011111111000000000000111111100000000000000000000000000000000000000
00000000000000000000000000000000000011111111000000011111111110000000000000000000000000000000001111100000000000000000000111111100000000011111110000000000000111111000000000000000000000000000000000000000
00000000000000000000000000000000000011111100000000000111111111000000000000000000000000000000011111000000000000000000001111110000000000001111110000000000000111110000000000000001110111000000000000000000
00000000000000000000000000000000000111111000000000000011111111100000000000000000000000000011111110000000000000000000011111100000000000001111100000011100000111100000000000000001110111000000000000000000
00000000000000000000000000000000001111110000000000000001111111100000000000000000000000000011111100000000000000000000011110000000000000111111000000000000000111110000000000000000000000000000000000000000
00000000000000000000000000000000011111100000000000000011111111100000000000000000000000000111111100000000000000000000111100000000000000011110000000000000001111110000000000000000000000000000000000000000
00000000000000000000000000000000011111000000000000000111111111100000000000000000000000000111111000000000000000000001111000000000000000111100000000000000000111100000000000000000000000000000000000000000
00000000000000000000000000000000111111100000000000000111111111100000000000000000000000001111111000000000000000000001110000000000000001111110000000000000001111000000000000000000000000000000000000000000
00000000000000000000000000000001001111100000000000000111111111000000000000000000000000011111110000000000000000000011111000000000000001111110000000011111111111000000000000000000000000000000000000000000
00000000000000000000000000000000000111100000000000000111111110000000000000000000000000011111111000000000000000000011111100000000000001111110000000011111111110001110000000000000000000000000000000000000
00000000000000000000000000000000001111100000000000000111111110000000000000000000000000111111111000000000000000000011111000000000000001111110000000001111111100001111000000000000000000000000000000000000
00000000000000000000000000000000001111100000000000100011111100000000000000000000000001111111000000000000000000000001111000000001110001111110000000001111110000000111100000011100000000000000000000000000
00000000000000000000000000000000000011100000000011100111111000000000000000000000000011111100000000000000110000000001110000000001110001111100000001111111100000000011100000010000000000000000000000000000
00000000000000000000000000000000000000010000011100011111110000000000000000000000000011111100000000000111111000001111110000000000111001111100111111111001000000000000000000000000000000000000000000000000
00000000000000000000000000000000011100111111111110011001000000000000000000000000001111111000000000001111111000001111100000000000111001111111111111110000000000000000000000000000000000000000000000000000
00000000000000000000000000000000011111111111111111100000000000000000000000000000001111110000000011111111111000001111110000000000000000111111111111111000000000000000000000000000000000000000000000000000
00000000000000000000000000000000111111111111111100000000000000000000000000000000011111100000100111111111111000001111111111111111110000011111111111110000000000000000000000000111100000000000000000000000
00000000000000000000000000000000111111111100000000000000000000000000000000000000111111000001111111111111111000001111101111111111111110001111111111000000000000000000000000000111100000000000000000000000
00000000000000000000000000000000101111110000000111000000000000000000000000000001111111001111111111111111111000001111101111111111111111000011100000000000000000000000000000000000000000000000000000000000
00000000000000000000000000000000000011100000000111000000000000000000000000000011111111100111111111111111111000000111111111111111111111000000000000000000000000000000000000000000000000000000000000000000
00000000000000000000000000000000000000000000000000000000000000000000000000000111111111100011111111111111100000000011110011111111111111000000000000000000000000000000000000000000000000000000000000000000
00000000000000000000000000000000000000000000000000000000000000000000000000001111111111100011111111111111000000000000000011110000000111000000000000000000000000000000000000000000000000000000000000000000
00000000000000000000000000000000000000000000000000000000000000000000000000001111111111110111111111110000000000000000000011100000000000000000000000000000000000000000000000000000000000000000000000000000
00000000000000000000000000000000000000000000000000000000000000000000000000001111111111111111111100000000000000000000000000000000000000000000000000000000000000000000000000000000000000000000000000000000
00000000000000000000000000000000000000000000000000000000000000000000000000001111111111111110000000000001110000000000000000000000000000000000000000000000000000000000000000000000000000000000000000000000
00000000000000000000000000000000000000000000000000000000000000000000000000001111111111110000001100000000000000000000000000000000000000000000000000000000001110000000000000000000000000000000000000000000
00000000000000000000000000000000000000000000000000000000000000000000000000000111111110000000001100000000000000000000000000000000000000000000000000000000001110000000000000000000000000000000000000000000
00000000000000000000000000000000000000000000000000000000000000000000000000000111100000000000000000000000000000000000000000000000000000000000000000000000000000000000000000000000000000000000000000000000
00000000000000000000000000000000000000000000000000000000000000000000000000000000000000000000000000000000000000000000000000000000000000000000000000000000000000000000000000000000000000000000000000000000
00000000000000000000000000000000000000000000000000000000000000000000000000000000000000000000000000000000000000000000000000000000000000000000000000000000000000000000000000000000000000000000000000000000
00000000000000000000000000000000000000000000000000000000000000000000000000000000000000000000000000000000000000000000000000000000000000000000000000000000000000000000000000000000000000000000000000000000
00000000000000000000000000000000000000000000000000000000000000000000000000000000000000000000000000000000000000000000000000000000000000000000000000000000000000000000000000000000000000000000000000000000
00000000000000000000000000000000000000000000000000000000000000000000000000000000000000000000000000000000000000000000000000000000000000000000000000000000000000000000000000000000000000000000000000000000
