P1
200 70
00000000000000000000000000000000000000000000000000000000000000000000000000000000000000000000000000000000000000000000000000000000000000000000000000000000000000000000000000000000000000000000000000000000
00000000000000000000000000000000000000000000000000000000000000000000000000000000000000000000000000000000000000000000000000000000000000000000000000000000000000000000000000000000000000000000000000000000
00000000000000000000000000000000000000000000000000000000000000000000000000000000000000000000000000000000000000000000000000000000000000000000000000000000000000000000000000000000000000000000000000000000
00000000000000000000000000000000000000000000000000000000000000000000000000000000000000000000000000000000000000000000000000000000000000000000000000000000000000000000000000000000000000000000000000000000
00000000000000000000000000000000000000000000000000000000000000000000000000000000000000000000000000000000000000000000000000000000000000000000000000000000000000000000000000000000000000000000000000000000
00000000000000000000000000000000000000000000000000000000000000000000000000000000000000000000000000000000000000000000000000000000000000000000000000000000000000000000000000000000000000000000000000000000
00000000000000000000000000000000000000000000000000000000000000000000000000000000000000000000000000000000000000000000000000000000000000000000000000000000000000000000000000000000000000000000000000000000
00000000000000000000000000000000000000000000000000000000000000000000000000000000000000000000000000000000000000000000000000000000000000000000000000000000000000000000000000000000000000000000000000000000
00000000000000000000000000000000000000000000000000000000000000000000000000000000000000000000000000000000000000111000000000000000000000000000000000000000000000000000111000000000000000000000000000000000
00000000000000000000000000000000000000000000000000000000000000000000000000000000000000000000000010000000000000000000000000000000000000000000000000000000000000000000111000000000000000000000000000000000
00000000000000000000000000000000000000000000000000000000000000000000000000000000000000011100000000000000000000000000000000000000000000000000111000000000000000111111111000000000000000000000000000000000
00000000000000000000000000000000000000000000000000000000000000000000000000000000000000000100000000000000000000000000000000000000000000000000111000001111111111111111111000000000000000000000000000000000
00000000000000000000000000000000000000000000000000000000000000000000000000000000000000000000000000000000000000000000000000000000000000000000000001111111111111111011111100000000000000000000000000000000
00000000000000000000000000000000000000000000000000000000000000000000000000000000000000000000000000000000000000000000000000000000000000000000000111111111111111111011111110000000000000000000000000000000
00000000000000000000000000000000000000000000000000000000000000000000000000000000000000000000000000000000000000000000000000000000000000000000001111111111111111111111111110000000000000000000000000000000
00000000000000000000000000000000000000000000000000000000000000000000000000000000000000000000000000000000111110111110000000000000000000000000001111110111111001111110111111000000000000000000000000000000
00000000000000000000000000000000000000000000000000000000000000000000000000000000000000000000000000001111111100011111111100000000000000000000001111100011110001111100011111100000000000000000000000000000
00000000000000000000000000000000000000000000000000000000000000000000000000000000000000000000000000111111110000111111111111000000000000000000011111100000000011111110111111100000001110000000000000000000
00000000000000000000000000001110000000000001111111100000000000000000000000000000000000000000000000011111110011111111111111110000000000000000000000000000000111111111111111100000001110000000000000000000
00000000000000000000000000001110000000000111111111111110000000000000000000000000000000000000000000011111111111011111111101110000000000000000000000000000011111111011111111100000000000000000000000000000
00000000000000000000000000000000000000011111111111111111000000000000000000000000000000000000000000011111100000000000111101111000000000000000000000000000001111100001111111100000000000000000000000000000
00000000000000000000000000000000000000111111111110011100111000000000000000000000011010000000000000011111100000000000001111111111000000000000000000000000001111000001111111100000000000000000000000000000
00000000000000000000000000000000000000111111100000001101111110000000000000000000111111000000000000001111110000000000000011111110000000000000000000000100011100000001111110000000000000000000000000000000
00000000000000000000000000000000000000111111000000001111111111000000000000000001111111100000000000000111110000000000000001111110000000000000000000001110111000000001111110000000110000000000000000000000
00000000000000000000000000000000000000111111100000000001111111100000000000110011111111111100000000000111110000000000000000111111110011000111000000111111110000000001111111000001110000000000000000000000
00000000000000000000000000000000000000111111000000000000111111111000000000111111110001111110000000000111110000000000000000111111000011000111000001111111000000000011111111000000000000000000000000000000
00000000000000000000000000000000000000000010000000000000001111111100000000001111100000001111000000000011110000000000000000011111000000000010000011111110000000000011111111000000000000000000000000000000
00000000000000000000000000000000000000000000000000000000000111111100000000000001000000000111100001000001100000000000000000011111111000000111001111111100000000001111111110000000000000000000000000000000
00000000000000000000000000000000000000000000000000000000000111110000000000000000000000000011110111000000000000000000000011111111111000000111111111111000000000111111111110000000000000000000000000000000
00000000000000000000000000000000000000000000000000000000000011110000000000000000000100000001111000000000000000000000000011111111000000000011111111111000110001111111111100000000000000000000000000000000
00000000000000000000000000000000000000000000000000000000000011111100000000000000000111000000110000000000000000000000000000111111000000000111111110011101111011111110111000000000000000000000000000000000
00000000000000000000000000000000000000000000000000000000000111111100000000000000000000000000110000000000000000000000000000111111100000111111111000011111111111111100000000000000000000000000000000000000
00000000000000000000000000000000000000000000000000000000001111111000000000000000000000000000110000000000000000000000000001111111100000111111100000011111111111111000000000000000000000000000000000000000
00000000000000000000000000000000000000000000000000000000011111111000000000000000000000000000110000000000000000000000000011111111111111000110000000011111111111111000000000000000000000000000000000000000
00000000000000000000000000000000000000000000011000000111111111110000000000000000000000000000111000000000000000000000111111111111111111000000000000001111111111110001100000000000000000000000000000000000
00000000000000000000000000000000000000000000111100011111111110000000000000000000000000000000111000000000000000000000111111111111111111000000000000000000000111111011110000000000000000000000000000000000
00000000000000000000000000000000000000000000111111111101111100000000010000000000000000000001111000000000000000000000111111111111111110000000000000000000000001111111111000000000000000000000000000000000
00000000000000000000000000000000000000000000111111111101110000000000010000000000000000000001111000000000000000000000111111111111111111000000000000000000000000011111111100000000000000000000000000000000
00000000000000000000000000000000000000000000100111111111110000000000000000000000000000000011110000000000000000000001111111111011111111100000000000000000000000001111111100000000000000000000000000000000
00000000000000000000000000000000000000000000000000111111111000000000000000000000000000001111110000000000000000001111111111110001111111110001000000000000000000000111111110000000000000000000000000000000
00000000000000000000000000000000000000000000000000000111111100000000000000000000111111111111111000111111111110000011111110000000111111111111000000000000000000000111111110000000000000000000000000000000
00000000000000000000000000000000000000000000000000000011111110000000000001111111111111111111111111110111111111110001100000000000011111111100000011100000000111000111111111000000000000000000000000000000
00000000000000000000000000000000000000000000000000000011111111000011111111111111111111111111111111110111111111111100000000000000001111111100000010000000000111011111111111000000000000000000000000000000
00000000000000000000000000000000000000000000000000000011111111111111111111111111111111111111111001111111111000000000000000000000001111111110000000000000000000011001111111000000000000000000000000000000
00000000000000000000000000000000000000000000000000000011111101111111111111000000011111110000000000100000000000000000000001110000000111111110000000000000000000000000111111000000000000000000000000000000
00000000000000000000000000000000000110000000000000000011111000111110000000000000011111000000000111000000000000000001110001110000000111111111000000000000000000000001111111000000000000000000000000000000
00000000000000000000000000000000111111100000000000001001111000000000000000000000000010000000000111000000000000000001111110000000001110111111100000000000000000000011111111000000000000000000000000000000
00000000000000000000000000000000111111100000000000011101111100000000000000000111100001110000000000000000000000000000001110000000001100111111111000000000000000000011111111000011100000000000000000000000
00000000000000000000000000000000111111110000000001111111111000000000000000000111110001000000000000000000000000000000000000000000000111111111111100000000000000000011111111000011100000000000000000000000
00000000000000000000000000000000011111110000000011111111111000000000000000001111100000000000000000000000000000000000000000000000000111111111111111110000000000000111111111000000000000000000000000000000
00000000000000000000000000000000011111111101001111111111110000000000000000111110000000000000000000000000000000000100000000000000000111111111111111111000000000000111111111000000000000000000000000000000
00000000000000000000000000000000011111111111111111111111000000000000000001111000000000000000000000000000000000001111000000000000000111111111111111111111100000000111111111100000000000000000000000000000
00000000000000000000000000000000001111111111111111111000000000000000000001110000000000000000000000000000000000011111111000000000001111111000111111111001111111001111111111100000000000000000000000000000
00000000000000000000000000000000000111111111111111110000000000000000000001111000000000000010000000000000000001111111111000000000011111111000001001111011111011111111111110000000000000000000000000000000
00000000000000000000000000000000000011111111111111000000000000000000000000011111000000000111000000000000000001111111110000000000111111110111000000111111111011111110111100000000000000000000000000000000
00000000000000000000000000000000000000111111111110000000000000000000000000001111111111000111000000000000000000000111111000000011111111100111000000111111111111111110111100000000000000000000000000000000
00000000000000000000000000000000000000111111110000000000000000000000000000001111100011110000000000000000000000000011111110000011111110000000000000000111111111111111111000000000000000000000000000000000
00000000000000000000000000000000000001111111000000000000000000000000000000000000000011111000000000000000000000000011111111000111111100000000000000000011100111111111110000000000000000000000000000000000
00000000000000000000000000000000000011111110000000000000000000000000000000000000000001111110000000000000000000000011111111111111110000000000000000000000000011110000000000000000000000000000000000000000
00000000000000000000000000000000000011111100000000000000000000000000000000000000000000000000000000000000000000000011111011111111000000000000000000000000000000000000000000000000000000000000000000000000
00000000000000000000000000000000000111111000000000000000000000000000000000000000000000000000000000000000000000000011110001111100000000000000000000000000000000001110000000000000000000000000000000000000
00000000000000000000000000000000000011110000000000000000011100000000000000000000000000000000000000000000000000000001111000000000000000000000000000000000000000000000000000000000000000000000000000000000
00000000000000000000000000000000000111100000000000000000011100000000000000000000000000000000000000000000000000000000000000000000000000000000000000000000000000000000000000000000000000000000000000000000
00000000000000000000000000000000011111000000000000000000000000000000000000000000000000000000000000000000000000000000000000000000000000000000000000000000000000000000000000000000000000000000000000000000
00000000000000000000000000000000111111000000000000000000000000000000000000000000000000000000000000000000000000000000000000000000000000000000000000000000000000000000000000000000000000000000000000000000
00000000000000000000000000000000111110000000000000000000000000000000000000000000000000000000000000000000000000000000000000000000000000000000000000000000000000000000000000000000000000000000000000000000
00000000000000000000000000000001111100000000000000000000000000000000000000000000000000000000000000000000000000000000000000000000000000000000000000000000000000000000000000000000000000000000000000000000
00000000000000000000000000000000011100000000000000000000000000000000000000000000000000000000000000000000000000000000000000000000000000000000000000000000000000000000000000000000000000000000000000000000
00000000000000000000000000000000001000000000000000000000000000000000000000000000000000000000000000000000000000000000000000000000000000000000000000000000000000000000000000000000000000000000000000000000
00000000000000000000000000000000000000000000000000000000000000000000000000000000000000000000000000000000000000000000000000000000000000000000000000000000000000000000000000000000000000000000000000000000
