P1
200 70
00000000000000000000000000000000000000000000000000000000000000000000000000000000000000000000000000000000000000000000000000000000000000000000000000000000000000000000000000000000000000000000000000000000
00000000000000000000000000000000000000000000000000000000000000000000000000000000000000000000000000000000000000000000000000000000000000000000000000000000000000000000000000000000000000000000000000000000
00000000000000000000000000000000000000000000000000000000000000000000000000000000000000000000000000000000000000000000000000000000000000000000000000000000000000000000000000000000000000000000000000000000
00000000000000000000000000000000000000000000000000000000000000000000000000000000000000000000000000000000000000000000000000000000000000000000000000000000000000000000100000000000000000000000000000000000
00000000000000000000000000000000000000000000000000000000000000000000000000000000000000000000000000000000000000000000000000000000000000000000000000000000000000000001111100000000000000000000000000000000
00000000000000000000000000000000000000000000000000000000000000000000000000000000000000000000000000000000000000000000000000000000000000000000000000000000000000000001111000000000000000000000000000000000
00000000000000000000000000000000000000000000000000000000000000000000000000000000000000000000000000000000000000000000000000000000000000000000000000000000000000000011111000000000000000000000000000000000
00000000000000000000000000000000000000000000000000000000000000000000000000000000000000000000000000000000000000000000000000000000000000000000000000000000000000000111110000000000000000000000000000000000
00000000000000000000000000000000000000000000001110000000000000000000000000000000000000000000000000000000000000000000000000000000000000000000000000000000111110001111110000000000000000000000000000000000
00000000000000000000000000000000000000000000001110000000000000000000000000000000000000000000000000000000000000000000000000000000000000000000000000000000111001100111100000000000000000000000000000000000
00000000000000000000000000000000111000000000000000000011100000000000000000000000000000000000000000000000000000000000000000000000000000000000000000111001111011110111100000000000000000000000000000000000
00000000000000000000000000000000111100000000000000000111100000000000000000000000000000000000000000000000000000000000000000000000000000000000111111111111111111111111111100000000000000000000000000000000
00000000000000000000000000000000011110000000000000000100000000000000000000000000000000000000000000000001110000000000000000000000000000000011111111111111111111111111011100000000000000000000000000000000
00000000000000000000000000000000001110000000000000000000000000000000000000000000000000000000000000000001110000000000000000000000000000011111111111111111111110111110000000000000000000000000000000000000
00000000000000000000000000000000000000000000000000000000000000000000000000000000000000000000000000000000000000000000000000000000000000011111111111111111111110111110000000000000000000000000000000000000
00000000000000000000001110000000000000000000000000000000000000111000111100000000000000000000000000000000011100000000111111000000000000001111111011111111111111111100000000000000000000000000000000000000
00000000000000000000001110000000000000000000000000000000000000111111111111100000000000000000000000000000011100000001111111111100111000001111111011111111111111111000000000000000000000000000000000000000
00000000000000000000000000000000000011100000000000000000000000010011111111111100000000000000000000000000001000000011111111111111111000000111111111111111111111110000000000000000000000000000000000000000
00000000000000000000000000000000000010000000001111110000000000000001111111111110000000000000000000111000011100000011111111111111111000000111111111111100001111110000000000000000000000000000000000000000
00000000000000000000000000000000000000000111111111111000000000100011100011111111100000000000000000111000011100000001111111111111111111101111111110000000001111100000000000000000000000000000000000000000
00000000000000000000000000000000000000000111111111111000100000111110000000111111111000000000000000000000000000000000111111111111111111111111111100000000011111000000000000000000000000000000000000000000
00000000000000000000000000000000000000001111111111110001110000111100000000001111110000000000000000000000000000000000111111111111111111111111111110000000111111000000000000000000000000000000000000000000
00000000000000000000000000000000000000001111110000000011110000111100000000000111110000000000000000000000000000000011111111111111111111111111111110000001111110000000000000000000000000000000000000000000
00000000000000000000000000000000000000011110000000001111110000111000000000000111111000000000011100000000000000011110000010001111111111000111110000000111111001100000000000000000000000000000000000000000
00000000000000000000000000000000000000011100000000001111110001111000000000000001111000000000011100000000000000111110000000000111111111000111100000011111111011111000000000000000000000000000000000000000
00000000000000000000000000000000000000011000000001111111111011100000000000000000011100000000000000000000000000111100000000000000111110000111110011111111111111111100000000000000000111000000000000000000
00000000000000000000000000000000001110111000000001111111110011100000000000000000011110000000000000000000000001111110000000000000000100000111111111111111111111111100000000000000000111000000000000000000
00000000000000000000000000000000001111110000000000001111110000000000000000000111111110000000000000000000000001111111100000000000000000000111111111111111111111111000100000000000000000000000000000000000
00000000000000000000000000000000001111100000001110001111110000000000000000001111111111000000000000000000000011111111111000000000000000000111110111111111111111111000110000000000000000000000000000000000
00000000000000000000000000000000011111100000001110011111110000000000000000000001111111000000000000000000000111111111111100000000000000000011100111111111111111111000000000000000000000000000000000000000
00000000000000000000000000000000111111000000000000111111100000000000000000000001111111000000000000111000000111111111111110000000000000000011001111111001111111111100000100000000000000000000000000000000
00000000000000000000000000000000011111000000000011111111000000000000000000000001111111000000000000111000000111111111111110000000000000000010000111110000011111111111111110000000000000000000000000000000
00000000000000000000000000000000001111100000000011111110000000000000000000000001111110000000000000000000001111011110111111000000000000000011001111111000000111111111111110000000000000000000000000000000
00000000000000000000000000000000000111110000000111111110000000000000000000000011111110000000000000000000000110011110111111100000000000000011111111110000000001111111111110000000000000000000000000000000
00000000000000000000000000000000000011111111111111111000000000000000000000000001111110000000000000000000000001111111111111100000000000000011111111100000000000111111111111000000000000000000000000000000
00000000000000000000000000000000000001111111111110000000000000000000000000000001111100000000000000000000000000011111111111110000000000000000111111000000000000011111111111000000000000000000000000000000
00000000000000000000001110000000000000111111111110000000000000000000000000000011111000000000000000000000000000000111111111110000000000000000111110000000000000001111111111100000000000000000000000000000
00000000000000000000001110000000000000111111111111100000000000000000000000001111111000000000000000000000000000000011111111110000000000000001111100000000000000001111111111100000000000000000000000000000
00000000000000000000000000000000000000011111101111110000000000000000000000001111110000000000000000000000000000000001101111110000000000000011111000000000000000000111111111100000000000000000000000000000
00000000000000000000000000000000000000000111101111111011100000000000000000001111000000000000000000000000000000000001001111110000000000001111110000000000000000000111111111110000000000000000000000000000
00000000000000000000000000000000000000000011111111111111100000000000000000011110000000000000000000000011100000000000111111110000000000011101110000000000000000000111111111111100000000000000000000000000
00000000000000000000000000000000000000000000111111111100000000000000000001111110000000000000000000000011100000000000111110010000000001111100110001000000000000000111111111111100000000000000000000000000
00000000000000000000000000000000000000000000011110111100000000000000000111111100000000000000000000000011100000000000111110000000000011111111111111110000000000000111111111111000000000000000000000000000
00000000000000000000000000000000000000000000001110111100000000000000001111111000000000000000000000000000000000000000111111000000001111111101111111111100000000000111110111110000000000000000000000000000
00000000000000000000000000000000000000000000000111111100000000000000001111110000000000000000000000000000000000000000111111000000011111110000111111111110000000000111110011111000000000000000000000000000
00000000000000000000000000000000000000000000000011111110000000000000011111100000000000000000000000000000000000000000111111000001111110000000111111111111000000000111111001111000000000000000000000000000
00000000000000000000000000010000000000000000000011111111111100000000111110000000000000000000000000000000000000000000111111000111111100000000011111111111100000011111111101110000000000000000000000000000
00000000000000000000000000100000000000000000000111111111111111000001111110000000000011000000000000000000000000000000111111111111110000000000001111111111111111111111111111110000000000000000000000000000
00000000000000000000000001110000000000000000000111111101111111111111111110000000000111000000000000000000000000000000001111111111100000000000001111110011111111111111111111100000000000000000000000000000
00000000000000000000000001111000000000111000001111111000001111111111111000000000000111000000000000000000000000000000001111111110000000000000001111110001111111011111111111100000000000000000000000000000
00000000000000000000000001111100000000111000011111110000000011111111110000000000000111000000000000000000000000000111111111110000000000000000011111111001111110001111111111110000000000000000000000000000
00000000000000000000000011111110000000000000011100110000000011111111111001100000001111100000000000001110010000001111111111000000000000000000000000111111111110001111111111100000000000000000000000000000
00000000000000000000000011111111000000000000111100000000000111011111111111111111111111100000000111011111111111111100111111000000000000000000000000000011111111011111111111000000000000000000000000000000
00000000000000000000000011111111111000111111111110000000000111111111111111111111111111111111111111111111111111111100000111111000000000000000000000000001111111111111111110000000000000000000000000000000
00000000000000000000000000111111111111111111111110000000000000111111111111111111111110111111111111111111111111111111000000111000000000000000000000111000011111111111111110000000000000000000000000000000
00000000000000000000000000011111111111111111111000000000000000111111111111111111000100011111111111111111111111111111000000000000000000000000000000111000000001111111111111000000000000000000000000000000
00000000000000000000000000000000000011111111000000000000000000111111111111111100000000011111111111111111111111111110000000000000000000000000000000000000000000000000000111000000000000000000000000000000
00000000000000000000000000000000000000000000000000001110000000111111111100000000000000000000000000001111111111111000000000000000000000000000000000000000000000000000000000000000000000000000000000000000
00000000000000000000000000000000000000000000000000001110000000111101000000000000000000000000000000000111111111100000000000000000000000000000000000000000000000000000000000000000000000000000000000000000
00000000000000000000000000000000000000000000000000000000000000000000000000000000000000000111000000000011111000000000000000000000000000000000000000000000000000000000000000001110000000000000000000000000
00000000000000000000000000000000000000000000000000000000000000000000000000000000000000000111000000000000000000000000000000000000000000000000000000000000000000000000000000001110000000000000000000000000
00000000000000000000000000000000000000000000000000000000000000000000000000000000000000000000000000011100000000000000000000000000000000000000000000000000000000000000000000000000000000000000000000000000
00000000000000000000000000000000000000000000000000000000000000000000000000000000000000000000000000011100000000000000000000000000000000000000000000000000000000000000000000000000000000000000000000000000
00000000000000000000000000000000000000000000000000000000000000000000000000000000000000000000000000000000000000000000000000000000000000000000000000000000000000000000000000000000000000000000000000000000
00000000000000000000000000000000000000000000000000000000000000000000000000000000000000000000000000000000000000000000000000000000000000000000000000000000000000000000000000000000000000000000000000000000
00000000000000000000000000000000000000000000000000000000000000000000000000000000000000000000000000000000000000000000000000000000000000000000000000000000000000000000000000000000000000000000000000000000
00000000000000000000000000000000000000000000000000000000000000000000000000000000000000000000000000000000000000000000000000000000000000000000000000000000000000000000000000000000000000000000000000000000
00000000000000000000000000000000000000000000000000000000000000000000000000000000000000000000000000000000000000000000000000000000000000000000000000000000000000000000000000000000000000000000000000000000
00000000000000000000000000000000000000000000000000000000000000000000000000000000000000000000000000000000000000000000000000000000000000000000000000000000000000000000000000000000000000000000000000000000
00000000000000000000000000000000000000000000000000000000000000000000000000000000000000000000000000000000000000000000000000000000000000000000000000000000000000000000000000000000000000000000000000000000
