P1
200 70
00000000000000000000000000000000000000000000000000000000000000000000000000000000000000000000000000000000000000000000000000000000000000000000000000000000000000000000000000000000000000000000000000000000
00000000000000000000000000000000000000000000000000000000000000000000000000000000000000000000000000000000000000000000000000000000000000000000000000000000000000000000000000000000000000000000000000000000
00000000000000000000000000000000000000000000000000000000000000000000000000000000000000000000000000000000000000000000000000000000000000000000000000000000000000000000000000000000000000000000000000000000
00000000000000000000000000000000000000000000000000000000000000000000000000000000000000000000000000000000000000000000000000000000000000000000000000000000000000000000000000000000000000000000000000000000
00000000000000000000000000000000000000000000000000000000000000000000000000000000000000000000000000000000000000000000000000000000000000000000000000000000000000000000000000000000000000000000000000000000
00000000000000000000000000000000000000000000000000000000000000000000000000000000000000000000000000000000000000000000000000000000000000000000000000000000000000000000000000000000000000000000000000000000
00000000000000000000000000000000000000000000000000000000000000000000000000000000000000000000000000000000000000000000000000000000000000000000000000000000000000000000000000000000000000000000000000000000
00000000000000000000000000000000000000000000000000000000000000000000000000000000000000000000000000000000000000000000000000000000000000000000000000000000000000000000000000000000000000000000000000000000
00000000000000000000000000000000000000000000000000000000000000000000000000000000000000000000000011100000000000000000000000000000000000000000000000000000000000000000000000000000000000000000000000000000
00000000000000000000000000000000000000000000000000000000000000000000000000000000000000000000000011100000000000000000000000000000000000000000000000000000000000000000000000000011100000000000000000000000
00000000000000000000000000000000000000000000000000000000000000000000000000000000000000000000000000000000000000000000000000000000000000000000000000000000000000000000000000000000000000000000000000000000
00000000000000000000000000000000000000000000000000000000000000000000000000000000000000000000000000000000000000000000000000000000000000000000000000000000000000000000000000000000000000000000000000000000
00000000000000000000000000000000000000000001111100000000000000000000000000000000000000000000000000000000000000000000000000000000000000000000000000000000000000000000000001100000000000000000000000000000
00000000000000000000000000000000000001111111111110000000000000000000000000000000000000000000000000000000000000000000000000000000000000000000000000000000000000000000000001100000000000000000000000000000
00000000000000000000000000000000000011111111111111100000000000000000000000000000000000000000000000000110000000000000000000000000000000000000000000000000000000000000000000000000001110000000000000000000
00000000000000000000000000000000001111111111111111110000000000000000000000000000000000000000001110000110000000000000000000000000000000000000000000000000000000000000000000000000001110000000000000000000
00000000000000000000000000000000011111111111111111110000000000000000000000000001111111110000001111000110000000000000000000000000000000000000000000000000000000000000000000000000000000000000000000000000
00000000000000000000000000000000111111110001111111110000000000000000000000011111111111111110001111101111100000000000000000000000000000000000000000000000000011111110000000000000000000000000000000000000
00000000000000000000000000000000111111000000011111110000000000001110000000111111111110011110011111111111111111100000000000000000000000000000000000000000001100111111000000000000000000000000000000000000
00000000000000000000000000000000111100000000001111110000000000001110000001111111111110000111111111111111111111111111111000000000000000000000000000000000011110111111000000000000000000000000000000000000
00000000000000000000000000000000111000000000000111110000000000000000000111111111111111000011111111111111111111111111111111100011000000000000000000000000111111111111110000000000000000000000000000000000
00000000000000000000000000000001110000000000000011100000000000000000001111111111000001000111111111110011111111111111111111110111111100000000000000000111111111111111110000011100000000000000000000000000
00000000000000000000000000000001110000000000000111100000000000000000001111000000000000111111111111110001111111111111111111111111111111100000000000001111111111111111110000011100000000000000000000000000
00000000000000000000000000000001110000000000001111100000000000000000001110000000000000111111111111111001111111111111111111111111111111100000000000011111111101111111110000000000000000000000000000000000
00000000000000000000000000000001100011100000001111000000000000000000001100000000000000111111001111111111111111111111111111111111111100000000000000111111110000011111110000000000000000000000000000000000
00000000000000000000000000000001000011110000001110000000000000000000000000000000000000111110001111111111111111111111111111111111111000000000000001111111000000011111110000000000000000000000000000000000
00000000000000000000000000000000000001110000011110000000000000000000000000000000000001111110000111111111111111111111111111011111111000000000000011111110000000001111110000000000000000000000000000000000
00000000000000000000000000000000000000000000111110000000000000000000000000000000000001111110000111100000000001111110001110011111100000000000000111111100000000000000000000000000000000000000000000000000
00000000000000000000000000000000000000000001111111110000000000000000000000000000000011111100001111100000000000000000000011111111100000000000000111111000000000001000000100000000000000000000000000000000
00000000000000000000000000000000000000000011111111111001110000000000000000000010000011110000001111100000000000000000000011111111110000000000001111110000000000001110000000000000000000000000000000000000
00000000000000000000000000000000000000000111111111111100110000000001110000000010000111100000001111100000000000000000000111111111110000000000011111110000000000001111111000000000000000000000000000000000
00000000000000000000000000000000000000001111111111111100011000000000000000000000001111110000001111000000000000000000001111111100000000000000011111100000000000001111111000000000000000000000000000000000
00000000000000000000000000000000000000011111111111111100111000000000000000000000011111111110001100000000000000000000000011111000000000000000001111000000000000011101111000011100000000000000000000000000
00000000000000000000000000000000000000011111011111111100000000000000000000000001111111101000000000000000000000000000010011110000000000000000001111000000000000111101111000011100000000000000000000000000
00000000000000000000000000000000000000000000000010011110000000000000000000000011111110000000000000000000000000000000111111100000000000000000111111000000000011111111111000011100000000000000000000000000
00000000000000000000000000000000000000000000000000011110000000000000000000000111111100000000000000000000000000110001111111000000000000000000111111000000000111111111111000011100000000000000000000000000
00000000000000000000000000100000000000000000000001111110000000000000000000001111111000000000000000000000000001110001111111000000000000000001111110000000011111111111111000000000000000000000000000000000
00000000000000000000000000100000000000000000000000111110000000000000000000001111100000000000000000000000000011100011111110000000000000011100001110000000111111111111111000000000000000000000000000000000
00000000000000000000000000000000000000000000000000111110000000000011111110011111100111100000000000001110000000000000001100000000000000011110000000000011111111000011111000000000000000000000000000000000
00000000000000000000000000000000000000000000000000111100000111111111111111111111111111111111110000011110000000000000000000000111000111000011100000000111111100000011111000000000000000000000000000000000
00000000000000000000000000000000000000000000011100111100001111111111111111111111111111111111111111111110000000001110000000000111000111000011111110011111111000001111111000000000000000000000000000000000
00000000000000000000000000000000000000000000011100111110011111100011111111111000000000111111001111111111100000011111110000000000000000000011111111111111000000001110111000000000000000000000000000000000
00000000000000000000000000000000000000000000000000111111111110000000111111000000000000000000000111111111111100111111110000000000000000111111111111111100000000001100010000000000000000000000000000000000
00000000000000000000000000000000000000000000000001111111111000000001111110000000000000000000000000001111111111111111110000000000000000111111111111111000000000001000000000000000000000000000000000000000
00000000000000000000000000000000000000000000000000111111000000000011101110000000000000000000000000000001111111111111111110000000000001111111111111100000000000001100000000000000000000000000000000000000
00000000000000000000000000000000000000000000000001111100000000000011100100000000000000000000000000000000001111111111111111111111111111111111111110000000000000001111110000000000000000000000000000000000
00000000000000000000000000000000000000000000011111110000000000001111110000000010000000000000000000000000000111111111111111111111111011111111111110000000000000011111110000000000000000000000000000000000
00000000000000000000000000000000000111000000111110000000000000011111100000001110000000000000000000000000000011111110000011111111110001000011111110000000000000011111100000000000000000000000000000000000
00000000000000000000000000000000000111000001111100000000000000111111000000000000000000000000000000000000000111111100000000000010000000000001111110000000000000011111100000000000000000000000000000000000
00000000000000000000000000000000000000000011111100000000000011111110000000000000000111000000000000000000000111111000000000000000000000000001111100000000000000111111100000000000000000000000000000000000
00000000000000000000000000000000000001111111011000000000000111111100000000000000000111000000000000000000001111111000000000000000000000000011111110000000000111111111000000000000000000000000000000000000
00000000000000000000000000000000000011111111000000000000000001111000001110000110000000000000000000000000111111110000000000000000000000000011111110000000000111111111000000000000000000000000000000000000
00000000000000000000000000000000000111111111100000000000000000110001111111001110000000000000000000000000111111110000000000000000000000000011111110000000000011111110000000000000000000000000000000000000
00000000000000000000000000000000000111111111000000000000110001111111111111111100000001110000000000000000111111100000000000000000000000000001111111000000000011111100000000000000000000000000000000000000
00000000000000000000000000000000000111111100000000000001111011111111111111111100000001110000000000000000111111000000000000000111000000000001111110000000000111111000000001110000000000000000000000000000
00000000000000000000000000000000001111111000000000000011111111111111111100011000000000000000000000000000111111000000000000000111000000000001111111000000011111111000000001110000000000000000000000000000
00000000000000000000000000000000001111100000000000011111111111111110011000000000000000000000000000000000111111000000000000000000000000000001111111111011111111100000000000000000000000000000000000000000
00000000000000000000000000000000011111100000000000011111111111111000000000000000000000000000000000000001111110000000000000000000000000000001111111111111111111000000000000000000000000000000000000000000
00000000000000000000000000000000111111011100000000001111111110000000000000000000000000000000000000000001111110000000000000000000000000000000111111101111111111000000000000000000000000000000000000000000
00000000000000000000000000000001111110000000000000000110000000000000000000000000000000000000000000000011111100000000000000000000000000000000011111101111111110000000000000000000000000000000000000000000
00000000000000000000000000000000011100000000000000000000000000000000000000000000000000000000000000000010011100000000000000000000000000000000001111111111110000000000000000000000000000000000000000000000
00000000000000000000000000000000001000000000000000000000000000000000000000000000000000000000000000111111011100000000000111000000000001110000000011111110000000000000000000000000000000000000000000000000
00000000000000000000000000000000000000000000000000000000000000000000000000000000000000000000000000111111111100000000000111000000000001110000000000000001000000000000000000000000000000000000000000000000
00000000000000000000000000000000000000000000000000000000000000000000000000000000000000000000000000000111111000000000000000000000000000000000000000000001110000000000000000000000000000000000000000000000
00000000000000000000000000000000000000000000000000000000000000000000000000000000000000000000000000000111110000000000000000000000000000000000000000000000000000000000000000000000000000000000000000000000
00000000000000000000000000000000000000000000000000000000000000000000000000000000000000000000000000000111000000000000000000000000000000000000000000000000000000000000000000000000000000000000000000000000
00000000000000000000000000000000000000000000000000000000000000000000000000000000000000000000000000000000000000000000000000000000000000000000000000000000000000000000000000000000000000000000000000000000
00000000000000000000000000000000000000000000000000000000000000000000000000000000000000000000000000000000000000000000000000000000000000000000000000000000000000000000000000000000000000000000000000000000
00000000000000000000000000000000000000000000000000000000000000000000000000000000000000000000000000000000000000000000000000000000000000000000000000000000000000000000000000000000000000000000000000000000
00000000000000000000000000000000000000000000000000000000000000000000000000000000000000000000000000000000000000000000000000000000000000000000000000000000000000000000000000000000000000000000000000000000
