P1
200 70
00000000000000000000000000000000000000000000000000000000000000000000000000000000000000000000000000000000000000000000000000000000000000000000000000000000000000000000000000000000000000000000000000000000
00000000000000000000000000000000000000000000000000000000000000000000000000000000000000000000000000000000000000000000000000000000000000000000000000000000000000000000000000000000000000000000000000000000
00000000000000000000000000000000000000000000000000000000000000000000000000000000000000000000000000000000000000000000000000000000000000000000000000000000000000000000000000000000000000000000000000000000
00000000000000000000000000000000000000000000000000000000000000000000000000000000000000000000000000000000000000000000000000000000000000000000000000000000000000000000000000000000000000000000000000000000
00000000000000000000000000000000000000000000000000000000000000000000000000000000000000000000000000000000000000000000000000000000000000000000000000000000000000000000000000000000000000000000000000000000
00000000000000000000000000000000000000000000000000000000000000000000000000000000000000000000000000000000000000000100000000000000000000000000000000000000000000000000000000000000000000000000000000000000
00000000000000000000000000000000000000000000000000000000000000000000000000000000000000000000000000000000000000011111100000000000000000000000000000000000000000000000000000000000000000000000000000000000
00000000000000000000000000000000000000000000000000000000000000000000000000000000000000000000000000000000000000011111110000000000000000000000000000000000000000000000000000000000000000000000000000000000
00000000000000000000000000000000000000000000000000000000000000000000000000000000000000000000000000000000000000111111111110000000000000000000000000000000000000000000000000000000000000000000000000000000
00000000000000000000000000000000000000000000000000000000000000000000000000000000000000000000000000000000000000111111111111000000001110000000000000011000000000000000000000000000000000000000000000000000
00000000000000000000000000000000000000000000000000000000000000000000000000000000011100000000000000000000000000111111111111111000001110000000000000011000000000000000000000000000000000000000000000000000
00000000000000000000000000000000000000000000000000000000000000000000000000000000011100000000000000000000000000111111111111111100000000000000000000000000000000000000000000000000000000000000000000000000
00000000000000000000000000000000000000000000000011111110000000000000000000000000000000000000000000000000000001111111111111111111100000000000000000000000000000000000000000000000000000000000000000000000
00000000000000000000000001110000000000000000001111111111111110000000000000000000000000000000000000000000000011111111111111111111110000000000000000000000000000000011100000000000000000000000000000000000
00000000000000000000000001110000000000111001111111111110111100111110000000000000000000000000000000000000000011111111111110111111111110000000000000000000000001111111111111000000000000000000000000000000
00000000000000000000000000000000000000111111111111111110111100111111111100000000000000000000000000000000000001111111111110111111111111000000000000000000000011111111111111111000000000000000000000000000
00000000000000000000000000000000000000000111111111111111111110011111111110000000000000000000000000000000000000001111111111111111111111111000000000000000000111111111001111111100000000000000000000000000
00000000000000000000000000000000000000000011111111111111111111011111111111001100000000000000000000000000000000000111111111111111111111011110000000000000011111111110000111111110000000000000000000000000
00000000000000000000000000000000000000000011111111111111111111111111111111111111000000000000000000000000000000000000011111110111101111011111100000000000111111110000000011111110000000000000000000000000
00000000000000000000000000000000000000011111111111100111111101111111111111111111100000000000000000000000000000000000001111110111101111111111111100000000111111100000000001111110000000000000000000000000
00000000000000000000000000000000000000111111111110000000111101111111111111111111111000000000000000000000000000000000000001111111111111111111111110000000000111000000011101111110000000000000000000000000
00000000000000000000000000000000000001111111111100000000111111111111111111111111111100000000000000000000000000000000000000001111111111111111111111100000000110000000010001111110000000000000000000000000
00000000000000000000000000000000000001111111111000000000111111111111111110000001111110000000000000000000000000000000000000000110001111110111111111000001111110000000000000111110000000000000000000000000
00000000000000000000000000000000000011111111111000000000111111111111111110000000001111110000000000000000000000000000000000000000000111100011111111000000111110000000000001111110000000000000000000000000
00000000000000000000000000000000000011111111110000000000111111111111001111110000000111111000000000000000000000000000000000000011001111110001111100000001111110000000000001111110000000000000000000000000
00000000000000000000000000000000000000111111100000000001111111111110000001110000000011111110000000000000000000000000000000000111111111111011111000000011111100000000000001111110000000000000000000000000
00000000000000000000000000000000000000000100000000000011111111111100000000000000000001111111000000000000000000000000000000000111111111111111111000000011111000000000000011111110000000000000000000000000
00000000000000000000000000000000000000000000000000000111111111111000000000000000000000011111100000000000000000000000000000001111111111111111000000000011111000000000000011111100000000000000000000000000
00000000000000000000000111000000000000000000000000001111111111110000010000000000000000001111100000000000000000000000000001111111111111111110000000000011111100000000000011111100000000000000000000000000
00000000000000000000000111000000000000000000001111111111111111100000010000000000000000001111110000000000000000000000000011111111111111111100000000000001111110000000000011111000000000000000000000000000
00000000000000000000000000000000000000000000011111111111111110000000000000000000000000000100111000000000000000000000001111111111111111110000000000000001111110000000001111110000000000000000000000000000
00000000000000000000000000000000001000000011111111111111111000000000000000000000000000000000111100000000000000000000011111111111111111000000000000000000111111000000011111110000000000000000000000000000
00000000000000000000000000000000011100000011111001111111111000001110000000000000000000000011111100000000000000000000111111111111111110000000000000000000111111111110111111100000000000000000000000000000
00000000000000000000000000000000111110000001110000111111111100001110000000000000000000000011111110000000000000000000011101111111111100000000000000000000011101111111111110000000000000000000000000000000
00000000000000000000000000000000011111000001111000111111111110000000000000000000000000000011111111000000000000000100111101111111110000000000000000000000001101111111111110000000000000000000000000000000
00000000000000000000000000000000001111100001111111111111111111000000000000000000000000000001111111100000000000001111111111111111100000000000100000000000111111111111111100000000000000000000000000000000
00000000000000000000000000000000000111110000111111111111111111000000000000000000000000000001111111100000000000111111111111111111000000000000100000000011111111111111111100000000000000000000000000000000
00000000000000000000000000000000000111111000000001111111111111000000000000000000000000000001111111100000000001111111111111111110000000000000000000000111111111111111111110000000000000000000000000000000
00000000000000000000000000000000000111111100000000111111111111000000000000000000000000000011111111100000000011111111111111111000000000000000011111111111111111111111111111100000000000000000000000000000
00000000000000000000000000000000000111111111110000111111111111000000000000000000000000000011111111100000000011111111111111110000000000000001111111111110111111111111111111100000000000000000000000000000
00000000000000000000000000000000000000111111110000111111111110000000000000000000000000000011011111100000000111111111111111100000000000001111111111111110010000000000111111100000000000000000000000000000
00000000000000000000000000000000000000011111111000111111101110000000000000000000000000000111011111000000001111111111111111100000000011111111111111111111100000000000011111100000000000000000000000000000
00000000000000000000000000000000000000000111111111111111001110000000000000000000000000000111111111000000111111110111111111110000001001111111111000011111000000000000011111100000000000000000000000000000
00000000000000000000000000000000011000000011111111111100111100000000000000000000000000001111111111000001111111110111111001110001111100111001111000011111000000000000001111100000000000000000000000000000
00000000000000000000000001111111111100000000001111111000111100000000000000000000000000111111111110000011111111111111110000111111111111000000111000001111000000000000001111110000000000000000000000000000
00000000000000000000000111111111111110000000000011111101111000000000000000000000000111111111111110000111111111110010000000111111111100000000000000011111100000000000001111110000110000000000000000000000
00000000000000000000001111111111111110000000000011111111111000000000000000000000011111111111111111100111111111110000000100011111100000000000000000111111100000000000001111100000110000000000000000000000
00000000000000000000001111111111111100000000111111111111111000000000000000000011111111111111110011111111111111111101111110111110000000000000000000011111000000000000011111100000000000000000000000000000
00000000000000000000000111111111111100000011111111111111111000000000000000000111111111111001000001111111111111111111111111110000000000000000000000011111000000000000011111100000000000000000000000000000
00000000000000000000000111111111111111111111111111111111111100000000000000000111111111110000000001111111111111011111111111000000000000000000000000011111000000000000011111100000000000000000000000000000
00000000000000000000001111111111110011111111101111111111111111000000000111001111111111000000000001111111111110001111111110000000000000000000000000001111000000000000011111000000000000000000000000000000
00000000000000000000001111111111100000111111101111111111111110011000001111111111111110000000000011111111111111000100001110000000000000000111000000001111000000000000011111000000000000000000000000000000
00000000000000000000001111111111001100111111111111000000001100011111111111111111100000000000011111111111111111000000001110000000000000000111000000000111000000000000111111000000000000000000000000000000
00000000000000000000011111011111011111111110111110000000000000111111111111111111100000000000111111111111111100001110000000000000000000000000000000001111110000000000111111000000000000000000000000000000
00000000000000000000001111011111111111111110111100000000000000011111111111111111111111111111111111111111111000001000000000000000000000000000000000000111110000000001111110000000000000000000000000000000
00000000000000000000001111111111111111111111111000000000000000000010011111111111111011111111111111111111110000000000000000000000000000000000000000000011111000001111111100000000000000000000000000000000
00000000000000000000000111111111111100111111000000000000000000000000001111111111111011111100010000000000000000000000000000000000000000000000000000000011111111111111111000011100000000000000000000000000
00000000000000000000000011111111111000011000000000001110000000000000000011111111111111100000000000000000000000000000000000000000000000000000000000000000111111111111110000011100000000000000000000000000
00000000000000000000000001111111111000000000000000001110000000000000000000000111111111000000000000000000000000000000000000000000000000000000000000000000011111111111000000000000000000000000000000000000
00000000000000000000000000001100000001000000000000000000000000000000000000000011111111000000000000000000000000000000000000000000000000000000000000000000000100001100000000000000000000000000000000000000
00000000000000000000000000000000000000000000000000000000000000000000000000000001111111110000001110000000000000000000000000000000000000000000000000000000000000000000000000000000000000000000000000000000
00000000000000000000000000000000000000000000000000000000000000000000000000000000111111111100001111111000000000000000000000000000000000000111000000000000000000000000000000000000000000000000000000000000
00000000000000000000000000000000000000000000000000000000000000000000000000000000001111111110001111111000000000000000000000000000000000000111000000000000000000000000000000000000000000000000000000000000
00000000000000000000000000000000000000000000000000000000000000000000000000000000000111111111111110000000000000000000000000000000000000000000000000000000000000000000000000000000000000000000000000000000
00000000000000000000000000000000000000000000000000000000000000000000000000000000000001111111111110000000000000000000000000000000000000000000000000000000000000000000000000000000000000000000000000000000
00000000000000000000000000000000000000000000000000000000000000000000000000000000000000011111111110000000000000000000000000000000000000000000000000000000000000000000000000000000000000000000000000000000
00000000000000000000000000000000000000000000000000000000000000000000000000000000000000001111111110000000000000000000000000000000000000000000000000000000000000000000000000000000000000000000000000000000
00000000000000000000000000000000000000000000000000000000000000000000000000000000000000000011111110000000000000000000000000000000000000000000000000000000000000000000000000000000000000000000000000000000
00000000000000000000000000000000000000000000000000000000000000000000000000000000000000000000111110000000000000000000000000000000000000000000000000000000000000000000000000000000000000000000000000000000
00000000000000000000000000000000000000000000000000000000000000000000000000000000000000000000001110000000000000000000000000000000000000000000000000000000000000000000000000000000000000000000000000000000
