P1
200 70
00000000000000000000000000000000000000000000000000000000000000000000000000000000000000000000000000000000000000000000000000000000000000000000000000000000000000000000000000000000000000000000000000000000
00000000000000000000000000000000000000000000000000000000000000000000000000000000000000000000000000000000000000000000000000000000000000000000000000000000000000000000000000000000000000000000000000000000
00000000000000000000000000000000000000000000000000000000000000000000000000000000000000000000000000000000000000000000000000000000000000000000000000000000000000000000000000000000000000000000000000000000
00000000000000000000000000000000000000000000000000000000000000000000000000000000000000000000000000000000000000000000000000000000000000000000000000000000000000000000000000000000000000000000000000000000
00000000000000000000000000000000000000000000000000000000000000000000000000000000000000000000000000000000000000000000000000000000000000000000000000000000000000000000000000000000000000000000000000000000
00000000000000000000000000000000000000000000000000000000000000000000000000000000000000000000000000000000000000000000000000000000000000000000000000000000000000000000000000000000000000000000000000000000
00000000000000000000000000000000000000000000000000000000000000000000000000000000000000000000000000000000000000000000000000000000000000000000000000000000000000000000000000000000000000000000000000000000
00000000000000000000000000000000000000000000000000000000000000001110000000000000000000000000000000000000000000000000000001000000000000000000000000000000000000001110000000000000000000000000000000000000
00000000000000000000000000010000000000000001110000000000000000001000000000000000000000000000000000000000000000000000000001000000000000000000000000000000000000001110000000000000000000000000000000000000
00000000000000000000000000010000000000000001110000000000000000000000000000000000000000000000000000000000000000000000000000000000000000000000000000000000000000000000000000000000000000000000000000000000
00000000000000000000000000000111000000000000000000000000000000000000000000000000000000000000000000000001110000011100000000000000000000000000000000000000000000000000000000000000000000000000000000000000
00000000000000000000000000000001000000000000000000000111000000000000000000000000000000000000000000000001110000011000011111100000000000000000000000000000011100000000000000000001110000000000000000000000
00000000000000000000000000000000000000000000000000000111000000000000000000000000000000000000000000000000111000111001111111111000000000000000000000000000111110000000000000000001110000000000000000000000
00000000000000000000000000000000000000000000000000000000000000000000000000111000000000000000000000000000111011111111111111111110000000000000000000000000111110000000000000000000000000000000000000000000
00000000000000000000000000000000000000000000000000000000000000000000000000111000000000000000000000000000011111111111111111111111000000000011100000000001111110000000000000000000000000000000000000000000
00000000000000000000000000000000000000000000000000000000001110000000000001111001111000000000000000000000001111111111111111111111100000000011100000000001111110000000000000000000000000000000000000000000
00000000000000000000000000000000000000000000000000000011111111111000000111111111111111100000000000000000011111111111111111111100000011000000000000001000111100000000000000000000000000000000000000000000
00000000000000000000000000000000000000000000000000111111111111111100011111111111111111110000000000000000111111111111111111111100000111000000000000001000111100000000000000000000000000000000000000000000
00000000000000000000000000000000000000000000000001111111111011111110001111111111111111111000001100000011111111111001111111111111000000000000000000000001111100000000000000000000000000000000000000000000
00000000000000000000000000000000000000000000000111110111111011111111011111100000001111111000001110000011111111110000001111111111000000000000000000000011111100000000000000000000000000000000000000000000
00000000000000000000000000000000000000000000011111110111111111111111111110000000000111100100000000000111111111000000001111111110000000000000000000000111111100000000000000000000000000000000000000000000
00000000000000000000000000000000000000001111111111111111111111111111110011000000000011101100000000001111111110000000001111111110000000000000000000000111111100000000000000000000000000000000000000000000
00000000000000000000000000000000000000011101111111111111111111111111110111111100000011111110000000001111111100000000001111111100000000000000000001000011111100000000000000000000000000000000000000000000
00000000000000000000000000000000000111111000111111111111111111111111111111111111111111111110000000011111111100000000001111111100000000000000000001100111111100000000000000000000000000000000000000000000
00000000000000000000000000000000001111111001111111110000001110111111111001111111111111111110000000011111110000000000000011111000000000000000000011111111111000000000000000000000000000000000000000000000
00000000000000000000000000000000110011100001111111110000000100011111110000000011111111111111111000111111110000000000010001110000000000000000001111001111111000000000000000000000000000000000000000000000
00000000000000000000000000000000000001000001111111100000000110111110000000000000111111111111111111111111111000000000000110000000000111000000011110010011111111000000000000000000000000000000000000000000
00000000000000000000000000000000000100000011111111000000000111111110000000000000000111111111111111111111111100000011001111000000000111000000111100111011111011000000000000000000000000000000000000000000
00000000000000000000000000000000001000000011111111000000000111111100000000000000000111111000011111111111111111111111111111111110000111000011111110111111111001000000000000000000000000000000000000000000
00000000000000000000000000000000000000000011000000000000001110011100000000000000000111110000000001111111111111111111111111111111111111111111111111111111111011100000000000000000000000000000000000000000
00000000000000000000000000000000000000000000000000000000001110000000000000000000000111100000000000011111111111111111111111110111111111111111111111110111111111100000000000000000000000000000000000000000
00000000000000000000000000000000000000000000000000000000011111100000000000000111001111100000000000000111111111111111111111100011111111111111101111110111111111100000000000000000000000000000000000000000
00000000000000000000000000000000000000000000000000000011111111100000000000000111001111000000000000000011111111111111111111100000000011111111000111111111111111100000000000000000000000000000000000000000
00000000000000000000000000000000000011100000000000001111111111100000000000000000011111000000000000000000011111111111111111000000000001110000000011111111111111110011000000000000000000000000000000000000
00000000000000000000000000000000000011100000000000011111111111000000000000000000000110000000000000000010011111111111111111000000000010000000000001111111111001111111110000000000000000000000000000000000
00000000000000000000000000000000000000000000000000111111111111100000000000000000000010000000000000000111111111011111111111000000000110000000000001111111110000001111111100000000000000000000000000000000
00000000000000000000000000000000000000000000000000111111111111110000000000000000111100000000000000001111111100000111111111100000001111000000000001101111100000000011111100000000000000000000000000000000
00000000000000000000000000000000000000000000000000111111111111111000000000000001111100000000000000011111111000111111111111100000011100110000000001101111100000000000111000000000000000000000000000000000
00000000000000000000000000000000000000000000000000111111111111111100000000000011111110000000000000111111110000111111111111000000111101111111000001111111100000000000001000000000000000000000000000000000
00000000000000000000000011000000000000000000000000011111111111111100000000000011100111000000000001111111100000000111111111000000111111111111111110011111100000000000000000000000000000000000000000000000
00000000000000000000000000000000000000000000000000000000111111111100000000000111100000000000000001111111100000000111111110000001111111111111111110011111100000000000000000000000000000000000000000000000
00000000000000000000000000000000000000000000000000000000001111111100000000000111000000000000000001111111000000000111111110000001110111111111111001111111111000000000000000000000000000000000000000000000
00000000000000000000000000000000000000000000000000000000001111111100000000001110000000000000000011111111000000000111111110000000000011111111111011111111111110000000000000000000000000000000000000000000
00000000000000000000000000000000011000000000000000000000001111111100000000011100000000000000000011111110000000000011111100000000000000111111111111111111110010000000000000000000000000000000000000000000
00000000000000000000000000000000011100000000000100000000001111111100000000111000000000000000000011111100000000000111111101110000000000000111111111111111110000000000000000000000000000000000000000000000
00000000000000000000000000000000000000000000111110000000001111111100000001110000000000000000000011111100000000001111111000110000000000000000011111111111111100000000000000000000000000000000000000000000
00000000000000000000000000000000000000000011111110000000001111111000000001110000001110000000000011111110000000011111110000000000000000000000011111111111111000000000000000000000000000000000000000000000
00000000000000000000000000000000000000000011111100000000011111000000000011100000001111110000000111111001000001111111100000000000000000000000011111111111111000000000000000000000000000000000000000000000
00000000000000000000000000000000000000000011111100100000111111000000000011000000011111110000001111111011111111111111100000000000000000010000011111111111111100000000000000000000000000000000000000000000
00000000000000000000000000000000000000000011111111111011001111110000000111000011111111110000001111111111111111111111000000000000000000010000011111111110000000000000000000000000000000000000000000000000
00000000000000000000000000000000000000000001111111111111101111110000001111111111111111110000000001111111111111111110000000000000000000000000111111111000000000000000000000000000000000000000000000000000
00000000000000000000000000000000000000000000011111111111111111100000001111111111111111100000000001111111111111111100000000000000000000000000111111111000000000000000000000000000000111000000000000000000
00000000000000000000000000000000000000000000001111111111111111000000011111111111111000000000000011111111111111111000000000000000000000000000111111111100000000000000000000000000000111000000000000000000
00000000000000000000000000000000000000000000011111111111111111111000011111111111100000000000000011111111111111110000000000000000000000000001111111111100000000000000000000000000000000000000000000000000
00000000000000000000000000000000000000000000001111111111111100111000011111111000000000000000000001111111111111000000000000000000001110000000111111011100000000000000000000000000000000000000000000000000
00000000000000000000000000000000000000000000000111111111110000000000011111100000000000000000000000111111111100000000000000000000001110000000000010001100000000000000000000000000000000000000000000000000
00000000000000000000000000000000000000000000000000000111000000000000011100000000000000000000000000011111111000000000000000000000000000000000000000011100000000000000000000000000000000000000000000000000
00000000000000000000000000000000000000000000000000000000000000000000000000000000000000000000000000000000000000000000000000000000000000000000000000000000000000000000000000000000000000000000000000000000
00000000000000000000000000000000000000000000000000000000111000000000000000000000000000000000000000000000000000000000000000000000000000000000000000000000000000000000000000000000000000000000000000000000
00000000000000000000000000000000000000000000000000000000000000000000000000000000000000000000000000000000000001110000000000000000000000000000000000000000000000000000000000000000000000000000000000000000
00000000000000000000000000000000000000000000000000000000000000000000000000000000000000000000000000000000000001110000000000000000000000000000000000000000000000000000000000000000000000000000000000000000
00000000000000000000000111000000000000000000000000000000000000000000000000000000000000000000000000000000000000000000000000000000000000000000000000000000000000000000000000000000011100000000000000000000
00000000000000000000000111000000000000000000000000000000000000000000000000000000000000000000000000000000000000000000000000000000000000000000000000000000000000000000000000000000011100000000000000000000
00000000000000000000000000000000000000000000000000000000000000000000000000000000000000000000000000000000000000000000000000000000000000000000000000000000000000000000000000000000000000000000000000000000
00000000000000000000000000000000000000000000000000000000000000000000000000000000000000000000000000000000000000000000000000000000000000000000000000000000000000000000000000000000000000000000000000000000
00000000000000000000000000000000000000000000000000000000000000000000000000000000000000000000000000000000000000000000000000000000000000000000000000000000000000000000000000000000000000000000000000000000
00000000000000000000000000000000000000000000000000000000000000000000000000000000000000000000000000000000000000000000000000000000000000000000000000000000000000000000000000000000000000000000000000000000
00000000000000000000000000000000000000000000000000000000000000000000000000000000000000000000000000000000000000000000000000000000000000000000000000000000000000000000000000000000000000000000000000000000
00000000000000000000000000000000000000000000000000000000000000000000000000000000000000000000000000000000000000000000000000000000000000000000000000000000000000000000000000000000000000000000000000000000
00000000000000000000000000000000000000000000000000000000000000000000000000000000000000000000000000000000000000000000000000000000000000000000000000000000000000000000000000000000000000000000000000000000
