P1
200 70
00000000000000000000000000000000000000000000000000000000000000000000000000000000000000000000000000000000000000000000000000000000000000000000000000000000000000000000000000000000000000000000000000000000
00000000000000000000000000000000000000000000000000000000000000000000000000000000000000000000000000000000000000000000000000000000000000000000000000000000000000000000000000000000000000000000000000000000
00000000000000000000000000000000000000000000000000000000000000000000000000000000000000000000000000000000000000000000000000000000000000000000000000000000000000000000000000000000000000000000000000000000
00000000000000000000000000000000000000000000000000000000000000000000000000000000000000000000000000000000000000000000000000000000000000000000000000000000000000000000000000000000000000000000000000000000
00000000000000000000000000000000000000000000000000000000000000000000000000000000000000000000000000000000000000000000000000000000000000000000000000000000000000000000000000000000000000000000000000000000
00000000000000000000000000000000000000000000000000000000000000000000000000000000000000000000000000000000000000000000000000000000000000000000000000000000000000000000000000000000000000000000000000000000
00000000000000000000000000000000000000000000000000000000000000000000000000000000000000000000000000000000000000000000000000000000000000000000000000000000000000000000000000000000000000000000000000000000
00000000000000000000000000000000000000000000000000000000000000000000000000000000000000000000000000000000000000000000000000000000000000001110000000000000000000000000000000000000000000000000000000000000
00000000000000000000000000000000000000000000000000000000000111111000000000000000000000000000000000000000000000000000000000000000000011101110000000000000000000000000000000000000000000000000000000000000
00000000000000000000000000000000000000000000000000000000111111111100000000000000000000000000000000000000000000000000000000000000000000000000000000000000000000000000000000011100000000000000000000000000
00000000000000000000000000000000000000000000000000000001111111111110000000000000000000000000000000000000000000000000000000000000000000000000000000000000000000000000011100011100000000000000000000000000
00000000000000000000000000000000000000000000000000000011111111111110000000000000000000000000000000000000000000000000000000000000000000000000000000000000000000000000011100000000000000000000000000000000
00000000000000000000000000000000000000000000000000001111111111111110000000000000000000000000000000000000000000000000000000000000000000000000000000000000000000000000000000000000000000000000000000000000
00000000000000000000000000000000000000000000000000011111111111111110000000000000000000000000000000000000000000000000000000000000000000000000000000000000000000000000000000000000000000000000000000000000
00000000000000000000000000000000000000000000000011111111111111111111000000000000000000000000011111100000000001111111111111000111000000000000000000000000000000000000000000000000000000000000000000000000
00000000000000000000000000000000000000000000001111111111111111111111000000000000000000000000011111111000000111111111111111111111100000000000000000000000000000000000000000000000000000000000000000000000
00000000000000000000000000000000000000000000001111111111100011111110000000000000000000000000001111111100000111111111111111111111111000000000000000000000000000000000000000000000000000000000000000000000
00000000000000000000000000000000000000000000011111111111000011100110000000000000000000001000001111111110000111101111000111111111111100000000000000000000000000000000000000000000000000000000000000000000
00000000000000000000000000000000000000111000111101111111000000000010000000000000000000111111111111001111000011101110000011111111110011000000000000000000000000011111111110000000000000000000000000000000
00000000000000000000000000000000000000111001111000100111001100011110000000000000000001111111000110001111000011111100000000011111110111100000000000000000000111111111111111000000000000000000000000000000
00000000000000000000000000000000000000000011100111110000001111111110000000000000000111111100000001111111000011111100000000001111111111110000000000000001111111111111111111100000000000000000000000000000
00000000000000000000000000000000000000000111101110111000000011111100000000000000011111110000000000111110000000011000000000000111111111111000000000001111111111111111111111110000000000000000000000000000
00000000000000000000000000000000000000000111111100111000000001111100000000000000111111110000000000100110000000011000000000000011110011111000000000011111111111111111111111110000000000000000000000000000
00000000000000000000000000000000000000000111111000000000000011111100000000000011111110000000000000000111000000011000000000000011110001110000000001111111111100000000011111110000000000000000000000000000
00000000000000000000000000000000000000000111110000000000000011111000000000000011111110000000000000011111000000000000000000000001111001110000000011111111100000000000001111110000000000000000000000000000
00000000000000000000000000000000000000000111100000000000000111111000000000000000011110000000000000011111000000000000000000000001111111111100000111111110000000000011000110010000000000000000000000000000
00000000000000000000000000000000000000000111000000000000001111110000000000000000011100000000000000011111000000000000000000000001111111111100001111111100000000000001101110000000000000000000000000000000
00000000000000000000000000000000000000000010000000000000001110000000000000000000011100000000000000011111000000000000000000000010011111111100001111111000000000000011111111000000000000000000000000000000
00000000000000000000000000000000000000000000000000000000011100000000000000000000001110000000000000111111000000000000000000000011011111111100001111111000000000011111111111110000000000000000000000000000
00000000000000000000000000000000000000000000000000000000111110000000000000000000000000000000000000111111000000000000000000000011111111111100001111110000000000111110011101110000000000000000000000000000
00000000000000000000000000010000000000000000000000000001111111000000000000000000100000000000000001111110000000000000000000000111111111111111000111111000000011111100011101100000000000000000000000000000
00000000000000000000000000010000000000111000000000000011111111110000000000000000100000000000000001111100000000000000000000000111111111111111000111111100000111111100111111100000000000000000000000000000
00000000000000000000000000000000000001111100000000000111111111111000000000000000000000000000000011111100000000000000000011111111111111111000000111111110011111111111111111000000000000000000000000000000
00000000000000000000000000000000011111111111111000011111111111111100000000000000000000000000000111111000000000000000000100111111111111110000000011111111111111111111111111000000000000000000000000000000
00000000000000000000000000000000011111111111111111111111111111111100000000000000000000000000111111110000000000000000000000111111111111100000000111111111111000001111111111110000000000000000000000000000
00000000000000000000000000000000011111111111111111111111100111111110000000000000000000000011111111100000000000000000000011111111111111100000000111111111110000011111111111110000000000000000000000000000
00000000000000000000000000000000011000111111111111111110000111111111000000000000000000001111111111111000000011100000000011111110111111100000000000111111110001111111111111000000000000000000000000000000
00000000000000000000011100000000000000001111100111111100011111111111110001000000000000001111111111111100000011000000000000111110111111000000000001111111111001111111111110000000000000000000000000000000
00000000000000000000011100000000000000000111000011111100000111111111110011111111100011100011111111111110000000000000000000000111111111000000001111111111111000011111111110000000000000000000000000000000
00000000000000000000000000000000000000000000000011110000000011111111001111111111111111110011110011111111110000000000000000000011111111110001111111111111000000000001111111000000000000000000000000000000
00000000000000000000000000000000000000000000000001000000000001111110000001111111110111111111111001111111111000000000000000000000111111111111111111111110000000000000111111100000000000000000000000000000
00000000000000000000000000000000000000000000000000000000000001111110000000000000100011111111111111111111111100000000000000000000011111111110011111111100000000000000001111110000000000000000000000000000
00000000000000000000000000000000000000000000000000000000000001111110000000000000000000111111111111111111111111111111111111111000111111101100000111111000000000000000001111110000000000000000000000000000
00000000000000000000000000000000000000000000000000000000000001111100000000000000000000000000011111111111111111111111111111111111111111101100000011111100000000000000000001111000000000000000000000000000
00000000000000000000000000000000000000000000000000000000000001111100000000000000000000000000000000011111111111111111111011111111111111111100000001111100000000000000000001110000000000000000000000000000
00000000000000000000000000000000000000000000000000000000000011111100000000000000000000000000000000000111111100111111110001111111111111111100000100111100000000000000000011110000000000000000000000000000
00000000000000000000000000000000000000000000000000000000000011111100000000000000000000000000000000000111111100011111000000000000111111111000000000111100000000000000000011111000000000000000000000000000
00000000000000000000000000000000000000000000011100000000000011111100000000000000000000000000000000000111111100011111000000000000111111111000000001111110000000000000000011111000000000000000000000000000
00000000000000000000000000000000000000000000011100000000000011111000000000000000000000000000000000000111111110001111000000000000111111111100000001111110000000000000000111111000000000000000000000000000
00000000000000000000000111000000000000000000000000000000000111111000000001110000000000000000000000000111111110001111000000000000111111111100000000111110000000000000000111111000000000000000000000000000
00000000000000000000000111000000000000000000000000000000001111110000000001111111000000000000000000000111111110001110000000000000111111111100000000111110000000000000001111111000000000000000000000000000
00000000000000000000000000000000000000000000000000000000001111110000000000001111110000000000000000000111111110001111000000000000111111111100000000011100111100000000011111111000000000000000000000000000
00000000000000000000000001110000000000000000000000000000011110000000000000000111111000000001110000001111111110001111111000000001110011111100000000001100111111000000001111111000000000000000000000000000
00000000000000000000000001100000000000000000000000000000111110000000000000000111111000000001110000001111111110001111111100000011100011111000000000001111001111111110011111111000000000000000000000000000
00000000000000000000000000000000000000000000000000000011101111000000000000000111111000000000000111011111111100000001110011111111100111111000000000000000000111111111111111110000000000000000000000000000
00000000000000000000000000000000000000000000000000000111101110000000000000000111111100000000001111111111111100000000100001111111111111111000000000000000001111111111111111110000000000000000000000000000
00000000000000000000000000000000000000000000000000111111111100000000000000001111111110000000011110111111111000000000010001111111111111110000000000000000000001111111111111100000000000000000000000000000
00000000000000000000000000000000000000000000011111111111111000000000000000001111111111100000111110111111110000000000000011111111111111110000000000000000000000001111111111000011100000000000000000000000
00000000000000000000000000000000000000000000111111111111110000000000000000000111111111111111111111111111100000000000000001111111111111100000000000000000000000000001111100000010000000000000000000000000
00000000000000000000000000000000000000000000111111111111100000000000111000000000111111111111111111111000000000000000000000000000000000000000000000000000000000000000000000000000000000000000000000000000
00000000000000000000000000000000000000000000011111100110011100000000111000000000001111111111111111110000000000000000000000000000000000000000000000000000000000000000000000000000000000000000000000000000
00000000000000000000000000000000000000000000011111000000011100000000000000000000000011111100011111000000000000000000000000000000000000000000000000000000000000000000000000000000000000000000000000000000
00000000000000000000000000000000000000000000001111100000000000000000000000000000000000000000000000000000000000000000000000000000000000000000000000000000000000000000000000000000000000000000000000000000
00000000000000000000000000000000000000000000001110000000000000000000000000000000000000000000000000000000000000000000000000000000000000000000000000000000000000000000000000000000000000000000000000000000
00000000000000000000000000000000000000000000000000000000000000000000000000000000000000000000000000000000000000000000000000000000000000000000000000000000000000000000000000000000000000000000000000000000
00000000000000000000000000000000000000000000000000000000000000000000000000000000000000000000000000000000000000000000000000000000000000000000000000000000000000000000000000000000000000000000000000000000
00000000000000000000000000000000000000000000000000000000000000000000000000000000000000000000000000000000000000000000000000000000000000000000000000000000000000000000000000000000000000000000000000000000
00000000000000000000000000000000000000000000000000000000000000000000000000000000000000000000000000000000000000000000000000000000000000000000000000000000000000000000000000000000000000000000000000000000
00000000000000000000000000000000000000000000000000000000000000000000000000000000000000000000000000000000000000000000000000000000000000000000000000000000000000000000000000000000000000000000000000000000
00000000000000000000000000000000000000000000000000000000000000000000000000000000000000000000000000000000000000000000000000000000000000000000000000000000000000000000000000000000000000000000000000000000
