P1
200 70
00000000000000000000000000000000001110000000000000000000000000000000000000000000000000000000000000000000000000000000000000000000000000000000000000000000000000000000000000000000000000000000000000000000
00000000000000000000000000000000111110000000000000000000000000000000000000000000000000000000000000000000000000000000000000000000000000000000000000000000000000000000000000000000000000000000000000000000
00000000000000000000000000000000011111000000000000000000000000000000000000000000000000000000000000000000000000000000000000000000000000000000000000000000000000000000000000000000000000000000000000000000
00000000000000000000000000000000011111000000000000000000000000000000000000000000000000000000000000000000000000000000000000000000000000000000000000000000000000000000000000000000000000000000000000000000
00000000000000000000000000000000001111100000000000000000000000000000000000000000000000000000000000000000000000000000000000000000000000000000000000000000000000000000000000000000000000000000000000000000
00000000000000000000000000000000001111110000000000000000000000000000000000000000000000000000000000000000000000000000000000000000000000000000000000000000000000000000000000000000000000000000000000000000
00000000000000000000000000000000000111110000000000000000000000000000000000000000000000000000000000000000000000000000000000000000000000000000000000000000000000000000000000000000000000000000000000000000
00000000000000000000000000000000000010001000000000000000000000000000000000000000000000000000000000000000000000000000000000000000000000000000000000000000000000000000000000000000000000000000000000000000
00000000000000000000000000000000000000011000000000000000000000000000000000000000000000000000000000000000000000000000000000000000000000000000000000000000000000000001000000000000000000000000000000000000
00000000000000000000000000000000000000111100000000000000000000000000000000000000111000000000000000000000000000000000000000000000000000000000000000001110000000000001000000000000000000000000000000000000
00000000000000000000000000000000000001111111000000000000000011100000000000000000111000000000000000000000000000000000000000000000111000000000000000001110000000000000000000000000000000000000000000000000
00000000000000000000000000000000000000111111100000011100000011100000000000000000000000000000000000000000000000000000000000000000111000000000000000000000000000000000000000000000000000000000000000000000
00000000000000000000000000000000000000011111110001111110000000000000000000000000000000000000111000000000000000000000000000000000000000000000000000000000000000000000001000000000000000000000000000000000
00000000000000000000000000000000000000000011111111111111111110000000000000000000000000000000011000000000000000000000000000000000000000000001111110000000000000000000110000000000000000000000000000000000
00000000000000000000000000000000000000000011111111111111111111000000000000000000000000000000000000000000000000000000000000000000000000000011111110000000000000000000111000000000000000000000000000000000
00000000000000000000000000000000000000000111111111111111111111111000000000000000000000000001000100000000000000000000000000000000000000000111001100000000000011100001111100000000000000000000000000000000
00000000000000000000000000000000000000001111111111111111111111111100000000000000000000000011111000000000000000000000000000000000000000001111000000000000000011100001111100000000000000000000000000000000
00000000000000000000000000001110000000001111111111011111110111011110000000000000000000000011111100001111110000000000000000000000000000011111110001000000000000000001111100000000000000000000000000000000
00000000000000000000000000001110000000001001111110011111110111011110000000000000000000000111111111111111111000000000000000000000000000111111111001110000000000000011111100000000000000000000000000000000
00000000000000000000000000000000000000000000111111111111111111111111000000000000000000000111001111111111111110000000000000000000000011111111110000000000000000000011111100000000000000000000000000000000
00000000000000000000000000000000000000000000011111100111111111111111000000000000000000001111000000000001111111000000000000000000000111100111110000000000000000000011111110000000000000000000000000000000
00000000000000000000000000000000000000000000011111110011111111111110000000000000000000001111100000000000111111100000000011100000011111000000100000000000000000000111111110000000000000000000000000000000
00000000000000000000000000110000000000000000001111111000111111111111000000000000000000001111000000000000011111111000000011100000111100111000000000000000000000011111111110000000011100000000000000000000
00000000000000000000000000000000000000000000000111111100111111111111100000000000000000001110000000000000001111111000000000000001111100111111000000000000000011111111110110000000011100000000000000000000
00000000000000000000000000000000000000000000000001111100011111111111100000000000000000000100001110000000001111111100000000000010011111111111000000000000011111111111100110000000000000000000000000000000
00000000000000000000000000000000000000000000000000111110011111111111100000000000000000000000001110000000001111111100000000000111001111111110000000000111111111111111111110000001110000000000000000000000
00000000000000000000000000000000000000000000000000011111100111111111100000000000110000000000000000000000001111111000000000001111100011111100000001111111111110011111111110000000110000000000000000000000
00000000000000000000000000000000000000000000000000001111110111111111100000000000111000000000000000000000001111111000000000001111000111111100001111111001110000001111111110000000000000000000000000000000
00000000000000000000000000000000000000000000000000000111111111111111100000000000000000000000000000000000001111111000000000011110000111111000011111110000000000011111111110000000000000000000000000000000
00000000000000000000000000000000000000000000000000000011111111111111100000000000000000000000000000000000011111110000000001111111001111111100111111100000000000011111011110000000000000000000000000000000
00000000000000000000000000000000000000000000011000000001111111111111100000000000000000000000000000000001111111110000000111111111111111111111111100000000000000011111011110000000000000000000000000000000
00000000000000000000000000000000000000000000111111111111111011111111000000000000000000000000000000000011111111100000001111111111111111111111100000000000000000011110011110000000000000000000000000000000
00000000000000000000000000000000000000011111111111111111111011111111100000000000000000000000000000001111111111101111111111111111111111100000000000000000000000111100011110000000000000000000000000000000
00000000000000000000000000000000000000011111111111111111111111111111111000000000000000000000100000111111111111111111111111111111111011100000000000000000000001111100011111000000000000000000000000000000
00000000000000000000000000000000000000001111111110111111111111111111111111100000000000000011111111111111111111111111101110000000111001000000000000000000000001111100011111000000000000000000000000000000
00000000000000000000000000000001110000000011111110111111111111111111111111111100011111111111111111111111111111111111000100000000111110000000000000000000000011111000011011000000000000000000000000000000
00000000000000000000000000000001110000000011111111111111111111111110011101111110111111111111111111111111111000001111100000000000000000000000000000000000000011111000010001000000000000000000000000000000
00000000000000000000000000000000000000000111111111101111111111111100001000111111111111111111111111111111000000001111000000000000000000000000011100000000000011110000011110000000000000000000000000000000
00000000000000000000000000000000000000000001111111100111111110000000000000000000111111111111110001111110000000001111000110000000011100000000011100000000000111110000001110000000000000000000000000000000
00000000000000000000000000001110000000000000001111110011111111000100000000000000000000000000000000111111000000001100111111100011111100000000000000000000001111100000001111000000000000000000000000000000
00000000000000000000000000001110000000000000000011110011111111111100000000000000000000000000000000111111100000000000111111111111111100000000000000000000001111100000001111000000000000000000000000000000
00000000000000000000000000001110000000000000000000001111111111110000000000000000000000000000000000011111110000000000011111111111111100000000000000000000011111000000010011000000000000000000000000000000
00000000000000000000000000000000000000000000000000001111111111110000000000000000000000000000000000011111110000000000000011111111111111100000000000000000011100000000010011000000000000000000000000000000
00000000000000000000000000000000000000000000000000001111111111110000000000000000000000000000000000011111110000000000000000001111111111110000000000000000111100000000001111000000011100000000000000000000
00000000000000000000000000000010000000000000000000001111111111110000000000000000000000000000000000111111110000000000000000001111111111110000000000000000111110000000000111100000011100000000000000000000
00000000000000000000000000000111000000000000000000000111111110111000000000000000000000011000000011111111100000000000000000011111001100000000000000000000111100000011000111111000000000000000000000000000
00000000000000000000000000000111110000000000000000000111111110111000000000000000000000111000000011001111100000000000000000011110000000000000000000000000111001111111111111111110000000000000000000000000
00000000000000000000000000000111111000000000000000000111111111111000000000000010000000000000000000001111100000000000000000011110000000000000000000000000111011111111111111111110000000000000000000000000
00000000000000000000000000000111111100000000000000000110111101111000000000000111000000000001000001111111000000000000011100111000000000000011100000000001111111111111111111111110000000000000000000000000
00000000000000000000000000001111111111100000000000001110111101111000000000001111000000000001000001111110000000000000011111111000000000000011100000000001111111111111111111111110000000000000000000000000
00000000000000000000000000001101111111111000000000001111111111111000000000011110000000000000000011111110000000000000011111111110000000000011100000000000111111111111111111111110000000000000000000000000
00000000000000000000000000011101111111111100000000011111111111111000000000011110000000000000000011111100000000111000001111111111100000000011100000000000000000000000011111100000011100000000000000000000
00000000000000000000000000011111111111111111110001111111111111111000000000011110000000000000000100111100000000111000000001111111110000000000000000000000000000000000001111100000011100000000000000000000
00000000000000000000000011101111111111111111111111111111111111111000000000011111000000000000011110111000000000000000000000011111111000000000000000000000000000000000001111100000000000000000000000000000
00000000000000000000000011100111111111111111111111111111111111111000000000011111000000000000111111110000000000000000000000000001110000000000000000000000000000000000001111100000000000000000000000000000
00000000000000000000000000000000111111111111111111111111111011111000000000111111100000000111111111100000000000000000000000000000000000000000000000000000000000000000001111100000000000000000000000000000
00000000000000000000000000000000011111111111111111011111111011110000000001111111110110011111111111000000000000000000000000000000000000000000000000000000000000000000000111100000000000000000000000000000
00000000000000000000000000000000000000011111111111011111111111110000000001111111111111111111001100000000000000000000000000000000000000000000000000000000000000000000000111110000000000000000000000000000
00000000000000000000000000000000000000001111111111111111100111110000000001111111111011111110000000000000000000000000000000000000000000000000000000000000000000000000001111110000000000000000000000000000
00000000000000000000000000000000000000001111111111111111000011100000000000011111110001111100000000000000000000000000000000000000000000000000000000000000000000000000001111110111000000000000000000000000
00000000000000000000000000000000000000001111111111111111100111000000000000001111111110111000000000000000000000000000000000000000000000000000000000000000000000000000000111100111000000000000000000000000
00000000000000000000000000000000000000000000111111111111111110000000000000000000000000000000000000000000000000000000000000000000000000000000000000000000000000000000000000000000000000000000000000000000
00000000000000000000000000000000000000000000011111111111111100000000000000000000000000000000000000000000000000000000000000000000000000000000000000000000000000000000000000000000000000000000000000000000
00000000000000000000000000000000000000000000000001111111111000000000000000000000000000000000000000000000000000000000000000000000000000000000000000000000000000000000000000000000000000000000000000000000
00000000000000000000000000000000000000000000000000000000000000000000000000000000000000000000000000000000000000000000000000000000000000000000000000000000000000000000000000000000000000000000000000000000
00000000000000000000000000000000000000000000000000000000000000000000000000000000000000000000000000000000000000000000000000000000000000000000000000000000000000000000000000000000000000000000000000000000
00000000000000000000000000000000000000000000000000000000000000000000000000000000000000000000000000000000000000000000000000000000000000000000000000000000000000000000000000000000000000000000000000000000
00000000000000000000000000000000000000000000000000000000000000000000000000000000000000000000000000000000000000000000000000000000000000000000000000000000000000000000000000000000000000000000000000000000
00000000000000000000000000000000000000000000000000000000000000000000000000000000000000000000000000000000000000000000000000000000000000000000000000000000000000000000000000000000000000000000000000000000
00000000000000000000000000000000000000000000000000000000000000000000000000000000000000000000000000000000000000000000000000000000000000000000000000000000000000000000000000000000000000000000000000000000
