P1
200 70
00000000000000000000000000000000000000000000000000000000000000000000000000000000000000000000000000000000000000000000000000000000000000000000000000000000000000000000000000000000000000000000000000000000
00000000000000000000000000000000000000000000000000000000000000000000000000000000000000000000000000000000000000000000000000000000000000000000000000000000000000000000000000000000000000000000000000000000
00000000000000000000000000000000000000000000000000000000000000000000000000000000000000000000000000000000000000000000000000000000000000000000000000000000000000000000000000000000000000000000000000000000
00000000000000000000000000000000000000000000000000000000000000000000000000000000000000000000000000000000000000000000000000000000000000000000000000000000000000000000000000000000000000000000000000000000
00000000000000000000000000000000000000000000000000000000000000000000000000000000000000000000000000000000000000000000000000000000000000000000000000000000000000000000000000000000000000000000000000000000
00000000000000000000000000000000000000000000000000000000000000000000000000000000000000000000000000000000000000000000000000000000000000000000000000000000000000000000000000000000000000000000000000000000
00000000000000000000000000000000000000000000000000000000000000000000000000000000000000000000000000000000000000000000000000000000000000000000000000000000000000000000000000000000000000000000000000000000
00000000000000000000000000000000000000000000000000000000000000000000000000000000000000000000011100000000000000000000000000000000000000000000000000000000000000000000000000000000000000000000000000000000
00000000000000000000000000000000000000000000000000000000000000000000000000000000000000000000011110000000000000000000000000000000000000000000000000000000000000000000000000000000000000000000000000000000
00000000000000000000000000000000000000000000000000000000000000000000000000000000000000000000001111000000000000000000111000000000000100000000000000000000000000000000000000000000000000000000000000000000
00000000000000000000000000000000000000000000000000000000000000000000000000000000000000000000000111000000000000000001111000000000001100000000000000000000000000000000000000000000000000000000000000000000
00000000000000000000000000000000000000000000000000000000000000000000000000000000000000000000000000000000000000000001110000000000011100000000000000000000000000000000000000000000000000000000000000000000
00000000000000000000000000000000000000000000000000000000000000000000000000000000000000000000000000000000000000000000000000000000111100000000000000000000000000000000000000000000000000000000000000000000
00000000000000000000000000000000000000000000000000000000000000000000000000000000000000000000000000000000000000000000000000000011110000000000000000000000000000000000000000000000000000000000000000000000
00000000000000000000000000000000000000000000000000000000000000000000000000111000000000000000000000000000000000000000000000000111100000000000000000000000000000000000000000000000000000000000000000000000
00000000000000000000000000000000000000000000000000000000000000000000000000111000000000000000000000000000000000000000000011101111110000000000000000000000000000000000000000000000000000000000000000000000
00000000000000000000000000000000000000000000000000000000000000000000000000000000000000000000000000000000000000000000011111111111110000000011100000000000000000000100000000000000000000000000000000000000
00000000000000000000000000000000000000000000000000000000000000000000000000000000000000111100000000000111000000000000111111111111100000000011100000000000000000000100000000000000000000000000000000000000
00000000000000000000000000000000000011111111000000000000000000000000000000000000000001111111110000000111011100000000111111111111000000000000000000000000000000000100000000000000000000000000000000000000
00000000000000000000000000000000000011111111111111100000000000000000000000000000000001111111111100000000011100000001111111111100000000000000000000000000000000111100000000000000000000000000000000000000
00000000000000000000000000000000000011111111110111111110000000000000000000000000000001111111111110000000000000000011111111000000110000000000000000000000000001111100000000000000000000000000000000000000
00000000000000000000000000000000000000111111110111111111000000000000000000000111000001111111111111110000000000000011111000000000111000000000000000000000000001111110010000000000000000000000000000000000
00000000000000000000000000000000000000111111111111111111100110110000000000000111000000000011111111110000000000000011110000000000000000000000000000000000000011111111111100000000000000000000000000000000
00000000000000000000000000000000000001111111111111111111111111111000000000000000000000000000011111110000000000000111100000000000000000000000000000000000000011111111111000000000000000000000000000000000
00000000000000000000000000000000000001111111111111011111111111111000000000000000000000000000000011111000000000000111100000000000001110000000000000000000000111111111111100000000000000000000000000000000
00000000000000000000000000000000000001111111111111011111111111111000000000000000000000000000000001111100000000000111100000000000001110000000000000000000000111111111111000000000000000000000000000000000
00000000000000000000000000000000000001111111111111111111111111111110000000000000000000000000000000111111100000000111100000000000000000000000000000000011100111111111000000000000000000000000000000000000
00000000000000000000000000000000000000110000000000011111111111111110000000000000000000000000000000011111100000000111111111111000000000000000000000000011101111111111000000000000000000000000000000000000
00000000000000000000000000000000000000000000000000000111111111111111000000000000000000000000000000001111110000001111111111111110000000000000000000000000011111111111100000000000001110000000000000000000
00000000000000000000000000000000000000000000000000000011111111111111000000000000000000000000000000001111110000001111111111111111000000000000000000000000011111011111000011000000001110000000000000000000
00000000000000000000000000000000000000000000000000000001111111111111000000000000000000000000000000001111111000001111111111111111100000000000000000000000000111011111000011000000000000000000000000000000
00000000000000000000000000000000000000000000000000000000111111111111000000000000011100000000000000001111111000001111111111111111110000000000000000000000000111111111000000000000000000000000000000000000
00000000000000000000011100000000000000001110000000000000111111111111100001111111111111100000000000011111100000011111101111111111111000000000000000000000111111111111000000000000000000000000000000000000
00000000000000000000011100000000000000001110000000000001111110111111111111111111111111111100010000011111100000001111000111111111111000000000000000000001111111111110000000000000000000000000000000000000
00000000000000000000000000000000011100000000000000000011111100111111111111111111000011111111111111111111110000000000001111111111111000000000000000000001111111111111000000000000000000000000000000000000
00000000000000000000000000000000011100000001100011111111110011111100111111111110000001111111111111111111100100000000001110011111111100000000000000000011111111111111000000000000000000000000000000000000
00000000000000000000000000000000000000000001111111111111110111111000000000000000000011111111111111111111101111100000000000001111111100000000000000010001111111110111000000000000000000000000000000000000
00000000000000000000000000000000000000000001111111111111111111111000000000000000000000111111111011111111111111110000000000000011111100000000000001111011111011110111000000000000000000000000000000000000
00000000000000000000000000000000000000000000111111111111111111110000000000000000000000000111111011111110001111111001111110000111110000000000001111111111100011111111000000000000000000000000000000000000
00000000000000000000000000000000000000000001111111110111111111100000000000000000000000000011111111111000000000111111111001111111110011111111111111111111000001111111000000000000000000000000000000000000
00000000000000000000000000000000000000000001111111110111111111100000000000000000000000000001111111100000000000000111110001111111111111111111111111111110000001111011000000000000000000000000000000000000
00000000000000000000000000000000000000000001111111111111111111110000000000000000000000000000111111110000000000000000000000001111101111111111111100011100000001111011100000000000000000000000000000000000
00000000000000000000000000000000000000000000111111101111111111111000000000000000000000000000011111110000000000000000000000000011001111111111100000000000000001111111100000000000000000000000000000000000
00000000000000000000000000000000000000000000111111000111111111111000000000000000000000000000001111111000000000000000000000000000111110000000000000100000000001111111111100000000111000000000000000000000
00000000000000000000000000000000000000000001111111000011111111111100001100000000000000000000000110111100000000000000000000000000011100000000000001110000000111111111111100000000111000000000000000000000
00000000000000000000000000000000000000000011111110000001001111110000011110000000000000000000000100011000000000000000111000000000111100000000000001110011111111111111111100000000000000000000000000000000
00000000000000000000000000000000000000000111111100000000001111110000111111000000000000000000000000110000000000000000000000000000111000000000000001110111111111111111111000000000000000000000000000000000
00000000000000000000000000000000000000011111111000000000011111111100111111100000000000000000000001111000000000000000000000000000110000000000000011111111111111111110110000000000000000000000000000000000
00000000000000000000000000000000000001111100100000000000100111111100111111111000000000000000000011111000000000000000000000000000111000000000000001111111111111111100011111100000000000000000000000000000
00000000000000000000000000000000000011111000000000000000110111110000111111111100000000000000011111111000000000000000000000000000111000000000000001111111111111111100001111100000000000000000000000000000
00000000000000000000000000000000000111111100000011100001111111110000011111111110000000000000111111111000000000000000000000000001111000000000000011111111111111111110001110000000000000000000000000000000
00000000000000000000000000000000001111111100000011100011111111111000000111111111110000000001111111111000000000000000000000000001111000000000000011110000110001001111100000000000000000000000000000000000
00000000000000000000000000000000001111111110000001111111111111111000000001111111111111100011111111110000000000000011000000000001110000000000000000000000111000001111110000000000000000000000000000000000
00000000000000000000000000000000011111111111111111111111111111111000000001111111111111110111111111100000011100000011110000000001110000000000000000000000111001111111110000000000000000000000000000000000
00000000000000000000000000000000111111111111111111111111011110110000000001111111111101111111111111100000001100000111111100000001100000000000000000000000000001111111110000000000000000000000000000000000
00000000000000000000000000000001111111111111111111111111011110110000000001110011111101111111111111100000000100000111111111110001100000000000000000000000000001111111110000000000000000000000000000000000
00000000000000000000000000000000011100111111111111111111111111110000000000000000111111111111111000000000001110000111111111111100000000000000000000000001110000111111110000011100000000000000000000000000
00000000000000000000000000000000001000111111111111111011111111000000000000000000000001000011000000000000001110000011111111111000000000000000000000000001110000111111110000001100000000000000000000000000
00000000000000000000000000000000000000111111111111111011111100000000000000000000000000000000000000000000000000000000111110000000000000000000000000000000000000111111110000000000000000000000000000000000
00000000000000000000000000001110000000111111111111111111100000000000000000000000000000000000000000000000000000000000000000000000000000000000000000000000000000000000111000000000000000000000000000000000
00000000000000000000000000001110000000011111111111111110000000000000000000000000000000000000000000000000000000000000000000000000000000000000000000000000000000000000100000000000000000000000000000000000
00000000000000000000000000000000000000000011111000000000000000000000000000000000000000000000000000000000000000000000000000000000000000000000000000000000000000000000000000000000000000000000000000000000
00000000000000000000000000000000000000000001110000000000000000000000000000000000000000000000000000000000000000111000000000000000000000000000000000000000000000000000000000000000001110000000000000000000
00000000000000000000000000000000000000000000000000000000000000000000000000000000000000000000000000000000000000111000000000000000000000000000000000000000000000000000000000000000001110000000000000000000
00000000000000000000000000000000000000000000000000000000000000000000000000000000000000000000000000000000000000000000000000000000000000000000000000000000000000000000000000000000000000000000000000000000
00000000000000000000000000000000000000000000000000000000000000000000000000000000000000000000000000000000000000000000000000000000000000000000000000000000000000000000000000000000000000000000000000000000
00000000000000000000000000000000000000000000000000000000000000000000000000000000000000000000000000000000000000000000000000000000000000000000000000000000000000000000000000000000000000000000000000000000
00000000000000000000000000000000000000000000000000000000000000000000000000000000000000000000000000000000000000000000000000000000000000000000000000000000000000000000000000000000000000000000000000000000
00000000000000000000000000000000000000000000000000000000000000000000000000000000000000000000000000000000000000000000000000000000000000000000000000000000000000000000000000000000000000000000000000000000
00000000000000000000000000000000000000000000000000000000000000000000000000000000000000000000000000000000000000000000000000000000000000000000000000000000000000000000000000000000000000000000000000000000
