P1
200 70
00000000000000000000000000000000000000000000000000000000000000000000000000000000000000000000000000000000000000000000000000000000000000000000000000000000000000000000000000000000000000000000000000000000
00000000000000000000000000000000000000000000000000000000000000000000000000000000000000000000000000000000000000000000000000000000000000000000000000000000000000000000000000000000000000000000000000000000
00000000000000000000000000000000000000000000000000000000000000000000000000000000000000000000000000000000000000000000000000000000000000000000000000000000000000000000000000000000000000000000000000000000
00000000000000000000000000000000000000000000000000000000000000000000000000000000000000000000000000000000000000000000000000000000000000000000000000000000000000000000000000000000000000000000000000000000
00000000000000000000000000000000000000000000000000000000000000000000000000000000000000000000000000000000000000000000000000000000000000000000000000000000000000000000000000000000000000000000000000000000
00000000000000000000000000000000000000000000000000000000000000000000000000000000000000000000000000000000000000000000000000000000000000000000000000000000000000000000000000000000000000000000000000000000
00000000000000000000000000000000000000000000000000000000000000000000000000000000000000000000000000000000000000000000000000000000000000000000000000000000000000000000000000000000000000000000000000000000
00000000000000000000000000000000000000000000000000000000000000000000000000000000000000000000000000000000000000000000000000111000000000000000000000000000000000000000000000001110000000000000000000000000
00000000000000000000000000000000000000000000000000000000000000000000000000000000000000000000000000000000000000000111000000111000000000000000000000000000000000000000000000000010000000000000000000000000
00000000000000000000011100000000000000000000000000000000000000000000000000000000000000000000000000000000000000000111000000000000000000000000000000000000000000000000000000000000000000000000000000000000
00000000000000000000011100000000000000000000000000000000000000000000000000000000000000000000000000000000000000000000000000000000000011100000000000000000000000000000000000000000000000000000000000000000
00000000000000000000000000000000000000000000000000000000000000000000000000000000000000000000000000000000000000000000000000000000000011100000000000000000000011000011110000000000001110000000000000000000
00000000000000000000000000000000000000000000000000000000000000000000000000000000000000000000000000000000000000000000000000000000000001000000000000000000001111111111111110000000001110000000000000000000
00000000000000000000000000000000000000000000000000000000000000000000000000000000000000000000000000000000000000000000000000000000000011110011111110000001111111111111111111100000000000000000000000000000
00000000000000000000000000000000000000000000000000000000000000000000000000000000000001000000111000000000000000000001111111111111111111111111111110000011111111111111111111110000000000000000000000000000
00000000000000000000000000000000000000000000000000000000000000000000000000000000000111100001111100000000000000000011111111111111111111111111111110001111111110111111111111111000000000000000000000000000
00000000000000000000000000000000000000000000000000000000000000000000000000000000001111110011111100000000000000000011111111111111111111111111111110011111111100011111111111111100000000000000000000000000
00000000000000000000000000000000001000000000000000000000000000000000000000000000111111111111111110000000000000000001111111111111111111111111111100011111111100010011111111111100000000000000000000000000
00000000000000000000000000000000011100000011111111100000000000000000000000000001111111111111111110000000000000000011111111111111111110011111111000111111111100000001111111111110000000000000000000000000
00000000000000000000000000000000011110000111111111111110000000000000000000000111111100001111100010000000000000000111111111111111111100011110111000111111111000000001111111111110000000000000000000000000
00000000000000000000000000000000111111000001111111111001100000000000000000001111111000000111000010000000000000001111111111111111111000111100011000111011111000000001111111111110000000000000000000000000
00000000000000000000000000000000011111100001110111110001111000000000000000011100001110000011100100000000000000001111111111000011110000000000000001111011111100000011111111111111000000000000000000000000
00000000000000000000000000000000001111111111100011111000111100000000000001100000001110000011111100000000000000011111111111000000000000000000000001111111111100000011111111111111000000000000000000000000
00000000000000000000000000000000000011111111000001111000011111000000011111100000000000000001111100011100000000011111111110000000000000000000000001111111111100000000011111111111000000000000000000000000
00000000000000000000000000000000000001111111000000000000011111000000011111110000000000000001111100011100000000011111111000000000000000000000000001111111111100000000001111111111000000000000000000000000
00000000000000000000000000000000000000111111100000000000111111100000001111110000000000000011111110000000000000111110111000000000000000000000000000111111111100000000001111111110000000000000000000000000
00000000000000000000000000000000000000011111111000000000011111100000001111100000000000000111111110000000000000111110111100000000000000000000000000111111111100000000011111111100000000000000000000000000
00000000000000000000000000000000000000000111111100000000011111110000001111100000000000000111111100000000100001111111111100000000000000000000000000111111111110000000011111111000000000000000000000000000
00000000000000000000000000000000000000000011111100000000001111110000001111100000000000000111111000000011100111111111111100000000000000000000000000111111011111110000111111111100000000000000000000000000
00000000000000000000000000000000000000000000001110001110001111110000001111000000000000001111110000000000000111111111011111111100011000000000000000011111011111110001111111111100000000000000000000000000
00000000000000000000011100000000000000000000000111111110001111110000001111000000000000011111100000000000000011111110011111110011111110000000000000011111111111111111111111111000000000000000000000000000
00000000000000000000011100000000000000000000000011111111011111100000001110000000000000111111000000000000000011111100111111110111111111100000000000001111111111111111111111110000000000000000000000000000
00000000000000000000000000000000000000000000000000111111111111100000000000000000000001111110000000000000000001111101111111111111111111110000000000000111111111111111111111100000000000000000000000000000
00000000000000000000000000000000000000000000000000011111111111100000000000000000000111111100000000000000000011111111111111110111111111111000000000000001111111111101111111100000000000000000000000000000
00000000000000000000000000000000000000000000000000000001111111100000000000000000001111111000100000011100001111111111111111100011111111111100000000000000111111111101111111110000000000000000000000000000
00000000000000000000000000000000000000000000000000000001111111111101100000000000111111111100110000011100001111111111111111100111111111111100000000000001111111111111111111111000000000000000000000000000
00000000000000000000000000000000000000000000111111111111111111111111110000000001110111111111000100000000000011111111111001000111111111111110000000000011111111111111111111111110000000000000000000000000
00000000000000000000000000000000000000000001111111111111111111111110000000000011100011111111101110000000000000000111100000000011111111111110000000000111111111111111111111111111000000000000000000000000
00000000000000000000000000000000000000000111111110111111100001111111000000000011100000001111111111000000000000000000000000000000011111111110000000000111011111100000111111110111000000000000000000000000
00000000000000000000000000000000000000000111111110111111100000111111111000000000000000000111111111000000000000000000000000000000011111111111000000001111011111000000011111110011000000000000000000000000
00000000000000000000000000000000000000000000001111111001110000001111111111100000000000000011111111000000000000000000000111000000011111111111000000001111111110000000011111111000100000000000000000000000
00000000000000000000000000000000000000000000000011110000111100000111111111110000000000000000111111000000000000000000000111000000011111111111000000001111111110000000011111111101100000000000000000000000
00000000000000000000000000000000000000000000000000001000011100000000001111110000000000000000111111100000000000000000000000000000001111111111000000011111111100000001111111111111100000000000000000000000
00000000000000000000000000000000000000000000000000000100111100100000000001111000000000111001111111100011000110000000000000000000001111111111000000001111111000001001110111111111100000000000000000000000
00000000000000000000000000000000000000000000000000000011111100100000000000011111111111111001111100000011111111111000000000000000011111111111000000001111111100000000000111111111100000000000000000000000
00000000000000000000000000000000000000000000000000000011111100000000000000000111111111111001111100000011111111111100000000000000011111111111000000000111111110000000000111111111100000000000000000000000
00000000000000000000000000000000000000000000000000000011111100000000000000000111111111111111111111100001111111111100000000000000011111101110000000000111111111110000000111111111100000000000000000000000
00000000000000000000000000000000000000000000000000000011111100000000000000000111000111111111111111100001111111111110000000000000011111101100000000001111111111110000000111110000000000000000000000000000
00000000000000000000000000000000000000000000000000000011111110000000000000000000000000111111111111111111111111011111000000000000111111111110000000001111111111100000001111110000000000000000000000000000
00000000000000000000000000000001110000000000000000000111111110000000011100000000000000011111111111111111111111011111110000000001111111111110000000001111111111100000001111111111000000000000000000000000
00000000000000000000000000000000111000000000000000000111111100000000111110000000000000001111111111111111111111111111111111000111111111111110000000000111111111110000111111111111000000000000000000000000
00000000000000000000000000000000011000000000000000011111111100000000111110000000000000001111111110001111111111111111111111111111111101111110000000000011111111110001111111111110000000000000000000000000
00000000000000000000000000000000000000000000000000111111111000000000111111000000000000011111111100000000001111111111111111111111111101111110000000000011111111111011111111111110000000000000000000000000
00000000000000000000000000000000000000000000000001111111110000000001111111100000000001111111111000000000000001111111111111111111111111111110000000000001111110011111111111111100000000000000000000000000
00000000000000000000000000000000000000000000000111111111100000000000111111000011111111111111110000000000000000011111110111111111111111011100000000000000111100001111101111111000000000000000000000000000
00000000000000000000000000100000000000000000011111111111000000000000111111100111111111111100000000000000000000000001110111111111111111011110111000000000011110011111101111110000000000000000000000000000
00000000000000000000000001111111110000001111111111111100000000000000111111111111111111111000000000000000000000000000111111111111111111111111111100000000001111111111111110000000000000000000000000000000
00000000000000000000000001111111110001111111111111111100000000000000000001111111000100000000000000000000000000000000000111111111111001111111111110000000000000111111111000000000000000000000000000000000
00000000000000000000000000011111110011111111111111111100000000000000000000000000000000000000000000000000000000000000000000011111110000000111111111110000000000000111100000000000000000000000000000000000
00000000000000000000000000011111111111111111111111111100000000000000000000000000000000000000000000000000000000000000000000000000000000000000111111111100000000000000000000000000000000000000000000000000
00000000000000000000000001111111111111011111110000000000000000000000000000000000000000000000000000000000000000000000000000000000000000000000000111111111100000000000000000000000000000000000000000000000
00000000000000000000000111111111111111001111000000000000000000000000000000000000000001110000000000000011000000000000000001110000000000000000000000111111111000000000000000000000000000000000000000000000
00000000000000000000001111111111111111100000000000000000000000000000000000000000000001110000000000000011000000000000000001110000000000000000000000001111111000000000000001110000000000000000000000000000
00000000000000000000001111111111111000000000000000000000000000000000000000000000000000000000000000000000000000000000000000000000000000000000000000000001111100110000000001110000000000000000000000000000
00000000000000000000000000000100000000000000000000000000000000000000000000000000000000000000000000000000000000000000000000000000000000000000000000000000011111111100000000000000000000000000000000000000
00000000000000000000000000000000000000000000000000000000000000000000000000000000000000000000000000000000000000000000000000000000000000000000000000000000000111111110000000000000000000000000000000000000
00000000000000000000000000000000000000000000000000000000000000000000000000000000000000000000000000000000000000000000000000000000000000000000000000000000000000111111100000000000000000000000000000000000
00000000000000000000000000000000000000000000000000000000000000000000000000000000000000000000000000000000000000000000000000000000000000000000000000000000000000011111110000000000000000000000000000000000
00000000000000000000000000000000000000000000000000000000000000000000000000000000000000000000000000000000000000000000000000000000000000000000000000000000000000000111111100000000000000000000000000000000
00000000000000000000000000000000000000000000000000000000000000000000000000000000000000000000000000000000000000000000000000000000000000000000000000000000000000000011111000000000000000000000000000000000
