P1
200 70
00000000000000000000000000000000000000000000000000000000000000000000000000000000000000000000000000000000000000000000000000000000000000000000000000000000000000000000000000000000000000000000000000000000
00000000000000000000000000000000000000000000000000000000000000000000000000000000000000000000000000000000000000000000000000000000000000000000000000000000000000000000000000000000000000000000000000000000
00000000000000000000000000000000000000000000000000000000000000000000000000000000000000000000000000000000000000000000000000000000000000000000000000000000000000000000000000000000000000000000000000000000
00000000000000000000000000000000000000000000000000000000000000000000000000000000000000000000000000000000000000000000000000000000000000000000000000000000000000000000000000000000000000000000000000000000
00000000000000000000000000000000000000000000000000000000000000000000000000000000000000000000000000000000000000000000000000000000000000000000000000000000000000000000000000000000000000000000000000000000
00000000000000000000000000000000000000000000000000000000000000000000000000000000000000000000000000000000000000000000000000000000000000000000000000000000000000000000000000000000000000000000000000000000
00000000000000000000000000000000000000000000000000000000000000000000000000000000000000000000000000000000000000000000000000000000000000000000000000000000000000000000000000000000000000000000000000000000
00000000000000000000000000000000000000000000000000000000000000000000000000000001111110000000000000000000000000000000000000000000000000000000000000000000000000000000000000000000000000000000000000000000
00000000000000000000000000000000000000000000000000000000000000000000000000000001111111000000000000000000000000000000000000000000000000000000000000000000000000000000000000000000000000000000000000000000
00000000000000000000000000000000000000000000000000000000000000000000000000000001111111111100000011100000000000011100000000000000000000000000000000000000000000000000000000000000000000000000000000000000
00000000000000000000000000000000000000000000000000000000000000000000000000000011111111111111100011100000000000011100000000000000000000000000000000000000000000000000000000000000000000000000000000000000
00000000000000000000000000000000000000000000000000000000000000000000011100000111111111111111110000000000000000000000000000000111000000000000000000000000000000000000000000000000110000000000000000000000
00000000000000000000000000000000000000000000000000000000000000000000011100001111111111111111110000000000000000000000000000000111000000000000000000000000000000000000110000000000110000000000000000000000
00000000000000000000000000000000000000000000000000000000000000000000000000011111111111111111111000000000000000000000000000000000000000000000000000000000000000100011111000000000010000000000000000000000
00000000000000000000000000000000000000000000000000000000000000000000000000111101111011111111110000000000000000000000000000000000000000000000000000000000000111111111111100000000111000000000000000000000
00000000000000000000000000000000000000000000000000000000000000000000000001111101111011111111110000000000000000000011100000000000000000000000000000001111011111111111111110000000111000000000000000000000
00000000000000000000000000000000000000000000000000000000000000000000000011111111111111111111111100000000000000000011100000000000000000000000000000001111111111111111111111000000000000000000000000000000
00000000000000000000000000000000000000000000000000000000000000000000000011111111111001111111111100000000000000000000000000011100000000000000000000000011111111111011111111000000000000000000000000000000
00000000000000000000000000000000000000010011100000000000000000011100000011111111110000011111111100000000000000000000000111111111100000000000000000000011111111000000111111100000000000000000000000000000
00000000000000000000000000000000000000111111111100110000000000011100000111111111100000011111111100000000000000000000111111111110010000000000000000000011111110000000111111100000000000000000000000000000
00000000000000000000000000000000000000011111111100111100000000000000000100011111100000011111110000000000000000000000111111111100011000000000000000000111111000000000011111100011100000000000000000000000
00000000000000000000000000000000000000011111111101111111100000000000000100011111000000001111110000000000000000000111001111111110001000000000000000001111111000000000001111100000100000000000000000000000
00000000000000000000000000000000000000111111111111111111110000000000000111111100000000001111111100000000000000011110000110111111011100000000000000001111110000000000001111100000000000000000000000000000
00000000000000000000000000000000000000111111111000111111100000000000000111111000000000001111111110000000000000111111001000011111111100000000000000011111000000000000011111110000011100000000000000000000
00000000000000000000000000000000000000011100000000011001110011110000000111111100000000001111111110000000000001111111000000000111111110000000000000011111000000000000011111111000011100000000000000000000
00000000000000000000000000000000000000000000000000000000111111110000000000000000000000011111111110000000000011111111000000000011111110000000000000111111000000000000011111111000000000000000000000000000
00000000000000000000000000000111000000000000000000000001111111100000000000000000000000011111111110000000000011111110000000000011111100000000000001111111000000000000011111100000000000000000000000000000
00000000000000000000000000000011000000000000000000000000111111000000000000000000000000111111111110000000000011101110000000000011110000000000000001111111000000000001111111000000000000000000000000000000
00000000000000000000000000000000000000000000000000000000111111000000000000000000000001110111111100000000000111101100000000000011110000000000000001110111000000000001111111100000000000000000000000000000
00000000000000000000000000000000000000000000000000000000011111000000000000000000011111110111111110000000000111111100000000000011111100000000000001110111000000000000111111100000000000000000000000000000
00000000000000000000000000000000000000000000000000000000011111100000000000000000111111111111111111111111111001111110000000000011111111000000000001111111000000000000111111000000000000000000000000000000
00000000000000000000000000000000000000000000000000000000011111110000000000000000111111111111111110011111111101111111111110000111111111000000000000011110000000000001111111000000000000000000000000000000
00000000000000000000000000000000000000000000000000000000111111111100000000000001111111110111111100001111111111111111111111111111111110000000000000011110000000000011111111000000000000000000000000000000
00000000000000000000000000000000000000000000000000000011111111011100000000001111111111110111111110001111111111111111111111111011111111000000000011111111000000011111111111000000000000000000000000000000
00000000000000000000000000000000000000000000000000011111111110000000000011111111111111111111110000000000000111111111000011111011111111111111111111111111111111111111111111000000000000000000000000000000
00000000000000000000000000000000000000000000001111111111111111000001111111111111111111011111110000000000000011111111000001111111111111111111111111111100011111111111111111000000000000000000000000000000
00000000000000000000000000000000010000000000001111111111111111110001111111111000001111011111111000000000000001111111100011111111110001111111111111111100011111111111111110000000000000000000000000000000
00000000000000000000000000000000111111100000011111101111111111111100011111000000000111111111111100000000000000011111111111111111000000000000111111111111111111111111111110000000000000000000000000000000
00000000000000000000000000000001111011110011111111101111111111111100000000000000000001111111111110000000000000011111111111111110000000000000000001111111111111111001111110000000000000000000000000000000
00000000000000000000000000000001110001111111111111111111111111110000000000000000000000111111111110000000001000111111111111111100000000000000000000001111111111110001111110000000000000000000000000000000
00000000000000000000000000110000000000011111111111111111111111100001110000000000000000011111111111000000001111111011111111111110000000000000000000000111110011000001111110000000000000000000000000000000
00000000000000000000000000111000000000000000001000000000011111110001110000000000000000011111111111000000011111110001111111111110000000000000000000000011100000000011111100000000000000000000000000000000
00000000000000000000000000011100000000000000000000000000001111111001111110000000000000011111111111000000111111100000000011111111000000000000000000000000000000011111111100000000000000000000000000000000
00000000000000000000000000000000000000000000000000000000001111111001111111110000000000001111111111100001111111100000000000111111100000000000000000000000000000011111111000000000000000000000000000000000
00000000000000000000000000000000000000000000000000000000000111111011111111111000000000001111111111100011111111000000000000011111110000000000000000000000000000001111110000000000000000000000000000000000
00000000000000000000000000000000000000000000000000000000000100111111111111111000000000001111111111100011111111000000000000001111110000000000000000000011100000001111110000000000000000000000000000000000
00000000000000000000000000000000000000000000000000000000000000111111111111111000000000001111111011100011111110000000000000001111110000000000000000000011100000011111100000000000000000000000000000000000
00000000000000000000001110000000000000000000000000000000000011111101111111111100000000011100010011100000011100000000000000001111100000000000000000000000000000011111000000000000000000000000000000000000
00000000000000000000000000000000000000000000000000000000000001111001111111111100000000011100001111100000011100000000000000001111000000000000000011100000000000111110000000000000000000000000000000000000
00000000000000000000000000000000000000000000000000000000000000111001111111101100000000011110011111100000111100000000000000001111000000000000011111100000000000010000000000000000000000000000000000000000
00000000000000000000000000000000000000000000000000000000000001111001111111101110000000111111111111100001111100000000000000001111100000000000111111110000000100000000000000000000000000000000000000000000
00000000000000000000000000000000000000000000000000000000011111110000011111111111111111111111111111000111111100000000000000001111111000000000111110111000111111000000000000000000000000000000000000000000
00000000000000000000000000000000000000000000000000000000111111100000001111111111111111111111111111000111111100000000000000001111111000000000111100011101111111100000000000001000000000000000000000000000
00000000000000000000000000000000000000000000000000000011111111100000000111111111111111111111111111000011111110000000000000011111111000000000111100011111111111000000000000001110000000000000000000000000
00000000000000000000000000000000000000000011110111000011111111000000000001111111111111111111111110000011111111000000000000011111111000000000011110111111111100001110000000000000000000000000000000000000
00000000000000000000000000000000000000000110001111100111111100000000000001111111111111111111111100000001111111110000000000011111111000000000001111111111110000001110000000000000000000000000000000000000
00000000000000000000000000000000000000000011011111111111110000000000000001111111111101110111111100000000111111111000000000111111111000000000001111111111000000000000000000000000000000000000000000000000
00000000000000000000000000000000000000000011111111111111100000000000000000111111111101110111111000000000011111111111100011111111110000000000000111111000000000000000000000000000000000000000000000000000
00000000000000000000000000000000000000000000011111111111100000000000000000001111111111111111111000000000001111111111111111111111110000000000000001110000000000000000000000000000000000000000000000000000
00000000000000000000000000000000000000000000001111110001110000000000000000000111111111111111100000000000000011111111111111111111110000000000000000000000000000000000000000000000000000000000000000000000
00000000000000000000000011100000000000000000000000000001110000000000000000000000000111111101000000000000000001111111111111111111100000000000000000000011100000000000000000000000000000000000000000000000
00000000000000000000000011100000000000000000000000000000000000000000000000000000000000000000000000000000000000111111111111111111000000000000000000000011100000000000000000000000000000000000000000000000
00000000000000000000000000000000111000000000000000000000000000000000000000000000000000000000000000000000000000000111111101111110000000000000000000000000000000000000000000000000000000000000000000000000
00000000000000000000000000000000111000000000000000000000000000000000000000000000000000000000000000000000000000000000011000111100000000000000000000000000000000000000000000000000000000000000000000000000
00000000000000000000000000000000000000000000000000000000000000000000000000000000000000000000000000000000000000000000001000010000000000000000000000000000000000000000000000000000000000000000000000000000
00000000000000000000000000000000000000000000000000000000000000000000000000000000000000000000000000000000000000000000000000000000000000000000000000000000000000000000000000000000000000000000000000000000
00000000000000000000000000000000000000000000000000000000000000000000000000000000000000000000000000000000000000000000000000000000000000000000000000000000000000000000000000000000000000000000000000000000
00000000000000000000000000000000000000000000000000000000000000000000000000000000000000000000000000000000000000000000000000000000000000000000000000000000000000000000000000000000000000000000000000000000
00000000000000000000000000000000000000000000000000000000000000000000000000000000000000000000000000000000000000000000000000000000000000000000000000000000000000000000000000000000000000000000000000000000
00000000000000000000000000000000000000000000000000000000000000000000000000000000000000000000000000000000000000000000000000000000000000000000000000000000000000000000000000000000000000000000000000000000
