P1
200 70
00000000000000000000000000000000000000000000000000000000000000000000000000000000000000000000000000000000000000000000000000000000000000000000000000000000000000000000000000000000000000000000000000000000
00000000000000000000000000000000000000000000000000000000000000000000000000000000000000000000000000000000000000000000000000000000000000000000000000000000000000000000000000000000000000000000000000000000
00000000000000000000000000000000000000000000000000000000000000000000000000000000000000000000000000000000000000000000000000000000000000000000000000000000000000000000000000000000000000000000000000000000
00000000000000000000000000000000000000000000000000000000000000000000000000000000000000000000000000000000000000000000000000000000000000000000000000000000000000000000000000000000000000000000000000000000
00000000000000000000000000000000000000000000000000000000000000000000000000000000000000000000000000000000000000000000000000000000000000000000000000000000000000000000000000000000000000000000000000000000
00000000000000000000000000000000000000000000000000000000000000000000000000000000000000000000000000000000000000000000000000000000000000000000000000000000000000000000000000000000000000000000000000000000
00000000000000000000000000000000000000000000000000000000000000000000000000000000000000000000000000000000000000000000000000000000000000000000000000000000000000000000000000000000000000000000000000000000
00000000000000000000000000000000000000000000000000000000000000000000000000000000000000000000000000001110000000000000000000000000000000000000000000000000000000000000000000000000000000000000000000000000
00000000000000000000000000000000011100000000000000000000000001110000000000000000000000000000000000001110000000000000000000000000000000000000111000011110000000000000000000000000000000000000000000000000
00000000000000000000100000000000011100000000000000000000111001110000000000000000000000000000000000000000000000000000000000000000000000000000000000011110000000000000000000000000000000000000000000000000
00000000000000000000000000000000000000000000000000000000111000000000000000000000000000000000001000000000000000000000000000000000000000000000000000000000000000000001110000000000000000000000000000000000
00000000000000000000000000000000000000000000000000000000000000000000000000000000000000000000011111110001111000000000000000000000000000000000000000000000000000000111110000000000000000000000000000000000
00000000000000000000000000000000000000000000000000000000010000000000000000000000000000000011111111111011111111111100000000000000000000000000000000000000000000000110000000000000000000000000000000000000
00000000000000000000000000000000000000000000111111111000010000000000000000000000111111000111111111111111111111111111111110000110000000000000000000000000000000000000000000000000000000000000000000000000
00000000000000000000000000000000000000000100011111111100000000000000000011111111111111101111111111111111111111111111111111111111000000000000000000000000000011100000000000000000000000000000000000000000
00000000000000000000000000000000000000000110111111111110000000000000011111111111111111111111111100000000000000000111111111111111111000000000000000000000000011100000000000000000000000000000000000000000
00000000000000000000000000000000000000001111111110000111100000000111111111111111111111111111111100000000000000000000000111111111111111100000000000000000000000000001111000000000000000000000000000000000
00000000000000000000000000000000000000011111011100000111111000010011111111000000011111111111111100000000000000000000000111111111111111111100000000000000000000111001111100000000000000000000000000000000
00000000000000000000000000000000000000011100000011111111111001111001110000000000011111111111111100000000000000000000000111111111100011111110000001111000000000111000000000000000000000000000000000000000
00000000000000000000000000000000000000011000000001111111111111111110000000000000011111111111111000000000000000000000111111111111000001111111111111111111000000000000000000000000000000000000000000000000
00000000000000000000000000000000000000011000000001111111111111111000000000000000011111111111111000000000000000001110111111111110000000000111111101111111110000000000000000000000000000000000000000000000
00000000000000000000000000000000000000000000000000111111111111100000000000000000111111111111001000000000000000001100011111111110000000000000111001111111001100000000000000000000000000000000000000000000
00000000000000000000000111000000000000000000000000111111111110000000000000000000111111111111001000000000000000000000011111011110000000000000000111111111011111000000000000000000000000000000000000000000
00000000000000000000000111000000000000000000000000111101111000000000000000000001111101111111111000000000000000000001111111011110000000000000000111111111111111100000000000000000000000000000000000000000
00000000000000000000000000000000000000000000000000111101110000000000000000000011111101111111111000000000000000000011111111111110000000000000000111111111111111110000000000000000000000000000000000000000
00000000000000000000000000000000000000000000000001111111110000000000000000000111111111111111111000000000000000000111111101111110000000000000000111110001111111100000000000000000000000000000000000000000
00000000000000000000000000000000000000000000000111111111110000000000000000000111111111111111000000000000000000001111111001111110000000000000000111100000011111100000000000000000000000000000000000000000
00000000000000000000000000000000000000000000011111111111100000000000000000001111111101111111000000000000000000011111111011111110000000000000000111100000001111100000000000000000000000000000000000000000
00000000000000000000000000000000000000000000111111111111100000000000000000011111111000111111110000000000000000111111110011111000000000000000000111000000000111110011100000000000000000000000000000000000
00000000000000000000000000000000000000000011110111111111000000000000000000111111111001111111110000000000000001111111100011110000000000000000000010000000000111111111110000000000000000000000000000000000
00000000000000000000000000000000000000000111110111111111000000000000000000111111110011111110110000000000000011111110000011100010000000000000000000000000000111111111111100000000000000000000000000000000
00000000000000000000000000000000000000011111111111101111100000000000000001111111100011111110010111000000000111111100000011110110000000000000000000000000000111111111111100000000000000000000000000000000
00000000000000000000000000000000000001111111111111000111110000000000000001111001000011111111100011000000000111111100000011111111000000000000000000000000011111101110111110000000000000000000000000000000
00000000000000000000000000000001110011111111111111000111111000000000000011111000000011111111100000000000001111111000000011111110000000000000000000000000111111101100011110000000000000000000000000000000
00000000000000000000000000000001110111111100000111101111111100000000000111111100000011111111100000000000111111110000000011111100000000000000000000000000001111111100000000000000000000000000000000000000
00000000000000000000000000000000000111111000000001111111111100000000000111111100000011111111100000000000111111100000000011111110000000000000000000000000000111110000000000000000000000000000000000000000
00000000000000000000000000000000001111100000000000011111111110000000001111111100000011111111100000000000011111000000000011111110000000000000000000000000001111110010000000000000000000000000000000000000
00000000000000000000000000000000011111000000000000001111111111000000000011111000000011111111100000000111011110000000000011111110000000000000000000000000011111111110000000000000000000000000000000000000
00000000000000000000000000000000001111000011100000001111100111000000010011111000000011111111110000000111111100000000000011111110000000000000000000000000011111111110000000000000000000000000000000000000
00000000000000000000000000000000001110000011100000001111100111000000111111110000000011111111111000001111111000000000000011111110000000000000000000000000111111111110000000000000000000000000000000000000
00000000000000000000000000000000000000000000000000000111111111000001001111100000000011111111111000001111110000000000000011111110000000000000000000000001111111111110000000000000000000000000000000000000
00000000000000000000000000000000000000000000000000000011111111100001101111100000000111111111100000011111110001100000000011111110000000000000000000000011111111111100000000000000000000000000000000000000
00000000000000000000000000000000000000000000000000000011111111100001111111111110000111111111000000011111111011111100000011111110000000000000000000000111111111111100000000000000000000000000000000000000
00000000000000000000000000000000000000000000000000000001111001100001111101111111111110111111000000011111111111111111110011111110000000000000000000001111111111110000000000000000000000000000000000000000
00000000000000000000000000000000000000000000000000000001110000100001111101111111111110111111001100011111111111111111111111111110000000000000000000011111111111100000000000000000000000000000000000000000
00000000000000000000000000000000011100000000000000000000111001100001111111111111111111111111111000000001111111111111111111111110000000000000000001111111111111000000000000000000000000000000000000000000
00000000000000000000000000000000011100000010000000000000111111100011111111111111111111110111111100000000011111111111111111111111001000000000111011111111111110000000000111000000000000000000000000000000
00000000000000000000000000000000000000001111110000000000011111110011111111111111111111110111111110000000000000111111111111111111111100000000111111111111110000000000000111000000000000000000000000000000
00000000000000000000000000000000000000001111111000000000011111110011111111111111111111111111111110000000000000000001111111111110111110000000111111111111100000000000000000000000000000000000000000000000
00000000000000000000000000000000000000001111111100000000011111100001111111111111111111111111111110000000000000000000001111111110111100000001111111111110000000000000000000000000000000000000000000000000
00000000000000000000000000000000000000001111111110000000011111100000000001111100011111111111111110000000000000000000000111111111111100000011111111111000000000000000000010000000000000000000000000000000
00000000000000000000000000000000000000001111111110000000011111100000000000000000001111111111111100000000000000000000000111111111111000001111111111100000000000000000000011100000000000000000000000000000
00000000000000000000000000000000000000000111111111000000111111000000000000000000001111111111111100000000000000000000000111101111111000111111111110000000000000000000000000000000001110000000000000000000
00000000000000000000000000000000000000000011111111000100111111000000000000000000001111111111001100000000000000000000000111101110000011111111110000000000000000000000000000000000001110000000000000000000
00000000000000000000000000000000000000000001111111101111111111000000000000000000001111111110000000000000000000000000000111111110000111011111100000000000000000000000000000000000000000000000000000000000
00000000000000000000000000000000000000000000111111111111111110000000000000000000011111111110000000000000000000000000000111111110000111011111100000000000000000000000000000000000000000000000000000000000
00000000000000000000000000000000000000000000001111111111111100000000000000000000011111111110000000000000000000000000000111111110000111111111111100000000000000000000000000000000000000000000000000000000
00000000000000000000000000000000000000000000000000111111110000000001110000000000011111111110000000000000000000000000000111111110001111101111111110011111000000000000000000000000000000000000000000000000
00000000000000000000000000000000000000000000000000000110000000000000000000000000011111011110000000000000000000000000000111111100011111101111111111001111111110000000000000000000000000000000000000000000
00000000000000000000000000000000000000000000000000000000000000000000000000000000011111011100000000000000000000000000000111111100011111111111111111101111111111001000000000000000000000000000000000000000
00000000000000000000000000000000000000000000000000000000000000000000000000000000011111111100000000000000000000000000000111111110111111111011111111111111111111111000000000000000000000000000000000000000
00000000000000000000000000000000000000000000000000000000000000000000000000000000011111111100000000000000000000000000000011111110111111111011111111111111111111110000000000000000000000000000000000000000
00000000000000000000000000000000000000000000000000000000000000000000000000000000000001111100000000000000000000000000000000011100000011111111111111111111111111110000000000000000000000000000000000000000
00000000000000000000000000000000000000000000000000000000000000000000000000000000000000000000000000000000000000000000000000000100000000000000011111111111111111110000000000000000000000000000000000000000
00000000000000000000000000000000000000000000000000000000000000000000000000000000000000000000000000000000000000000000000000000000000000000000000000111111111111110000000000000000000000000000000000000000
00000000000000000000000000000000000000000000000000000000000000000000000000000000000000000000000000000000000000000000000000000000000000000000000000000000111111110000000000000000000000000000000000000000
00000000000000000000000000000000000000000000000000000000000000000000000000000000000000000000000000000000000000000000000000000000000000000000000000000000000000000000000000000000000000000000000000000000
00000000000000000000000000000000000000000000000000000000000000000000000000000000000000000000000000000000000000000000000000000000000000000000000000000000000000000000000000000000000000000000000000000000
00000000000000000000000000000000000000000000000000000000000000000000000000000000000000000000000000000000000000000000000000000000000000000000000000000000000000000000000000000000000000000000000000000000
00000000000000000000000000000000000000000000000000000000000000000000000000000000000000000000000000000000000000000000000000000000000000000000000000000000000000000000000000000000000000000000000000000000
