P1
200 70
00000000000000000000000000000000000000000000000000000000000000000000000000000000000000000000000000000000000000000000000000000000000000000000000000000000000000000000000000000000000000000000000000000000
00000000000000000000000000000000000000000000000000000000000000000000000000000000000000000000000000000000000000000000000000000000000000000000000000000000000000000000000000000000000000000000000000000000
00000000000000000000000000000000000000000000000000000000000000000000000000000000000000000000000000000000000000000000000000000000000000000000000000000000000000000000000000000000000000000000000000000000
00000000000000000000000000000000000000000000000000000000000000000000000000000000000000000000000000000000000000000000000000000000000000000000000000000000000000000000000000000000000000000000000000000000
00000000000000000000000000000000000000000000000000000000000000000000000000000000000000000000000000000000000000000000000000000000000000000000000000000000000000000000000000000000000000000000000000000000
00000000000000000000000000000000000000000000000000000000000000000000000000000000000000000000000000000000000000000000000000000000000000000000000000000000000000000000000000000000000000000000000000000000
00000000000000000000000000000000000000000000000000000000000000000000000000000000000000000000000000000000000000000000000000000000000000000000000000000000000000000000000000000000000000000000000000000000
00000000000000000000000000000000000000000000000000000000000000000000000000000000000000000000000000000000000000000000000000000000000000000000000000011100000000000000000000000000011100000000000000000000
00000000000000000000000000000000000000000000000000000000000000000000000000000000000000000000000000000000000000000000000000000000000000000000000000011111100000000000000000000000011100000000000000000000
00000000000000000000000000000000000000000000000000000000000000000000000000000000000000000000000000000000000000000000000000000000000000000000000000000011100000000000000000000000000000000000000000000000
00000000000000000000000000000000000000000000000000000000000000000000000000000000000000000000000000000000000000000000000000000000000000000000000000000000000000000000000011000000000000000000000000000000
00000000000000000000000000000000000000000000000000000000000000000000000000000000000000000000000000000000000000000000000000000000000000000000000000000000000000000000000011100000000000000000000000000000
00000000000000000000000000000000000000000000000000000000000000000000000000000000000000000000000000000000000000000000000000000000000000001110000000000000000000000000000000000000000000000000000000000000
00000000000000000000000000000000000000000000000000000000000000000000011100000000000000000000000000000000000000000000001111111000000000001110000000000000000000000000000000000000000000000000000000000000
00000000000000000000000000000000000000000000000000000000000000000000011100000000000000000000000000000000000000000111111111111000000000000000000000000000000000000000000000000000000000000000000000000000
00000000000000000000000000000000000100000000000000000000000000000000000000000000000000000000000000000000000111111111111111111100000000000000000000000000000000000000000000000000000000000000000000000000
00000000000000000000000000000000000000000000000000000000000000000000000000000000000000000000000000000000111111111111111111111100000000000000000000000000000000000000000000000000001000000000000000000000
00000000000000000000000000000000110000000000000000000000000000000000000000000000000000000000000000000000111111111111111111111100000000000000000000001111110000000000000000000000001110000000000000000000
00000000000000000000000000000000011111000000000000000000000000000000011100000000000000000000000111000000111111111110011111100100000000000000000000011111111001100000000000000000000000000000000000000000
00000000000000000000000000000000001111111110000000000000000000000000011100000000000000000000000000000000111110000000000111000000000000000000000000111111111111111000000000000000000000000000000000000000
00000000000000000000000000000000001111111111111000000011100000000000000000000000111000000000000000000000000000000000000111100000000000000000010000111111100110111110000000000000000000000000000000000000
00000000000000000000000000000000001111111110111111100011100000000000000000000000111000000011000000000000000000000000000111100000000000000000011101111001000000011111000000000000000000000000000000000000
00000000000000000000000000000000000111111100011111111100000000000000000000000000000000000111110000000000000000000000000111110000000000000000000001110000000000001111100000000000000000000000000000000000
00000000000000000000000000000000000111111100001111111110000000000000000000000000000000001111111111000000000000000000001111110000000000000000000011111000000000000111000000000000000000000000000000000000
00000000000000000000000000000000000111111100000011111111000000000000000000000000000000111111111111000000000001110000001111100000000000000000000111111100000000000111100000000000000000000000000000000000
00000000000000000000000000000000000111110010000001111111000000000000000000000000000001111111111111000000000001110000011111100000000000000000000111111100000000000111110000000000000000000000000000000000
00000000000000000000000000000000000011100111000001111110000000000000000000000000000011111111111110000000000000000000011111100000000000000000000011111100000111000011111000000000000000000000000000000000
00000000000000000000000000000000000000001111100001111100000000000000000000000000000111111110000110000000000000000000111111000000000000000000000001111100000111000011111000000000000000000000000000000000
00000000000000000000000000000000000000000111110001111110000000000000000000000000001111111110000111000000000000000000111111000000000000000000000001111100000000000011111000000000000000000000000000000000
00000000000000000000000000000000000000000011111001111111000000000000000000000000011111111111111110000000000011100000111110000000000000000000000001111110000000000011111000001110000000000000000000000000
00000000000000000000000000000000000000000001110001111111100000000000000011100000111111111111111100000000000011100001111110000000000000000000000000111110000000000111110000001110000000000000000000000000
00000000000000000000000000000000000000000000110011110111100000000000000011100001111111111111111100000000000000000001111110000000000000000000000000111111000000000111110000000000000000000000000000000000
00000000000000000000000000000000000000000000001111110111100000000000000000000011111111001111111100000000000000000011111100000000000000000000000001111111000000001111110111000000000000000000000000000000
00000000000000000000000000000000000000000010011111111111000000000000000000000111111110001110111100000000000000000011111100000000000000000000000001111111000000011111111111000000000000000000000000000000
00000000000000000000000000000000000000000011111111111111100000000000000000010011111100011110111000000000000000000000111000000000000000000000000000111100000000011111111110000000000000000000000000000000
00000000000000000000000000000000000000000001111111111111110000000000000000111011111000011111111000000000000000000110110000000000000000000000000000111101110011111110011100000000000000000000000000000000
00000000000000000000000000000000000000000000111111111111111111000000000001111111110000011111110000000000000000000111110000000000000000000000000000011111111111111100000000000000000000000000000000000000
00000000000000000000000000000000000000000000000111111111111111111110000111111111110000011111110000000000000000000011110000000000000000000000000000011111000111100000000000000000000000000000000000000000
00000000000000000000000000000000000000000000000001111111111111111111111111111111111110001111110000000000000000000011110000000000000000000000000000111110000000000000000000000000000000000000000000000000
00000000000000000000000000000000000000000000000000111111100011111111111111110111111111011111111000000000000000001111110000000000000000000000001000111111000000000000000000000000000000000000000000000000
00000000000000000000000000000000000000100000000000111111100001110011111111110111111111111111111100000000000000011111110000000000000000000000001111001111111000000000000000000000000000000000000000000000
00000000000000000000000000000000000001111000000000011111100001110001111111111111111111111111111111100000111000111111100000000000000000000000011111000111111000000000000000000000000000000000000000000000
00000000000000000000000000000000000000111000000000011111100001110001111111111111111111111111111111111001111111111111100000000000000000000001111100000111111100000000000000000000000000000000000000000000
00000000000000000000000000000000000000111000000000011111110000000001111111111111111111111111111110001111111111111111110000000000000111000011111000000011111000000000000000000000000000000000000000000000
00000000000000000000000000000000000000111100000000011111110000000011111111111111111111111111111100000111101111111111111111000000000111000011100000000011111000000000000000000000000000000000000000000000
00000000000000000000000000000000000000111110000000011101110000000011111111111111111101111111111100000111000011111110011111110000000000000111100000000011111100000000000000000000000000000000000000000000
00000000000000000000000000000000000001111111000000111101100000000111111111111111111101111111111000111000000011111100001111111100000000000111110000000011111100000000000000000000000000000000000000000000
00000000000000000000000000000000000001111111100001111111100000000011111000000011111111111111111000111000000011111110000011111111000000000111110000000001111000000000000000000000000000000000000000000000
00000000000000000000000000000000000000011111111111111111000000000000000000000000111111111100000000000000000011111110000000111111111000000011100000000001111000000000000000000000000000000000000000000000
00000000000000000000000000000000000000000111111111111111000000000000000000000000111111111100000000000000000011111110000000001111111111100001100000000000111000000000000000000000000000000000000000000000
00000000000000000000000000000000000000000000111111111110011100000000000000000001111110111111000000000000000011111110000000000011001111110001100000000001111000000000000000000000000000000000000000000000
00000000000000000000000000000000000000000000000000100000011100000000000000000001111110111111000000000000000011111110000000000000000111111011100000000001111100000000000000000000000000000000000000000000
00000000000000000000000000000000000000000000000000000000000000000000000000000001111111110000000000000000000011111110000000000000000001111111110000000001111100000000000000000000000000000000000000000000
00000000000000000000000000000000011100000000000000000000000000000000000000000001111111100000000000000000000011111110000011100000000000011111111110000001111100000000000000000000000000000000000000000000
00000000000000000000000000000000011100000000000000000000000000000000000000000000000000000000001111111000000001100000000011100000000000001111111111110011111000000000000000000000000000000000000000000000
00000000000000000000000000000000000000000000000000000000000000000000000000000000000000000000001111111000000000000000000000000000000000000111111111111111111100000000001000000000000000000000000000000000
00000000000000000000000000000000000000000000000000011100000000000000000000000000000000000000000000000000000000000000000000000000000000000000000111111100111111111111111000000000000000000000000000000000
00000000000000000000000000000000000000000000000000000000000000000000000000000000000000000000000000000111000000000000000000000000000000000000000000100000111111111111110000000000000000000000000000000000
00000000000000000000000000000000000000000000000000000000000000000000000000000000000000000000000000000111000000000000000000000000000000000011100000000011111111100111110000000000000000000000000000000000
00000000000000000000000000000000000000000000000000000000000000000000000000000000000000000000000000000000000000000000000000000001100000000011110000000111111111000000000000000000000000000000000000000000
00000000000000000000000000000000000000000000000000000000000000000000000000000000000000000000000111000000000000000000000000000001110001100011111000011111000000000000000000000000000000000000000000000000
00000000000000000000000000000000000000000000000000000000000000000000000000000000000000000000000111000000000000000000000001100000000011100001111111111100000000000000000000000000000000000000000000000000
00000000000000000000000000000000000000000000000000000000000000000000000000000000000000000000000000000000000000000000000001100000000000000000111111111000000000000000000000000000000000000000000000000000
00000000000000000000000000000000000000000000000000000000000000000000000000000000000000000000000000000000000000000000000000000000000000000000011111110000000000000000000000000000000000000000000000000000
00000000000000000000000000000000000000000000000000000000000000000000000000000000000000000000000000000000000000000000000000000000000000000000000000000000000000000000000000000000000000000000000000000000
00000000000000000000000000000000000000000000000000000000000000000000000000000000000000000000000000000000000000000000000000000000000000000000000000000000000000000000000000000000000000000000000000000000
00000000000000000000000000000000000000000000000000000000000000000000000000000000000000000000000000000000000000000000000000000000000000000000000000000000000000000000000000000000000000000000000000000000
00000000000000000000000000000000000000000000000000000000000000000000000000000000000000000000000000000000000000000000000000000000000000000000000000000000000000000000000000000000000000000000000000000000
00000000000000000000000000000000000000000000000000000000000000000000000000000000000000000000000000000000000000000000000000000000000000000000000000000000000000000000000000000000000000000000000000000000
00000000000000000000000000000000000000000000000000000000000000000000000000000000000000000000000000000000000000000000000000000000000000000000000000000000000000000000000000000000000000000000000000000000
