P1
200 70
00000000000000000000000000000000000000000000000000000000000000000000000000000000000000000000000000000000000000000000000000000000000000000000000000000000000000000000000000000000000000000000000000000000
00000000000000000000000000000000000000000000000000000000000000000000000000000000000000000000000000000000000000000000000000000000000000000000000000000000000000000000000000000000000000000000000000000000
00000000000000000000000000000000000000000000000000000000000000000000000000000000000000000000000000000000000000000000000000000000000000000000000000000000000000000000000000000000000000000000000000000000
00000000000000000000000000000000000000000000000000000000000000000000000000000000000000000000000000000000000000000000000000000000000000000000000000000000000000000000000000000000000000000000000000000000
00000000000000000000000000000000000000000000000000000000000000000000000000000000000000000000000000000000000000000000000000000000000000000000000000000000000000000000000000000000000000000000000000000000
00000000000000000000000000000000000000000000000000000000000000000000000000000000000000000000000000000000000000000000000000000000000000000000000000000000000000000000000000000000000000000000000000000000
00000000000000000000000000000000000000000000000000000000000000000000000000000000000000000000000000000000000000000000000000000000000000000000000000000000000000000000000000000000000000000000000000000000
00000000000000000000000000000000000000000000000000000000000000000000000000000000011100000000000000000000000000000000000000000000000000000000000000111000000000000000000000000000000000000000000000000000
00000000000000000000000000000000000000000000000000000000000000000000000000000000011100000000000000000000000000000000000000000000000000000000000000111000000000000000000000000000000000000000000000000000
00000000000000000000000000000000000000000000000000000000000000000000000000000000000000000000000000000000000000000000000000000000000000000000000000111000000000000000000000000000000000000000000000000000
00000000000000000000000000000000000000000000000000000000000000000000000000000000000000000000000000000000000000000000000000000000000000000000000000000000000000000000000000000000000000000000000000000000
00000000000000000000000000000000000000000000000000000011111111100000000000000000000000000000000000000000000000000000000000000000000000000000000000000000000000000000000000000000000000000000000000000000
00000000000000000000000000000000000000000000000000001111111111111000000000000000000000000000000000000000000000000000000000000000000001100000000000000000000000000000000000000000000000000000000000000000
00000000000000000000000000000000000000000000000000111111111111110000000000000000000000000000000000000000000000011000000000000000000100011100000000000000000000000000000000000000000000000000000000000000
00000000000000000000000000000000000000000011100011111111111111100000000000000000000000000000000001110001000000011000000000000000000110111111100000000000000000000000000000000000000000000000000000000000
00000000000000000000000000000000000000000011100011111111111111000000000000000000000000000000000001110111111100110000000000000111001111111111111100000000000000000000000000000000000000000000000000000000
00000000000000000000000000000000000000000000000011111111100111100100000000000000000000000000000000000111111111110000000000011111111111111111111111100000000000000000000000000000000000000000000000000000
00000000000000000000000000000000000000000000000011111000000011111110000000000000000000000000000000001111111111100000000001111111111110111111111111111110000000000000000000000000000000000000000000000000
00000000000000000000000000000000000000000000000011100000000001111100000000000000000000000000000011110011111111100000001111111111111100111111111111111111111111000000000000000000001110000000000000000000
00000000000000000000000000000000000000000000000010000000000001111100000000000000000000000001111111110001111111100001111111111111100000111001111111111111111111110000000000000000001000000000000000000000
00000000000000000000000000000000000000000000000000000000000001111000000000000000000000000011111111111011111111100011111111111111000000110000011111111111111111111001111100000000000000000000000000000000
00000000000000000000000000000000000000000000000000000000000001111000000000000000000000000111111111111111111111100111111111001110000000011000011111111111111111111100011100000000000000000000000000000000
00000000000000000000000000000000000000010000000000000000000001111000000000000000000000011111111111111111111111000111111110000000000000001101111111111111111111111100111100000000000000000000000000000000
00000000000000000000000000000000011111111111111100000000000001111000000000000000000000111111111111111110111100000111111100000000000000000000111111111111111111111001111000000000000000000000000000000000
00000000000000000000000000000000011111111111101111100000000011111000000000000000000000111111111111111100011000000111111100000000000000000000000011111111111111111001111000000000000000000000000000000000
00000000000000000000000000000000011111111111000111111110000011110000000000000000000000111111111111111110000000000111000000000000000000000000000000000000001111111110000000000000000000000000000000000000
00000000000000000000000000000000000000000000001111111111110001110000000000000000000000111111111111110000000000000111000000000000000000000000000000000000000100111111000000000000000000000000000000000000
00000000000000000000000000000000000000000000000000111111111011110000000000000000000001111111111100000000000000000111000000000000000000000000000000000000000000111111110000000000000000000000000000000000
00000000000000000000000000001110000000000000000000000111111111111000000000000000000011111100111000000000000000000000000000000000000000000000000000000000000011111111110000000000000000000000000000000000
00000000000000000000000000001110000000000000000000000011111111110000000000000000000011110000000000000000001110000000000000001111111100000000000000000000011100111111100000000000000000000000000000000000
00000000000000000000000000000000000000000000000000000001111111111000110000000000000011110000000000000000000000000111000000011111111110000000000000000000011110111111100000000000000000000000000000000000
00000000000000000000000000000000000000000000000000000011111100011111111110000000000001110000000000000000000000001111000100111111111111000000000000000000111111111111111000000000000000000000000000000000
00000000000000000000000000000000000000000000000001111111111100000011111111100000000001110000000000111000000000001111001111110000111111100000000000000000111111111111111000000000000000000000000000000000
00000000000000000000000000000000000000000000000001111111111110000000111111111100000111110000111111111111100000001111111111000000111111100000000000000001111111111111000000000000000000000000000000000000
00000000000000000000000000000000000000000000000011111110111111000000000111111111111111100011111111111111100000001111111100000000111111100000111000000011111111110000000000000000000000000000000000000000
00000000000000000000000000000000000000000000000011111100111111000000000001111111111111111111111111111101110000001111111000000000111111100000111000111100111111110000000000000000000000000000000000000000
00000000000000000000000000000000000000000000000011111101111111000000000000000011111111111111111111111101110000001111100000000000111111100000111100011110111111111000000000000000000000000000000000000000
00000000000000000000000000000000000000000000000001110000111111000000000111000000111111111111111111111111111000001111000000000000111111100001111110011111111011111000000000000000000000000000000000000000
00000000000000000000000000000000000000000000000000011000011111000111000111000000011111111111111111111111001000001111000000000000111111110001111111100111111011111000000000000000000000000000000000000000
00000000000000000000000000000000000001110000000000111100011111100111000000000000011111111111111111111110000000001110000000000000111111111011111100000111111111110111111000000000000000000000000000000000
00000000000000000000000000000000000001110000000000111000011111100000000000000000011100000011111111111111000000001100000011111111111111111111100000000111111111100111111000000000000000000000000000000000
00000000000000000000000000000000000000000000000000000000011111000000000000000000011000000000011111111111111100011100011111111111111111111000000000000011111111100000000000000000000000000000000000000000
00000000000000000000000000000000000000000000000000000000011111000000000000000000000000000000000011111111111110111110111111111111111011100000000000000001111111000000000000000000000000000000000000000000
00000000000000000000000000000000000000000000000000000000111111000000000000000000000000000000000000111111111111111111111111111111111011100000000000001110011111000000000000000000000000000000000000000000
00000000000000000000000000000000000000000000000000000000111111000000000000000000000000000000000000111111111000000100000000000000111111000000000000011111011110000000000000000000000000000000000000000000
00000000000000000000000000000000000000000000000000000000111110000000000000000000000000000000000001111111110000000000000000000000111111000000000000011111111110000000000000000000000000000000000000000000
00000000000000000000000000000000000000000000000000001110111110000000111000000000000000000000000011111111111000000000000000000000011110000000000000011111111110000000000000000000000000000000000000000000
00000000000000000000000000000000000000000000000000001111111110000000111000001110000000000000000011111111111000000000000000000000011100000000000000011111111100000000000000000000000000000000000000000000
00000000000000000000000000000000000000000000000000000001111100000000000000001111100000000000000001111111111000000000000000000001111000000000000000011111111100000000000000000000000000000000000000000000
00000000000000000000000000000000000000000000000000000001111000000000000000000011110000000111001001111111111000000000000000000001111100000000000000100111111000000000000000000111000000000000000000000000
00000000000000000000000000000000000000000000000000000011110000000000000000000110000000000111001111111111110000000000000000000000111000000000000000110111111000000000000000000111000000000000000000000000
00000000000000000000000000000000000000000000000000000111111000000000000000011110000000000000001111111111110000111000000000000001110000011100000001111111111000000000000000000000000000000000000000000000
00000000000000000000000000000000000000000000000000001111110000000000000000011111000000000000011111111111100000111000000000001111100000011100000001111111111000000000000000000000000000000000000000000000
00000000000000000000000000000000000000000001110000011111000000000000000000111110000000000000011011111111100001111000000000111111000000000000000011111111110000000000000000000000000000000000000000000000
00000000000000000000000000000000000000000001110000111110001100000000000000111110000000000000111011111111000001111100000001111110000000000000000011111111110000000000000000000000000000000000000000000000
00000000000000000000000000000000000000000000000011111111011100000000000001111111000000000000111111111111000001111111111100011100000000000000000011111111110000000000000000000000000000000000000000000000
00000000000000000000000000000000000000000000000111111110000000000000000001111111000000000000111011111110100001111111111100000000000000000000000011111111100000000000000000000000000000000000000000000000
00000000000000000000000000000000000000011111111111111100000000000000000001000001110000100000111011111000100001111111111100000000000000000000000011111111100000000000000000000000000000000000000000000000
00000000000000000000000000000000000000011111111111111000000000000001110001000000111001111000111111110000000001111111111000000000000000000000000111111111000000000000000000000000000000000000000000000000
00000000000000000000000000000000000000111111111111110000000000000001110000011000111111111101111111100000000001111111100000000000000000000000000100111111000000000000000000000000000000000000000000000000
00000000000000000000000000000000000000111111111111100000000000000000000000000011001111111111111110001110000000000000000000000111000000000000001110111110000000000000000000000000000000000000000000000000
00000000000000000000000000000000000000111111111111000000000000000000000000000000000111111111000000001110000000000000000000000111000000000000001111111110000000000000000000000000000000000000000000000000
00000000000000000000000000000000000000111111111100000000000000000000000000000000000000000000000000000000000000000011100000000000000000000000001111111110000000000000000000000000000000000000000000000000
00000000000000000000000000000000000000111111110000000000000000000000000000000000000000000000000000000000000000000011100000000000000000000000001111110000000000000000000000000000000000000000000000000000
00000000000000000000000000000000000000011111000000000000000000000000000000000000000000000000000000000000000000000000000000000000000000000000000111000000000000000000000000000000000000000000000000000000
00000000000000000000000000000000000000000000000000000000000000000000000000000000000000000000000000000000000000000000000000000000000000000000000000000000000000000000000000000000000000000000000000000000
00000000000000000000000000000000000000000000000000000000000000000000000000000000000000000000000000000000000000000000000000000000000000000000000000000000000000000000000000000000000000000000000000000000
00000000000000000000000000000000000000000000000000000000000000000000000000000000000000000000000000000000000000000000000000000000000000000000000000000000000000000000000000000000000000000000000000000000
00000000000000000000000000000000000000000000000000000000000000000000000000000000000000000000000000000000000000000000000000000000000000000000000000000000000000000000000000000000000000000000000000000000
00000000000000000000000000000000000000000000000000000000000000000000000000000000000000000000000000000000000000000000000000000000000000000000000000000000000000000000000000000000000000000000000000000000
