P1
200 70
00000000000000000000000000000000000000000000000000000000000000000000000000000000000000000000000000000000000000000000000000000000000000000000000000000000000000000000000000000000000000000000000000000000
00000000000000000000000000000000000000000000000000000000000000000000000000000000000000000000000000000000000000000000000000000000000000000000000000000000000000000000000000000000000000000000000000000000
00000000000000000000000000000000000000000000000000000000000000000000000000000000000000000000000000000000000000000000000000000000000000000000000000000000000000000000000000000000000000000000000000000000
00000000000000000000000000000000000000000000000000000000000000000000000000000000000000000000000000000000000000000000000000000000000000000000000000000000000000000000000000000000000000000000000000000000
00000000000000000000000000000000000000000000000000000000000000000000000000000000000000000000000000000000000000000000000000000000000000000000000000000000000000000000000000000000000000000000000000000000
00000000000000000000000000000000000000000000000000000000000000000000000000000000000000000000000000000000000000000000000000000000000000000000000000000000000000000000000000000000000000000000000000000000
00000000000000000000000000000000000000000000000000000000000000000000000000000000000000000000000000000000000000000000000000000000000000000000000000000000000000000000000000000000000000000000000000000000
00000000000000000000000000000000000000000000000000000001110000000000000000000000000000000000000000000000000000000000000000000000000000000000000000000000000000000000000000000000000000000000000000000000
00000000000000000000000000000000011100000000000000000001110000000000000000000000000000000000000000000000000000000000000000000000000000000001000000000000000000000000000000000000000000000000000000000000
00000000000000000000000000000000011100000000000000000000000000000000000000000000000000000000000000000000000000000000000000000000000000000001100000000000000000000000000000000000000000000000000000000000
00000000000000000000000000000000000000000000000000000000000000000000000000000000000000000000000000000000000000000000000000000000000000000000000000000000000000000000000000000000000000000000000000000000
00000000000000000000000000000000000000000000000000000000000000000000000000000000000000000000000000000000000000000000000000000000000000000000000000000000000000000000111000000000000000000000000000000000
00000000000000000000000000000000000000011100000111111110001110000000000000000000000000000000000000000000000000000000000000000000000000111000000000000000000000000000111000000000000000000000000000000000
00000000000000000000000000000000000000011100011111111111001110000000000000000000000000000000000000000000000000000000000000000000000111111000000000000000000000000000000000000000000000000000000000000000
00000000000000000000000000000000000000000001111111111111100000000000000000000000000000000000000000000000000000000000000011110001111001111100000000000000000000111000000000000000000000000000000000000000
00000000000000000000000000000000000000000111111111111111110000000000000000000000000000000000000000000000000000000000011111111111111100111100000000000000000000111000000000000000000000000000000000000000
00000000000000000000000000000001110011111111111111111111110000000000000000000000000000000000000000000000000000000000011111111111111111000000000000000000000000000000000011111100000000000000000000000000
00000000000000000000000000000001110011111111111111111111111000000000000000000111000000000000000000000000000000000000111111111100110011100000000000000000000000000000011111111111000000000000000000000000
00000000000000000000000000000000000011111111111100001111111000000000000000001111100011100000000000000000000000000000111111111100000011111000000000000000000000000001111111111111100000000000000000000000
00000000000000000000000000000000000111111111000000000111111100000000000001111111111100011111111000000000000000000000111111111110001111111000000000000000000000000011111111001111100000000000000000000000
00000000000000000000000000000000001111001110000000000011111100000000010011111111111110111111111111000000000000000000111110000000001111110000000000000000000111000011111100000111110000000000000000000000
00000000000000000000000000000000001110000100000000000011111110000111111111111111111111111111111111100000000000000000000000000000001111000000000000000000000111000111110000000011111000000000000000000000
00000000000000000000001110000000001111000000000000111011111111111111111111111111111111111111111111111111111100000000000000000000011111000000000000000000000000000011100000000011111100000000000000000000
00000000000000000000001110000000000111000000000000111001111111111111110000001111111111111111111111111111111111100000000000000000011111100000000000000000000000000011100000000011111100000000000000000000
00000000000000000000000000000000000110000000000000000001111111110010000000000111111111111110111111111111111111111110000000000000011111100000000000000000000000011000000000000011111000000000000000000000
00000000000000000000000000000000000000000000000000000011111111100000000000001111111111111110111111111100001111111111100000000000111111000000000000000000000000111000000000000011111000000000000000000000
00000000000000000000000000001110000000000000000000001111111111000000000000001110111111111111111111110000000000011111110000000000111111000000000000000000000001111100000000000011111000000000000000000000
00000000000000000000000000001110000000000000000000011111111110000000000000000100011111111111111111100000000000000000111111000000111100000000000000000000000011111100000000000001110000000000000000000000
00000000000000000000000000000000000000000000000000111110111100000000000000000111100000000111111111100000000000000000011111111000011100000000000000000000000111111000000000000001110000000000000000000000
00000000000000000000000000000000000000000000000111111110111000000000000000000111100000000000000111000000000000000000001111111110011110000000000000000000001111111000000000000111111000000000000000000000
00000000000000000000000000000000000000000000011111111111110000000000000000000111110000000000000000000000000000000000000011111111111110000000000000000000000111110000000000000111111000000000000000000000
00000000000000000000000000000000000000000001111111111111110000000000000000000111111111000000000000000000000000000000000000011111111100000000000000000111000111110000000000000111110000000000000000000000
00000000000000000000000000000000000000000011111111111111111100000000000000000111111111111100000000000000000000011100000000001111111110000000000000000111011111100000000000000111110000000000000000000000
00000000000000000000000000000000000000001111111111111111111110000000000000000111111111111111000000000000000000000100000000000111111111100000000000000000001111100000000000001111110000000000000000000000
00000000000000000000000000000000000000111111111111111111111100000000000000000011110111111111100000000000000000000000000000001111111111111100010000000000011111100000001000011111100000000000000000000000
00000000000000000000000000000000000001111111111111111111110000010000000000000001110111111111000000000000000000000000000000011111110001100011111111000001111111100001111000011111100000000000000000000000
00000000000000000000000000000000000011111100111110000001100011111000000000000011111111111000000111000000000000000000000000000111100000000011111111111111111111110011111000011111100000000000000000000000
00000000000000000000000000000000001111111000110000000000011111111000000000000011111111100000111111100000000000000000000000000111100000000000111111111111111111111111111000111111100000000000000000000000
00000000000000000000000000000000011111110011100000000000000111111100000000000011111111000111111111110000000000000000000000111111000000000000000000111111111111111000000000111111000000000000000000000000
00000000000000000000000000000000111111100011100000000000000111111100000000000000111111100011111111000000000000000000000001111111000000000000000000001111111111100000000001111110000000000000000000000000
00000000000000000000000000000000011110000000000000000000000011111110000000000000000001100011111111011100000000111000000011111110000000000000000000000111111111000000000000111110000000000000000000000000
00000000000000000000000000000000011100000000000000000000000011111110000000000000000000000000111111111100000000111000000111111110000000000000000000000111111000000000000001111111100000000000000000000000
00000000000000000000000000000000001000000000000000000000000001111111000000000000000000000000011111111110000000000000001111111100000000000000000000001111111000000000000011111110000000000000000000000000
00000000000000000000000000000000000000011100000000000000000001111111000000000000000000000000011111111000000000000000000111111000000000000000000000011111110000000000000111111100000000000000000000000000
00000000000000000000000000000000000000011100000000000000000001111111000000000000000001110000001111111001000000000000000111111000000000000001110000011110000000000000000111111000001110000000000000000000
00000000000000000000000000000000000000000000000000000000000001111111000000000000000001110000000011111111000000000000111001111000000000000001110000011110000000000000001000111000001110000000000000000000
00000000000000000000000000000000000000000000000000000000000001111111000000000000000000000000000001111111100000000001111101110000000000000000000000111111100000000000011000011000000000000000000000000000
00000000000000000000000000000000000000000000000000000000000011111111000000000000000000000000000000111111100000000011111111100000000000000000000000111111100000000000011100010000000000000000000000000000
00000000000000000000000000000000000000000000000000000000000111111111000000000000000000001110000000011111100000000011111111000000000000111000000000111101100000000000111111100000000000000000000000000000
00000000000000000000000000000000000000000000000000000000000111111111000000000000000000001110000000011111110000000111111111000000000000111000000000111100100000000000111110000000000000000000000000000000
00000000000000000000000000000000000000011110000000000010000011111110000000000000001111000000000000001111110000001111111110000000000000000000000000111110000000000001111100000000000000000000000000000000
00000000000000000000011100000000000000011110001111000111110111111110000000000000011111111000000000000111110000011111111000000000000000000000000000111111000000000011111110000000000000000000000000000000
00000000000000000000010000000000000000001111011111111111111111111100000000000000011111111110000000000111110001111111110000000000000000000000000001111111000000000001111100000000000000000000000000000000
00000000000000000000000000000000000000001111111111111111111101111000000000000000001111111111000000000111100000111111100000000000000011100000000001111111000000011001111000000000000000000000000000000000
00000000000000000000000000000000000000001111111111111111111000110000000000000000001111111111100000000111100100011111100000000000000011100000000001111111100111111111110000000000000000000000000000000000
00000000000000000000000000000000000000000001111111111111111100000000000000000000000111111111111000001111101100111110000000000000000000000000000001111111111111111111000000000000000000000000000000000000
00000000000000000000000000000000000000000000001110000011000000000000000000001110000011111111111111000111000111111100000000000000000000000000000001111111111111111100000111000000000000000000000000000000
00000000000000000000000000000000000000000000000000000000000000000000000000001110000001111111111111101110000001111100000000000000000000000000000000011111111111100000000110000000000000000000000000000000
00000000000000000000000000000000000000000000000000000000000000000000000000000000000000111111111111111100000000000000000000000000000000000000000000001111111110000000000000000000000000000000000000000000
00000000000000000000000000001110000000000000000000000000000000000000000000000000000000001111111111111000000000000000000000000000000000000000000000000000000000000000000000000000000000000000000000000000
00000000000000000000000000001110000000000000000000000000000000000000000000000000000000000001111111110000000000000000000000011100000000000000000000000000000000000000000000000000000000000000000000000000
00000000000000000000000000000000000000000000000000000000000000000000000000000000000000000000000001110000000000000000000000011101110000000000000000000000000000000000000000000000000000000000000000000000
00000000000000000000000000000000000000000000000111000000000000000000000000000000000000000000000001100000000000000000000000000001110000000000000000000000000000000000000000000000000000000000000000000000
00000000000000000000000000000000000000000000000111000000000000000000000000000000000000000000000000000000000000000000000000000000000000000000000000000000000000000000000000000000000000000000000000000000
00000000000000000000000000000000000000000000000000000000000000000000000000000000000000000000000000000000000000000000000000000000000000000000000000000000000000000000000000000000000000000000000000000000
00000000000000000000000000000000000000000000000000000000000000000000000000000000000000000000000000000000000000000000000000000000000000000000000000000000000000000000000000000000000000000000000000000000
00000000000000000000000000000000000000000000000000000000000000000000000000000000000000000000000000000000000000000000000000000000000000000000000000000000000000000000000000000000000000000000000000000000
00000000000000000000000000000000000000000000000000000000000000000000000000000000000000000000000000000000000000000000000000000000000000000000000000000000000000000000000000000000000000000000000000000000
00000000000000000000000000000000000000000000000000000000000000000000000000000000000000000000000000000000000000000000000000000000000000000000000000000000000000000000000000000000000000000000000000000000
00000000000000000000000000000000000000000000000000000000000000000000000000000000000000000000000000000000000000000000000000000000000000000000000000000000000000000000000000000000000000000000000000000000
