P1
200 70
00000000000000000000000000000000000000000000000000000000000000000000000000000000000000000000000000000000000000000000000000000000000000000000000000000000000000000000000000000000000000000000000000000000
00000000000000000000000000000000000000000000000000000000000000000000000000000000000000000000000000000000000000000000000000000000000000000000000000000000000000000000000000000000000000000000000000000000
00000000000000000000000000000000000000000000000000000000000000000000000000000000000000000000000000000000000000000000000000000000000000000000000000000000000000000000000000000000000000000000000000000000
00000000000000000000000000000000000000000000000000000000000000000000000000000000000000000000000000000000000000000000000000000000000000000000000000000000000000000000000000000000000000000000000000000000
00000000000000000000000000000000000000000000000000000000000000000000000000000000000000000000000000000000000000000000000000000000000000000000000000000000000000000000000000000000000000000000000000000000
00000000000000000000000000000000000000000000000000000000000000000000000000000000000000000000000000000000000000000000000000000000000000000000000000000000000000000000000000000000000000000000000000000000
00000000000000000000000000000000000000000000000000000000000000000000000000000000000000000000000000000000000000000000000000000000000000000000000000000000000000000000000000000000000000000000000000000000
00000000000000000000000000000000000000000000000000000000000000000000000000000000000000000000000000111000000000000000000000000000000000000000000000000000000000000000000000000000000000000000000000000000
00000000000000000000000000000011100000000000000000000000000000000000000000000000000000000000000000111000000000000000000000000000000000000000000011101110000000000000000000000000000000000000000000000000
00000000000000000000000000000011100000000000000000000000000000000000000011100000000000000000000000000000000000000000000000000000000000001110000011101000000000000000000000000000000000000000000000000000
00000000000000000000000000000000000000000000000000000000000000000000000011000000000000000000000000000000000000000000000000000000000000001000000000000000000000000000000000000000000000000000000000000000
00000000000000000000000000000000000000000000000000000000000000000000000000000000000000000000000000000000000000000000000000000000000000000000000000000000000000000000000000000000000000000000000000000000
00000000000000000000000000000000000000000000000000000000000000000000000000000000000000000000000000000000000000000000000000000000000000000000000000000000000000000000000000000000000000000000000000000000
00000000000000000000000000000000000000000000000000000000011111000000000000000000000000000000000000000000000000000000000000000000000000000000111000000000000001110000000000000000000000000000000000000000
00000000000000000000000000000000000000000000000000000000111111111000000000000000000000000000000000000000000000000000000000000000000000000000110000000011100001110000000000000000000000000000000000000000
00000000000000000000000000000000000000000000000000000001111011111100000000000000000000000000001111111111110000000000000000000000000000000000000000000011111000000000000000000000000000000000000000000000
00000000000000000000000000000000000000000000000000000011110011111110000000000000000000001111111111111111111111000000000000000000000000000000000000000011011000000000000000000000000000000000000000000000
00000000000000000000000000000000000000000000000000000111001111111111000000000000000001111111110111111111111111111000000000000000000000000000000111000110011000000000000000000000000000000000000000000000
00000000000000000000000000000000000000000000000000000110001111111111000000000000000111111111110111111111111111111000000000000000000000000000000001000001111000000000000000000000000000000000000000000000
00000000000000000000000000000000000000000000000000001110000011111111000000000000001111111111111111111111111111000000000000000000000000000000000000111000111000000000000000000000000000000000000000000000
00000000000000000000000000000000011111110000000000001110000001111111100000000000011111111111111111111111111111000000000000011100000000000000010001111100111000000000000000000000000000000000000000000000
00000000000000000000000000000000111111111111111000011100000000111111100000000000111111111111111111111111111111000000000000011111000000000001111111111111111000000000000000000000000000000000000000000000
00000000000000000000000000000011111111111111001111111110000000111111100000000001111111111111111111001111111110000000000000111111000000000000001111100111111000000000000000000000000000000000000000000000
00000000000000000000000000000011111111111110000111111111110001111111100000000011111111111111111100000111110110000000000001111011000000000000001110000111111000000000000000000000000000000000000000000000
00000000000000000000000000000000000000000000000111111111111111111111100000000111111111111111000000000000000010011100000111111001000000000000000000000111111000000000000000000000000000000000000000000000
00000000000000000000000000000000000000000000000000000111111111111111100000011001111111111110000000000000000000011111111111111111000000000000000000000111110000000000000000000000000000000000000000000000
00000000000000000000000000000000000000000000000000000000011111111111111111000001111111111000000000000000000000011111111111111111000000000000000000000111110000000000000000000000000000000000000000000000
00000000000000000000000000000000000000000000000000000000000011111111111111100011111111111000000000000000000000001111111111111111100000000000000000000111110000000000000000000000000000000000000000000000
00000000000000000000000000000000000000000000000000000000000001111110011111111111111111111111111111111111111110011111111111111111111111000000000000000111000000000000000000000000000000000000000000000000
00000000000000000000000000000000000000000000000000000000000011111100000011111111011111111111111111111111111111111111111111111111111111111100010000001111000000000000000000000000000000000000000000000000
00000000000000000000000000000000001110000000000000000000000111111100000001111111011111111111111111111111111111111111111111111111111110111111111110001111100000000000000000000000000000000000000000000000
00000000000000000000000000000000001110000000000000000000001111111000000001111111111111111111111111111111111111111111111111111111111100011111111111111111110000000000000000000000000000000000000000000000
00000000000000000000000000000000000000000000000111000000011111111000000001111111111111111111111011111100111110000000000001111111000000000000111111111111110000000000000000000000000000000000000000000000
00000000000000000000000000000000000000000000000111000000111101110000000001110111111111111111111011111100111110000000000001111111000000000000000111110111111000000000000000000000000000000000000000000000
00000000000000000000000000000000000000000000000000000011111101111000000001110111011111111111111111111111111110000000000001111111000000000000000000100111111110000000000000000000000000000000000000000000
00000000000000000000000000000000000000000000000000000111111111111110000001111111011111111111111111111111111100000000000001111111000000000000000000001111111111000000000000000000000000000000000000000000
00000000000000000000000000000000000000000000000000001111111111111111000001111111111111111111111111111111111100000000000001111111000000000000000000001111111111110000000000000000000000000000000000000000
00000000000000000000000000000000000000000000000000000000011101111111000001111111110111111111111111111111011110000000000000111111000000000000000000001111100111111100000000000000000000000000000000000000
00000000000000000000000000000000000000000000000000000000001001111111000001111111110111111110011111111111011110000000000000111111000000000000000000011111000001111110000000000000000000000000000000000000
00000000000000000000000000000000000000000000000000000000000111111111100000111111111111110000000111111111111111000000000000111111000000000000000000011111000000111111000000000000000000000000000000000000
00000000000000000000000000000000000000000000000000000000000011111111100000111111111111100000000001111111111111000000001111111110000000000000000000011111000000001111100000000000000000000000000000000000
00000000000000000000000000000000000000000000000000000000000001111111100001110011111111000000000000111111111111100000001110000000000000000000000000011111000000000001110000000000000000000000000000000000
00000000000000000000000000000000000000000000000000000000000001111111110001100001111110000000000000111111111111100000000000000000000000000000000000011111000000000000111000000000000000000000000000000000
00000000000000000000000000000000000000000000000000000000000001111111100001000000111000000000000000111111111111100000000000111111000000000000000000011111000000000000111100000000000000000000000000000000
00000000000000000000000000000000000011100000000001110000000001111111100001100000111000000000000000011111111111100000000000111111000000000000000000111111000000000000111001100000000000000000000000000000
00000000000000000000000000000000000011100011100001110000000001111111100001111111111110000000000000011111111111100000001111111111000000000000000000111111000000000000010001100000000000000000000000000000
00000000000000000000000000000000000000000011100000000000000000111111100001111111111110000000000000011110111111000000001111111111000000000000000000111111000000000000000000000000000111000000000000000000
00000000000000000000000000000000000000000000000000000000000000111111100000111111111111000000000000111110111111000000000111111111000000000000000000111110000001110000000000000000000111000000000000000000
00000000000000000000000000000000000000000000000000000000000000111111100000011110111111000000000000011111111111000000000001111111000000000000000001111110000001111100000000000000000000000000000000000000
00000000000000000000000000000000000000000000000000000000000000111111100000111110111111100000000000011111111111000000000000111111000000000000000001111110000000011100000000000000000000000000000000000000
00000000000000000000000000000000000000000011100000000000000000111111000001111111111111100000000000111101111111000000000000111111000000000000000011111110000000000000000000000000000000000000000000000000
00000000000000000000000000000000000000000011100000000000000001111111000001111111111111110010000000111101111111000000000000111110000000000000000011111110000000000000000000000000000000000000000000000000
00000000000000000000000000000000000000000000000000000000000001111110000001100111111111111111111001111111111111000000000000111110000000000011110011111110000000000000000000000000000000000000000000000000
00000000000000000000000000000000000000000000000111000000000011111110000011100011111111111111111111111111111110000000111000111111000000001111111111111111110000000000000000000000000000000000000000000000
00000000000000000000000000000000000000000000111110000000000011111100000011100001111111111111111001111111111110000000111000111111000000001111111111111111111000000000000000000000000000000000000000000000
00000000000000000000000000000000000000000001111110010000000111111000000000000000111111111111110000011111111100000000000000011110000000001111100111111111111111000000000000000000000000000000000000000000
00000000000000000000000000000000000000000001111111111000001111110000000000000000011111111111111000011111111000000000000000011110000000000000000000000011111111100000000000000000000000000000000000000000
00000000000000000000000000000000000000000001111111111110011111000000000000000000000111111111111111111100110000000000000000011110000000000000000000000000000000000000000000000000000000000000000000000000
00000000000000000000000000000000000000000001111111111111001110000000000000000000000000111111111111111000000000000000000000011110000000000000000000000000000000000000000000000000000000000000000000000000
00000000000000000000000000000000000000000011111111111111000000000000000000000000000000000001111111111100000011100000000000011000000000000000000000000000000000000000000000000000000000000000000000000000
00000000000000000000000000000000000000000011111111110011000000011100000000000000000000000000011110110011100000000000000000000000000000000000000000000000000000000000000000000000000000000000000000000000
00000000000000000000000000000000000000000001111111100000000000011100000000000000000000000000000000000011111000000000000000000000000000000000000000000000000000000000000000000000000000000000000000000000
00000000000000000000000000000000000000000000011111100000000000000000000000000000000000000000000000000000111000000000000000000000000000000000000000000000000000000000000000000000000000000000000000000000
00000000000000000000000000000000000000000000000000000000000000000000000000000000000000000000000000000000000000000000000000000000000000000000000000000000000000000000000000000000000000000000000000000000
00000000000000000000000000000000000000000000000000000000000000000000000000000000000000000000000000000000000000000000000000000000000000000000000000000000000000000000000000000000000000000000000000000000
00000000000000000000000000000000000000000000000000000000000000000000000000000000000000000000000000000000000000000000000000000000000000000000000000000000000000000000000000000000000000000000000000000000
00000000000000000000000000000000000000000000000000000000000000000000000000000000000000000000000000000000000000000000000000000000000000000000000000000000000000000000000000000000000000000000000000000000
00000000000000000000000000000000000000000000000000000000000000000000000000000000000000000000000000000000000000000000000000000000000000000000000000000000000000000000000000000000000000000000000000000000
00000000000000000000000000000000000000000000000000000000000000000000000000000000000000000000000000000000000000000000000000000000000000000000000000000000000000000000000000000000000000000000000000000000
00000000000000000000000000000000000000000000000000000000000000000000000000000000000000000000000000000000000000000000000000000000000000000000000000000000000000000000000000000000000000000000000000000000
