P1
200 70
00000000000000000000000000000000000000000000000000000000000000000000000000000000000000000000000000000000000000000000000000000000000000000000000000000000000000000000000000000000000000000000000000000000
00000000000000000000000000000000000000000000000000000000000000000000000000000000000000000000000000000000000000000000000000000000000000000000000000000000000000000000000000000000000000000000000000000000
00000000000000000000000000000000000000000000000000000000000000000000000000000000000000000000000000000000000000000000000000000000000000000000000000000000000000000000000000000000000000000000000000000000
00000000000000000000000000000000000000000000000000000000000000000000000000000000000000000000000000000000000000000000000000000000000000000000000000000000000000000000000000000000000000000000000000000000
00000000000000000000000000000000000000000000000000000000000000000000000000000000000000000000000000000000000000000000000000000000000000000000000000000000000000000000000000000000000000000000000000000000
00000000000000000000000000000000000000000000000000000000000000000000000000000000000000000000000000000000000000000000000000000000000000000000000000000000000000000000000000000000000000000000000000000000
00000000000000000000000000000000000000000000000000000000000000000000000000000000000000000000000000000000000000000000000000000000000000000000000000000000000000000000000000000000000000000000000000000000
00000000000000000000000000000000001110000000000000000000000000000000000000000000000000000000000000000000000000000000000011100000000000000000000000000000000000000000000000000000000000000000000000000000
00000000000000000000000000000000001110000000000000000000000000000000000000000000000000000000000000000000000000000000000011100000000000000000000000000000000000000000000000000000000000000000000000000000
00000000000000000000000000000000000000000000000000000000000000000000000000000000000000000001110000000000000000000000000000000000000000000000000000000000000000000000000000000000000000000000000000000000
00000000000000000000000000000000000000000000000000000000000000000000000000000001110000000001110000000000000000000000000000000000000000000000000000000000000000000000000000000000000000000000000000000000
00000000000000000000000000000000000000000000000000000000000000000000000000000001110000000000000000000000000000000000000000000000000000000000000000000000000000000000000000000000000000000000000000000000
00000000000000000000000000000000000000000000000000000000000000000000000000000000000000000000000000000000000000000000000000000000000000000000000000000000000000000000000000000000000000000000000000000000
00000000000000000000000000000000000000000000000000000000000000000000000000000000000000000000000000000000000000000000000000000000000000000000000000000000000000000000000000011100000000000000000000000000
00000000000000000000000000000000001110000000000000000000000000000000000000000000000000000000000000000000000000000000000000000000011100000000000000000000000000000000000000010000000000000000000000000000
00000000000000000000000000000000001110000000000000000000000000000000000000000000000000000000000000000000000000000000000000000000011100000000000000000000000000000000000000000000000000000000000000000000
00000000000000000000000000000000001110000000000000000000000000000000000000000000000000000000000000000000000000000000000000000000000000000000000000000000000000000000000000000000000000000000000000000000
00000000000000000000000000000000000000000000000100001111111000000000000000000000000000000001100000000000000000000000000000000000000000000000000000000000000000000000000000000000000000000000000000000000
00000000000000000000000000000000000000000000011110011111111110000000000000000000000000000000000000000000000000000000000000000000000000000000000000000000000000000000000010011100000000000000000000000000
00000000000000000000000000000000000000000000011111111111111111000000011100000000000000000000000010000000000000000000000000000000000000000000000000000000000000000001100111111100000000000000000000000000
00000000000000000000000000000000000000000000111111111111111111111000011100000000000000001100000010000000000000000000000000000000000000000000000000000000000000000011111111111100000000000000000000000000
00000000000000000000000000000000000011100000110111111111111111111100000000000000000000001100000000000000000000000000000000000000000000000000000000000000000000001100111111111100000000000000000000000000
00000000000000000000000000000000000011100000110011111100011111111110000000000000000000011110000000000000000000000000000000000000000000000000000000000000000001110000111111111000000000000000000000000000
00000000000000000000000000000000000000000000111100000000001111111110000000000000000000111110000000000000000000000000000000000000000000000000000000000000000011111001111111111000000000000000000000000000
00000000000000000000000000000000000000000000110000000000000011111110000000000000000000111100000000000000000000000000000000000000000001110000000000000000000111111001111111110000000000000000000000000000
00000000000000000000000000000000000000000000000000000000000001111111000000000000000001111100000000000000000000000000000000000000011111110000000000000000000111100001111111110000000000000000000000000000
00000000000000000000000000000000000000000000000000000000000001111110000000000000011111111100000000000000000000011100000000000000111111110000000000000000000111000011111111110000000000000000000000000000
00000000000000000000000000000000000000000000000000000000000001111110000000000000011111111000000000000000000000011100000000001111111111110000000000000000000000000111111111110000000000000000000000000000
00000000000000000000000000000000000000000000000000000000000001111110000000000000001111111000000000000000000000011100000000011111100011111000000000000000000000000111111111110000000000000000000000000000
00000000000000000000000000000000000000000000000000000000000001111111000000000000001111111000000000000000000000000000000000011110000000111100001110000000000000000111111111100000000000000000000000000000
00000000000000000000000000000000011111110000000000000000000001111110000000000000001111110000000000000000000000000000000000011100000000011110001110000000000000000000011111100000000000000000000000000000
00000000000000000000000000000000011111111111111000000000000001111110000000000000001111110000000000000000000000000000000000011000000000001110000000000000000000000000011111100000000000000000000000000000
00000000000000000000000000000000011111111111111111111110000000111110000000000111011111111110001000111000000000000000000000000000000000000111000000000000000000001111111111000000000000000000000000000000
00000000000000000000000000000000000000011111111111101111110001111100000000000111111111111111111100111000000000000000000000000000000000000011000000000000000000001111111111000000000000000000000000000000
00000000000000000000000000000000000000000000000111000111111111111100000000000001111111111111111111000000000000000000000000000000000000000111000000000000000000000111111111000000000000000000000000000000
00000000000000000000000000000000000000000000000011001111111111111111000000000000111111111111111111100000000000000000000111000000000000000011100000000000000000000111111110000000000000000000000000000000
00000000000000000000000000000000000000000000000111111111011111110111100000000000011111110011111111100000000000000000000000000000000000000011100000000000000000011111111110000000000000000000000000000000
00000000000000000000000000000000000000000000000111100111011111100011110011100100111111100001111111100000000000000000000000000000000000000111100000000000000000011111111100000000000000000000000000000000
00000000000000000000000000000000000000000000000111000111111111000011111111111111111111000000111111110000000000000000000000000000000000001111000000000000000000011111111100000000000000000000000000000000
00000000000000000000000000000000000000000000000111001111111111000000001111111111111111000000111111110000000000000000000000000000000000001110000000000000000000111111111100000000000000000000000000000000
00000000000000000000000011100000000000000000000111111111111111000000000001111111111111000000111111111000000000000000000000000000000000111110000000000000000000111111111100000000000000000000000000000000
00000000000000000000000011100000000000000000000000001111111111110000000000000111111111100011111111111000000000000000000000000000000011100010000000000000000000111111111100000000000000000000000000000000
00000000000000000000000000000000000000000000000000000000011111110000000000000011111111111111111111111000000000000000000000000000001111100000000000000000000000011111111000000000000000000000000000000000
00000000000000000000000000000000000000000000000000000000001111110000000000000011110111111111111111111100000000000000000000000000011111100000000000000000000000111111111000000000000000000000000000000000
00000000000000000000000000000000000000000000000000000011101111100000000000000001110111100011111111111110000000000000000000000001111110000000000000000000000001111111111000000000000000000000000000000000
00000000000000000000000000000000000000000000000000000011100111100000000000000001111111000000111111111111111000000000000000000001111100000000000000000000000011111111111000000000000000000000000000000000
00000000000000000000000000000000000000000000011100000000000111111000000000000000111011000000011111111111111100100000001111110011100000000000000000000000000111111111110000000000000000000000000000000000
00000000000000000000000000000000000000000111011100000000000111111000000000000000111011000000011111111111111111111110011111111111000000000000000000000000001111111111110000000000000000000000000000000000
00000000000000000000000000000000000000000111000000000000001111111000000000000001111111000000111111111100001111111111111111111110000000000000000000000000111111111111110000000000000000000000000000000000
00000000000000000000000000000000000000000000000000000000011111111000000000000001111111100000111111100000000000111111111111111110000000000000000000111111111111111111100000000000000000000000000000000000
00000000000000000000000000000000011100000000001110000000011111111000000000000000111111100000111111000100000000001111111111111111000111111111111111111111111111111111100000000000000000000000000000000000
00000000000000000000000000000000011100000000001110000000001111111000000000000000111110000000011111011100000000001111111111111111111001111111111111111111111111111110000000000000000000000000000000000000
00000000000000000000000000000000000000000000000000000000001111110000000000000000011100011000111110000000000100011111110000000011111000111111111111100000001111111100000011000000000000000000000000000000
00000000000000000000000000000000000000000000000000000000011111110011100000000000000111110001111000000000011111111111000000000001110001111111100000000000001111111110000111000000000000000000000000000000
00000000000000000000000000000000000000000000000000000001111111110011100000000000000000100000000000000000000011111110000000000000000001110000000000000000001111111111111111000000000000000000000000000000
00000000000000000000000000000000000000111000000011100011111111100000000000000000000000000000000000000000000011111111100000000000000011110000000000000000001110011111111110000000000000000000000000000000
00000000000000000000000000000000000000111000000011111111111111000000000000000000000000000000000000000000000011111111111100000000000011110000000000000000001110000111001000000000000000000000000000000000
00000000000000000000000000000000000000111100111111111111011111000000000000000000000000000000000100000000000000111111111100000111111011110000000000000000011111100010000000000000000000000000000000000000
00000000000000000000000000000000000001111111111111111111011100000000000000000000000000011100011000000000000000000011100000000111110001110000000000000011111111000000000000000000000000000000000000000000
00000000000000000000000000000000000001111111111111111111111000000000000000000000000000011100000000000000000000000000000000000011110001100000000000001111111110000000000000000111111000000000000000000000
00000000000000000000000000000000000000111111011111111111110000000000000000000000000000000000000000000000000000000000000000000000000000000000000000011111111110000000000000000111111000000000000000000000
00000000000000000000000000000000000000011110011111111100000000000000000000000000000000000000000000000000000000000000000000000000000000000000000000111111111000000000000000000000000000000000000000000000
00000000000000000000000000000000000000011001111111111000000000000000000000000000000000000000000000000000000000000000000000000000000000000000000001111111000000000000000000000000000000000000000000000000
00000000000000000000000000000000000000010000001000000000000000000000000000000000000000000000000000000000000000000000000000000000000000000000000001111100000000000000000000000000000000000000000000000000
00000000000000000000000000000000000000000000000000000000000000000000000000000000000000000000000000000000000000000000000000000000000000000000000001110000000000000000000000000000000000000000000000000000
00000000000000000000000000000000000000000000000000000000000000000000000000000000000000000000000000000000000000000000000000000000000000000000000001000000000000000000000000000000000000000000000000000000
00000000000000000000000000000000000000000000000000000000000000000000000000000000000000000000000000000000000000000000000000000000000000000000000000000000000000000000000000000000000000000000000000000000
00000000000000000000000000000000000000000000000000000000000000000000000000000000000000000000000000000000000000000000000000000000000000000000000000000000000000000000000000000000000000000000000000000000
00000000000000000000000000000000000000000000000000000000000000000000000000000000000000000000000000000000000000000000000000000000000000000000000000000000000000000000000000000000000000000000000000000000
00000000000000000000000000000000000000000000000000000000000000000000000000000000000000000000000000000000000000000000000000000000000000000000000000000000000000000000000000000000000000000000000000000000
