P1
200 70
00000000000000000000000000000000000000000000000000000000000000000000000000000000000000000000000000000000000000000000000000000000000000000000000000000000000000000000000000000000000000000000000000000000
00000000000000000000000000000000000000000000000000000000000000000000000000000000000000000000000000000000000000000000000000000000000000000000000000000000000000000000000000000000000000000000000000000000
00000000000000000000000000000000000000000000000000000000000000000000000000000000000000000000000000000000000000000000000000000000000000000000000000000000000000000000000000000000000000000000000000000000
00000000000000000000000000000000000000000000000000000000000000000000000000000000000000000000000000000000000000000000000000000000000000000000000000000000000000000000000000000000000000000000000000000000
00000000000000000000000000000000000000000000000000000000000000000000000000000000000000000000000000000000000000000000000000000000000000000000000000000000000000000000000000000000000000000000000000000000
00000000000000000000000000000000000000000000000000000000000000000000000000000000000000000000000000000000000000000000000000000000000000000000000000000000000000000000000000000000000000000000000000000000
00000000000000000000000000000000000000000000000000000000000000000000000000000000000000000000000000000000000000000000000000000000000000000000000000000000000000000000000000000000000000000000000000000000
00000000000000000000000000000000000000000000000000000000000000000000000000000000000000000000000000000000000000000000000000000000000000000000000000000000000000000000000000000000000000000000000000000000
00000000000000000000000000000000000000000000000000000000000000000000000000000000000000000000000000000000000000011100000000000000000000000000000000000000000000000000000000000000000000000000000000000000
00000000000000000000000000000000000000000000000000000000000000000000000000000000000000000000000000000000000000011100000011100000000000001110000000000111000000000000000000000000000000000000000000000000
00000000000000000000000011100011100000000000000000000000000000000000000000000000000000000000000000000000000011100000000011100000000000001110000000000111000000000000000000000000000000000000000000000000
00000000000000000000000011100011100000000000000000000000000000000000000000000000000000000000000000000000000011100000000111000000011100000000000000000110000000000000000000000000000000000000000000000000
00000000000000000000000000000000000000000000000000000000000111000000000000000000000000000000000000000000000011110000000111000000011110000000000000001110000000000000000000000000000000000000000000000000
00000000000000000000000000000000000000000000000000000000000111000000000000000000000000000000000000000000011111111111111110000000000000000000000000001110000000000000000000000000000000000000000000000000
00000000000000000000000000000000000000000000000000000000000000000000000000000000000001110000000000000000111111111111111111000000000000000000000000000111111100000000000000000000000000000000000000000000
00000000000000000000000000000000000000000000000000000000000000000000000000000011111111111100000000000000111111111111111111111100000000000000000000001111111000111100000001110000000000000000000000000000
00000000000000000000000000000000000000000000000000000000000000000000000000001111111111111110000000000000011111111111101111111110000000000000000000011111111101111110000001110000000000000000000000000000
00000000000000000000000000000000000000000000000000001110000000000000000000111111111111111111100000000000000111111111101111111111100000000000000000111111111111111111100000000000000000000000000000000000
00000000000000000000000000000000000000000000000000111111100000000000000001111111111111111111110000000000000111101111111111111111110000000000000001111111111111111111110000000000000000000000000000000000
00000000000000000000000000000000000000000000000001111111110000000000000011111111111111111111110000000000011111101111111111111011111000011100000011111100111111111111111000000000000000000000000000000000
00000000000000000000000111000000000000000000000011111111111000000000000111111000000000011111111111000000011111111111111111111011111000011100000111111000000000011111111000000000000000000000000000000000
00000000000000000000000111000000000000000000000000101111111000000000001111110000000000001111111110000000001110000001111111111111111100000000001111110000000000000111111100000000000000000000000000000000
00000000000000000000000000000000000000000000001000000111111000000000000111110000000000000111111100000000000000000000001111111011111100000000001111100000000000000111001100000000000000000000000000000000
00000000000000000000000000000000000000000000011000000000111000000000001111000000000000000001111100000000000000000000000111111011111100000111011111110000000000000010000100000000000000000000000000000000
00000000000000000000000000000000000000000000000000000000111000000001111110000000000000000001110000000000000000000000000011111111111000000111111111100000000000000011000000000000000000000000000000000000
00000000000000000000000000000000000000000000000000000011111000000011111000000000000000000000000000000000000000000000000011100111111000000000111111100000000000000011110000000000011100000000000000000000
00000000000000000000000000000000000000000000000000000111111000000011111000000000000000000000000000000000000000000000000000000011111100000000111111000000000001110001111110000000011100000000000000000000
00000000000000000000000000000000000000000000000000000011110000000011111100000000000000000000000000000000000000000000000000000111111100000001111111000000000001110001111110000000000000000000000000000000
00000000000000000000000000000000000011100000000000000111100000000111111000000000000000000000000000000000000000000000000011111111111000000001111111000000000000000001111110000000000000000000000000000000
00000000000000000000000000000000000011100001000000011111100000000111111000001111000000000000000000000000000011000000000011111111111000000001111110000000000000000011111110000000000000000000000000000000
00000000000000000000000000000000000000000111000000011111000000001111110001111111111110000000000000000000000011111100011111111111110000000011111110000000111000000011110111111000000000000000000000000000
00000000000000000000000000000000000000000000000000111110000000011111111111111111111111100000000000000000000011111111111111111111110000000011111000000111111111000011110111111000000000000000000000000000
00000000000000000000000000000000000000000000000011111100000000011111111111111111111111100000000000000000000111111111111111111111110000000111111000000111111111000111111110000000000000000000000000000000
00000000000000000000000000000000000000000000001111111000000000011111111111111110011100100000111111000000000111111111111111111111110000000111111100001111111111001111111110000000000000000000000000000000
00000000000000000000000000000000000000000001111111111100000000111111111111111100001000010001111111000000000111111111111111111111100000000111111100001111111111110011111110000000000000000000000000000000
00000000000000000000000000000000000000000011111111011110000000111111111110000000000000000011100000000000000011111111111111111110000000000111111100011111111111110001111100000000000000000000000000000000
00000000000000000000000000000000000000000011111110001110000000111111111000000000000011100011100000000000000011111111111111111000000000000111111101111111111111100011111100000000000000000000000000000000
00000000000000000000000000000000000000000000000000011110000000111111100000000000000001110001100000000000000001111111111111111000000000000111111100111001111110000011111100000000000000000000000000000000
00000000000000000000000000000000000000000000000000111110000000111111000000000000000001111011110000000000000000011111111111111000000000000111111110010000001100000001111100000000000000000000000000000000
00000000000000000000000000000000000000000000000000000000000000011111000000000000000000111111110000000000000000000001111111110000000000001111111111100000000000000011111000000000000000000000000000000000
00000000000000000000000000000000000000000000000000000000000000011111000000000000000000011111110000000000000000000000111111110000000000111111111100000000000000001111111000000000000000000000000000000000
00000000000000000000000000000000000000000000000000111111000000111001000000000000000000011111110000000000000000000000111111110000111111111111111000000000000000001111111000000000000000000000000000000000
00000000000000000000000000000000000000000000000000111111000000111011000000000000000000011111110000000000000000000000011111111011111111111111111000000000000000011111111000000000000000000000000000000000
00000000000000000000000000000000000000000000000000111111000000111111100001110000000000011111110000001110000000000000000001111111111111001111111000000001110000111111110111001110000000000000000000000000
00000000000000000000000000000000000000000000000000111110000000111111111101110000000000011111110000000110000000000000000001111111110000001111111000000001110000111111110111001110000000000000000000000000
00000000000000000000000000000000000000000000000000111110000000111100111100000000000000111111111000000111000000000000000011110111100000000111111100000000000000111111100000000000000000000000000000000000
00000000000000000000000000000000000000000000000000111110000000011000110000000000000000111111111000001111110000000011111111110111000000000111111100000000000001111111000000000000000000000000000000000000
00000000000000000000000000000000000000011100000001111000111000011100110000000000000000111111111000001111111100001111111111111111000000000011111110000000000011111111000000000000000000000000000000000000
00000000000000000000000000000000000000011100000001111000111000001110000000000000000000111111111000001111111110011111111111111111000000000011111111100000001111111110000000000000000000000000000000000000
00000000000000000000000000000000000000000000000011110000000000000111001100000000000001111111110000001000111111111111111111111111000000000001111111111000111111111100000000000000000000000000000000000000
00000000000000000000000000000000000000000000000111100000000000000111111111110000000001111111110000001100001110111111111111111110000000000000111111110001111111111000000000000000000000000000000000000000
00000000000000000000000000000000111000000111001111000000000000000011111111110000000000111111100000111111001110111111111111111110000000000000011111111011111111110000000000000000000000000000000000000000
00000000000000000000000000000001111111011111111110000000000000000000111111111000001100111111110001111111111111111111111111111110000000000000000111111111111111000000000000000000000000000000000000000000
00000000000000000000000000000000111111111111000000000000000000000000011111111101111111111111111111111111111111111111111111101110000000000000000000111111100000000000000000000000000000000000000000000000
00000000000000000000000000000000111111111111000000000000000000000000001111111111111111111111111111111000111111111111111111100100000000000000000000000000000000000000000000000000000000000000000000000000
00000000000000000000000000000011111111111100000000000000000000000001100011111111111111101111111110000000011111111111111111111000000000000000000000000000000000000000000000000000000000000000000000000000
00000000000000000000000000000001011100111000000000000000000000000000000000111111111111101111110000000000000011111111111111111000000000000000000000000000000000000000000000000000000000000000000000000000
00000000000000000000000000000000000000000000000000000000000000000000000011001111111111111100000000000000000001111111111111110000000000000000000000000000000000000000000000000000000000000000000000000000
00000000000000000000000000000000000000000000000000000000000000000000011111101111111111110000000000000000000000011111111111100000000000000000000000000000000000000000000000000000000000000000000000000000
00000000000000000000000000000000000000000000000001110000000011111111111111111111100000000000000000000000000000000011111110000000000000000000000000000000000000000000000000000000000000000000000000000000
00000000000000000000000000000000110000000000001111111000111111111111111111000000000000000000000000000000000000000000000000000000000000000000000000000000000000000000000000000000000000000000000000000000
00000000000000000000000000000000111111111111111111111100011111111111110000000000000000000000000000000000000000000000000000000000000000000000000000000000000000000000000000000000000000000000000000000000
00000000000000000000000000000000011111111111111111111110001100011110000000000000000000000000000000000000000000000000000000000000000000000000000000000000000000000000000000000000000000000000000000000000
00000000000000000000000000000000011111111111111111111100000000000000000000000000000000000000000000000000000000000000000000000000000000000000000000000000000000000000000000000000000000000000000000000000
00000000000000000000000000000000011111110000000000000000000000000000000000000000000000000000000000000000000000000000000000000000000000000000000000000000000000000000000000000000000000000000000000000000
00000000000000000000000000000000000000000000000000000000000000000000000000000000000000000000000000000000000000000000000000000000000000000000000000000000000000000000000000000000000000000000000000000000
00000000000000000000000000000000000000000000000000000000000000000000000000000000000000000000000000000000000000000000000000000000000000000000000000000000000000000000000000000000000000000000000000000000
00000000000000000000000000000000000000000000000000000000000000000000000000000000000000000000000000000000000000000000000000000000000000000000000000000000000000000000000000000000000000000000000000000000
00000000000000000000000000000000000000000000000000000000000000000000000000000000000000000000000000000000000000000000000000000000000000000000000000000000000000000000000000000000000000000000000000000000
00000000000000000000000000000000000000000000000000000000000000000000000000000000000000000000000000000000000000000000000000000000000000000000000000000000000000000000000000000000000000000000000000000000
