P1
200 70
00000000000000000000000000000000000000000000000000000000000000000000000000000000000000000000000000000000000000000000000000000000000000000000000000000000000000000000000000000000000000000000000000000000
00000000000000000000000000000000000000000000000000000000000000000000000000000000000000000000000000000000000000000000000000000000000000000000000000000000000000000000000000000000000000000000000000000000
00000000000000000000000000000000000000000000000000000000000000000000000000000000000000000000000000000000000000000000000000000000000000000000000000000000000000000000000000000000000000000000000000000000
00000000000000000000000000000000000000000000000000000000000000000000000000000000000000000000000000000000000000000000000000000000000000000000000000000000000000000000010000000000000000000000000000000000
00000000000000000000000000000000000000000000000000000000000000000000000000000000000000000000000000000000000000000000000000000000000000000000000000000000000000000000111000000000000000000000000000000000
00000000000000000000000000000000000000000000000000000000000000000000000000000000000000000000000000000000000000000000000000000000000000000000000000000000000000000001111000000000000000000000000000000000
00000000000000000000000000000000000000000000000000000000000000000000000000000000000000000000000000000000000000000000000000000000000000000000000000000000000000000111111100000000000000000000000000000000
00000000000000000000000000000000000000000000000000000000000000000000000000000000000000000000000000000000000000000000000000000000000111000000000000000000000000001111100000000000000000000000000000000000
00000000000000000000000000000000000000000000000000000000000000000000000000000000000000000000000000000000000000000000000000000000000111000000000000000000000000011111000000000000000000000000000000000000
00000000000000000000000000000000000000000000000000000000000000000000000000000000000000000000000000000000000000000000000000000000000000000000000000000000000000111111000000000000000000000000000000000000
00000000000000000000000000000000000000000000000000000000000000000000000000000000000000000000000000000000000000000000000000000000000000000000000000000000000011111110000000000000000000000000000000000000
00000000000000000000000000000000000000000000000000000000000000000000000000111000000000000000000000000001100000000000000000000000000000111000000000000000000111111100000000000000000000000000000000000000
00000000000000000000000000000000000000000000000000000000000000000000000000111000000000000000000110000001100000000000000000000000000000111000000000000000011111111000000000000000000000000000000000000000
00000000000000000000000000000000000000000000000000000000000000000000000000000000000000000011111111000000000000000000000000000000000000110000000100000000111111100011100000000000000000000000000000000000
00000000000000000000000000000000000000111000000000000000000000000000000000000000000000111001111111100000000000000000000000000000000001110000001111000000011111000011100000000000000000000000000000000000
00000000000000000000000000000000000000111000000000000000000000000000000000000000000001111101111111000000000000000000000000000000000001110000001111100100111000000000000000000000000000000000000000000000
00000000000000000000000000000000000000000000000000000011100000000000000000000000000111111111111111100000000000000000000000000000000000000000001111111111110000000000000000000000000000000000000000000000
00000000000000000000000000000000000000000000000000000111111110000000000000000000001111111111111111111000001110000000000000000000000000000000000111111111110000000000000000000000000000000000000000000000
00000000000000000000000000111000000000000000000000000111111111111100000000000000011111111111111111111100011110000000000000000000000000000000000011111111100000000000000000111000000000000000000000000000
00000000000000000000000000111000000000000000000000000011111111111110000000000000011111111111111111101111111100000111100000000000000000000000000011111111100000000000000000111000000000000000000000000000
00000000000000000000000000000000000000000000000000000011111111111111000000000000111111111111111111101111111100011111111110001110000000000000000111111111100000000000000000000000000000000000000000000000
00000000000000000000000000000000000000000000000000001111111111111111100000000000111111111111111111111111111110111111111111100010000000000000001111111111000000000000000000000000000000000000000000000000
00000000000000000000000000000000000000000000000000001111111111111111110000000001111111110000010001111111111111111111111111110000000000000000011111000111100100000000000000000000000000000000000000000000
00000000000000000000001110000000000000000000000000001111111111111111111000000011111111100000000000011111111111001111111111111110000000011100111110000011111111000000111000000000100000000000000000000000
00000000000000000000001110000000000000000000000000000000000111111111111000000011111111100000000000000000111000000111100111101111100000011111111100000000111111100000111000000000100000000000000000000000
00000000000000000000000000000000000000000111000000000000000000111111100000000111111111000000000000000000111000000011100011101111110000001111111000000000001111111000000000000000000000000000000000000000
00000000000000000000000000000000000000000110000000000000000000011111100100000111111011000000000000000000011110000000000011111111110000001111110000000000000111111100000000000000000000000000000000000000
00000000000000000000000000111000001000000000000000000000000000011111111100000111111001000000000000000000001111000000000001111111111000011111110000000000000111111100000000000000000000000000000000000000
00000000000000000000000000111000001000000000000000000000000000001111111100001111111110000000000000000000001111000000000001111111111001111111100000000000001111101100000000000000000000000000000000000000
00000000000000000000000000000000000000000000000000000000000000001111111100001111011110000000111000000000000001000000000000111111111111111110000000000000011111100100000000000000000000000000000000000000
00000000000000000000000000000000000000000000000000000000000000000000011110001111011110000011111111000000000000000000000000111111011111111100000000000000111111111000000000000000000000000000000000000000
00000000000000000000000000000000000000000000000000000000000000010000001110001111111110001111111111111000000000000000000000111110001111110000000000000011111111110000000000000000000000000000000000000000
00000000000000000000000000000000000000000000000000000111100000111110011110001111111100111111111111111111000000000000000000111100011111100000000000000111111111100000000000000000000000000000000000000000
00000000000000000000000000000000000000000000000000000111111111111111111100001111111111111111111111111111000000000000000000111100011111000000000000001111111111000000000000000000000000000000000000000000
00000000000000000000000000000000000000000000000000001111111111111111111100001111111111111111111111111110000000000000000000111110111100000000000000011111111110000000000000000000000000000000000000000000
00000000000000000000000000000000000000000000000000001111111111111111111100001111111111011110111111101100000000000000000001111111111000000000000000111111111100000000000000000000000000000000000000000000
00000000000000000000000000000000000000000000000000001111111111111110111000011111111111011110111111101100000000000000000011111111110000000000000001110111110000000000000000000000000000000000000000000000
00000000000000000000000000000000000000000000000000001111111111111100000000011111111111111111111111111110000000000000111111111111100000000000000011110111100000000000000000000000000000000000000000000000
00000000000000000000000011100000000000000000000000001111111111111110000000011111111111111110011111111111000000000000011111111111111000000000000111111111000000000000000000000000000000000000000000000000
00000000000000000000000011100111000000000000000000000000111111111111000000011111101111100000001111111111000000000000011111111111111110000000001111111110000000000000000000000000000000000000000000000000
00000000000000000000000000000111000000000000000000000000011111111111100000011111101111100000001111111111000000000000111111111111111111000000011111111100000000000000000000000000000000000000000000000000
00000000000000000000000000001100000000000000000000000000000111111111110000011111111111110000001111111111100000000000111111111111111100100000111111111000011100000000000000000000000000000000000000000000
00000000000000000000000000000000000000000000000000000000000011111111110000011111000001110000001111111111100000001001111100000011111101110000111111110000011100000000000000000000000000000000000000000000
00000000000000000000000000000000000000000011000000000000000011111111110000111111000000000000001111111111100000111111111000000000111111110000111111100000000000000001110000000000000000000000000000000000
00000000000000000000001110000000000000000111100000000000000001111111111111111111111100000000000111111111100111111111000000000000001111110001111111000000000000000001110000000000000000000000000000000000
00000000000000000000001110000000000000000111110000000000000001111011111111111101111100000000000111111111111111111100000000000000000111111000111110000000000000000000000000000000000000000000000000000000
00000000000000000000000000000000000000001111111000000000000011111011111111111101111100000000000111111111111100110000000000000000000011111000000000000000000000000000000000000000000000000000000000000000
00000000000000000000000000000000010000001111111111000000000011111111111101111111111000100000001111111111111000000000000000000000000011111001000000000000000000000000011100000000000000000000000000000000
00000000000000000000000000000000011111111111111111001111110111111111111000111111111100100000001111111111111000000000000000000000001100111101110000000000000000000000011111000000000000000000000000000000
00000000000000000000000000000000011111111111111111011111111111111111111000011111111110000000001111111111110000000011100000000000011110011000000000000000000000000000000000000000000000000000000000000000
00000000000000000000000000000000011111111111101111111111111111111111111000011111111111000000011111111111100000000011110000000000011111100000000000000000000000000000000000000000000000000000000000000000
00000000000000000000000000000000000000011111001111111111111111011111111100111110000011111111111111111111100000000011111000000000011111110000000000000000000000000000000000000000000000000000000000000000
00000000000000000000000000000000001000000000001111110111111111011111111111111110000001111111111111111111000000000011111000000000011111110000000000000000000000000000000000000000000000000000000000000000
00000000000000000000000000000000001000000000001111110111111111111111111111111111110011100001111111111111000000000001110000000000111111000000000000000000000000000000000000000000000000000000000000000000
00000000000000000000000000000000000000000000000001111111111111111111111111111111111111100001111111011110000000000000111000000001111110000000000000000000000000000000000000000000000000000000000000000000
00000000000000000000000000000000000000000000000000001111111111111111111111111111111111111111110111011110000000000000111111111111111110000000000000000000000000000000000000000000000000000000000000000000
00000000000000000000000000000000000000000000000000000001111111111111110000000111111111111111110111111100000000000000111111111111111100000000000000000000000000000000000000000000000000000000000000000000
00000000000000000000000000000000000000000000000000000000000111111100000000000011111111111111111111111000000000000000011111111111100000000000000000000000000000000000000000000000000000000000000000000000
00000000000000000000000000000000000000000000000000000000000000000000000000000000000111111111111111110000000000000000011111111000000000000000000000000000000000000000000000000000000000000000000000000000
00000000000000000000000000000000011100000000000000000000000000000000000000000000000000111111111111000000000000000000000010000000000000111000000000000000000000000000000000000000000000000000000000000000
00000000000000000000000000000000011100000000000000000000000000000000000000000000000000011111111100000000000000000000000000000000000000111000000000000000000000000000000000000000000000000000000000000000
00000000000000000000000000000000000000000000000000000000000000000000000000000000000000000000000000000000000000000000000000000000000000000000000000000000000000000000000000000000000000000000000000000000
00000000000000000000000000000000000000000000000000000000000000000000000000000000000000000000000000000000000000000000000000000000000000000000000000000000000000000000000000000000000000000000000000000000
00000000000000000000000000000000000000000000000000000000000000000000000000000000000000000000000000000000000000000000000000000000000000000000000000000000000000000000000000000000000000000000000000000000
00000000000000000000000000000000000000000000000000000000000000000000000000000000000000000000000000000000000000000000000000000000000000000000000000000000000000000000000000000000000000000000000000000000
00000000000000000000000000000000000000000000000000000000000000000000000000000000000000000000000000000000000000000000000000000000000000000000000000000000000000000000000000000000000000000000000000000000
00000000000000000000000000000000000000000000000000000000000000000000000000000000000000000000000000000000000000000000000000000000000000000000000000000000000000000000000000000000000000000000000000000000
00000000000000000000000000000000000000000000000000000000000000000000000000000000000000000000000000000000000000000000000000000000000000000000000000000000000000000000000000000000000000000000000000000000
00000000000000000000000000000000000000000000000000000000000000000000000000000000000000000000000000000000000000000000000000000000000000000000000000000000000000000000000000000000000000000000000000000000
00000000000000000000000000000000000000000000000000000000000000000000000000000000000000000000000000000000000000000000000000000000000000000000000000000000000000000000000000000000000000000000000000000000
