P1
200 70
00000000000000000000000000000000000000000000000000000000000000000000000000000000000000000000000000000000000000000000000000000000000000000000000000000000000000000000000000000000000000000000000000000000
00000000000000000000000000000000000000000000000000000000000000000000000000000000000000000000000000000000000000000000000000000000000000000000000000000000000000000000000000000000000000000000000000000000
00000000000000000000000000000000000000000000000000000000000000000000000000000000000000000000000000000000000000000000000000000000000000000000000000000000000000000000000000000000000000000000000000000000
00000000000000000000000000000000000000000000000000000000000000000000000000000000000000000000000000000000000000000000000000000000000000000000000000000000000000000000010000000000000000000000000000000000
00000000000000000000000000000000000000000000000000000000000000000000000000000000000000000000000000000000000000000000000000000000000000000000000000000000000000000000111000000000000000000000000000000000
00000000000000000000000000000000000000000000000000000000000000000000000000000000000000000000000000000000000000000000000000000000000000000000000000000000000000000001111000000000000000000000000000000000
00000000000000000000000000000000000000000000000000000000000000000000000000000000000000000000000000000000000000000000000000000000000000000000000000000000000000000111111100000000000000000000000000000000
00000000000000000000000000000000000000000000000000000000000000000000011100000000000000000000000000000000000000000000000000000000000000000000000000000000000000001111111000000000000000000000000000000000
00000000000000000000000000000000000000000000000000000000000000000000011100000000000000000000000000000000000000000000000000000000000000000000000000000000000000011111110000000000000000000000000000000000
00000000000000000000000000000000000000000000000000000000000000001110000000000000000000000000000000000000000000011100000000000000000000000000000000000000000000111111000000000001000000000000000000000000
00000000000000000000000000000000000000000000000000000000000000001110000000000000000000000000000000000000000000000011110000000000000000000000000000000000000011111110000000000001000000000000000000000000
00000000000000000000000000000000000000000000000000000000000000000000000000000000000000000000000000000000000000100111111110000000000000000000000000000000000111111100000000000000000000000000000000000000
00000000000000000000000000000000000000000000000000000000000000000000000000000000000000000000000000000000000011111111111110000000000000000000000000000000011111111000000000000000000000000000000000000000
00000000000000000000000000000000000000000000000000000000000000000000000000000000000000000000000000000001100011101111111110000000000000000000000000000000111111100000000000000000000000000000000000000000
00000000000000000000011100000000000000000011000000000000000000000000000000000111100000000000000000000111110111000111111111000000000000000000000000000001111001000000000000000000000000000000000000000000
00000000000000000000011100000000000010001111100000000000000000000000000000001111111000000000000000011111111111101111111111111011100000000000000000000111111000000000000000000000000000000000000000000000
00000000000000000000000000000000000111011111111000000000000000000000000110001111111100000000000000011111100110000000011111111011100000000000000000011111111111100000000000000000000000000000000000000000
00000000000000000000000000000001000111111111111100000000000000000000011111110011111110000000000000111111100000000000001111111000000000000000000000111111111111110000000000000111000000000000000000000000
00000000000000000000000000111111000111111111111000000000000000000001111111111011111111000000000001111111100000000000000001111000000000000000000001111111111111111000000000000111000000000000000000000000
00000000000000000000000000111111000111111111111100000000000000000001111111111111111110000000000011111111000000000000000001110000000000000000000011111111111111111110000000000000000000000000000000000000
00000000000000000000000001111110000011111111111110000000000000000011111110011111111111000000000011110110000000000000000111110000000000000000000111111111111111111111000000000000000000000000000000000000
00000000000000000000000011111100000000111111111000000000000000000111111100000000011111110000000011110110000000000000000111111000000000000000011111111111111111101111100000000000000000000000000000000000
00000000000000000000000011111100000000011111111000000000000000000111111100000000001111110000000011111110000000000000000111111000000000000000111110111110111111101111000000000000000000000000000000000000
00000000000000000000000011111100000000011111111110000000000000000111111000000000000011110000000011111100000000000000000111111000000000000001111110111110011111111110000000000000000000000000000000000000
00000000000000000000000001111000000000011111111110000000000000001111111000000000000001000000000001000000000000000000000111111000000000000011111111111111000001111111000000000000000000000000000000000000
00000000000000000000000001111100000000000111111100000000000000001111110000000000000000000000000000000000000000000000000111110000000000001111111111111111000000111111111100000000000000000000000000000000
00000000000000000000000001111100000000000111111100000000000000001111110000000000011100000000000000000000000000000000000111110000000000011111111111111111000000011111111100000000000000000000000000000000
00000000000000000000000000111100000000001111111100000000000000000111110000000000011100000000000000000000000000000000111111100000000001111111111111111111110000011111111000000000000000000000000000000000
00000000000000000000000000111100000000011111111000000000000000000111110000000000000000000000000000000000000001111111111111000000000011111110011111111111111100111111111000000000000000000000000000000000
00000000000000000000000000111100000000011111111000000000000000011111100000000000000000000000000000000000000011111111111110000000001111111100011111111110011100011111111100000000000000000000000000000000
00000000000000000000000000111000000000011111110000000000000000011111100000000011110000000000000000000000000011111111111110000000011111110000011111111100000000111111111100000000000000000000000000000000
00000000000000000000000000000000000000111111111100000000000000111111000000111111111110000000000000000000000011111111111110000001111111100000011111111110000000111111111100000000000000000000000000000000
00000000000000000000000000000000000000111111111111110000000000111111000000011111101111100000000000000000000011111111111111000111111100000000011111111110000000111111111000000000000000000000000000000000
00000000000000000000000000000000000001111111111111110000000000111111000000011111101111110000000000000000000000001111111111111111110000000001111111111110000001111111111100000000000000000000000000000000
00000000000000000000000000000000000111111111111111100000000000111111100000111111111111110000000001110000000000000000011111111111100000000111111111111111000001111111111100000000000000000000000000000000
00000000000000000000000000000000001111111111011111000000000000011111100000011111111011110000000001110000000000000000001111111111000000000111001111111111111111111101111100000000000000000000000000000000
00000000000000000000000000000000001111111110001111000000000000011111111100001111110011110000000000000000000000000000001111111110000000000000000111111111111111111101111000000001000000000000000000000000
00000000000000000000000000000000001111111010011111111000000000111111111110000000000111111000000000000000000000000000011111111110000000000000000011111111111111111111111100000001110000000000000000000000
00000000000000000000000000000000000111100001111111111000000000111111111100000000000000111100000000000000111000000011001111111110000000000000000011111111111111111111111100000000000000000000000000000000
00000000000000000000000000000000000100110011111111111000000000111111100000000000000000111110000000001000000000001111100111111111000000000000000001111111111100111111111100000000000000000000000000000000
00000000000000000000000000000000010001111111111111111000000000111111100000000000000001111111000000001111000001111111111001111111000000000000000000111111111000111111111000000000000000000000000000000000
00000000000000000000000000000000011011111111111011111100000000111111110000000000000001111111000000011111111111111111000001111110011111000000000000011111111001111110000000000000000000000000000000000000
00000000000000000000000000000000011111111111110001111111111111111111110000000000000001111111000000001111111110011100000001111110011111000000000000000111111111111110000000000000000000000000000000000000
00000000000000000000000000000000010000000000001100111111111111111111110000000000000001111111100000011111101100000000000001111110000000000000000000000011111111111111110000000000000000000000000000000000
00000000000000000000000000000000000000000000001110011111111111111111111111111111111111111110011111111111101110000000000011101110000000000000000000000000000001111111111000000000000000000000000000000000
00000000000000000000000000000000000000000000011111110000000011111111111111111111111111101110111111111111111111100000000011101110000111000000110000000000000011111111110000000000000000000000000000000000
00000000000000000000000000000000000000000000011111100000000000111111111111111111111111101111111111111111111111001100001111111110000111000000111000000000000011111111100000000000000000000000000000000000
00000000000000000000000000000000000000000000001110000000000000011111111001111111111111111111110000000000111111011110011111111100000000000001111100000000000011111111000000000000000000000000000000000000
00000000000000000000000000000000000000000000011110010000000000001111110000001110000001110111100000000000000111111111111111111000000000000000111111000000000111111111100111000000000000000000000000000000
00000000000000000000000000000000000000000001111111110000000000001111111000000100000001110111000000000000000011111111111111111000000000000001111111110000001111111111100011000000000000000000000000000000
00000000000000000000000000000000000000000000011111000000000000001111111000000000000000111111000000000000000000001111110001110011100000000000111111111000111111111111100000000000000000000000000000000000
00000000000000000000000000000000111000000000011100000000000000001111111100000000000000001111000000000000000000000000000000000011100000000000111111111111111111111110000000000000000000000000000000000000
00000000000000000000000000000000111100000011111000000000000000001111111110000011100011001110000000000000000000000000000000000000000000000000111111111111111111111110000000000000000000000000000000000000
00000000000000000000000000000000111100000111110000000000000000000111111110000011100011111110000000000000000000000000111000000000000000000000011111111111111111111111000000000000000000000000000000000000
00000000000000000000000000000000111100001111100000000000000000000111111001111111110111111100000000000000000000000000111000000000000000000000001111001111111111111110000000000000000000000000000000000000
00000000000000000000000000000000111110011111000000000000000000000011111011111111111111111100000000000000000000000000000000000000000000000000000110000111111111111100000000000000000000000000000000000000
00000000000000000000000000000011111111111110001110000000000000000001111111111111111111111000000000000000000000000000000000000000000000000000000000000111111111111000000000000000000000000000000000000000
00000000000000000000000000000011111111111100001110000000000000000000001111111110111111110000011100000000000000000000000000000000000000000000000000001111111111110000000000000000000000000000000000000000
00000000000000000000000000000001111111110000000000000000000000000000000111111110111111000000011100000000000000000000000000000000000000000000000000001111111111100000000000000000000000000000000000000000
00000000000000000000000000000000000011100000000000000000000000000000000000111111111100000000000000000000111011000000000000000000000000000000000000000000011000000011000000000000000000000000000000000000
00000000000000000000000000000000000000000000000000000000000000000000000000000011000000000000000000000000111011100000000000000000000000000000000000000000000000000000000000000000000000000000000000000000
00000000000000000000000000000000000000000000000000000000000000000000000000000000000000000000000000000000000000000000000000000000000000000000000000000000000000000000000000001110000000000000000000000000
00000000000000000000000000000000000000000000000000000000000000000000000000000000000000000000000000000000000000011100000000000000000000000000000000000000000000000000000000001110000000000000000000000000
00000000000000000000000000000000000000000000000000000000000000000000000000000000000000000000000000000000000000011100000000000000000000000000000000000000000000000000000000000000000000000000000000000000
00000000000000000000000000000000000000000000000000000000000000000000000000000000000000000000000000000000000000000000000000000000000000000000000000000000000000000000000000000000000000000000000000000000
00000000000000000000000000000000000000000000000000000000000000000000000000000000000000000000000000000000000000000000000000000000000000000000000000000000000000000000000000000000000000000000000000000000
00000000000000000000000000000000000000000000000000000000000000000000000000000000000000000000000000000000000000000000000000000000000000000000000000000000000000000000000000000000000000000000000000000000
00000000000000000000000000000000000000000000000000000000000000000000000000000000000000000000000000000000000000000000000000000000000000000000000000000000000000000000000000000000000000000000000000000000
00000000000000000000000000000000000000000000000000000000000000000000000000000000000000000000000000000000000000000000000000000000000000000000000000000000000000000000000000000000000000000000000000000000
00000000000000000000000000000000000000000000000000000000000000000000000000000000000000000000000000000000000000000000000000000000000000000000000000000000000000000000000000000000000000000000000000000000
