P1
200 70
00000000000000000000000000000000000000000000000000000000000000000000000000000000000000000000000000000000000000000000000000000000000000000000000000000000000000000000000000000000000000000000000000000000
00000000000000000000000000000000000000000000000000000000000000000000000000000000000000000000000000000000000000000000000000000000000000000000000000000000000000000000000000000000000000000000000000000000
00000000000000000000000000000000000000000000000000000000000000000000000000000000000000000000000000000000000000000000000000000000000000000000000000000000000000000000000000000000000000000000000000000000
00000000000000000000000000000000000000000000000000000000000000000000000000000000000000000000000000000000000000000000000000000000000000000000000000000000000000000000000000000000000000000000000000000000
00000000000000000000000000000000000000000000000000000000000000000000000000000000000000000000000000000000000000000000000000000000000000000000000000000000000000000000000000000000000000000000000000000000
00000000000000000000000000000000000000000000000000000000000000000000000000000000000000000000000000000000000000000000000000000000000000000000000000000000000000000000000000000000000000000000000000000000
00000000000000000000000000000000000000000000000000000000000000000000000000000000000000000000000000000000000000000000000000000000000000000000000000000000000000000000000000000000000000000000000000000000
00000000000000000000000000000000000000000000000000000000000000000000000000000000000000000000000011100000000000000000000000000000000000000000000000000000000000000000000000000000000000000000000000000000
00000000000000000000000000000000000000000000000000000000000000000000000000000000000000000000000011100000000000000000000000000000000000000000000000000000000000000000000000000000000000000000000000000000
00000000000000000000000000000000000000000000000000000000000000000000000000000000000000000000000000000000000000000000000000000000000000000000000000000000000000000000000000000000000000000000000000000000
00000000000000000000000000000000000000000000000000000000000000000000000000000001110000100000000000000000000000000000000000000000000000000000000000000000000000000000000000000000000000000000000000000000
00000000000000000000000000000000000000000000000000000000000000000000000000011111111001100000000000000000000000000000000000000000000000000000000000000111000000000000000000000000000000000000000000000000
00000000000000000000000000000000000000000000000000000000000000000000000000111111111111110000000000000000000000000000000000001110000000000000000000000000000000000000000000000000000000000000000000000000
00000000000000000000000000000000000000000000000000000000000000000000000111111111111111110000000000000000000000000001111110000000000000000000000000000000000000000000000000000000000000000000000000000000
00000000000000000000000000000000000000000000000000000000000000000000011111111111111111110000000000000000000000011111111111110000000000000000000000000000000000000000000000000000000000000000000000000000
00000000000000000000000000000000000000001110000000000000000000000001111111111111111111110000000000000000000000011111111111111111100000000000000000000000000000000000000000000000000000000000000000000000
00000000000000000000000000011100000000001110000000000000000000000011111111100000111111100000000000000000000110000111111111111111110000000000000000000000000000000000000000000000000000000000000000000000
00000000000000000000000000011100000000000000000000000000000000000111111110000000000111100000000000000000001111000111111111111111111100000111000000000000000000000000000000000000000000000000000000000000
00000000000000000000000000000000000000000000000000000000000000000111111000000000000011000000000000000000011111111111111111111111111111000111000000000000000000000000000000000000000000000000000000000000
00000000000000000000000000000000000000000000000000000000000000001111100000000000000000000000000000000000011111111111000011111111111111100000000000000000000000000000000000000000000000000000000000000000
00000000000000000000000000001111111000000000000000000000000000011111100000000000000000000000000000001111111011111000000000000011111111110000000000000000000010000100000000000000000000000000000000000000
00000000000000000000000000011111111111110000000000000000000000111111100000000000000000000000000000001111111011110000000000000000111111110000000000000000011111111110000111000000000000000000000000000000
00000000000000000000000000011111111111111110000000000111100011111111111111111000000000000000000000000011111111100000000000000000011111100000000000000000011111111111100111000000000000000000000000000000
00000000000000000000000000011110111111111111111111111111100111111111111111111111111110000000000000000011111110000000000000000000000111000000000000000000111111111111111100000000000000000000000000000000
00000000000000000000000000011100011111111111111111111110011111111111111111111111111111110000000000000011111100000000000000000000000000000000000000000011111111111111111100000000000000000000000000000000
00000000000000000000000000011100011111111111111111111110011111111111111111111111111111111111111000000001111110000000000000000000000000001110000000011111111111100000011111111100000000000000000000000000
00000000000000000000000000001000011111111111111100001111000001111110000011111111111111111111111110000000111100011111100011100001110000001110001100011111111110000000001111111111000000000000000000000000
00000000000000000000000000000000000000001111111000000111000001111110000011111111111111111111111111111001111000111111111111100001110000000000001100111111111000000000001111111111000000000000000000000000
00000000000000000000000000000000000000000001111100000000000011111110000111110111111111110000011111111111110011111111111111100000000000000000000001111111110000000000000100111100000000000000000000000000
00000000000000000000000000000000000000000000111100000000000011111110001111100011101111111000000111111111110111111111111111110000000000000000000011111111100000000000000000111100000000000000000000000000
00000000000000000000000000000000000000000000111100000000000011111110111111100011001111111100000001111111111111111111111111110000000000000000000111111011000000000000000011111100000000000000000000000000
00000000000000000000000000000000000000000001111100000000000011111111111111000001111111111111110000111111111111100000111111111000000000000000001111111001000000000000000011111100000000000000000000000000
00000000000000000000000000000000000000000001111100000000000011111111111110000000001111111111110000111111111111000000011111100000000000000000001111111110000000000000000011111100000000000000000000000000
00000000000000000000000000000000000000000011111110000000000011111111111000000000000111111111000000111111111111100000001111100100000000000000001111111110000000000000000111101100000000000000000000000000
00000000000000000000000111000000000000000011111110000000000011111111110000000000000011111111000000111111111111111110000111111100000000000000010011111100000000000000000111101100000000000000000000000000
00000000000000000000000111000000000000000111110000000000000011111111110000000000000001111111000001111111100011111111001111111100011100000000111011111100000000000000000111111100000000000000000000000000
00000000000000000000000000000000000000111111110000000000000001111111110000000000000011111111100001111111000000011111111111111100011100000000111111110000000000000000000111111100000000000000000000000000
00000000000000000000000000000000110001111111111000000000000000111111110000000000000111111111100001111111000000000111110111111100000000000000111111100000000000000000001110111100000000000000000000000000
00000000000000000000000000000000111011111111110000000000000000111111110000000000000111111111100001111110000000000001100111011100000000000001111111100000000000000000001110111000000000000000000000000000
00000000000000000000000000000000111111111111100000000000000000111111110000000000000000111111100001111110000000000000001111011110000000000001111111000000000000000000011111111000000000000000000000000000
00000000000000000000000000000000111111111111111000000000000000011111100000000000000000011111110011111100000000000000001111111111000000001100111111000000000000000000011111111000000000000000000000000000
00000000000000000000000000000000001111111111111100000000000000011111110000000000000000001111110011111100000000000000001111111111110000001100111110000000000000000000111111110000000000000000000000000000
00000000000000000000000000000000000000000111111110000000000000001111111000000000000000011111110011111100000000000000011111111111111100000011111110000000000110000000111111110000000000000000000000000000
00000000000000000000000000000000000000000011110000000000000000001111111100000000000000011111110011111100000000000000111111110011111111100111111110000000000110000011111111111000000000000000000000000000
00000000000000000000000000000000000000000000000001111100000000000111111100000000000000111111110011111100000000000001111111100000111111111111111100000000000000000111111111111000000000000000000000000000
00000000000000000000000000000000001110000000001111111100000000000011111110000000000000111111110111111100000011100011111111000000000111110001111100000000000000011111111111000000000000000000000000000000
00000000000000000000000000000000001110000000011111110000000000000011111111000000000000111111100001111100000011100111111110000000000001100001111110000000000011111111111110000000000000000000000000000000
00000000000000000000000000000000000000000000011111110000000000000000111011100000000000111111000000011100000000001111111100000000000000011111111111111111111111111111111110000000000000000000000000000000
00000000000000000000000000000000000000000000001111110000000000000000010011110000000001111100100110011100000000011101111000000000000000001111111110011111111111111111111110000000000000000000000000000000
00000000000000000000000000000011000000000000001111110000000000000000001111111111000011111100100111111110000001111100110000000000000000001111111000011111111111111111111100000000000000000000000000000000
00000000000000000000000000000011000000000000001111111000000000000000000111111111111111111111000111111111100111111111000000000000000000000011110000111111111111111111111000000000000000000000000000000000
00000000000000000000000000000000000000000000001111111000000000000000000001111111111111111111000011111111111111111110000000000000000000010011110000000000000000000011100000000000000000000000000000000000
00000000000000000000000000000000000000000000011111111000000000000000000000001111111111111110000001111111111111111100000000000000000000011111110000000000000001000011000000000000000000000000000000000000
00000000000000000000000000000000000000000000011111110000000011100000000000000001111111111000000001111111111111110000000000000000000000011111100000000000000011111111000000000000000000000000000000000000
00000000000000000000000000100000000000000000111111110000000011100000000000000000000111110000000000111111111111000000000000000000000000011111100000000000000111111111000000000000000000000000000000000000
00000000000000000000000001110000000000000110011111110000000000000000000000000000000000000000000000001111111111000000000000000000000000111111100000000000000111111111110000000000000000000000000000000000
00000000000000000000000001111111111100011111001111100001000000000000000000000000000000000000000000000000000111000000000000000000000000011111100000000000001111001001110000000000000000000000000000000000
00000000000000000000000001111111111111111111100111000011110000000000000000000000000000000000000000000000000000000000000000000000000000011111100000000000111111000000000000000000000000000000000000000000
00000000000000000000000001111111111111111111110010000111100000000000000000000000000000000000000000000000000000000000000000000000000000011111110000000001111111100000000000000000000000000000000000000000
00000000000000000000000000111111111101111111110000000111000000000000000000000000000000000000000000000000000000000000000000000000001110011111110000000111111111000000000000000000000000000000000000000000
00000000000000000000000000011111111001111111100000000000000000000000000000000000000000000000000000000000000000000000000000000000001110011111001100001111111110000000000000000000000000000000000000000000
00000000000000000000000000111111111111110000000000000000000000000000000000000000000000000000000000000000000000000000000000000000000000001111011110001111111100000110000000000000000000000000000000000000
00000000000000000000001110000000000000000000000000000000000000000000000000000000000000000000000000000000000000000000000000000000000000000111111110001100100000000000000000000000000000000000000000000000
00000000000000000000001110000000000000000000000000000000000000000000000000000000000000000000000000000000000000000000000000000000000000000011111110001000000000000000000000000000000000000000000000000000
00000000000000000000000000000000000000000000000000000000000000000000000000000000000000000000000000000000000000000000000000000000000000000000111111000000000000000000000000000000000000000000000000000000
00000000000000000000000000000000000000000000000000000000000000000000000000000000000000000000000000000000000000000000000000000000000000000000000000000000000000000000000000000000000000000000000000000000
00000000000000000000000000000000000000000000000000000000000000000000000000000000000000000000000000000000000000000000000000000000000000000000000000000000000000000000000000000000000000000000000000000000
00000000000000000000000000000000000000000000000000000000000000000000000000000000000000000000000000000000000000000000000000000000000000000000000000000000000000000000000000000000000000000000000000000000
00000000000000000000000000000000000000000000000000000000000000000000000000000000000000000000000000000000000000000000000000000000000000000000000000000000000000000000000000000000000000000000000000000000
00000000000000000000000000000000000000000000000000000000000000000000000000000000000000000000000000000000000000000000000000000000000000000000000000000000000000000000000000000000000000000000000000000000
