P1
200 70
00000000000000000000000000000000000000000000000000000000000000000000000000000000000000000000000000000000000000000000000000000000000000000000000000000000000000000000000000000000000000000000000000000000
00000000000000000000000000000000000000000000000000000000000000000000000000000000000000000000000000000000000000000000000000000000000000000000000000000000000000000000000000000000000000000000000000000000
00000000000000000000000000000000000000000000000000000000000000000000000000000000000000000000000000000000000000000000000000000000000000000000000000000000000000000000000000000000000000000000000000000000
00000000000000000000000000000000000000000000000000000000000000000000000000000000000000000000000000000000000000000000000000000000000000000000000000000000000000000000000000000000000000000000000000000000
00000000000000000000000000000000000000000000000000000000000000000000000000000000000000000000000000000000000000000000000000000000000000000000000000000000000000000000000000000000000000000000000000000000
00000000000000000000000000000000000000000000000000000000000000000000000000000000000000000000000000000000000000000000000000000000000000000000000000000000000000000000000000000000000000000000000000000000
00000000000000000000000000000000000000000000000000000000000000000000000000000000000000000000000000000000000000000000000000000000000000000000000000000000000000000000000000000000000000000000000000000000
00000000000000000000000000000000000000000000000000000000000000000000000000000000000000000000000000000000000000000000000000000000000000000000000000000000000000011100000000000000000000000000000000000000
00000000000000000000000000000000000000000000001110001110000000000000000000000000000000000000000000000000000000000000000000000000000000000000000000111000000000000000000000000000000000000000000000000000
00000000000000000000000000000000000000000000001110001110000000000000000000000000000000000000000000000000000000000000000000000000000000000000000000111000000000000000000000000000000000000000000000000000
00000000000000000000000000000000000000000000000000000000000000000000000000000000000000000000000000000000000000000000000000000000000000000000000000000000000000000000000000000000000000000000000000000000
00000000000000000000000000000001110000000000000000000000000000000000000000000000001110000000000000000000000000000000000000000000000000000000000000000000000000000000000000000000000000000000000000000000
00000000000000000000000000000001110000000000000000000000000000000000000000000000001110000000000000000000000000000000000000000000000000000000000000000000000000000000000000000000000000000000000000000000
00000000000000000000000001110000110000000000000000000000000000000011100000000000000000000000000000000000000000000000000000000000000000000000000000000000000000000000000000000000000000000000000000000000
00000000000000000000000001110000111000000000000000000000000000000011111111100000000000000000000000000000000000000000000000000000000000000000000000000000000000000000000000000000000000000000000000000000
00000000000000000000000000000000111000000000000000000000000000000000111111100000000000000000000000000000000000000000000000000000000000000000000000000000000000000000000000000000000000000000000000000000
00000000000000000000001110000000000000000000000000000000000000000000111111110000000000000000000000000000000001100011000000000000000000000000000000001110000000000000000000000000000000000000000000000000
00000000000000000000001110000000000000000000000000000000000000000011111011111110000000000000001110000000001111110111110000000000000000000000000000011110000000000000000000000000000000000000000000000000
00000000000000000000000000000000000000000000000000000000000000000001110011111111110000000000001110000000011111111111111000000000000000000000000000111110000000000000000000000000000000000000000000000000
00000000000000000000000000000000000000000000000000000000000000000000001111111111111111000000000000000000111111100111111100000000000000000000000111111100000000000000000000000000000000000000000000000000
00000000000000000000000000000000000000000000000000000001111110000000000001111111111111111000000000000001111111000011111100000000000000000000111111111000000000000001110000000000000000000000000000000000
00000000000000000000000000000000000000000000000000001111111111100000000000000111111111111111000000000011111110000001111110000000000000000001111111110000000000000001110000000000000000000000000000000000
00000000000000000000000000000000000000011100000111111111111111110000000000000000111111111111111111000011100000000000111110000000000000000011111001100000000000000000000000000000000000000000000000000000
00000000000000000000000000000000000000011100000111111111111111111000000000000000000011111111111111000111000000000000111110000000000000000000111000000000000000000000000000000000000000000000000000000000
00000000000000000000001110000000000000000000000111111100111110111000000000000000000000001111111111101111100000000000011111000000000000001110111100000000000000000000000000000000000000000000000000000000
00000000000000000000001110000000000000000000001111111000001110111100000000000000000000000111111111001111100000000000011111000000000000001111111100000000000000000000000000000000000000000000000000000000
00000000000000000000000000000000000000000000011111110000000111111100000000000000000000001111101111011111100000000000100111000000000000011111111000000000000000000000000000000000000000000000000000000000
00000000000000000000000000000000000000000000111111000000000011111100000000000000000000001111100110011111000000000001110111000000000000111111110000000000000000000000000000000000000000000000000000000000
00000000000000000000000000000000000000001110111110000000000011111100000000000000011100011111111000011111000000000011111111100000000000111111110000000000000000000000000000000000000000000000000000000000
00000000000000000000000000000000000000001110001100000000000010011100000000000000011100011111111000001110000000001111111111100000000001111111110000000000000000000000000000000000000000000000000000000000
00000000000000000000000000000000000000000000000000000000000010011100000000000000000000111111111000001110000000011111111111100000000001111111100000000000000000000000000000000000000000000000000000000000
00000000000000000000000000000000000000000000000000000000000011111000000000000000000000111111110000011110000000111011111110000000000011111111100000000000000000000000000000000000000000000000000000000000
00000000000000000000000000000000000000000000000000000000000111110000000000000000000001111111100000111110000001111011111100000000000011111111100000000000000000000000000000000000000000000000000000000000
00000000000000000000000000000000000000000000000000000011100111100000000000000000000011111111100000111110000000111111000001100000000011111111100000000000000000000000000000000000000000000000000000000000
00000000000000000000000000000000000000000000000000000011101111000000000001110000000011111111000000111110001000111110000000110000000111111111111110000000000000000000000000000000000111000000000000000000
00000000000000000000000000000000000000000000000000000000011111000000000001111000000011111110000000111110110001110000000000110000000111111111111111100000000000011100001110000000000111000000000000000000
00000000000000000000000000000000000000000000000000000001111100000000000001111100000111111110000000111111111011100000000001110000000111111111111111110000000000011100001110000000000000000000000000000000
00000000000000000000000000000000000000000000000000001111111100000000000000011100001111111100000000111111111111100000000111100000000011111110001111111000000000000000000000000000000000000000000000000000
00000000000000000000000000000000000000000000000000011110111111000000000000000000011111100100000000111111111111100000001111110000000011111110000111111100000000000000000000000000000000000000000000000000
00000000000000000000000000000000000000000000000000011110111111101000000000000001111111100000000001111111111111111110011111111110001111111110000011111110000000000000000000000000011100000000000000000000
00000000000000000000000000000000000000000000000000111111111110001000000001111111111111111000111111111111111111111111111111111111111111111110000011111110000000000000000000000000011100000000000000000000
00000000000000000000000000000000001110000000000000011111111100011100111111111111111101111111111111111111111111111011111111111111111111111100000001111110000000000000000000000000000000000000000000000000
00000000000000000000000000000000001100000111000000000011111100111111111111111111111101111111111111111111111111110001111111111111111111001110000001111111000000000000000000000000000000000000000000000000
00000000000000000000000000000000000000011111000000000001111111111111111100011111111111111111100000011111100000000000111111100000011110001111100001111111000000000000000000000000000000000000000000000000
00000000000000000000000000000000000000111000000001111001111111111111000000000011111111100000000000001111000000000000111111000000001110011111111111111111100000000000000000000000000000000000000000000000
00000000000000000000000000000000000000000000011111111111100011111110000000000011111111000000000000000111100000000000011111000000000111111111111111111111100000000000000000000001110000000000000000000000
00000000000000000000000000000000000000000001111111111100000001111110000000000011111111000000000000000111111000000000001111000000000111111110111111111111100000000000000000000001110000000000000000000000
00000000000000000000000000000000000000001111111111000000000001111110000000000011111110000000000000000000011000000000011110000000000111111100001111101111100000000000000000000000000000000000000000000000
00000000000000000000000000000000000000111111111000000000000001111110000000000111111110000000000000000000011100000011111110000000000111110000000011101111100000000000000000000000000000000000000000000000
00000000000000000000000000000000000001111111100000000000000001111110000000000111111100000000000000000001111111000111111110000000000111110000000001111111110000000000000000000000000000000000000000000000
00000000000000000000000000000000000011111100000000000000000001111110000000001111111100000000000000000000011111100011111110001110000111111100000001111111110000000000000000000000000000000000000000000000
00000000000000000000000000000000001111111000000000000000000001111100000000001111111000000000000000000000001111110111111100001000000011111100000001111111111000111000000000000000000000000000000000000000
00000000000000000000000000000000011111110000001110000000000001111000000000011111111000000111000000000111001111111111110000000000000011111100000001111111111100111000000000000000000000000000000000000000
00000000000000000000000000001110111111100000011111000000000011111000000000011111110000000111000000000111000111111111110000000000000011111100000000111111111110000000000000000000000000000000000000000000
00000000000000000000000000001110011110000000111111110000000111111100000000111111110000000000000000000000000001111111000000000000000011111100000001111111111111000000000000000000000000000000000000000000
00000000000000000000000000000000011100000000111111111100101111111100000000111111110000000000000000000000000000011000000000000000000001111100000001111111111111100000000000000000000000000000000000000000
00000000000000000000000000000000001000000000011111111111111111100000000000111111100000000000000000000000000000000000000000000000000001111110000001111111100111110000000000000000000000000000000000000000
00000000000000000000000000000000000000000000000111111111101111101100000001111111100000000000000000000000000000000000000000000000000000111111000001111111000011111000000000000000000000000000000000000000
00000000000000000000000000000000000000000000000001111111101111111100000001111111000000000000000000000000000000000000000000000000000000111111000011111111000001111000000000000000000000000000000000000000
00000000000000000000000000000000000000000000000000011111111111100000000011111111000000000000000000000000000000000000000000000000000000000111000011111110000000111110000000000000000000000000000000000000
00000000000000000000011100000000000000000000000000000011111100000000000011111110000000000000000000000000000000000000000000000000000000000011100111011110000000011111000000000100000000000000000000000000
00000000000000000000010000000000000000000000000000000000000000000000000011001000000000000000000000000000000000000000000000000000000000000011111111001100000000001111000000000100000000000000000000000000
00000000000000000000000000000000000000000000000000000000000000000000000010000000000000000000000000000000000000000000000000000000000000000001111111110000000000001111100000000000000000000000000000000000
00000000000000000000000000000000000000000000000000000000000000000000000000000000000000000000000000000000000000000000000000000000000000000000000000000000000000000111100000000000000000000000000000000000
00000000000000000000000000000000000000000000000000000000000000000000000000000000000000000000000000000000000000000000000000000000000000000000000000000000000000000111110000000000000000000000000000000000
00000000000000000000000000000000000000000000000000000000000000000000000000000000000000000000000000000000000000000000000000000000000000000000000000000000000000000011110000000000000000000000000000000000
00000000000000000000000000000000000000000000000000000000000000000000000000000000000000000000000000000000000000000000000000000000000000000000000000000000000000000011111000000000000000000000000000000000
00000000000000000000000000000000000000000000000000000000000000000000000000000000000000000000000000000000000000000000000000000000000000000000000000000000000000000001111000000000000000000000000000000000
00000000000000000000000000000000000000000000000000000000000000000000000000000000000000000000000000000000000000000000000000000000000000000000000000000000000000000001111100000000000000000000000000000000
00000000000000000000000000000000000000000000000000000000000000000000000000000000000000000000000000000000000000000000000000000000000000000000000000000000000000000000111100000000000000000000000000000000
