P1
200 70
00000000000000000000000000000000000000000000000000000000000000000000000000000000000000000000000000000000000000000000000000000000000000000000000000000000000000000000000000000000000000000000000000000000
00000000000000000000000000000000000000000000000000000000000000000000000000000000000000000000000000000000000000000000000000000000000000000000000000000000000000000000000000000000000000000000000000000000
00000000000000000000000000000000000000000000000000000000000000000000000000000000000000000000000000000000000000000000000000000000000000000000000000000000000000000000000000000000000000000000000000000000
00000000000000000000000000000000000000000000000000000000000000000000000000000000000000000000000000000000000000000000000000000000000000000000000000000000000000000000010000000000000000000000000000000000
00000000000000000000000000000000000000000000000000000000000000000000000000000000000000000000000000000000000000000000000000000000000000000000000000000000000000000011110000000000000000000000000000000000
00000000000000000000000000000000000000000000000000000000000000000000000000000000000000000000000000000000000000000000000000000000000000000000000000000000000000011111111000000000000000000000000000000000
00000000000000000000000000000000000000000000000000000000000000000000000000000000000000000000000000000000000000000000000000000000000000000000000000000000000011111111111000000000000000000000000000000000
00000000000000000000000000000000000000000000000000000000000000000000000000000000000000000000000000000000000000000000000000000000000000000000000000000000111111111111000000000000000000000000000000000000
00000000000000000000000000000000000000000000000000000000000000000000000000000000000000000000000000000000000000000000000000000000000000000000000000000111111111111000000000000000000000000000000000000000
00000000000000000000000000000000000000000000000001000000000000000000000000000000000000000000000000000000000000000000000000000000000000000000000001111111000000000000000000000000000000000000000000000000
00000000000000000000000000000000001000000000000001110000000000000000000000000000000000000000000000000000000000000000000000000000000000000000001111111110000000000000000000000000000000000000000000000000
00000000000000000000000000000000001111111100000000000000000000000000001110000000000000000000000000000000000000000000000000000000000000000001111111111100000000000000000111000000000000000000000000000000
00000000000000000000000000000000001111111110000000000000000011100000001110000000000000000000000000000000000000000000000000000000000011111111111111100000000000000000000111000000000000000000000000000000
00000000000000000000000000000000001100001111110000000001110010001100000000000000000000000000000000000000000000000000000000000000010001111111111100000000000000000000000000000000000000000000000000000000
00000000000000000000000000000000001000000111111111100001110000001100000000000000000000000000000000000000000000000000000000000111111011111111100000000000000000000000000000000000000000000000000000000000
00000000000000000000000000000000001111100011111111111000000000000000000000000000000000000000000000000000000000000000000000111111111111000000000000000000000000000000000000000000000000000000000000000000
00000000000000000000000001000000000001100011110111111100000000000000000000000000000000000000000001111100000000001100111111111111110000000000000000000000000000000000000000000000000000000000000000000000
00000000000000000000000111000000000000000001100011111110000000000000000000000000000000000000011111111100000111111111111111111110000000000000000000000000000000000000000011100000000000000000000000000000
00000000000000000000000000000000000000000001100111111111000111000000000000000000000000011000111111111000001111110111111111110000000000000000001111100011111100000000000000100000000000000000000000000000
00000000000000000000000000000000000000000000000011111111100100000000000000000000000111111111111111111000011111100011111111100000000000000001111111111111111110000000000000000000000000000000000000000000
00000000000000000000000000000000000000000000000000111111110000000001110000000100011111111111111111110000011111000111111111000000000000000011111111111111111111000000000000000000000000000000000000000000
00000000000000000000000000000000000000000000000000001111110000000001111001111110111111111111111111110000111111101111111111000000000000000111111111111111111111110000000000000000000000000000000000000000
00000000000000000000000000000000000011100000000000000001111000000000111111111111111111111111111111100001111111111111111110000000000000000111111111111111111111111000000000000000000000000000000000000000
00000000000000000000000000000000000011100000000000000001111000000000111111111111111111111111111111100011111111100011111100000000000000001111111111111111111111111000000000000000000000000000000000000000
00000000000000000000000000000000000000000000000000000111111100000001111111111111111111111111111111111111111111000000000000000000000000011111111111111111111111110000000000000000000000000000000000000000
00000000000000000000011100000000000000000000000000000111011100000001111111111111111111111111111111111111111111000000000000000000000000011101111111111111111111100001100000000000000000000000000000000000
00000000000000000000011100000000000000000000000000000110001100000001001111111101111111111111111111111111111111000000000000000000000000011101111111111111111111110011110000000000000000000000000000000000
00000000000000000000000000000000000000000000000000000110000000000000001111111000111111111111111111111111111110000000001110000000000000011111111111111110111110011111111000000000000000000000000000000000
00000000000000000000000000000000000000000000000000001111000000000001111111111100000011111111111111100001111110000000001110000000000000111110111110111100000100001111111000000000000000000000000000000000
00000000000000000000000000000000000000000000000000001111111000000001100111100000000111111111111100000011111100010000000000000000000011111110011100010000000011001111111000000000000000000000000000000000
00000000000000000000000000000000000000011110000000011111111111000000000011000000000111111100110000000011111111111110000000000000000000111111100011100000000001111111111100000000000000000000000000000000
00000000000000000000000000000000000000011111000000011111100111000000000000000000001111111000000000000111111111111111100000000000000000111111110111100000000001111111111100001000000000000000000000000000
00000000000000000000000000000000000000111011111111111111100000000000000000000000011111111100000000000111111111111111100000000000000000111111111111000000000001111111111100001110000000000000000000000000
00000000000000000000000000000000000000110011111111111111100000000000000011100000001111111110000000001111111111110111110000000000000000111111111000000000000001111111111110000000000000000000000000000000
00000000000000000000000000000000000000001111111111111111100000000000000011100000011111111100000000001111111111110111110000000000000000111101110000000000000001101111111110000000000000000000000000000000
00000000000000000000000000000000000000000111111101111111000000000000000000000001111111111000000000001111111111111111110000000000000000111101100011000000000001101111111100000000000000000000000000000000
00000000000000000000000000000000000000000000111101111100000000000000000000000111111111111000000000000111111111111111111000000000000000111111100011000000000011111111111100000000000000000000000000000000
00000000000000000000000000000000000000000000011111110000000000000000000000001111111111110000000000000011111000011111111100000000000000111111110111000000000011111111111100000000000000000000000000000000
00000000000000000000000000000000000000000000001111100000000000000000000000110011111111100000000000000000000000001111100000000000111000011111111111000000000011111111111100000000000000000000000000000000
00000000000000000000000000000000000000000000000111110000000000000000000011111011111111100000000000000000000000000011100000000000011000011111111111100000000111111111111000000000000000000000000000000000
00000000000000000000000011100000000000000000000001111100000000000000001111111111111111000000000000000000000000000011110001100000000000011111111111110000001111111111111000000000000000000000000000000000
00000000000000000000000000000000000000000000000000111110000000000000011111111111111110000000000000000000000000001111111011100000000000001111111111111111100111110111111000000000000000000000000000000000
00000000000000000000000000000000000000100000000001111110000000000001111111111111111000000000000000000000000000011111111100000000000000001111111111111111110111100011110000000000000000000000000000000000
00000000000000000000000000000000000011100000000111111111111000000100111000111111110000000000000000000000000000011111111100000000000000001111111111111111111111000111110000000000000000000000000000000000
00000000000000000000000000000000000000000000001111111111111000001110010000111111110000001110000000000000000000000111111100000000000000000111111111111111111111100111110000000000000000000000000000000000
00000000000000000000000000000000000000000000011111111111000000111111100001111101111000001110011110001110000000000111111100000000000000000011111111111111111111110011110000000000000000000000000000000000
00000000000000000000000000000000000000000000011100011111000001111111000001111101110000000000011111011110000000001111111000000000000000000001111111111111111111111011100000000000000000000000000000000000
00000000000000000000000000000011110000000000000000011111000111111100000011111111100000000000001111111111000000000011111000000000000000000000111111111111111111111111100000000000000000000000000000000000
00000000000000000000000000000011110000000000000000111111011111111000000011111111100000000000000111111100000000010011111000000000000000000000001111111110011111111111000000000000000000000000000000000000
00000000000000000000000000000011100100000000000001111111111111100000000011111111000000000000000111111100100000111111111000000000000000000000000001111000011111111110000000000000000000000000000000000000
00000000000000000000000000000001101110000000000001111111111111000000000011111111000000000000000011111111111111111111110000000000000000000000000000000000111111111100000000000000000000000000000000000000
00000000000000000000000000000001111111100000000010011111100000000000000001111110000000000000000011111111111111111111110000000000000000000000000000000001111111111000000000000000000000000000000000000000
00000000000000000000000000000000111111110000000011011111000000000000000001111110000000000000000001001111111111111111110000000000000000000000000000000001111111110000000000000000000000000000000000000000
00000000000000000000000000000000011111111100001111111111000000000000010011111100000000000000000000001111111111111111100000000000000001100000000000000000111111110000000000000000000000000000000000000000
00000000000000000000000000000000001111111111111111111110000000000000011111111000000000000000000000001111111111111111000000000000000011110000000000000001111111110000000110000000000000000000000000000000
00000000000000000000000000000000000111111111111111111100000000000000001111111000000000000000000000000111111111111110000000000000000011111000000000001111111111110000000110000000000000000000000000000000
00000000000000000000000000000000000111111111111111111000000000000000001111110000000000000000000000000011111111111100000000000000000011111100000000111111111111100000000000000000000000000000000000000000
00000000000000000000000000000000011111111111111111110000000000000001111111110000000000000000000000000000001111100000000000000000000011111111001111111111111111000000000000000001110000000000000000000000
00000000000000000000000000000000011111111111111111000000000000000001111111100000000000000000000000000000000111000000000000000000000011111111111111111111111110000000000000000001110000000000000000000000
00000000000000000000000000000000000011000111111100000000000000000011111111100000000000000000000000000000000000000000000000000000000011111111111111111111111100000000000000000000000000000000000000000000
00000000000000000000000000000000000000000011110000000000000000000011111111000000000000000000000000000000000000000000000000000000000011111111111111111111111000000000000000000000000000000000000000000000
00000000000000000000000000000000000000000011100000000000000000000010000000000000000000000000000000000000000000000000000000000000000111111111111111111111110000000000000000000000000000000000000000000000
00000000000000000000000000000000000000000000000000000000000000000000000000000000000000001110000000000000000000000000000000000000000011111111101111111111000000111000000000000000000000000000000000000000
00000000000000000000000000000000000000000000000000000000000000000000000000000000000000001110000000000000000000000000000000000000000011111111101111111110000000111000000000000000000000000000000000000000
00000000000000000000000000000000000000000000000000000000000000000000000000000000000000000000000000000000000000000000000000000000000001111111111111111100000000000000000000000000000000000000000000000000
00000000000000000000000000000000000000000000000000000000000000000000000000000000000000000000000000000000000000000000000000000000000000011111111111100000000000000000000000000000000000000000000000000000
00000000000000000000000000000000000000000000000000000000000000000000000000000000000000000000000000000000000000000000000000000000000000000000011100000000000000000000000000000000000000000000000000000000
00000000000000000000000000000000000000000000000000000000000000000000000000000000000000000000000000000000000000000000000000000000000000000000000000000000000000000000000000000000000000000000000000000000
00000000000000000000000000000000000000000000000000000000000000000000000000000000000000000000000000000000000000000000000000000000000000000000000000000000000000000000000000000000000000000000000000000000
00000000000000000000000000000000000000000000000000000000000000000000000000000000000000000000000000000000000000000000000000000000000000000000000000000000000000000000000000000000000000000000000000000000
