P1
200 70
00000000000000000000000000000000000000000000000000000000000000000000000000000000000000000000000000000000000000000000000000000000000000000000000000000000000000000000000000000000000000000000000000000000
00000000000000000000000000000000000000000000000000000000000000000000000000000000000000000000000000000000000000000000000000000000000000000000000000000000000000000000000000000000000000000000000000000000
00000000000000000000000000000000000000000000000000000000000000000000000000000000000000000000000000000000000000000000000000000000000000000000000000000000000000000000000000000000000000000000000000000000
00000000000000000000000000000000000000000000000000000000000000000000000000000000000000000000000000000000000000000000000000000000000000000000000000000000000000000000000000000000000000000000000000000000
00000000000000000000000000000000000000000000000000000000000000000000000000000000000000000000000000000000000000000000000000000000000000000000000000000000000000000000000000000000000000000000000000000000
00000000000000000000000000000000000000000000000000000000000000000000000000000000000000000000000000000000000000000000000000000000000000000000000000000000000000000000000000000000000000000000000000000000
00000000000000000000000000000000000000000000000000000000000000000000000000000000000000000000000000000000000000000000000000000000000000000000000000000000000000000000000000000000000000000000000000000000
00000000000000000000000000000000000000000000000000000000000000000000000000000000000000000000000000000000000000000000000000000000000000000000000000000000000000000000000000000000000000000000000000000000
00000000000000000000000000000000000000000000000000000000000000000000000000000011100000000000000000000000000000000000000000000000000000000000000000000000000000000000000000000000000000000000000000000000
00000000000000000000000000000000000000000000000000000000000000000000000000000011100000000000000000000000000000000000001110000000000000000000000000000000000000000000000000000000000000000000000000000000
00000000000000000000000000000000000000000000000000000000000000000000000000000000000000000000000000000001110000000000001110000000000000000000000000000000000000000000000000000000000000000000000000000000
00000000000000000000000000000000000000011110000000000000000000000000000000000000000000000011000000000001110000000000000000000000000000000000000000000000000000000000000000000000000000000000000000000000
00000000000000000000000000000000000000111111111000000000000000000000000000000000000000001111111111100001110000000000000001110000000000000000000000000000000000000000000000000000000000000000000000000000
00000000000000000000000000000000000000111111111111100000000000000000000110001111111111111111111111100111111111000000000001110000000000000000000000111000000000000000000000000000000000000000000000000000
00000000000000000000000000000000000000111111110111110000000000000000111111011111111111111111111111001111111111111111111000110000000000000000000000111000000000000000000000000000000000000000000000000000
00000000000000000000000000111000000001111111100011001100000000000001111111111111111111111111111110000111111111111111110001111111000000000000000000000000000000000000111000000000000000000000000000000000
00000000000000000000000000111000000001111111100011011110000000000011111111111111101111111111111100000111111111111111111011111111100000000000000000000000000000000000111000000000000000000000000000000000
00000000000000000000000000000000000001111111110111111111000000000011111111111111100111111111111100000110111111111111111111111111110000000000000000000000000000000000000000000000000000000000000000000000
00000000000000000000000000000000000001111111111111111111100000000011111111111111110000001111111000000110111111111111111111111111110000000000000000000001100011000000000000000000000000000000000000000000
00000000000000000000000000000000000001111111111111111111110000000011111111111100000000001111110000001111111111111111111111111111100000000000000000000011111111100000000000000000000000000000000000000000
00000000000000000000000000000000000000000000001111111111110000000011111000000000000000001110000000000110001111111111111111111111100000000000000000100111111111111100000000000000000000000000000000000000
00000000000000000000000000000000000000000000000011111111111000000011111000000000000000011110000000000000000000000001111111111111100000000000000011111111111110111111000000000000000000000000000000000000
00000000000000000000000000000000000000000000000001111111111000000011110000000000000000111111000000000000000000000000011111110011100000000000000111111111111100111111100000000000000000000000000000000000
00000000000000000000000000000000001110000000000001111111111100000011110000000000001111111110000000000000000000000000011111100001000000000000000111111111000000111111110000000000000000000000000000000000
00000000000000000000000000000000001110000000011100111111111100000011110000000000001111100000000000000000000000000000011111110000000000000000010011111100000000011111111000000000000000000000000000000000
00000000000000000000000000000000000000000000011100111100111100000001100000000000000011000000000000000000000000000000111111111000000000000000111011111000000000001111111000000000000000000000000000000000
00000000000000000000000000000000000000000000000000011000011100000000000000000000000011100000000000000000000000000000111111111000000000000000111111110000000000000111111100000000000000000000000000000000
00000000000000000000000000000000000111000000000000011100111110000000000000111000000011110000000000000000000000000001111111110000000000000001111111100000000000000111111100000000000000000000000000000000
00000000000000000000000000000000000111001110000000011111111110000000000000111000000111110000000000000000000000000011111111100000000000000001111111100000000000000111111000000000000000000000000000000000
00000000000000000000000000000000000000001110000000111111111110000000000000000000001111100000000000000000000000000011111111100000000000000001111111000000000000000111111000000000000000000000000000000000
00000000000000000000001110000000000000001111100001111111111100000000000000000000011111000000000000000000000000000111111111000000000000000011111111000000000000000011111100000000000000000000000000000000
00000000000000000000001110000000000000001111111111111111101100000000000000000000011111000000000000000000000000001111110111000000000000000011111110000000000000000001111100000000000000000000000000000000
00000000000000000000000000000000000000011111111111111111000100000000000000000000111110000000000000000000000000001111110010000000000000000111111110000000000000000011110000000000000000000000000000000000
00000000000000000000000000000000000000011111111111111110001100000000000000000000111110000000000000000000000000011111111000000000000000000111111110000000111000000111100000000000000000000000000000000000
00000000000000000000000000000000000000011011111111111111001000000000000000000001111100000000000000000000000000011111111000000000000000000111111100000000001000000111110000000000000000000000000000000000
00000000000000000000000000000000000000010011111111111111110000000000000000000001111000000000000000000000000000011111111000000000000000000111111100000000000000000111111111110000000000000000000000000000
00000000000000000000000000000000000000001111111111111011110000000000000000000011111000000000000000000000000000011111111000000000000000000111111100000000011100000111111111110000000000000000000000000000
00000000000000000000000000000000000000000111011111110001111111111110000000000011110000000000000000000000000000000111110000000000000000001111111100000000011100000111111110000000000000000000000000000000
00000000000000000000000000000000000000000000011111110001111111111111111111000111110000000000000000000000000000000011110000000000000000001111111100000000000000000111111100000000000000000000000000000000
00000000000000000000000000000000000000000000111111111011111111111111111111111111110000000000000000000000000001100111100000000000000000001111111000000000000000000111111100000000000000000000000000000000
00000000000000000000000000000000000011100011111111111111111111111111111111111111111111110000000000000000000001111111100000000000000000001111111000000000000000000111111000000000000000000000000000000000
00000000000000000000000000000000000011111111111111111111111000000000000001111111111111111110000000000000000000111111100000000000000000001110001000000000000000000111111000000000000000000000000000000000
00000000000000000000000000000000000111111111111001111101111000000000000000011111111111111111100011000000000001111111000000000000000000001100001000000000000000000011111000000000000000000000000000000000
00000000000000000000000000000000111111111110000000111101111000000000000000011111000000000111110111110000000011111111000000000000000000001110011000000000000000000111110000000000000000000000000000000000
00000000000000000000000000000000111111110000000000011111111100000000000000111110000000000011111111111001100111111110000000000000000000011111111000000000000000001111110000000000000000000000000000000000
00000000000000000000000000000000111111000000000000001111111100000000000000110000000000000000011111111111000111111100000000000000000100001111111000000000000000001111110000000000000000000000000000000000
00000000000000000000000000000000111110000000000000001111111100000000000001000000000000000000000000001100000111111100000000000000011100001111111000000000000000001111110000000000000000000000000000000000
00000000000000000000000000000000111111000000000000001111111100000000000001100000000000000000000000000000001111111110000000000000000000001111111000000000000000000111100000000000000000000000000000000000
00000000000000000000000000000000111111110000000000000111111110000000000001111000000000000001110000000000001111111111110000000000000000001111111000000000000000001111000000000000000000000000000000000000
00000000000000000000000000000001111011100000000000001111111110000000000011111000000000000001110000000000011111111111111111000000000000001111111000000000000000011111000000000000000000000000000000000000
00000000000000000000000000000001111011100000111100111111111110000000000011110000000000000000000000000000011111111111111111100000000000011110111000000000000001111110000000000000000000000000000000000000
00000000000000000000000000000001111111110111111111111111101110000000000111110000000000000000000000000000011111110000011111111111000000001110111000000000000011111110000000000000000000000000000000000000
00000000000000000000000000000001111111111111111110111111101110000000000111110000000000000000000000000000011111110000000011111111110000001111111000000000000111111100000000000000000000000000000000000000
00000000000000000000000000000000111001111111111100011111111110000000000111100000000100000000000000000000011111100000000000011111111001101111111100000000001111110000000000000000000000000000000000000000
00000000000000000000000000000000000000111111111100011111111110000000001111100000000100000000000000000000111111000000000000000011111111000111111110000000011111110000000000001110010000000000000000000000
00000000000000000000000000000000000000111111111110111111111110000000001111000000000000000000000000000000111000000000000000000000001000001111001111100001111111000000000000001110000000000000000000000000
00000000000000000000000000000000000000011000011111111111111100000000011111000000000000000000000000000000000000000000000000000000000000111111000011111111111111100000000000000000000000000000000000000000
00000000000000000000000000000000000000000000011111011111111100000100011111000000000000000000000000000000000000000000000000000000000000001111110011111111111111111111111000000000000000000000000000000000
00000000000000000000000000000000000000000000111111011111111100011100011110000000000000000000000000000000000000000000000000000000000000000111111111111111111111111111111000000000000000000000000000000000
00000000000000000000000000000000000000000000000111111111111000000000001100000000000000000000000000000000000000000000000000000000000000000111111111111111111111111100111000000000000000000000000000000000
00000000000000000000000000000000000000000000000011111111100000000000000000000000000000000000000000000000000000000000000000000000000000001111111111111111000000001000001000000000000000000000000000000000
00000000000000000000000000000000000000000000000000001000000000000000000000000000001110000000000000000000000000000000000000000000000000001111111111111110000000000000000000000000000000000000000000000000
00000000000000000000000000000000000000000000000000000000000000000000011100000000001110000000000000000000000000000000000000000000000000000000111000100000000000000000000000000000000000000000000000000000
00000000000000000000000000000000000000000000000000000000000000000000011100000000000000000000000000000000000000011100000000000000000000000000000000000000000000000000000000000000000000000000000000000000
00000000000000000000000000000000000000000000000000000000000000000000000000000000000000000000000000000000000000000000000000000000000000000000000000000000000000000000000000000000000000000000000000000000
00000000000000000000000000000000000000000000000000000000000000000000000000000000000000000000000000000000000000000000000000000000000000000000000000000000000000000000000000000000000000000000000000000000
00000000000000000000000000000000000000000000000000000000000000000000000000000000000000000000000000000000000000000000000000000000000000000000000000000000000000000000000000000000000000000000000000000000
00000000000000000000000000000000000000000000000000000000000000000000000000000000000000000000000000000000000000000000000000000000000000000000000000000000000000000000000000000000000000000000000000000000
00000000000000000000000000000000000000000000000000000000000000000000000000000000000000000000000000000000000000000000000000000000000000000000000000000000000000000000000000000000000000000000000000000000
00000000000000000000000000000000000000000000000000000000000000000000000000000000000000000000000000000000000000000000000000000000000000000000000000000000000000000000000000000000000000000000000000000000
