P1
200 70
00000000000000000000000000000000000000000000000000000000000000000000000000000000000000000000000000000000000000000000000000000000000000000000000000000000000000000000000000000000000000000000000000000000
00000000000000000000000000000000001000000000000000000000000000000000000000000000000000000000000000000000000000000000000000000000000000000000000000000000000000000000000000000000000000000000000000000000
00000000000000000000000000000000011100000000000000000000000000000000000000000000000000000000000000000000000000000000000000000000000000000000000000000000000000000000000000000000000000000000000000000000
00000000000000000000000000000000011111000000000000000000000000000000000000000000000000000000000000000000000000000000000000000000000000000000000000000000000000000000000000000000000000000000000000000000
00000000000000000000000000000000111111100000000000000000000000000000000000000000000000000000000000000000000000000000000000000000000000000000000000000000000000000000000000000000000000000000000000000000
00000000000000000000000000000000001111111000000000000000000000000000000000000000000000000000000000000000000000000000000000000000000000000000000000000000000000000000000000000000000000000000000000000000
00000000000000000000000000000000000111111110000000000000000000000000000000000000000000000000000000000000000000000000000000000000000000000000000000000000000000000000000000000000000000000000000000000000
00000000000000000000000000000000000001111111000111111111100000000000000000000000000000000000000000000000000000000000000000000000000000000000000000000000000000000000000000000000000000000000000000000000
00000000000000000000000000000000000000111111111111111111100000000000000000000000000000000000000000000000000000000000011100000000000000000000000000000000000000000000000000000000000000000000000000000000
00000000000000000000000000000000000000000011111111111111110000000000000000000000000000000000000000000000000000000000001100000000000000000000000000000000000000000000000000000000000000000000000000000000
00000000000000000000000000000000000000010011111111111111111000000000000000000000000000000000000000000000000000000000000000000000000000000000000000000000000000000000000000000000000000000000000000000000
00000000000000000000000000000000000001111111111111111111111111000000000000000000000000000000000000000000000000000000000000000000000000000000000000000000000000000000000000000000000000000000000000000000
00000000000000000000000000000000000011111111111111111111111111100000000000000000000000000000000000000000000000000000000000000000000000000000000000000000000000000000000000000000000000000000000000000000
00000000000000000000000000000000000111111111001111111111111111100000000000000000000000000000000000000000000000000000000000000000000000000000000000000000000000000000000000000000000000000000000000000000
00000000000000000000000000000000000111111110000011111111111111110000011100000000000000000000000000000000000000000000000000000000000000000000000000000000000000000011100000000000000000000000000000000000
00000000000000000000000000000000000111111110000001111111111111111100011100000000000000000000000000000000000000000000000000011100000000000000000000000000000000000000000000000000000000000000000000000000
00000000000000000000000000000000000111111000000000011110111111111100000000000000000000000000000000000000000000000000000000011100000000000000001100000000000000000000000000000000000000000000000000000000
00000000000000000000000000000000000111110000000000001100111111100000000000000000000001111110000000000000000000000000000000000000000000000000000000000000000000000000000000000000000000000000000000000000
00000000000000000000000000000000000111110000000000000011111111100000000000000000001111111111100000000000000000000000000000000000000000000000000000000000000000000000000000001000000000000000000000000000
00000000000000000000000000000000000111100000000000000011111111110111000000000011111111111111110000000000000000000000000000000000000000000000000000000000000000000000001111110000000000000000000000000000
00000000000000000000000000000000000111000000000000000011111111111111000000000011111111111111110000000000000000000111000000000000000000000000000000000000000000001111111111110000000000000000000000000000
00000000000000000000000000000000000111000000000000000111111111111110000011110001111111111111110000000000000011001111000000000000000000000000000000000000011111111111111111110000000000000000000000000000
00000000000000000000000000000000000111100000000000111111111111111110000111111011111111111111111000000000000111111111000000000000000000000000011100000011111111111101111111111000000000000000000000000000
00000000000000000000000000000000000000000000000000111111111111111111001111111111111111111111111000000000000111111111100000000000000000000000010000000111111111111000111111111100000000000000000000000000
00000000000000000000001110000000000000000000000000011111111111011111000111111100000011111111111000000000000111111111100000000000000000000000000000000111111111110001111111110000000000000000000000000000
00000000000000000000001110000000000000000000000000011111111110001111101111111000000001111111110000000000000111111111110000000000000000000000000000000111111111111011111111100000000000000000000000000000
00000000000000000000000000000000000000111000000000011111111110000111111111111000000001111111000000000111001111111111110000000000000000000000001110000111111111111111111000000000000000000000000000000000
00000000000000000000000000000000000000111100000000111111111110000001111111111000000001111111000000000111001111111011111000000000000000000000001110001111111111111001000000000000000000000000000000000000
00000000000000000000000000000000000000011100000000011111111100000000000111111000000001111111100000000000001111111011111000000000000000000000000000001111111110000000000000000000000000000000000000000000
00000000000000000000000000000000000000000000000000011111101110000000000001111100000001111111100000000000011111111111111000000000000000000000000000001111111100000000000000000000000000000000000000000000
00000000000000000000000000011000000000000000000000011111000111000000111001111111000000111110000000000000011111111111111100000000000000000000000000011111111100000000010000000000000000000000000000000000
00000000000000000000000000011000000000000000000000111111000000000000111111111111110001111100000000011100011111100011111110000000000000000000100000001111111000000011110000000000000000000000000000000000
00000000000000000000000000000000000000000001111111111111110000000000001111111111111111111110000000011100011111100011111110000000000000000000100000011100111000011111111000000000000000000000000000000000
00000000000000000000000000000000000000000001111111101111111100000000000111111111111111111100000000000000111111100111111110000000000000000000000000011100111001001111111000000000000000000000000000000000
00000000000000000000000000000000000000000001111111101111111110000000001111111111111111111000000000000001111111000111111111000000000000000000000000111111111100001111111000000000000000000000000000000000
00000000000000000000000000000000000000000011111111111111111110000000000111111111111111111100000000000001111111000001111111100000000000000000000000111111111110011111111000000000000000000000000000000000
00000000000000000000000000000000000000000011111111111111111111000000000111111111111111111111100000000001111111000000111111100000000000000000000000111111111111111111111100000000000000000000000000000000
00000000000000000000000000000000000000000000001111111111111111100000000000011111111111111111111000000011111110000001111111100000000000000000000001111111111111111111111110000000000000000000000000000000
00000000000000000000000000000000000000000000000000111111111111100000000000011111111111111111111111000111111100000000011111110000000000000000001111111111111111111111111100000000000000000000000000000000
00000000000000000000000000000000000000000000000000111111111111100000011111111000001111111111101111111111111100000000011111111000000000000001111111111111111111111111110000000000000000000000000000000000
00000000000000000000000000000000000000000000000000010011111111100000111111110000000111111111000111100111111110000000111111111111000001110011111111111111111111111111110010000000000000000000000000000000
00000000000000000000000000000000000000000000000000010011110111100000111111000000000111111110000001000011111111111100111111111111111111111111111111111111000001111111111110000000000000000000000000000000
00000000000000000000000000000000000000000000000000001111110111100001111110000000000011111110000000000111111111111111111111111111111111111111100001111000000000000011111111000000000000000000000000000000
00000000000000000000000000000000000000000000000000001111111111100001111111000000000011110110000000001111111111111111111111111111111111000000000000000000000000000001111111000000000000000000000000000000
00000000000000000000000000000000000000000000000000000011111110000001111111000000000011110110000000001111111111111111111111111111111110000000000000000000000000000011111111000000000000000000000000000000
00000000000000000000000000000000000000000000000000000011111110000001111111000000000111111110000000001111111111111111111111111111111110000000000000000000000000000111111111000000000000000000000000000000
00000000000000000000000000000000000000000000000000001111111111100001111111100000000111111110000000001110111111111111111111111111111000000000000000000000000000000011111110000000000000000000000000000000
00000000000000000000000000000000000000000000000000001111111111100000111111100000000111111110000000001110011111111000100111111111110000000000000000000000111000000011111110000000000000000000000000000000
00000000000000000000000000000000000000000000000000000111111111100000111111110000001111111110000000001111000110000000000011111111100000000000000000000000111000001001111110000000000000000000000000000000
00000000000000000000000000000000000000000000000000001111111111100000011101111000011111100100000000000000000000000000000011111111110000000000000000000000000000111101111100000000000000000000000000000000
00000000000000000000000000000000000000000000000000011111111111100000011100110000111111100000000000000000000000000000000001111111111000000000000000111000000000111111111100000000000000000000000000000000
00000000000000000000000000000000000000000000000000011111110111000000001110000011111111111000000000000000000000000000000001111111111000000000000000111000000010011111111000000000000000000000000000000000
00000000000000000000000000000000011100000000000000011111110111000000000110001111111111000000000000000000000000000000000000111111111100000000001111111000000111011110110000000000000000000000000000000000
00000000000000000000000000000000011110000000000000011111111111000000000001111111111110000000000000000000000000000000000000111111111100000000011111111111111111111100110000000000000000000000000000000000
00000000000000000000000000000000011110000000000000111111111110000000000000110001111110000000000000000000000000000000000000011111111110000000011111111111111111110011110000000000000000000000000000000000
00000000000000000000000000000000111110000000000000111111111000000000000000000000111000000000000000000000000000000000000000000100111110000000111111111111111111110011000000001000000000000000000000000000
00000000000000000000000000000000111110000000000001111111111000000000000000000000000000000000000000000000000000000000000000000000000000000000111111111111111111111100000000001000000000000000000000000000
00000000000000000000000000000000011110000000000001111111111000000000000000000000000000000000000000000000000000000000000000000000000000000000111111111111111111111000000000000000000000000000000000000000
00000000000000000000000000000000011111000000000111111111111000000000000000000000000000000000000000000000000000000000000000000000000000000000111111111111111111100000000000000000000000000000000000000000
00000000000000000000000000000000111111000000001111111111110011100000000000000000000000000000000000000000000000000000000000000000000000000000001011111100001000000000000000000000000000000000000000000000
00000000000000000000000000000000111111100000111111111111100011100000000000000000000000000000000000000000000000000000000000000000000000000000000000000000000000000000000000000011000000000000000000000000
00000000000000000000000000000000111111111011111111111111000000000000000000000000000000000000000000000000000000000000000000000000000000000000000000000000000000000000000000000011000000000000000000000000
00000000000000000000000000000000111111111100111111111100000000000000000000000000000000000000000000000000000000000000000000000000000000000000000000000000000000000111000000000000000000000000000000000000
00000000000000000000000000000000011111111110111111110000000000000000000000000000000000000000000000000000000000000000000000000000000000000000000000000000000000000111000000000000000000000000000000000000
00000000000000000000000000000000011111111111111111000000000000000000000000000000000000000000000000000000000000000000000000000000000000000000000000000000000000000000000000000000000000000000000000000000
00000000000000000000000000000000011111111111000000000000000000000000000000000000000000000000000000000000000000000000000000000000000000000000000000000000000000000000000000000000000000000000000000000000
00000000000000000000000000000000000001111100000000000000000000000000000000000000000000000000000000000000000000000000000000000000000000000000000000000000000000000000000000000000000000000000000000000000
00000000000000000000000000000000000000000000000000000000000000000000000000000000000000000000000000000000000000000000000000000000000000000000000000000000000000000000000000000000000000000000000000000000
00000000000000000000000000000000000000000000000000000000000000000000000000000000000000000000000000000000000000000000000000000000000000000000000000000000000000000000000000000000000000000000000000000000
00000000000000000000000000000000000000000000000000000000000000000000000000000000000000000000000000000000000000000000000000000000000000000000000000000000000000000000000000000000000000000000000000000000
