P1
200 70
00000000000000000000000000000000000000000000000000000000000000000000000000000000000000000000000000000000000000000000000000000000000000000000000000000000000000000000000000000000000000000000000000000000
00000000000000000000000000000000000000000000000000000000000000000000000000000000000000000000000000000000000000000000000000000000000000000000000000000000000000000000000000000000000000000000000000000000
00000000000000000000000000000000000000000000000000000000000000000000000000000000000000000000000000000000000000000000000000000000000000000000000000000000000000000000000000000000000000000000000000000000
00000000000000000000000000000000000000000000000000000000000000000000000000000000000000000000000000000000000000000000000000000000000000000000000000000000000000000000000000000000000000000000000000000000
00000000000000000000000000000000000000000000000000000000000000000000000000000000000000000000000000000000000000000000000000000000000000000000000000000000000000000000000000000000000000000000000000000000
00000000000000000000000000000000000000000000000000000000000000000000000000000000000000000000000000000000000000000000000000000000000000000000000000000000000000000000000000000000000000000000000000000000
00000000000000000000000000000000000000000000000000000000000000000000000000000000000000000000000000000000000000000000000000000000000000000000000000000000000000000000000000000000000000000000000000000000
00000000000000000000000011100000000000000000000000000000000000000000000000000000000000000000000000000000000000000000000000000000000000000000000000000000000000000000000000000000000000000000000000000000
00000000000000000000000011100000000000000000000000000000000000000000000000000000000000000000000000000000001110000000000000000000000000000000000000000000000000000000000000000000000000000000000000000000
00000000000000000000000000000000000000000000000000000000000000000000000000000000000000000001000011100000001110000000000000000000000000000000000000000000000000000000000000000000000000000000000000000000
00000000000000000000000000000000000000000000000000000000000000000000000000000000000000000001110011000000000000000000000000000000000000000000000000000000000000000000000000000000000000000000000000000000
00000000000000000000000000000000000000000000000000000000000000000000000000000000000000000000000001000000000000000000000000000000000000000000000000000000000000000000000000000000000000000000000000000000
00000000000000000000000000000000000000000000000000000000000000000000000000000000000000000000000000000000000000000000000000000000000000000000000000000000000000000000000000000000000000000000000000000000
00000000000000000000000000000000000000000000000000000000000001111111110000000000000000000000000000000000000000000000000000000000000000000000000000000000000000000000000000000000000000000000000000000000
00000000000000000000000000000000000000000000000000000000011111111111111110000000000000000000000000000000000000000111000000000000000111000000000000000000000000000000000000000000000000000000000000000000
00000000000000000000000000000000000000000000000000000000011111111111111111000000000000000000000000000000000000000111100000000000000000000000000000111111000000000000000000000000000000000000000000000000
00000000000000000000000000000000000001000000000000000000011111111111111111000000000000000000000000000000000000000011111110000011110000000000000111111111100100000000100000000000000000000000000000000000
00000000000000000000000000000000000001110000000000000000111110011111111111100000000000000000000000000000000000000001111111100011100011110000001111111111111110000001110000000000000000000000000000000000
00000000000000000000000000000000000000000000000000000000011100000001111111111100000000000000000000000000000000000000111111110111110111111000011100111111111110000001111100100000000000000000000000000000
00000000000000000000000000000000000000000000000000000000111100000000111111111100111111111110000000000000000000000000011111111111111111110000111000000011111110000011111000100000000000000000000000000000
00000000000000000000000000000000000000000000000000000111111000000000111111110000011111111111111000000000000000000000111111111111111111100001111000000001111110000011111000000000000000000000000000000000
00000000000000000000000000000000000000000000000000001111110000000000111111100000111111111111111110000000000000011100011110001111111111100001110000000000111110000111110000000000000000000000000000000000
00000000000000000000000000000000000000000000000000001111100000000000111111100001111111111011111100000000000000011000000000000011111111100011100000000000011110000000000000000000000000000000000000000000
00000000000000000000000000000000000000000000000000011111000000000000011111001111111111111011111110000000000000000000000000000000011111000011100000000000001100010000000000000000000000000000000000000000
00000000000000000000000000000000000000000000000000111110000000000000111111001111111111111111111111000000000000000000000000000000011111000011000000000000001100011111000000000000000000000000000000000000
00000000000000000000000000000000000000000000000000011110000000000001111110011111111111111111111111000110000000000000000000000000111111000010000000000000011100011110000000000000000000000000000000000000
00000000000000000000000000000000000000000000000000000000000000000011111110011111111111111111101111101111000000000000000000000001111111000010000000000001111000111110000000000000000000000000000000000000
00000000000000000000000000000000000000000000000000000000000000000011111100001111111111110000001111111111000000000000000000000011111111000000000000000001110001111100000000000000000000000000000000000000
00000000000000000000000000000000000000000000000000000000000000000111111100001111111111000000001111111111000000000000000000000100111110000000000000000011111111111000000000000000000000000000000000000000
00000000000000000000000000000000000000000000000000000000000000011111111000011111111111000000001111111110000000000000000000000110111110000000000000000111111111110000000000000000000000000000000000000000
00000000000000000000000000000000000000000000000111000000000000111111000000011111011110000000000111111111000000000000000000000111111100000000000000000111111111100000000000000000000000000000000000000000
00000000000000000000000000000000000000000000000111000000000001111110000000011111011110000000000111111111110000000000000000001111111100000000000000011111111111100000000000000000000000000000000000000000
00000000000000000000000000000000001110000000000011100000111111111111000000011111111110000000000111111111100000000000000000001111111000000000000000111111111111100000000000000000000000000000000000000000
00000000000000000000000000000000000000000000000011100011111111111100000000001111111110000000000011111111100000000000000000001111111000000000000001111111111111100000111000000000000000000000000000000000
00000000000000000000000000000000000000000000000000000111111111110000000000001111111110000000000001111011111000000000000000001111111000000111100000111111110111100000100000000000000000000000000000000000
00000000000000000000000000000000000000000000000000000111111111100000000000001111111111000000000001111011111000000000000000011111110000000111100000111111100011100000000000000000000000000000000000000000
00000000000000000000000000000000000000000000000000000111111111110000000000001111111111100000000011111111111000000000000000011111110000000000000001111001000111110000000000000000000000000000000000000000
00000000000000000000000000000000000000000000000000000011111111111000000000001111111111100000000011111111111000111000000000011111110000000000000011110000000111110000000000000000000000000000000000000000
00000000000000000000000000000000000000000000000000000001111111111000000000001111001111000000000011111111111000111000000000001111100000000000001111111000000011110000000000000000000000000000000000000000
00000000000000000000000000000000000000000000000000000000001111110000000000000110000011000000000011111111001000000000000000001111000000000000011111110000000111100000000000000000000000000000000000000000
00000000000000000000000000000000000000000000000000000000000111111000000000000001110011100000000111111110000000000000000000111111100000000001111111000000000111100000000000000011100000000000000000000000
00000000000000000000000000000000000000000000000000000000000111111100000000000001111111110000000111111111000000000000000001111111100000001111111110000000000111000000000000000010000000000000000000000000
00000000000000000000000000000000000000000000000000000000000111111100000000000011111111111000001111101111111100000000000011111111100011111101111000000000001110000000000000000000000000000000000000000000
00000000000000000000000000000000000000000000000000000000000111111100000000000011111111111111111111101111111111111111111111111111111111111000110000000000001110000000000000000000000000000000000000000000
00000000000000000000000000000000000000000000000000000000000011111000000000000001111111111111111111111111111111111011111111111111111111111000000000000000001100000000000000000000000000000000000000000000
00000000000000000000000000000000000000000000000000000000000111110000000000000011111111111111111111111111111111111011111111111111111111000000000000000000001000000000000000000000000000000000000000000000
00000000000000000000000000000000000011100000000000000000000111110000000011111111111110111111111111111101111111111111111111111111000000000000000000000000110000000000000000000000000000000000000000000000
00000000000000000000000000000000000011100000000000000000001111110000011111111111111110111111111111111000111110000000000111111110000000000000000000000011100000000000000000000000000000000000000000000000
00000000000000000000000000000000000000000011100000000000011111111111111111111111111111111011111111111100011100000000000111111100000000000000001111100011000000000000000000000000000000000000000000000000
00000000000000000000000000000000000000000111100000000000011111111111111111000000001111111011111111111110111000000000000111111100000000000000001111100010000000000000000000000000000000000000000000000000
00000000000000000000000000000000000000001111100000000000111111111111110000000000000011111111111100011111111000000000001111111100000000000000011111111000000000000000000000000000000000000000000000000000
00000000000000000000000000000000000000000111100000000001111111111100000000000000000000111111111100011111111001100000001111111110000000000000011111111100000000000000000000000000000000000000000000000000
00000000000000000000000001110000000000001111110000011111111111111000000000000000000000001100000000111111111011111111001111111110000000000000001100011100000000000000000000000000000000000000000000000000
00000000000000000000000001110000000000001111111001111111111110000111000000000000000000000000000000111111111011111111111111111000000000000000000000000000000000000000001110000000000000000000000000000000
00000000000000000000000000000000000000001111111111111111111110000111000111000000000000000000000000111111001011111111111111111000000000000000000001110000000000000000001110000000000000000000000000000000
00000000000000000000000000000000000000001111111111111111100110000000000111000000000000000000000000111110000011111111111111111111100000000000000001110000000000000000000000000000000000000000000000000000
00000000000000000000000000000000000000011111111111111111100110000000000000000000000000000000000000111111000011111111111111110111111100000000000000000000000000000000000000000000000000000000000000000000
00000000000000000000001110000000000011111111111111111111110000000000000000000000000000000000000000011111100000000111111111110111100100000000000000000000000000000000000000000000000000000000000000000000
00000000000000000000001110000000000111111111111101111111110000000000000000000001110000000000000000011111100000000000001111111111000000000000000000000000000000000000000111000000000000000000000000000000
00000000000000000000000000000000001111111111111000100000000000111000000000000001111100000000001111111111110000000000000000001000100000000000000000000000000000000000000111000001110000000000000000000000
00000000000000000000000000000000111111110000001100000000000000111000000000000000011111000000011111111111111000000000000000000000111000111000000000000000000000000000000000000001110000000000000000000000
00000000000000000000000000000000111111000000000000000000000000110000000000000000001111111101111111111111111000000000000000000000011000111000000000000000000000000000000000000000000000000000000000000000
00000000000000000000000000000000011100000000000000000000000001110000000000000000001110111111111111111110000000000000000000000000000111000000000000000000000000000000000000000000000000000000000000000000
00000000000000000000000000000000010000000000000000000000000001110000000000000000001110111111111111111110000000000000000000000000000111000000000000000000000000000000000000000000000000000000000000000000
00000000000000000000000000000000000000000000000000000000000000000000000000000000000111111111111111111110000000000000000000000000000000000000000000000000000000000000000000000000000000000000000000000000
00000000000000000000000000000000000000000000000000000000000000000000000000000000000111111111111111111100000000000000000000000000000000000000000000000000000000000000000000000000000000000000000000000000
00000000000000000000000000000000000000000000000000000000000000000000000000000000000111111111111111110000000000000000000000000000000000000000000000000000000000000000000000000000000000000000000000000000
00000000000000000000000000000000000000000000000000000000000000000000000000000000000111111111111111100000000000000000000000000000000000000000000000000000000000000000000000000000000000000000000000000000
00000000000000000000000000000000000000000000000000000000000000000000000000000000000111111111111110000000000000000000000000000000000000000000000000000000000000000000000000000000000000000000000000000000
00000000000000000000000000000000000000000000000000000000000000000000000000000000000011111111111000000000000000000000000000000000000000000000000000000000000000000000000000000000000000000000000000000000
