P1
200 70
00000000000000000000000000000000000000000000000000000000000000000000000000000000000000000000000000000000000000000000000000000000000000000000000000000000000000000000000000000000000000000000000000000000
00000000000000000000000000000000000000000000000000000000000000000000000000000000000000000000000000000000000000000000000000000000000000000000000000000000000000000000000000000000000000000000000000000000
00000000000000000000000000000000000000000000000000000000000000000000000000000000000000000000000000000000000000000000000000000000000000000000000000000000000000000000000000000000000000000000000000000000
00000000000000000000000000000000000000000000000000000000000000000000000000000000000000000000000000000000000000000000000000000000000000000000000000000000000000000000000000000000000000000000000000000000
00000000000000000000000000000000000000000000000000000000000000000000000000000000000000000000000000000000000000000000000000000000000000000000000000000000000000000000000000000000000000000000000000000000
00000000000000000000000000000000000000000000000000000000000000000000000000000000000000000000000000000000000000000000000000000000000000000000000000000000000000000000000000000000000000000000000000000000
00000000000000000000000000000000000000000000000000000000000000000000000000000000000000000000000000000000000000000000000000000000000000000000000000000000000000000000000000000000000000000000000000000000
00000000000000000000000000000000000000000000000000000000000000000000000000000000000000000000000000000000000000000000011100000000000000000000000000000000000000000000000000000000000000000000000000000000
00000000000000000000000000000000000000000000000000000000000000000000000011100000111000000000000000000000000000000000011100000000000000000000000000000000000011100000000011111000000111111000000000000000
00000000000000000000000000000000000000000000000000000000000000000000000011100000111000000000000000000000000000000000000001110000000000000000000000000000000011111111111111111111111111111100000000000000
00000000000000000000011100000000000000000000000000000000000000000000000000000000000000000000000000000000000000000000000001110000000000000000000000000000000000011110111111111111011111111100000000000000
00000000000000000000011100000000000000000000000000000000000000000000000000000000000000000000000000000000000000000000000000000000000000000000000000000000000000011110111111111110011111111100000000000000
00000000000000000000000000000000000000000000000111111000000000000000000000000000000000000000000000000000000000000000000000000000000011111000000000000000000000011111111111111100111111111100000000000000
00000000000000000000000000000000000000000000011111111100000000000111000000000000000001111000000000111000000000000000000000000111100111111111000000000000000000011101111111111101110111111000000000000000
00000000000000000000000000000000000000000011111111111110000000000111000000000000011111111110000000111000000000000000000010001111111111111111111000000000000000111101111111111111110111111000000000000000
00000000000000000000000000000000000000000111111111111110000000000000000000000011111111111111100000000000000000000000011111011111111111111111111100000000000000111111111111111111111111111000000000000000
00000000000000000000000000000000000000011111111111111110000000000000000000001111111111111111111000000000000000000000011111111111111111111111111110000000000000111111111111111111111111110000000000000000
00000000000000000000000000000000000001111111111111111110000000000000000000111111111111111111111100000000000000000000011111111111111111111111111110000000000000011101111111111111111111110000000000000000
00000000000000000000000000000000000011111111111111111111000011100000000011100011111111111111111111110000000000000000001111111111111111111111111111000000000000111101111110001111100111100000000000000000
00000000000000000000000000000000001111111111011111011111110000100000000111110000101111111111111111110000000000000000001111111111111111011111111111000000000001111111111000000000000000000000000000000000
00000000000000000000000000000000011111111110001110011111111000000000001111111100000111111111111111100000000000000000111111111111111111001111111111000000000001111111111000000000000000000000000000000000
00000000000000000000000000000001111001110001110001111111111111110000111111111000001111111111111111110000000000000001111111100000000111110001111111000000000001111111111000000000000000000000000000000000
00000000000000000000000000000000111000000011100001111111111111111111111111111000001111111111111111100000000000000001110000000000000011111001111111000000000001111111111000000000000000000000000000000000
00000000000000000000000000000001111110001111100011111110000011111111111111000000000001111111111111000000000000000000000000000000000001111111111111000000000001111111111100111000000000000000000000000000
00000000000000000000000000000011111111111111110001111110000000111111111111001000000000111111111111100000000000000000000000000000000001111111111110000000000011111111111111111000000000000000000000000000
00000000000000000000000000111111111111111111111011111110000000001111111111111000000000111111011111111000000000000000000000000000000001111111111110000000000011111111111111111000000000000000000000000000
00000000000000000000000000111111111111110011111111111100000000000111111101111000000000011111011111111100000000000000000000000000000011111111111110000000000011111111111111000110000000000000000000000000
00000000000000000000000000111111111110000001111111111000000000000111111101111000000000001111111111111100000000000111000000000000000011111111111100000000000100111111111111101111100000000000000000000000
00000000000000000000000000111110111000000001111111110000000000001110111111111100000000001111111111111100000000000111000000000000000111111111111000000000001110111111111111111111111110000000000000000000
00000000000000000000000000111110010000000001111111111000000000001110111111111111000000000011111101111110000000000000000000000000001111111111111000000000011111111111111111111111111110000000000000000000
00000000000000000000000000111111000000000001111111111000000000001111111011111111110000000011111101111110000000000000000000000000001111111111111000000000111111111111111111111111111100000000000000000000
00000000000000000000000000111110000000000000111111110000000000001110111011111111111100000111111111111110000000000000000000000000011111111111110000000011111111111111111111111111111000000000000000000000
00000000000000000000000000111100000000000000111111110000000000001110111111111111111111001111111111111110000000000000000000000000111111111111100000000111111110111111111111111111111100000000000000000000
00000000000000000000000000001000000000000001110111110000000000001111111111111111111111111111110111111110000000000000000000000001111111111111000000011111111110111111111111111110000000000000000000000000
00000000000000000000000000000000000000000011110111100000000000000111101111111111001111111111110111111110000000000000000000011111111111111111000001111111001111111011111111111110000000000000000000000000
00000000000000000000000000000000000000000111111111000000000000000111101111111111000011110111111111111111000000000000000001111111111111111110000111111100001111110001111111111111111100000000000000000000
00000000000000000000000000000000000000001111111110000000000000000111111111111111000000100111111111111111100000000000000011111101111111000000011111111000001111110000000111111111111100000000000000000000
00000000000000000000000000000000000000011111111110000000000000000011011111111111100000001111111111111111100000000000001111111101111110000011111111110000011110000000000011111111111100000000000000000000
00000000000000000000000000000000000000111111111111000000000000000011011111111111100000001111111111111111000000000001111111111111111111000111111111111000000000000000000001111111111100000000000000000000
00000000000000000000000000000000000111111111111111000000000000000011111111111111110000011111111111111110000000000111111111111111111111111111111000110000000000000000000001111111111100000000000000000000
00000000000000000000000000000000001111111111111111110000000000000011111101111111110000111111111111111110000000011111111111111111111111111110000000000000000000000000000001111111111100000000000000000000
00000000000000000000000000000000111110111111111111110000000000000001111101111111110000011110011111111111111111111111111111011111111111111100000000000000000000000000000001111111111000000000000000000000
00000000000000000000000110000000111110111111111101100000000000000000111111111111100100111100011111111111111111111111111110001111111111110000000000000000000111000000000001111111111000000000000000000000
00000000000000000000000111000000111111111111111101110000000000000000011111111011101111110000011111111111111111111111111111011111111111000000000000000000000111111000000001111111111000000000000000000000
00000000000000000000000000000000111111111111111111111000000000000000001111111011111111100000011111111111011111111111111111111111110000000000000000000000000000111000000001111111111000000000000000000000
00000000000000000000000000000000111111111111111111111000000000000000000111111111111110000000011111111110001111111111111100111110000000000000000000000000000000000000000011111111111000000000000000000000
00000000000000000000000000000000011111111111111111111000000000000000000000111111111100000000000111111100011111111111111000111100000000000000000000000000000000000000000011111111110000000000000000000000
00000000000000000000000000000000011100000111111111111100000000000000000000011111100100000000000111111100111111111111111001111110000000000000000000000000000000000000000011111111110000000000000000000000
00000000000000000000000000000000001000000001111110111100000000000000000000000000001110000000001111111100111111111111111111111111110000000000000000000000000000000000000111111111100000000000000000000000
00000000000000000000000000000000000000000001111110111000000000000000000000000000001110000000111111111000001110000000111111111111111111000000000000000011000000000000001111111111100000000000000000000000
00000000000000000000000000000111000000000000111111111000000000000000000000000000000000000000111101111000000000000000111111111111000111000000000000000011110000000000011111111111100000000000000000000000
00000000000000000000000000000111000000000000111111111000000000000000000000000000000000000000011101110000000000000001111111111111000111000000000000000011111100000000111111111111000000000000000000000000
00000000000000000000000000000000000000000000111100111000000111000000000000000000000000000000011111100000000000000001111111111111111111000000000000000011111111111111111111111110000000000000000000000000
00000000000000000000000000000000000000000000111000011000000111000000000000000000000000000000111111000000000000000000001111111111111110000000000000000111111001111111111111111110000000000000000000000000
00000000000000000000000000000000000011100000110000011000000000000000000000000000000000000001111110000000000000000000000001111111111110000000000000000111110001111111111111111100000000000000000000000000
00000000000000000000000000000000000011000000000001111000000000000000000000000001000000000011111100000000000000000000000000001111111110000000000000000111111000111111111111111000000000000000000000000000
00000000000000000000000000000000000000000000000111111000000000000000000000000011100000000111111100000000000000000000000000000001111100000000000000000111111101111111111111111000000000000000000000000000
00000000000000000000000000000000000000000001001111110000000000000000000000000111111100111111110000000000000000000000000000000000011100000000000000000111111111111111111111110000000000000000000000000000
00000000000000000000000000000000000000000111111111110000000000000000000000000111111111111111110000000000000000000000000000000000000000000000000000000110111111111111111111100000000000000000000000000000
00000000000000000000000000000000000000001111111111110000000000000000000000000111111111111110000000000000000000000000000000000000000000000000000000000110111111111111111110000000000000000000000000000000
00000000000000000000000000000011111100110011111111100000000000000000000000000111111111111000000000000000000000000000000000000000000000000000000000000111111111111100111100000000000000000000000000000000
00000000000000000000000000000111111100011011111111000000000000000000000000000011111111110000000000000000000000000000000000000000000000000000000000000001111111011100011000000000000000000000000000000000
00000000000000000000000000000111111110111111111110000000000000000000000000000001111111100001110011100000000000000000000000000000000000000000000000000000111110001110000000000000000000000000000000000000
00000000000000000000000000000011111111111111111100000000000000000000000000000001111100000001110011100000000000000000000000000000000000000000000000000000000000000000000000000000000000000000000000000000
00000000000000000000000000000011111111111111111000000000000000000000000000000000010000000000000000000000000000000000000000000000000000000000000000000000000000000000000000000000000000000000000000000000
00000000000000000000000000000111111111111111110000000000000000000000000000000000000000000000000000000000000000000000000000000000000000000000000000000000000000000000000000000000000000000000000000000000
00000000000000000000000000000011111111111111000000000000000000000000000000000000000000000000000000000000000000000000000000000000000000000000000000000000000000000000000000000000000000000000000000000000
00000000000000000000000000000001111111110000000000000000000000000000000000000000000000000000000000000000000000000000000000000000000000000000000000000000000000000000000000000000000000000000000000000000
00000000000000000000000000000000001000000000000000000000000000000000000000000000000000000000000000000000000000000000000000000000000000000000000000000000000000000000000000000000000000000000000000000000
00000000000000000000000000000000000000000000000000000000000000000000000000000000000000000000000000000000000000000000000000000000000000000000000000000000000000000000000000000000000000000000000000000000
