P1
200 70
00000000000000000000000000000000000000000000000000000000000000000000000000000000000000000000000000000000000000000000000000000000000000000000000000000000000000000000000000000000000000000000000000000000
00000000000000000000000000000000000000000000000000000000000000000000000000000000000000000000000000000000000000000000000000000000000000000000000000000000000000000000000000000000000000000000000000000000
00000000000000000000000000000000000000000000000000000000000000000000000000000000000000000000000000000000000000000000000000000000000000000000000000000000000000000000000000000000000000000000000000000000
00000000000000000000000000000000000000000000000000000000000000000000000000000000000000000000000000000000000000000000000000000000000000000000000000000000000000000000000000000000000000000000000000000000
00000000000000000000000000000000000000000000000000000000000000000000000000000000000000000000000000000000000000000000000000000000000000000000000000000000000000000000000000000000000000000000000000000000
00000000000000000000000000000000000000000000000000000000000000000000000000000000000000000000000000000000000000000000000000000000000000000000000000000000000000000000000000000000000000000000000000000000
00000000000000000000000000000000000000000000000000000000000000000000000000000000000000000000000000000000000000000000000000000000000000000000000000000000000000000000000000000000000000000000000000000000
00000000000000000000000000000000000000000000000000000000000000000000000000000000000000000000000000000000000000000000000000000000000000000000000000000000000000000000000000000000000000000000000000000000
00000000000000000000000000000000000000000000000000000000000000000000111000000000000000000000000000000000000000000000110000000000000000000000000000000000000000000000000000000000000000000000000000000000
00000000000000000000000000000000000000000000000000000000110000000000111000000000000000000000000000000000000000000000000000000000000000000000000000000000000111100011111000000000000000000000000000000000
00000000000000000000000000000000000000000000000000001111111100000000000000000000000000000000000000000000000000000000000000000000000000000000000000000001111111111111111000000000000000000000000000000000
00000000000000000000000000000000000000000000000000111111111110000000000000000000000000000000000000000000000000000000001100000000000000000000000000000111111111111110000000000000000000000000000000000000
00000000000000000000000000000000000000000000000011111111111110000110000000000000000000000000000000000000000000000000001100000000000000000000000000001111111111111100000000000000000000000000000000000000
00000000000000000000000000000000000000000000000111111111111110000110000000000000000000000000000000000000000000000000000000000000000000000000000000111111111111111100000000000000000000000000000000000000
00000000000000000000000000000000000000000000001000111111111110000000000000000000000000000000000001110000000000000000000000000000000000000000000011111111111111111110000000000000000000000000000000000000
00000000000000000000000000000000000000000000111000000000111100000000000000011111100000000000000001110000000000000000000000000000000000000000001111111111111111111111000000000000000000000000000000000000
00000000000000000000000000000000000000000001111100000000111110000000000111111111110000000000000000000000000000000000000000000000000000000000011111111011111111111111000000000000000000000000000000000000
00000000000000000000000000000000000000000001111100000000011111000000011111111111110000000000000000000000000000000000000000000000000000000000001111110011111111111111100000000000000000000000000000000000
00000000000000000000000000000000000000000001111000000000011111100000111111111111111000000000000000000000000000000000000000000000000000000000001111101111111111111111100000000000000000000000000000000000
00000000000000000000000000000000000000000011111000000000011111000001111111111111111110000000000000000000000000000000000000000000000000000000011110001111111111111100000000000000000000000000000000000000
00000000000000000000000000000000000000000111110000000000011111000011111111100011111111000000000000000000000000000000000000000000000000000000011100000011111111111100000000000000000000000000000000000000
00000000000000000000000000000000000000000111110000000000001111000011111110000001111111000000000000000000000000000000000000000000000000000000010000000001111111111100000000000000000000000000000000000000
00000000000000000000000000000000000000000111110000000000011111000111111100000000111111100000000000000000000000000000000000000000001100000000000000000001111111111100000000000000000000000000000000000000
00000000000000000000000000000000000000000000010000000000011111000111111100000000011111100111000000000000000000000000000000000000111111000000000000000011111111111100000000000000000000000000000000000000
00000000000000000000000000000000000000000000010000000000111111100111111000000000011111110111000000000000000000000000000000000001111111110000000000000011111111111100000000000000000000000000000000000000
00000000000000000000000000000000000000000111000000000000111100100111110000000000011111110000000000000000000000000001110000000111111111111100000000000011111111111100000000000000000000000000000000000000
00000000000000000000000000000000000000000010000000000001111000000111110000000000001111110000000000000000000000000001110000011111111111111111100000000011111111111100000000000000000000000000000000000000
00000000000000000000000000000000000000000000000000000001111100000111111000000000001111110000000000000000000000000000000001111111111111111111100000000011111111111110000000000000000000000000000000000000
00000000000000000000000000000000000000000000000000111011111000000111111000000000001111110001000000000000000000000000000011111111101111111111100100000011111111111100000000000000000000000000000000000000
00000000000000000000000000000000000000000000000000111111110000000111111000000000000001111001000000000000000000000000001111111111101111111111100100000000111111111100000000000000000000000000000000000000
00000000000000000000100000000000000000000000000000011111110000000011111000000000001000111000000000000000000000000000111111111111111111111111110000000000111111111100000000000000000000000000000000000000
00000000000000000000100000000000000000000000000000011111100000000001111000000000001111000000000000000000000000000011111111111111111111011111100000000011111111111100000000000000000000000000000000000000
00000000000000000000000000000000000000000000000000111111111000000001111100000000000000000000000100000000000000000111101111111111111111011111100000000011101111111100000011100000000000000000000000000000
00000000000000000000000000000011100000000000000111111111111110000000111110000000000000011000000100000000000000011111101111111111100111111111000000000011101111101100000011100000000000000000000000000000
00000000000000000000000000000011100000000000000111111111111111000000111111000000011111111000000000000000000001111111111111111000000111111111000000000011111111101100000000000000000000000000000000000000
00000000000000000000000000000000000000000000000111111111111111100000111111100000111111111100000000000000000111111111111111110000001111111110000000000001111111111110000000111000000000000000000000000000
00000000000000000000000000000000000000000000000111100111111111100000011111111111111111111100000000000000111111111011110001000001111111111110000000000001111111111110000000111000000000000000000000000000
00000000000000000000000000000000000000000000000000000000111111110000011110111111111111111100000000000001111111111011100000000011111111111110000000000001111111111110000000000000000000000000000000000000
00000000000000000000000000000000000000000000000000000000001111110001111100111111111111111100000000000011111101111111000000000111111111111100000000000001111111111100000000000000000000000000000000000000
00000000000000000000000000000000000000000000000000000000001111110000110001111111111101111100000000000011111101111111000000000111111111111100000000000011111111111000000000000000000000000000000000000000
00000000000000000000001110000000000000000000000000000000011111110000000000111111110001111110000000001111111111111000000000001111111111111100000000000011111111111000000000000000000000000000000000000000
00000000000000000000001110000000000000000000000000000000011111110000000000011111110001111110000000001111111111110000000000001111111111111000000000000011111111111000000000000000000000000000000000000000
00000000000000000000000110000000000000000000000000000000000111111111111111111111111111111110000000011111111111110000000000011111111111110000000000000011111111111100000000000000000000000000000000000000
00000000000000000000000111000000000000000000000000000000000111111111111111111111111111111111111111111011111111111100000000011111111111100000000000000001111111111100000000000000000000000000000000000000
00000000000000000000000111000000000000000000000000000000011111111111111111111111111111111111111101111011111111110011000000111111111111100000000000000001111111111110000000000000000000000000000000000000
00000000000000000000000000000000000000000000000000000000111111111111111111111111111111111111111101111111111111110111111111111111110111100000000000000001111111111110000000000000000000000000000000000000
00000000000000000000000000000000000000000000000000001000111111111000001110000000000011111111011111111111111111111111111111111111110111100000000000000001111111110010000000000000000000000000000000000000
00000000000000000000000000000000000000000000000000011101111110110000001111000000000011111110000000000011110011111111111111111111111111110000000000000001111111110110000000000000000000000000000000000000
00000000000000000000000000000000000000000000000001111111111110110000001111110000000111111110000000000000000011111111111111111101111111111100001100000001001111111110000000011100000000000000000000000000
00000000000000000000000000000000000000000000000011111111111111111000000011111100011111111110000000001110000111111111111111111101110111111111111111110000001111111110000000011100000000000000000000000000
00000000000000000000000000000000000000000000001111111100111111111000000001111111111111111110000000001110000000111111111111111111110011111111111111111000111111111100000000000000000000000000000000000000
00000000000000000000000000000000000001100000011111110000111111100000000011111111111111111100000000000000000000011111111111111111111111000111111111111111111111111110000000000000000000000000000000000000
00000000000000000000000000000000000111110000111111000001111111000000000000111111011111111000000000000000000000000011111111111111111111000000001111111111111111111111111100000000000000000000000000000000
00000000000000000000000011000000000111110001111110000111111111000000000000011111011111111000000000000000000000000000111111111111111000011000000111111111111111111111111110000000000000000000000000000000
00000000000000000000000011000000000111110011111100000111111111100000000000000011111111110000011100000000000000000000011111111111111000111100000000111111111111111111111111100000000000000000000000000000
00000000000000000000000000000000000111111111100000001111111111100000000000000000111111100000011100000000000000000000111111111111111111111100000000001111111000001111111111100000000000000000000000000000
00000000000000000000000000000000000111101111000000111111111000000000000000000000111100000000000000000000000000000001111111101111111111111100000000000011111100000000101111100000000000000000000000000000
00000000000000000000000000000000001111101111000001111111110000000000000000000000111000000000000000000000000000000001111111101111111111111000000000000001111110000000000011100000000000000000000000000000
00000000000000000000000000000000011111111111111100111111000000000000000000000000000000000000000000000000000000000011111111111111111111111000000000000000111111100000000000000000000000000000000000000000
00000000000000000000000000000000011111111111111110111100000000000000000000000000000000000000000000000000000000000111111111111111110111110000000000000000011111001000000000000000000000000000000000000000
00000000000000000000000000000000011111111111111111111000000000000000000000000000000000000000000000000000000000000111111111110111100011110000000000000000000111011110000000000000000000000000000000000000
00000000000000000000000000000000011111111111111000000000000000000000000000000000000000000000000000000000000000000011111111110111000000000000000000000000000011111111000000000000000000000000000000000000
00000000000000000000000000000000011111111111100000000100000000000000000000000000000000000000000000000000000000000000011111111111000000000000000000000000000000111110000000000000000000000000000000000000
00000000000000000000000000000000011111100000000000000111000000000000000000000000000000000000000000000000000000000000001111111110000000000000000000000000000000011111000000000000000000000000000000000000
00000000000000000000000000000000111111000000000000000000000000000000000000000000000000000000000000000000000000000000000001111110000000000000000000000000000000000111110000000000000000000000000000000000
00000000000000000000000000000000111110000000000000000000000000000000000000000000000000000000000000000000000000000000000000011100000000000000000000000000000000000011111000000000000000000000000000000000
00000000000000000000000000000001111100000000000000000000000000000000000000000000000000000000000000000000000000000000000000000000000000000000000000000000000000000011111100000000000000000000000000000000
00000000000000000000000000000000011100000000000000000000000000000000000000000000000000000000000000000000000000000000000000000000000000000000000000000000000000000001111110000000000000000000000000000000
00000000000000000000000000000000001000000000000000000000000000000000000000000000000000000000000000000000000000000000000000000000000000000000000000000000000000000000111000000000000000000000000000000000
00000000000000000000000000000000000000000000000000000000000000000000000000000000000000000000000000000000000000000000000000000000000000000000000000000000000000000000010000000000000000000000000000000000
