P1
200 70
00000000000000000000000000000000000000000000000000000000000000000000000000000000000000000000000000000000000000000000000000000000000000000000000000000000000000000000000000000000000000000000000000000000
00000000000000000000000000000000000000000000000000000000000000000000000000000000000000000000000000000000000000000000000000000000000000000000000000000000000000000000000000000000000000000000000000000000
00000000000000000000000000000000000000000000000000000000000000000000000000000000000000000000000000000000000000000000000000000000000000000000000000000000000000000000000000000000000000000000000000000000
00000000000000000000000000000000000000000000000000000000000000000000000000000000000000000000000000000000000000000000000000000000000000000000000000000000000000000000000000000000000000000000000000000000
00000000000000000000000000000000000000000000000000000000000000000000000000000000000000000000000000000000000000000000000000000000000000000000000000000000000000000000000000000000000000000000000000000000
00000000000000000000000000000000000000000000000000000000000000000000000000000000000000000000000000000000000000000000000000000000000000000000000000000000000000000000000000000000000000000000000000000000
00000000000000000000000000000000000000000000000000000000000000000000000000000000000000000000000000000000000000000000000000000000000000000000000000000000000000000000000000000000000000000000000000000000
00000000000000000000000000000000000000000000000000000000000000000000000000000000000000000000000000000000000000000000000000000000000000000100000000000000000000000000000000000000000000000000000000000000
00000000000000000000000000000000000000000000000000001110000000000000000000000000000000000000000000000000000000000000000000000000000000000100000000000000000000000000000000000000000000000000000000000000
00000000000000000000000000000000000000000000000000001110000000000000000000000000000000000000000010000000000000000000000000000000000000000000000000000000000000000000000000000000000000000000000000000000
00000000000000000000001110000000000000000000000000000000000000000000000000000000000000000000000011100000000000000000000000000000000000000000000000000000000000000000000000000000000000000000000000000000
00000000000000000000001110000000000000000000000001100000000000000000000000000000000000000000000000000000000000000000000000000000000000000000000000000000000000000001110000000000000000000000000000000000
00000000000000000000000000000000000000000001111111111110000000000000000000000000000000000000000000000000000000000000000000000000000000000000000000000000000000000001110000000000000000000000000000000000
00000000000000000000000000000000000001111111111111111111100000000000000000000000000000000000000000000000000000000000000000000000000000000000000000000000000000000000000000000000000000000000000000000000
00000000000000000000000000000000001111111111111111111111111000000000000000000000000000000000000000000000000000000000000000000000000000000000000000000000000000000000000000000000000000000000000000000000
00000000000000000000000000000000011111111110011111111111111100000000000000000000000000111100000000000000000000000000000000000000000000000000000000000000000000000000000000000000000000000000000000000000
00000000000000000000000000000000111111111000000000111111111100000000000000000000111111111111110000000000000000000000000000000000000000000000000000000000000000000000000000000000000000000000000000000000
00000000000000000000000000000001111111100000000000011111111110000000000000000011111111111111111000000000000000000000001111111111110000000000000000000000010000000000000000000000000000000000000000000000
00000000000000000000000000000000111111000000000000011111111111000000000000000111111111111111111100000000000000000000111110000111111000000000000000000011111111000000000000000000000000000000000000000000
00000000000000000000000000000000011111000000000000011111111111000000000000000110011111111110111100000000000000000001111110000001111000111000000000001111111111100000000000000000000000000000000000000000
00000000000000000000000000000000011111001110000000000111111111000000000000011000001111111110111110000000000000000011111111111001111000111000000111111111111111110000000000000000000000000000000000000000
00000000000000000000000000000000011111001110000000000011111111000000000000111100001110001111111110111000000000001000111111111111111000000000011111111111111111100000000000000000000000000000000000000000
00000000000000000000000000000000001100000000000000000011111111000000000001111111110000000111111111000000000000011000011111111111111000000000111111111111111111100000000000000000000000000000000000000000
00000000000000000000000111000000000000000000000000000011111111000000000011111111000000000010011111000000000000111100111111111111111000000001111111111111111111001000000000000000000000000000000000000000
00000000000000000000000111000000000000000000000000000001111111100000000111111110000000000000011111000000001111111111111000000011111000000001111111111111110110001000000000000000000000000000000000000000
00000000000000000000000000000000000000000000000000000001111111000000000111111100000000000000111111000011101111111111110000000000010000000001111111111001110110001100000000000000000000000000000000000000
00000000000000000000000000000000000000000000000000000011111111000000000111111000000000000001111110000011100111111111100000000000000100000011111111100000111111011100000000000000000000000000000000000000
00000000000000000000000000000000000000000000000000000111111000000000001111110000000000000001111111000000000111111111100000000000000111000011111111100000011111111100011100000000000000000000000000000000
00000000000000000000000000000000000011100000000000001111110000000000011111100000000000000011111111000000000111111111000000000000111000000011110111100000011111111100000000000000000000000000000000000000
00000000000000000000000000000000000011100000000011111111111000000000011111000000000000000011111111000000001111111110000000000000111000000011110111000000011111111100000000000000000000000000000000000000
00000000000000000000000000000000000000000000111111111111111000000000111110000000000000000011101111000000001111111110001111100000000000000011111111000000011111111100000000000000000000000000000000000000
00000000000000000000000000000000000000000000111111111111110000000001111110000000000000000011101111000000001111110111011111110010000000000011111111100000011111111100000000000000000000000000000000000000
00000000000000000000000000000000000000000000011111111111111000000001111111000000000000000011111110000000011111110111111111111110000000000011111111110000111111111000000000000000000000000000000000000000
00000000000000000000000000000000000011100000000110001111111110011000111111000000000000000000111110000000011111111111111111111111000000000001111111111111111111111000000000000000000000000000000000000000
00000000000000000000000000000000000011100000000000000011001111111000111110000000000000000100111100000000111111111111111111111111000000000001111111111111111111110000000000000000000000000000000000000000
00000000000000000000000000000000000010000000000000000000001111110001111000000000000000000111111100000000111111111111111111111111100000000000011111111111111111111000000000000000000000000000000000000000
00000000000000000000000000000000000000000000000000000000001111110001110000000000000000001111111100000000100111111111001100111111100000000000001111111111111111111100000000000000000000000000000000000000
00000000000000000000000000000000000000000000000000000000001111100001110010000000000000001111111100000000100111111111000000011111110000000000000111011111111111111110000000000000000000000000000000000000
00000000000000000000000000000001100000000000000000000000000100000001111111000000000000011111011100000000111111111111000000001111110000000000001111011110011111111111000000000000000000000000000000000000
00000000000000000000000000000011100000000000000000000000000000000111110111000000000000000110011000000000111111111100000001001111111000000000011111111100001111111111100000000000000000000000000000000000
00000000000000000000000000000000000000000000000000000000000011111111110111000000000001000001111000000000111111111000000001111111111000000000011111111100000111111111110000000000000000000000000000000000
00000000000000000000000000011100000000000000000000000000000011111111111111100000000111110011111000000000111111111000000001111111111000000000111110111000000011111111110000000000000000000000000000000000
00000000000000000000000000011100000000000000000000000000000001111111111111110111111111111111110000000000111111111000000001111111111000000000111110111100000001111111111000000000000000000000000000000000
00000000000000000000000000000000000000111000000000000111000001111111111111111111111111111111100000000000111111111000000001111111111000000000001111111110000001111111110001000000000000000000000000000000
00000000000000000000000000000000000000111100000000000111000001111111111111101111111111101111100011000000011111111100000001111111111000000000001111111111000001111001110000000000000000000000000000000000
00000000000000000000000000000000000000011110000000000000000001111111111111101111001111000111000011100000001110111100000000111111111000000000111111111100000000111001111000001110000000000000000000000000
00000000000000000000000000000000000000011110000000000000000001111111111111111110000111100011000111000000001110111110000001111111111000000000111111111100000000111111111000001110000000000000000000000000
00000000000000000000000000000000000000000000000000000000000111111111000011111110000001110111000111000000000111111111000111111101111000000000111111111111100000111111111100000000000000000000000000000000
00000000000000000000000000000000000000000000111111100011111111111111000000110000000001111110000000000000000111111111111111111101111000000000011111111111100000111111111100000000000000000000000000000000
00000000000000000000000000000000000111111111111111110111111111111111100000000000000011111100000000000000000001111111111110111111111000000000011111111111100000000111111100000000000000000000000000000000
00000000000000000000000000000000111111111111111111111111111111111111111000000000000011111100000000000000000000111111111110111111110000000000001111111001111100000111111100000000000000000000000000000000
00000000000000000000000000000000111111111111111111011111111111111111100111100000000111111000000000000000000000010011111111111111110000000000000011111011111111111111111100000000000000000000000000000000
00000000000000000000000000000000011110000001111111011111110111111111000111111111111111111000000000000000000000000001111111111111100000000000000001111111111111111111111100000000000000000000000000000000
00000000000000000000000000000000010000000000000111111111110011111100000011111111111111110000000000000000000000000011111111111111100000000000000001111111111111111111011000000000000000000000000000000000
00000000000000000000000000000000000000000000000001101111111100001000000001111111111111111001110000000000000000000000111111111111100000000000000000111111111111111111000000000000000000000000000000000000
00000000000000000000000000000000000000000000000000000001100000000111000000000000001111111111111111000000000000000000011111111110000000000000000000111011111111111111110000000000000000000000000000000000
00000000000000000000000000000000000000000000000000000000000000000111000000000000001111111111111111100111111111111100000111111110000000000000111111111011111111111111110000000000000000000000000000000000
00000000000000000000000000000000000000000000000000000000000000011110000000000001111110000111111111111111111111111111111000111111111000111111111111111111111111111111111000000000000000000000000000000000
00000000000000000000000000000000000000000000000000000000000000011111010001110000011100000111000000001111111111111111111101111111111111111111111111111111111111110111111000000000000000000000000000000000
00000000000000000000000000000000000000000001110000000000000000111111111111111000001000000111000000000000001111111111111111111111111111111111111111111111111111100011111000000000000000000000000000000000
00000000000000000000000000011100000000000001000000000000000000111111111111111110000000000000000000000000000000000000000011111111111111000000000000000000000000000000001000000000000000000000000000000000
00000000000000000000000000011100000000000000000000000000000000111101111111110000000000000000000000000000000000000000000000000000000000000000000000000000000000000000000000000000000000000000000000000000
00000000000000000000000000000000000000000000000000000000000000111101111111100000000000000000000000000000000000000000000000000000000000000000000000000000000000000000000000000000000000000000000000000000
00000000000000000000000000000000000000000000000000000000000000001111111111000000000000000000000000000000000000000000000000000000000000000000000000000000000000000000000000000000000000000000000000000000
00000000000000000000000000000000000000000000000000000000000000000001111111100000000000000000000000000000000000000000000000000000000000000000000000000000000000000000000000000000000000000000000000000000
00000000000000000000000000000000000000000000000000000000000000000000000000000000000000000000000000000000000000000000000000000000000000000000000000000000000000000000000000000000000000000000000000000000
00000000000000000000000000000000000000000000000000000000000000000000000000000000000000000000000000000000000000000000000000000000000000000000000000000000000000000000000000000000000000000000000000000000
00000000000000000000000000000000000000000000000000000000000000000000000000000000000000000000000000000000000000000000000000000000000000000000000000000000000000000000000000000000000000000000000000000000
00000000000000000000000000000000000000000000000000000000000000000000000000000000000000000000000000000000000000000000000000000000000000000000000000000000000000000000000000000000000000000000000000000000
00000000000000000000000000000000000000000000000000000000000000000000000000000000000000000000000000000000000000000000000000000000000000000000000000000000000000000000000000000000000000000000000000000000
