P1
200 70
00000000000000000000000000000000000000000000000000000000000000000000000000000000000000000000000000000000000000000000000000000000000000000000000000000000000000000000000000000000000000000000000000000000
00000000000000000000000000000000000000000000000000000000000000000000000000000000000000000000000000000000000000000000000000000000000000000000000000000000000000000000000000000000000000000000000000000000
00000000000000000000000000000000000000000000000000000000000000000000000000000000000000000000000000000000000000000000000000000000000000000000000000000000000000000000000000000000000000000000000000000000
00000000000000000000000000000000000000000000000000000000000000000000000000000000000000000000000000000000000000000000000000000000000000000000000000000000000000000000000000000000000000000000000000000000
00000000000000000000000000000000000000000000000000000000000000000000000000000000000000000000000000000000000000000000000000000000000000000000000000000000000000000000000000000000000000000000000000000000
00000000000000000000000000000000000000000000000000000000000000000000000000000000000000000000000000000000000000000000000000000000000000000000000000000000000000000000000000000000000000000000000000000000
00000000000000000000000000000000000000000000000000000000000000000000000000000000000000000000000000000000000000000000000000000000000000000000000000000000000000000000000000000000000000000000000000000000
00000000000000000000000000000000000000000000000000000000000000000000000000000000000000000000000000000000000000000000000000000000000000000000000000000000000000000000010000000000000000000000000000000000
00000000000000000000000000000000000000000000000000000000000000000000000000000000000000000000000000000000000001110000000000000000000000000000000000000000000000000011110001110000000000000000000000000000
00000000000000000000000000000000000000000000000000000000000000000000000000000000000000000000000000000000000001111110000000000000000000000000000000000000000000011111111001110000000000000000000000000000
00000000000000000000000000000000000000000000000000000000000000000000000000000000000000000000000000000000000000001110000000000000000000000000000000000000000011111111111000000000000000000000000000000000
00000000000000000000000000000000000000000000000000000000000000000000000000000001111110000000000000000000000000000000000000111000000000000000000000011111111111111111000000000000000000000000000000000000
00000000000000000000000001110011100000000000000000000000000000000000000000000111111111111000000000000000011100000000000000000000000000000000000000111111111111111000000000000000000000000000000000000000
00000000000000000000000001110011100000000000000000000000000000000000000000011111111111111100000000000000011100000000011000000000000000000000000011111111111111100000000000000000000000000000000000000000
00000000000000000000000000000000000000000000000000000000000000000000000011111111111111111110000000000000000000000000111000000000000000000000001111111111111111100000000000000011100000000000000000000000
00000000000000000000000000000000000000000000000111000011100000000000000111111111111111111110000000000000000000000000000000000000000000000001111111111111111111111000000000000011100000000000000000000000
00000000000000000000000000000000000000000000000111000011100000000000001111111111100111111111000000000000000000000000001100011111000000001110011111111111111111111100000000000000000000000000000000000000
00000000000000000000000000000000000000000000000000000000000000000000011111111100000111111100000000000000000000000011111111111111100011111111011111111111111111111110000000000000000000000000000000000000
00000000000000000000000000000000000000000000000000000000000000000000011111111000000111111100000000000000000000000111111111111111111111111111111111111111111111111111000000000000000000000000000000000000
00000000000000000000000000000000000000000000000000000000011100000000111110111000000111111111000000000000000000011111100001111111111111111000111111111111111111111111100000000000000000000000000000000000
00000000000000000000000000000000000000000000000000111100000000000000111110110000000011111111000001110000000000011111100001111111111111000000111111111111101111111111110000000000000000000000000000000000
00000000000000000000000000000000000000000000000011111110000000000001111111110000000000011110000001000000000000000111111111111111111110000000111111111111000011111111111000000000000000000000000000000000
00000000000000000000000000000000000001000000000111111110000000000011111111110000000000011110000000000011111100000111111111111111111100000000111111111110000000111111111000000000000000000000000000000000
00000000000000000000000000000000000001000000000111111110000000000011111111110000000011111111111111100111111111111111100110001111111100000000011111111100000000011111111100000000000000000000000000000000
00000000000000000000000000000000000000000000011111111100000000000000011111111111111100111111111111111111111110001110000000000111111100000000111111111000000000011111111100000000000000000000000000000000
00000000000000000000000000000000000000000000111111111100000000000000011111111111111110111111111111111111111100000000000000000011111100000011111111110000000000011111111100000000000000000000000000000000
00000000000000000000000000000000000000000011111111100100000111111111111111111110011111111111111000000000011110000000000000000000111100000011111111111000000000011111111100000000000000000000000000000000
00000000000000000000000000000000000000000011111111100100111111111111111111111100000111111111100000000000000111000000000000000000011100000011111111111000000000011111111110000000000000000000000000000000
00000000000000000000000000000000000000000111111111111111111111111111111111100000000001111111000000111000000111100000000000000000111000000111111001110000000000001111111110000000000000000000000000000000
00000000000000000000000000000000000000001111111111111111111110001111111111100000000001111111000000111000111111100000000000000001111000000111100001110000000000001100011110000000000000000000000000000000
00000000000000000000000000000000000000011110111111111111100000000111111111100000000111111111110000000000111111000000000000000001110000000111100111110000000000001100001110000000000000000000000000000000
00000000000000000000000000000000000000111110111111111100000000000111111111100000000001111111100000000001111110000000000000000000000000000111111111110000000000011111001110000000000000000000000000000000
00000000000000000000000000000000000001111111111111111000000000001111111111000000000000111111000000000001111100000000111000000000000000000111111111110000000000011111111111000000000000000000000000000000
00000000000000000000000000000000000001111111111111110000000000000111111111000000001100111111000000000011111100011111111100000000000000000111111111110000000000011111111111000000000000000000000000000000
00000000000000000000000000000000000011111111110011110000000000000111111111000000001111111111000000000111111111111111111111000000000000001111111111100000000000011111111111000000000000000000000000000000
00000000000000000000000000000000000111111111100001100000000000001111111111000000001111111111000000000111111111111111111111110000000001111111111111100000000000011111111111000000000000000000000000000000
00000000000000000000000000000000001111111110000011100000000000001111111111100000001111111111000000000111111111111111111111111000000001111111111111100000000000011111111110000000000000000000000000000000
00000000000000000000000000000000001111111100000111100000000000001111111111100000001111111110000000000111111011111111111111111000000000001111111111000000000000011111111111000000000000000000000000000000
00000000000000000000000000000000011111110000000111100000000000001111111000000000001111111110000011101111111011111001111111111100000000000111111111000000000000011111111111000000000000000000000000000000
00000000000000000000000000000000011111100000001111100000000000001111111000000000001111111111000011101110111111000000011111111100000000000011111111000000000000011111111111000000000000000000000000000000
00000000000000000000000000000000111111100000011111100000000111001111111110000000001111111110000000011110111110000000001111111100000000000011111111000000000000011111111111000000000000000000000000000000
00000000000000000000000000000000111111111100011111000000000111001110011111000000001111111110000000011111111100000000000011111100000000000111111111000000000000111111111110000000000000000000000000000000
00000000000000000000000000000000011111111111111111000000000000001100001110000000011111111110000000011111111000000000000001111100000000000111111111000000000000100111111110000000000000000000000000000000
00000000000000000000000000000000001111111111111111000000000000001110001110000000011111110000000000111111110000000000000011111100000000000011111111100000000001110111111110000000000000000000000000000000
00000000000000000000000000000000011111111111111111000000000000001111011110000000011111110011100000111111100000000000000000011100000000000011111111100000000001111111111110000000000000000000000000000000
00000000000000000000000000000000000000111111111100110000000000000111111110000000111111111111100000111111000000000000000100001100000000000011111111100000000001111111111111000000000000000000000000000000
00000000000000000000000000000000000000011111111100000000000000000111111100000000111111111100000000011111000000000000000110001100000000000001111111100000000001111111110011000000000000000000000000000000
00000000000000000000000000000000000000000001111111000000000000000111111100000001111111111000000000111110000000000000000110001000000000000000111111100000000011101111100000000000000000000000000000000000
00000000000000000000000000000000000000000001111111110000000000000011111110000001111111111000000001111110000000000000000000000000000000000000111111110000000111100110001100000000000000000000000000000000
00000000000000000000000000000000000000000001111100110000000000000011111111000001111100000000000001111110000000000000000001110000000000000000011111111111111111111000011100000000000000000000000000000000
00000000000000000000000000000000000000000001111100000000000000000001111111000000011100000000000001111110000000000000011111110000000000000000001111111111111111011100111100000000000000000000000000000000
00000000000000000000000000000000000000000001111100000000000000000000111111110010011111100000000001111110000000000000111111110000000000000000000001111111110010011111111100000000000000000000000000000000
00000000000000000000000000000000000000000001111100000000000000000000011111111111111111000000000001111110000000000000111111100000000000000000000000111111100001111111111000000000000000000000000000000000
00000000000000000000000000000000000000000001111000000000000000000000001001111111111000000000000001111111000000000001111111000011100000000000000001111111110000011111111000000000000000000000000000000000
00000000000000000000000000000000000000000011111000000000000000000000000000111111110000000000000001111111100000000111111110000011100000000000000000111111111110011111110000000000000000000000000000000000
00000000000000000000000000000000000000000011111000000000000000000000000000111111110000000000000000111111111110001111111100000000000000000000011100001111111001111111110000000000000000000000000000000000
00000000000000000000000000000000000000000011111000000000000000000000000000000000000000000000000000111101111111011101111100000000000000000000000000000011111011111111100000000000000000000000000000000000
00000000000000000000000000000000000000000011110000000000000000000000000000000000000000000000000000111101111111111101110000000000000000000000000000000000111111111111000000000000000000000000000000000000
00000000000000000000000000000000000000000000000000000000000000000000000000000000000000000000000000011111111111111111100000000000000000000000000000000000001111111000000000000000000000000000000000000000
00000000000000000000000000000000000000000000000000000000000000000000000000000000000000000000000000001111111111111111000001110000000000000000000000000000000000000000000000000000000000000000000000000000
00000000000000000000000000000000000000000000000000000000000000000000000000000000000000000000000000000111111111111110000011110000000011000000000000000000000000000000000000000000000000000000000000000000
00000000000000000000000000000000000000000000000000000000000000000000000000000000000000000000000000000001111111110000000111100000000011000000000000000000000000000000000000111000000000000000000000000000
00000000000000000000000000000000000000000000000000000000000000000000000000000000000000000000000000000000111000000000000111000000000000000000000000000000000000000000000000111000000000000000000000000000
00000000000000000000000000000000000000000000000000000000000000000000000000000000000000000000000000000000000000000000000000000000000000000000000000000000000000000000000000000000000000000000000000000000
00000000000000000000000000000000000000000000000000000000000000000000000000000000000000000000000000000000000000000000000000000000000000000000000000000000000000000000000000000000000000000000000000000000
00000000000000000000000000000000000000000000000000000000000000000000000000000000000000000000000000000000000000000000000000000000000000000000000000000000000000000000000000000000000000000000000000000000
00000000000000000000000000000000000000000000000000000000000000000000000000000000000000000000000000000000000000000000000000000000000000000000000000000000000000000000000000000000000000000000000000000000
00000000000000000000000000000000000000000000000000000000000000000000000000000000000000000000000000000000000000000000000000000000000000000000000000000000000000000000000000000000000000000000000000000000
00000000000000000000000000000000000000000000000000000000000000000000000000000000000000000000000000000000000000000000000000000000000000000000000000000000000000000000000000000000000000000000000000000000
00000000000000000000000000000000000000000000000000000000000000000000000000000000000000000000000000000000000000000000000000000000000000000000000000000000000000000000000000000000000000000000000000000000
