P1
200 70
00000000000000000000000000000000000000000000000000000000000000000000000000000000000000000000000000000000000000000000000000000000000000000000000000000000000000000000000000000000000000000000000000000000
00000000000000000000000000000000000000000000000000000000000000000000000000000000000000000000000000000000000000000000000000000000000000000000000000000000000000000000000000000000000000000000000000000000
00000000000000000000000000000000000000000000000000000000000000000000000000000000000000000000000000000000000000000000000000000000000000000000000000000000000000000000000000000000000000000000000000000000
00000000000000000000000000000000000000000000000000000000000000000000000000000000000000000000000000000000000000000000000000000000000000000000000000000000000000000000000000000000000000000000000000000000
00000000000000000000000000000000000000000000000000000000000000000000000000000000000000000000000000000000000000000000000000000000000000000000000000000000000000000000000000000000000000000000000000000000
00000000000000000000000000000000000000000000000000000000000000000000000000000000000000000000000000000000000000000000000000000000000000000000000000000000000000000000000000000000000000000000000000000000
00000000000000000000000000000000000000000000000000000000000000000000000000000000000000000000000000000000000000000000000000000000000000000000000000000000000000000000000000000000000000000000000000000000
00000000000000000000000000000000000000000000000000000000000000000000000000000000000000000000000000000000000000000000000000000000000000000000000000000000000000000000000000000000000000000000000000000000
00000000000000000000000000000000000000000000000000000000000000000000000000000000000000000000000000000000000000000000000000000000000000000000000000000000000000000000000000000000000000000000000000000000
00000000000000000000000000000000000010000000000000000000000000000000000000000000000000000000000000000000000000000000000000000000000000000000000000000000000000000000000000000000000000000000000000000000
00000000000000000000000000000000000011100000000001110000011100000000000000000000000000000000000000000000000000000000000000000000000000000000000000000000000000000000000000000000000000000000000000000000
00000000000000000000000000000000000011100000000001111100111100000000000000000011110000000000000000000000000000000000000000000000000000001100000000000000000000000000000000000000000000000000000000000000
00000000000000000000001110000000000000000000000111111111111100000000000000001111111111110000000000000000000000111111111111000000000000001100000000000000000001110000000000000000000000000000000000000000
00000000000000000000001110000000000000000000000111111111111100000000000000000111111111111000000000000000000001111111111111111110000000000000000000000000000001110000000000000000000000000000000000000000
00000000000000000000000000000000000000000000001111111111111000000000000000000011111101111100000000000000000111111111111111111111000000000000000000000000000000000000000001111100000000000000000000000000
00000000000000000000000000000000000000000000001111111111111100000000000001100111111001111110000000000000001111111111111111111110001000000000000000000000000000000000000111111000000000000000000000000000
00000000000000000000000000000000000000000000011111111111111111111110000111111111111111111110000000000000011111111111111111111111001000000000000000011100000000000000001111110000000000000000000000000000
00000000000000000000000000000000000000000000111111111111111111111111111111111111111111111111000000000000111101111111111111111111110000000000000000011100000001110000111111100000000000000000000000000000
00000000000000000000000000000000000000111111111111111111111111111111111111111111111111111111000000000000111101111100000011110011110000000000000000000000000001110000111111110000000000000000000000000000
00000000000000000000000000000000000111111111111111111111111111111111111111111111111111111111000000000001111111110000000000000011110000000000000000000000000000000001111111110000000000000000000000000000
00000000000000000000000000000000111111111111111111111111111000000000001111111111111111111110000000000011111111100000000000001111100000000000000000000000000000001111111111100000000000000000000000000000
00000000000000000000000000000000111111110001111111111111111000000000001111110000000111111110000011000011111111000000000000000000000000000000000000000000000000011111111111100000000000000000000000000000
00000000000000000000000000000000011110000001111111111111111000000000001111100000000001111111111111111111111111000000000000000000000000000000000000000000000000011111111111000000000000000000000000000000
00000000000000000000000000000000010000000011111111111111111000000000001111100000000000111111111111111111011110000000000000000000000000000000000000000000000000111111111111000000000000000000000000000000
00000000000000000000000000000000000000000111111111111111111000000000000000100000000011111111000001111111011110000000000000000000000000000000000000000000001111111111111110000000000000000000000000000000
00000000000000000000000000000000000000000111111111110111111000000000000000000000000111111111000000001111111111000000000000000000000000000000000000000000111111111111111100000000000000000000000000000000
00000000000000000000000000000000000000001111111111110111111000000000011111000000001111111111000000000111111111111000000000000000000000000000000000000011111111111111111000000000000000000000000000000000
00000000000000000000000000000000000000001111111011111111111000000000001111000000011111111111000000000111111111111110000000000000000000000000000000000111110001111111111000000000000000000000000000000000
00000000000000000000000000000000000000011101110001111111110000000000001110000000011111111111000000000111100111101111100000000000000000000000000000001111100011111111111000000000000000000000000000000000
00000000000000000000000000000000000000011101110010001111110000001110000110000000111111111110000000000111100001001111111111000000000000000000000000111111011111111101110000000000000000000000000000000000
00000000000000000000000000000000000000011111110010001111110000001110000110000001111110111111000000000111110001111111111111100000000000000000000001111000011111111100100000000000000000000000000000000000
00000000000000000000000000000000001100111111100011111111110000000000011111000011111100111111000000000111111011111111111111100000000000011100010001110000011111111111000000000000000000000000000000000000
00000000000000000000000000000000001100111111100011111111110000000000011111000011111000111110000000000111110001111111111111110000000000011111111110000000011111111111000000000000000000000000000000000000
00000000000000000000000000000000000001111111100011111111110000000000011111001111111000111110000000000111111011111111111011111100000000011111111100000000011111111111000000000000000000000000000000000000
00000000000000000000000000000000000001111100000011111111000000000000011110001111110000111000000000000111111111111001111011111111110000111111110000000000111111111110000000000000000000000000000000000000
00000000000000000000000000000000000001111100000011111100000000000000011110011111100000111000000000000111111111100000011111101111111101111111000000000000111111111110000000000000000000000000000000000000
00000000000000000000000000000000000001111110000011110000010000000000011111111110000001111100000000000111111111000000001111101111111111111111000000000001111111111100000000000000000000000000000000000000
00000000000000000000000000000000000011111110000001110011100000000000011111111110000001111100000000000111111100000000000111111100111111111111111100000011111111111000000000000000000000000000000000000000
00000000000000000000000000000000000011111110000001111100000000000000011111111100000001111000000000000111111000000000000011111000001001111111111110000011110111111000000000000000000000000000000000000000
00000000000000000000000000000000000011111100000001111110000000000000011111111100000001100000000000000111111100000000000011100000000000111111111111111111110111111000000000000000000000000000000000000000
00000000000000000000000000000000000111111100000001111111100000000001111111111000000001100000000000000011111100000000000011100100000001111111111111111111111111110000000000000000000000000000000000000000
00000000000000000000000000000000000111111100000001111111110000000001111111110000000011110000000000000011111100000000000011111100000000011111111011111111111111100000000000000000000000000000000000000000
00000000000000000000000000000000000011111000000001111111111000000000011111100000000011110000000000000011111100000000000011111100000000000111111011111111111111000000000000000000000000000000000000000000
00000000000000000000000000000000000011111000000001111111111100000000001111000000000000100000000000000011111100000000000001111100000000000011111111111100111111100000000000000000000000000000000000000000
00000000000000000000000000000000000011111000000011111111111111000000001111000000000000000000000000000011111100000000000001111110000000000001111001111100011111111100000000000000000000000000000000000000
00000000000000000000000000000000000111111111111111111111111111000000001111100000000100000000000000000011111100000000000011111110000000000000111000011110011111111100000000000000000000000000000000000000
00000000000000000000000000000000001111111111111111111111111111011100001111100000011111000000000000000001111100000000000011111110000000000000011110011111111111111000000111000000000000000000000000000000
00000000000000000000000000000000001111111111111111111111111111011100000111100000011011100000000000000000111100000000000011111100000000000000001111111111111101111000000110000000000000000000000000000000
00000000000000000000000000000000001111111111111111111111111110000000000111100000111001100000000000000001111100000000000011111100000000000000000111111011111000110000000000000000000000000000000000000000
00000000000000000000000000000000000111111111111111111111111110000000000111110000111100000000000000000001001110000000000011111101100000000000001111111001110000010011100000000000000000000000000000000000
00000000000000000000000000000000000111111111111111111111111110000000000001111001111100000000000000000000001110011111100011111001100000000000001111111110000000000011100000000000000000000000000000000000
00000000000000000000000000000000000111111111111111111111111110000000000000111100111000000000000000000000111110011111100111111000000000000000011111111100000000000000000000000000000000000000000000000000
00000000000000000000000000000000000111111111111111111111111110000000000001111110010000000000000000000000111110000000000111111000000000000000000111111100111000000000000000000000000000000000000000000000
00000000000000000000000000000000000000111111111111111111111100000000000001111111110000000000000000000000111111000000001111111000000000000000000001111111111100000000000000000000000000000000000000000000
00000000000000000000000000000000000000011111111001111111111110000000000000111111100000000000000000000000011111000000001111110000000000000000000000001111111001110000000000000000000000000000000000000000
00000000000000000000000000000000000000000000000001111111111000000000000000011111000000000000000000000000011111100000111111100000000000000000000000000000111011110000000000000000000000000000000000000000
00000000000000000000000000000000000000000000000000111111100000000000000000000000000000000000000000000000011111111001111111000000000000000000000000000000011111110000000000000000000000000000000000000000
00000000000000000000000000000000000000000000000000111111100000000000000000000000000000000000000000000000001111111111111111100000000001000000000000000000001111111000000000000000000000000000000000000000
00000000000000000000000000000000000000000000000000111111100000000000000000000000000000000000000000000000000111111111111111000000000001000000000000000000000011111100000000000000000000000000000000000000
00000000000000000000000000000000000000000000000000111111100000000000000000000000000000000000000000000000000011111111111110000000000001000000000000000000000001111111000000000000000000000000000000000000
00000000000000000000000000000000000000000001110000111011100111000000000000000000011100000000000000000000000001111111111100000000000000000000000000000000000000111111100000000000000000000000000000000000
00000000000000000000000000000000000000000001000000111011100110000000000000000000011100000000000000000000000000111111111000000000000000000000000000000000000000011111110000000000000000000000000000000000
00000000000000000000000000000111000000000000000000111111100000000000000000000000000000000000000000000000000000000001100000000000000000000000000000000000000000000111110000000000000000000000000000000000
00000000000000000000000000000111000000000000000000111111100000000000000000000000000000000000000000000000000000000000000000000000000000000000000000000000000000000011111000000000000000000000000000000000
00000000000000000000000000000000000000000000000000111111100000000000000000000000000000000000000000000000000000000000000000000000000000000000000000000000000000000011111100000000000000000000000000000000
00000000000000000000000000000000000000000000000000000000000000000000000000000000000000000000000000000000000000000000000000000000000000000000000000000000000000000001111110000000000000000000000000000000
00000000000000000000000000000000000000000000000000000000000000000000000000000000000000000000000000000000000000000000000000000000000000000000000000000000000000000000111000000000000000000000000000000000
00000000000000000000000000000000000000000000000000000000000000000000000000000000000000000000000000000000000000000000000000000000000000000000000000000000000000000000010000000000000000000000000000000000
00000000000000000000000000000000000000000000000000000000000000000000000000000000000000000000000000000000000000000000000000000000000000000000000000000000000000000000000000000000000000000000000000000000
00000000000000000000000000000000000000000000000000000000000000000000000000000000000000000000000000000000000000000000000000000000000000000000000000000000000000000000000000000000000000000000000000000000
