P1
200 70
00000000000000000000000000000000000000000000000000000000000000000000000000000000000000000000000000000000000000000000000000000000000000000000000000000000000000000000000000000000000000000000000000000000
00000000000000000000000000000000000000000000000000000000000000000000000000000000000000000000000000000000000000000000000000000000000000000000000000000000000000000000000000000000000000000000000000000000
00000000000000000000000000000000000000000000000000000000000000000000000000000000000000000000000000000000000000000000000000000000000000000000000000000000000000000000000000000000000000000000000000000000
00000000000000000000000000000000000000000000000000000000000000000000000000000000000000000000000000000000000000000000000000000000000000000000000000000000000000000000000000000000000000000000000000000000
00000000000000000000000000000000000000000000000000000000000000000000000000000000000000000000000000000000000000000000000000000000000000000000000000000000000000000000000000000000000000000000000000000000
00000000000000000000000000000000000000000000000000000000000000000000000000000000000000000000000000000000000000000000000000000000000000000000000000000000000000000000000000000000000000000000000000000000
00000000000000000000000000000000000000000000000000000000000000000000000000000000000000000000000000000000000000000000000000000000000000000000000000000000000000000000000000000000000000000000000000000000
00000000000000000000000000000000000000000000000000000000000000000000000000000000000000000000000000000000000000000000000000000000000000000000000000000000001110000000000000000000000000000000000000000000
00000000000000000000000000000000000000000000000000000000000000000000000000000000000000000000000000000000000000000000000000000000000000000000000000000000001110000000000000000000000000000000000000000000
00000000000000000000000000000000000000000000000000000000000000000000000000000000000000000000000000000000000000000000000000000000000000000000000000000000000000000000000000000000000000000000000000000000
00000000000000000000000000000000000000000000000000000000000000000000000000000000000000000000000000000000000000000000000000000000000000000000000000000000000000000000000000000000000000000000000000000000
00000000000000000000000000000000000000000000000000000000000000000000000000000000000000000000000000000000000000000000000000000000000000000000000000000000000111000000000000000000000000000000000000000000
00000000000000000000000000000000000000000000000000000000000000000000000000000000000000000000000000000000000000000000000001110000000000000000000000000000000111000000000000000000000000000000000000000000
00000000000000000000000000000000000000000000000000000000000000000000000000000000000000000000000000000000000000000000000000110000000000000000000000000000000000000000000000000000000000000000000000000000
00000000000000000000000000000000000000000000000111000000000000000000000011000000000000000000000001111001110000000000000000000000000000000000000000000000000000011100000000000000000000000000000000000000
00000000000000000000000000000000000000000000000111000000011111000000000111000100000000000000000011111111110000000000000000000000000000000000000000000000000000011100000000000000000000000000000000000000
00000000000000000000000000000000000000000000000000000011111111000000011111100011000000000000000111111111111100000000000000000000000000000000000000000000000000000000000000000000000000000000000000000000
00000000000000000000000000000000000000000000000000000111111111000000111111100011100000000000001111111011111110000000000000000000000000000000000000000000000000000000000000000000000000000000000000000000
00000000000000000000000000000000000000000000000000000111111111000000111111100011110000000000001111111011111111001000000000000000000000000000000000000000000000000000000000000000000000000000000000000000
00000000000000000000000000000000000000000000000000000001111111000001000100000011111000000000000111111111111111111111100000000000000000000000111000001111111000000000000000000000000000000000000000000000
00000000000000000000000000000000000000000000000000000000100010000001100100000001111100000000000111111111111111111111111100000000000000000001111001111111111100000000000000000000000000000000000000000000
00000000000000000000000000000000000000000000000000000000000000000011111000000000110000000000000000001111111111111111111110000000000000000111111111111111111110000000000000000000000000000000000000000000
00000000000000000000000000000000000000000000000000000000001100000011111000000000110000000000000000000000111111111110111111111000000000000111111111111111111111000000000000000000000000000000000000000000
00000000000000000000000000000000000000000000000000000000111110000011100000000000111000000000000000000000000011111110111111111110000000000000111111111111111111000000000000000000000000000000000000000000
00000000000000000000000000000000000000000000000000111001111111000111100000000000111100000000000000000000000000011111111111110110000000000000111111111111111111100000000000000000000000000000000000000000
00000000000000000000000000000000000010000000000000111111111111110111110000000000111111000000000000000000000000001111111111110010000000000000011111111100011111000000000000000000000000000000000000000000
00000000000000000000000000000000000010000000000001111111111100110001110000000000111111110000000000000000000000000011111111111100000000000011011111111000000111100000000000000000000000000000000000000000
00000000000000000000000000000000000000000000000001111111111100000001111000111111111111111110000000000000000000000011111111111100000000000111111111000001100011100000000000000000000000000000000000000000
00000000000000000000000000000000000000000000000001111111111111001111111111111111111111111111111000000000000000000001111111111100000000001111111110000000110000100000010000000000000000000000000000000000
00000000000000000000000000000000000000000000000011111011111111001111111111111111111111111111111111000000000000000011111111110000000000011111111100000001111000000000111000000000000000000000000000000000
00000000000000000000000000000000000000000000000011110011111111111111111111000000001111111111111111111100000011000111111111100000000000011111111100000001111111000001111000000000000000000000000000000000
00000000000000000000000000000000000011000000000001110011111111111111111000000000001111111000011111111111100111111100111110000000000000011111111000000000111111100111111100000000000000000000000000000000
00000000000000000000000000000000000011000000000011110011101111111111110000000000001111110000000001111111111111111000011100000000000000111111111000000001111111111111111000000000000000000000000000000000
00000000000000000000000000000000000000000000000111100011101111111111100000000000000111110000000000000001111111111000110000000000000000111111110000000001111111111111110000000000000000000000000000000000
00000000000000000000000000000000000000000000000111100011111111111111100000000000000111111000000000000000011111000111100000000000000000111111110000000000111101111111000000000000000000000000000000000000
00000000000000000000000000000000000001110000001111000011111111111111100000000000001111111000000000000000001100001111100000000000000000111101110000000001111001111110000000000000000000000000000000000000
00000000000000000000000000000000000001110000001111000011111111001111100000000000001111111000000000000011110000011110011100000000000001111101111000000111110011111100000000000000000000000000000000000000
00000000000000000000000000000001110000000000001111000111111111001111100000000000000111111100000000001111111001111100111111000000000001111111111100111111100001100000000000000000000000000000000000000000
00000000000000000000000000000001110000000000011111011111111111001111100000000000000011111100000000011111111111111001111111100000000000111101111111111111110000000000000000111000000000000000000000000000
00000000000000000000000000000000000000000000011110111111111111001111100000000000000011111100000000011111111111111100001111110000000001111100111111111111111110000000000000111000000000000000000000000000
00000000000000000000000000000000000000000000111001000001111111011111110000000000000011111100000001111111111111111100000011111100011111111111001111111111111110000000000000000010000000000000000000000000
00000000000000000000000000000000000000000000111011100000111111111111110000001110000001111100000001111111111111000000000000011111111111111110000111111111111110000000000000001100000000000000000000000000
00000000000000000000000000000000000000000000111111111001111111111111110000001110000011111100000011111111111110000000000000000011111111111100001111111111011100000000000000001100000000000000000000000000
00000000000000000000000000000000000000000000111111111111111101111111110000000000000000111100000011111111111100000000000000000001001111111000111111111111011100000000000000000000000000000000000000000000
00000000000000000000000000000000000000000000111111111111111101111111110000000000000000111100000111111111111110000000000000000000001111110000000000111111111100000000000000000000000000000000000000000000
00000000000000000000000000000000000000000001111011111111111111111111110000000000000011111100001111111111111110000000000000000000011111110000000000111110011100000000000000000000000000000000000000000000
00000000000000000000000000000000000000000001110001111111111111111111110000000000000111111100001111111111110000000000000000000001111111111000000001111000000000000000000000000000000000000000000000000000
00000000000000000000000000000000000000000001100011100111111111111111111000000000000011111100001111111111100000000000000000000000111111111100000011111001110000000000000000000000001110000000000000000000
00000000000000000000000000000000000000000011110111000011111111011111111000000000000111111000001111111111000000000000000000000000111111111111111111111111110000000000000000000000001110000000000000000000
00000000000000000000000000000000000000000011111111100111111111001111111000000000000111111000001111111111000000000000000000000000011111111111111111111111110000000000000000000000000000000000000000000000
00000000000000000000000000000000000000000111111111110001111111000111111000000000000111110000001111111110000000111000000000000000001111111111111111111111100000000000000000000000000000000000000000000000
00000000000000000000000000000000000000000111111111100000111111100111111100000000001111110000011111111110000000111000000000000000000111111111111111111111000000000000000000000000000000000000000000000000
00000000000000000000000000000000000000001111110000000000111111100011111110000000001111100000111000000110000000000000000000000000000001111111111111111110000000000000000000000000000000000000000000000000
00000000000000000000000000000000000000011111100000000000111111100011111110000000001111100000111000000000000000000000000000000000000000111111111111111100000000000111000000000000111000000000000000000000
00000000000000000000000000000000000000111111000000000000111111100001111111000000011111000000000000000000000000000000000000000000000000000111111111110000000000000111000000000000111000000000000000000000
00000000000000000000000000000000000000111110000000000000111111100000111111110000111110000000000000000000000000000000000000000000000000000011001000000000000000000000000000001110000000000000000000000000
00000000000000000000000000000000000001111100000000000000111111000000011111111100011000000000000000000000000000000000000000000000000000000010000000000000000000000000000000001110000000000000000000000000
00000000000000000000000000000000000001111100000000000001111100000000000111111100000000000000000000000000000000000000000000000000000000000000000000000000000000000000000000000000000000000000000000000000
00000000000000000000000000000000000001111000000000000011100000000000000000000000000000000000000000000000000000000000000000000000000000000000000000000000000000000000000000000000000000000000000000000000
00000000000000000000000000111000000001111000000000000000000000000000000000000000000000000000000000000000000000000000000000000000000000000000000000000000000000000000000000000000000000000000000000000000
00000000000000000000000000111000000011110000000000000000000000000000000000000000000000000000000000000000000000000000000000000000000000000000000000111000000000000000000011100000000000000000000000000000
00000000000000000000000000000000001111110000000000000000000000000000000000000000000000000000000000000000000000000000000000000000000000000000000000111000000000000000000011100000000000000000000000000000
00000000000000000000000000000000001111100000000000000000000000000000000000000000000000000000000000000000000000000000000000000000000000000000000000000000000000000000000000000000000000000000000000000000
00000000000000000000000000000000001111100000000000000000000000000000000000000000000000000000000000000000000000000000000000000000000000011100000000000000000000000000000000000000000000000000000000000000
00000000000000000000000000000000001111000000000000000000000000000000000000000000000000000000000000000000000000000000000000000000000000000000000000000000000000000000000000000000000000000000000000000000
00000000000000000000000000000000011111000000000000000000000000000000000000000000000000000000000000000000000000000000000000000000000000000000000000000000000000000000000000000000000000000000000000000000
00000000000000000000000000000000011110000000000000000000000000000000000000000000000000000000000000000000000000000000000000000000000000000000000000000000000000000000000000000000000000000000000000000000
00000000000000000000000000000000111110000000000000000000000000000000000000000000000000000000000000000000000000000000000000000000000000000000000000000000000000000000000000000000000000000000000000000000
00000000000000000000000000000000111100000000000000000000000000000000000000000000000000000000000000000000000000000000000000000000000000000000000000000000000000000000000000000000000000000000000000000000
00000000000000000000000000000001111100000000000000000000000000000000000000000000000000000000000000000000000000000000000000000000000000000000000000000000000000000000000000000000000000000000000000000000
