P1
200 70
00000000000000000000000000000000000000000000000000000000000000000000000000000000000000000000000000000000000000000000000000000000000000000000000000000000000000000000000000000000000000000000000000000000
00000000000000000000000000000000000000000000000000000000000000000000000000000000000000000000000000000000000000000000000000000000000000000000000000000000000000000000000000000000000000000000000000000000
00000000000000000000000000000000000000000000000000000000000000000000000000000000000000000000000000000000000000000000000000000000000000000000000000000000000000000000000000000000000000000000000000000000
00000000000000000000000000000000000000000000000000000000000000000000000000000000000000000000000000000000000000000000000000000000000000000000000000000000000000000000000000000000000000000000000000000000
00000000000000000000000000000000000000000000000000000000000000000000000000000000000000000000000000000000000000000000000000000000000000000000000000000000000000000000000000000000000000000000000000000000
00000000000000000000000000000000000000000000000000000000000000000000000000000000000000000000000000000000000000000000000000000000000000000000000000000000000000000000000000000000000000000000000000000000
00000000000000000000000000000000000000000000000000000000000000000000000000000000000000000000000000000000000000000000000000000000000000000000000000000000000000000000000000000000000000000000000000000000
00000000000000000000111000000000000000000000000000000000000000000000000000000000000000000000000000000000000000000000000000000111000000000000000000000000000000000000000000000111000000000000000000000000
00000000000000000000111000000000000000000000000000000000000000000000000000000000000000000000000000111000000000000001110000000111000000000000000000000000000000000000000000000111000000000000000000000000
00000000000000000000000000000000000000000000000000000000000000000000000000000000000000000000000000111000000000000001110000000000000000000000000000000000000000000000000000000000000000000000000000000000
00000000000000000000000000000000000000000000000000000000000000000000000000000000000000000000000000000000000000000000000000000000000000000000000000000000000000000000000000000000000000000000000000000000
00000000000000000000000111000000000000000000000000000000000000000000000000000000000000000000000000000000000000000000000000000000000000000000000000000000000000000000000000000000000000000000000000000000
00000000000000000000000111000000000000000000000000000000000000000000000000000000000000000000000000000000000000000000000000000000000000000000000000000000000000000000000000000000000000000000000000000000
00000000000000000000000000000000000000000000111000000000000000000000000000000000000000000000000000000000000000000000000000000000000000000000000000000000000000000000000000000000000000000000000000000000
00000000000000000000000000000000000000000000111000000000000000000000000000000000000000000000000000000000000000000000000000000000000000000000000000000000000000000000000000000000000000000000000000000000
00000000000000000000000000000000000000000000000000000000000000000000111000000000000000000000000000000000000000000111111111101110000000000000000000000000000000000000000000000000000000000000000000000000
00000000000000000000000000011100000000000000000000000000000000000000111000000000000000000000000000000000000000111111111111111111100000000000000000001110000000011001111110000000000000000000000000000000
00000000000000000000000000011100000000000000000000110000000000000000000000000000000000000000000000000000000001111111111111111111111000000000000000011111111110011111111111100000000000000000000000000000
00000000000000000000000000000000000000000000000011110000000011100000000000000000000010001100000000000000000111111111111001111111111110000000000000011111111111001111111111100000000000000000000000000000
00000000000000000000000000000000000000000000000001110000000011100000000111000011111111111110000000000000001111111111110000111111111111000000000000011111111111101111111111100000000000000000000000000000
00000000000000000000000000000000000000000000011101110000000000001110001111101111101111111111000000000000011111111111110000011111111111100000000000011111111111111111111111000000000000000000000000000000
00000000000000000000000000000000000000000000011111110000000000000001111111111111101111111111100000000000011110111111000000001111111111000000000000011111111111111111111111000000000000000000000000000000
00000000000000000000000000000000000000000000111111110000000000110011111111111111111111111110010000000000011110111111000000000111111111100000000000111111111111111111111110000000000000000000000000000000
00000000000000000000000000000000000000000000111111110000000111111111111111111111111111111110111111111000111111111111000000000111111111111000000001111111111000111101111100000011100000000000000000000000
00000000000000000000000000000000000000000001111101111000111111001111111111111111111111111111111111111111111111111110000000000111111111111000000001111111110000000000111100000011100000000000000000000000
00000000000000000000000000000000000000000001111001111111111110000000001111111111111111111111111111111111111111111110000000000111111110111000000000111111110000000001111100000000000000000000000000000000
00000000000000000000000000000000000000000011111111111111111110000000001111111100000011111111000000111111101111111111111110001111111110111000000000111100000000000011111100000000000000000000000000000000
00000000000000000000000000000000000000000011111110111111100000000000111111111000000011111111000000011000001111111111111111111111111111111100000000111100000000000011111100000000000000000000000000000000
00000000000000000000000000000000000000000111111110111100000000000000111111111000000000111111000000000000111111111111111001111111111111111111111111111100000000000111111000000000000000000000000000000000
00000000000000000000000000000000000000000111111111111000000000000001111111110000000000111110000000000000111111111111100000111111111111111111111111111110000000001111111000000000000000000000000000000000
00000000000000000000000000000000000000001111111111111000000000000001111111110000000001111110000000000000011111111111100000011111111111111111111111111111111111111111110000000000000000000000000000000000
00000000000000000000000000000000000000001111111111110000000000000001111111100000000111111110000000000000011111111111100000001111111111110000111111111111111111111111100000000000000000000000000000000000
00000000000000000000000000000000000000001111111111110000000000000011111111000000000111111110000000000000001111011111000000001111111111100000000000000000011111111111110000000000000000000000000000000000
00000000000000000000000000100000000001000111100111111000000000000111111111011111001111111100000000000000000111011111100001111111111110000000000000000000000001111111111100000000000000000000000000000000
00000000000000000000000000100000000011100111000111111000000000000111111110011111001111111100000000000000000111111111111111111111111000000000000000000000000000111111111000000000000000000000000000000000
00000000000000000000000000000000000111110000000111111000000000000111111110111111001111111100000000000000000001111111111111111111111000000000000000000000000000011111001000000000000000000000000000000000
00000000000000000000000000000000001111110000000111111000000000001111111100111110011111111000000000000000000000011111111111111111111111000000000000000000000010011110000000000000000000000000000000000000
00000000000000000000000000000000000111111000000011111000100000011111111101111100011111111000000000000000000000011111111100111111011111000000000000000000000011111110000000000000000000000000000000000000
00000000000000000000000000000000000001111000000011111111110000011111111001110000111111110000000000000000000011111111111000011111011111100000000000000000000001111110000000000000000000000000000000000000
00000000000000000000000000000000110000000000000011110001110000011111111011110000100111110000000000000000000111111001111000001111111111111000000000000000000001111110000000000000011100000000000000000000
00000000000000000000000000000001111110000000001111000000110000011111111011111100000111110000000000000000111111111001111000000111111111111100000000000000011111111100000000000000011100000000000000000000
00000000000000000000000000000000011111100000111111001100000000000111110001111000001111100000000000000001111111111110000000000111111111111110000000000000011111111000000000000000000000000000000000000000
00000000000000000000000000000000001111100001111111111100000000000001110000000011111111100000000000000011111111111110000000000111111111111110000000000000111111111000000000000000000000000000000000000000
00000000000000000000000000000000001111111111111111111100000000111001110000000111111111000000000000000111111111111110000000010111111111111110000000000001111111111000000000000000000000000000000000000000
00000000000000000000000000000000001111111111111111111100000000111111100000000111111110000000000000001111111111111100000000010111111111111110000000000001111111110011100000000000000000000000000000000000
00000000000000000000000000000000001111111111110111111000000000111111100000001111111110000000000000001111111111111100000000000011111111111000000000000011111111100011100000000000000000000000000000000000
00000000000000000000000000000000011111111110000011111000000000011111100000011111111100000000000000001111111111111100000000000011111111110000000000000111111111000000000000000000000000000000000000000000
00000000000000000000000000000000011111111100000011111000000000011111110000111111111100000000000000001111111111111100000000000111111111111000000000000111111111000000000000000000000000000000000000000000
00000000000000000000000000000000011110010000000011111100000000111111111001111111111000000000000000001111111111111100000000000111111111111100000000001111111110000000000000000000000000000000000000000000
00000000000000000000000111000000001100000000000011111100000000111111111111111111111000000000000000001111111111111000000000000000001111111100000000011111100100000000000000001110000000000000000000000000
00000000000000000000000111000000000000000000000001110000000001111111111111111110000000000000000000001111111111111000000000000000000111000000000000111111000000000000000000001110000000000000000000000000
00000000000000000000000000000000000000000000000001100000000011111111111111111100000000000000000000001111111111111100000000000111000000000000000000110111000000000000000000000000000000000000000000000000
00000000000000000000000000000000000000000000000000000000000000011111111111111110000000001110000000001111111111111100000000001111000000111000000001110111100000000000000000000000000000000000000000000000
00000000000000000000000000000000000000000000000000000000000000001111111110111100000000001110000000001111111111111100000000001100000111110000000001111111110000000000000000000000000000000000000000000000
00000000000000000000000000000000000000000000000000000000000000000010011100011000000000000000000000001111111111111110000000001100111111100000000011101111100000000000000000000000000000000000000000000000
00000000000000000000000000000000000000000000000000000000000000000000001110000000110000000000000000001111111111111111000000011111001110000000000111001110000000000000000000000000000000000000000000000000
00000000000000000000000000000000000000000000000000000000000000000000000000000000111000000000000000001111111111111111100011111111100100000000000111101100000000000000000000000000000000000000000000000000
00000000000000000000000000000000000000000000000000000000000000000000000000000001111100000000000000000111111111111111111111111111100000000000000000000000000000000000000000000000000000000000000000000000
00000000000000000000000000000000000000000000000000000000000000000000000000000001111100000000000000000011111111111111111111111001100000000000000000000000000000000000000000000000000000000000000000000000
00000000000000000000000000000000111000000000000000000111000000000000000000011111100000000000001110000001111111111111111111110000000000000000000000000000000000000000000000000000000000000000000000000000
00000000000000000000000000000000111000000000000000000111000000000000000000011111100000000000001110000001111011111111111110000000000000000000000000000000000000000000000000000000000000000000000000000000
00000000000000000000000000000000000000000000000000000000000000000000000000000011100000000000000000000000000001111110000000000000000000000000000000000000000000000000000000000000000000000000000000000000
00000000000000000000000000000000000000000000000000000000000000000000000000000000000000000000000000000000000000110000000000000000000000000000000000000000000000000000000000000000001000000000000000000000
00000000000000000000000000000000000000000000000000000000000000000000000000000000000000000000000000000000000000000000000000000000000000000000000000000000000000000000000000000000001110000000000000000000
00000000000000000000000000000000000000000000000000000000000000000000000000000000000000000000000000000000000000000000000000000000000000000000000000000000000000000000000000000000000000000000000000000000
00000000000000000000000000000000000000000000000000000000000000000000000000000000000000000000000000000000000000000000000000000000000000000000000000000000000000000000000000000000000000000000000000000000
00000000000000000000000000000000000000000000000000000000000000000000000000000000000000000000000000000000000000000000000000000000000000000000000000000000000000000000000000000000000000000000000000000000
00000000000000000000000000000000000000000000000000000000000000000000000000000000000000000000000000000000000000000000000000000000000000000000000000000000000000000000000000000000000000000000000000000000
00000000000000000000000000000000000000000000000000000000000000000000000000000000000000000000000000000000000000000000000000000000000000000000000000000000000000000000000000000000000000000000000000000000
00000000000000000000000000000000000000000000000000000000000000000000000000000000000000000000000000000000000000000000000000000000000000000000000000000000000000000000000000000000000000000000000000000000
