P1
200 70
00000000000000000000000000000000000000011111111000000000000000000000000000000000000000000000000000000000000000000000000000000000000000000000000000000000000000000000000000000000000000000000000000000000
00000000000000000000000000000000011111111111111111111111111110000000000000000000000000000000000000000000000000000000000000000000000000000000000000000000000000000000000000000000000000000000000000000000
00000000000000000000000000000000011111111111111111111111111111111110000000000000000000000000000000000000000000000000000000000000000000000000000000000000000000000000000000000000000000000000000000000000
00000000000000000000000000000000011111111111111111111111111111111111111111100000000000000000000000000000000000000000000000000000000000000000000000000000000000000000000000000000000000000000000000000000
00000000000000000000000000000000010000000000000000000111111111111111111111111100000000000000000000000000000000000000000000000000000000000000000000000000000000000000000000000000000000000000000000000000
00000000000000000000000000000000000000000000000000000000000000000011111111111111110000000000000000000000000000000000000000000000000000000000000000000000000000000000000000000000000000000000000000000000
00000000000000000000000000000000000000000000000000000000000000000000000001111111111110000000000000000000000000000000000000000000000000000000000000000000000000000000000000000000000000000000000000000000
00000000000000000000000000000000000000000000001110000000000000000000000000000111111111110000000000000000000000000000000000000000000000000000000000000000000000000000000000000000000000000000000000000000
00000000000000000000000000000000000000000000001110011100000000000000000000000000111111111110000000000000000000001110000000000000000000000000000000000000000000000000000000000000000000000000000000000000
00000000000000000000000000000000000000000000000000011100000000000000000000000000000111111111000000000000000000001110000000000000000000000000000000000000000000000000000000000000000000000000000000000000
00000000000000000000000000000000000000000000000000000000000000000000000000000000000000111111110000000000000000000000000000000000000000000000000000000000000000000000000000000000000000000000000000000000
00000000000000000000000000000000000000000000000000000000000011100000000000000000000000000011111000000000000000000000000000000000000000000000000000000000000000000000000000000000000000000000000000000000
00000000000000000000000000000000000000000000000000000000000000000000000000000000000000000000111111111100001110111000111000000000000000000000000000000000000000000000000000000000000000000000000000000000
00000000000000000000000000000000000000000000000000000000000000000000000000000000000000000000000111111111111111111111111000000000000000000000000000000000000000000000000000000000000000000000000000000000
00000000000000000000000000000000000000000000000000000000000000000000000000000000000000000000000000111111111111111111111100000000000000000000000000000000000000000000000000000000000000000000000000000000
00000000000000000000000000000000000000000000000000000000000001100000000000000000000000000000000000011111111111111111111110000000000000000000000000000000000000000000000000000000000000000000000000000000
00000000000000000000000000000000000000000000000000000000000111110000000000000000000000000000000000000111111111111111111111000000000000000000000000000000000000000000000000000000000000000000000000000000
00000000000000000000000000000000000000000000000000000000011111110000000000000000000000000000000000000011111111111111111111100000000000000000000000000000000000000000000000000000000000000000000000000000
00000000000000000000000000000000000000000000000000000000011111111000000000000000000000000001111000000001111111110000111111100000000111000000000000000000000000000000000000000000000000000000000000000000
00000000000000000000000000000000000000000000000000000000111111111000000000000000001111110011111110000000111111111000011111100000000111000000000000011110000000000000000000000000000000000000000000000000
00000000000000000000000000000000000000000000000000000000111111111000011100000000001111111111111111000000000011111110011111100000000000000000000000111110000000000000000000000000000000000000000000000000
00000000000000000000000000000000000000000000000000000000111111111000011100000000011111111111111111000000000000111111111111110000000000000000000001111110000000000000000000000000000000000000000000000000
00000000000000000000000000000000000000000000000000000000111011111000000000000000011111111111111111000000000000011001111111111000000000000000000011111110000000000000000000000000000000000000000000000000
00000000000000000000000000000000000000000000000000000000110001111000000000000000000000000011111110000000000000000000111111111000000000000000000111111110000000000000000000000000000000000000000000000000
00000000000000000000000000000000000000000000000000000001111011111000000000000000000000000011111110000000001110000001111111111111000000000000001111111110000000000000000000000000000000000000000000000000
00000000000000000000000000000000000000000000000111000011111111111000000000000000000000000011111110000000001110000000000111111111000000000000111111111110000000000000000000000000000000000000000000000000
00000000000000000000000000000000000000000000000111000011111111111000000000000000000000000001111100000000000000000000000011111110000000000001111111111110000000000000000000000000000000000000000000000000
00000000000000000000000000000000000001110000000000000111110001111000000000000000000000001101111100000000000000000000000111111100000000000000111100111110000000000000000000000000000000000000000000000000
00000000000000000000000000000000000001100000000000000111100000111100000000000000000000011111111100000000000000000000001111111110000000000000111000011110000000000000000000000000000000000000000000000000
00000000000000000000000000000000000000000000000000001111100000111100000000000000000000011111100000000000000000000000001111111111000000000000110000011110000000000000000000000000000000000000000000000000
00000000000000000000000000000000000000000000000000001111000000011100000001000000000000011111100000000000000000000001111111111111100000000000000000111110000000000000000000000000000000000000000000000000
00000000000000000000000000000000000000000000000000001111000000011100000000000000000000111111100000000000000001111111111111111111110000000000000000111110000000000000000000000000000000000000000000000000
00000000000000000000000000000000000000000000000000011110000000011110000000000000000000111111100000000000000001111111111111111111111000000000000000111110000000000000000000000000000000000000000000000000
00000000000000000000000000000000000000000000000000011110000000011110000000000000000000111111100000000000000001111111001111110011111110000000000000111110000000000000000000000000000000000000000000000000
00000000000000000000000000000000000000000000000000011110000000011111000000000000000001111111000000111000000001111110000111110001111111000000000000111110000000000000000000000000000000000000000000000000
00000000000000000000000000000000000000000000000000111110000000011111000000000000000001111111000000111000000000111110000011111100111111100000000000111110000000000000000000000000000000000000000000000000
00000000000000000000000000011100000000000000000001111100000000001111000000000000000011101111000000000000000000011100000011111110001111110000000000011110000000000000000000000000000000000000000000000000
00000000000000000000000000011100000000000000000001111100000000000001000000000000000011101110000000000000000000000000000001110111100111111000000000011110000000000000000000000000000000000000000000000000
00000000000000000000000000000000000000000000000001111000000000000011000000000000000011111110000000000000000000000000000000110111110011111110000000011110000000000000000000000000000000000000000000000000
00000000000000000000000000000000000000000000000011111000000000001111000000000000000111100010000000000000000000000000000000111111111001111111000000011110000000000000000000000000000000000000000000000000
00000000000000000000000000000000000000000000000011111000000000001110000000000000000111100000000000000000000000000000000000011111111000111111100000111110000000000000000000000000000000000000000000000000
00000000000000000000000000000000000000000000000111110000000000001110000111000000000111111000000000000000000000000000000000001101111100001111110000111110000011100000000000000000000000000000000000000000
00000000000000000000000000000000000000000000001111110000000000001111111111111000000111111000000000000000000000000000000000001101111100000111111110011110000011100000000000000000000000000000000000000000
00000000000000000000000000000000000000000000001111100000000000001111111111111000001111111000000001110000000000000000000000001111111100000011111110011110000000000000000000000000000000000000000000000000
00000000000000000000000000000000000000000000001111100000000000011110000110000000001111100000000001110000000000000000000000000000111110000001111111111110000000000000000000000000000000000000000000000000
00000000000000000000000000000000000000000000001111000000000111111100000000000000001111000000000000000000000000000000000000000000111111000000011111111110000000000000000000000000000000000000000000000000
00000000000000000000000111000000000000000000001111000000011111111100000000000000011111100000000000000000000000000000000000000001111111000000001111111111000000000000000000000000000000000000000000000000
00000000000000000000000111000000000000111000011100000111111111111100000000000111111111100000000000000000110000000000000000000011111111000000000111111111000000000000000000000000000000000000000000000000
00000000000000000000000000000000000000111000011100001111111111000000000000000111111111100000000000000000111100000000000000000001111111000000000011111110000000000000000000000000000000000000000000000000
00000000000000000000000000000000000000000000011110011111101111000011110000000000111111100000000000000000111110000000000000000000011111100000000001111110000000001000000000000000000000000000000000000000
00000000000000000000000000000000000000000000011111111110000111000011110000000000111111000000111000000000111111100000000000000010011111100000000000111110000000001000000000000000111000000000000000000000
00000000000000000000000000000000000000000000011111100000000000000001110001111001111111000000000000011100111111111100000000001111111111000000000000111111000000000000000000000000001000000000000000000000
00000000000000000000000000000000000000000000001110000000000000000001110001110001111111000000000000000100111111111111110101111111111111100001100000000111100000000000000000000000000000000000000000000000
00000000000000000000000000000000000000000000000000000000000000000001111011111011111111000000000000000000011111111111111111111111011111100001111110000111110000000000000000000000010000000000000000000000
00000000000000000000000000000000000000000000000000011100000000000001111001111111111111111000000000000110000111001111111111111111011111000001111111011111111000000000000000000000010000000000000000000000
00000000000000000000000000000000000000000000000000011100000000000001111000011111111111111110000000001110000000000111111111111111111111000001111110011111111100000000000000000000000000000000000000000000
00000000000000000000000000000000000000000000000000000000000000000011111000000001111111111110000000000000000000000001111111111111111111000000111110111111111110000000000000000000000000000000000000000000
00000000000000000000000000000000000000000000000000000000000000000011100000000000000001111100000000000000000000000000111111111111111000000000011111111111111111000000000000000000000000000000000000000000
00000000000000000000000000000000000000000000000000000000000000000000000000000000000000011100000000000000000000000000000000001111100000000000000001111011111100100000000000000000000000000000000000000000
00000000000000000000000000000000000000000000000000000000000000000000000000000000000000000000000000000000000000000000000000000001110000000000000000110001111100000000000000000000000000000000000000000000
00000000000000000000000000000000000000000000000000000000000000000000000000000000000000000000000000000000000000000000000000000001110000000000000001110011111110001000000000000000000000000000000000000000
00000000000000000000000000000000000000000000000000000000000000000000000000000000000000000000000000000000000000000000000000000000000000000000000001000001111111111110000000000000000000000000000000000000
00000000000000000000000000000000000000000000000000000000000000000000000000000000000000000000000000000000000000000000000000000000000000000000000000000000011111111111000000000000000000000000000000000000
00000000000000000000000000000000000000000000000000000000000000000000000000000000000000000000000000000000000000000000000000000000000000000000000000000000000011111111000000000000000000000000000000000000
00000000000000000000000000000000000000000000000000000000000000000000000000000000000000000000000000000000000000000000000000000000000000000000000000000000000000001111100000000000000000000000000000000000
00000000000000000000000000000000000000000000000000000000000000000000000000000000000000000000000000000000000000000000000000000000000000000000000000000000000000000111110000000000000000000000000000000000
00000000000000000000000000000000000000000000000000000000000000000000000000000000000000000000000000000000000000000000000000000000000000000000000000000000000000000111111000000000000000000000000000000000
00000000000000000000000000000000000000000000000000000000000000000000000000000000000000000000000000000000000000000000000000000000000000000000000000000000000000000011111000000000000000000000000000000000
00000000000000000000000000000000000000000000000000000000000000000000000000000000000000000000000000000000000000000000000000000000000000000000000000000000000000000001111100000000000000000000000000000000
00000000000000000000000000000000000000000000000000000000000000000000000000000000000000000000000000000000000000000000000000000000000000000000000000000000000000000000111110000000000000000000000000000000
