P1
200 70
00000000000000000000000000000000000000000000000000000000000000000000000000000000000000000000000000000000000000000000000000000000000000000000000000000000000000000000000000000000000000000000000000000000
00000000000000000000000000000000000000000000000000000000000000000000000000000000000000000000000000000000000000000000000000000000000000000000000000000000000000000000000000000000000000000000000000000000
00000000000000000000000000000000000000000000000000000000000000000000000000000000000000000000000000000000000000000000000000000000000000000000000000000000000000000000000000000000000000000000000000000000
00000000000000000000000000000000000000000000000000000000000000000000000000000000000000000000000000000000000000000000000000000000000000000000000000000000000000000000000000000000000000000000000000000000
00000000000000000000000000000000000000000000000000000000000000000000000000000000000000000000000000000000000000000000000000000000000000000000000000000000000000000000000000000000000000000000000000000000
00000000000000000000000000000000000000000000000000000000000000000000000000000000000000000000000000000000000000000000000000000000000000000000000000000000000000000000000000000000000000000000000000000000
00000000000000000000000000000000000000000000000000000000000000000000000000000000000000000000000000000000000000000000000000000000000000000000000000000000000000000000000000000000000000000000000000000000
00000000000000000000000000000000000000000000000001110000000000000000000000000000000000000000000000000000000000000000000000000000000000000000000000000000000000000000000000000000000000000000000000000000
00000000000000000000000000000000000000000000000001111000111100000000000000000000000000000000000000000000000000000000000000000000000000000000000000000000000000000000111000000000000000000000000000000000
00000000000000000000000000000000000000000000000000001111111110000000000000000000000000000000000000000000000000000000000000000000000000000000000000000000000000000000111000000000000000000000000000000000
00000000000000000000000000111000000000000000000000000111111110000000000000000000000000000000000000000000000000000000000000000000000000000000000111000000000000000000000000000000000000000000000000000000
00000000000000000000000000111000000000000000000000000111111110000000000000000000000000000000000000000111000000000000000000000000000000000000000111000000000000000000000000000000000000000000000000000000
00000000000000000000000000000000000000000000000000000111101110000000000000000000000000000000000000000100000000000000000000000000000000000000000000000000000000000000000000000000000000000000000000000000
00000000000000000000000000000000000000000000000000001111101110000000000000000000000000000000000000000000000000000000000000000000000000000000000000000011100000000000000000000000000000000000000000000000
00000000000000000000000000000000000000000000000000001111111110000000000000000000000000000000000000000000000000000000000000000000000000000000000000000011100000000000000000000000000000000000000000000000
00000000000000000000000000000000000000000000000000011111111110000000000000011000000000000000000000000000000000000000000000111111000000000000000000000000000000000000000000000000000000000000000000000000
00000000000000000000000000000000000000000000000000111111111110000000000000111000000000000000000000000000000000000000000001111111000000000000000000000000000000000000001110000000000000000000000000000000
00000000000000000000000000000000000000000000000000111111111100000000000000000000000000000000000000000000000000000011110011111110000000000000000000000000000000000000001110000000000000000000000000000000
00000000000000000000000000000000000000000000000000111111111100000000111000000000001110000000000000000000011110111111111111111100000000000000000000000000000000000000000000000000000000000000000000000000
00000000000000000000000000000000000000000000000001111111111110000000100000000000001110000000000100000000011111000111111111000000000000000000000000000000111111100000000000000000000000000000000000000000
00000000000000000000000000000000000000000000000011111001111110000000000000000000000000111001001100000000001111000011100000000000000000000000000000000111111111111000000000000000000000000000000000000000
00000000000000000000000000000000000000000000000011110001111110000000111000000000000000111111111100000000001110000000000000000000000000000000000000011111111111111100000000000000000000000000000000000000
00000000000000000000000000000000000000000000000111110001111110000000111000000000000000011111111100000000001100000000000000000000000000000000000001111111111111111111100000000000000000000000000000000000
00000000000000000000000000000000000000000000000111100011111110000000000000000000000000011111111000000000001110000000000000000000000000000000000000111111111111111111100000000000000000000000000000000000
00000000000000000000000000000000000000000000001111100011111111000000000000000000000000111111111000000000001110000000000000000000000000001110000000111111111111111111110000000000000000000000000000000000
00000000000000000000000000000000000000000000001111100011111111000000000000000000000001111111111000000000001111000000000000000000000000001110000011111111111111111111111000000000000000000000000000000000
00000000000000000000000000000000000000000000011111000011111111000000000000000000000111111111110000000000011110000000000000000000000000000000000111111111111111111111111100000000000000000000000000000000
00000000000000000000000000000000000000000000111111000011111111000000000011100001111111111110010000000000011110000000000000000000000000000000001111111111111111111111111100000000000000000000000000000000
00000000000000000000000000000000000000000000111110000011111111000000000011111111111111111110000000000000011110000000000000000000000000000000011111111111100000111111111100000000000000000000000000000000
00000000000000000000000000000110000000000001111110000011111111100000000111111111111110011111000000000000011100000000110000000000000000000000011111110111000000011111111110000000000000000000000000000000
00000000000000000000000000001110000000000011111100000011111111100000000111111111111100011111000000000000011100011111111100000000000000000000111011110010000000011111111110000000000000000000000000000000
00000000000000000000000000000000000000000011111000000011111111000000000011111111100000111111100000000000011110111111111111000000000000000001111011111100000000011111111110000000000000000000000000000000
00000000000000000000000000000000000000000111111000000011111111000000000001111111000000111111100000000000011111111111111111000000000000000001111111111100000000011111111111000000000000000000000000000000
00000000000000000000000000000000000000000111110000000011111111000000000000000011100000111111000000000000011111111110011111100000000000000111100001111000000000011111111111000000000000000000000000000000
00000000000000000000000000000000000000001111100000000011101111000000000000000011100000111111000000000000011111000000001111100000000000000111100001111000000000011111110110000000000000000000000000000000
00000000000000000000000000000000000000011111100000000001000111000000000000000000000001111111000000000000011100000000000011100000000000000011111111110000000000011111110110000000000000000000000000000000
00000000000000000000000000000000000000011111000000000011000111110000000000000000000001111111000000000000000000000000000011100000000000000111111111100000000000011111111110000000000000000000000000000000
00000000000000000000000000000000000000111111000000011111100111111111111111111111110011111110000000000000000000000000000011100000000000011111111111100000000000000111111110000000000000000000000000000000
00000000000000000000011100000000000000111111001100011111110001111111111111111110111111111110000000000000000000000000000011100000000000011101111100000111100000100111111100000000000000000000000000000000
00000000000000000000011000000000000000011111111111001111110000001111111111111110111101111110000000000000000000000000000011111110000000011101111100001111110001111111111100000000000000000000000000000000
00000000000000000000000000000000000000111111011111000111111000000000000001111111111001111111110000000000000000000000000001111110000000111111111110011111111001111111001100000000000000000000000000000000
00000000000000000000000000000000001111111110001000000000111111000000000000000000000111111111111111111100000000000000000001100000000001111111111110011111111011111110000000000000000000000000000000000000
00000000000000000000000000000000110001000000000000000000111111100011110000000000000111111111111111111111100000000000000011000000000011111111111100111101111111111111000000000011100000000000000000000000
00000000000000000000000000000000111000000000000000000111111111110011000000000000001111111100011111111111111100000000000111000000000011111011111100111101111111111111111000000011100000000000000000000000
00000000000000000000000000000000011110000011111111111111111111111000000000000000001111111000000000000011111111111100000111000000000011111011111100111111111111111111111000000000000000000000000000000000
00000000000000000000000000000000011111111111111111111111111111111000000000000000001111110000000000000001111111111111001111000000000111111111111111111111111111111111110000000000000000000000000000000000
00000000000000000000000000000000011111111111111111111111111111111000000000000000011111110000000000000000001111111111111111111111111111111111111111110011111111111111110111000000000000000000000000000000
00000000000000000000000000000000111111110010011111111111111111100000000000000000011101110000000000000000000000000011111111111111111111111111111111100000001111111111110111000000000000000000000000000000
00000000000000000000000000000000111111110000001111111111111111000110000000000000011101100000000000000000000000000000111111000100111111111111111111100000011111111111100000000000000000000000000000000000
00000000000000000000011100000000111111111100000000000011111111001111000000000000111111100000010000000010000000000000111100000000011111111111110000000000011110111111100000000000000000000000000000000000
00000000000000000000011100000000111111111100000000000011111111001101111111000001111111100000010000000111100000000001111000000000011001111011100000000000111110111111100000000000000000000000000000000000
00000000000000000000000000000000110000000000000000000011111111001001111111111111111111000000000000000111100000000011110000000000000000110011000000000000111111111111000000000000000000000000000000000000
00000000000000000000000000000000000000000000000000000011111111000001111111111111111111000000000000000111111000011111110000000000010001000111000000000001111111111110000000000000000000000000000000000000
00000000000000000000000000000000000000000000000000000111111111000000010011111110111111000000000000000011111111111111100000000000001111101111100000000001111111111110000000011100000000000000000000000000
00000000000000000000000001110011100000000000000000000111111111000001100001111100011111000000000000000001111111111111000000000000011111111111100000000011111111111100000000011100000000000000000000000000
00000000000000000000000001110011100000000000000000000011111111000011110000001100011111100000000000000000011111111100000000000000111111111111100000001111111110111000000000000000000000000000000000000000
00000000000000000000000000000000000000000000000000000011111100111111110000000000011111110001000000000000000000000000000000000000111111111111100000011111111100011000000000000000000000000000000000000000
00000000000000000000000000000000000000000000000000011111111101111111110000000000001111111011111100000000000000000000000000000000111111111111110011111111111100000000000000000000000000000000000000000000
00000000000000000000000000000000000000000000000001111111111111111111110000000000000011111111111100000000000000000000000000000000111111101111111111111111111110000000000000000000000000000000000000000000
00000000000000000000000000000000000000000000011111111111111111111000000000000000000000011111111100000000000000000000000000000000111111101111111111111111111110000000000000000011100000000000000000000000
00000000000000000000000000000000000000000000011111111111111111000000000000000000000000000011111100000000000000000000000000000000011111111111111111111111111110000000000000000011100000000000000000000000
00000000000000000000000000000000000001110000011111111111000000000000000000000000000000000000111100000000000000000000000000000000011111111111111111101111111000000000000000000000000000000000000000000000
00000000000000000000000000000000000001111000011110000000000000000000000000000000000000000000001000000000000000000000000000000000001111111111111111101111110000000000000000000000000000000000000000000000
00000000000000000000000000000000000000111000011000000000000000000000000000000000000000000000000000000000000000000000000000000000000111111111111111111111000000000000000000000000000000000000000000000000
00000000000000000000000000000000000000000000000000000000000000000000000000000000000000000000000000000000000000000000000000000000000111111111111111111100000000000000000000000000000000000000000000000000
00000000000000000000000000000000000000000000000000000000000000000000000000000000000000000000000000000000000000000000000000000000000000111111111111000000000000000000000000000000000000000000000000000000
00000000000000000000000000000000000000000000000000000000000000000000000000000000000000000000000000000000000000000000000000000000000000001100011100000000000000000000000000000000000000000000000000000000
00000000000000000000000000000000000000000000000000000000000000000000000000000000000000000000000000000000000000000000000000000000000000000000000000000000000000000000000000000000000000000000000000000000
00000000000000000000000000000000000000000000000000000000000000000000000000000000000000000000000000000000000000000000000000000000000000000000000000000000000000000000000000000000000000000000000000000000
00000000000000000000000000000000000000000000000000000000000000000000000000000000000000000000000000000000000000000000000000000000000000000000000000000000000000000000000000000000000000000000000000000000
