P1
200 70
00000000000000000000000000000000000000000000000000000000000000000000000000000000000000000000000000000000000000000000000000000000000000000000000000000000000000000000000000000000000000000000000000000000
00000000000000000000000000000000000000000000000000000000000000000000000000000000000000000000000000000000000000000000000000000000000000000000000000000000000000000000000000000000000000000000000000000000
00000000000000000000000000000000000000000000000000000000000000000000000000000000000000000000000000000000000000000000000000000000000000000000000000000000000000000000000000000000000000000000000000000000
00000000000000000000000000000000000000000000000000000000000000000000000000000000000000000000000000000000000000000000000000000000000000000000000000000000000000000000000000000000000000000000000000000000
00000000000000000000000000000000000000000000000000000000000000000000000000000000000000000000000000000000000000000000000000000000000000000000000000000000000000000000000000000000000000000000000000000000
00000000000000000000000000000000000000000000000000000000000000000000000000000000000000000000000000000000000000000000000000000000000000000000000000000000000000000000000000000000000000000000000000000000
00000000000000000000000000000000000000000000000000000000000000000000000000000000000000000000000000000000000000000000000000000000000000000000000000000000000000000000000000000000000000000000000000000000
00000000000000000000000000000000000000000000000000000000000000000000000000000000000000000000000000000000000001110000000000000000000000000000000000000000000000000000000000000000000000000000000000000000
00000000000000000000000000000000000000000000000000000000000000000000000000000000000000000000000011100000000001110000000000000000000000000000000000000000000000000000000000000000000000000000000000000000
00000000000000000000000000000000000000000000000000000000000000011110000000000000000000000000000011100000000000000000000000000000000000000000000000000000000000000000000000000000000000000000000000000000
00000000000000000000000000000000000000000000000000000000000111111110000000000000000000000000000000000000000000000000000000000000000000000000000000000000000000000000000000000000000000000000000000000000
00000000000000000000000000000000000000000000000000000000001111111110000000000000000000000000000000000000000000001000000000000000000000000000000000000000000000000000000000000000000000000000000000000000
00000000000000000000000000000001110000000000000000000000011111110110000000000000000000000000000000000000000000111000000000011101110000000000000000000000000000000000000000000000000000000000000000000000
00000000000000000000000000000001110000000000000001100000111111110110000000000000000000000000000000000000000000000000000000011101110000000000000000000000000000000000000000000000000000000000000000000000
00000000000000000000000000000000000000000000000010000000111111111110000000000000000000000000000000000000000000000000000000000000000000000000000000011100000000000000000000000000000000000000000000000000
00000000000000000000000000000000000000000000000000000001111111111110000000000000000000000000000000000000000000000000000000000000000011100000000000011100000000000000000000000000000000000000000000000000
00000000000000000000000000000000000000000000000000000001111111111110000000000000000000000000000000000001111000000000000000000000000011110000000000000000000000000000000000000000000000000000000000000000
00000000000000000000000000000000000000000000000000000011111111111110000000000000000000000000000000011111111100000000000000011111000001110000000000000000000000000000000000000000000000000000000000000000
00000000000000000000000000000000000000000000000000000111111101111110000000000000000000000000000000111111000001000000000001111110000000000000000000000000000000000000000000000000000000000000000000000000
00000000000000000000000000000000000000000000000000000111111101111110111000000000000000000000000011111111000001100000000011111110000000000000000000111100011100000000000000000001110000000000000000000000
00000000000000000000000000000000000000000000000000000111111111111100111000000000000000000000000011111111110011110000001111111110000000000000000011111110001111000000000000000001110000000000000000000000
00000000000000000000000000000000000000000000000000000011111111111000000000000000000000000000000111111111111111111000111110011100000000000000001111111111001111100000000000000000000000000000000000000000
00000000000000000000000000000000000000000000000000010011101111111100000000000000000000000000001111111111110111111000111100001110000000000000001111111111111111100000000000000000000000000000000000000000
00000000000000000000000000000000000000000000000000011111000111111110000000000000000001111111111111111111110111111101111100011111100000000000011111111111111111110000000000000000000000000000000000000000
00000000000000000000000000000000000000000000000000111111001110111110000000000000000011111111111111111111111111111111111110010011100000000000111111111111111111110000000011100000000000000000000000000000
00000000000000000000000000000000000000000000000000111111011100011110000000000001111111111111111111111111110011111111111111000011100000000000111100001110111111110000000011100000000000000000000000000000
00000000000000000000000000000000000000000000000011111111011100011110000011111111111111111100111111000000000001111111111000000111111000000001111000000000011111110000000000000000000000000000000000000000
00000000000000000000000000000000000000000000000111111110001100001110011111111111111100000000011110000000000001111100000000111111111111100111110000000000011111110000000000000000000000000000000000000000
00000000000000000000000000000000000000000000000111111100001110011110001111111111100000000001100000000000000011111100000000011111111111111111100000000000001111110000000000000000000000000000000000000000
00000000000000000000000000000000000000000000000111111100011111111111001111000000000000000000000000000000000011100000000000011111101111111111110000000000001111110000000000000000000000000000000000000000
00000000000000000000000000000000000000000000001111111000011111111111110000000000000000000000000000000000000111100000000000011111000001111111111111110000011111100000000000000000000000000000000000000000
00000000000000000000000011100000000000000000001111110000011111111100000000000000000000000000000000000000000111111000000000011111000000011111111111111110011111000000000000000000000000000000000000000000
00000000000000000000000011100000000000000000011111110010001111111000000000000000000000000000000000000000001111111000000000011111000000011111111111111100111111000111000000000000000000000000000000000000
00000000000000000000000000000000000000000000111111111111011111111100000000000000000000000000000000000000011111111000000000011111000000011100000111111000111111101111000000000000000000000000000000000000
00000000000000000000000000000000000000000000111111111111111111101100000000000000000000000000000000000000111111100000000000011110000000001000000011100011001111111111000000000000000000000000000000000000
00000000000000000000000000000000000000000001111111111111111111101111000000000000000000000000000000000011111111000000000000011110000000000000000000000000000111111111100000000000000000000000000000000000
00000000000000000000000000000000000000000011111111111100011111111111000000000000000000000000000000011111111111000000000000011111000000000000000000000000111011111111111100000000000000000000000000000000
00000000000000000000000000000111000000111111101111000000000111111111100000000000000000000000000000111111111110000000000000011111000000000000000000000001111000001111111100000000000000000000000000000000
00000000000000000000000000000111000011111111100100000000100111111111110000000000000000000000000001111111111000000000000000011111000000000000000000000001110000000001111000000000000000000000000000000000
00000000000000000000000000000000000000011111111000000011111111111111110000000000000000000000001111111111100000000000000000011110000000000001110000000000000000000000001000000000000000000000000000000000
00000000000000000000000000000000110000001111111101100111111111111111110000000000000000000000111111111110000000000000000000011110000000000001110000000000110000000000000000000000000000000000000000000000
00000000000000000000000000000000111111001111111111111111111111111111110000000000000000000011111111111000000000000000000000011111000000000000000000000111110000000011000000000000000000000000000000000000
00000000000000000000000000000000011100001111111111111111111111101111000000000000000000001111111111100000000000000000000000011111000000000000000000000111000000000011000000000000000000000000000000000000
00000000000000000000000000000000010000011111111111111111111011101110000000000000000000011111111110000000000000000000000000011111000000000000000000001110000000000111000000000000000000000000000000000000
00000000000000000000000000000000000000011111111111100001110001111000000000000000000001111111111000000000000000000001110000011110000000000000000000011100000000001110000000000000000000000000000000000000
00000000000000000000000000000000000000011111111111100000000000111000000000001110000011111111110000000000000000000001110000011000000000000000000000011100000000001110000000000000000000000000000000000000
00000000000000000000000000000000000000011111111111111100000000011000000000001110000111111110000000000000000000000000000000011000000000000000000000111000000001001110000000000000000000000000000000000000
00000000000000000000000000000000000000011111111111000000111111100000000011100000001111111100000000000000000000000000000000011111000111000000000001110000000111101110000000000000000000000000000000000000
00000000000000000000000000000000000000011111111000000000111111100000000011100000011111110000000000000000000000000000000000011111111111100011100011100000011111111100000000000000000000000000000000000000
00000000000000000000000000000000000000011111000000000000111110010000000000000001111111100000000000000000000000000000000000111111111111000011100011100001111111111100000000000000000000000000000000000000
00000000000000000000000000000000000000010000000000000000111110110000000000000011111111000000000000000000000000000000000001111111111000000000000111000111111111110000000000000000000000000000000000000000
00000000000000000000000000000000000000000000000000000000111111111000000000000111111110000000110011111111100000000000000111111111100000000000001111100011111110000000000000000000000000000000000000000000
00000000000000000000000000000000000000000000000000000000111111110000000000001111111110000001111111111111110000000000011111110000000000000000011111110111111000000000000000000000000000000000000000000000
00000000000000000000000000000000000000000000000000000000111111100000000000001111111111000011111111111111110000000000111111000000000000000000111111111111100000000000000000000000000000000000000000000000
00000000000000000000000000000000000000000000000000000000111111000000000000011111111111111111111111111111110000000001111100000000000000000000111111111100000000000000000000000000000000000000000000000000
00000000000000000000000000000000000000000000000000000000000000000000000000100111101111111111111111111111100000000001110000000000000000000000111111111000000000000000000000000000000000000000000000000000
00000000000000000000000000000000011100000000000000000000000000000000000001110111101111111111111111111111000000000000000000000000000000000001111111100000000000000000000000000011100000000000000000000000
00000000000000000000000000000000011100000000000000000000000000000000000011111111111111110111000000000000000000000000000000000011100000000011111110000000000000000000000000000011100000000000000000000000
00000000000000000000000000000000000000000000000000000000000000000000000011111111110000000000000000000000000000000000000000000011100000000011111000000000000000000000000000000000000000000000000000000000
00000000000000000000000000000000000000000000000000000000000000000000000101100000000000000000000000000000000000000000000000000000000000000111000000000000000000000000000000000000000000000000000000000000
00000000000000000000000000000000000001110111000000000000000000000000000000000000000000000000000000000000000000000000000000000000000000000000000000000000000000000000000000000000000000000000000000000000
00000000000000000000000000000000000001110111000000000000000000000000000000000000000000000000000000000000000000000000111000000000000000000000000000000000000000000000000000000001100000000000000000000000
00000000000000000000000000000000000100000000000000000000000000000000000000000000000000000000000000000000000000000000111000000000000000000000000000000000000000000000000000000001110000000000000000000000
00000000000000000000000000000000000100000000000000000000000000000000000000000000000000000000000000000000000000000000000000000000000000000000000000000000000000000000000000000000000000000000000000000000
00000000000000000000000000000000000000000000000000000000000000000000000000000000000000000000000000000000000000000000000000000000000000000000000000000000000000000000000000000000000000000000000000000000
00000000000000000000000000000000000000000000000000000000000000000000000000000000000000000000000000000000000000000000000000000000000000000000000000000000000000000000000000000000000000000000000000000000
00000000000000000000000000000000000000000000000000000000000000000000000000000000000000000000000000000000000000000000000000000000000000000000000000000000000000000000000000000000000000000000000000000000
00000000000000000000000000000000000000000000000000000000000000000000000000000000000000000000000000000000000000000000000000000000000000000000000000000000000000000000000000000000000000000000000000000000
00000000000000000000000000000000000000000000000000000000000000000000000000000000000000000000000000000000000000000000000000000000000000000000000000000000000000000000000000000000000000000000000000000000
00000000000000000000000000000000000000000000000000000000000000000000000000000000000000000000000000000000000000000000000000000000000000000000000000000000000000000000000000000000000000000000000000000000
