P1
200 70
00000000000000000000000000000000000000000000000000000000000000000000000000000000000000000000000000000000000000000000000000000000000000000000000000000000000000000000000000000000000000000000000000000000
00000000000000000000000000000000000000000000000000000000000000000000000000000000000000000000000000000000000000000000000000000000000000000000000000000000000000000000000000000000000000000000000000000000
00000000000000000000000000000000000000000000000000000000000000000000000000000000000000000000000000000000000000000000000000000000000000000000000000000000000000000000000000000000000000000000000000000000
00000000000000000000000000000000000000000000000000000000000000000000000000000000000000000000000000000000000000000000000000000000000000000000000000000000000000000000000000000000000000000000000000000000
00000000000000000000000000000000000000000000000000000000000000000000000000000000000000000000000000000000000000000000000000000000000000000000000000000000000000000000000000000000000000000000000000000000
00000000000000000000000000000000000000000000000000000000000000000000000000000000000000000000000000000000000000000000000000000000000000000000000000000000000000000000000000000000000000000000000000000000
00000000000000000000000000000000000000000000000000000000000000000000000000000000000000000000000000000000000000000000000000000000000000000000000000000000000000000000000000000000000000000000000000000000
00000000000000000000000000000000000000000000000000000000000000000000000000000000000000000000000000000000000000000000000000000000000000000000000000000000000000000000000000000000000000000000000000000000
00000000000000000000000000000000000000000000000000000000000000000000000000000000000000000000000000000000000000000000000000000000000000000000000000000000000000000000000000000000000000000000000000000000
00000000000000000000000000000000000000000000000000000000000000000000000000000000000000000000000000000000000000000000000000000001110000000000000000000000000000000000000000000000000000000000000000000000
00000000000000000000000000000000000000000000000000000000000000000000000000000000000000000000000000000000000000000000000000000001110000000000000000000001111100000000000000000000000000000000000000000000
00000000000000000000000000000000000000000000000000000000000000000000000000000000000000000000000000000000000000000000000000000000000000000000001111111111111111100000000000000000000000000000000000000000
00000000000000000000000000000000000000000000000000000000000000000000000000000000000000000000000000000000000000000000000000001110000000000000111111111111111111111000000000000000000000000000000000000000
00000000000000000000000000000000000000000010000111000000000000000000000000000000000000000000000000000000000000000000000000001110000000000011111011111111111111111100000000000000000000000000000000000000
00000000000000000000000000000000000000000010000011000000000000000000000000000000000000000001100000000000000000000000000000000000000000000011111011111111111111111110000000000000000000000000000000000000
00000000000000000000000000000000000000000000000001111110000000000000000000000000000000000011100000000000000000000000100000000000000011100011111111111111111111111111000000000000000000000000000000000000
00000000000000000000000000000000000000000000000001111111110000000000000000000000000000000000000000000000000000001111111111100000000011100001111111111101111111011111000000000000000000000000000000000000
00000000000000000000000000000000000000000000000000111111110000000000000000000000000000000000000000000000000000001111111111111111110000000011111111100000000010011111100000000000000000000000000000000000
00000000000000000000000000000000000000000000000001111111110000000000000000000001100000000000000000000000000000001111111111111111110000000000111100000000000001111111110000000000000000000000000000000000
00000000000000000000000000000000000000000000001111111111110000000000000001111111111111100000000000000000000000011111111111100111111000000000000000000000000000111111111000000000000000000000000000000000
00000000000000000000000000000000000000000000011111111111110000000000000001111110111001110000000000000000000111111111100000000011111100000000000000000000000000111111111100000000000000000000000000000000
00000000000000000000000000000000000000000000111111111111110000000000000001111110111011111111100000001111111111111111100000000011111110000000000000000000000000011111111100000000000000000000000000000000
00000000000000000000000000000000000000000001111111111111100000000000000001111111111111111111111111111111111111111111111110000000011111000000000000000000000000000011111000000000000000000000000000000000
00000000000000000000000000000000000000000011111111111111100000000000000000011111111111111011111111111111111111111111111111110000011111000000000000001110000000000011111000000000000000000000000000000000
00000000000000000000000000000000000000000111111111111111100000000000000000001111111111110001111111111111001111111111111111111111111111100000000000011110000000001111111000000000000000000000000000000000
00000000000000000000000000000000000000001111111001111111100000000000000001111111111111110001111111000000001111111100000011111111111111110000000000111000000000011111111000000000000000000000000000000000
00000000000000000000000000000000000000001111110001111111100000000000000000111111111111110001111111000000001111111000000000000011111111111111110000000000000000011111111000000000000000000000000000000000
00000000000000000000000000000000000000011111100001111100000000000000000001111111111111100000111111111000011111111000000000000001111111111111111110000000000000111111110000000000000000000000000000000000
00000000000000000000000000000000000000111111000001111100000000000000000011111111100000000000011111111000001111111000000000000001111111100111111001100000000000011111100000000000000000000000000000000000
00000000000000000000000000000000000001111110000001111110000000000000001111111110000000000000011111110000001111111000000000000001001111100000110011111111111000111111000000000000000000000000000000000000
00000000000000000000000000000001110011111100000001110111000000000001111111110000000000000000001111110000001111111000000000000011101111000000000111001110000111111111000000000000000000000000000000000000
00000000000000000000000000000001110011111000000001110111000000000111111100000000000001110000001111110000001111111000000000000011111110000000000000001110001111111111000000000000000000000000000000000000
00000000000000000000111000000000000111111000000011111110000000011111111000000000000001110000001111110000000111111000000000001111111100000000000000111111111111111111100000000001100000000000000000000000
00000000000000000000111110000000001111110000011111111110000001111111100000000000000000000000011111110000000011111110000001111111111000000000000001111111111111111111111100000111100000000000000000000000
00000000000000000000001110000000011111100000011100111100000111111110000000000000000000000000011111110000000011111111001111111111110000000000000001111111111111111111111100000000000000000000000000000000
00000000000000000000000000000000111111000000000000111100011111111000000000000000000000000000011111110000000001111111111111111111000000000000000001111110111111111111111100000000000000000000000000000000
00000000000000000000000000000001111110000000000011111111111111100000000000000000000000000000011111110000000001111011111111111110000000000000000001111110011111111111111100000000000000000000000000000000
00000000000000000000000000000011111110000000000011111111111100000000000000000000000000000000111111110000000011111001111111111111100000000000000001111111011111111110011100000000000000000000000000000000
00000000000000000000000000000011111100000000000011111111111000011100000000110000000000000001111111100000001111111110000011111111110000000000000001111110000000111110011000000001110000000000000000000000
00000000000000000000000000000111111000000000000011111111100000011100000000111110000000000011111111100000011111110000000000011111111000000000000000000000000000000111111100000001110000000000000000000000
00000000000000000000000000001111111000000000000111111111000000000000000000001110000000000111111111000000111111100000000000001111111000000000000000000000000000000011111111000000000000000000000000000000
00000000000000000000000000001111110000000000001111111110000000000000000000000000000000001111111110000001111111000000000000001111111000000000000000000000000000000011111111000000000000000000000000000000
00000000000000000000000000001111110000000000011111111110000000000000000000000000000000000111111100000011111110000000000000000111111100000000000000000000000000000001111111111100000000000000000000000000
00000000000000000000000000001111110000000001111111111110000000000000011100000000000000001111111000000011111110000000000000000111111100000000000000000000000000000001111111111100000000000000000000000000
00000000000000000000000000001111111111111111111011111100000000000000011101110000000001111111110000000011111100000000000000000011110000000000000000000000000000000001111111100000000000000000000000000000
00000000000000000000000000001111111111111111111011111000000000000000000000000000000011111111100000000111111100000000000000000011110000000000000000000000000000000001111111000000000000000000000000000000
00000000000000000000001000001111111111111111111111111100000000000000000000000000000111111111000000000111111100000000000000001111111111100000000000000000000000000001111111000000000000000000000000000000
00000000000000000000001000000000011111111111111111111110000000000000000000000000000001111110000000000111111000000000000000011111111111100000000000000000000000000011111111000000000000000000000000000000
00000000000000000000000000000000001111111111111111111111111100000000000000000000011001111000000000001111111000011100000000011111111000000000000000000000000000000011111111000000000000000000000000000000
00000000000000000000000000000000001111111001111111111111111100000000000000110000111111110000000000001111111000011100000000111100110000000000000000000000000000000011111110000000000000000000000000000000
00000000000000000000000000000000011111110000001111111111111100000000000001000001111111000000000000001101111000000000000000111100000000000000000000000000000000000111111110000000000000000000000000000000
00000000000000000000000000000000111111100000000011111111111100000000000000000011111110000000000000001001111100000000000001111111000000000000000000000000000000001111111100000000000000000000000000000000
00000000000000000000000000000000011110000000010011110000000000000000000000000111111111000000001110001111111100000000000011111110000000000000000000000000000000011111111000000000000000000000000000000000
00000000000000000000000000000000011100000000011111110000000000000000000000000111011110000000001110001111111100000000001111111100000000000000000000000000000000111011111000000000000000000000000000000000
00000000000000000000000000000000001000000000011111110000000000000000000000001111001100000000000111000111111000000000011111111000000000000000000000000000000011111011110000000000000000000000000000000000
00000000000000000000000000000000000000000000011111100000000000000000000000011111100000000000001111111111100000111111111111100000000000000000000000000000000111111111100000000000000000000000000000000000
00000000000000000000000000000000000000000000011111000000000000000000000000011111110000111111111111111111100111110001111111000000000000000000000000000000000111110010000000000000000000000000000000000000
00000000000000000000000000000000000000000000011111100000000000000000000000011111111111111111111111111111111110111000001000000000000000000001100000011111110011110000000000000000000000000000000000000000
00000000000000000000000000000000000000010000111011100000000000000000000000111111111111011111111101111000011100011110000000000000000000000011111111111111111011111000000000000000000000000000000000000000
00000000000000000000000000000000000000110001111011110000000000000000000000000011111111001111111000111000000000000000000000000000000000000111111111111101111111110000000000000000000000000000000000000000
00000000000000000000000000000000000000011011111111111111000000000000000000000011111111100010000000000000000000000000000000000000000000000011111111111101111111000000000000000000000000000000000000000000
00000000000000000000000000000000000000011111111111111001100000000000000000011111000111000000000000000000000000000000000000000000000000000011111111111111111100000000000000000000000000000000000000000000
00000000000000000000001110111000000000001111111111111000000000000000000000000000000000000000000000000000000000000000000000000000000000000011111111111111100000000000000000000000000000000000000000000000
00000000000000000000001110000000000000000110000001111110000000000000000000000000000000000000000000000000000000000000000000000000000000000011111111111111000000000000000000000000000000000000000000000000
00000000000000000000000000000000000000000000000000001100000000000000000000000000000000000000000000000000000000000000000000000000000000000011111111110000000000000000000000000000000000000000000000000000
00000000000000000000000000000000000000000000000000000000000000000000000000000000000000000000000000000000000000000000000000000000000000000011111100000000000000000000000000000000000000000000000000000000
00000000000000000000000000000000000000000000000000000000000000000000000000000000000000000000000000000000000000000000000000000000000000000000000000000000000000000000000000000000000000000000000000000000
00000000000000000000000000000000000000000000000000000000000000000000000000000000000000000000000000000000000000000000000000000000000000000000000000000000000000000000000000000000000000000000000000000000
00000000000000000000000000000000000000000000000000000000000000000000000000000000000000000000000000000000000000000000000000000000000000000000000000000000000000000000000000000000000000000000000000000000
00000000000000000000000000000000000000000000000000000000000000000000000000000000000000000000000000000000000000000000000000000000000000000000000000000000000000000000000000000000000000000000000000000000
