P1
200 70
00000000000000000000000000000000000000000000000000000000000000000000000000000000000000000000000000000000000000000000000000000000000000000000000000000000000000000000000000000000000000000000000000000000
00000000000000000000000000000000000000000000000000000000000000000000000000000000000000000000000000000000000000000000000000000000000000000000000000000000000000000000000000000000000000000000000000000000
00000000000000000000000000000000000000000000000000000000000000000000000000000000000000000000000000000000000000000000000000000000000000000000000000000000000000000000000000000000000000000000000000000000
00000000000000000000000000000000000000000000000000000000000000000000000000000000000000000000000000000000000000000000000000000000000000000000000000000000000000000000000000000000000000000000000000000000
00000000000000000000000000000000000000000000000000000000000000000000000000000000000000000000000000000000000000000000000000000000000000000000000000000000000000000000000000000000000000000000000000000000
00000000000000000000000000000000000000000000000000000000000000000000000000000000000000000000000000000000000000000000000000000000000000000000000000000000000000000000000000000000000000000000000000000000
00000000000000000000000000000000000000000000000000000000000000000000000000000000000000000000000000000000000000000000000000000000000000000000000000000000000000000000000000000000000000000000000000000000
00000000000000000000000000000000000000000000000000000000000000000000000000000000000000000000000000000000000000000000000000000000000000000000000000000000000000000000000000000000000000000000000000000000
00000000000000000000000000000000000000000000000000000000000000000000000000000000000000000000000000000000000000000000000000000000000000000000000000000000000000000000000000000000000000000000000000000000
00000000000000000000000000000000000000000000000000000000000000000000000000001110000000000000000000000000000000000000000000000000000000000000000000000000000000000000010000000000000000000000000000000000
00000000000000000000000000000000000000000000000000000000000000000000000000001000000000000000000000000000000000000000000000000000000000000000000000000000000000000000111000000000000000000000000000000000
00000000000000000000000000000000000000000000000001000000000000000000000000000000000000000000000000000000000000000000000000000000000000000000000000000000000000000011000000000000000000000000000000000000
00000000000000000000000000000000000000000000000000000000000000000000000000000000000000000000000011100000000000000000000000000000000000000000000000000000000000000111100100000000001100000000000000000000
00000000000000000000000000000000000000000000000000000000000000000000000000000000000000000000000111100000000000000000000000000000000000000000000011000111000000011111110000000000011100000000000000000000
00000000000000000000000000000000000000000000000000000000000000000000000000000000000000000000111111100000000000000000000000000000000000000000000011101111111111111111110000000000000000000000000000000000
00000000000000000000000000000000000000000000000000000000011100000000000000000000000000000001111111000000000000000000000000000000000000000000000011111111111111111111111000110000000000000000000000000000
00000000000000000000000000000000000000000000000000000000011100000000000000000000000000000001111111000000000000000000000000000000000000000000000001111111111111111111111111111100000000000000000000000000
00000000000000000000000000000000000000000000000000000011100000000000000000000000000000000001111111000000000000000000000000000000000000000000000000111111111111111111111111111100000000000000000000000000
00000000000000000000000000000000000000000000000000000011100000000000000000000000000000000011110111111111111111111111111110000000000011000000000001111111111111100011111111111000000000000000000000000000
00000000000000000000000000000000000000000000000000000000000000000000000000000000000000000111110111111111111111111111111111100011111111111111111111111111110000000001111111110000000000000000000000000000
00000000000000000000000000000000000000000000000000000000000000000000000000000000000001111111111111111111111111111111111111110111111111111111111111111100000000000000111101110000000000000000000000000000
00000000000000000000000000000000000000000000000000000001100000000000000000000000001111111111111111111111110001111111000111111111111111111111111111100000000000000001111100100000000000000000000000000000
00000000000000000000000000000000000000100000000000001111100000000000000000000001111111111111111111100000000000000000000000111111111111111111100000000000000000000001111111000000000000000000000000000000
00000000000000000000000000000000000000111000000000111111100011100000000000000011111111111111111111000000000000000000000000000111111111111110000000000000000000000011111110000000000000000000000000000000
00000000000000000000000000000000000000000000000111111111100011100000000000111111111101111111111111000000000000000000011100001111111111111100000000000000000000000111111100000000000000000000000000000000
00000000000000000000000000000000000000000000000111111111100000000000000011111111100000111111111111000000000000000000011100011111111111111100000000000000000000000011111100000000000000000000000000000000
00000000000000000000000000000000000000000000000011111111100000000000001111111110000001111111111111000000000000000000000000011111111111111000000000000000000000000111100000000000000000000000000000000000
00000000000000000000000000000000000000000000000011111111100000000001111111110000000001111111111111000000000000000000000000111111111111110000000000000000000000011111000000000000000000000000000000000000
00000000000000000000000000001111000000000011100111111111110000000100111111000000000011111111111111000000000000000000000001111111111111100000000000000000000000111110000000000000000000000000000000000000
00000000000000000000000000001111000000000011100111111111110000000000011100000000000011111111111110000000000000000000000011111111111111100000000000000000000000111100000000000000000000000000000000000000
00000000000000000000000000000000000000000000000111111111110000110001100000000000000111110111111110000000000000000000000111111111111111100000000000000000000001001110000000000000000000000000000000000000
00000000000000000000000000000000000000000000001111111111100000011111000000000000000111111111111110000011100000000000000011110111111111000000000000000000000011101110000000000000000111000000000000000000
00000000000000000000000000000000000000000000011111001111100000111100000000000000000011101111111110000011100000000000000011100111111111000000000000001110000111111111110000000000000111000000000000000000
00000000000000000000000000000000000000000000001110001111101111111000000000000000000111000111111110000000000000000000111110000111111110000000000000001110000111111100000000000000000000000000000000000000
00000000000000000000000000000000000000000000011110001111001111100000000000000000011110000111111110000000000000000001111100001110111110000000000000000000000111111100000000000000000000000000000000000000
00000000000000000000000000000000000000000001111100001110000111000000000000000000011110011111111110011100000000000011100100001110111110000000000000000000001111111000000000000000000000000000000000000000
00000000000000000000000000000000000000000001111100001110000010000000000000111000111100011111111110011100000000000011100000001111111100000000000000000000011111110000000000000000000000000000000000000000
00000000000000000000000000100000000000000011111100001111000000000000110000111001111000001111111100011000000000000111100000011111111000000000000000000000111111100000000000000000000000000000000000000000
00000000000000000000000011100000000000000011111000011111110000000000110000000011111000001110111110110000000000001111100000011111110000000000000000000000111000000000000000000000000000000000000000000000
00000000000000000000000000000000000000000011110001111111110000000000000000000011110000001110111111111000000000011111000000011111100000000000000000000000111000000000000000000000000000000000000000000000
00000000000000000000000000000000000000000001110001111111110000000000000000000111100000001111111110111000000000001111000000111111100000000000000000000001111110000000001110000000000000000000000000000000
00000000000000000000000000000000000000000000110011111111110000000000000000000011100000001110111110111000000000001100000000111111111111000000000000000011111110000000001110000000000000000000000000000000
00000000000000000000000000000000000000011000111111111111110000000000000000000011000000011110111111110000000001110000011001111111111111000000000000000011111100000000000000000000000000000000000000000000
00000000000000000000000000000000000000011111111001111111110000100000000000001111000001111111111111000000000011111001111111111111111111000000000000000011111100000000000000000000000000000000000000000000
00000000000000000000000000000000000000111111111000001111110000110000000000011110000011111111111110000011100111111111111111111111111111000000000000000111111000000000000000000000000000000000000000000000
00000000000000000000000000000000000001111111111100011111111001111100000000111110011111011111111111000011101111111111111111011111111110000000000000001111111000000000000000000000000000000000000000000000
00000000000000000000000000000000000001111111111111111111111111111000000000111111111111011111111110000000001111111111111111011111000100000000000000001111110000000000000000000000000000000000000000000000
00000000000000000000000000000000000011111111111111111111111111111000000001111111111111111111111100000000000111111111111111111110000000000000000000011111110000000000000000000000000000000000000000000000
00000000000000000000000000000000000011111111111111111011111110000000000000011111111111111111111000000000000111111111111111111111000000000000000000011111100000000000000000000000000000000000000000000000
00000000000000000000000000000000000111111111111111110011110000000000000010011111111111111111111000000000000111111111000011111111000001110000000000011111000000000000000000000000000000000000000000000000
00000000000000000000000000000000000111111111111111111111110000000000000111111111111111111111111000000000000010000000000011111111000001110000000000001110000000000000000000000000000000000000000000000000
00000000000000000000000000000000001111111100000001111111110000000000001111101111111110111111111000000000000000000000000111111110000000000000000000000100000000000000000000000000000000000000000000000000
00000000000000000000000000000000011111100000000001111111000000000000001111101111111100111111110000000000000000000000000111111110001110000000000000000000000000000000000000000000000000000000000000000000
00000000000000000000000000000000111110000000000000000111000000000000001111111111100000111111110000000000000000000000001111111100001110000000000000000000000000000000000000000000000000000000000000000000
00000000000000000000000000000000011100000000000000000111111000000000000111100100000000111111110001110000000000000000001111110000000000000000000000000000000000000000000000000000000000000000000000000000
00000000000000000000000000000000001000000000000000000111111000000000000111000000000000111111100001110000000000000000000000000000000000000000000000000000000000000000000000000000000000000000000000000000
00000000000000000000000000000000000000000000000000000111111000000000001111000000000001111110000000000000000000000000000000000000000000000000000000000000000000000000000000000000000000000000000000000000
00000000000000000000000000000000000000000000000000000111000000000000000000000000000001111100000000000000000000000000000000000000000000000000000000000000000000000000000000000000000000000000000000000000
00000000000000000000000000000000000000000000000000000000000000011100000000000000000000000000000000000000000000000000000000000000000000000000000000000000000000000000000000000000000000000000000000000000
00000000000000000000000000000000000000000000000000000000000000011100000000000000000000000000000000000000000000000000000000000000000000000000000000000000000000000000000000000000000000000000000000000000
00000000000000000000000000000000000000000000000000000000000000000000000000000000000000000000000000000000000000000000000000000000000000000000000000111000000000000000000000000000000000000000000000000000
00000000000000000000000000000000000000000000000000000000000000000000000000000000000000000000000000000000000000000000000000000000000000000000000000111000000000000000000000000000000000000000000000000000
00000000000000000000000000000000000000000011100000000000000000000000000000000000000111000000000000000000000000000000000000000000000000000000000000000000000000000000000000000000000000000000000000000000
00000000000000000000000000000000000000000011100000000000000000000000000000000000000111000000000000000000000000000000000000000000000000000000000000000000000000000000000000000000000000000000000000000000
00000000000000000000000000000000000000000000000000000000000000000000000000000000000000000000000000000000000000000000000000000000000000000000000000000000000000000000000000000000000000000000000000000000
00000000000000000000000000000000000000000000000000000000000000000000000000000000000000000000000000000000000000000000000000000000000000000000000000000000000000000000000000000000000000000000000000000000
00000000000000000000000000000000000000000000000000000000000000000000000000000000000000000000000000000000000000000000000000000000000000000000000000000000000000000000000000000000000000000000000000000000
00000000000000000000000000000000000000000000000000000000000000000000000000000000000000000000000000000000000000000000000000000000000000000000000000000000000000000000000000000000000000000000000000000000
00000000000000000000000000000000000000000000000000000000000000000000000000000000000000000000000000000000000000000000000000000000000000000000000000000000000000000000000000000000000000000000000000000000
00000000000000000000000000000000000000000000000000000000000000000000000000000000000000000000000000000000000000000000000000000000000000000000000000000000000000000000000000000000000000000000000000000000
