P1
200 70
00000000000000000000000000000000000000000000000000000000000000000000000000000000000000000000000000000000000000000000000000000000000000000000000000000000000000000000000000000000000000000000000000000000
00000000000000000000000000000000000000000000000000000000000000000000000000000000000000000000000000000000000000000000000000000000000000000000000000000000000000000000000000000000000000000000000000000000
00000000000000000000000000000000000000000000000000000000000000000000000000000000000000000000000000000000000000000000000000000000000000000000000000000000000000000000000000000000000000000000000000000000
00000000000000000000000000000000000000000000000000000000000000000000000000000000000000000000000000000000000000000000000000000000000000000000000000000000000000000000000000000000000000000000000000000000
00000000000000000000000000000000000000000000000000000000000000000000000000000000000000000000000000000000000000000000000000000000000000000000000000000000000000000000000000000000000000000000000000000000
00000000000000000000000000000000000000000000000000000000000000000000000000000000000000000000000000000000000000000000000000000000000000000000000000000000000000000000000000000000000000000000000000000000
00000000000000000000000000000000000000000000000000000000000000000000000000000000000000000000000000000000000000000000000000000000000000000000000000000000000000000000000000000000000000000000000000000000
00000000000000000000000000000000000000000000000000000000000000000000000000000000000000000000000000000000000000000000000000000000000000000000000000000000000000000000000000000000000111000000000000000000
00000000000000000000000000000000000000000000000000000000000000000000000000000000000000111000000000000000000000000000000000000000000000000000000000000000000000000000000000000000000111000000000000000000
00000000000000000000000000000000001000000000000000000000000000000000000000000000000000111000000000000000000000000000000000000000000000000000000000000000000000000000110000000000000000000000000000000000
00000000000000000000000000000000001110000000000000000000000000000000000000000000000000000000000000000000000000000000000000000000000000000000000000000000000000000001111100000000000000000000000000000000
00000000000000000000000000000000011111100000000000000000000000000000000000000000000000000000000000000000000000000000001111100000000000000000000000000011100001110011111100000000000000000000000000000000
00000000000000000000000000000000000111111000000000000000000011000000000000000000000000000000000000100010000000000000111111111000000000000000000000000011100001110111111000000000000000000000000000000000
00000000000000000000000000000000000011111110000000000000111100000000000000000000000000000000000000111000000000000001111111111000000000000000000111000011000000001111110000000000000000000000000000000000
00000000000000000000000000000000000001111111110000000011111110010000000000000000000000011110000000000000000000011111111111110000000000000000001110001111000000001111100000000000000000000000000000000000
00000000000000000000000000000000011100011111111100000111111111111100000000000000000000111110000000000000000001111111111111110000000000000000001111011111111100011111100000000000000000000000000000000000
00000000000000000000000001110000011100000111111111001111101111111100000000000000000000110000000000000000000011111111111111110000000000000000100111111111111110111111000000000000000000000000000000000000
00000000000000000000000001110000000000000000111111111111101111111000000000000000000000000000000000000000011111111111111111100000000000000001110111111111111111111110000000000000000000000000000000000000
00000000000000000000000000000000000000000000001111111111111111111000000000000000000000001000000000001100111111111011111111000000000000000011111111111001111111011111000000000000000000000000000000000000
00000000000000000000000000000000000000000000000011111111111111111000000000000000000011111100000001111111111111000011111100000000000000000111111111110000111111011111100000000000000000000000000000000000
00000000000000000000000000000000000000000000000001111111111111111000000000000000000111111110001111111111001100000011111100000000000000000111111111100000011111111111100000000000000000000000000000000000
00000000000000000000000000000000000000000000001110111110000111111100000000000000000111111111000111110110000000000011111110000000000000001111111111100000011111111100000000000000000000000000000000000000
00000000000000000000000000000000000000000000001000111110000111111111000000000000001111111111000111100001000000000011111110000000000000001111111111000000011111111100000000000000000000000000000000000000
00000000000000000000000000000000000000000000000000111111111111111111111000000000001111111111000111100001110000000111111100000000000000011111111111000000000111111110000000000000000000000000000000000000
00000000000000000000000000000000000000000000000001111111111111111111111111100000011111111111000011000001111100000111100000000000000000111111111110000000100111111110000000000000000000000000000000000000
00000000000000000000000000000000000000000000000011111111111111111110011111111111100111111111000000000000011100001111100000000000000000000001111110000001111111111110000000000000000000000000000000000000
00000000000000000000000000000000000000000000000011111111111111111100001111111111110111111111000000000000000000001111111000000000000000000001111110000111111111111110000000000000000000000000000000000000
00000000000000000000000000000000000000000000000111110000111111111100000001111001111111111111000000000000000000001111110000000000000001111111111110000011111111111110000000000000000000000000000000000000
00000000000000000000000000000000000011100000011111110000011111111100000000000000111111111111100000000000000000001111110000000000000000111111111100100111111111111110000000000000000000000000000000000000
00000000000000000000000000000000000011100000011111111100011111111100000000000000011111111111111000000000000000001111110000000000000000111111111000111111111111111111000000000000000000000000000000000000
00000000000000000000000000000000000000000000001111111100010011111100000000000000001001111111111111111100000000001111100000000000000001111111111101110111111110111111000000000000000000000000000000000000
00000000000000000000000000000000000000000000001111111000010011101100000000000011110000111111111111111110000000001111100000000001110011111111111111100011111100011111000000000000000000000000000000000000
00000000000000000000000000000000000000000000001111111000001111101100000000000111110000111111111111111111001100111111000000000000010000011111111111110111111110111111000000000000000000000000000000000000
00000000000000000000000000011100000000000000001111000000000111111110000000000111100000111111000000001111111111111111100000000000000000001111111110000001111111111111000000000000000000000000000000000000
00000000000000000000000000011100000000000000011111000000000011111110000000001111100000111111000000000001111111111011110001111000111110001111111100000000111110111111000000000000000000000000000000000000
00000000000000000000000000000000000000000000011111100000000011111110000000001111000000111111000001110000001111111001111111111111111111011111111100000001111110111111000000000000000000000000000000000000
00000000000000000000000000000000000000000000111111100000000111111111011100011111000000011111100001110000000001111110001111111111111111111111111100000001111111111110000000000000000000000000000000000000
00000000000000000000000000000000000000000001111111100000000111111111111110011110000000011111100000000000000000111110000010001111111111111111110000000011111111111110000000011100001110000000000000000000
00000000000000000000000000000000000000000001111110000000000111111111101111111110000000001111000000000000000001111100000000000000000011111111110010000111111111111110000000011100001110000000000000000000
00000000000000000000000000000000000000000000111110000000001111111111101111111100000000001110000000000000000001111100000000000000000001111111111111111111111111111110000000000000000000000000000000000000
00000000000000000000000000000000000000000000011111000000001111111111111111111100000000001111000000000000000011111110000000000000000000111111111111111111111111111100000000000000000000000000000000000000
00000000000000000000000000000000000000000000001111000000011111111111111111111000000000011111111100000000000011111111100000000000000000011111111110111111111111111100000000000000000000000000000000000000
00000000000000000000000000000000000000000000000111111111111111111111111111111000111000011111111110000000000011111000100000000000001110001111111100011101001111111100000000000000000000000000000000000000
00000000000000000000000000000000000000000000000011111111111111111111100011110000111100001111111100000000000011111000000000000000001110000111111110000001001111111100000000000000000000000000000000000000
00000000000000000000000000000000000000000011110011111101111111111100100111110000111111101111111100000000000011111000000000000000000000000000000000000001111111111100000000000000000000000000000000000000
00000000000000000000000000000000000000000011111111111101111111111100100111111111111111111111111100000000000111111000000000000000000000000000000000000011111111111000000000000000000000000000000000000000
00000000000000000000000000000000000000000011111111111111111111111111101111111111111111111111110000000000000111100000000000000000000000000000000000000011111111110000000000000000000000000000000000000000
00000000000000000000000000000000000000000011111111111111100011111111000111111111111111111111000000000000000111000000000000000000000000000000000000000111111111110000000111000000000000000000000000000000
00000000000000000000000000000000000000000001111110111100000011111111000011111111111111111111000000000000000110000000000000000000000000000000000000000111101111100000011111000000000000000000000000000000
00000000000000000000000000000000000000000001111100000000000011111111100011111111111100111111000000000000000110000000000000000000000000000000000000000111101111000000011100000000000000000000000000000000
00000000000000000000000000000000000000000000111000000000000011111111111111111110001110111111000000000000001111100000000000000000000110000000000000000111111111000000000000000000000000000000000000000000
00000000000000000000000000000000000000000000010000000000000001111111101111110000001110111110000000000000001111100000000000000000011111000000000000001111111110000000000000000000000000000000000000000000
00000000000000000000000000000000000000000000000000000000000000111100001000000000000000111110000000000000011111100000000000000000011111100000000000011111111100000000000000000000000000000000000000000000
00000000000000000000000000000000000000000000000000000000000000000000000000011100000000111111000000000000001111100000000000000000010001100000000001111111110000000000000000000000000000000000000000000000
00000000000000000000000000000000000000000000000000000000000000000000000000011100000000111111000000001110011111100000000000000000000000111000001111111111100000000000000000000000000000000000000000000000
00000000000000000000000000000000000111000000000000000000000000000000000000000000000000111111000000001110011111000000000000000000000001111111111111111110000000000000000000000000000000000000000000000000
00000000000000000000000000000000000111000000000000000000000000000000000000000000000000111111000000000000011111000000000000000000111111111111111111111000000000000000000000000000000000000000000000000000
00000000000000000000000000000000000000000000000000000000000000000000000000000000000000010000000000000000011100000000000000000000111111111111111111100000000000000000000000000000000000000000000000000000
00000000000000000000000000000000000000000000000000000000000000000000000000000000000000000000000000000000000000000000000000000001111111111111111100000000000000000000000000000000000000000000000000000000
00000000000000000000000000000000000000000000000000000000000000100000000000000000000011100000000000000000000000000000000000000001111111111110000000000000000000000000000000000000000000000000000000000000
00000000000000000000000000000000000000000000000000000000000000111000000000000000000010000000000000000000000000000000000000000001111110000000000000000000000000000000000000000000000000000000000000000000
00000000000000000000000000000000000000000000000000000000000000000000000000000000000000000000000000000000000000000000000000000000000000000000000000011100000000000000000000000000000000000000000000000000
00000000000000000000000000000000000000000000000000000000000000000000000000000000000000000000000000000000000000000000000000000000000000000000000000011100000000000000000000000000000000000000000000000000
00000000000000000000000000000000000000000000000000000000000000000000000000000000000000000000000000000000000000000000000000000000000000000000000000000000000000000000000000000000000000000000000000000000
00000000000000000000000000000000000000000000000000000000000000000000000000000000000000000000000000000000000000000000000000000000000000000000000000000000000000000000000000000000000000000000000000000000
00000000000000000000000000000000000000000000000000000000000000000000000000000000000000000000000000000000000000000000000000000000000000000000000000000000000000000000000000000000000000000000000000000000
00000000000000000000000000000000000000000000000000000000000000000000000000000000000000000000000000000000000000000000000000000000000000000000000000000000000000000000000000000000000000000000000000000000
00000000000000000000000000000000000000000000000000000000000000000000000000000000000000000000000000000000000000000000000000000000000000000000000000000000000000000000000000000000000000000000000000000000
00000000000000000000000000000000000000000000000000000000000000000000000000000000000000000000000000000000000000000000000000000000000000000000000000000000000000000000000000000000000000000000000000000000
00000000000000000000000000000000000000000000000000000000000000000000000000000000000000000000000000000000000000000000000000000000000000000000000000000000000000000000000000000000000000000000000000000000
