P1
200 70
00000000000000000000000000000000000000000000000000000000000000000000000000000000000000000000000000000000000000000000000000000000000000000000000000000000000000000000000000000000000000000000000000000000
00000000000000000000000000000000000000000000000000000000000000000000000000000000000000000000000000000000000000000000000000000000000000000000000000000000000000000000000000000000000000000000000000000000
00000000000000000000000000000000000000000000000000000000000000000000000000000000000000000000000000000000000000000000000000000000000000000000000000000000000000000000000000000000000000000000000000000000
00000000000000000000000000000000000000000000000000000000000000000000000000000000000000000000000000000000000000000000000000000000000000000000000000000000000000000000000000000000000000000000000000000000
00000000000000000000000000000000000000000000000000000000000000000000000000000000000000000000000000000000000000000000000000000000000000000000000000000000000000000000000000000000000000000000000000000000
00000000000000000000000000000000000000000000000000000000000000000000000000000000000000000000000000000000000000000000000000000000000000000000000000000000000000000000000000000000000000000000000000000000
00000000000000000000000000000000000000000000000000000000000000000000111000000000000000000000000000000000000000000000000000000000000000000000000000000000000000000000000000000000000000000000000000000000
00000000000000000000000000000000000000000000000000000000000000000001111100000000000000000000000000000000000000000000000000000000000000000000000000000000000000000000000000000000000000000000000000000000
00000000000000000000000000000000000000000000000001110000000000000001111111100000000000000000000000000000000000000000000000000000000000000000000000000000000000000000000000000000000000000000000000000000
00000000000000000000000000000000000000000000000000110000000000000001111111110000000000000000000000000000000000000000000000000000000000000000000000000000000000000000000000000000000000000000000000000000
00000000000000000000000000000000000000000111000000000000000000000001111111111100000000000000000000000000000000000000000000000000000000000000000000000000000000000000000000000000000000000000000000000000
00000000000000000000000000000000000000000111000000000000000000000001111111111111000000000000000000000000000000000000000000000000000000000000000000000000000000000000000000000000111000000000000000000000
00000000000000000000000000000000000000000000000000000000000000000011111111111111110000000000000000000000000000000000000001110000000000000000000000000000000000000000000000000000111000000000000000000000
00000000000000000000000000000000000000000000000000000000000000000010011111111111111000000000000000000000000000000010000011100000000000000000000000000000000000000000000000000000000000000000000000000000
00000000000000000000000000000000000000000000000000000000000000000011011111111111100110000000000000000000000000011111111111100000000111000000000000000000000000000000000000000000000000000000000000000000
00000000000000000000000000000000000000000000000000000000000000000011111111110111101111110000000000000000000000111111111111110000000111000000000000001110000110011110111111100000000000000000000000000000
00000000000000000000000100000000000000000000000000000000000000000111111111100011111111111000000000000000000011111111111111111000000000000000000011111111111111111111111111110000000000000000000000000000
00000000000000000000000100000000000000000000000000000000000000000111101111110001111111111110000000000000000111111111111100111110000000000000000011111111111110011111111111110000000000000000000000000000
00000000000000000000000000000000000000110000000000000000000000000111101111110001111111011111100000000000000111111111111100111111000000000000000011111111111000011111111111110000000000000000000000000000
00000000000000000000000000000000000011111000111000000000000000000111111111100001111111011111110000000000001111111111111111111111000000000000000011111111111001111111111111100000000000000000000000000000
00000000000000000000000000000000000111111100111000000000000000001111110111100000111111111111110000000000001111111011111111111111100000000000000011111011111111111111101111100000000000000000000000000000
00000000000000000000000000000000000111111101110000000000000000011111100111000000111111111111111000000000000111111011111111111101110000000000000011111001111111111111101111100000000000000000000000000000
00000000000000000000000000000000001111111111110000000000000000001111001111000000001111111011111000000000001111111111111111111101110000000000000000111110111111111111111111100000000000000000000000000000
00000000000000000000000000000000001111111110000000000000000000001111001111000000001111111011111000000000111111011111100111111111110000000000000000000000000001111111111111000000000000000000000000000000
00000000000000000000000000000000001111111110000000000000000000001111110011100000011111111111111000000000011111011111000001111110001000000000000000000000000000011111111111000000000000000000000000000000
00000000000000000000000000000000011111111111000000000000000000011111111011111111111111111111111111110000111111111110000001111110011000000000000000000000000000011111111111000000000000000000000000000000
00000000000000000000000000000000011111111111111111111111111111111111111111111111111111111111111111100001111111111110000001111111111100000000000000000000000000111111111110000000000000000000000000000000
00000000000000000000000000000000011111111111111111111111111111111111111111111111111111111111111111100111111111111111111111111111111100000000000000000000000000111111111100000000000000000000000000000000
00000000000000000000000001110000011111111111111111111111111111111111111111111111111111111111111111111111111111111111111111111111111100000000000000000000000000111001111000000000000000000000000000000000
00000000000000000000000001110000111001111111111111111111111111111111111111111111110000000000000000000011111111111110001111111011111100000000011100000000000000011000011100000000000000000000000000000000
00000000000000000000000000000001110000111111110000000000000000111111111110001111110000000000000000000011111111110000000011111011111100000000011100000000000000111110011110000000000000000000000000000000
00000000000000000000000000000001110001111101110000000000000000011111111110001111111000000000000000000011111111100011000001111111111100000000000000000000000011111111111110000000000000000000000000000000
00000000000000000000000000000001110001111101110000000000000000000111111111111111111110000000000000000001111111110111000000111111111110000000000000000000000111111111110000000000000000000000000000000000
00000000000000000000000000000011100001111111110000000000000000000000011111111111111111000000000000000001111111110011000000111111111111111000000000000000000111111111100000000000000000000000000000000000
00000000000000000000000000000011100001111111100000000000000000000000000011111111111111000000000000000011111111110011111000111111110010011100000000000000000111111111100000000000000000000000000000000000
00000000000000000000000000000111100000111111100000000000000000000000000000111111111111100000000000000011111111110111111000111111110000001111000000000000001111111111000000000000000000000000000000000000
00000000000000000000000000000111000000111111111100000000000000000000000000001111111111100000000000000111111111100111100100111111111100011111110000000000111111111110000000000000000000000000000000000000
00000000000000000000000000000111000000111111111100000000000000000000000000000111111110000000000000000111111111100111001100111111111100000111111000000000111111111110000000000000000000000000000000000000
00000000000000000000000000001110000000011111111100000000000000000000000000000001111000000000000000000111111111100110011110111111111000000011100100000001111111111100000000000000000000000000000000000000
00000000000000000000000000001110000000001111111100000000000000000000000000000000111000001100000000000111111111100100011111001111111000000001001111000001111111111100000000000000000000000000000000000000
00000000000000000000000000011100000000000111111000010000000000000000000000000000111111111100000000000111011111100000011111000111111000000000111111100001111111111001110000000000000000000000000000000000
00000000000000000000000000001100000000000111111000111000001100000000000000000000111111111110000000000111011111100000011111100011111000000000011111110111111111111001110000000000000000000000000000000000
00000000000000000000000000011110000011111111110010001000001100000000000000000000011111111110001110000111111111000000011111110111111000000000000111111111011111111110000000000000011100000000000000000000
00000000000000000000000000111111111111111111110111000000001110000000000000000000011111111110001110000111111111000000000011111111110000000000000011111111011110001110000000000000011100000000000000000000
00000000000000000000000000111111111111111111111111100000001100110000000000000000001111111111000000000111111111000000000011111111100000000000000001111111111100000000000000000000000000000000000000000000
00000000000000000000000000111111111111111111111111111100011101111110000000000000001001111111000000000110111011000000000011111111110000000000000000111111111100000000000000000000000000000000000000000000
00000000000000000000000000011111111111111111111111110000011111111110000000000000001001111100000000000100111011100000000111111111110000000000000000111111111110000000000000000000000000000000000000000000
00000000000000000000000000011111101111111111111111110000011111111110000000000000001111111000000000000011111111000000000111111111100000000000000000111111111110000000000000000000000000000000000000000000
00000000000000000000000000011111101111111011111111110000011111111111000000000000001111100100000000000011111111100000001111111111100000000000000001110111111100000000000000000000000000000000000000000000
00000000000000000000000000011111111111110001111111111000011111111111111000000000011111101111000000000011111111100000011111111111100000000000000011110111111100000000000000000000000000000000000000000000
00000000000000000000000000011111111000000011111111111000000111111111111111000000011111111111000111000011100000100000011111111111100000000000001111111111111110000000000000000000000000000000000000000000
00000000000000000000000000001100000000000001111111111100000011111111111111111111001111111110000111000011100001100000011111111110000000000000001111111111111111000000000000000000000000000000000000000000
00000000000000000000000000000000000000000001111111111100000111101111111111111111101111111110000000000011111111110000011111101100000000000000001110011111111111100000000000000000000000000000000000000000
00000000000000000000000000011100000000000001111111111100000000001111111111111011111111111111000000000001111111111000111111101110000000000000001110001111111111110000000000000000000000000000000000000000
00000000000000000000000000011100000000000000111111100000000000011111111111110001111111111110000000000001111111111111110111111110000000000000001111001111100111111000000000000000000000000000000000000000
00000000000000000000000000000000000000000000000000000000000000001111111111111011111111111110000000000000111111111111110111111110000000000000000111111111000011111000000000000000000000000000000000000000
00000000000000000000000000000000000000000000000000000000000000000011111111111111111111111110000000000000011101111111111111111100000000000000000000111100000001111100000000000000000000000000000000000000
00000000000000000000000000000000000000000000000000000000000000000001111111111111111111111100000000000000011001111111111111111100000000111000000000000100000001111110000000000000000000000000000000000000
00000000000000000000000000000000000000000000000000000000000000000000001111111111111111111100000000000000000011111111111011111000000000011000000000000000000000111100000000000000000000000000000000000000
00000000000000000000000000000000000000000000000000000000000000000000000111111111111111111000000000000000000011111111111011100000000000000000000000000000000000111100000000000000000000000000000000000000
00000000000000000000000000000000000000000000000000000000000000000000000000111111111111000000000000000000000011111111111111100000000000000000000000000001110000111111000000000000000000000000000000000000
00000000000000000000000000000000000000000000000000000000000000000000000000000001111000000000000000000000000001111111111111000000000000000000000000000001110000001111111100000000000000000000000000000000
00000000000000000000000000000000000000000000111000000000000000000000000000000000000000000000000000000000000000000011111110000000000000000000000000000000000000000111111100000000000000000000000000000000
00000000000000000000000000000000000000000000111000000000000000000000000000000000000000000000000000000000000000000000000000000000000000000000000000000000000000000111111000000000000000000000000000000000
00000000000000000000000000000000000000000000000000000000000000000000000000000000000000000000000000000000000000000000000000000000000000000000000000000000000000000011110000000000000000000000000000000000
00000000000000000000000000000000000000000000000000000000000000000000000000000000000000000000000000000000000000000000000000000000000000000000000000000000000000000011111000000000000000000000000000000000
00000000000000000000000000000000000000000000000000000000000000000000000000000000000000000000000000000000000000000000000000000000000000000000000000000000000000000001111000000000000000000000000000000000
00000000000000000000000000000000000000000000000000000000000000000000000000000000000000000000000000000000000000000000000000000000000000000000000000000000000000000001111100000000000000000000000000000000
00000000000000000000000000000000000000000000000000000000000000000000000000000000000000000000000000000000000000000000000000000000000000000000000000000000000000000000111100000000000000000000000000000000
00000000000000000000000000000000000000000000000000000000000000000000000000000000000000000000000000000000000000000000000000000000000000000000000000000000000000000000111110000000000000000000000000000000
