P1
200 70
00000000000000000000000000000000000000000000000000000000000000000000000000000000000000000000000000000000000000000000000000000000000000000000000000000000000000000000000000000000000000000000000000000000
00000000000000000000000000000000000000000000000000000000000000000000000000000000000000000000000000000000000000000000000000000000000000000000000000000000000000000000000000000000000000000000000000000000
00000000000000000000000000000000000000000000000000000000000000000000000000000000000000000000000000000000000000000000000000000000000000000000000000000000000000000000000000000000000000000000000000000000
00000000000000000000000000000000000000000000000000000000000000000000000000000000000000000000000000000000000000000000000000000000000000000000000000000000000000000000000000000000000000000000000000000000
00000000000000000000000000000000000000000000000000000000000000000000000000000000000000000000000000000000000000000000000000000000000000000000000000000000000000000000000000000000000000000000000000000000
00000000000000000000000000000000000000000000000000000000000000000000000000000000000000000000000000000000000000000000000000000000000000000000000000000000000000000000000000000000000000000000000000000000
00000000000000000000000000000000000000000000000000000000000000000000000000000000000000000000000000000000000000000000000000000000000000000000000000000000000000000000000000000000000000000000000000000000
00000000000000000000000000000000000000000000000000000000000000000000000000000000000000000000000000000000000000000000011100000000000000111000000000000000000000000000000000000000000000000000000000000000
00000000000000000000000000000000000000000000000000000000000000000000000000000000000000000000000000000000000000000000010000000000000000111000111000000000000000000000000000000000000000000000000000000000
00000000000000000000000000000000000000000000000000000000000000000000000000000000000000000000000000000000000000000000000000000000000000000000111100000000000000000000000000000000000000000000000000000000
00000000000000000000000000000000000000000000000000000000000000000000000000000000000000000000000000000000000000000000000000000000000000000000000000000000000000000000000000000000000000000000000000000000
00000000000000000000000000000000000000000000000000000000000000000000000000000000000000000000000000000000000000000000000000001110000000000000000000000000000000000000010000000000000000000000000000000000
00000000000000000000000000000000000000000000000000000000000000000000000000000000000000000000000000000000000000000000000000001110000000000000000000000000000000000000100000000000000000000000000000000000
00000000000000000000000000001110000000000000000000000000000000000000000000000000000000000000001100000000000000000000000000000000000000000001110001111000000000000011110000000000000000000000000000000000
00000000000000000000000000001000000000000000000000000000000000000000000000000000111000000000001111100000000000000000000000000000000000000001000011111100000000000111111000000000000000000000000000000000
00000000000000000000000000000000000000000000000000000000000000000000000000000000111000011100001111111111100000000000000000000000000000000000000111111000000000011111110000000000000000000000000000000000
00000000000000000000000000000000000000000000000000000000000000000000000000000000000000011100001111111111110000000000000000000000000000000001111111111000000001111111100000000001110000000000000000000000
00000000000000000000000000000000000000000000000000000000000000000000000000000000000000000000000111111111111100000000000000000000000000000011111111111000000011111110000000000001110000000000000000000000
00000000000000000000000000000000000000000000000000011000000000000000000000000000000000000000000000111111111111100000000000000000000000000111111111011000001111111100000000000000000000000000000000000000
00000000000000000000000000000000000000000000000000011000000000000000000000000000000000000000000000000011111111111100000000000000000000000111111111011100011111100000000000000000000000000000000000000000
00000000000000000000000000000000000000000000000000000000000000000000000000000000000000000000000000000000011111111111100000001110000000000111111111111111111111000000000000000000000000000000000000000000
00000000000000000000000000000000000000000000000000000000000000001100000000000000000000000000000000000000000011111111100000001110000000001001111111011111111100000000000000000000000000000000000000000000
00000000000000000000000000000000000000000000000000000000000000111111100000000000000000000000000000000000000000000011100000000000000000001101111111011111110000000000000000000000000000000000000000000000
00000000000000000000000000000000000000000000000000000000000001111111110000000011110000000000000000000000000000000011100000000000000000011111111111111111000000000000000000000000000000000000000000000000
00000000000000000000000111000000000000000000000000000000000111110111110000000111111111100000000000000000000001111111000000011100000000011111101111111110000000000000000000000000000000000000000000000000
00000000000000000000000111000000000000000000000000000000000111110111111111110011111111111000000000000000000011111100000000011100000000011111101111111100000000000000000000000000000000000000000000000000
00000000000000000000000000000000000000000000000000000000001111111111111111110001111111111111111000000000000111111000000000000000000000011111111111111100000000000000000000000000000000000000000000000000
00000000000000000000000000000000000000000000000000000000001111111111111111111000111000000010001100000000011111111100000000000000000000001111111111111100000000000000000000000000000000000000000000000000
00000000000000000000000000000000000000000000000000000000110001111111111110111100100000000000000000000000011111110000000000000000000000001111111111111110000000000000000000000000000111000000000000000000
00000000000000000000000000000000000000000000000000000000111000011111111110111110000000000000000000000000001111100000000000000000000001111111111111111110000000000000000000000000000111000000000000000000
00000000000000000000000000000000000000000000000000000001111100000111111111111110000000000000000000000011001111100000000000000000000001111111111111111110000000000000000000000000000000000000000000000000
00000000000000000000000000000000010000000000000000000011111000000111111111111100000000000000000000000011111111000000000000000000000111111111001111111110000000000000000000000000000000000000000000000000
00000000000000000000000000000000011000000000000000000111110000111111111111110000000000000000000000000111111100000000000000000000001111111110001111111110000000000000000000000000000000000000000000000000
00000000000000000000000000000000011100000000111000000011110000111111100111110000000000000000000000001111111100000000000000000000001111111100000111111111000000000000000000000000000000000000000000000000
00000000000000000000000000000000011110000000111000000001000000111111100001111111111000000000000000011111111000000000000000000110011111111100000111111111000000000000000000000000000000000000000000000000
00000000000000000000000000000000111111100000000000000000000000111111111001111111111110000000000000111111110000000000000000011000111111111100000111111111000000000000000000000000000000000000000000000000
00000000000000000000000000000000011111110000000000000000000000111111111111111111111111000000000000111100100000000000000001111000111111111100000111111110000000000000000000000000000000000000000000000000
00000000000000000000000000000000000111111000000000000100000000111110011111001110000111111000000001111100000000000000000111100010011110111100000111111110000000000000000000000000000000000000000000000000
00000000000000000000000000000000000011111110000001111100000000111100011110001110000011111100000001111111000000000000011111000000111110111111000011111111000000000000000000000000000000000000000000000000
00000000000000000000000000000000000001111111000001111000000001111100111111000000000001111111000001111111000000000011111111000000111111111111000011111111110000000000000000000000000000000000000000000000
00000000000000000000000000000000000000111111110001111000000001111111111111000000000000011111110000111110000000001111111110000000011101111011100111111111111110000000000000000000000000000000000000000000
00000000000000000000000000000000000000000111111000110000000001111111111111000000000000011111111001111100000000111111111000000000011101111000111111111110111100000000000000000000000000000000000000000000
00000000000000000000000000000000000000000001111101110000000001111111111111000000000000001001111111110000000111111111000000000000011111111101111111111110111000000000000000000000000000000000000000000000
00000000000000000000000000000000000000000000111111111000000001111111111111100000000000000001111111110000011111111100000000000000011111111111111111111111111100000000000000000000000000000000000000000000
00000000000000000000000000000000000000000000011111110010000001111111111111100000000000000111111111111111111111110000000000000000001111111111111111111111111110000000000000000000000000000000000000000000
00000000000000000000000000000000000000000000000111110111000111111111111111100000000000000111111111111111111110000000000000000000000111111111111111111111111110000000000000000000000000000000000000000000
00000000000000000000000000000000000000000000100011111111101111111111111000000000000000000111111111111111111000000000000000000000001111111011111111111101111110000000000000000000000000000000000000000000
00000000000000000000000000000000000000000000111100011111111111111111111000000000000000001111111011111111000000000000000000000000001111110001111111111101111100000000000000000000000000000000000000000000
00000000000000000000000000000000000000000000111000001111111111111111111111111111111111111111111001111000000000000000000000000000000010000000000001111111111100000000000000000000000000000000000000000000
00000000000000000000000000000000000000000000011000000111000011111111111111111111111111111111111110000000000000000000000000000000000000000000000000111111111000000000000000000000000000000000000000000000
00000000000000000000000000000000000000000000001000000000000001111111111111111111001111110011111110000000000000000000000000000000000000000000000000111111110000000000000000000000000000000000000000000000
00000000000000000000000000000000000000000000010000000000000001111111100111111110000111100011111100000000000000000000000000000000000001110000000001111111110000000000000010000000000000000000000000000000
00000000000000000000000000000000000000000000000000000000011101111111000011111100000000000111111100000000000000000000000000000000000001110000000000011111111000000000000010000000000000000000000000000000
00000000000000000000000000000000000000000000000000000000011101111110000001000100000000000111111100000000000000000000000000000000000000000000000000001111111000000000000000000000000000000000000000000000
00000000000000000000000000000000000000000000000000000000000000111100000000001111000000001111111100000000000000000000111000000000000000000000000000011111110000000000000000000000000000000000000000000000
00000000000000000000000000000000000000000000000000000000000000011000000000001111110000111111111000000000000000000000111100000000000000000000000000011111110000000000000000000000000000000000000000000000
00000000000000000000000000001110000000000000000000000000000000110000000000000111111111111111110000000000000000000000011100000000000000000000000000001111110000000000000000000000000000000000000000000000
00000000000000000000000000001110000000000000000000000000000000000000000000000000011111111111000000000000000000000000000000000000000000000000000000000111100000000000000000000000000000000000000000000000
00000000000000000000000000000000000000000000000000000000000000000000000000000000011101111100001110000000000000000000000000000000000000000000000000000011000000000000000000000000000000000000000000000000
00000000000000000000000000000000000000000000000000000000000000000000000000000000111000111000001110000000000000000000000000000000000001110000000000000011100000000000000000000000000000000000000000000000
00000000000000000000000000000000000000000000000000000000000000000000000000000000111000000000000000000000000000000000000000000000000001110000000000000000000000000000000000000000000000000000000000000000
00000000000000000000000000000000000000000000000000000000000000000000000000000000000000000000000000000000000000000000000000000000000000000000000000000000000000000000000000000000111000000000000000000000
00000000000000000000000000000000000000000000000000000000000000000000000000000000000000000000000000000000000000000000000000000000000000000000000000000000000000000000000000000000111100000000000000000000
00000000000000000000000000000000000000000000000000000000000000000000000000000000000000000000000000000000000000000000000000000000000000000000000000000000000000000000000000000000011100000000000000000000
00000000000000000000000000000000000000000000000000000000000000000000000000000000000000000000000000000000000000000000000000000000000000000000000000000000000000000000000000000000000000000000000000000000
00000000000000000000000000000000000000000000000000000000000000000000000000000000000000000000000000000000000000000000000000000000000000000000000000000000000000000000000000000000000000000000000000000000
00000000000000000000000000000000000000000000000000000000000000000000000000000000000000000000000000000000000000000000000000000000000000000000000000000000000000000000000000000000000000000000000000000000
00000000000000000000000000000000000000000000000000000000000000000000000000000000000000000000000000000000000000000000000000000000000000000000000000000000000000000000000000000000000000000000000000000000
00000000000000000000000000000000000000000000000000000000000000000000000000000000000000000000000000000000000000000000000000000000000000000000000000000000000000000000000000000000000000000000000000000000
00000000000000000000000000000000000000000000000000000000000000000000000000000000000000000000000000000000000000000000000000000000000000000000000000000000000000000000000000000000000000000000000000000000
