P1
200 70
00000000000000000000000000000000000000000000000000000000000000000000000000000000000000000000000000000000000000000000000000000000000000000000000000000000000000000000000000000000000000000000000000000000
00000000000000000000000000000000000000000000000000000000000000000000000000000000000000000000000000000000000000000000000000000000000000000000000000000000000000000000000000000000000000000000000000000000
00000000000000000000000000000000000000000000000000000000000000000000000000000000000000000000000000000000000000000000000000000000000000000000000000000000000000000000000000000000000000000000000000000000
00000000000000000000000000000000000000000000000000000000000000000000000000000000000000000000000000000000000000000000000000000000000000000000000000000000000000000000000000000000000000000000000000000000
00000000000000000000000000000000000000000000000000000000000000000000000000000000000000000000000000000000000000000000000000000000000000000000000000000000000000000000000000000000000000000000000000000000
00000000000000000000000000000000000000000000000000000000000000000000000000000000000000000000000000000000000000000000000000000000000000000000000000000000000000000000000000000000000000000000000000000000
00000000000000000000000000000000000000000000000000000000000000000000000000000000000000000000000000000000000000000000000000000000000000000000000000000000000000000000000000000000000000000000000000000000
00000000000000000000000111000000000000000000000000000000000000000000000000000000000000000000000000000111000000000000000000000000000000000000000000000000000000000000000000000000000000000000000000000000
00000000000000000000000111000000000000000000000000000000000000000000000000000000000000000000000000000111000000000111000000000000000000000000000000000000000000000000000000000000000000000000000000000000
00000000000000000000000000000000000000000000000000000000000000000000000000000000000000000000000000000000000001110111000000000000000000000000000000000000000000011111111111000000000000000000000000000000
00000000000000000000000000000000000000000000000000000000000000111000000000000000000000000000000000000000000001110000000000000000000000000000000000000000000001111111111111100000000000000000000000000000
00000000000000000000000000000000000000000000000000000000000001111000000000000000000000000000000000000000000000000000000000000000000000000000000000000111000111111111111111000000000000000000000000000000
00000000000000000000111000000000000000000000000000000000000011110000000000000000000000000000001110000000000000000000000000000000000000000000000000000111001111111111111111100000000000000000000000000000
00000000000000000000111000000000000000000000000000000000000001110000000000000000000000000000001110000000000000000000000000000000000000110001111111000000011111000000011111111000000000000000000000000000
00000000000000000000000000000000000000000000000000000000000001110000000000000000000000000000000000000000000000000011000111011111111111111111111110000000111110000000000111111100000000000000000000000000
00000000000000000000000000000000000000000011100000000000000011110000000000000000000000000000000000000000000010001111111110000111111110111111111100000000111111000000000011111100000000000000000000000000
00000000000000000000000000000000000000000011100000000000000111111111000000000111111111100000000000000000000010001111111100000001111110111111111100000001111110000000000011111100000000000000000000000000
00000000000000000000000000000000000000000000000000000000001111111111000000111111111111111000000000000000000000001111111100111000111111111111111000000001111110000000000001111100000000000000000000000000
00000000000000000000000000000000000000000000000000000000011111110000000001111111111111111000000000000000000000011111111111111101111111111111110000000011111110000011100001111100000000000000000000000000
00000000000000000000000000000000000000000000000000000000011111110000000011111111111111111100000000000000001111111111111111111111111111111111000000000011111100000011100001111100000000000000000000000000
00000000000000000000000000000000000000000000000000000000000111110000000111111111111111111110000000000000001111111111111111110111111001111111000000000001111100000000000011111100000000000000000000000000
00000000000000000000000111000000000000000000000000000000100111110000000111111111111111111001000000000000001111111111111111100011110000110111100000000000111100000000000011111100000000000000000000000000
00000000000000000000000011000000000000000000000000000001111111110000001111111001111111111011000000000000001111111111111110000011110000110111100000000001111100000000000011111100000000000000000000000000
00000000000000000000000000000000000000000000000000000011111111110000001111111000000111111111000000000000001111111111111100010111111001111110000000000011111100000000000011111100000000000000000000000000
00000000000000000000000000000000000000000000000000000011111101110000000001111100000011111111000000000000001111100000000000000000001111111100000000000011111100000000000111111000000000000000000000000000
00000000000000000000000000000000000000000000000000000011111101110000000001111100000001111111000000000000001111100000000000000000011111111000000000000011111100111000000111100000000000000000000000000000
00000000000000000000000000000000000000000000000000000000111111110000001111111000000000000000000000000000001111000000000000000000111111110000000000000011111000111000001111100000000000000000000000000000
00000000000000000000000000000000000000000000000000000000111111100000011111111000000000000000000000000000000111000000000000000001111111110000000000000001111000000000001111100000000000000000000000000000
00000000000000000000000000000000000000000000000000011111111111100000011110111000000000000000000000000000000111000000000011111111111111110000000000000000110000000000011111100000000000000000000000000000
00000000000000000000000000000000000000000000000000011111100111100000011110111000000000000000000000000000001111000111111100111111111111111111100000000001110001100111111111000000000000000000000000000000
00000000000000000000000000000000001000000000000000011111000011110000011111111000000000000000000000000000011111110011111110111111111111111111111111100001111011111111111110000000000000000000000000000000
00000000000000000000000000000000011100000000011100111101100111100000111111111000000001100000000000001111111111111001111111111111111111110011111111111111111111111111111100000000000000000000000000000000
00000000000000000000000000000000011111000000011101111001111111100000111111111000111111111001111100011111111111111100000000011111111100000011111111111111111111111111111110000000000000000000000000000000
00000000000000000000000000000000111111100000000001110001111111100000111111111011111111110011111111111111111000000000000000011111110000000111000000111111111111111111111001000000000000000000000000000000
00000000000000000000000000000000011111111000000011110001111111100000111111111111111111110111100111111000000000000000000000111111100000000000000000011111111111111111111011100000000000000000000000000000
00000000000000000000000000000000001111111111000011100001111111000000111101111111111111111111000000000000000000000000000001111111000000000000000000011111111111111111111111000000000000000000000000000000
00000000000000000000000000000000011111111111111111100001111110000001111000111111111111111110001000000000000000000000000011111110000000000000000000111111001110001100111111000000000000000000000000000000
00000000000000000000000000000000011100111111111111110011111111000011111100011111111111111111011100000000000000000000000111111110000000000000000001111110000000000000011111100000000000000000000000000000
00000000000000000000000000000000000000000000111111111111111111111111111110011111110001111111111100000000000000000000000111111100000000000000000011111100000000000000011111100000000000000000000000000000
00000000000000000000000000000000000000000000011110011111111111011111111111111111100000111111111110000000000000000000001111111100000000000000000111111101110000000000011111100000000000000000000000000000
00000000000000000000000000000000000000000000011100001111111110001110011001111111000000011111111110000000000000000000011111111000000000000000000111111001110000000000011111100000000000000000000000000000
00000000000000000000000000000000000000000000111000000111111111000000000001111110000000001111111111000000000000000000011111110000000000000000001111111000000000000000001111100000000000000000000000000000
00000000000000000000000000000000000000000000111000000111111110011000000111111110000000000111111111000000000000000000011111100000000000000000001111110000000000000000000011100000000000000000000000000000
00000000000000000000000000001000000000000001110000000011111110111100011111111000000000000011111111000000000000000000111111000000000000000000001111110000000000000000000011100111000000000000000000000000
00000000000000000000000000001000000000000011110000000011111111111100011111111000000000000111111110000000000000000001111110000000000000000000001100000000000000000000011111100111000000000000000000000000
00000000000000000000000000000000000000000011100000000111111101111100011111111100000000000111111111000000000000000011111100000011000000001110011100000000000000000000011111100000000000000000000000000000
00000000000000000000000000000000000000000111000000111111111101111100011111111100000000000111111111100000011100000111111000000111001110001110011111100000000000000000011111100000000000000000000000000000
00000000000000000000000000000000000000001111111111111111111111111100011111111110000000000011111110000000011100001111110000000000001110000000111111100000000000000000111111000000000000000000000000000000
00000000000000000000000000000000000000001111111111111111111111111100011111101110000000000111111100000000000000011111110000100000000000000000111111110000000000000000111111000000000000000000000000000000
00000000000000000000000000000000000000001111111111111111111111111000011111101110000000000111110011000000000000111111100000111000000000000000111101111000000000000000111100000000000000000000000000000000
00000000000000000000000000000000000000011110111111111111111111000000001111111111000000001111110111000000000000111111100000000000000000000000111101111000000000000001111000000000000000000000000000000000
00000000000000000000000000000000000000011110111111111111110111000000001111111111100000001111111111000000000001111111000000000000000000000000111111110000000000000011111100000000000000000000000000000000
00000000000000000000000000000000000000111111111111111111110110000000001111111111110000011111111111000000000001111110000000000000000000000000111111110000000000000111111000000000000000000000000000000000
00000000000000000000000000000000000000011111111111110011111110000000000111111111111111111111111110000000000011111100000000000000000000000000111111111000000000001111110000000000000000000000000000000000
00000000000000000000000000000000000000011111111100000011111110000000000111111111111111111111111100000000000011111100000000000000000000000000011111111100000010011111100000000000000000000000000000000000
00000000000000000000000000000000000000111000000000001111111110000000000011111111111111111111111000000000000111111000000000000000000000000000011111111111111111111110000000000000000000000000000000000000
00000000000000000000000000000000000000000000000000001111111110000000000011110111111111111111110000000000001111110000000000000000000000000000001111111111111111111100000000000000000000000000000000000000
00000000000000000000000000000000000000000000000000001111111110000000000001100111110011101111100000000000011111100000000000000000000000000000001111111111111111110000000000000000000000000000000000000000
00000000000000000000000000000000000000000000000000001111111110000000000000001111100001101111100000000000011111100000000000000000000000000000000000111111100000000000000000000000000000000000000000000000
00000000000000000000000000000000000000000000000000011111111110000000000000000111110001111111000000000000000000000000000000000000000000000000000000000000000000000000000000000000000000000000000000000000
00000000000000000000000000000000000000000000000000001111111100000000000000000001111000000000000000000000000000000000000000000000000000000000000000000000000000000000000000000000000000000000000000000000
00000000000000000000000000000000000000000000000000001111111100000000000000000000000000000000000000000000000000000000000000000001110000000000000000000000000000000000000000000000000000000000000000000000
00000000000000000000000000000000000000000000000000000111000000000000000000000000000000000000000000000000000000000000000000000001110000000000000000000000000000000000000000000000000000000000000000000000
00000000000000000000000000000000000000000000000000000000000000000000000000000000000000000000000000000000000000000000000000000000000000000000000000000000000000000000000000000000000000000000000000000000
00000000000000000000000000000000000000000000000000000000000000000000000000000000000000000000000000000000000000000000000000000000000000000000000000000000000000000000000000000000000000000000000000000000
00000000000000000000000000000000000000000000000000000000000000000000000000000000000000000000000000000000000000000000000000000000000000000000000000000000000000000000000000000000000000000000000000000000
00000000000000000000000000000000000000000000000000000000000000000000000000000000000000000000000000000000000000000000000000000000000000000000000000000000000000000000000000000000000000000000000000000000
00000000000000000000000000000000000000000000000000000000000000000000000000000000000000000000000000000000000000000000000000000000000000000000000000000000000000000000000000000000000000000000000000000000
00000000000000000000000000000000000000000000000000000000000000000000000000000000000000000000000000000000000000000000000000000000000000000000000000000000000000000000000000000000000000000000000000000000
00000000000000000000000000000000000000000000000000000000000000000000000000000000000000000000000000000000000000000000000000000000000000000000000000000000000000000000000000000000000000000000000000000000
