P1
200 70
00000000000000000000000000000000000000000000000000000000000000000000000000000000000000000000000000000000000000000000000000000000000000000000000000000000000000000000000000000000000000000000000000000000
00000000000000000000000000000000000000000000000000000000000000000000000000000000000000000000000000000000000000000000000000000000000000000000000000000000000000000000000000000000000000000000000000000000
00000000000000000000000000000000000000000000000000000000000000000000000000000000000000000000000000000000000000000000000000000000000000000000000000000000000000000000000000000000000000000000000000000000
00000000000000000000000000000000000000000000000000000000000000000000000000000000000000000000000000000000000000000000000000000000000000000000000000000000000000000000000000000000000000000000000000000000
00000000000000000000000000000000000000000000000000000000000000000000000000000000000000000000000000000000000000000000000000000000000000000000000000000000000000000000000000000000000000000000000000000000
00000000000000000000000000000000000000000000000000000000000000000000000000000000000000000000000000000000000000000000000000000000000000000000000000000000000000000000000000000000000000000000000000000000
00000000000000000000000000000000000000000000000000000000000000000000000000000000000000000000000000000000000000000000000000000000000000000000000000000000000000000000000000000000000000000000000000000000
00000000000000000000000000000000000000000000000000000000000000000000000000000000000000000000000000000000000000000000000000000000000000000000000000000000000000000000000000000000000000000000000000000000
00000000000000000000000000000000000000000000000000000000011100000000000000000000000000000000000000000000000000000000000000000000000000000000000000000000000000100000000000000000000000000000000000000000
00000000000000000000000000000000000000000000000000000000011100000000000000000000000000000000000000000000000000000000000000000000000000000000000000000000111001100000000000000000000000000000000000000000
00000000000000000000000000000000000000000000000001110000000000000000000000000000000000000000000000000000000000000000000000000000000000000000000000000000111111100000000000000000000000000000000000000000
00000000000000000000000000000111000000000000000001110000000000000000000000000000000000000000000000000000000000000000000000000000000000000000111000111000111111100000000000000000000000000000000000000000
00000000000000000000000000000111000011100000000000000000000000000000000000000000000000000000000000000000000000000000000000000000000000000000111101111110011111100000000000000000000000000000000000000000
00000000000000000000000000000000000011100000000000000000000000000001111111111111100000000000000000000000000000000000000000000000000000000000111111111111011111100000000000000000000000000000000000000000
00000000000000000000000000000000000000000000000000000000000000000001111111111111111111111111110111000000000000000000000000000000000000000011111111111111111111100000000000000000000000000000000000000000
00000000000000000000000000000000000000000000000000000000000000000001111111111111111111011111111111110000000000000000000000000000000000000111111111111111111111000000000000000000000000000000000000000000
00000000000000000000000000000000000000000000000000000000000000000001111111011111111111011111111111100000000000011011111000000000000000111111111111011111111110000000000000000000000000000000000000000000
00000000000000000000000000000000000000000000000000000001111000000000011111011111111111111111111111100000000011111111111111000000000001111111111111011111111000000000000000001100000000000000000000000000
00000000000000000000000000000000000000001110000000000011111000000000011111111111111111111111111111000000000111111111111111110000011101111111111111111110000000000000000000001100000000000000000000000000
00000000000000000000000000000000000000001110000000000111111000000001111111111111011111111111111111000000001111011100111111111000011101111100111111111100000000000000000000000000000000000000000000000000
00000000000000000000000000000000000000000000000000001111111000000011111100011110001111111111111110000000011111000000000111111100000001111000111111100000000000000000000000000000000000000000000000000000
00000000000000000000000000000000000000000000000000001111111000000011111000000000001111111111111100000000111111000000000011111100000001111001111000000000000000000000000000000000000000000000000000000000
00000000000000000000000000000000000000000000000000011111111000000011110000000000000000011111111000000000011111000000000001111100000001111111110000000000000000000000000000000000000000000000000000000000
00000000000000000000000000000000000000000000000000011111111000000011110000000000000000001111110000000010001111000000000001110010000001111111100000000000000000000000000000000000000000000000000000000000
00000000000000000000000000000000000000000000000000111111111100000000000000000000000000001111100000000011000110000000000011110110000001111111100000000000000000000000000000000000000000000000000000000000
00000000000000000000000000000000000000000000000001111111111100000000000000000000000000100111000000000011100110000000000011111110000001111111110000000000000000000000000000000000000000000000000000000000
00000000000000000000000000000000000000000000000001111111111000000000000000000000000001110110000000000011111110000000000001111000000000111111110000001111110000000000000000000000000000000000000000000000
00000000000000000000000000000000000000000000000011111111110000000000000000000000000011111110000000000011111100000000000001111000000000111111110000011111111110000000000000000000000000000000000000000000
00000000000000000000000000000000001000000000000111100111110000000000000000000000000111111100000000000111111100000000000011111100000000111111110001111111111110000000000000000000000000000000000000000000
00000000000000000000000000000000011100000000001111101111110000000000000000000000000111111000000000000111111100000000000011111100000001111111110010000000001111000111000000000000000000000000000000000000
00000000000000000000000000000000111000000000001111001111100000000000000000000000001111111000000000000000001110000000000111111100000001111111111100000000000011100000000000000000000000000000000000000000
00000000000000000000000000000000011100000000011111000111100000000000000000000011111111110000000000000000000111000000000111111100000001111011111110011111110011100000000000000000000000000000000000000000
00000000000000000000000000000000001111100000111110000011110000000000000000000011110111110000000000000000000111000000001111111000000001111011111111111111001111100000000000000000000000000000000000000000
00000000000000000000000000000000000111110001111100001100000000000000000000000011110111100000000000000000111111000001111111111000000001111111111111111111011111100000000000000000000000000000000000000000
00000000000000000000000000000000000011111011110000001110000000000000000000000011111111000000000000000111111111001111111111100000000001111111111101111111111111000000000000000000000000000000000000000000
00000000000000000000000000000000000001111111100000001111100000000000000000000111111110000000000000000111111111111111111111100000000001111111111100111111111111100000000000000000000000000000000000000000
00000000000000000000000000000000000000111111110000001111100000000000000000001111111000000000000000001111111111111111111110000000000000111111111100000111111111110000000000000000000000000000000000000000
00000000000000000000000000000000000000111111110000001111100000000000000000111111110000000000000000011111111000000111110000000000000000111111111000000011111111110000000000000000000000000000000000000000
00000000000000000000000000000000000000111111111000001111100000000000000000111111100000000000000000111101100000000001110000000000000000011111111000000001111111110000000000000000000000000000000000000000
00000000000000000000000000000000000000100111111100011111100000000001110000111111110001110000000111111100100000000000111100000000000000111111110000000000111111111000000000000000000000000000000000000000
00000000000000000000000000000000000001110011111110011111110000000001110001111111100001110000000111111111000011100000111110000000000000111100100000000000111111110000000000000000000000000000000000000000
00000000000000000000000000000000000011111101111111111111110000000000000001111111000000000000000011111111000011111000111111000000000000111000000000000000111111100000000000000000000000000000000000000000
00000000000000000000000000000000000111111111111111111111100000000000000001111110000000000000000111111111000000111000011111000000000000000000000000000001111111110000000000000000000000000000000000000000
00000000000000000000000000000000000111111111111111111111100000000000000011111000000000000111001111111110000000000000011111000000000000000000000000000001111111110000000000000000000000000000000000000000
00000000000000000000000000000011000011111111111111111111100000000000001111111000000000000111000011111100000000000000011111100000000000000000000000000001111111110000000000000000000000000000000000000000
00000000000000000000011100000011000011111111111111111110011100000000011111111000000000000000000001111100000000000000001111100000000000000000000000000001111101110000000000000000000000000000000000000000
00000000000000000000111100000000000000000111111111111110111110000000111111111000000000000000000000111110000000000000011111100000000000000000000000000001111000100000000111000000000000000000000000000000
00000000000000000000111000000000000000000011111111111111111111000001110111110000000000000000000000011111000000000000111111100000000000000000000000000001110001100000010111000000000000000000000000000000
00000000000000000000000000000000000000000000000011111111111111110001110111100000000000000000000000011111000000000000111111100000000000000111100000000011110011100011111000000000000000000000000000000000
00000000000000000000000000000000000000000000000001111111100011111111111111100000000000000000000000011111100000000000111111100111000000111111100000000011100111111111111000000000000000000000000000000000
00000000000000000000000000000000000000000000000001111111000001111111111110000000000000000000000000001111110000000001111111100111000001111111110000000111101111111111001000000000000000000000000000000000
00000000000000000000000000111000000000000000000011111100000000111111111110000000000000000000000000000111111000000001111111101000000001111111111000001111111111111110000000000000000000000000000000000000
00000000000000000000000000111000000000000000000011111100000000011111111111100000000000000000000000000011111100000000111111111100000001001111111111111111111111111000000000000000000000000000000000000000
00000000000000000000000000000000000000000000000011111110000000001111111111111111100000000000000000000001111111000100111111011100000000001111111111111111111111000000011100000000000000000000000000000000
00000000000000000000000000000000000000000000000011111110000000000001111111111111111100000000000000000000011111000111111110000000000000111111111111111111111100000000011100011100000000000000000000000000
00000000000000000000000000000000000000000000000011111110000000000000000001111111111110011111100000000000001111101111111110000011111111111111111111111111111000000000000000011100000000000000000000000000
00000000000000000000000000000000000000000000000011011100000000000000000000000000111111111111111111111110001111111111111111111111111111111111111111111111110000000000000000001110000000000000000000000000
00000000000000000000000000000000000000000000000010011100000000000000000000000000000000111111111111111111011111111011111101111111111111111111111111111111100000000000000000001110000000000000000000000000
00000000000000000000000000000000000000000000000000111100000000000000000000000000000000000000011111111111111111111011111000111111111111000111111111111111000000000000000000000000000000000000000000000000
00000000000000000000000000000000000000000000000000111100000000000000000000000000000000000000000000001111111111111111110000000000000000000011111111000100000000000000000000000000000000000000000000000000
00000000000000000000000000000000000000000000000000111100000000000000000000000000000000000000000000000000000000000000000000000000000000000000111110000000000000000000000000000000000000000000000000000000
00000000000000000000000000000000000000000000000000011100000000000000000000000000000000000000000000000000000000000000000000000000000000000000001100000000000000000000000000000000000000000000000000000000
00000000000000000000000000000000000000000000000000000000000000000000000000000000000000000000000000000000000000000000000000000000000000000000000000000000000000000000000000000000000000000000000000000000
00000000000000000000000000000000000000000000000000000000000000000000000000000000000000000000000000000000000000000000000000000000000000000000000000000000000000000000000000000000000000000000000000000000
00000000000000000000000000000000000000000000000000000000000000000000000000000000000000000000000000000000000000000000000000000000000000000000000000000000000000000000000000000000000000000000000000000000
00000000000000000000000000000000000000000000000000000000000000000000000000000000000000000000000000000000000000000000000000000000000000000000000000000000000000000000000000000000000000000000000000000000
00000000000000000000000000000000000000000000000000000000000000000000000000000000000000000000000000000000000000000000000000000000000000000000000000000000000000000000000000000000000000000000000000000000
00000000000000000000000000000000000000000000000000000000000000000000000000000000000000000000000000000000000000000000000000000000000000000000000000000000000000000000000000000000000000000000000000000000
00000000000000000000000000000000000000000000000000000000000000000000000000000000000000000000000000000000000000000000000000000000000000000000000000000000000000000000000000000000000000000000000000000000
00000000000000000000000000000000000000000000000000000000000000000000000000000000000000000000000000000000000000000000000000000000000000000000000000000000000000000000000000000000000000000000000000000000
