P1
200 70
00000000000000000000000000000000000000000000000000000000000000000000000000000000000000000000000000000000000000000000000000000000000000000000000000000000000000000000000000000000000000000000000000000000
00000000000000000000000000000000000000000000000000000000000000000000000000000000000000000000000000000000000000000000000000000000000000000000000000000000000000000000000000000000000000000000000000000000
00000000000000000000000000000000000000000000000000000000000000000000000000000000000000000000000000000000000000000000000000000000000000000000000000000000000000000000000000000000000000000000000000000000
00000000000000000000000000000000000000000000000000000000000000000000000000000000000000000000000000000000000000000000000000000000000000000000000000000000000000000000000000000000000000000000000000000000
00000000000000000000000000000000000000000000000000000000000000000000000000000000000000000000000000000000000000000000000000000000000000000000000000000000000000000000000000000000000000000000000000000000
00000000000000000000000000000000000000000000000000000000000000000000000000000000000000000000000000000000000000000000000000000000000000000000000000000000000000000000000000000000000000000000000000000000
00000000000000000000000000000000000000000000000000000000000000000000000000000000000000000000000000000000000000000000000000000000000000000000000000000000000000000000000000000000000000000000000000000000
00000000000000000000000000000000000000000000000000000000000000000111000000000000000000000011100000000000000000000000000000000000000000000000000000000000000000000000000000000000000000000000000000000000
00000000000000000000000000000000000000000000000000000000000000000111000000000000000000000011100000000000000000000000000000000000000000000000000000000000000000000000000111000000000000000000000000000000
00000000000000000000000000000000000000000000000000000000000000000000000000000000000000000000000000000000000000000000000000000000000000000000000000000000000000000000000000000000000000000000000000000000
00000000000000000000000000000000000000000000000000000000000000000000000000000000000000000000000000000000000000000000000000000000000000000000000000000000000000000000000000000000000000000000000000000000
00000000000000000000000000000000000000000000000000000000000000000000000000000000000000000000000000000000000000000000000000000000000000000000000000000000000000000000000000000000000000000000000000000000
00000000000000000000000000000000000000000000000000000111000000000000000001111111100000000000000000000000000000000000000001110000000000000000000010000000000000000000000000000000000000000000000000000000
00000000000000000000000000000000000000000000000011111111000000000000000011111111110000000000000000000000000000000000000001110000000000000000001110000000000000000000000000000000000000000000000000000000
00000000000000000000000000000000000000000000000111111111000000000000000011101111110000000000000000111000000000000000000000000000000000000000000000000000000000000000000000000000000000000000000000000000
00000000000000000000000000000000000000000000000111111111000000000000000011101111111000000000000000001000000000000000000000000000000000000000000000000000000000000000000000000000000000000000000000000000
00000000000000000000000000000000000000000000001111111110000000000000001111111111111000000000000000000000000000000000000000000000000000000000000000000000000000000000000000000000000000000000000000000000
00000000000000000000000000000001110000000000011111111110000000000000011111111111111100000000000000000000000000000000000000000000000111000000000000000000000000000000000000000000000000000000000000000000
00000000000000000000000000000001110000000000111111111110000000000000111110000011111100000000000000000000000000000000000000000001110111000000000000000000000000000000000000000000000000000000000000000000
00000000000000000000000000000000000000000001111111111100000000000001111100000001111100000000000000000000000001110110000000000001110000000000011111111111100011000000010000000000000000000000000000000000
00000000000000000000000000000000000000000001111111111100000000000011111000000000110000000000000000000000111111111111111100000000000000000000111111111111110111100000111000000000000000000000000000000000
00000000000000000000000000000000000000000011111111111100000000000011111000000000110000111000000000000011111111110111111111000000000000000000111111000111111111110001111100000000000000000000000000000000
00000000000000000000000111000000000000000111111111111100000000000111111000000000111110111000000000000111111111110111111111100000000000000000111110000011011101100011111000000000000000000000000000000000
00000000000000000000000111000000000000001111111111111000000000000111111001110000111110000000000000001111111111111111111111111100000000000000011100000000000000000111110000000000000000000000000000000000
00000000000000000000000000000000000000001111111111111000000000000111111001110000111110000000000000011111111111101111111101111110000000000000000000000000000000001111100000000000000000000000000000000000
00000000000000000000000000000000000000001111101111110000000000000111111000000001111110111000000000111111111111101111111101111111000000000000000000000000000000011111000000000000000000000000000000000000
00000000000000000000000000000000000000011111001111110000000000000111110000000001111100111000000001111111111111111111111111111111100000000000011100000000000001111110000000000000000000000000000000000000
00000000000000000000000000000000000000111110001111110000000000000111110000000011111100011000000001111111011111110000111111111111100000000000011110000000000011111100000000100000000000000000000000000000
00000000000000000000000000000000000001111110011111110000000000000111111000000111111111111100001111111111011111000000011111111111100000000011111110000011101111111000000000100000000000000000000000000000
00000000000000000000000000000000000001111100011111110000000000000011111110001111011111111111111111111111111111000000001111111111110000000011111110000000011111100000000000000000000000000000000000000000
00000000000000000000000000000000000011111000011111100000000000000011111111111111011111111111111111111111111111111100001111111111110000000000001110000000111111000000000000000000000000000000000000000000
00000000000000000000000000000000000111110000011111100000000000000111111111111111111000111111111111111111111111100000111111111111111000000000001111111111111110000000000000000000000000000000000000000000
00000000000000000000000000000000000111110000011111100000000000001111111111110111100000000011101111111111111111000001111111111111111100000000001111111111111111100000000000000000000000000000000000000000
00000000000000000000000000000000000111110000011111100000000000011111111111110111000000000011100111111111111100000011111111111111111111111110001111110111100111111000000000000000000111000000000000000000
00000000000000000000000000000000000111100000011111100000000000111111111111111111000000000011100111111111111100000000000111111111111111111111011111100010000011111110000000000000000111000000000000000000
00000000000000000000000000000000001111100000011111111000000011111111111111111111100000000000000111111111111100000000000111111111011111111111111000100000000000111111000000000000000000000000000000000000
00000000000000000000000000000000000111000000011111111000000100111110000011111111110000000000000111111111111000000000000111111111011111111111100000000000000000011111000000000000000000000000000000000000
00000000000000000000000000000000000010000000011111110000001110111100000011111111110000000000000111111111110000000000000111111111111000000000000000000000000000000111000000000000000000000000000000000000
00000000000000000000000000000000011100000000011111111000111111111000000000001111111000000000000111101111110000000000000111111111111000000000000000000000000000000011100000000000000000000000000000000000
00000000000000000000000000000000111100000000111111111100011111110000000000000111111000000000000111101111111000000000000111111111111000000000000000000000000000000001110000000000000000000000000000000000
00000000000000000000000000000000111100000001110111111110011111100000000000000111111000000000000111111111111000000000000111111111111000000000000000000000000000000001111000000000000000000000000000000000
00000000000000000000000000000001111100001111110111111111111111100000000000000111111000000000000111111111111100000000000111111111111000000111000000000000000000000000111100000000000000000000000000000000
00000000000000000000000000000001111110011111111111111011111111100000000000000011111000000000000011111111111000000000000111111111100000000111000000000000000000000000111100000000000000000000000000000000
00000000000000000000000000000001111111111111111111110011111111000000000000000111111000001000000011111111111000000000000111111111100000000000000000000000000000000000011000000000000000000000000000000000
00000000000000000000000000000011111111111111111111001111111111000000000000000111111000011000000011111111111100000000001111111111111000000000000011100000000000000000000000000000000000000000000000000000
00000000000000000000000000000001111111111111111111001101111111000000000000001111111000000000000011111111111100000000001111111111110000000000001111100000000000000000100010000000000000000000000000000000
00000000000000000000000000000001111111100001111111110001111111000000000000001111111000001110000011111111111100000000001111111111110000000000001111000000000000000000111100000000000000000000000000000000
00000000000000000000000000000001111100000001110111100000111111100000000000000011110000001110000000011111111100000000001111110011100000000000011111000000000000000001111100000000000000000000000000000000
00000000000000000000000000000001100000111111110010000000111111110000000000010001110000000000000000001111111100000000000111110000000000000000001111110000000000000001111100000000000000000000000000000000
00000000000000000000000000000000000000111111111100000000111111111000000000110001110000000000000000010011111110000000001111111100000000000000001111111000000000000011110000000000000000000000000000000000
00000000000000000000000000000000000000011111111100000000011111111111110001111011100000000000000000000001111110000000111111111111000000000000000011111100110000011111100000000001110000000000000000000000
00000000000000000000000000000000000000011111111100000000001111111111111011111111000000000000000000000011111111000001111111111111000000000000000000011111111000111111110000000001110000000000000000000000
00000000000000000000000000000000000000111110111100000000000111111111111111111111000000000000000000011111111111100011111111111110000000000000000000000011111001111111100000000000000000000000000000000000
00000000000000000000000000000000000111111100011100000000000011111111111111111110000000000000000000001111111111110111111111111110000000000000000000000000011011111110000000000000000000000000000000000000
00000000000000000000000000000000001111111000011000000000000000111111111111111100000000000000000000000111111111111111111111111100000000000000000000000000000011000000000000000000000000000000000000000000
00000000000000000000000000000000001111100000000000000000000000001111111111110000000000000000000000000111111111111111111111011100000000000000000000000000000111000000000000000000000000000000000000000000
00000000000000000000000000000000011110000000000000000000000000000011110001100000000000000000000000000011111111111111111111000000000000000000000000000000000111000000000000000000000000000000000000000000
00000000000000000000000000000000111100000000000000000000000000000000000000000000000000000000000000000000111111111111111111000000000000000000000000000000000000001110000000000000000000000000000000000000
00000000000000000000000000000001111100000000000000000000000000000000000000000000000000000000000000000000001111111111111110000000001111100000000000000000000000001110000000000000000000000000000000000000
00000000000000000000000000000000011100000000000000000000000000000000000000000000000000000000000000000000000011111000110000000000001111100000000000000000000000000000000000000000000000000000000000000000
00000000000000000000000000000000011100000000000000000000000000000000000000000000000000000000000000000000000000000000000000000000000000000000000000000000000000000000000000000000000000000000000000000000
00000000000000000000000000000000011100000000000000000000000000000000000000000011100000000000000000000000000000000000000000000000000000000011000000000000000000000000000000000000000000000000000000000000
00000000000000000000000000000000011100000000000000000000000000000000000000000011100000000000000000000000000000000000000000000000000000000011100000000000000000000000000000000000000000000000000000000000
00000000000000000000000000000000000000000000000000000000000000000000000000000000000000000000000000000000000000000000000000000000000000000000000000000000000000000000000000000000000000000000000000000000
00000000000000000000000000000000000000000000000000000000000000000000000000000000000000000000000000000000000000000000000000000000000000000000000000000000000000000000000000000000000000000000000000000000
00000000000000000000000000000000000000000000000000000000000000000000000000000000000000000000000000000000000000000000000000000000000000000000000000000000000000000000000000000000000000000000000000000000
00000000000000000000000000000000000000000000000000000000000000000000000000000000000000000000000000000000000000000000000000000000000000000000000000000000000000000000000000000000000000000000000000000000
00000000000000000000000000000000000000000000000000000000000000000000000000000000000000000000000000000000000000000000000000000000000000000000000000000000000000000000000000000000000000000000000000000000
00000000000000000000000000000000000000000000000000000000000000000000000000000000000000000000000000000000000000000000000000000000000000000000000000000000000000000000000000000000000000000000000000000000
00000000000000000000000000000000000000000000000000000000000000000000000000000000000000000000000000000000000000000000000000000000000000000000000000000000000000000000000000000000000000000000000000000000
