P1
200 70
00000000000000000000000000000000000000000000000000000000000000000000000000000000000000000000000000000000000000000000000000000000000000000000000000000000000000000000000000000000000000000000000000000000
00000000000000000000000000000000000000000000000000000000000000000000000000000000000000000000000000000000000000000000000000000000000000000000000000000000000000000000000000000000000000000000000000000000
00000000000000000000000000000000000000000000000000000000000000000000000000000000000000000000000000000000000000000000000000000000000000000000000000000000000000000000000000000000000000000000000000000000
00000000000000000000000000000000000000000000000000000000000000000000000000000000000000000000000000000000000000000000000000000000000000000000000000000000000000000000000000000000000000000000000000000000
00000000000000000000000000000000000000000000000000000000000000000000000000000000000000000000000000000000000000000000000000000000000000000000000000000000000000000000000000000000000000000000000000000000
00000000000000000000000000000000000000000000000000000000000000000000000000000000000000000000000000000000000000000000000000000000000000000000000000000000000000000000000000000000000000000000000000000000
00000000000000000000000000000000000000000000000000000000000000000000000000000000000000000000000000000000000000000000000000000000000000000000000000000000000000000000000000000000000000000000000000000000
00000000000000000000000000000000000000000000000000000000000000000000000000000000000000000000000000000000000000111000000000000000000000000000000000000000000000000000000000000000000000000000000000000000
00000000000000000000000000000000000000000000000000000000000000000000000000000000000000000000000000000000000000000000000000000000000000000000000000000000000000000000000000000000000000000000000000000000
00000000000000000000000000000000000000000000000000000000000000000000000000000000000000000000000001110000000000000000000000000000000000000000000000000000000000000000000000000000000000000000000000000000
00000000000000000000000000000000000000000000000000000000000000000000000000000000000000000000000001110000000000000000000000000000000000000011100000000000000001100000000000000000000000000000000000000000
00000000000000000000000000000000000000000000000000000000000000000000000000000000000000000000001000000000000000000000000000000000110000000001111100111000000011100000000000000000000000000000000000000000
00000000000000000000000000000000000000000000000000000000000000000000000000000001110000000000111111000000000000000011100000000000110000000011111111111111111111000000000000000000000000000000000000000000
00000000000000000000000000000000000000000000000000000000000000000000000000000000110000010001111111110000000000000011100010000000000000000111111111111111111111000000000000000000000000000000000000000000
00000000000000000000000000000000111000000000000000000000000000000000001110000001100001111111111111111000000000000000001110000000000000000111111111111110011111110000000000000000000000000000000000000000
00000000000000000000000000000000111000000000000000000000000000000000001111110011100111111111111111111100000000000000000000000000000000001111111110000000001111111000000000000000000000000000000000000000
00000000000000000000000000000000000000000000000000000000000000000000000001110000011111011111111101111110000000000000000000000010000000001111100000000000001111111100000000000000000000000000000000000000
00000000000000000000000000000000000000000000000000000111111111000000000000000000111110001100111101111110000000000000000000011111000000001111100000000000000111111100000000000000000000000000000000000000
00000000000000000000000000000000000000000000000111111111111111000000000000000001111100000000011111111111000000000000000011111111111110000111100000001000000011111110000000000000000000000000000000000000
00000000000000000000000000000000000000000000000111111111111110000000000000000001111110000000011111111111000000000000000111111111111111000111100000001110000001111111000000000000000000000000000000000000
00000000000000000000000000000000000000000000000011111111111110000000000000000001111111100000001111111111000000000001111111111111111111000011100000000000000001111111000000000000000000000000000000000000
00000000000000000000000000000000000000000000000001111110111110000000000001110011110111100000001111111111000000000001110000001100111111100000000000000000000001111100000000000000000000000000000000000000
00000000000000000000000000000000000000000000000001111110111110000000000001110001110111000000011111111111000000010011100000000000111111000000000000000000000000001000000000000000000000000000000000000000
00000000000000000000000000000000000000000000000111111111111110000000011100000011111111100000011111111111000000111111100000000011111111000000000000000000000000000011000000000000000000000000000000000000
00000000000000000000000000000000000000000000001111111111111110000000011100000111111011000000011111111111000000111111000000000111111111000000000000000000000000100111100000000000000000000000000000000000
00000000000000000000000000000000000000000000011111111111111110000000000000000111111011100000011111111111000001111111000000000111111111000000000000000000000000001111100000000000000000000000000000000000
00000000000000000000000000000000000000000000111111111111111111000000000000001111111111110000011111111111000011111111000000000111111111000000000000000000000000011111100000000000000000000000000000000000
00000000000000000000000000000000000000000000111111111000011111111110000000001111111111110000011111111110000011101111000000000111111111000000000000000000000001111111000000000000000000000000000000000000
00000000000000000000000000000000000000000001111111111000011111111111111111011111111100000000011111111110000011101111100000000111111110000000000000000000000001111111000000000000000000000000000000000000
00000000000000000000111000000000000000000011111111111111111111111111111111111111111100000000011111111100000001111111100000001111111110000000000000000000001111111110000000000000000000000000000000000000
00000000000000000000111000000000000000000111111111111111111110000011111111111111111111000000011111111100000001111111110000001111111100000000000000000111111111111100000000000000000000000000000000000000
00000000000000000000000000000000000000000111111111111111111100000000000001100111111111110000011111111100000011111101111000001111111100000000000000000111111111111000000000000000000000000000000000000000
00000000000000000000000000000000000000001111111100011111111100000000000000000011111111111111111111111000000001111101111100001111111000000000000000000111111111111000000000000000000000000000000000000000
00000000000000000000000000000000000000000111111000001111111100000000000000000111111111111111111111100011100000111111111111011111100000000000000000000011111111111100000000000000000000000000000000000000
00000000000000000000000000000000000001100111111000011111111100000000000000000111111111011111100111100000000000011111111111111110000000000000000000000000000111111111000000000000000000000000000000000000
00000000000000000000000000000000000011111111110000111111111100000000000000000001111111011111100011111100000000111110111111111100000000000000000000000000000000111111100000000000000000000000000000000000
00000000000000000000000000000000000111111111110000111111111100000000000000000000111111111111110011111111100000111110111111111100000000000000000000000000000000011111110000000000000000000000000000000000
00000000000000000000000000000000001111111111100000111111111100000000000000000001111111111111111111111111111100111111111111111110000000000000000000000000000000001111111000000000000000000000000000000000
00000000000000000000000000000000001111110111000000111111111100000000000000000011111111100001111111111111111111111111111111111111000000000000000000000000000000000111111000000000000000000000000000000000
00000000000000000000000000000000011111110110000000111111111000000000000000000111111111000000111111111111111111111111111111111111100000000000000000000000000000000011111100000000000000000000000000000000
00000000000000000000000000000000111111111110000001111111111000000000000000111111111110000000100111111110001111111111111111111111110000000000000000000000000000000000111100000000000000000000000000000000
00000000000000000000000000000001111111111100000001111111111000000000000001111111111110000000000111111110000000001111111111111111111000000000000000000000000000000000111100000000000000000000000000000000
00000000000000000000000000000000111111111100000001111111111000000000000001111111110000000000011111111111000000000111111111111111111111100000000000100000000000000011111100000000000000000000000000000000
00000000000000000000000000000000111111111100000001111111111000000000000011111111110000000000011111111110000100001111111111111111111111111100000001111100000000000011111100000000000000000000000000000000
00000000000000000000000000000000001111111100000001110111111000000000000011111111111000000000011111111111001100011111100001111111111111111111110001111100000000000001111110000000000000000000000000000000
00000000000000000000000000000000001111111111110011100011111000000000000011111111111000000000011111111111100000011111100000111111111100011111111111111100000000000001111110000000000000000000000000000000
00000000000000000000000000000000111111111111111111000111111100000111000111111111110000111000011111111111100000011111000001111111111000000111111111111100000000000001111110000000000000000000000000000000
00000000000000000000001110000001111111111111111111101111111111110100000111111111100000100000011111111111000000111111000001110111111000000000111001111110000000000001111110000000000000000000000000000000
00000000000000000000001110000001111111111111111111111111111111110000000111011111100000000000000111110111000001111111000000100011111100000000000000111111000000000001111110000000000000000000000000000000
00000000000000000000000000000000111111111111111111111111111111100000001111011111110000000000000011110111100001111110000000100000111100000000000000111111100000000011111100000000000000000000000000000000
00000000000000000000000000000000111111111111111111111111111111100000001111111111110000000000000111111111100001111110000000011100111000000000000000011111111100000111111100000000000000000000000000000000
00000000000000000000000000000000011111111111110111111111111111100000001111111111110000000000000111111111100001111110000000011111111000000000000000001111111111111111111000000000000000000000000000000000
00000000000000000000000000000000000001111111110111111111111111100000001111111111110000000000100011111111000000111111000000011111111000000000000000000001111111111111110000000000000000000000000000000000
00000000000000000000000000000000000000000011111111111111111110000000001111111111110000000000110111111111000000111111111000011111111000000000000000000000111111111111100000000000000000000000000000000000
00000000000000000000000000000000000000000000000111111111111110000000001111111111110000000001111111111110000000111111111000011111111100000000000000000000011111111111000000000000000000000000000000000000
00000000000000000000000000000000000000000000000001111111111111000000000111111111111000000011111111111110000000111111000000011111111100000000000000000000000111111110000000000000000000000000000000000000
00000000000000000000000000000000000000000000000001111111110000000000000011111111111110011111111101111100000000111111000000000111110000000000000000000000000000111111000000000000000000000000000000000000
00000000000000000000000000000000000000001111110001111111110000000000000001111111111111111111111000110000000000011111100000100111100000000000000000000000000000011111100000000000000000000000000000000000
00000000000000000000000000011100000000001111110001111111110000000000000000110011111111111111110000100000000000011111100001111111000000000000000000000000000000011111110000000000000000000000000000000000
00000000000000000000000000011100000000000000000001111111100000000000000000000001001111111111100000000000000000011111110001111111000000000000000000000000000000000111110000000000001110000000000000000000
00000000000000000000000000000000000000000000000001111111100000000000000000000000000111111111000000000000000000000111110011111110000000000000000000000000000000000011111000000000001110000000000000000000
00000000000000000000000000000000000000000000000011111111100000000000000000000000000000000000000000000000000000000111100111111100000000000000000000000000001110000011111100000000000000000000000000000000
00000000000000000000000000000000000000000000000011111111100000000000000000000000000000000000000000000000000000000011000111000000000000000000000111000000001110000001111110000000000000000000000000000000
00000000000000000000000000000000000000000000000011111111100000000000000000000000000000000000000000000000000000000011100000000000000000000000000111000000000000000000111000000000000000000000000000000000
00000000000000000000000000000000000000000000000001111111100000000000000000000000000000000000000000000000000000000000000000000000000000000000000000000000000000000000010000000000000000000000000000000000
00000000000000000000000000000000000000000000000000000000000000000000000000000000000000000000000000000000000000000000000000000000000000000000000000000000000000000000000000000000000000000000000000000000
00000000000000000000000000000000000000000000000000000000000000000000000000000000000000000000000000000000000000000000000000000000000000000000000000000000000000000000000000000000000000000000000000000000
00000000000000000000000000000000000000000000000000000000000000000000000000000000000000000000000000000000000000000000000000000000000000000000000000000000000000000000000000000000000000000000000000000000
00000000000000000000000000000000000000000000000000000000000000000000000000000000000000000000000000000000000000000000000000000000000000000000000000000000000000000000000000000000000000000000000000000000
00000000000000000000000000000000000000000000000000000000000000000000000000000000000000000000000000000000000000000000000000000000000000000000000000000000000000000000000000000000000000000000000000000000
