P1
200 70
00000000000000000000000000000000000000000000000000000000000000000000000000000000000000000000000000000000000000000000000000000000000000000000000000000000000000000000000000000000000000000000000000000000
00000000000000000000000000000000000000000000000000000000000000000000000000000000000000000000000000000000000000000000000000000000000000000000000000000000000000000000000000000000000000000000000000000000
00000000000000000000000000000000000000000000000000000000000000000000000000000000000000000000000000000000000000000000000000000000000000000000000000000000000000000000000000000000000000000000000000000000
00000000000000000000000000000000000000000000000000000000000000000000000000000000000000000000000000000000000000000000000000000000000000000000000000000000000000000000000000000000000000000000000000000000
00000000000000000000000000000000000000000000000000000000000000000000000000000000000000000000000000000000000000000000000000000000000000000000000000000000000000000000000000000000000000000000000000000000
00000000000000000000000000000000000000000000000000000000000000000000000000000000000000000000000000000000000000000000000000000000000000000000000000000000000000000000000000000000000000000000000000000000
00000000000000000000000000000000000000000000000000000000000000000000000000000000000000000000000000000000000000000000000000000000000000000000000000000000000000000000000000000000000000000000000000000000
00000000000000000000000000000000000000000000000000000000000000000000000000000000000000000000000000000000000000000000000000000000000000000000000000000000000000000000000000000000000000000000000000000000
00000000000000000000000000000000000000000000000000000000000000000000000000000000000000000000000000000000000000000000001110000000000000000000000000000000000000000000000000000000000000000000000000000000
00000000000000000000000000000000000000000000000000000000000000000000000000000000000000000000000000000000000000000000001110000000000000000000000000000000000000000000000000000000000000000000000000000000
00000000000000000000000000000000000000000000000000000000111100000000000000000000000000000000000000000000000000000000000000000000000000000000000000000000000000000000000000000000000000000000000000000000
00000000000000000000000000000000000000000000000000000001111111000000000001100000000000011111111000000000000000000000000000000000000000000000000000000000000000000000000000000000111000000000000000000000
00000000000000000000000000000000000000000000000000000111111111111000000001110000000011111101111111100000000000000000000000000000000000000000000000000000000011000000000000000000111000000000000000000000
00000000000000000000000000000000000000000000000000001111111111111110000000000000001100111101111111110000000111000000000000000000000000000000000000000000000111111100000000000000000000000000000000000000
00000000000000000000000000000000000111000000000000001111111111111110000000000000011110111111111111111000000111000000000000000000000000000000000100000000001111111110000000000000000000000000000000000000
00000000000000000000000000000000000111100000000000111111111110111110000000000000111111111111111111111000000000000000000000000000000000000000000100000000001111111111110000000000000000000000000000000000
00000000000000000000000000000000000011110000000001111101111110111100000000000001111111111011111111111000000000000000001111000000000000000000000000000000011111111111111110000000000000000000000000000000
00000000000000000000000000000000000001110000000111111101111111111100000000001111111111110011111111111000000000000000001111111100000000000000000000000000011111111111111111000000000000000000000000000000
00000000000000000000000011100000000000000000000111111111111111111000000000011111111111111111111111111000000000000000111111111111100000000111000000000000011111111111111111111110000000000000000000000000
00000000000000000000000011100000000000000000011111111111011111111100000000111111111111100011111111111000000000000001111111111111110000000111000000000000111111111111001111111111000000000000000000000000
00000000000000000000000000000000000000000000111111111111011111111100000000111100111110000001111111100000000000000001111111111110111100000000000000000000111111111110000111111111111100000000000000000000
00000000000000000000000000000000000000000001111111111111111111111000000000110000111100000001101111000000000000000001111111111110111110000000000000000000111111111000001111111111111110000000000000000000
00000000000000000000000000000000000000000011111111111111111111110000000001110011111100000001101110000000000000111100111111101111111111000000000000000001111000110001111111111011111110000000000000000000
00000000000000000000000000000001110000001111111111111111111111110000000001111111111100000011111110000000000000111110111111000111111111000000000001110011111000000001111111111011111110000000000000000000
00000000000000000000000000000001110000011111111111111111111111110000000000111111111000000011111111100000000000011111111111100111111011100000000001110011110000000001111111111111111100000000000000000000
00000000000000000000111000000000000000111111111111111111111111100000000000111111111100000111111111000000000000001111111110000011111011110000000000000011000000000000000000111111110000000000000000000000
00000000000000000000111000000000000001111111111110011111111111100000000001111111111110001111111110000000000000001111111110000001111111110000000000000000000000000000010000011111100000000000000000000000
00000000000000000000000000000000000011111111111100011111110000000000000001111111111111111111111110000000000111011111111100000001111111110000000000000000000000000011110000111111110000000000000000000000
00000000000000000000000000000000000111111111111000011111110000000000000001111111111111111111110000000000000000011111111100000000110111111000000000000000000000011111111001111111100000000000000000000000
00000000000000000000000000000000001111111111110000011111111110000000000001111111111111111111100000011100000000011111111100000000100011111000000000000000000011111111111111111110000000000000000000000000
00000000000000000000000000000000111111111111000000111111111110000000000001111111111111111111100100011100000000111111111000000000000111111100000000000000111111111111111111111100000000000000000000000000
00000000000000000000000000000000111111111110000000111111111110000000000001111111111111111111111111000000000000011111111000000000001111111100000000000111111111111000011111111000000000000000000000000000
00000000000000000000000000000001111111111110000001111111111110000000000001111111111111111111111111000000000000011111111000000000111111111100000001111111111110000000111111110000000000000000000000000000
00000000000000000000000000000011110111111000000001111111111100000000000000001111111111111111111111000000000000011111110000000000111110111100001111111111110000000001111111100000000000000000000000000000
00000000000000000000000000000011110111110000000001111111111100000000000000001111111111111111111111000000000000011111110000000000011110111111111111111100000000000011111111000000000000000000000000000000
00000000000000000000000000000001111111100000000001111111111100000000000000000000111111111111111110000000000000011111111100000000011111111110011111100000000000000111111100000000000000000000000000000000
00000000000000000000000000000001111111100000000001111111111000000000000000000000111000001111111111000000000000011111111110000001111111111111001100000000000000001111111000000000000000000000000000000000
00000000000000000000000000000011111111111110000011111111111000000000000000000111111000001111111111100000000000011111101111111111111111111111100000000000000000011111111000000000000000000000000000000000
00000000000000000000000000000111111111111111000011110111111000000000000011101111110000000111111111111100000000011111101111111110111111111110000000000000000000111110010000000000000000000000000000000000
00000000000000000000000000001111111111111111111111100011110000000000000111111111100000000111111111111100000000001111111111111110111111111100000000000000000001111100000000000000000000000000000000000000
00000000000000000000000000000111111111111111111110000111100000000000001111111001000000001111111111101100000000001111111111111111111111111100000000000000000000111110000000000000000000000000000000000000
00000000000000000000000000000111111111111111111110011111000000000000011111111011000000001111111111111111111111100111111111111111111111111100000000000000000100111100000000000000000000000000000000000000
00000000000000000000000000000011001111101111111111111110000011110001111111111111100011111111111111111111111111110111111111111111111001111100000000000000001111111000000000000000000000000000000000000000
00000000000000000000000000000000000111101111111111111111000100111011111111111101111111111111111111111111111111111111111111111111111000111100000000000000011111110000000000000000000000000000000000000000
00000000000000000000000000000000000111111111110111111111000100111111111111111101111111111111111110001111111000000011111111111110011100111100000000000000111111100000000000000000000000000000000000000000
00000000000000000000000000000000000011111111110111111111100011111111111111111111111111111100000000000000000000000000111111111100011111111100000000000001111100000000000000000000000000000000000000000000
00000000000000000000000000000000000111111111111111111111110111000001111111111111100111111100000000000000000000000000000011100000111111111000000000000001111000000000000000011100000000000000000000000000
00000000000000000000000000000000111111111111111111111111111110000001111111111111000011111111000000000000000000111000000000000000111111111000000000000011111100000000000000000011000000000000000000000000
00000000000000000000000000000000111111000000111111111111111110000001111111111111000111111111100000000000000000111000000000000001111111111000000000000001111000000000000000000011000000000000000000000000
00000000000000000000000000000000011110000000111111111111110000000001111111111111101111111001000000000000000000000000000000000001111111110000000000000001110000000000000000000000000000000000000000000000
00000000000000000000000000000000010000000000111111111111100000000001111111111111111110111000000000000000000000000000000111000011111111110000000000010001110000000000000000000000000000000000000000000000
00000000000000000000000000000000000000000000111111111100000000000001111100111111111110111000000000000011100000000000000001000111111111100000000000111001100000000000000010000000000000000000000000000000
00000000000000000000000000000000000000000000111111111000000000000001111100011111111111111000000000000011100000000000000000011111111111000000000000111110000000000000000010000000000000000000000000000000
00000000000000000000000000000000000000000000111111111000000000000000011110001101111111100000000000000000000000001110000111111111111111000000000000011110000000000000000000000000000000000000000000000000
00000000000000000000000000000000000000000000011111111000000000000000011110001101111111000000000000000000000000001111111111111111111110000000000110011110001110000000000000000000000000000000000000000000
00000000000000000000000000000000000000000000011111111000000000000001111111011111111100000000000000000000000000001111111111111111111100000000000111111100001110000000000000000001110000000000000000000000
00000000000000000000000000000000000000000011001111111000000000000001111111111111110000000000000000000000000000001111111111111111111000000000001111110011100000000000000000000001110000000000000000000000
00000000000000000000000000000000000000000011101111110000000000000000111111111110000000000000000000000000000000011111111111111111111000000000000110000011100000000000000000000000000111000000000000000000
00000000000000000000000000000000000000000011111111100000000000000000011111111000000000000000000000000000000000011111111111111111111110000000000000000000000000000000000000000000000001000000000000000000
00000000000000000000000000000000000000000000011111100000000000000000000000000000000000000000000000000000000000001111111111111111001110000000000000000000000000000000000000000000000000000000000000000000
00000000000000000000000000000000000000000000001111100000000000000000000000000000000000000000000000000000000000001111111100111110000000000000000000000000000000000000000000000000000000000000000000000000
00000000000000000000000000000000000000000000000111000000000000000000000000000000000000000000000000000000000000000111111000000000000000000000000000111000000000000000000000000000000000000000000000000000
00000000000000000000000000000000000000000000000000000000000000000000000000000000000000000000000000000000000000000111111000000000000001110000000000111000000000000000000000000000000000000000000000000000
00000000000000000000000000000000000000000000000000000000000000000000000000000000000000000000000000000000000000000001110000000000000001110000000000000000000000000000000000000000000000000000000000000000
00000000000000000000000000000000000000000000000000000000000000000000000000000000000000000000000000000000000000000000000000000000000000000000000000000000000000000000000000000000000000000000000000000000
00000000000000000000000000000000000000000000000000000000000000000000000000000000000000000000000000000000000000000000000000000000000000000000000000000000000000000000000000000000000000000000000000000000
00000000000000000000000000000000000000000000000000000000000000000000000000000000000000000000000000000000000000000000000000000000000000000000000000000000000000000000000000000000000000000000000000000000
00000000000000000000000000000000000000000000000000000000000000000000000000000000000000000000000000000000000000000000000000000000000000000000000000000000000000000000000000000000000000000000000000000000
00000000000000000000000000000000000000000000000000000000000000000000000000000000000000000000000000000000000000000000000000000000000000000000000000000000000000000000000000000000000000000000000000000000
00000000000000000000000000000000000000000000000000000000000000000000000000000000000000000000000000000000000000000000000000000000000000000000000000000000000000000000000000000000000000000000000000000000
