P1
200 70
00000000000000000000000000000000000000000000000000000000000000000000000000000000000000000000000000000000000000000000000000000000000000000000000000000000000000000000000000000000000000000000000000000000
00000000000000000000000000000000000000000000000000000000000000000000000000000000000000000000000000000000000000000000000000000000000000000000000000000000000000000000000000000000000000000000000000000000
00000000000000000000000000000000000000000000000000000000000000000000000000000000000000000000000000000000000000000000000000000000000000000000000000000000000000000000000000000000000000000000000000000000
00000000000000000000000000000000000000000000000000000000000000000000000000000000000000000000000000000000000000000000000000000000000000000000000000000000000000000000000000000000000000000000000000000000
00000000000000000000000000000000000000000000000000000000000000000000000000000000000000000000000000000000000000000000000000000000000000000000000000000000000000000000000000000000000000000000000000000000
00000000000000000000000000000000000000000000000000000000000000000000000000000000000000000000000000000000000000000000000000000000000000000000000000000000000000000000000000000000000000000000000000000000
00000000000000000000000000000000000000000000000000000000000000000000000000000000000000000000000000000000000000000000000000000000000000000000000000000000000000000000000000000000000000000000000000000000
00000000000000000000000000000000000000000000000000000000000000000000000000000000000000000000000000000000000000000000000000000000000000000000000000000000000000000000000000000000000000000000000000000000
00000000000000000000000000000000000000000000000000000000000000000000000000000000000011100000000000000000000000000000000000000000000000000000000000000000000000000000000000000000000000000000000000000000
00000000000000000000000000000000000000000000000000000000000000000000000000000000011111100000000000000000000000000000000000000000000000000000000000000000000000000000000000000000011100000000000000000000
00000000000000000000000000000000000000000000000000000000000000000000000000000000011100000000000000000000000000000000000000000000000000000000000000000000000000000000000000000000011100000000000000000000
00000000000000000000000000000000000000000000000000000000000000000000000000000000000000000000000000000000000000000000000000000000000000000000000000000000000000000000000000000011100000000000000000000000
00000000000000000000000000000000000000000000000000000000000000000000000000000000000000000000000000000000000000000000000000000000000000000000000000000000000000000000000000000011100000000000000000000000
00000000000000000000000000000000000000000000000000000000000000000000000000000000000000000000011100000000000000000000000000000000000001111111110000000000000000000000000000000000000000000000000000000000
00000000000000000000000000000000000000000000000000000000000000000000000000000000000000000000010000000000000000000000000000000000000111111111110000000000000000000000000000001110000000000000000000000000
00000000000000000000000000000000000000000000000000000000000000000000000000000000000001110000000001111000000000000000000000000001111111111111110000000000000000000000000000001110000000000000000000000000
00000000000000000000000000000000000000000000000000000000000000000000000000000000000001110000000111110001000000000000000000000011111111111111110000000000000111111111111111011100000000000000000000000000
00000000000000000000000000000000000000000000000000000000000000000001110000000000000000000000011111111011100000000000000000001111111111111111110000000000000011111111111110011100000000000000000000000000
00000000000000000000000000000000000000000000000000000000000000000001110000000000000000000000111111111111110000000000000000111111110011011111110000000000000001111111111100000000000000000000000000000000
00000000000000000000000000000000000000000000000000000000000000000000000000000000000000000001111111111111110000000000000000111111000000011111110000000000000011111111111110000000000000000000000000000000
00000000000000000000000000000000000000000000000000000000000000111000000000000000000000000011111111111111110000000000000011000110000000001111110000000000000011100000001001110000000000000000000000000000
00000000000000000000000000000000000000000000000000000000000000111000000000000000000000000011111111110111111000000000001111000000000000000111100000000000000111000000000000110000000000000000000000000000
00000000000000000000000000000000000000000000000000000000000000000001110000000000000000000111111111110111111000000000011111100000111000000000000000000000000111000000000000000000000000000000000000000000
00000000000000000000000000000000000000000000000000000000000000000000110000000000000000011111011111111111111000000000011111100000111000000000000000000000001110000000000000000000000000000000000000000000
00000000000000000000000000000000000000000000000000000000011111110000000000000000000000111111001111111111111000000000111111000000000000000000000000000000001111000000000000000000000000000000000000000000
00000000000000000000000000000000000000000000000000000000111111111000000000000001110000111111110000111111111000000001111000000000000000000000000000000000011111000000000000000000000000000000000000000000
00000000000000000000000000000000000000000000000000000001111111111111000000000001110000111111100000111111111000000001110000000000000000000000000000000100111110001100000000000000000000000000000000000000
00000000000000000000000000000000000000000000000000000011111111111100000000000000000001111111000000011111111000000011100000000000000000000000000000011100110111011110000000000000000000000000000000000000
00000000000000000000000000000000000000011100000000000011111111111100000000000000000011111111000000010011111000000011110000000000000000000000000000000000100111111111000000000000111111000000000000000000
00000000000000000000000000000000000000011100000000000111111111111111000000000000000011111110000000010011110000000111111111100000000000000000000000000000011111111111111100000000111111000000000000000000
00000000000000000000000000000000000000000000000000000111111111111111000000000000000011111110000000011111111000000111111111100011111111100000000000000000000001111111111100000000000000000000000000000000
00000000000000000000000000000000000000000000000000011111111111111100000000000000000111111110000000011111111000000111111100011111110111111000000000000000000000111111100000000000000000000000000000000000
00000000000000000000000000000000000000000000000000111111111111111100000000000000000111111110000000011111111100000111111100001111110111001100000000000000000000000001100000000000000000000000000000000000
00000000000000000000000000000000000000000000000001111111111111111111000000000000000111111110000000011111110000000110111110001111111111011110000000000000000000000000100000000000000000000000000000000000
00000000000000000000000000000000000000000000000011111111111111011111000000000000000111111110000000111111100000000110111111110000000111111111000000000000000000001000111100000000000000000000000000000000
00000000000000000000000000000000000000000000000111111100111111011111000000000000000111111110000000111111110000000111111111100000000001111111000000000000000000001110001101100000000000000000000000000000
00000000000000000000000000000000000000000000001111111000111111111111000000000000000111111110000000111101111000000111111111000000000000111111100000000000000111001110000001100001100000000000000000000000
00000000000000000000000000000000000000000000001111111100111111111110000000000000000111111111000001111101111000000000001110000000000000011111100000000000000111000001000000000001110000000000000000000000
00000000000000000000000000000000000000000000011111111000111111111110000000000000000111111111000011111111110000001000001100000000000000011111100000000000000000000000000000000000000000000000000000000000
00000000000000000000000000000000011111111000111111100000111111111110000000000000000011111110000111111111110000001111111100000000000000011111110111000000000000011110000000000000000000000000000000000000
00000000000000000000000000000000011111111111000110000001111111111110000000000000000011111111001111111111110000001111111100000000000000011111110111000000000000011110000000000000000000000000000000000000
00000000000000000000000000000000011111111100000000000001111111111110000000000000000011111111111111111111110000000111110000000000000000011111111000000000000000011100000000000000000000000000000000000000
00000000000000000000000000000000011111111100111000111111110111111111000000000111000001111111111111111111110000000111110000000000000000011111111000000000000000111100000000000000000000000000000000000000
00000000000000000000000000000000000000111111111111111111110111111000000000000111000000011111111111111111110000000111111100000000000111001111111000000000000000111000000000000000000000000000000000000000
00000000000000000000000000000000000000111111111111111111111111111000000000000000000000001111111111111111110000000111111100000000000000001111111000000000110001111000000000000000000000000000000000000000
00000000000000000000000000000000000000111111100010000111111111111111000000000000000000000111111111111111100000000111111100000000000000001111111000000000110001110000000000000000000000000000000000000000
00000000000000000000000000000000000001111111111111000111100111111111111000000000000000000111111110111111100000000001111100000000000000011111110000000000010011100000000000000000000000000000000000000000
00000000000000000000000000000000000001111111111111111111000001111111111111100000000000000111111000011111100000000001111100000000000000011111110000000000111111000000000000000000000000000000000000000000
00000000000000000000000000000000000001111111111111101111000001111111111111111111100000000011110000011111100000000001111100000000000000111101110000000000110000000000000000000000000000000000000000000000
00000000000000000000000000000000000000111111111111101110000111111111111111111111111111100111100000111111000000000001111100000000000000111101110000000000100000000000000000000000000000000000000000000000
00000000000000000000000000000000000000001100001111111110001111111111111111111111111111111111100000111111100000000000111100000000000001111111110000000001111000000000000000000000000000000000000000000000
00000000000000000000000000000000000000000000000000010110001111111111011111000000111111111111110010011111111000000001111111100000000001111111111111110011110000000000000000000000000000000000000000000000
00000000000000000000000000000000000000000000000000000111001001111110000110000000000001111111111111011111111000111111111111111110000000111111111111111000000000000000000000000000000000000000000000000000
00000000000000000000000000000000000000000000000000000111100001111100000000000000000000111111111111111111111101111111111111111111111001111111111111110000000000000000000000000000000000000000000000000000
00000000000000000000000000000000000000000000000000000111110011111100000000000000000000111111111111111111111111111111111111111111111111111111111111110000000000000000000000000000000000000000000000000000
00000000000000000000000000000000000000000000000000000111111111111100000000000000000000011111111111111110000000000111111001111111111111111111111111111000000000000000000000000000000000000000000000000000
00000000000000000000000000000000000000000000000100000111111111111000000000000000000000011111111111111100000000000000000000000111111111111111111111111110000000000000000000000000000000000000000000000000
00000000000000000000000000000000000000000000001111111111111111111100000000000000000000011110001111111000000000000000000000000000011111110000111110011111111000000000000000000000000000000000000000000000
00000000000000000000000000000000000000000000001111111111111111111111111100000000000000001100001111110000000000000000000000000000000000000000000000001111111110000000000000000000000000000000000000000000
00000000000000000000000000000000000000000000001111111111111111111111111100000000000000000011111111100000000000000000000000000000000000000000000000000011111111110000000000000000000000000000000000000000
00000000000000000000000000000000000000000000000111111111110011111111111100000000000000000000111111000000000000000000000000000000000000000000000000000000011111100000000000000000000000000000000000000000
00000000000000000000000000000000000000000000000000000000000000100011000000000000000000000000000000000000000000000000000000000000000000000000000000000000000111110010000000000000000000000000000000000000
00000000000000000000000000000000000000000000000000000000000000000000000000000000000000000000000000000111000000000000000000000000000000000000000000000000000000111111100000000000000000000000000000000000
00000000000000000000000000000000000000000000000000000000000000000000000000000000000000000000000000000111000000000000000000000000000000000000000000000000000000011111110000000000000000000000000000000000
00000000000000000000000000000000000000000000000000000000000000000000000000000000000000000000000000000000000000000000000000000000000000000000000000000000000000000111111100000000000000000000000000000000
00000000000000000000000000000000000000000000000000000000000000000000000000000000000000000000000000000000000000000000000000000000000000000000000000000000000000000011111000000000000000000000000000000000
00000000000000000000000000000000000000000000000000000000000000000000000000000000000000000000000000000000000000000000000000000000000000000000000000000000000000000000111000000000000000000000000000000000
00000000000000000000000000000000000000000000000000000000000000000000000000000000000000000000000000000000000000000000000000000000000000000000000000000000000000000000010000000000000000000000000000000000
00000000000000000000000000000000000000000000000000000000000000000000000000000000000000000000000000000000000000000000000000000000000000000000000000000000000000000000000000000000000000000000000000000000
00000000000000000000000000000000000000000000000000000000000000000000000000000000000000000000000000000000000000000000000000000000000000000000000000000000000000000000000000000000000000000000000000000000
