P1
200 70
00000000000000000000000000000000000000000000000000000000000000000000000000000000000000000000000000000000000000000000000000000000000000000000000000000000000000000000000000000000000000000000000000000000
00000000000000000000000000000000000000000000000000000000000000000000000000000000000000000000000000000000000000000000000000000000000000000000000000000000000000000000000000000000000000000000000000000000
00000000000000000000000000000000000000000000000000000000000000000000000000000000000000000000000000000000000000000000000000000000000000000000000000000000000000000000000000000000000000000000000000000000
00000000000000000000000000000000000000000000000000000000000000000000000000000000000000000000000000000000000000000000000000000000000000000000000000000000000000000000000000000000000000000000000000000000
00000000000000000000000000000000000000000000000000000000000000000000000000000000000000000000000000000000000000000000000000000000000000000000000000000000000000000000000000000000000000000000000000000000
00000000000000000000000000000000000000000000000000000000000000000000000000000000000000000000000000000000000000000000000000000000000000000000000000000000000000000000000000000000000000000000000000000000
00000000000000000000000000000000000000000000000000000000000000000000000000000000000000000000000000000000000000000000000000000000000000000000000000000000000000000000000000000000000000000000000000000000
00000000000000000000000000000000000000000000000011100000000000000000000000000000000000000000000000000000000000000000000000000000000000000000000000000000000000000000000000000000000000000000000000000000
00000000000000000000000000011100000000000000000000000000000000000000000000000000000000000000000000000000000000000000000000000000000000000000000000000000000000000000000000000000000000000000000000000000
00000000000000000000000000011100000000000000000000000000001110000000000000000000000000000000000000000000000000000000000000000000000000000000000000000000000000000000000000000000000000000000000000000000
00000000000000000000000000000000000000000000000000000000001110000000000000000000000000000000000000000000000000000000000000000011100000000000000000000000000000000000000000000000000000000000000000000000
00000000000000000000000000000000000000000000000000000000001100000000000000000000000000001111111110000000000000000000000000000000100000001100000000000000000000000000000000000000000000000000000000000000
00000000000000000000000000000000000000000111000000000000011100000000000000000000000000111111111110000000000000000000000000000000000011000100000000000000000000000000000000000000000000000000000000000000
00000000000000000000000000000000000000000111000000000000011100000000000000000000000011111111111111001000000000000111000000000000111111101100000000000000000000000000000000000000000000000000000000000000
00000000000000000000000000000000000000000000000000000000000000001110000000000000000011111111111111111100000000000111000000000111111111111100000000000000000000000000000000000000000000000000000000000000
00000000000000000000000000000000000000000000000000000001110000001110000000000000000111111111111111111100000001110000000000011111111111111100000000000000000000000000000000000000000000000000000000000000
00000000000000000000000000000000000000000000000000000011111110000000000000000000001111011111111111011110000001110000000001111111111111111100000000011100000000000000000000000000000000000000000000000000
00000000000000000000000000000000000000000000000000000001111110000000000000000000011111011111111111011111000000000000111111111111111111111110000000011100000000000000000000000000000000000000000000000000
00000000000000000000000011100000000000000000000000000011111110000000000000000000111111111111111111111111000000000111111111111111111111111110000000000000000000000000000000000000000000000000000000000000
00000000000000000000000011100000000000000000000000001111111100000000000000000001111101111000001111011111000000001111111111111111111111111110000000000000000000000000000000000000000000000000000000000000
00000000000000000000000000000000000000000000000000011110111110000000000000000001111101110000000010011111100000001111111111111111111111111110000000000000000000000000000000000000000000000000000000000000
00000000000000000000000000000000000000000000000000011110111111000000000000000001111111110000000011111111100000001111111111111111111001111101110000111111100000000000000011100000000000000000000000000000
00000000000000000000000000000000000000000000000000111111111111000000000000000001111111110000000011111111110000001111111111111111110000111101110011111111110000000000000011100000000000000000000000000000
00000000000000000000000000000000000000000000000001111111111111000000000000000011111111100000000011111111110000001111111111111100000001111000001111111011111000000000000000000000000000000000000000000000
00000000000000000000000000000000000000000000000011111111111111000000000000111011111110000000000001111111110000001111111111111000000011111000011111110001110000000000000000000000000000000000000000000000
00000000000000000000111000000000000000000000000011111111111111000000000000110001111110000000000001111111110000001111111111000000000011111000011111000001110000000000000000000000000000000000000000000000
00000000000000000000111000000000000000000000000111111111111111000000000000000011111111000000000011111011110000001111111100000000000111111000111110000000111110000000000000000000000000000000000000000000
00000000000000000000000000000000000000000000001111000011111011000000000000000111111111100000000011111011100000001111000000000000000111100000111100000000111111000000000000000000000000000000000000000000
00000000000000000000000000000000000000000000011100000011111001000000000000000001111111100000000000111111100000001111000000000000000111000000111100000000011111100000000000000000000000000000000000000000
00000000000000000000000000000000000000000000011100000011111111000000000000000001111111100000000000111111110000001111000000000000001000110000111100000000010011100000000000000000000000000000000000000000
00000000000000000000000000000000000000000000111111000011111111000000000000000111111111110000000011111111110000011111000000000000001000110000111110000000000011110000000000000000000000000000000000000000
00000000000000000000000000000000000000000001111110000111111111000000000000000110111111110000111111111111110001111111000000000000001001110000111100000000001111110000000000000000000000000000000000000000
00000000000000000000000000011100000000000011111100000111111111000000000000000110111111100011111111111111110001111111000000000000000011100001111000000000001111110000000000000000000000000000000000000000
00000000000000000000000000011111000000000111111100000011111111000000000000000111111111110111111111111111110000111111000000000000000001100001111000000000000111110000000000000000000000000000000000000000
00000000000000000000000000000111000000000111111000000011111110000000000000000111111111111111111101111111110000000000000000000000010011000001111110000000000111110000000000000000000000000000000000000000
00000000000000000000000000000000000000001111110000000011111110000000000000000011111111111111111101111111110000000000000000000000111111000000111110000000000111111000000000000000000000000000000000000000
00000000000000000000000000000000000000011111100000000011111111000000000000000001111111111011111111111111110011100000000000000000111111000000111110000001110011111000000000000000000000000000000000000000
00000000000000000000000000000000000000111111000000000111111111000000000000000000111111111011111111111111110010000000000000000000111111000000111110000001110011111000010000000000000000000000000000000000
00000000000000000000000000000000000000111111000000000111111111000000000000000000011111111111111111111000001000000000000000000000111111000000111110000000000001111110000000000000000000000000000000000000
00000000000000000000000000000000000001111111000000000111100111000000000000000000000111111111000111111000001000000000000000000001111110000000011110000000000011111111001000000000000000000000000000000000
00000000000000000000000000000000000001111111111000000011000011000000000000000000000000000000000111111111100000000000000000000001111110000000001111000000000111111111111000000000000000000000000000000000
00000000000000000000000000000000000001111111111110000010000111100000000000000000000000000000000111111111100000000000000000000000111110000000011111111000111111111111000000000000000000000000000000000000
00000000000000000000000000000000000001111011111111111111001111100000000000000000000000000000001111111111000000000000000000000000111100000000011111111111111111111110000000000000000000000000000000000000
00000000000000000000000000000000000011111011111111111111111111111110000000000000000000000000011111101111000000000000000000000011111100000000001111111111111111111110000000000000000000000000000000000000
00000000000000000000000000000000000011111111101111111111111110111111111111000000000000000001111111101110000000000000000000000111111100000000001111111111000001111110000000000000000000000000000000000000
00000000000000000000000000000000000011111111101111011111111110111111111111111111100000000111111111111100000000000000000011100111111100000001111111111100000000111110000000000000000000000000000000000000
00000000000000000000000000000000000001111111111111011111111111111111111111111111111111111111111111111100111000000000000011101111111110001111111111111000000000111110000000000000000000000000000000000000
00000000000000000000000000000000000001111111111111111111111111111110000001111111101111111111111111111100001000000000000001111110111111111111111111111100000000110110000000000000000000000000000000000000
00000000000000000000000000000000000001111111111110011110111111111100000001111111101111111111111111111100000000000000000011111110111110011111111111111000000000100010011100000000000000000000000000000000
00000000000000000000001110000000000111111100000000001110111111111100000001111111111111111111111111111111111111111111111111111111111100000000000111111000000000111110000100000000000000000000000000000000
00000000000000000000001000000000001111111000000000000111111111111110000011111111111111111111111111111111111011111111111111111111111000000000000111111000000000111100000000000000000000000000000000000000
00000000000000000000000000000000111111100000000000000011111111111110000011111111111111111111111110001111110011111111111111111111100000000000000111111100000001111100000000000000000000000000000000000000
00000000000000000000000000000000011111000000000000000011111111111100000011111111111111011111110000000000001111110001100001111111100000000000000011111100000011111100000000000111000000000000000000000000
00000000000000000000000000000000011100000000000000000011111111111100000011100111111111001111100000000000000000000000000001111111100000000000000001111110000011111100000000000111000000000000000000000000
00000000000000000000000000000000000000000000000000000011111111110000000011000011111111110000000000000000000000000000000001111111000000000000000000111111000111111000000000000000000000000000000000000000
00000000000000000000000000000000000000000000000000000011111111100000000000000000001000000000000000000000000000000000000001111111000000000000000000111111111111110000000000000000000000000000000000000000
00000000000000000000000000000000000000000000000000000011111111100000000000000000000000000000000000000000000000000000000011111110000000000000000000011111111111100000000000000000000000000000000000000000
00000000000000000000000000000010000000000000000000000011111111100000000000000000000000000000000000000000000000000000000011111100000000000000000000000011111111000000000000000000000000000000000000000000
00000000000000000000000000001110000000000000000000000011111111110000000000000000000000000000000000000000000000000000000011111100000000000000000000000000011100000000000000000000000000000000000000000000
00000000000000000000000000000000111000000000000000000011111111110000000000000000000000000000000000000000000000000000000011111000000000000000000000000000011100000000000000000000000000000000000000000000
00000000000000000000000000000000111000000000000000000011001111110011100000000000000000000000000000000000000000000000000111111000000000000000000000000000011100000000000000000000000000000000000000000000
00000000000000000000000000000000000000000000000000000000000111110011100000000000000000000000000000000000000000000000001111110000000000000000000000000000000000000000000000000000000000000000000000000000
00000000000000000000000000000000000000000000000000000000000011100000000000000000000000000000000000000000000000000000001111100000000000000000000000000000000000000000000000000000000000000000000000000000
00000000000000000000000000000000000000000000000000000000000000000000000000000000000000000000000000000000000000000000000000000000000000000000000000000000000000000000000000000000000000000000000000000000
00000000000000000000000000000000000000000000000000000000000000000000000000000000000000000000000000000000000000000000000000000000000000000000000000000000000000000000000000000000000000000000000000000000
00000000000000000000000000000000000000000000000000000000000000000000000000000000000000000000000000000000000000000000000000000000000000000000000000000000000000000000000000000000000000000000000000000000
00000000000000000000000000000000000000000000000000000000000000000000000000000000000000000000000000000000000000000000000000000000000000000000000000000000000000000000000000000000000000000000000000000000
00000000000000000000000000000000000000000000000000000000000000000000000000000000000000000000000000000000000000000000000000000000000000000000000000000000000000000000000000000000000000000000000000000000
00000000000000000000000000000000000000000000000000000000000000000000000000000000000000000000000000000000000000000000000000000000000000000000000000000000000000000000000000000000000000000000000000000000
00000000000000000000000000000000000000000000000000000000000000000000000000000000000000000000000000000000000000000000000000000000000000000000000000000000000000000000000000000000000000000000000000000000
