P1
200 70
00000000000000000000000000000000000000000000000000000000000000000000000000000000000000000000000000000000000000000000000000000000000000000000000000000000000000000000000000000000000000000000000000000000
00000000000000000000000000000000000000000000000000000000000000000000000000000000000000000000000000000000000000000000000000000000000000000000000000000000000000000000000000000000000000000000000000000000
00000000000000000000000000000000000000000000000000000000000000000000000000000000000000000000000000000000000000000000000000000000000000000000000000000000000000000000000000000000000000000000000000000000
00000000000000000000000000000000000100000000000000000000000000000000000000000000000000000000000000000000000000000000000000000000000000000000000000000000000000000000000000000000000000000000000000000000
00000000000000000000000000000000001110000000000000000000000000000000000000000000000000000000000000000000000000000000000000000000000000000000000000000000000000000000000000000000000000000000000000000000
00000000000000000000000000000000111110000000000000000000000000000000000000000000000000000000000000000000000000000000000000000000000000000000000000000000000000000000000000000000000000000000000000000000
00000000000000000000000000000000011111000000000000000000000000000000000000000000000000000000000000000000000000000000000000000000000000000000000000000000000000000000000000000000000000000000000000000000
00000000000000000000000000000000011111000000000000000000000000000000000000000000000000000000000000000000000000000000000000000000000000000000000000000000000000000000000000000000000000000000000000000000
00000000000000000000000000000000001110000000000000000000000000000000000000000000000000000000000000000000000000000000000000000000000000000000000000000000000000000000000000000000000000000000000000000000
00000000000000000000000000000000001110010000000000000000000000000000000000000000000000000000000000000000000000000000000000000000000000000000000000000000000000000000111100000010000000000000000000000000
00000000000000000000000000000000000111110000000000000000000000000000000000000000000000000000000000000000000000000000000000000000000000000000000000000000000000000000110000000010000000000000000000000000
00000000000000000000000000000000000011111000000000000000000000000000000000000000000000000000000000000000000000000000000000000000000000000000000000000000000000000000000000000000000000000000000000000000
00000000000000000000000000000000000010011000000000000000000000000000000000000000111110000000000000000000000000000000111000000000000111000000000000000000000000000000000000000000000000000000000000000000
00000000000000000000000000000000000000011100000000000000000000000000000000000011111111110000000000000000000000000000100000000000000111000000000000000000000000000000000000000000000000000000000000000000
00000000000000000000000000000000000001111110000000000000000000000000000000000111111001111000000000000000000000000000000000000000000000000000000000000000111000000000000000000000000000000000000000000000
00000000000000000000000000000000000000111111000001110000000000000000000000000111111001110000000000000000000000000000000000000000000000000000000000000000111000000000000000000000000000000000000000000000
00000000000000000000000000000000000000011111000001111110000000000000000000001111111111110000000001100000000000000000001000000000000110000000000000000000110000000000000000000000000000000000000000000000
00000000000000000000000000000000000000001111100000001110000000000000000000011111111111111000001111100000000000000000001000000100001111111100000000001111100000000000000000000001110000000000000000000000
00000000000000000000000000000000000000001111000000000000000000110000000000011111110000111111001110000000000000000000000001111111111111111111000000011111111000000000000000000001110000000000000000000000
00000000000000000000000000000000000000000111001000000000000001111000000000011111100000011111100000000000000000000000011111111111111000111111000000111111111111000000000000000000000000000000000000000000
00000000000000000000000000000000000000000011111000000000011111110000000000011111000000001111100000000000000000000001111111111111110000011111000001111111111111100000000000000000000000000000000000000000
00000000000000000000000000000000000000000011111100000000011111110000000000111111000000001111110000000000000000000011111111111111111001100111100001111111111111110000000000000000000000000000000000000000
00000000000000000000000000000000000000000011111110000000111111110000000000111111000000000111110000000000000000000111111111111111111111110111100001111100001111111000000000000000000000000000000000000000
00000000000000000000000000000000000000000011111110000000111111110000000001111111000000000111111000000000000000001111111111111111111111111111110011111000000111111000000000000000000000000000000000000000
00000000000000000000000000000000000000000000111111000001110011100000000011111111000000000111111000000000000000011111111111111111111111111111110011110000000011111100000000000000000000000000000000000000
00000000000000000000000000000000000000000000011111100001110010000000000000111111000000000111111000000000000000111111111111111100011111111111110001110000000001111100000000000000000000000000000000000000
00000000000000000000000000000000000000000000001111110011100010000000000000011111000000000011111100000000000001111111101111000000000011111111100000000000000000111100000000000000000000000000000000000000
00000000000000000000000000000000000000000000000111111111100111100000000000001111000000000011111100000000000001111111101110000000000011111111100000000000000000111100000000000000000000000000000000000000
00000000000000000000000000000000000000000000000001111111000111100000000000011111100000000011111100000000000001111111111100000000001111111111100000000000000000000000000000000000000000000000000000000000
00000000000000000000000000000000000000000000000001111111101111000000000000111111100000000011111100000000000001111111111110000000011111111111100000000000000000000000000000000000000000000000000000000000
00000000000000000000000000000000000000000000000001111111111111000000000000111111000000000011111100000000000001111111111111000000011111111111100000000000000000111110000000000000000000000000000000000000
00000000000000000000000000000000000000000000000011111111111111000000000000011100000000000011111100000000000001111011111111000000011111111111000000000000000000111111000000000000000000000000000000000000
00000000000000000000000111000000000000000000000111110111111111000111000000011100100000000011111100000000000001111011111110000000111101111111000000000000000001111111000000000000000000000000000000000000
00000000000000000000000111000000000000000000000111100001111111000111000000011111110000000111111100000000000001111111111110000000111101111110000000000000000111111110000000000000000000000000000000000000
00000000000000000000000000000000000000000000011000000000111111100000000000001110111000000111111100001110000000111111111111110000011111111110000000000000111111111110000000000111000000000000000000000000
00000000000000000000000000000000000000000000111000000000011111100000000000000110111111011111111100000000000000111111111111111110011111111100000000000000000111111100000000000111000000000000000000000000
00000000000000000000000000000000000000000001111100000000011111110000000000000111111111111111111110000000000000011111111111111111111111111000000000000000000111111100000000000000000000000000000000000000
00000000000000000000000000000000000000000011111000000000011111111111000000000011111111111111111110000000000000001111111111111111111111100000000000000000111111110000000000000000000000000000000000000000
00000000000000000000000000000000000000001111100000000000011100111111111000000011111111111111111110000000000000111111111111111111111110000000000000000000001111111000000000000000000000000000000000000000
00000000000000000000000000000000000000011111000000000000001100001111111111100011111111111111111110000000000011111111111111111111111000000000000000000000000111111110000000000000000000000000000000000000
00000000000000000000000000000000000000111110000000000000000000000111111111100001100111111111111110000000000111111111101111111111111000100000000000000000000000111111000000000000000000000000000000000000
00000000000000000000000000000000000001111110000000000000000000000000001111110011100001111000111110000000001111111111101111111111111111111000000000000000000000011111000000000000000000000000000000000000
00000000000000000000000000000000000001111111011100000000100000000000000001111111000011000000111100000000011111111111111110011111111111111000000001000000000000011111000000000000000000000000000000000000
00000000000000000000000000000000000001111111111111110011111000000000000000000110000111110001111110000000111111111111100000000011111111111100000111100000000000001111100000000000000000000000000000000000
00000000000000000000000000000000000000011111111111111111111000000000000000000000000111111000111111000000111111111111000000000011111111111100000111111000000000001111100000000000000000000000000000000000
00000000000000000000000000000000000000000001111111110111111100000000000000010000000111111101110111111000111111111111000000000001111111111100000011111000000000000111110000000000000000000000000000000000
00000000000000000000000000000000000000000000000011100011111110000000000000111100001111111111110111110001111111111110000000000001111110111100000001111100000000000111110000000000000000000000000000000000
00000000000000000000000000000000000000000000000000000111111110000000000000111110001110000011111111110011111111011110000000000001111110111100000001111100000000000111111000000000000000000000000000000000
00000000000000000000000000000000000000000000000000000111111111000000000000111111100000000001111111001111111111011111000000000001111111111100000001111100000000000111111000000000000000000000000000000000
00000000000000000000000000000000000000000000000000000111111111000000000000111111000000000001111111000011111111111111110000000001111111111100000000111110000000000111111000000000000000000000000000000000
00000000000000000000000000000000000000000000000000000111100111000000000000111111100111111111111110000001111111111111111111000011111011111100000000111111100000000111111100000000000000000000000000000000
00000000000000000000011100000000000000000000000000000111100000000000000000011111111111111111111110000001111111111111111111111111110001111100000000011111111000000111111100000000000000000000000000000000
00000000000000000000011100000000000000000000000000000111100000000000000000000111111111110111111110000000111111111111111111111111100011111100000000001111111111111111111000000000000000000000000000000000
00000000000000000000000000000000000000000000000000001111100000000000000000000001111111110111111100000000111111111111001111111111000011100000000000000111111111000001110000000000000000000000000000000000
00000000000000000000000000000000000000000000011000001111100000000000000000000000001111111111111000000000011111111111001111111111001100000000000000000011111111000001111000000000000000000000000000000000
00000000000000000000000000000000000000000000111111111111000000000000000000000000000011111111110011100000011111111111111111011111111110011000000000000000111110001111111000000000000000000000000000000000
00000000000000000000000000000000000000000000111111111111000000000000000000000000000000011111000011100001111100111111111111011111111111111111000000000000001110000111110000000000000000000000000000000000
00000000000000000000000000000000000000011100100111111111000000000000000000000000000000000000000000000001110000011111111111111111111111111111110000000000000000000111000000000000000000000000000000000000
00000000000000000000000000000000000000011100000011111111100000000000000000000000000000000000000000000000000000111111111111111111111111111111111110000000000000000000000000000000000000000000000000000000
00000000000000000000000000000000000000000000000011011111111000000000000000000000000000000011100000000000000000011111111111111111111111110011111111110000000000000000000000000011100000000000000000000000
00000000000000000000000000000000000000000000000111000001111100000000000000000000000000000011100000000000000000001111111111111111111111000000111111111111100000000000000000000011100000000000000000000000
00000000000000000000000000000000000000000000000111100000011000000000000000000000000000000000000000000000000000000000011111111111111110000000000111111100000000000000000000000000000000000000000000000000
00000000000000000000000000000000000000000000000011110000000000000000000000000000000000000000000000000000000000000000000011110001110000000000000000100000000000000000000000000000000000000000000000000000
00000000000000000000000000000000000000000000000001110000000000000000000000000000000000000000000000000000000000000000000000000000000000000000000000000011100010000000000000000000000000000000000000000000
00000000000000000000000000000000000000000000000000000000000000000000000000000000000000000000000000000000000000000000000000000000000000000000000000000001111111110000000000000000000000000000000000000000
00000000000000000000000000000000000000000000000000000000000000000000000000000000000000000000000000000000000000000000000000000000000000000000000000000000011111111100000000000000000000000000000000000000
00000000000000000000000000000000000000000000000000000000000000000000000000000000000000000000000000000000000000000000000000000000000000000000000000000000000111111111000000000000000000000000000000000000
00000000000000000000000000000000000000000000000000000000000000000000000000000000000000000000000000000000000000000000000000000000000000000000000000000000000000111111110000000000000000000000000000000000
00000000000000000000000000000000000000000000000000000000000000000000000000000000000000000000000000000000000000000000000000000000000000000000000000000000000000001111111100000000000000000000000000000000
00000000000000000000000000000000000000000000000000000000000000000000000000000000000000000000000000000000000000000000000000000000000000000000000000000000000000000011111100000000000000000000000000000000
