P1
200 70
00000000000000000000000000000000000000000000000000000000000000000000000000000000000000000000000000000000000000000000000000000000000000000000000000000000000000000000000000000000000000000000000000000000
00000000000000000000000000000000000000000000000000000000000000000000000000000000000000000000000000000000000000000000000000000000000000000000000000000000000000000000000000000000000000000000000000000000
00000000000000000000000000000000000000000000000000000000000000000000000000000000000000000000000000000000000000000000000000000000000000000000000000000000000000000000000000000000000000000000000000000000
00000000000000000000000000000000000000000000000000000000000000000000000000000000000000000000000000000000000000000000000000000000000000000000000000000000000000000000000000000000000000000000000000000000
00000000000000000000000000000000000000000000000000000000000000000000000000000000000000000000000000000000000000000000000000000000000000000000000000000000000000000000000000000000000000000000000000000000
00000000000000000000000000000000000000000000000000000000000000000000000000000000000000000000000000000000000000000000000000000000000000000000000000000000000000000000000000000000000000000000000000000000
00000000000000000000000000000000000000000000000000000000000000000000000000000000000000000000000000000000000000000000000000000000000000000000000000000000000000000000000000000000000000000000000000000000
00000000000000000000111000000000000000000000000000000000000000000000000000000000000000000000000000000000000000000000000000000000000000000000000000000000000000000000000000000000000000000000000000000000
00000000000000000000111000000000000000000000000000000000000000000000000000000000000000000000000000000000000000000000000000000000000000000000000000000000000000000000000000000000000000000000000000000000
00000000000000000000000000000000000000000000000000000000000000000000000000000000000000000000000000000000000000000000000000000000000000000000000000000000000000000000000000000000000000000000000000000000
00000000000000000000000000000000000000000000000000000000000000000000000000000000000000000000000000000000000000000000000000000000000000000011100000000000000000000000000000000000000000000000000000000000
00000000000000000000000000000000000000000000000000000000001110000000000000000000000000000000000000000000000000000000001110000000000000000011100000000000000000000000000000000000000000000000000000000000
00000000000000000000000000000000000000000000000001111111111111111000000000000000000000000000000000000000000000011110001111100000000000000000000001110000000000110000000000000000000000000000000000000000
00000000000000000000000000000000000000000000000111111111111111111100000000000000100000000000000000000000000011111111011111111011100011100000000001110000000000110000000000000000000000000000000000000000
00000000000000000000000000000000000000000000001111111111111111111000000000011111111100000000000000000000000111011111111111111111100000000000000000000000000000000000000000000000000000000000000000000000
00000000000000000000000000000000000000000000001111111111111111111000000011111111111110000000000000000000011111011111111111111100000000000000000000000000000000000000000000000000000000000000000000000000
00000000000000000000000000000000000000000000001111111111110011110000000011111111111111111111110000000000111111111111111111111000000000000000000000011111111111000000000000000000000000000000000000000000
00000000000000000000000000000000000000000000001111111111000000000000001111111111111110111111111111111000111111110000001111111100000000000000000011111111111111110000000000000000000000000000000000000000
00000000000000000000000000000000000000000000001111110000000000000000001111111111111110111111111111111000111111100000000011111110000000000000000111111111111111111100000000000111000000000000000000000000
00000000000000000000000000000000000000000000001111100000000000000000011111111111111111111111111100010000111111110000000001111111000000000000001111101111111111111110000000000001000000000000000000000000
00000000000000000000000000000000000000000000001111100000000000000001111111111111111111111111100000000001111111111110000000111111100000000000011111000111001111111111000000000000000000000000000000000000
00000000000000000000000000000000000000000000011111100000000000000111111111101111110011111111000000000011111111111111110000111111100000000000111110000000000011111111111000000000000000000000000000000000
00000000000000000000000000000000000000000000111111000000000000011111111111100110000001111110000000000001111111111111111110011111110000000000111110000000000001111111111000000000000000000000000000000000
00000000000000000000000000000000000000000000111111000000000001001111111111111000000011111110011000000001111110000111111111011111110000000000111001100000000000111111110000000000000000000000000000000000
00000000000000000000000000000000000000000000111111000000000111100111111111111000000001111111111000000011111110000000011111111111111000000001111001000000000000000011110000000000000000000000000000000000
00000000000000000000000000000000000000000000111111000000001111111011111111111100000001111111111000000011111110000000000011111111111100000001111111000000000000000000010000000000000000000000000000000000
00000000000000000000000000000000000000000000111000111111111111100001111111111110000000111111110000000001111110000000000000011111111111100001111111000000000000001100110000000000000000000000000000000000
00000000000000000000000000000000000000000000111001111111111111000011111111111110000000111111110000000001111110000000000000001111111111000011111111000000000000001111110000000000000000000000000000000000
00000000000000000000000000000000000000000000111111111111111110000011111111111000000000111111111100000001111111000000000000000111110011100111111110000000000000001111111000000000000000000000000000000000
00000000000000000000000000000000000000000001111111111111111111000011111111111000000000111111111110000001111111000000000000000011110001111111111110000000000000001111111000000000010000000000000000000000
00000000000000000000000000000000000000000001111111111111111111000011110011110000000000111111111111000001111110000000000000000011111000011110111111000000000000001111110000000000011100000000000000000000
00000000000000000000000000000000000000000001111111111111111111100011000011100000000000011111111111000000111001000000000000000111111000000000111111110000001111001111111000000000000000000000000000000000
00000000000000000000000000000000000000000011111111111111111111100011001111110000000000000111111001000000111001100000000000000111111000000011111111111100001111001111111000000000000000000000000000000000
00000000000000000000000000000000000000000011111111111111111111100011111111111000000111000111111001000000111100000000000000000011111100000011111111111111110000001111111000000000000000000000000000000000
00000000000000000000000000000000000000000011111111111101111111100011111111111000000111001111111111000000011110000000000000000011111100000011111111111111111000001111111000000000000000000000000000000000
00000000000000000000000000000000000000000011111111111100111111100001111111111000000000001111111111100000001111100000000000000011111111110011111100001111111110001111110000000000000000000000000000000000
00000000000000000000000011100000000000000011111111111110011111100001111111111000000000000111111111100000001111110000000000000011111111110011111100000001111111111111110000000000000000000000000000000000
00000000000000000000000011100000000000000001111111001110011111100001111011111000000000000111111111100000001111110000000000000011111110000011111100000000011111111111110000000000000000000000000000000000
00000000000000000000000000000000111000000000111110000000011111100001111011111000000000001111111111100000001111111000000000000001111111000011111100000000000111111111110000000000000000000000000000000000
00000000000000000000000000000000000000000100111100000000011111100001111111110000000000001111111111100000000111111000000000000001111111000011111100000000000000111111111000000000000000000000000000000000
00000000000000000000000000000000000000000111110000000000111111100001111011111000000000001111111111100000000111111100000000000001111110010001110000000000000000011111111100000000000000000000000000000000
00000000000000000000000000000000000000001111100000000000111111000001111011111100000000011111111111100000000011111100000000000000011100010001110000000000000000011111111100000000000000000000000000000000
00000000000000000000000000000000000000011111000000000000111111000000111111111100000000011111111111100000000001111110000000000000011100000011111100000000000000011111111000000000000000000000000000000000
00000000000000000000000000000000000000111110000000000000111111000000111111111110000000011111111111100000000000111110000000000001111000000011111100000000000000011111111000000000000000000000000000000000
00000000000000000000000000000000000001111110000000000001111110000000111101111100000000011111111111100000000000111111000000000011111000000011111110000000000000011111100000000000000000000000000000000000
00000000000000000000000000000000000001111100000000000001111110000000011100111000000000111111111111100000000000011111100000000011111100000011111110000000000000011111100000000000000000000000000000000000
00000000000000000000000000000000000010001000000000000011111100000000011111000111110000111111111111000000000000011111110000000011111100000011111110000000000000011111100000000000000000000000000000000000
00000000000000000000000000000000000011000000000000000011111000000000001111000111111001111111111110000000000000001111111100001111111100000001111110000000000000111111111100000000000000000000000000000000
00000000000000000000000000000000000111110000000000000111111000000000000111000111111111111111111100000000000000000111111111111111111100000001111110000000000000111111111100000000000000000000000000000000
00000000000000000000000000000000000111100000000000001111111000000000000011101111111111111111111110000000000000000011111111111111111000000001111110000000000001111111000000000000000000000000000000000000
00000000000000000000000000000000001111100000000000011110011000000000000000111111111111111111111110001110000000000001111111011111110000000001111110000000000001111110000000001110000000000000000000000000
00000000000000000000000000000000001111000000000000111110000000000000000000011111111111111111111100001110000001100000111111011111100000000001111111000000000001111100011000001000000000000000000000000000
00000000000000000000000000000000011111000000000011001110000001110000000000001111111111111111110000000000000001100000000111111111100000000001111111000000000011111100011100000000000000000000000000000000
00000000000000000000000000000000011110000000000001101110000001110000000000000111111111111111110000000000000000000000000001110110000000000000111111000000000111111000000001110000000000000000000000000000
00000000000000000000000000000000111100000001110011111100000000000000000000000000001111111111110000000000000000000000111000000000000000000000111110000000001111110000000001110000000000000000000000000000
00000000000000000000000000000000111100001111111111111000000000000000000000000000000000000001110000000000000000000000111000000000000000000000111111000000011111100000000000000000000000000000000000000000
00000000000000000000000000000000011110011111111111110000000000000000000011100000000000000000000000000000000000000000000000000000000000000000111111111100011111100000000000000000000000000000000000000000
00000000000000000000000000000000001111111111111111000000000000000000000000000000000000000000000000000000111000000000000000000000001110000000011111111111100011000000000000000000000000000000000000000000
00000000000000000000000000000000001111111111111110000111000000000000000000000000000000000000000000000000001000000000000000000000001110000000011111110011000000000000000000000000000000000000000000000000
00000000000000000000000000000000001111011111111100000111000000000000000000000000000000000000000000000000000000000000000000000000000000000000001111100001000000000000000000000000001110000000000000000000
00000000000000000000000001000000011111011111110000000000000000000000000000000000000000000000000000000000000000000000000000000000000000000000001111110001100000000000000000000000001000000000000000000000
00000000000000000000000001000000011111111110000000000000000000000000000000000000000000000000000000000000000000000000000000000000000000000000000011110000000000000000000000000000000000000000000000000000
00000000000000000000000000000000011111110000000000000000000000000000000000000000000000000000000000000000000000000000000000000000011100000000000011100000000000000000000000000000000000000000000000000000
00000000000000000000000000000000001111000000000000000000000000000000000000000000000000000000000000000000000000000000000000000000011100000000000000000000000000000000000000000000000000000000000000000000
00000000000000000000000000000000000000000000000000000000000000000000000000000000000000000000000000000000000000000000000000000000000000000000000000000000000000000000000000000000000000000000000000000000
00000000000000000000000000000000000000000000000000000000000000000000000000000000000000000000000000000000000000000000000000000000000000000000000000000000000000000000000000000000000000000000000000000000
00000000000000000000000000000000000000000000000000000000000000000000000000000000000000000000000000000000000000000000000000000000000000000000000000000000000000000000000000000000000000000000000000000000
00000000000000000000000000000000000000000000000000000000000000000000000000000000000000000000000000000000000000000000000000000000000000000000000000000000000000000000000000000000000000000000000000000000
00000000000000000000000000000000000000000000000000000000000000000000000000000000000000000000000000000000000000000000000000000000000000000000000000000000000000000000000000000000000000000000000000000000
00000000000000000000000000000000000000000000000000000000000000000000000000000000000000000000000000000000000000000000000000000000000000000000000000000000000000000000000000000000000000000000000000000000
