P1
200 70
00000000000000000000000000000000000000000000000000000000000000000000000000000000000000000000000000000000000000000000000000000000000000000000000000000000000000000000000000000000000000000000000000000000
00000000000000000000000000000000000000000000000000000000000000000000000000000000000000000000000000000000000000000000000000000000000000000000000000000000000000000000000000000000000000000000000000000000
00000000000000000000000000000000000000000000000000000000000000000000000000000000000000000000000000000000000000000000000000000000000000000000000000000000000000000000000000000000000000000000000000000000
00000000000000000000000000000000000000000000000000000000000000000000000000000000000000000000000000000000000000000000000000000000000000000000000000000000000000000000000000000000000000000000000000000000
00000000000000000000000000000000000000000000000000000000000000000000000000000000000000000000000000000000000000000000000000000000000000000000000000000000000000000000000000000000000000000000000000000000
00000000000000000000000000000000000000000000000000000000000000000000000000000000000000000000000000000000000000000000000000000000000000000000000000000000000000000000000000000000000000000000000000000000
00000000000000000000000000000000000000000000000000000000000000000000000000000000000000000000000000000000000000000000000000000000000000000000000000000000000000000000000000000000000000000000000000000000
00000000000000000000000000000000000000000000000000000000000000000000000000000000000000000000000000000000000000000000000000000000000000000000000000000000000000000000000000000000000000000000000000000000
00000000000000000000000000000000000000000000000000000000000000000000000000000000000000000000000000000000000000000000000000000000000000000000000000000000000000000000000000000000000000000000000000000000
00000000000000000000000000000000000000000000000000000000000000000000000000000000000000000000000000000000000000000000000000000000000111000000000000000000000000000000000000000000000000000000000000000000
00000000000000000000000000000000000000000000000000000000000000000000000000000000000000000000000000000000000000000000000000000000000111000000000000000000000000000000000000000000000000000000000000000000
00000000000000000000000000000000000000000000000000000000000000000000000000000000000000000000000000000000000000000000000000000000000000000000000000000001110000000000000000000000000000000000000000000000
00000000000000000000000000000000000000000000000000000000000000000111000000000000000000000000000000000000000000000000000000000000000000000000000000000001110000000000000000000000000000000000000000000000
00000000000000000000000000000000000000000000000000000000000000000111000000000000000000000000000000000000000000000000000000001110000000000001110000010001100000000000000000111000000000000000000000000000
00000000000000000000000000000000000000000000000000000000000000000010000000000000000000001100000000000000000000000000000000001110000000000001100011111111000000000000000000111000000000000000000000000000
00000000000000000000000000000000000000000000000000000000111000000111111000000000000000000000000000000000000000000000000000000000000000000000000111111111101110000000000000000000000000000000000000000000
00000000000000000000000000000000000000000000000000000000111000111111111000000000000000000000000000000000000000000000000000000000000000000000011111111111101110000000000000000000000000000000000000000000
00000000000000000000000000000000000000000000000000000000000000111110111000000000001111000000000000000000000000000000000000000000000000001110011111111111100000000000000000000000000000000000000000000000
00000000000000000000000000000000000000000001100000000000000001111100011000000000111111111100000000000000000000000011111111100000000000011111011111111111000000000000000000000000001110000000000000000000
00000000000000000000000000000000000000000001110000111100011111111000110000000000111111111111000000000000000000011111111111110000000000011111111111111111100000000000000000000000000000000000000000000000
00000000000000000000000000000000000000000000000111111111111111111100100000000001111111111111100000000000000001111111111111111000000000011111111111111111100000000000000000000000000000000000000000000000
00000000000000000000000000000000000000000000000111111111111111111111000000000001111111111111110000000000000001111111101111111000000000011111111001111111100000000000000000000000000000000000000000000000
00000000000000000000000000000000011100000000000111111111111111111000000000000011111111111111111000000000000011111100000011111100000000111110000001111111000000000011100000000000000000000000000000000000
00000000000000000000000000000000011100000000001111111111111111000000000000000011111100000111111000000000001111111000000001111110000000011000000001111111000000000011100000000000000000000000000000000000
00000000000000000000000000000000000000000000011111111111000000000000000000000011111100000111111100000000001111111000000001111110000000000000000001111111000000000000000000000000000000000000000000000000
00000000000000000000000000000000000000000000011111111100000000000000000000000111111110000001111110000000001111110000000001111000000000000000000001111111100000000000000000000000000000000000000000000000
00000000000000000000000000000000000000000000011111111000001110000000000000000111111110000000111111000000001111100000000000111000000000000000000001111111100000000000000000000000000000000000000000000000
00000000000000000000000000000000000000000000011111111000001110000000000000000011111000000000111111000000011111100111000000111110000000001100000001111011100000000000000000000001110000000000000000000000
00000000000000000000000000000000000000000000011111111000001111111000000000000011110000000000011111000000011111100100000000111110000000001100000001111011000000000000000000000001110000000000000000000000
00000000000000000000000000000000000000000000011111110000011111111110000000000111110000000000011111000000011111100000000000111110000000000011111001111111100000000000000000000000000000000000000000000000
00000000000000000000000000000000000000001110011111111000001111111111000000000111110000000000011111100000011111100000000000111110000000000011111001111111100000000000000000000000000000000000000000000000
00000000000000000000000000000000001000001110011101111110011111111111100000000001110000000000011111100000011111000000000000111100011100000000000001111111000000000000000000000000000000000000000000000000
00000000000000000000000000000000000000000000001101111111111111111111100000000001110000011100001111100000011111000000000001111100011100000000000000011111000000000000000000000000000000000000000000000000
00000000000000000000000011100000000010000000001111111111111111110111100000000111110000011100000111100000011110000000000001111100000010000000000000011111000000000000000000000000000000000000000000000000
00000000000000000000000011100000111111100000001111111111111111110111100000000111110000000000000111110000010000000000000001111100000010000000000001111111100000000000000000000000000000000000000000000000
00000000000000000000000000000000011111110000001111111111111111111111100000000111110000000000001111111000110001000000000001111100000000000000000001111111100000000000000000000000000000000000000000000000
00000000000000000000000000000000001111111000001111111110000001111110000000000111111000111110011111111111111011100000000001111100000000001110000001111111000000000000000000000000000000000000000000000000
00000000000000000000000000000000000011111110011111100000000000111110000000001111111111111111111111111111111111111110000001111100000000001110000001111111000000000000000000000000000000000000000000000000
00000000000000000000000000000000000001001111111111000000000000111111100001111111111111111111110011111111111111111110000011111100000000000000000001111111000000000000000000000000000000000000000000000000
00000000000000000000000000000000000000000111111111100000000001111111111111101111111111100000000011111100111111111111001111111000000000000000000000111111000000000000000000000000001100000000000000000000
00000000000000000000000000000000000000000111111111111111111111111111111111000111111000000000000011111000011111000111111111100000000000000000000000111111100000000111000000000000001111000000000000000000
00000000000000000000000000000000000000000000111111111111111111111111111111000011111000000000000111111000011110000000011111000100000000000000000001111111000000000111000000000000000111000000000000000000
00000000000000000000000000000000000000000000011111111111111111011111111000000011111000000000000111111000011111000000000000111110000000000000000001111111000000000000000000000000000000000000000000000000
00000000000000000000000000000000000000000000001110000111111111011111000000000111111000000000000111111000011111000000000001111111110000000011100001111100000000000000000111000000000000000000000000000000
00000000000000000000000000000000000000000000000000000011110011111110000000000111111000000000000111111000001111000000000011111111111110000011100001111100000000000000000111000000000000000000000000000000
00000000000000000000000000000000000000000000000000000000100000111110000000000011100000000000000111111000001111000000000011110011000111100000000001111110000000000011100000000000000000000000000000000000
00000000000000000000000000000000000011000000000000000000001100011100000000000011100000000000001111111000001111000000000011110000000011111000000011111111000000000011100000000000000000000000000000000000
00000000000000000000000000000000000011000000000000000000011111000000000000000001111100000000001111110000001100000000000111100000000001111111000011111111000000000000000000000000000000000000000000000000
00000000000000000000000000000000000000000000011110011111001111000000000000000001111110000000001111000000001100000000000111100000000001111111110011111111000000000000000000000000011100000000000000000000
00000000000000000000000000000000000000000000111111111100001111100000000000000011111110000000011111000000001111000000000111100000000000011111111111111111000000000000000000011100011100000000000000000000
00000000000000000000000000000000000000000001111111111100011111000000000000000111111110000000011111100000001111100000001111100000000000000011111111111111000000000000000000011100000000000000000000000000
00000000000000000000000000000000000000000001111111111100011110000000000000000100111111000000111111100000000111100000001111000000000000000011111111111111000000000000000000000000000000000000000000000000
00000000000000000000000000000000000000000001110111111110011100000000000000000000011111110111111111100000000111100000001111000000000001111111111111111111000000000000000000000000000000000000000000000000
00000000000000000000000000000000000000000000100011111111100000000000000000000000011111111111111111000000000111100000001111000000000001111111111111111111100000000000000000000000000000000000000000000000
00000000000000000000000000000000000000000000000011111111100000000000000000000000011111111111111110000000000111110000011110000000000001111111111111111111110001100000000000000000000000000000000000000000
00000000000000000000000000000000000000000000000010000011100000000000000000000000000011111011111000000000000011110000111110000000000000111111111111111111111000111110000000000000000000000000000000000000
00000000000000000000000000001110000000000000000000000011100000000000000000000000000001110001110000000000000011110000111100000000000000001111111111110111111001111110000000000000000000000000000000000000
00000000000000000000000000001110000000000000000000000000000000000000000000000000000000111111000000000000000011111111000000000000000000000111111111100111110011111111000000000000000000000000000000000000
00000000000000000000000111000000000000000000000000000000000000000000000000000000000000000011000000000000000001111111100000000000000000000000000111011111100111111111100000000000000000000000000000000000
00000000000000000000000111000000000000000000000000000000000000000000000000000000000000000011100000000000000000011111110000000000000000000000000000000000111111111111111100000000000000000000000000000000
00000000000000000000000000000000000000000000000000000000000000000000000000000000000000000011100000000000000000001111100000000000000000000000000000000000000001111111111000000000001110000000000000000000
00000000000000000000000000000000000000000000000000000000000000000000000000000000000000000000000000000000000000000000000000000000000000000000000000000000000000000000001000000000001110000000000000000000
00000000000000000000000000000000000000000000000000000000000000000000000000000000000000000000000000000000000000000000000000000000000000000000000000000000000000000000000000000000000000000000000000000000
00000000000000000000000000000000000000000000000000000000000000000000000000000000000000000000000000000000000000000000000000000000000000000000000000000000000000000000000000000000000000000000000000000000
00000000000000000000000000000000000000000000000000000000000000000000000000000000000000000000000000000000000000000000000000000000000000000000000000000000000000000000000000000000000000000000000000000000
00000000000000000000000000000000000000000000000000000000000000000000000000000000000000000000000000000000000000000000000000000000000000000000000000000000000000000000000000000000000000000000000000000000
00000000000000000000000000000000000000000000000000000000000000000000000000000000000000000000000000000000000000000000000000000000000000000000000000000000000000000000000000000000000000000000000000000000
00000000000000000000000000000000000000000000000000000000000000000000000000000000000000000000000000000000000000000000000000000000000000000000000000000000000000000000000000000000000000000000000000000000
00000000000000000000000000000000000000000000000000000000000000000000000000000000000000000000000000000000000000000000000000000000000000000000000000000000000000000000000000000000000000000000000000000000
00000000000000000000000000000000000000000000000000000000000000000000000000000000000000000000000000000000000000000000000000000000000000000000000000000000000000000000000000000000000000000000000000000000
