P1
200 70
00000000000000000000000000000000000000000000000000000000000000000000000000000000000000000000000000000000000000000000000000000000000000000000000000000000000000000000000000000000000000000000000000000000
00000000000000000000000000000000000000000000000000000000000000000000000000000000000000000000000000000000000000000000000000000000000000000000000000000000000000000000000000000000000000000000000000000000
00000000000000000000000000000000000000000000000000000000000000000000000000000000000000000000000000000000000000000000000000000000000000000000000000000000000000000000000000000000000000000000000000000000
00000000000000000000000000000000000000000000000000000000000000000000000000000000000000000000000000000000000000000000000000000000000000000000000000000000000000000000000000000000000000000000000000000000
00000000000000000000000000000000000000000000000000000000000000000000000000000000000000000000000000000000000000000000000000000000000000000000000000000000000000000000000000000000000000000000000000000000
00000000000000000000000000000000000000000000000000000000000000000000000000000000000000000000000000000000000000000000000000000000000000000000000000000000000000000000000000000000000000000000000000000000
00000000000000000000000000000000000000000000000000000000000000000000000000000000000000000000000000000000000000000000000000000000000000000000000000000000000000000000000000000000000000000000000000000000
00000000000000000000000000000000000000000000000000000000000000000000000000000000000000000000000000000000000000000000000000000000000000000000000000000000000000000000000000000000000000000000000000000000
00000000000000000000000000000000000000000000000000000000000000000000000000000000000000000000000000000000000000000000000000000000000000000000000000000000000000000000000000000000000000000000000000000000
00000000000000000000000000000000000000000000000000000000000000000000000000000000000000000000000000000000000000000000000000000000000000000000000000000000000000000000000000000000000000000000000000000000
00000000000000000000000000000000000000000000000000000000000000000000000000000000000000000000000000000000000000000000000000000000000000000000000000000000000000000000000000000000000000000000000000000000
00000000000000000000000000000000000000000000000000000000000000000000000000000000000000000000000000000000000000000000000000000000000000000000000000000000000000000000000000000000000000000000000000000000
00000000000000000000000000000000000000000000000000111000000000000000000000000000000000000000000000000000000000000111111100000000000000000000000000000000000000000000000000000000000000000000000000000000
00000000000000000000000000000000000000000000000000111000000000000000000000000000000000000000000000000000001000111111111100000000000000000000000111111111111100000000000000000000000000000000000000000000
00000000000000000000000000000000000000000000000000000000000000000000000000000000000000000000000000000000111000111111111000000100000000000000111111111111111111000000000000000000000000000000000000000000
00000000000000000000000000000000000000000001110000000000000000000000000000000000000000000000000000001111111001111111111000000111000000001111111111111111111111100000000000000000000000000000000000000000
00000000000000000000000000000000000000000001110000000000000000000000000000000000000000000000000000011111100111111011111000000000000000011111111111111111111111110000000000000000000000000000000000000000
00000000000000000000000000000000000000000000000000000000000000000000000000000000000000000000000000001111101111111011111000000000000001111111111111111111111111111000000000000000000000000000000000000000
00000000000000000000000000000000000000000000000000000000000000000000000000000000000000000000000000001111111111111111111000000000000011111111111111111111111111111000000000000111000000000000000000000000
00000000000000000000000000000000000000000111111110000000000000000000000000000000111000000000000000111111111111111111110000000000000111111111111111111111111111111100000000000111000000000000000000000000
00000000000000000000110000000000000000001111111111111111100000000000000000000000111111000000000000011111111111111111110000000000001111111111011111111111111111111110000000000000000000000000000000000000
00000000000000000000110000000000000000001111111111111111111000000011100000111000111111110000000000011111111111111111110000000000011111111111011111011111111111111111000000011100000000000000000000000000
00000000000000000000000000000000011100000111111111111111111000000011100001111100011111110000000000111111111111111111110000000000111111111111111000000111111111111111000000011100000000000000000000000000
00000000000000000000000000000000111111100111111111111111111100000000000011111100011111111000000000111100001111111111110000000000111111111111100000000111111111111110000000000000000000000000000000000000
00000000000000000000000000000000011110000111111110111111111100000000000111111100011111111000000000110000000111111111110000000001111111111111100000000011111111111100000000000000000000000000000000000000
00000000000000000000000000000000001110000011111100011111111000000000001111111100011111110000000000000000000111111111100000000000011111111111000000000011111110111100000000000000000000000000000000000000
00000000000000000000000000000000000111110001111110000111110000000000001111111000001111110000000000000000000111111111100000000000001111111110000000000000111110011100000000000000000000000000000000000000
00000000000000000000000000000000000011111110000000000000000000000000001111110000001111111110000000000111000110111111000000000000011111111100000000000000111111000000000000000000000000000000000000000000
00000000000000000000000000000000000001111111000100000000000000000000001111100000000001111110000000000111001110111111000000000011111111111100000000000011111111100000000000000000000000000000000000000000
00000000000000000000000000000000000000111111111100000000000111000000010000011000000001111111000000000000001111111111000000000011111111111100000000000111111111111000000000000000000000000000000000000000
00000000000000000000000000000000000000111111111100000000000111000000011000111000000111111111000000000000001111111111000000000111111111100000000000000111111110000000000000000000000000000000000000000000
00000000000000000000000000000000000000011111111100110000000000000000011111111000000100111111000000000000001111111111000000000111111111100000000000001111111110000000000000000000000000000000000000000000
00000000000000000000000000000000000000001111011100111111110000000000011110111000000000011111000000000000011111111111000000000111111111110000000000001111111111110000000000000000011100000000000000000000
00000000000000000000000000000000000000001111011101111111111000000000011110011000000000111111000000000000011111111110000000001111111111110000000000001111101111100000000000000000011000000000000000000000
00000000000000000000000000000000000000001111111111111111111100000000001111100000000011111111000000000000011111111110000000001111111111100000000000001111101111100000000000000000000000000000000000000000
00000000000000000000000000000000000000000001111111111111111110000000001111100000000011111111000000000000011111111110000000001111111111100000000000001111111111100000000000000000000000000000000000000000
00000000000000000000000000000000000000000000001111111111111111000000111111110000000011111111000001110000011111111110000000001111111111100000000000011111111111100000000000000000000000000000000000000000
00000000000000000000000000000000000000000000001111111111011111100000111101100000000011111111000001110000011111111110000000001111111111100000000000111111111111000000000000000000000000000000000000000000
00000000000000000000000000000000000000000000111111111111011111110000111101110000000011111111000000000000011111111110000000000111111011100000000000110111111110000000000000000000000000000000000000000000
00000000000000000000000000000000000000000000011111101111111111110000011111111000000011111111100000000000011110111100000000000111111011000000000000100111111110000000000000000000000000000000000000000000
00000000000000000000000000000000000000000000000000000001111111110000000111111000000011111111100000000000011110111100000000011111111111000000000000011111111110000000000000000000000000000000000000000000
00000000000000000000000000001110000000000000000000000000011111100000000111111000000011111111100000000000001111111100000000011111111111000000000000011111111100000000000000000000000000000000000000000000
00000000000000000000000000001110000000000000000000000000000011000001111111111000000011111111100000000000011111111100000000011111111111000000000000111111100100000000000000000000000000000000000000000000
00000000000000000000000000000000000000000000000000000000000001100111111111111000000001111111100000000000111111111100000000011111111111000000000001111111100000000000000000000000000000000000000000000000
00000000000000000000000000000000000000000000000000000000000011111111111111111000000011111111100000000000111111111000000000011111111111000000000011111111110000000000000000000000000000000000000000000000
00000000000000000000000000000000000000000000000000000000000011111111111111111100111111111111100000000001111111110000000000000111111110000000000011111111110000000000000000000000000000000000000000000000
00000000000000000000000000000000000000000000000000000000000011111111111111111111111111111111100000000001111111100000000000000011111110000000000011111111100000000000000000000000000000000000000000000000
00000000000000000000000000000000000000000000000000000111000111111100111111111111111111111111100000000001111111000000000000011100111110000000000111111111100000000000000000000000000000000000000000000000
00000000000000000000000000000000000000000000000000000111000111111100011111111111111111111111100000000001111110000000000000011110011000000000001111111111000000000000000000000000000000000000000000000000
00000000000000000000000000000000000000000000001100000000000111111100011111111111111111111111110000000001111110011000000000011111100000000000011111111110000000000000000000000000000000000000000000000000
00000000000000000000000000000000000000000000011110000000001111111000001111111111111111111111111000000001111111111000000000001111110010000000011111111100000011100000000000000000000000000000000000000000
00000000000000000000000000000000000000000000011111110001111111111000000011111100000011111111111111000011111111111000000000001111111110000000111111111100000011100000000000000000000000000000000000000000
00000000000000000000000000000000000000000000011111111111111111111000000011111100000011111111111111111111111111111111100010011111111111000001111111111100000000000000000000000000000000000000000000000000
00000000000000000000000000000000000000000000001111111111111111111000000011111110000011111111111111111111111111111111110110011111111111110111111111100000000000000000000000011100000000000000000000000000
00000000000000000000000000000000000000000111001111111111111111110000000011011110000011111111111111111111111111111111111110000011111100111111111111000000000000000000000000011100000000000000000000000000
00000000000000000000000000000000000000000111000111111111111111000000000010001110000011111111111111111111110111111111111110000011111100011111111111100000000011100000011100111000000000000000000000000000
00000000000000000000000000000000000000000000000011111111110010000000000001000111000011111111011111110001100011111111111111001111111110011111111111000000000010000000011100111000000000000000000000000000
00000000000000000000000000000000000000000000000001111111100000000000000000001111000001111110011111100001110001110011111110001111111111111111111110000000000000000000000000000000000000000000000000000000
00000000000000000000000000000000000000000000000000000000000000000000000000111111100001111110011111000111111011100001111110001111111111111111111110000000000000000000000000000000000000000000000000000000
00000000000000000000000000000000000000000000000000000000000000000000000000011111111111111100011111101111111111110011111111000111111011111111111000000000000000000000000000000000000000000000000000000000
00000000000000000000000000011100000000000000000000000000000000000000000000001111111111111100011111111111111111111111111111000111111011111111111000000000000000000000000000000000000000000000000000000000
00000000000000000000000000011100000000000000000000000000000000000000000000000011000111111000000000000000000000000000000000000011111111111111111111100000000000000111000000000000000000000000000000000000
00000000000000000000000000000000000000000000000000000000000000000000000000000000000011110000000000000000000000000000000000000000111111111111111111111111111111001111111000000000000000000000000000000000
00000000000000000000000000000000000000000000000000000000000000000000000000000000000000000000000000000000000000000000000000000000001100000000111111111111111111111111111000000000000000000000000000000000
00000000000000000000000000000000000000000000000000000000000000000000000000000000000000000000000000000000000000000000000000000000000000000000000000111111111111111111111000000000000000000000000000000000
00000000000000000000000000000000000000000000000000000000000000000000000000000000000000000000000000000000000000000000000000000000000000000000000000000000010000000000000000000000000000000000000000000000
00000000000000000000000000000000000000000000000000000000000000000000000000000000000000000000000000000000000000000000000000000000000000000000000000000000000000000000000000000000000000000000000000000000
00000000000000000000000000000000000000000000000000000000000000000000000000000000000000000000000000000000000000000000000000000000000000000000000000000000000000000000000000000000000000000000000000000000
00000000000000000000000000000000000000000000000000000000000000000000000000000000000000000000000000000000000000000000000000000000000000000000000000000000000000000000000000000000000000000000000000000000
00000000000000000000000000000000000000000000000000000000000000000000000000000000000000000000000000000000000000000000000000000000000000000000000000000000000000000000000000000000000000000000000000000000
