P1
200 70
00000000000000000000000000000000000000000000000000000000000000000000000000000000000000000000000000000000000000000000000000000000000000000000000000000000000000000000000000000000000000000000000000000000
00000000000000000000000000000000000000000000000000000000000000000000000000000000000000000000000000000000000000000000000000000000000000000000000000000000000000000000000000000000000000000000000000000000
00000000000000000000000000000000000000000000000000000000000000000000000000000000000000000000000000000000000000000000000000000000000000000000000000000000000000000000000000000000000000000000000000000000
00000000000000000000000000000000000000000000000000000000000000000000000000000000000000000000000000000000000000000000000000000000000000000000000000000000000000000000000000000000000000000000000000000000
00000000000000000000000000000000000000000000000000000000000000000000000000000000000000000000000000000000000000000000000000000000000000000000000000000000000000000000000000000000000000000000000000000000
00000000000000000000000000000000000000000000000000000000000000000000000000000000000000000000000000000000000000000000000000000000000000000000000000000000000000000000000000000000000000000000000000000000
00000000000000000000000000000000000000000000000000000000000000000000000000000000000000000000000000000000000000000000000000000000000000000000000000000000000000000000000000000000000000000000000000000000
00000000000000000000000000000000000000000000000000000000000000000000000000000000000000000000000000000000000000000000000000000000000000000000000000000000000000000000000000000000000000000000000000000000
00000000000000000000000000011100000000000000000000000000000000000000000000000000000000000000000000000000000000000000000000000000000000000000000000000000000000000000000000000000000000000000000000000000
00000000000000000000000000011100000000000000000000000000000000000000000000000000000000000000000011100000000000000000000000000000000000000000000000000000000000000000000000000000000000000000000000000000
00000000000000000000000000000000000000000000000000000000000011100000000000000000000000000000000011100000000000000000000000000000000000000000000000000000000000000000000000000000000111000000000000000000
00000000000000000000000000000000000000000000000000000000000011100000000000000000000011110001000000000000000011100000000000000000000000000000000000000000000000000000000000000000000111000000000000000000
00000000000000000000000000000000000000000000000000000000000000000000000000000000001111100011100000000000000011100000000000000000000000000000000000000000001110000000000000000000000000000000000000000000
00000000000000000000000000000010000000000000000000000000000000000111111100000001111111110111000100000000000000000000000000000000000000000000000000001111111111000000000000000000000000000000000000000000
00000000000000000000000000000010000000000000000000000001111111100011111100000111111111111111101100000000000000000000000000000000111000000000000011111111111111100000000000000000000000000000000000000000
00000000000000000000000000000000000000000000000000000011111111110111111000001111111111111111111100000000000111000000000000000000111000000000000111111111111111111100000000000000000000000000000000000000
00000000000000000000000000000000000000000000000000000111111111111111110000011111111111111110111110000000000111000000000000000000000000000000000111111111011111111110000000000000000000000000000000000000
00000000000000000000000000000000000000000000000000111111111111111111110000011111111100001110111100000000000000000000000000000000000000000000000111111111011111111111000000000000000000000000000000000000
00000000000000000000000000000000000000000000000001111111111111111100100000011111100000000111111100000000000000000000000000000000000000000000000011111111111111111111100000000000000000000000000000000000
00000000000000000000000000000000000000000000000001111111111111111000000001001111000000000011111100000000000000000000000000000000000000000000000011111111111111111111100000000000000000000000000000000000
00000000000000000000000000000000000000000000000011111111111111111100000011101110000000000001111100000000000000000000000000000000000000000000001111111111111111111111100000000000000000000000000000000000
00000000000000000000000000000000000000000000000111111100111000011100111111111100000000000001111110000000000000001111100000000000000000000000001111111000111111110111100000000000000000000000000000000000
00000000000000000000000000000000000000000000000111100000010000000000111111111100000000000001111110000000000000001111100000000000000000000000000000000000000011110111100000000000000000000000000000000000
00000000000000000000000000000000000000000000001111000000000000000000001111111000000000000001111110000000000000001111100000000000000000000000000000000000000011111111100000000000000000000000000000000000
00000000000000000000000000000000000000000111011100000000000000000000001111111000000000000000111110000000000000011111100000000000001110000000000000000000000011111111100000000000000000000000000000000000
00000000000000000000000000000000000000000111111100000000000000000000001111111000000000000000011110000000000000011111000000000000001110000000000000000000000011111111100000000000000000000000000000000000
00000000000000000000000000000000000000000000111111000111110000000000000110111000000000000000111110000000000000011111000000000000000000000000000000000000000011111111100000000000000000000000000000000000
00000000000000000000000000000000000000000000111111000011111000000000000110111000000000000001001110000000000000111111111000000000000000000000000000000000001111111111100000000000000000000000000000000000
00000000000000000000000000000000000000000001111111100111111110000000000111110000000000000011101110000000000001111111111000000000000000000000000000011000001111111111101110000000000000000000000000000000
00000000000000000000000000000000000000000011111111111111111111000000001111110000000000000011111100000000000001111111111000000000000000000000000000111111111110111111101110000000000000000000000000000000
00000000000000000000000000000000000000000011111111111111111111100000001111110000000000000011111100000000000011111111111000000000011100000000000000111111111110111111000000000000000000000000000000000000
00000000000000000000000000000000000000000001111111111111111111100000001111110000000000000011100000000000000111111111111000000000000000000000000000111111111111111111000000000000000000000000000000000000
00000000000000000000000000000000000000000000111111111110111111110000001111110000000000000000000000000000001111110011111100000000000000000000000000111111111111111100000000000000000000000000000000000000
00000000000000000000000000000000000000000000111111111110111111110000001111110000000000000000011000000000011111100011111110000000000000000000000000011111111111111000000000000000000000000000000000000000
00000000000000000000000000000000000000000000000000011111111111110000000111110000000000000001111000000001111111000011111110000001000000000000000000000011111111110000000000111000000000000000000000000000
00000000000000000000000000000000000000000000000000001111111111000000000111110000000000000011111000000001111110000011111110000001000000000000000000100011111111110000000000111000000000000000000000000000
00000000000000000000000000000000000000000000000000000111111111000000000011110000000000000011111000000001111100000000011110000000000000000000000000000111111111100000000000000011100000000000000000000000
00000000000000000000000000000000000000000000000000000011111111100000000011110000000000000011111100000001110000000000011110000000000000001110000000000001111111100000000000000011100000000000000000000000
00000000000000000000000000000000000000000011100000000011111111100000000111110000000000000111111000111001000000000000111111000000000000001110000000000001111111111000000000000000000000000000000000000000
00000000000000000000000001110000000000000011100000000011111111100000000111000000000000000111110000111000000000000000111111000000000000000000000000000011101111111000000000000000000000000000000000000000
00000000000000000000111001110000000000000000000000000001111111000000000110000000000000000111110000000000000000000000111111000000000000111000000000000011100111111100000000000000000000000000000000000000
00000000000000000000111000000000000000000000000000000001111110000000000100011000000000001110000000000000000000000000111111000000000000111000000000000000000111111110000000000000000000000000000000000000
00000000000000000000000000000000000000000000000000000011111111000000000000011000000000111110000000000000000000000000011111100000000000011110000000000000000001111111100000000000000000000000000000000000
00000000000000000000000000000000000000000000000000000011111110000000000000111000000000111111100111000000000000000000000111110000000000001111000000000000000000111111100000000000000000000000000000000000
00000000000000000000000000000000000000000000000000000111111100000000000001111000000000011111100111000000011111111111100111111100000000001111100000000000000001111111110000000000000000000000000000000000
00000000000000000000000000000000000000000000000000000111111000000000000011111000000000001100000111000011111111111111111111111110011111111111111100000000000011111111110000000000000000000000000000000000
00000000000000000000000000000000000000000000000000001111110000000000000011111100000000011100001111111111111011111111011100011111111111111111111110000000000111111111110000000000000000000000000000000000
00000000000000000000000000000000000100000000000000011111100000000000000011111100000000011111111111111111110001000110001100001111111111111111111110000000000111111111110000000000000000000000000000000000
00000000000000000000000000000000001111000000000001111111000000000000000001111100000000111111111111111111000000000000001111111000000001111111111111011110011111111111110000000000000000000000000000000000
00000000000000000000000000000000011111111000000001111110000000000000000001111110000001111111111111111000000000000000001111111000000000011111111111111111111111000111100000000000000000000000000000000000
00000000000000000000000000000000111111111110011000111000000000000000000000111111111111111111110000000000000000000000000111111000000000011111111111111111011111000111100001110000000000000000000000000000
00000000000000000000000000000001111111111111111000000000000000000000000001111111111111111110000000000000000000000000000111111100111000111101111111111111011111111111100001110000000000000000000000000000
00000000000000000000000000000001111111111111111100000000000000000000000011111111111111111000000000000000000000000000001111111100111111111000011111111111111111111111100000000000000000000000000000000000
00000000000000000000000000000001111111111111000000000000000000000000011111111111111111110000000000000000000000000000001110111111111111110000000111111111101111100011100000000000000000000000000000000000
00000000000000000000000000000000111111111110000000000000000000000111100111111111111111100000000000000000000000000000000110111111111111110000000001111111101111100011100000000000000000000000000000000000
00000000000000000000000000000000011111111100000000000000000011111111100011001111111111000000000000000000000000000000000111111111111111110000000000000111111111111111000000000000000000000000000000000000
00000000000000000000000000000000011111111111111111111111111111111111110000000111111000000000000000000000000000000000011111111110111100000000000000000011111111111111000000000000000000000000000000000000
00000000000000000000000000000000011111111111110111101111111111111111000000000001110000000000000000000000000000000000111111111100010000000000000000000000111111111111000000000000000000000000000000000000
00000000000000000000000000000000001111011111100111101111111110011110000000000000000000000000000000000000000000011111111111111100000000000000000000000000001110011111100000000000000000000000000000000000
00000000000000000000000001110000001110000000001111111100000000001110000000000000000000000000000000000000000000111111111111110000000000000000000000000000000000001111110000000000000000000000000000000000
00000000000000000000000001110000000000000000000000000000000000000000000000000000000000000000000000000000011111111101111110000000000000000000000000000110000000000111111100000000000000000000000000000000
00000000000000000000000000000000000000000000000000000000000000000000000000000000000000000000000000000000010011111000110000000000000000000000000000001110000000000000011000000000000000000000000000000000
00000000000000000000000000000000000000000000000000000000000000000000000000000000000000000000000000000000011011111100000000000000000000000000000000000000000000000000001000000000000000000000000000000000
00000000000000000000000000000000000000000000000000000000000000000000000000000000000000000000000000000000011111000000000000000000000000000000000000000000000000000000010000000000000000000000000000000000
00000000000000000000000000000000000000000000000000000000000000000000000000000000000000000000000000000000001000000000000000000000000000000000000000000000000000000000000000000000000000000000000000000000
00000000000000000000000000000000000000000000000000000000000000000000000000000000000000000000000000000000000000000000000000000000000000000000000000000000000000000000000000000000000000000000000000000000
00000000000000000000000000000000000000000000000000000000000000000000000000000000000000000000000000000000000000000000000000000000000000000000000000000000000000000000000000000000000000000000000000000000
00000000000000000000000000000000000000000000000000000000000000000000000000000000000000000000000000000000000000000000000000000000000000000000000000000000000000000000000000000000000000000000000000000000
00000000000000000000000000000000000000000000000000000000000000000000000000000000000000000000000000000000000000000000000000000000000000000000000000000000000000000000000000000000000000000000000000000000
00000000000000000000000000000000000000000000000000000000000000000000000000000000000000000000000000000000000000000000000000000000000000000000000000000000000000000000000000000000000000000000000000000000
