P1
200 70
00000000000000000000000000000000000000000000000000000000000000000000000000000000000000000000000000000000000000000000000000000000000000000000000000000000000000000000000000000000000000000000000000000000
00000000000000000000000000000000001000000000000000000000000000000000000000000000000000000000000000000000000000000000000000000000000000000000000000000000000000000000000000000000000000000000000000000000
00000000000000000000000000000000001110000000000000000000000000000000000000000000000000000000000000000000000000000000000000000000000000000000000000000000000000000000000000000000000000000000000000000000
00000000000000000000000000000000011111100000000000000000000000000000000000000000000000000000000000000000000000000000000000000000000000000000000000000000000000000000000000000000000000000000000000000000
00000000000000000000000000000000011111111000000000000000000000000000000000000000000000000000000000000000000000000000000000000000000000000000000000000000000000000000000000000000000000000000000000000000
00000000000000000000000000000000000111111110000000000000000000000000000000000000000000000000000000000000000000000000000000000000000000000000000000000000000000000000000000000000000000000000000000000000
00000000000000000000000000000000000001111111000000000000000000000000000000000000000000000000000000000000000000000000000000000000000000000000000000000000000000000000000000000000000000000000000000000000
00000000000000000000000000000000000000011111110000000000000000000000000000000000000000000000000000000000000000000000000000000000000000000000000000000000000000000001000000000000000000000000000000000000
00000000000000000000000000000000000000000111111100000000000000000001100000000000000000000000000000000000000000000000000000000000000000000000000000000000000000000001000000000000000000000000000000000000
00000000000000000000000000000000000000000001111110000000000000000001100000000000000000000000000000000000000000000000000000000000000000000000000000000000000000000000000000000000000000000000000000000000
00000000000000000000000000000000000000000000111111001000000000000000000000000000000000000000000000000000000000000000000000000000000000000000000000000000000000000000000000000000000000000000000000000000
00000000000000000000000000000000000011100000001111111110000000000000000000000000000000000000000000000000000000000000000000000000000000000000000000000000000000000000000000000000000000000000000000000000
00000000000000000000000000000000000011100000000011111111110000000000000000000000000000000000000000000000000000000000000001111100000000000000000000000000000000000000000000000000000000000000000000000000
00000000000000000000000000000001110000000000000000011111100011000000000000000000000000000000000000000000000000000000011000111110000000000000000000000000000000000000000000000000000000000000000000000000
00000000000000000000000000000001110000000000000000000111100111111000000000000000000000000000000000000000000000000011111101111100111000000000000000000000000000111110000000000000000000000000000000000000
00000000000000000000000000000000000000000000000000000000011111111111000000000000000000000000000000000000000000000111111111111101111100000000000000000000001111111110000000000000000000000000000000000000
00000000000000000000000000000000001110000000000000001100000011111111100001100000000000000011100000000000000001111111111111111111111110000000000000000000111111111110000000000000000000000000000000000000
00000000000000000000000000000000001110111000000000001110000000011001110000111100000000000011100000000000000001111111111111111011111110000000000011111001111111111110000000000000000000000000000000000000
00000000000000000000000000000000000000111000000000000111000000011000111000111111111111111110000000000000000111111111111111111011111111000000000111111111111111111110000000000000000000000000000000000000
00000000000000000000000000000000000000000000000000000111111111111111100001110011111111111110000000000000011111111111111111111111111111100000001111111111111111111100000000000000000000000000000000000000
00000000000000000000000000000000000000000000000000000111111111100111100000000011111111011111110000000000111111111111111001111111111111100000001101111111111110000000000000000000000000000000000000000000
00000000000000000000000000000000000000000000000000001111111111000000100000001111111111011111111110001111111111111111110000111111111111110000011101111111000000000000000000000000000000000000000000000000
00000000000000000000000000000000000000000000000000001110000000000000000000111111111111111111111111011111111111111111000000111111111111110000011111110000000000000000000000000000000000000000000000000000
00000000000000000000000000000000000000000000000000011110000000000000000001111111111111111100011111111111011111111111000000001111111101110000011111110000000000000000000000000000000000000000000000000000
00000000000000000000000000000000000000000000000000011100000000000000000001111111111111111000000000011111011111111111111110000111111101111000011111100000000000000000000000000000000000000000000000000000
00000000000000000000000000000000000000000000000000111100000000001110000000111111111111111000000000001111111111111111111111110011111111111000011111100000000000000000000000000000000000000000000000000000
00000000000000000000000000000000000000000000000001111000000000000000000000111100011111111000000000011111110111111111111111111011111111111100001111100000000000000000000000000000000000000000000000000000
00000000000000000000000000000000000000000000000111111000000000000000000000000000011111110000000000011111110111110000000011111111110111111100000111100000000000000000000000000000000000000000000000000000
00000000000000000000000000110000000000000000000111110000000000000000000000000000011111110000000000011101111111110000000000011111100011111110000111100000000000000000000000000000000000000000000000000000
00000000000000000000000001110000000000000000000011100000000000000000000000000000111111110000000000111101111111110000000000001111110001111111111111100000000000000000000000000000000000000000000000000000
00000000000000000000000000000000000000000000000011100000110000000000000000000000111111110000000000111111111111110000000000001111111001111111111011100000000000000000000000000000000111000000000000000000
00000000000000000000000000000000000000000000000110000111111100000000000000000000111111110000000001111111111111100000000000001111111111111111111011110111111100000000000000000000000111000000000000000000
00000000000000000000000000000000000000000000000111001111111110000000000000000000111111110000000001111111111101110000000000001111111111111111111111111111111111000000000000000000000000000000000000000000
00000000000000000000000000000000000000000000001111111111111110000000000000000001111111100000000001111111111101111110000000001111111111111110111111111111111111100000000000000000000000000000000000000000
00000000000000000000000000000000000000000000001111100000011111000000000000000001111111100000000001111111111111111110000000001111111111111100011110111111111111110000000000000000000000000000000000000000
00000000000000000000000000000000000000000000001111000000001111011100000000000000111111100000000001111111111111100000000000001111111111111100011110111111111111111000000000000000000000000000000000000000
00000000000000000000000000000000000000000000000000000000001111000100000000000000111111100000000001111111111111100000000000000001111111111100111111111111111100000100000000000000000000000000000000000000
00000000000000000000000000000000000000000000000000001110000111000000000000000001111111100000000011111111111111111000000000000001111011111101111111101111111100001100000000000000000000000000000000000000
00000000000000000000000000000000000000000000000000001110000110000000000000000011111111000000000011111111111111111000000000001111111011111101111111000111111111111110000000000000000000000000000000000000
00000000000000000000000000000000000000000000000000000000001110000000000000000011001110000000000001111111111111100000000000001111111111111100000000111001111111111110000000000000000000000000000000000000
00000000000000000000000000000000000000000000000000000000001111000000000000000000001110000000000001111111111111100000000000001111111111111100000000111000111111111110000000000000000000000000000000000000
00000000000000000000000000000000000000000000000000000000001111000000000011100000111100000000000001111111111111100000000000011111111111111100000000000000011001111110000000000000001110000000000000000000
00000000000000000000000000000000000000000000000000000000011110000111100000001111111100000000000001111111111111000000000000001111111111111100000000000000000001111111100000111000000110000000000000000000
00000000000000000000000000000000000000000000000000000000111100001111111100011111111100000000000001111111111111100000000000001110111111011100000000000000000011111111111000111000000000000000000000000000
00000000000000000000000000000000000000000000000000000000111000001111111111111111111000000000000001111111111111100000000000001110111111011100000000000000000001111111100000000000000000000000000000000000
00000000000000000000000000000000000000000000000000000001111000000011111111111111111000000000000001111111111111100000000000011111111111111000000000000000000001111111100000000000000000000000000000000000
00000000000000000000000000000000000000000000000000000011110000000001111111111111110000000000000001111111111111000000000000011111111111111000000000000000000001111111110000000000000000000000000000000000
00000000000000000000000000000000000000000000000000000011100000000001111011111111110000000000000001111111111110000000000000011111111111111000000000000000000000111111111000000000000000000000000000000000
00000000000000000000000000000000000000000000000000000111000000000000010011111111111100000000000000111111111100000000000000001111111111111000000000000000000001111111111100000000000000000000000000000000
00000000000000000000000000000000000000000000000000001110000000000000000111111111111110000000000000111111111100000000000000011111111111111000000000000000000001111111111000000000000000000000000000000000
00000000000000000000000000000000000011100000000000111100000000011100000011111111111111100000000000011111111110000000000000111111111111110000000000000000000011111110010001000000000000000000000000000000
00000000000000000000000000000000000011110011100001111000000000011100000000111111111111111000000000011111111111110001110001111111111111110000000000000000000011111100000111000000000000000000000000000000
00000000000000000000000000000000000011110111110011100000000000000000000000000111011111111100000000001111111111110001110011111111101111111000000000000000000111111100000000000000000000000000000000000000
00000000000000000000000000000000000001111111111111000000000000000000000000000000001111111110000000000111111111111011110111111111101111100001110000000000000111111100000000000000000000000000000000000000
00000000000000000000000001110000000000111111111111011100000000000000000000000000011111111110000000000111111111111111111111111111111111000001111100000000001111111100000000000111000000000000000000000000
00000000000000000000000011110000000000111111111100011100000000000000000000000000001111111110000011100011111111111011111111111111111110000001111111111111111111111000000000000111000000000000000000000000
00000000000000000000000011000000000000000111000000000000000000000000000000000000000011111110000011100001111111111011111111111110011000000001111111111111111111100000000000000000000000000000000000000000
00000000000000000000000000000000000000000000001110000000000000000000000000000000000000111110000000000000111111111111111111111110000000000001111111111111111111100000000000000000000000000000000000000000
00000000000000000000000000000000000000000000001110000000000000000000000000000000000000001000000000000000011111111111111111111111100000000000111111111111111111000000000000000000000000000000000000000000
00000000000000000000000000000000000000000000000000000000000000000000000000000000000000000000000000000000001111111111111111111111100000000000001111111111111100000000000000000000000000000000000000000000
00000000000000000000000000000000000000000000000000000000000000000000000000000000000000000000000000000001110001111111111111111111000000000000000000000000110000000000000000000000000000000000000000000000
00000000000000000000000000000000000000000000000000000000000000000000000000000000011100000000000000000001110000011111111111111110000000000000000000000000000000000000000000000000000000000000000000000000
00000000000000000000000000000000000000000000000000000000000000000000000000000000011100000000000000000000000000000000000011100000001110000000000000000000000000000000000000000000000000000000000000000000
00000000000000000000000000000000000000000000000000000000000000000000000000000000000000000000000000000000000000000000000000000000001110000000000000000000000000000000000000000000000000000000000000000000
00000000000000000000000000000000000000000000000000000000000000000000000000000000000000000000000000000000000000000000000000000000000000000000000000000000000000000000000000000000000000000000000000000000
00000000000000000000000000000000000000000000000000000000000000000000000000000000000000000000000000000000000000000000000000000000000000000000000000000000000000000000000000000000000000000000000000000000
00000000000000000000000000000000000000000000000000000000000000000000000000000000000000000000000000000000000000000000000000000000000000000000000000000000000000000000000000000000000000000000000000000000
00000000000000000000000000000000000000000000000000000000000000000000000000000000000000000000000000000000000000000000000000000000000000000000000000000000000000000000000000000000000000000000000000000000
00000000000000000000000000000000000000000000000000000000000000000000000000000000000000000000000000000000000000000000000000000000000000000000000000000000000000000000000000000000000000000000000000000000
00000000000000000000000000000000000000000000000000000000000000000000000000000000000000000000000000000000000000000000000000000000000000000000000000000000000000000000000000000000000000000000000000000000
