P1
200 70
00000000000000000000000000000000000000000000000000000000000000000000000000000000000000000000000000000000000000000000000000000000000000000000000000000000000000000000111000000000000000000000000000000000
00000000000000000000000000000000000000000000000000000000000000000000000000000000000000000000000000000000000000000000000000000000000000000000000000000000000000000001111100000000000000000000000000000000
00000000000000000000000000000000000000000000000000000000000000000000000000000000000000000000000000000000000000000000000000000000000000000000000000000000000000000011111000000000000000000000000000000000
00000000000000000000000000000000000000000000000000000000000000000000000000000000000000000000000000000000000000000000000000000000000000000000000000000000000000000111110000000000000000000000000000000000
00000000000000000000000000000000000000000000000000000000000000000000000000000000000000000000000000000000000000000000000000000000000000000000000000000000000000001111100000000000000000000000000000000000
00000000000000000000000000000000000000000000000000000000000000000000000000000000000000000000000000000000000000000000000000000000000000000000000000000000000000011111000000000000000000000000000000000000
00000000000000000000000000000000000000000000000000000000000000000000000000000000000000000000000000000000000000000000000000000000000000000000000000000000000000111110000000000000000000000000000000000000
00000000000000000000000000000000000011000000000000000000000000000000000000000000000000000000000000000000000000000000000000000000000000000000000000000000000011111100000000000000000000000000000000000000
00000000000000000000000000000000000011000000000000000000000000000000000000000000000000000000000000000000000000000000000000000000000000000000000000000000000111111000000000000000000000000000000000000000
00000000000000000000000000000000000000000000000000000000000000000000000000000000000000000000000000000000000111000000000000000000000000000000000000000000011111111000000011100000000000000000000000000000
00000000000000000000000000000000000000000000000000000000000000000000000000000000000000000000000000000000000111000000000000000000000000000000000000000000111111100000000011100000000000000000000000000000
00000000000000000000000000000000000000000000000000000000000000000000000000000000000000000000000000000000000000000000000000011100000000000000000000000011111111000000000000000000000000000000000000000000
00000000000000000000000000000000000000000000000000000000000000000000000000000000000000000000000000000000000000000000000000011100000000000000000000000111111110000000000000000000000000000000000000000000
00000000000000000000000000000000000000000000000000000000000000000000000000000000000000000000000000000000000000000000000000000000000000000000000000011111111000000000000000000000000000000000000000000000
00000000000000000000000000000000000000000000000000001110000000000000000000000000011100000000000000000000000000000000000000000000000000000000001111001111000000001110000000000000000000000000000000000000
00000000000000000000000000000000000000000000000000001110000000000000000000000000011100000000000000000000000000000000000000000000000000000000111111101111000000001110000000000000000000000000000000000000
00000000000000000000000000000000000000000000000000000000000000000000000000000000000000000000000000000000000000000000000000000000000000000001111111111111000000000000000000000000000000000000000000000000
00000000000000000000000000000000000000000000000000000000000000000000000000000000000000000000000000000000000000000000000000000000000000000011111111111111110000000000000000000000000000000000000000000000
00000000000000000000000000000000000000000000000000000000011000000000000000000000000000000000000000000000000000000000000000000000000000000011111111000111111000000000000011100000000000000000000000000000
00000000000000000000000000000000000000000000000000011111111000000000000000000000000000000000000000000000000000000000000000011000000000001111111110000011111000000000000011100000000000000000000000000000
00000000000000000000000000000000000000000001111111111111110000000000000000000000000000000000000000000000000000000000000001111110000000011111111000000001111100000000000000000000000000000000000000000000
00000000000000000000000000000000000000000001111111111111110000000000000000000000000000000000000000000000000000000001111011111111001100111111110000000001111110000000000000000000000000000000000000000000
00000000000000000000000000000000000000000000111111111111100000000000000000000000000000000000000000000000000000000011111111111111111111111111110000000001111001000000000000000000000000000000000000000000
00000000000000000000000000000000000000000100011111111100000000000000000000000111111111100000000000000000000000001111011111111111111111111101110000000000111011100000000000000000000000000000000000000000
00000000000000000000000000000000000000001111111100000000000000000000000001111111111111100000000000000000000000011111001111111111111100001101100000000000011111100000000000000000000000000000000000000000
00000000000000000000000000000000000000001110000000000000000000000000000011111111111111100000000000000000000000111111111111111111111000001111100000000000011111110000000000000000000000000000000000000000
00000000000000000000000000000000000000001100000000000000000000000000011111111111111111100000000000000000000001111111111111111011110000001111110000000000011111111111000000000000000000000000000000000000
00000000000000000000000000000000000000011000000000000000000000000000111111111111111111100000000000000001110011111111111111110011110000001111110000000000001111111111000000000000000000000000000000000000
00000000000000000000000000000000001100111100000000000000000000000000111111110011111111100000000000000001111111111101111110001111110000001111110000000000001111111100000000000000000000000000000000000000
00000000000000000000000000000000001111111111111100000000000000000001111111100001111111100000000000000001111111111000100000001111110000001111110000000000000111111100000000000000000000000000000000000000
00000000000000000000000000000000000111111111111111100000000000000001111111000001111111100000000000011111111111111100000000001111111000001111111000000000000111111100000000000000000000000000000000000000
00000000000000000000000000000000000011111111111111111000000000000001111110000001111111000000000011111111111111110000000000001111111000000111111000000000000111111110000000000000000000000000000000000000
00000000000000000000000000000000000111111111111111111000000000000000100000000001111110000000111111111111111111100000000000001111110000000111111100000000000011111110000000000000000000000000000000000000
00000000000000000000000000000000001111111111111111111100000000000000000000000011111111000111111111111001111111000000000000001111110000000011111110000000000001111110000000000000000000000000000000000000
00000000000000000000000000000000000110011111111111111110000000000000000000000011111111111111111110000000111111000000000111001100010000000011111110000000000001111111000000000000000000000000000000000000
00000000000000000000111000000000000000000000111111111110000000000000000000000111111111111111110000000001111000000000000111000000000000000001111111111000000011111111000000000000000000000000000000000000
00000000000000000000111000000000000000000000000111111110000000000000000000001111111111111000000000000011111000000001110011000011000000000001111111111000000111111111000000000000000000000000000000000000
00000000000000000000000000000000000000000000000011111110000000000000000011111111111111100000000000000011111100000111100011111111100000000000111111111100001111110111000000000000000000000000000000000000
00000000000000000000000000000000000000000000000001111110000000000000011111111111111110000000000000000011111100000111110011111111100000000000011111111111111111100111000000000000000000000000000000000000
00000000000000000000000000000000000000000000000001111110000000000111111111111111111110000000000000000111111100001111111110111111110000000000001111111111111110011111100000000000000000000000000000000000
00000000000000000000000000000000001110000000000001111110000000111111111111000111111110000000000000000111111000001111111100011110010000000000000011111111111100011111100001100111000000000000000000000000
00000000000000000000000000000000000010000000011100111100011000111111110000000111111110111000000000000111111000011111111000011110000000000000000001110111000000111111100011100100000000000000000000000000
00000000000000000000000000000000000000000000011101111110111101111110000000000111111110001000000000001111111000011111111000111111100000000000000000000000000001111111100000000000000000000000000000000000
00000000000000000000000000000000000000000000001111111111111111110000000000000111111100000000000000001111111000011111111000111111100000000000000000000000000001111111100000000000000000000000000000000000
00000000000000000000000000000000000000000000011111111111111110000000000000000111111100000000000000011111110000001000000000111111100000000000000000000000000001111111100000000000000000000000000000000000
00000000000000000000000000000000000000000011111111111100000000000000000000000111111100000000000000111111110000000000000000111111000000000000000000000000000011101111000000000000000000000000000000000000
00000000000000000000000000000000000000111111111011100000000000000000000000000111111100000000000000111111100000000000000001111110000000000000000000000000000011000111000000000000000000000000000000000000
00000000000000000000000000000000000000111111110011000000000000000000000000000111111100000000000000111111100000000000000001111100000000000000000000000000000011100011000000000000000000000000000000000000
00000000000000000000000000000000001111001111111111000000000000111000000000000111111100000000000000111111100000000000000011111110000110000000000000000000000001110010000000000000000000000000000000000000
00000000000000000000000000000000011111000100111110000000000000111000000000000111111100000000000000111111100000000000000011111110000010000000000000000000001001111100000000110000000000000000000000000000
00000000000000000000000000001110111110000011111100000000000000000000000000000111111000000000000001111111000000000000000111111100000000000000000000000000011111111100000000100000000000000000000000000000
00000000000000000000000000011111111110000111110000000000000000000000000000000111111000000000000001111111000000000000001111111100000000000000000000000001111111111100000000000000000000000000000000000000
00000000000000000000000000111111111111111111000000000000000000000000000000000111111100000000000001111111100000000000001111111100000000000000000000000001111111110000000000000000000000000000000000000000
00000000000000000000000000111111111111111000000000000000000000000000000000000111111000000000000011111110011100000000011111111110000000000000000000010011111111000000000001100000000000000000000000000000
00000000000000000000000000111111111111110000000000000000000000000000000000000111110000000000000001111110111100000000111111111000000000000000001100111111111100000000000001100000000000000000000000000000
00000000000000000000000000011111100000000000000000000000000000000000000000000111111000000000000001111111111000000111111111100000000000000000001111111110000000000000000000000000000000000000000000000000
00000000000000000000000000000000000000000000000000000000000000000000000000000111111000000000000000111101111111111111111110000000000000000000000000111000000000000000000000000000000000000000000000000000
00000000000000000000000000000000000000000000000000000000000000000000000000000111111100000000000000111101111111001111111100000000000000000000000000111000000000000000000000000000000000000000000000000000
00000000000000000000000000000000000000001110000000000000000000000000000000000111111100111111000000111111111111100111000000000000000000000000000000111000000000000000000000000000000000000000000000000000
00000000000000000000000000000000000000001110000000000000000000000000000000001111100111111111000000111111111111111000000000000000000000000000000000000000000000000000000000000000000000000000000000000000
00000000000000000000000000000000000000000111000000000000000000000000111100111111101111111111000000001111111111111000000000000000000000000000000000000000000000000000000000000000000000000000000000000000
00000000000000000000000000000000000000000111000000000000000000000001111111100111111111111110000000000101111111100000000000000000000000000000000000000000000000000000000000000000000000000000000000000000
00000000000000000000000000000011100000000000000000000000000000000001111111110111111111111110000000000000000000000000000000000000000000000000000000000000000000000000000000000000000000000000000000000000
00000000000000000000000000000011100000000000000000000000000000000001111111111111111111110000000000000000000000000000000000000000000000000000000000000000000000000000000000000000000000000000000000000000
00000000000000000000000000000000000000000000000000000000000000000001111111111111111000000000000000000000000000000000000000000000000000000000000000000000000000000000000000000000000000000000000000000000
00000000000000000000000000000000000000000000000000000000000000000000111111111000000000000000000000000000000000000000000000000000000000000000000000000000000000000000000000000000000000000000000000000000
00000000000000000000000000000000000000000000000000000000000000000000111000000000000000000000000000000000000000000000000000000000000000000000000000000000000000000000000000000000000000000000000000000000
00000000000000000000000000000000000000000000000000000000000000000000000000000000000000000000000000000000000000000000000000000000000000000000000000000000000000000000000000000000000000000000000000000000
00000000000000000000000000000000000000000000000000000000000000000000000000000000000000000000000000000000000000000000000000000000000000000000000000000000000000000000000000000000000000000000000000000000
00000000000000000000000000000000000000000000000000000000000000000000000000000000000000000000000000000000000000000000000000000000000000000000000000000000000000000000000000000000000000000000000000000000
