P1
200 70
00000000000000000000000000000000000000000000000000000000000000000000000000000000000000000000000000000000000000000000000000000000000000000000000000000000000000000000000000000000000000000000000000000000
00000000000000000000000000000000000000000000000000000000000000000000000000000000000000000000000000000000000000000000000000000000000000000000000000000000000000000000000000000000000000000000000000000000
00000000000000000000000000000000000000000000000000000000000000000000000000000000000000000000000000000000000000000000000000000000000000000000000000000000000000000000000000000000000000000000000000000000
00000000000000000000000000000000000000000000000000000000000000000000000000000000000000000000000000000000000000000000000000000000000000000000000000000000000000000000000000000000000000000000000000000000
00000000000000000000000000000000000000000000000000000000000000000000000000000000000000000000000000000000000000000000000000000000000000000000000000000000000000000000000000000000000000000000000000000000
00000000000000000000000000000000000000000000000000000000000000000000000000000000000000000000000000000000000000000000000000000000000000000000000000000000000000000000000000000000000000000000000000000000
00000000000000000000000000000000000000000000000000000000000000000000000000000000000000000000000000000000000000000000000000000000000000000000000000000000000000000000000000000000000000000000000000000000
00000000000000000000000000000000000000000000000000000000000000000000000000000000000000000000000000000000000000000000000000000000000000000000000100000000000000000000000000000000000000000000000000000000
00000000000000000000000000000000000011100000000000000000000000000000000000000000000000000000000000000000000000000000000000000000000000000000000100000000000000000000000000000000000000000000000000000000
00000000000000000000000000000000000011100000000000000000000000000000000000000000000000000000000000000000000000000000000000000000000000000000000000000000000000000000000000000000000000000000000000000000
00000000000000000000000000000000000011110000000000000000000000000000000000000000000000000000000000000000000000000000000000000000000000000000000000000000000000000000000000000000000000000000000000000000
00000000000000000000000000000000000111110000000000000000000000000000000000000000000000000000000000000000000000000000000000000000000000000000000000000000000000000000000000000000000000000000000000000000
00000000000000000000000000000000001110000000000000000000001111000000000000000000000000000000000000000000000000000000000000000000000000000000000000000000000000000000000000000000000000000000000000000000
00000000000000000000000000000000111110000000000000000000111111000000000000000000000011100000000000000000000000000111000000000000001110000000000000000000000000000000000000000000000000000000000000000000
00000000000000000000000000000000011111000000000000001111111100000000000000000000110111110000000000000000000000000111000000000000001110000000000001100000000000000000000000001110000000000000000000000000
00000000000000000000000001110000011111000000000011111111111000000000000000001000111111111100000000000000000000000000000000000000000000000000001111110000000000000000000000001110000000000000000000000000
00000000000000000000000001110000001111100000100011111111000111000000000000011101111111111111110000000000000000000000000000000000000000000000111111111000000000000000000000000000000000000000000000000000
00000000000000000000000000000000001111110000110111111100001111000000000000011111111111111111111110000000000000000000000000001110000000000011111111111110000000000000000000000000000000000000000000000000
00000000000000000000000000000000000111110000111111111100111110000000000000010011111111111111111110000000000000000000000011111111000000000011111111111110000000000000000000000000000000000000000000000000
00000000000000000000000000000000000011111001111111111111111110000000000000000000100111111111111110000000000000000000011111111111000000000111111111111111000000000000000000000000000000000000000000000000
00000000000000000000000000011100000011111001111110111111111100000000111000000000000011111111111100000000000000000000111111111000000000000111111111111111000000000000000000000000000000000000000000000000
00000000000000000000000000011100000001111111111110011100000000000000111000000011100000111111111100000000000000000011111111000000000000001111111000111111100000000000000000000000000000000000000000000000
00000000000000000000000000000000000001111111111111000000000000000000000000000011100000111011111001110000000000000111111000000000000000011111110000011111100000000000000000000000000000000000000000000000
00000000000000000000000000000000000000111111111110000000000000000000001110000000000000111011110001110000000000011111110000000010000000011111100000001111110000000000000000001110000000000000000000000000
00000000000000000000000000000000000000011111111110000000000000000000001110000000000001111111110000000000000000111111100011111111111111111111000000000111110000000000000000001110000000000000000000000000
00000000000000000000000000000000000000001111111110000000000000000000000000000000000001111111111000000000000001110111000111111101111111111111100000000111111000000000000000000000000000000000000000000000
00000000000000000000000000000000000000000111111110000000000000000000000000000000000001111111111000000000011111110111100011111000111111111111110000000111111000000000000000000000000000000000000000000000
00000000000000000000000000000000000000000011111110000111110000000000000000000000000011111111100000000001111111111111100010000000000001111111111100000111111000000000000000000000000000000000000000000000
00000000000000000000000000000000000000000011111111111111111100000000000000000000000011101111000000000111111111111111000000000000000000111111111111000011111000000000000000000000000000000000000000000000
00000000000000000000000000000000000000000011111111111111111110000000000000000000000111101110000000011111011111111111100000000000000000111111111111111111111000000000000000000000000000000000000000000000
00000000000000000000000000000000000000000001111111111111111111000000000000000000000111111110000011111110011110111111111000000000000000111111000011111111111000000000000000000000000000000000000000000000
00000000000000000000000111000000000011100001111111111111111111100000000000000000000001111111111111111110111110111111111110000000000000111111000001111111111000000000000000000000000000000000000000000000
00000000000000000000000000000000000011100011111111111111111111100000000000000000000001111111111111111001111111111011111111000000000000111111000001111111111000000000000000000000000000000000000000000000
00000000000000000000000000000000000000000011111111111111111111110000000000000000001111111111111110000001111111000000111111000000000000111111000000111111111000000000000000000000000000000000000000000000
00000000000000000000000000000000000000000011111111111111111111110000000000000000011111111111110000000001111110000000011111100000000000011111000000000011111100000000000000000000000000000000000000000000
00000000000000000000000000000000000001110111111111111111111111100000000000000001111111111100000000000011111100000000001111000000000000011111100000000011111100000000000000000000000000000000000000000000
00000000000000000000000000111000000001100011111110001111111110000011111111111111111111111000000000000001111100000000001111000000000000011111110000111111111110000000000000000000000000000000000000000000
00000000000000000000000000111000000000000000111000000001111110011111111111111111111111110000000000000001111000000000001111100000000000011111111111111111111111000000000000000000000000000000000000000000
00000000000000000000000000000000000000000000000000000000111111111111111111111111111110000000000000000111111000000000001111110000000000001111111111111110111111110000000000000000111000000000000000000000
00000000000000000000000000000000000000000110000000000000111111111011111111000001111110000000000000000111110000000000001111110000000000000111111111111110111110111000000000000000111000000000000000000000
00000000000000000000000000000000000000000100000000000000111111110000000000000000111111100000000000001111110000000000011111110000000000000011111111111111111100011110000000000000000000000000000000000000
00000000000000000000000000000000000000000000000000000000111111110000000000000000011111100000000000001111110000000000011111100000000000000001111111111111111100011111000000000000000000000000000000000000
00000000000000000000000000000000000000000000000000000000001111110000000000000100111111000000000000001111100000000000011111100000000000000001111001111111111110111111000000000000000000000000000000000000
00000000000000000000000111000000000000000000000000000000001111110000000000000111111111000000000000001111100000000000011111100000000000000011110000100000111111111111100000000000000000000000000000000000
00000000000000000000000111000000000000000000000000000001111111100000000000000011111110000000000000011111000000000000011111000000011100000111100000000000011111111111110000000000000000000000000000000000
00000000000000000000000000000000000000000000000000000011111111100000000000000001111110000000000000011110000000000000111111000000011100000111100000000000001111111111110000000000000000000000000000000000
00000000000000000000000000000000000000000000000000000111111111000000000000000011111110000000000000011110000000000000111110000000000000000111111000000000000111111111111000000000000000000000000000000000
00000000000000000000000000000000000000000000000000011111111111000000000000001111111100000000000000011110000011100001111110000000000000001111110000000000000111111111111100000000000000000000000000000000
00000000000000000000000000000000000000000000000001111111111110000000000000001111111100000000000000111111000011100011111100000000000000001111110000000000000000111111111100000000000000000000000000000000
00000000000000000000000000000000000000000000000111111111111100000000000000000011111000000000000000111110000011100011100100000000000000011111100000000000000000011111111110000000000111000000000000000000
00000000000000000000000000000000000000000000111111111111111000000000000000000011111000000000000000111000000011100111000000000000000000011111100000000000000000011111111000000000000111000000000000000000
00000000000000000000000000000000000000000001111111111111000000000000000000011111111000000000000000111000000000001111100000000000000000011111100000000000000000111111110000000000000000000000000000000000
00000000000000000000000000000000000000111011111111111110000000000000000000011111110000000000001000111110000000011111100000000000000111011111100000000000000001111111000000000000000000000000000000000000
00000000000000000000000000000000000011111111111111111111111000000000000000011111000000000000111000111110000000111110000000000000000111111111100000000001110001111111000000000000000000000000000000000000
00000000000000000000000000000000000111111110001111111100111000000000000000011111000000000000000011111111000001111100000000000000000000111111100000000001110001111111000000000000000000000000000000000000
00000000000000000000000000000000000111111110001111110000000000000000111100111111100000000000000011111111100011110000000000000011100000111111110000000000100001111111000000000000000000000000000000000000
00000000000000000000000000000000000111111111111110000000000000000111111111111111111110000000000000001111111111100000000000000011100000011111110000000001110001111111100000000000000000000000000000000000
00000000000000000000000000000000001111111111111000000000000000001111011111111111111111111100000000000111111000000000000000000000000000011111110000000001110011111111100000000000000000000000000000000000
00000000000000000000000000000000001111111111000000000000000000001111011111111101111111111000000000000011000000000000000000001110000000011111111000000000000011111111100000000000000000000000000000000000
00000000000000000000000000000000001111100000000000000000000000111111111101111101111111111000000000000000000000000000000000001110000000011111111100000000000000111111000000000000000000000000000000000000
00000000000000000000000000000000001111000000000000000000000000111001111000111111111111111000000000000000000000000000000000000000000000011111111000000000000000111100000000000000000000000000000000000000
00000000000000000000000000000000000000000000000000000000000000000000000000000001111001110000000000000000000000000000111000000000000000001111111100111111100011111100000000000000000000000000000000000000
00000000000000000000000000000000000000000000000000000000000000000000000000000000000000000000000000000000000000000000000000000000000000001111111111111111111111111100000000000000000000000000000000000000
00000000000000000000000000000000000000000000000000000000000000000000000000000000000000000000000000000000000000000000000000000000000000000111111111111111111111111100000000000000000000000000000000000000
00000000000000000000000000000000000000000000000000000000000000000000000000000000000000000000000000000000000000000000000000000000000000000011111111111111111111111000000000000000000000000000000000000000
00000000000000000000000000000000000000000000000000000000000000000000000000000000000000000000000000000000000000000000000000000000000000000000111111111111111110000000000000000000000000000000000000000000
00000000000000000000000000000000000000000000000000000000000000000000000000000000000000000000000000000000000000000000000000000000000000000000011111111111110000000000000000000000000000000000000000000000
00000000000000000000000000000000000000000000000000000000000000000000000000000000000000000000000000000000000000000000000000000000000000000000000001111000000000000000000000000000000000000000000000000000
00000000000000000000000000000000000000000000000000000000000000000000000000000000000000000000000000000000000000000000000000000000000000000000000000000000000000000000000000000000000000000000000000000000
00000000000000000000000000000000000000000000000000000000000000000000000000000000000000000000000000000000000000000000000000000000000000000000000000000000000000000000000000000000000000000000000000000000
