P1
200 70
00000000000000000000000000000000000000000000000000000000000000000000000000000000000000000000000000000000000000000000000000000000000000000000000000000000000000000000100000000000000000000000000000000000
00000000000000000000000000000000000000000000000000000000000000000000000000000000000000000000000000000000000000000000000000000000000000000000000000000000000000000001110000000000000000000000000000000000
00000000000000000000000000000000000000000000000000000000000000000000000000000000000000000000000000000000000000000000000000000000000000000000000000000000000000000001111100000000000000000000000000000000
00000000000000000000000000000000000000000000000000000000000000000000000000000000000000000000000000000000000000000000000000000000000000000000000000000000000000000011111000000000000000000000000000000000
00000000000000000000000000000000000000000000000000000000000000000000000000000000000000000000000000000000000000000000000000000000000000000000000000000000000000000111110000000000000000000000000000000000
00000000000000000000000000000000000000000000000000000000000000000000000000000000000000000000000000000000000000000000000000000000000000000000000000000000000000001111110000000000000000000000000000000000
00000000000000000000000000000000000000000000000000000000000000000000000000000000000000000000000000000000000000000000000000000000000000000000000000000000000000001111100000000000000000000000000000000000
00000000000000000000000000000000011000000000000000000000000000000000000000000000000000000000000000000000000000000000000000000000000000000000000000000000000000011110000000000000000000000000000000000000
00000000000000000000000000000000011000000000000000000000000000000000000000000000000000000000000000000000000000000000000000000000000000000000000000000000000000111100000000000000000000000000000000000000
00000000000000000000000000000000000000000000000000000000000000000000000000000000000000000000000000000000000000000000000000000000000000000000000000000000000000111110000000000000000000000000000000000000
00000000000000000000000000000000000000000000000000000000000000000000000000000000000000000000000000000000000000000000000000000000000111000000000000000000000001111100000000000000000000000000000000000000
00000000000000000000000000000000001000000111000000000000000000000000000000000000000000000000000000000000000000000000000000000000000111000000000000000000000011111000000011100000011100000000000000000000
00000000000000000000000000000000011100000111000000000000000000000000000000000000000000000000000000000000000000000000000000000000000000000000000000000000000111110000000000000000011100000000000000000000
00000000000000000000000000000000011111000000000000000000000000000000000000000000000000000000000000000000000000000000000000000000000000000000000000000000001111100000000000000000000000000000000000000000
00000000000000000000000000000000111111100000000000000000000000000000000000000000000000110000000000000000000000000000000000000000000000000000000000111111111111000000000100000000000000000000000000000000
00000000000000000000000000000000001111111000000000000000111000000001110000000000000111111111111000000000000000000000000000000000000000000000000001111111110010000000000000000000000000000000000000000000
00000000000000000000000000000000000111111110000000000000111000001111111000000000011111111111111111001111000000000000000000000000000001110000001000111111100000000000000000000000000000000000000000000000
00000000000000000000000000000000000001111111110000000000000000011111111100000011001111111111111111111111111111000010000000000000000001110000111101111111110000011110000000000000000000000000000000000000
00000000000000000000000000000000000000001111111100000000000000111111111100000011101111111111111111111111111111111111110001100000000000000011111111111110110000011100000000000000000000000000000000000000
00000000000000000000000000000000000000000111111111100000000011111111100100000011111111111111111111111111111111111111111011100000000000000111111111111110010000000000000000000000000000000000000000000000
00000000000000000000000000000000000000000000111111111111100111111111101100000011111111111111111111111111111111111111111111100000000000001111111111111111000000000000000000000000000000000000000000000000
00000000000000000000000111110000000000000000000011111111111111111111111100000011111111110001111111111111111111111111111111100000000000001111111111111111000000000000000000000000000000000000000000000000
00000000000000000000000111110000000000000111000001111111111111111111111000000001111110000000011111111110111111001111111111100000000000001111111111111110000000000000000000000000000000000000000000000000
00000000000000000000000000000000000000000111000000011111111111111111000000000000001100000000001111111110000000000000011111100000000000001111011111111110000000000000000000000000000000000000000000000000
00000000000000000000000000000000000000000000000000011111111111111111000000000000000000000000000111111110000000000000011111000000000000001111011111111110000000000000000000000000000000000000000000000000
00000000000000000000000000000000000000000000000001111111100110011111100001000000000000000000000011111110000000000000011111000000000000011111111111111100000000000000000000000000000000000000000000000000
00000000000000000000000000000001100000000000000001111111000000001111110001111111000000000000000111111110000000000000111110000000111111111111111111111100000000000000000000000000000000000000000000000000
00000000000000000000000000000001110000000000000001111000000000000011111100111111000111111111111111111111000000000001111111000011111111011111110011111100000000000000000000000000000000000000000000000000
00000000000000000000000000000000000000000000000001111000000000000001111000011111100011111111111111111111111111100011111111111111111110001000000111111000000000000000000000000000000000000000000000000000
00000000000000000000000000000000001110000000000001111000000000000111110000000000100011111111111111111111111111110111111111111111111000000000000111111000000000000000000000010000000000000000000000000000
00000000000000000000000000000000001110000000000001111000000011111111111100000000000000111111111111111111111111111111111111111110000000000000000111111000000000000000000000011100000000000000000000000000
00000000000000000000000000000000000000000000000000011000011111111111111110000000000000001111111111111111111111111111111110000000000000000000000111111000000000000000000000000000000000000000000000000000
00000000000000000000000000000000000000000000000000001111111111111111111111000000000000001111111111100000000000000111111100000000000000000000000111110000000000000000000000000000000000000000000000000000
00000000000000000000000000000000000000000000000010001111111111111001111111000000000000111111111111000000000000000111111000000000000000000000001111110000000000000000000000000000000000000000000000000000
00000000000000000000000000000000000000000000000000011111111111110000111111100000000000111111111110000000000000000111110000000000000000000000011111110000000000000000000000000000000000000000000000000000
00000000000000000000000000000000000000000000000000011111100000001001111111111000000000011111111111000000000000000111110000000000000000000000011111110000000000000000000000000011100000000000000000000000
00000000000000000000000000000000000000000000000001001110000000000111111111111100000000000111111111100000000000001111100000000000000000000000011111110000000000000000000000000011100000000000000000000000
00000000000000000000000011100000000000000000000001000000000000000011111111111100000000000000111111100011000000001111100000000000000000000000011111100000000000000000000000000000000000000000000000000000
00000000000000000000000011100000000000000000000001100000000000000011111111111110000000000000011111110011000000001111000000000000000000000000011111100000000000000000000000011100000000000000000000000000
00000000000000000000000000000000000000000000000000000000000000000011110111111110000000000000001111111000000000011111000000000000000000000000011111000000000000000000000000011100000000000000000000000000
00000000000000000000000000000000000000000000000000000000000000000001100111111110000000000000000111111000000000011111000000000000000000000000011111000000000000000000000000000000000000000000000000000000
00000000000000000000000000000000000000000000000000000000000000000000011111111111000000000000000111111000000000011000000000000000000000000000000111000000000000000000000000000000000000000000000000000000
00000000000000000000000000000000000000000000000000000000000000000000111111111111000000000000000111111000000000011000000000000000000000000000000011000000000000000000000000000000000000000000000000000000
00000000000000000000000000000000000000000000000000000000000000000000111111111111000000000000000111111100000000011111000000000000000000000000000110000000000000000000000000000000000000000000000000000000
00000000000000000000000000000000000000000000000000000111000000000001001111111111000000000000000011111100000000011111000000000000000000000000001110000000000000000000000000000000000000000000000000000000
00000000000000000000000000000000000000000000000000000111000000000000000111111111000000000000000001111000000000111111000000000000000000011001111110000000000000000000000000000000000000000000000000000000
00000000000000000000000000000000000000000000000011000000000000000001001111111111000000000000000011110000000000111111000000000000000000111001111100000000000000000000000000000000000000000000000000000000
00000000000000000000000000000000000000000000000011111000000000000001111111111111100000000000111111110000000000111110000000000000000000000011111000000000000000000000000000000000000000000000000000000000
00000000000000000000000000000000000000000000000011111000000000000011111111111111111000000011111111100000000000111110000000000000000000000011111000000000000000000000000000000000000000000000000000000000
00000000000000000000000000000000000000000000000011110000000000000011111111111111111111111111111111100000000000111110000000000000000000000111111100000111000000000000000000000000000000000000000000000000
00000000000000000000000000000000000000000000000011100000000000000011111111111111111111111111111111000000000000111110000000000000000000000111111111111111100000000000000000000000000000000000000000000000
00000000000000000000000000000000000000000000000011100011100000001111111111111111111111111111111110000000000000111110000000000000000000000111111111110111100000000000000000000000000000000000000000000000
00000000000000000000000000000000000011100000000011100011111100011111111111111111111111111111111110000000000000111110000000000000000000001111111011110111000000000000000000000000000000000000000000000000
00000000000000000000000000000000000011100000000011000111111111111111111111111111111111111111110000000000000000111110000000000000000011111111111011111111000000000000000000000000000000000000000000000000
00000000000000000000000000000000000000000000000000000111111111111111111111100011111111111111000000000000000000111100010000000000011111111111111111111110000000000000000000000000000000000000000000000000
00000000000000000000000000000000000000000000000000000000111111111111111111000000111100000000000000000000000000111100010000000001111111111111111111000000000000000000000000000000000000000000000000000000
00000000000000000000000000000000001110000000000000000000000111110000110000000000000000000000000000000000000000000000000000000001111111111111111110000000000000000000000000000000000000000000000000000000
00000000000000000000000000000000000000000000000000000000000000000000000000000000000000000000000000000000000000000000000000000001111111111110000010000000000000000000000000000000000000000000000000000000
00000000000000000000000000000000000000000000000000000000000000000000000000000000000000000000000000000000000000011100000000000001111111110000000000000000000000000000000000000000000000000000000000000000
00000000000000000000000001110000000000000000000000000000000000000000000000000000000000000011100000000000000000000000000000000011111100000000000000000000000000000000000001110000000000000000000000000000
00000000000000000000000001110000000000000000000000000000000000000000000000000000000000000011100000000000000000000000000000000011110000000000000000000000000000000000000001110000000000000000000000000000
00000000000000000000000000000000000000000000000000000000000000000000000000000000000000000000000000000000000000000000000000000000000000000000000000000000000000000000000000000000000000000000000000000000
00000000000000000000000000000000000000000000000000000000000000000000000000000000000000000000000000000000000000000000000000000000000000000000000000000000000000000000000000000000000000000000000000000000
00000000000000000000000000000000000000000000000000000000000000000000000000000000000000000000000000000000000000000000000000000000000000000000000000000000000000000000000000000000000000000000000000000000
00000000000000000000000000000000000000000000000000000000000000000000000000000000000000000000000000000000000000000000000000000000000000000000000000000000000000000000000000000000000000000000000000000000
00000000000000000000000000000000000000000000000000000000000000000000000000000000000000000000000000000000000000000000000000000000000000000000000000000000000000000000000000000000000000000000000000000000
00000000000000000000000000000000000000000000000000000000000000000000000000000000000000000000000000000000000000000000000000000000000000000000000000000000000000000000000000000000000000000000000000000000
00000000000000000000000000000000000000000000000000000000000000000000000000000000000000000000000000000000000000000000000000000000000000000000000000000000000000000000000000000000000000000000000000000000
00000000000000000000000000000000000000000000000000000000000000000000000000000000000000000000000000000000000000000000000000000000000000000000000000000000000000000000000000000000000000000000000000000000
00000000000000000000000000000000000000000000000000000000000000000000000000000000000000000000000000000000000000000000000000000000000000000000000000000000000000000000000000000000000000000000000000000000
