P1
200 70
00000000000000000000000000000000000000000000000000000000000000000000000000000000000000000000000000000000000000000000000000000000000000000000000000000000000000000000000000000000000000000000000000000000
00000000000000000000000000000000000000000000000000000000000000000000000000000000000000000000000000000000000000000000000000000000000000000000000000000000000000000000000000000000000000000000000000000000
00000000000000000000000000000000000000000000000000000000000000000000000000000000000000000000000000000000000000000000000000000000000000000000000000000000000000000000000000000000000000000000000000000000
00000000000000000000000000000000001000000000000000000000000000000000000000000000000000000000000000000000000000000000000000000000000000000000000000000000000000000000000000000000000000000000000000000000
00000000000000000000000000000000001111000000000000000000000000000000000000000000000000000000000000000000000000000000000000000000000000000000000000000000000000000000000000000000000000000000000000000000
00000000000000000000000000000000011111111000000000000000000000000000000000000000000000000000000000000000000000000000000000000000000000000000000000000000000000000000000000000000000000000000000000000000
00000000000000000000000000000000011111111110000000000000000000000000000000000000000000000000000000000000000000000000000000000000000000000000000000000000000000000000000000000000000000000000000000000000
00000000000000000000000000000000000011111111110000000000000000000000000000000000000000000000000000000000000000000001110000000000000000000000000000000000000000000000000000000000000000000000000000000000
00000000000000000000000000111000000000011111111100000000000000000000000000000000000000000000000000000011100000000001110000000000000000000000000000000000000000000000000000000000000000000000000000000000
00000000000000000000000000111000000000000111111111000000000000000000000000000000000000000000000000000011100000000000000000000000000000000000000000000000000000000000000000000000000000000000000000000000
00000000000000000000000000000000000000000000111111111000000000000000000000000000000000000000000000000000000000000000000000000000000000000000000000000000000000000000000000000000000000000000000000000000
00000000000000000000000000000000000000000000001001111110000000000000000000000000000000000000111100000000011100001110000000000000000000000000000000000000000000000000000000000000000000000000000000000000
00000000000000000000000100000000000000000000000000111000100000000000000000000000000000000111111000000000001100001111110000000000000000000000000000000000001110000000000000000000000000000000000000000000
00000000000000000000000111000000000000000000000000010001111000000000000000000000000000011111111000000000000000000001110000000000000000000000000000000000001110000000000000000000000000000000000000000000
00000000000000000000000000000000000000000000000000000111111000000000000000000000000111111111110000000000000000000000000000000000000000000000000000000000000000000000000000000000000000000000000000000000
00000000000000000000000000000000000000000000000000000001100011111000000000000000001111111111110000000000000000000000000000000000000000000000000000000000000000100000000000000000000000000000000000000000
00000000000000000000000000000000000000000000000000000000000011011111000000000000001110011111110000000000000000000000000000000000000000000000000000000000001111111000010000000000000000000000000000000000
00000000000000000000000000000000111100000000000000000000000010001111110000111110010000011111100000000000000111000000000000000000000000000000000000000000111001111111110000000000000000000000000000000000
00000000000000000000000000000000111111100000000000000000000000011100111111111111111001111111000000000000001111110000000000000000000000000000000000000011111101111111001000000001110000000000000000000000
00000000000000000000000000000000111111111111110000000000000000000000011111111111111111111111000000000000001111111000000000000000000000000000000000000111111111111111001000000001110000000000000000000000
00000000000000000000000000000000111000111111111110000000000000000000111111011111111111111111000000000000011111111100000000000000000000000000000000111111111111111111110000000000000000000000000000000000
00000000000000000000000000000000111000011111111111111000000000000000111111001001111111111000000000000000001111101111000000000000000000000000000000111111111111111111110000000000000000000000000000000000
00000000000000000000000000000000111110001111111111111000000000000000111111110000111111000000000000000000000111101111100000000000000000000000000001111111111111111111110000000000000000000000000000000000
00000000000000000000000000000000111110000000111111000000000000000001111111110001111111100000000000000000000001111111111000000000000000000000000111111111111111011111110000000000000000000000000000000000
00000000000000000000000000000000111110000000000000000000000000000001111110010000111111110000000000000000000000111111111100000000000000000000001111111111110000001111111000000111000000000000000000000000
00000000000000000000000000000000111110000000000000000000000000000011111100000000001111111111111000000000000000001111111111000000000000000000011111111100000000001111111000000111000000000000000000000000
00000000000000000000000000000001111111110000000000000000000000000011111000000000000011111111111111000000000000000111111111100000000000001100111111111000000000000111111000000000000000000000000000000000
00000000000000000000000000000001111111110000000000011100000000000011110000000000000000111111111111111100000000000111111111111000000011111111111111110000000000000111111000000000000000000000000000000000
00000000000000000000000000000001111110000000000000011100000000000111100000000000000000000000011111111111100011111111111111111110001111111111101111000000000000000111111100000000000000000000000000000000
00000000000000000000000000000001111110000000000000000000000000001111100000000100100000000000000001111111110111111111111111001110011111110000000100000000000000000111111111000000000000000000000000000000
00000000000000000000111000000001111111110001000000000000000000001111000000011111110000000000000000001111111111111111111110000000111111000000000000000000000000000111111111000000000000000000000000000000
00000000000000000000111000000011101111111111111000000000000000001111000000111111111110000000000010000000001111111111111111000001111100000000000000000000000000000000111100000000001110000000000000000000
00000000000000000000000000000001101111111111111100000000000000001111111111111111111111000000000011100000000000000000000000001111111100000000000000000000000000001000011000000000001110000000000000000000
00000000000000000000000000000001111111111111111110000000000000011111111111111111111111000000000000000000000000000000000000000111111111000000000000000000000000001110001000000000000000000000000000000000
00000000000000000000000000000001111111110111111110000000000000011111111111111111111111000001110000000000001000000000000000000111111110000000000000000000000000000111110000000000000000000000000000000000
00000000000000000000000000000001111110000001111110000000000000111111111000111111111111000000000000000000001000000000000000001111111110000000000000000000000000000111110000000000000000000000000000000000
00000000000000000000000000000001111100000000111110000000000000111111111000011111111111000000000000000000000000000000000000111111111110000000000000000000000000001111110000000000000000000000000000000000
00000000000000000000000000000001111000000000011110000000000001111110111000011111111111000000000000000000000000000000000000011111111100000000000000000000000000011111110000000000000000000000000000000000
00000000000000000000000000000000000000000000011111000000000001111000000000011111111111000000000000000000000000000000000000011111110000000000000000000000000000011111100000000000000000000000000000000000
00000000000000000000000000000000000000000000011111000000000001111000000000011111111111000000000000000000000000000000111111111110000000000000000000000000000000111111100000000000000000000000000000000000
00000000000000000000000000000000000000000000011111100000000000000000000000111111111111100000000000000000000000000011111111111100000000000000000000000000000001111110000000000000000000000000000000000000
00000000000000000000000000000000000000000000011111100000000000000000000000111110111111100000000000000000000000000111111111000000000000000000000000000000000001111000000000000000000000000000000000000000
00000000000000000000000000000000000000000000011111000111000000000000000000111110111111000000000000000000000000001111111110000000000000000000000000000000000011111000000000000000000000000000000000000000
00000000000000000000000000000000000000000000011111000111000000000000000001111111111110000000000000000000000000011111111100000000000000000000000000000000000011111110000000000000000000000000000000000000
00000000000000000000000000000000000000000000111110000000000000000000000001111111111100000000000000000000000001111111111000000000000000000000000000000000000111111100000000000000000000000000000000000000
00000000000000000000000000000001100000000001111110000000000000000000000001111111111100000000000000000000000011110111110000000000000000000000000000000000000111111100000000000000000000000000000000000000
00000000000000000000000000000011110001110011111100000000000000000000000011111111111111100000000000000000000011110011000000000000000000000000000000000000000111111000000000000011100000000000000000000000
00000000000000000000000000000111110001111111111100000000000000000000000011111111111011100000000000000000000111111100000000000000000000001110000000000000001111111000000000000000000000000000000000000000
00000000000000000000000000000111111111111111111111000000000000000000000111111111110000000000000000000000001111111100000000000000000000001110000000000000001111110000000000000000000000000000000000000000
00000000000000000000000000000011111111111111001111000000000000000000000111111111110000000000000000000000011111111100000000000000000000000000000000000000011111110000000000111000000000000000000000000000
00000000000000000000000000000011111111111110001110000011110000000000001111111111100000000000000000000000111011110000000000000000000000000000000000000000011111100000000000111000000000000000000000000000
00000000000000000000000000000001111111111110001110000111110000000000011111110111000000000000000000000000111011100000000000000000000001110000000000000000111111100000000000000000000000000000000000000000
00000000000000000000000000000000111111111110000000000001100000000000111111110011000000000000000000000001111111000000000000000000000001110000000000000001111111000111000000000000011100000000000000000000
00000000000000000000000000000000011111001110000000111001100001110000111111111100000000000000000000000011111111000000000000000000000000000000000000000011111110000001000000000000011100000000000000000000
00000000000000000000000000000000000000000000000000111111100000000001111111100000000000000000000000000100111110000000000000000000000000000000000000000011111100000000000000000000000000000000000000000000
00000000000000000000000000000000000000000000000000011111110000000111111111000000000000000000000000000110111100000000000000000000000000000000000000000111111100000000000000000000000000000000000000000000
00000000000000000000000000000000000000000000000000011111111100011111111001000000000000111000000000001111111000000000000000000000000000000000000000001111001000000000000000000000000000000000000000000000
00000000000000000000000000000000000000000000000000011111111111111111110000000000000000111000000000011111111000000000000000000000000000000000000000001111000000000000000000000000000000000000000000000000
00000000000000000000000000000000000000000000000000011111111111001110010000000000000000000000000000011111110000000000000000000000000000000000000000011111111111000000011111000000000000000000000000000000
00000000000000000000000000000000000000000000000000001111111000000100000000111000000000000000000000001111100000000000000000000000000000000000000000011111111111111111111111100000000000000000000000000000
00000000000000000000000000000000000000000000000000000000110000110000000000111000000000000000000000000011100000000000000111000000000000000000000000011111111111111111111111100000000000000000000000000000
00000000000000000000000000000000000000000000000000000000000000000000000000000000000000000000000000000000000000000000000111000000000000000000000000011111111111111111111111100000000000000000000000000000
00000000000000000000000000000000000000000000000000000000000000000000000000000000000000000000000000000000000000000000000000000000000000000000000000011111111111111111111111100000000000000000000000000000
00000000000000000000000000000000000000000000000000000000000000000000000000000000000000000000000000000000000000000000000000000000000000000000000000011111111111111111111111100000000000000000000000000000
00000000000000000000000000000000000000000000000000000000000000000000000000000000000000000000000000000000000000000000000000000000000000000000000000011111100001111111000000000000000000000000000000000000
00000000000000000000000000000000000000000000000000000000000000000000000000000000000000000000000000000000000000000000000000000000000000000000000000000000000000000000000000000000000000000000000000000000
00000000000000000000000000000000000000000000000000000000000000000000000000000000000000000000000000000000000000000000000000000000000000000000000000000000000000000000000000000000000000000000000000000000
00000000000000000000000000000000000000000000000000000000000000000000000000000000000000000000000000000000000000000000000000000000000000000000000000000000000000000000000000000000000000000000000000000000
00000000000000000000000000000000000000000000000000000000000000000000000000000000000000000000000000000000000000000000000000000000000000000000000000000000000000000000000000000000000000000000000000000000
00000000000000000000000000000000000000000000000000000000000000000000000000000000000000000000000000000000000000000000000000000000000000000000000000000000000000000000000000000000000000000000000000000000
