P1
200 70
00000000000000000000000000000000000000000000000000000000000000000000000000000000000000000000000000000000000000000000000000000000000000000000000000000000000000000000000000000000000000000000000000000000
00000000000000000000000000000000000000000000000000000000000000000000000000000000000000000000000000000000000000000000000000000000000000000000000000000000000000000000000000000000000000000000000000000000
00000000000000000000000000000000000000000000000000000000000000000000000000000000000000000000000000000000000000000000000000000000000000000000000000000000000000000000000000000000000000000000000000000000
00000000000000000000000000000000000000000000000000000000000000000000000000000000000000000000000000000000000000000000000000000000000000000000000000000000000000000000000000000000000000000000000000000000
00000000000000000000000000000000000100000000000000000000000000000000000000000000000000000000000000000000000000000000000000000000000000000000000000000000000000000000000000000000000000000000000000000000
00000000000000000000000000000000001110000000000000000000000000000000000000000000000000000000000000000000000000000000000000000000000000000000000000000000000000000000000000000000000000000000000000000000
00000000000000000000000000000000111110000000000000000000000000000000000000000000000000000000000000000000000000000000000000000000000000000000000000000000000000000000000000000000000000000000000000000000
00000000000000000000000000000000011111000000000000000000000000000000001110000000000000000000000000000000000000000000000000000000000000000000000000000000000000000000000000000000000000000000000000000000
00000000000000000000000000000000011111000000111000000000000000000000001110000000000000000000000000000000000000000000000000000000000000000000000000000000000000000000000000000000000000000000000000000000
00000000000000000000000000000000001111100000111000000000000000000000000000000000000000000000000000000000000000000000000000000000000000000000000000000000000000000000000000000000000000000000000000000000
00000000000000000000000000000000001111110000000000000000000000000000000000000000000000000000000000000000000000000000000000000000000000000000000000000000000000000000000000000000000000000000000000000000
00000000000000000000000000000000000111110000000000000000000000000000000000000000011100000000000000000000000000000000000000000000000000000000000000000000000000000000000000000000000000000000000000000000
00000000000000000000000000000000000011111000000000000000000000000011111100000000011100000000000000000000000000000000000000000000000000000000000000000000000000000000000000000000000000000000000000000000
00000000000000000000000000000000000011111000000000000000000010000111111000000000000001110000000000000000000000000000000000000000000000000000000000000000000000000000000000000000000000000000000000000000
00000000000000000000000000000000000001111100000000000111111111001111110000001111100001110000000000000000000000000000000000000000000000000000000000000000000000000000000000000000000000000000000000000000
00000000000000000000000000000000000001111100000001111111111111111111100000111111111111110000000000000000000000000000000000000000000000000000000000000000011000000000000000000000000000000000000000000000
00000000000000000000000000000000000000111110000011110111111111111111000001111111111111111100000011100000000000000000111111100000000000000000111000000001111110111100000000000000000000000000000000000000
00000000000000000000000000000000000000011111000011100011111111111111000011111111111111111111100011100000000000001111111111110000000000000000111001111110011111111111000000000000000000000000000000000000
00000000000000000000000000000000000000001111100111000100000111111110000111111110000001100111110000000000000000111111111111111000000000000000000001111110001111111111000000000000000000000000000000000000
00000000000000000000000000000000000000000100011111101110000111111100000111111100000000000011100000000000000001111111111011111110000000000000000011111100011111111111100000000000000000000000000000000000
00000000000000000000000000000000000000000000111111111111111111111000001111110000000000000001110000000000111011111111111011110111000000000000011111111000000001111111100000000000000000000000000000000000
00000000000000000000000000000000000000000001111111111111111110000000001111100000000000000000111000000000000111111111111111100111110000000001111111110000000001111111100000000000000000000000000000000000
00000000000000000000000000000000000000000000111111100000000000000000011111100000000000000000011000000000000111111111111110011111110000000011111111000000000001111111100000000000000000000000000000000000
00000000000000000000000000000000000000000000011111000000000000000000001111100000000000000000001000000000011111111111011100111111111000000011111110000000000000110111100000000000000000000000000000000000
00000000000000000000000000000000000000000000011111000000000000000000000111000000000000000000011100000000011111111111001110111111111110000011111110000001110000110111000000000000000000000000000000000000
00000000000000000000000000000000000000000001100111100000000000000000000111000000000000000000011100000000111111111111111100011111111111000011111100000001110000111110000000000000000000000000000000000000
00000000000000000000000000000000000000000001100011111100000000000000011111000111000000000000000000011100111111110111111000001111111111000011111100000000000000001111000000000000000000000000000000000000
00000000000000000000000000000000000001110001000111111110000000000000011111000111000000000000000000011100111111110111111000000111111111000011111100000000000000001111000000000011000000000000000000000000
00000000000000000000000000000000000001110001100111111111100000000000011111000000000000000000000000000000111101111111000000001111111110000011111000000000000001111110000000000000000000000000000000000000
00000000000000000000000000000000000000000011111001111111110000000000001111000000000000000000000000000001111101111110000000001111111110000001111000000000000001111100000000000000000000000000000000000000
00000000000000000000000000000000000000000011111101111111111100000000001111000000111000000000000000000011111111111100000000001111111111000011100000000000000011111100000000000000000000000000000000000000
00000000000000000000000000000000000000000111111111111111111111111000001110000000111000000111000000000011111111111100000000001111111111000111000000000000000111111000000000000000000000000000000000000000
00000000000000000000000000000000000000000011111111111111111111111000001110010000110000000111000000000011111111111100000000001111111111000111000000000000001111110000000000000000000000000000000000000000
00000000000000000000000000000000000000000011001111111111111111111100001111110011110001000000000000000111111111111000000000011111111111000000000000000000011111110000000000000000111000000000000000000000
00000000000000000000000000000000000000000000000111111111111111111111111111100111111111110000000111000111111111110000000000011111111111000000000000000011111111110000000000000000111000000000000000000000
00000000000000000000000000000000000000000000000111111111110000111111111111101111111111111000111000001111111111111000000000111111111111111000000000000011111111111100000000000000000000000000000000000000
00000000000000000000000000000000000000000000000001111111110000011111111111111111111111111101111100111111111111111111111111111111111100000110000000000111111111111110000000000000000000000000000000000000
00000000000000000000000000000000000000000000000001111111110011100011111111111111111111111111111111111111111111111111111111111111111100000110000000001111111111111111000000000000000000000000000000000000
00000000000000000000000000000000000000000000000000111111110011100000001111111111111111101111111111111111111111111111111111111111111110000000000000001111100111111111000000000000000000000000000000000000
00000000000000000000000000000000000000000000000000111111110000000000000111111100111111000111111111111111111111111111111111111111111111000000000000000000000001111111100000000000000000000000000000000000
00000000000000000000000000000000000000000000000000011111100000000000000001111000000000000011110000011111111111000000000111111111111111100100000000000000000000111111100000000000000000000000000000000000
00000000000000000000000001110000000000000000000000001110000000000000000001111000000000000011110000001111111110000000000111111111111111111111110000000000000000111111100000000000000000000000000000000000
00000000000000000000000001110000000000000000011100001110000000000000000011111000000000000001110000000111111100000000001111111111110000111111111100000000000000111111100000000000000000000000000000000000
00000000000000000000000000000000000000000000011100011111100000000000000001111110000000000001111000000111111000000000001111111111100000000111111111000000000000011111100000000000000000000000000000000000
00000000000000000000000000000000000000000000000000011111100000000000000001111111110000000001000000001111111100000000011111111111000000000000111111110000000000011110000111000000000000000000000000000000
00000000000000000000000000000000000000000000000000111111100000000000000011111001110000000000000000001111111100000000111111111110000000000000001111111100000000011110000111000000000000000000000000000000
00000000000000000000000000000000000000000000000000111111000000000000000011110000000000000000011000000011111100000000111101111110000000000000000011111110000000011111100000000000000000000000000000000000
00000000000000000000000000000000000000000000000000111100000011100000000001110000000000000000111000000011111100000001111101111100000000000000000000111111100000111111100000000000000000000000000000000000
00000000000000000000000000000000000000110000000000111100000011100000000001110000000000000001111000001111111110001111111111111000000000000000000000001111111111111111100000000000000000000000000000000000
00000000000000000000000000000000000011111000000001111000000000000000000001100000000000000001111000001111111111111111111111110000000000000000000000000011111111111111000000000000000000000000000000000000
00000000000000000000000000000000000011011100000111111000000000000000000001110000000000000001111000001110111111111111111111110000011100000000000000000001111111111111000000000000000000000000000000000000
00000000000000000000000000000000000011011100001111110000000000000000000001111000000000000001111000000100011111111111111111000000011100000000000000000000111111111110000000000000000000000000000000000000
00000000000000000000000000000000000011111100001111100000000000000000000000111000000000000000011000000110001111111111111110000000000000000000000110000000001111111110000000000000000000000000000000000000
00000000000000000000000000000000000011111100011111000000000000000000000000111000000000000000001000000011011111111111111100000000000000000000000110000000000111111100000000000000000000000000000000000000
00000000000000000000000000000001110011111110111110000000000000000000000000111000000000000001111000000011111111111111111000000000000000000000001110000000000111111100000000000000000000000000000000000000
00000000000000000000000000000001110001111111111100000000000000000000000000011000000000000011110000000000001111111111100000000000000000000000001100000000000111111111000000000000000000000000000000000000
00000000000000000000000000000000000001111111110000000000000000000000000111011100000000000011110000000000000111111111000000000000000000000000001100000000111111111111100000000000000000000000000000000000
00000000000000000000000000000000000000000000000000000111000000000000000111011110000000000011100000000000000001000000000000000000000000000000001111111111111111101111110000000000000000000000000000000000
00000000000000000000000000000000000000000000000000000111000000000000000000001110000000000111100000000000000000000000000000000000000000000000000111111111111110001111111000000000000000000000000000000000
00000000000000000000000000000000000000000000000000000000000000000000000000000111000000000111000000000000000000000000000000000000000000000000000111111111111000001111111100000000000000000000000000000000
00000000000000000000000000000000000000000000000000000000000000000000000000000111100000000111000000000001110000000000000000000000000000000000001111111111110000000000111000000000000000000000000000000000
00000000000000000000000000000000000000000000000000000000000000000000000000000011110000001111000000000001110000000000000000000000000000000000000111111100000000000000000000000000000000000000000000000000
00000000000000000000000000000000000000000000000000000000000000000000000000000001111000111110000000000000000000000000000000000000000000000000000000000000000000000000000000000000000000000000000000000000
00000000000000000000000000000000000000000000000000000000000000000000000000000000111111111000000000000000000000000000000000000000000000000000000000000000000000000000000000000000000000000000000000000000
00000000000000000000000000000000000000000000000000000000000000000000000000000000011111110000000000000000000000000000000000000000000000000000000000000000000000000000000000000000000000000000000000000000
00000000000000000000000000000000000000000000000000000000000000000000000000000000000000000000000000000000000000000000000000000000000000000000000000000000000000000000000000000000000000000000000000000000
00000000000000000000000000000000000000000000000000000000000000000000000000000000000000000000000000000000000000000000000000000000000000000000000000000000000000000000000000000000000000000000000000000000
00000000000000000000000000000000000000000000000000000000000000000000000000000000000000000000000000000000000000000000000000000000000000000000000000000000000000000000000000000000000000000000000000000000
00000000000000000000000000000000000000000000000000000000000000000000000000000000000000000000000000000000000000000000000000000000000000000000000000000000000000000000000000000000000000000000000000000000
00000000000000000000000000000000000000000000000000000000000000000000000000000000000000000000000000000000000000000000000000000000000000000000000000000000000000000000000000000000000000000000000000000000
