P1
200 70
00000000000000000000000000000000000000000000000000000000000000000000000000000000000000000000000000000000000000000000000000000000000000000000000000000000000000000000000000000000000000000000000000000000
00000000000000000000000000000000000000000000000000000000000000000000000000000000000000000000000000000000000000000000000000000000000000000000000000000000000000000000000000000000000000000000000000000000
00000000000000000000000000000000000000000000000000000000000000000000000000000000000000000000000000000000000000000000000000000000000000000000000000000000000000000000000000000000000000000000000000000000
00000000000000000000000000000000000000000000000000000000000000000000000000000000000000000000000000000000000000000000000000000000000000000000000000000000000000000000000000000000000000000000000000000000
00000000000000000000000000000000000000000000000000000000000000000000000000000000000000000000000000000000000000000000000000000000000000000000000000000000000000000000000000000000000000000000000000000000
00000000000000000000000000000000000000000000000000000000000000000000000000000000000000000000000000000000000000000000000000000000000000000000000000000000000000000000000000000000000000000000000000000000
00000000000000000000000000000000000000000000000000000000000000000000000000000000000000000000000000000000000000000000000000000000000000000000000000000000000000000000000000000000000000000000000000000000
00000000000000000000000000011100000000000000000000000000000000000000000000000000000000000000000000000000000000000000000000000000000000000000000000000000000000000000001000000000000000000000000000000000
00000000000000000000000000011100000000000000000000000000000000000000000000000000000000000000000000000000000000000000000000000000000000000000000000111000000000000000001000000000000000000000000000000000
00000000000000000000000000000000001000000000000000000000001000000000000111000000000000000000000000000000000000000000000000000000000000000000000000111111000000000000000000000000000000000000000000000000
00000000000000000000000000000000011100000000000000000000011110000000000111100000000000000000000000000000000000000000000000000000000000000000000000000111000000001110000000000000000000000000000000000000
00000000000000000000000000000000011110000000000000000100111000000000111111100000000000000000000000000000000000000000000000000000000000000000000000000000000000001110000000000000000000000000000000000000
00000000000000000000000000000000001111100000000001111111110000000000111000000000000011111100000000000000000000000000000000000000000000000000000000000000000000000000000000000000000000000000000000000000
00000000000000000000000000000000000111110000000011111111100110000000000000000000001111111111000000000000000000000000000000000000000000000000000000000000000000000000000000000000000000000000000000000000
00000000000000000000000000000000000111111000011111111111101110000000000000000000011111111111100100000000000000000000000000000000000000000000000000000000000000000000000000000000000000000000000000000000
00000000000000000000000000000000000011111111111111111111111100000000000000000001111111111111111100000000000011000000000000000000000000000000000000000000000000000000000000000000000000000000000000000000
00000000000000000000000000000000000001111111111111111111000000000000000000000111111111111111111100000000001111111100000000000000000000000000000011111110000000000000000000000000000000000000000000000000
00000000000000000000000000000000000000111111111111111100000000000000000000011111111111111111000000001111111111111000110001000000000000000000001111111111100000000000000000000000000000000000000000000000
00000000000000000000000000000000000000111111111111110000000000000000000000011111111111111100000001111111111111111101111111100000000011100000111111111110011000000000000000000000000000000000000000000000
00000000000000000000000000000000000000111111111111110000000000001110000111111100111111111111110011111111111111111111111111100011000111100001111111111110111000000000000000000000000000000000000000000000
00000000000000000000000000000000000000011111111111111110000000011111001111111100000111111111111111111111111111111111111111110001111111100011111111111111111100000011100000000000000000000000000000000000
00000000000000000000000000000000000000011111111111111111111000111111111111111111000011111111110000000000111000000111111111110001111111100011101111111111111110000000000000000000000000000000000000000000
00000000000000000000000000001110000000011111100000111001111100011110111111111111100011111111000000000000010000000011111110000010001111110111101111111111111110000000000000000000000000000000000000000000
00000000000000000000000000001110000000011111100000000000111110011100011111111111100011100111000000000000000000000001111111000000000001111111111110000111101110000000000000000000000000000000000000000000
00000000000000000000000000000000000000011111100000000000000011111110000111111100000000000111000000000000000000000001111111000000000000111111111110000001001100000000000000000000000000000000000000000000
00000000000000000000000000000000000000001111110000000000000000000000000001111000000000000000000000000000000000000000111111000000000000011111111111000000111110000000000000000000000000000000000000000000
00000000000000000000000000000000000000001111110000000000000000000000000001111000000000000000000000000000000000000001110111000000000000001111111111110000011111100000000000000000000000000000000000000000
00000000000000000000000000000000000000001111100000000000000000000000000111110000000111100000000000000000000000000000110111000000000000011100001111001000011111100000000000000000000000000000000000000000
00000000000000000000000001110000000000001111100000111100000000000000000111110000111111111000000000000000000000000000111111000000000000000000000010001000001111110000000000000000000000000000000000000000
00000000000000000000000001110000000000001111100011100011110000000000000111111011000001111110000000000000000000000001111111000000000000000000000000000110000111111100000000000000000000000000000000000000
00000000000000000000000000000000000000001111100111110111111110000000001111111111100001111111000000000000000001110011111110000000000000000000000000000111100111111100000000000000000000000000000000000000
00000000000000000000000000000000000000001111101111111111111110000000001111111111111111111111000000000000000001111111111100000000000000000000000000000011111111110000000000000000000000000000000000000000
00000000000000000000000000000000000000001111111111111111111100000000001111111111111111111111100000000000000011111111111000000000000000000000000000000001111111100000000000000000000000000000000000000000
00000000000000000000000000000000000000000111110111111111111000000000001111111111110011111011100000000000000011111111111100000000000000000000000000000000111111110000000000000000000000000000000000000000
00000000000000000000000000000000000000000111110011111111111000000000001111111110000000111011100000000000000001111111111100000000000000000000000000000000111111111000000000000000000000000000000000000000
00000000000000000000000000000000000000000111111100001111111110000000001111111100000000011111100000000000000000001111111110000000000000000000000000000000111111111100011100000000000000000000000000000000
00000000000000000000000000000000000000000111111000000000111110000000001111111100000000001111100000000000011000000111111111000000000000000000000000000011111111111110011100000000000000000000000000000000
00000000000000000000000000000000000000000011110000000000111110000000001111111000000000001111110000000000011000000011111111100000000000000000000000000011111111111111000000000000000000000000000000000000
00000000000000000000000000000000000000000011000000000000111110000000001111111000000000000111110000000000000000000001111111100011100000000000000000001111111110011110000000000000000000000000000000000000
00000000000000000000000000011100000000000000000000000000111110000000000111111000000000000111110000000000000000000000111111100011100000000000000000111111111100011100011000111000000000000000000000000000
00000000000000000000000000011100000000000000000000000000111111000000000111100001110000000111110000000000000000000000111111100000000000000000000000111111111100111100011000111000000000000000000000000000
00000000000000000000000000000000000000000000000000000000100111111000000111000001110000000111110000000000000000000000011111100000000000000000000000011111111111111000011000000000000000000000000000000000
00000000000000000000000000000000000000000000000000000000000111111000000111100000000000001111110000000000000000000000011111110000000000000000000000111111111111111100111000000000000000000000000000000000
00000000000000000000000000000000000011100000000000000000011111111000000111110000000000001111110000000000000000000000011111100000000000000000000001111111111111111110010000000000000000000000000000000000
00000000000000000000000000000000000011100000000000000000011111111000000111111000000000001111100000000000000000000000011111100000000000000000000001111000111111111110000000000000000000000000000000000000
00000000000000000000000000000000000000000000000000000000111110000000000011111000000000001111100000000000000000000000011111000000000000000000000000100000000111111110000000000000000000000000000000000000
00000000000000000000000000000000000000000000000000000000111110000000000011110000000000011100100000000000000000000000001111000000000000000000000000000000000111111100000000000000000000000000000000000000
00000000000000000000000000110000000000000000000011100000001110000000000001110000000000011100000000000000000000000000011111000000000000000000000000000000000111111100000000000000000000000000000000000000
00000000000000000000000000110000000000000000000011100000001100000000000001111000000000111111000000000000000111000000011111000000000000000000000000000000000000111111100000000000000000000000000000000000
00000000000000000000011101110000000000000000000000000000011100000000000000111111000000111111000000000000011111100000011110000000000000000000000000000000000000011111110000000000000000000000000000000000
00000000000000000000011100000000000000011100000000000000011100000000000000001111110001111110000000000000011111111100000000000000000000000000000000000000000000001111110000000000000000000000000000000000
00000000000000000000000000000000000000011100000000000000001100000000000000000111111111111110000000000000000111111101100000000000000000000000000000000000000000001111110000000000000000000000000000000000
00000000000000000000000000000000000000000000000000000010011000000000000000001111111111111100000000000000000011110011110000000000000000000000000000000000000000001111110000000000000000000000000000000000
00000000000000000000000000000000000000000000000000000111111000000000000000000111111111111000000000000000000011110011000000000000000000000000000000000000000000001111110000000000000000000000000000000000
00000000000000000000000000000000000000000000000000001111111000111000000000000001111111111000000000000000000011111100000000000000000000000000000000000000000000001111111000000000000000000000000000000000
00000000000000000000000000000000000000000001111111111111110000111000000000000000111111000000000001110000000000100000000000000000000000000000000000000000000000001111111000000000000000000000000000000000
00000000000000000000000000000000000000000001111111111111100000000000000000000000000000000000000001110000000000000000000000000000000000000000000000000000000000001111111000000000000000000000000000000000
00000000000000000000000000000000000000000001111111111111100000000000000000000000000000000000001110000000000000000000000000000000000000000000000000000000000000001111110000000000000000000000000000000000
00000000000000000000000000000000000000000000111111000110000000000000000000000000000000000000001110000000000000000000000000000000000000000111000000000000000000000111110000000000000000000000000000000000
00000000000000000000000000000000000000000000111110000000000000000000000000000000000000000000000000000000000000000000000000000000000000000111000000000000000000100111110000000000000000000000000000000000
00000000000000000000000000000000000000000000111111000000000000000000000000000000000000000000000000000000000000000000000000000000000000000000000000000000000001111111110000000000000000000000000000000000
00000000000000000000000000000000000000000000000000000000000000000000000000000000000000000000000000000000000000000000000000000000000000000000000100000000000111111111110000000000000000000000000000000000
00000000000000000000000000000000000000000000000000000000000000000000000000000000000000000000000000000000000000000000000000000000000000011100000111100000111111111111100000000000000000000000000000000000
00000000000000000000000000000000000000000000000000000000000000000000000000000000000000000000000000000000000000000000000000000000000000011100000111111111111111111111100000000000000000000000000000000000
00000000000000000000000000000000000000000000000000000000000000000000000000000000000000000000000000000000000000000000000000000000000000000000000111111111111111111111000000000000000000000000000000000000
00000000000000000000000000000000000000000000000000000000000000000000000000000000000000000000000000000000000000000000000000000000000000000000000011111111111111111110000000000000000000000000000000000000
00000000000000000000000000000000000000000000000000000000000000000000000000000000000000000000000000000000000000000000000000000000000000000000000001111111111111111000000000000000000000000000000000000000
00000000000000000000000000000000000000000000000000000000000000000000000000000000000000000000000000000000000000000000000000000000000000000000000001111111111111100000000000000000000000000000000000000000
00000000000000000000000000000000000000000000000000000000000000000000000000000000000000000000000000000000000000000000000000000000000000000000000000011111110000000000000000000000000000000000000000000000
00000000000000000000000000000000000000000000000000000000000000000000000000000000000000000000000000000000000000000000000000000000000000000000000000000000000000000000000000000000000000000000000000000000
