P1
200 70
00000000000000000000000000000000000000000000000000000000000000000000000000000000000000000000000000000000000000000000000000000000000000000000000000000000000000000000000000000000000000000000000000000000
00000000000000000000000000000000000000000000000000000000000000000000000000000000000000000000000000000000000000000000000000000000000000000000000000000000000000000000000000000000000000000000000000000000
00000000000000000000000000000000000000000000000000000000000000000000000000000000000000000000000000000000000000000000000000000000000000000000000000000000000000000000000000000000000000000000000000000000
00000000000000000000000000000000000000000000000000000000000000000000000000000000000000000000000000000000000000000000000000000000000000000000000000000000000000000000000000000000000000000000000000000000
00000000000000000000000000000000000000000000000000000000000000000000000000000000000000000000000000000000000000000000000000000000000000000000000000000000000000000000000000000000000000000000000000000000
00000000000000000000000000000000000000000000000000000000000000000000000000000000000000000000000000000000000000000000000000000000000000000000000000000000000000000000000000000000000000000000000000000000
00000000000000000000000000000000000000000000000000000000000000000000000000000000000000000000000000000000000000000000000000000000000000000000000000000000000000000000000000000000000000000000000000000000
00000000000000000000000000000000000000000000000000000000000000000000000000000000000000000000000000000000000000000000000000000000000000000000000000000000000000000000000000000000000000000000000000000000
00000000000000000000000000000000000000000000000000000000000000011101110000000000000000000000000000000000000000000000000000000000000000100000000000000000000000000000000000000000000000000000000000000000
00000000000000000000000000000000000000000000000000000000000000011111110000000000000000000000000000000000000000000000000000000000000011100000000000000000000000000000000000000000000000000000000000000000
00000000000000000000000000000000000000000000000000000000000000000011100000000000000000000000000000000000000000000000000000000000000000000000000000000000000000000000000000000000000000000000000000000000
00000000000000000000000000000000000000000000000000000000000000000011100000000000000000000000000000111000000000000000000000000000000000000000000000000000000000000000000000000000000000000000000000000000
00000000000000000000000000000000000000000000000000000000000000000000000000000000000000000000000000111000000000000000000011100000000000000000000000000000000000000000000000000000000000000000000000000000
00000000000000000000000000000000000000000000000000000011100000000000000000000000000000000000000000000000000000000001111111111110000000000000000000000000000000000000000000000000000000000000000000000000
00000000000000000000000000000000000000000000000000000011100000000000000000000000000000000000000000000000000000011111111111111111100000000000000000000000000000000000000000000000000000000000000000000000
00000000000000000000000000000000000000000000000000000000000000000000000000110000000000000000000000000111000111111111111111111111000000000000000000111110000000000000000000000000000000000000000000000000
00000000000000000000000000000000000000000000000000000000000000000000000000111100000000000000000000000111111111111111111110111111100000000000111000111110001110000000000000000000000000000000000000000000
00000000000000000000000000000000000000000000000000000000000000000000000000111110000000000000000000000111111011111111111110111111111101110000111000000000001111000000000000000000000000000000000000000000
00000000000000000000000000000000000000000000000001100110000000011100000000111111000000000000000000011111111001100001111111111111111111110000000000000000011111111111000000000000000000000000000000000000
00000000000000000000000000000000000000000000000011111111000000011100001111111111100000000000000000001111111100000000011111111110111110110000000000001111111111111111100000000000000000000000000000000000
00000000000000000000000000000000000000000000111011111111000110000000001111111111111100000000000001001111000000000000001111111110111110111000000000111111111111111111100000000000000000000000000000000000
00000000000000000000000000000000000000000000111111111110011111100000000001111111111110000000000001111110000000000000000111111111111111111000000100011111111111111111100000000000000000000000000000000000
00000000000000000000001110000000000000000000001111111110011111111000000000111111111111000000000001111111000000000000000111111111111110000000001110111111111111111111100000000000000000000000000000000000
00000000000000000000001110000000000000000000001111001111111111111000000001111111111111100000000001111110000000000000000111111111111100000000001111111001111111111111000000000000000000000000000000000000
00000000000000000000000000000000000000000000001110000000011111111000000001111111111011111100000001111110000000000000000011111111111100000000011111100000011111111110000000000000000000000000000000000000
00000000000000000000000000000000000000000000011110000000000001111110000001111111111011111110000001111100000000000000000011110111111110000000011110000010011111111110000000000000000000000000000000000000
00000000000000000000000000000000000000000000011100000000000000011110000001111000111111111111100000111000000000000000000011110111111110000000000000000011111111111100000000000000000000000000000000000000
00000000000000000000000000000000000000000000011100000000000000000100000001000000011111111111111000000000000000000000000111111111111110000000000000000111111111111100000000000000000000000000000000000000
00000000000000000000000000000000000000000000111100000000000000000000000000000000000000111111111110000000000000000000001111111111111110000000000000000111111111111000000000000000000000000000000000000000
00000000000000000000000000000000000000000000111000000000000000000000000000000000000000011111111110000000000000000000001111111111111100000000000000001111111111111000000000000000000000000000000000000000
00000000000000000000000000000000000000000000001000000000000000000000000000000000000000011111111110000000000000000000001111111111111100000000000000001111111111110000000000000000000000000000000000000000
00000000000000000000000000000000000000000000000000001110000000000000000000000000000000000111111110111000000000000000001111110111100000000000000000011111111111110000000000000000000000000000000000000000
00000000000000000000000000000000000000000001111100000000000000000000000000000000000000000011111100111000000000000000001111110111100000000000000000011111111111100000000000000000000000000000000000000000
00000000000000000000000011100000000000000001111111100000000000000000000000000000000000000111111000000000000000000000011111111111110000000000000000111111111111100000000000000000000000000000000000000000
00000000000000000000000011100000000000000001111111111100000000000000000000000000000000001111110000000000000000000000011111111111110000000000000000111111111111100000000000000000000000000000000000000000
00000000000000000000000111000000000001110000111111111111000000000000000000000000000000111111110000000000000000000000111111111111100000000000000000111111111111000000000000000000000000000000000000000000
00000000000000000000000111000000000011110000001101111111110000000000000000000000000001111111100000000000000000000001111111111111110000000000000001111111111111000000000000000000000000000000000000000000
00000000000000000000000000000011100011100000000000011111110000000000000000000000000011111111000000000000000000000011111111111111111111000000000011111111111111110000000000000000000000000000000000000000
00000000000000000000000000000011100000000000000000000111110000000000000000000000000011111110000000000000000000001111111111111111111111111111110011111111111111110000000000000000000000000000000000000000
00000000000000000000000000000000000000000000000000000011111000000000000000000000001111111100000000000000000001111111111111111000111111111111111111111111111100000000000000000000000000000000000000000000
00000000000000000000000000000000000000000000000000000001111100000000000000000000011111101100000000000000011111111011111111000000000001111111111111111111111000000000000000000000000000000000000000000000
00000000000000000000000000000000000000000000000000000001111110000000000000000000111111000100000000000011111111111011111110000000000000000001111111111111111000000000000000000000000000000000000000000000
00000000000000000000000000000000000000000000000000000001111100000000000011100000111110000000000000011111111011111111110000000000000000000000111111111111111000110000000000000000000000000000000000000000
00000000000000000000000000000000000000000000000000000001111100000000000011100000011110000000000011100111111011111100000000000000000000000000011111111111100000000000000000000000000000000000000000000000
00000000000000000000000000000000000000000000000000000001111110000000000000000000011111000000111111100111111111111000000000000000000000000000011111111111000000000000000000000000000000000000000000000000
00000000000000000000000000000000000001100000000000000001101110000000000000000011111110000111111111001111111111100000000000000000000000000000011111111111100000000000000000000000000000000000000000000000
00000000000000000000000000000000000001100000000000000001101100000000000000000011111110001111111110011111111111000000000000000000011000000000111111111111110000000000000000000000000000000000000000000000
00000000000000000000000000000000000011100000000000000011111100000000000000000111111111011111110001111111111111100000000000000000111110000000111111111101111000000000000000000000000000000000000000000000
00000000000000000000000000000000000011100000000000000011111100000000000000001111110111111100000001111111111111111000000000000000111110000000011111111101111100000000000000000000000000000000000000000000
00000000000000000000000000000000000000000000000000000111111100000000000000000111110011100000000001111111111111111111111100000000111110000000011111111111111000000000000000000000000000000000000000000000
00000000000000000000000000000000000100000000000000000111111000000000000011100111111100000000000011111111111111111111111111110000111110000001111111110111011100000000000000000000000000000000000000000000
00000000000000000000000000000000000111110000000000000111111000000011111111111111110000000000000001111111111111111111111101111001111110000011111111110111011111100000000000000000000000000000000000000000
00000000000000000000000000000000001111111000000000011111111111111111111111111111100000000000000000011001111111111111111101111111111110000011111111111111111111110000000000000000000000000000000000000000
00000000000000000000000000000000011111111111111111111111111111111000111111111111000000000000000000000000011111111111111111111111111111111001111111111111111111111000000000000000000000000000000000000000
00000000000000000000000000000000011111111111111111111111111111000000000111111110000000100000000000000000000001111111111001111111111111111101111111111110000000011000000000000000000000000000000000000000
00000000000000000000000000000000011111111111111111111111111110000000000111111110000000100000000000000000000000000011100001111111111110111111111100000000000000001100000000000000000000000000000000000000
00000000000000000000000000000000011111111111111111111000000000000000000111111100000000000000000000000000000000000000000011111111111100011110000000000000000000011111000000000000000000000000000000000000
00000000000000000000000000000000000000000001111100000000000000000000000111100000000000000000000000000000000000000000000111111111110111100000000000000000000000001111000000000000000000000000000000000000
00000000000000000000000000000000000000000000000000000000000001110000000000000000000000000000000000000000000000000000000000011110000111000000000000000000000000001111100000000000000000000000000000000000
00000000000000000000000000000000000000000000000000000000000011110000000000000000000000000000000000000000000000000000000000001100011110000000000000000000000000000111100000000000000000000000000000000000
00000000000000000000000000000000000000000000000000000000000111100000000001110000000000000000000000000000000000000000000000000001111110000000000000000000000000000111110000000000000000000000000000000000
00000000000000000000000000000000000000000000000000000000000111000000000001111000000000000000000000000000000000000000000000000000111110000000000000000000000000000011110000000000000000000000000000000000
00000000000000000000000000000000000000000000000000000000000000000000000000111110000000000000000000000000000000000000000000000000001110000000000000000000000011100010001000000000000000000000000000000000
00000000000000000000000000000000000000000000000000000000000000000000000000011110000000000000000000000000000000000000000000000000000010000000000000000000000011100000011000000000000000000000000000000000
00000000000000000000000000000000000000000000000000000000000000000000000000000000000000000000000000000000000000000000000000000000000000000000000000000000000000000001111100000000000000000000000000000000
00000000000000000000000000000000000000000000000000000000000000000000000000000000000000000000000000000000000000000000000000000000000000000000000000000000000000000000111100000000000000000000000000000000
00000000000000000000000000000000000000000000000000000000000000000000000000000000000000000000000000000000000000000000000000000000000000000000000000000000000000000000111110000000000000000000000000000000
00000000000000000000000000000000000000000000000000000000000000000000000000000000000000000000000000000000000000000000000000000000000000000000000000000000000000000000010000000000000000000000000000000000
00000000000000000000000000000000000000000000000000000000000000000000000000000000000000000000000000000000000000000000000000000000000000000000000000000000000000000000000000000000000000000000000000000000
00000000000000000000000000000000000000000000000000000000000000000000000000000000000000000000000000000000000000000000000000000000000000000000000000000000000000000000000000000000000000000000000000000000
