P1
200 70
00000000000000000000000000000000000000000000000000000000000000000000000000000000000000000000000000000000000000000000000000000000000000000000000000000000000000000000000000000000000000000000000000000000
00000000000000000000000000000000000000000000000000000000000000000000000000000000000000000000000000000000000000000000000000000000000000000000000000000000000000000000000000000000000000000000000000000000
00000000000000000000000000000000000000000000000000000000000000000000000000000000000000000000000000000000000000000000000000000000000000000000000000000000000000000000000000000000000000000000000000000000
00000000000000000000000000000000001000000000000000000000000000000000000000000000000000000000000000000000000000000000000000000000000000000000000000000000000000000000000000000000000000000000000000000000
00000000000000000000000000000000011100000000000000000000000000000000000000000000000000000000000000000000000000000000000000000000000000000000000000000000000000000000000000000000000000000000000000000000
00000000000000000000000000000000011111000000000000000000000000000000000000000000000000000000000000000000000000000000000000000000000000000000000000000000000000000000000000000000000000000000000000000000
00000000000000000000000000000000111111100000000000000000000000000000000000000000000000000000000000000000000000000000000000000000000000000000000000000000000000000000000000000000000000000000000000000000
00000000000000000000000000000000001111111000000000000000000000000000000000000000000000001000000000000000000000000000000000000000000000000000000000000000000000000000000000000000000000000000000000000000
00000000000000000000000000111000000111111100000000000000000000000000000000000000000000001000000000000000000000000000000000000000000000000000000000000000000000000000000000000000000000000000000000000000
00000000000000000000000000111000000001111111000000000000000000000000000000000000000000000000000000000000000000000000000000000000000000000000000000000000000000000000000000000000000000000000000000000000
00000000000000000000000000000000000000111111100000000000000000000000000000000000000000000000000000000000000000000000000000000000000000000000000000000000000000000000000000000000000000000000000000000000
00000000000000000000000000000000000000011111111000000000000000000000000000000000011110000000000000000000000000000000000000000000000000000000000000000000000000000000000000000000000000000000000000000000
00000000000000000000000000000000000000000111111110000000000000000000000000000000011111000000000000000000000000000000000000000000000000000000000000000000000000000000000000000000000000000000000000000000
00000000000000000000000000000001000000000011111111000000000111000000000000000000001111110000000000000000000000000000000000000000000000000000000000000000111000111100000000000000000000000000000000000000
00000000000000000000000000000000000000000000100000000111000001000000000000000000001111100000000000000000000001111111111111100010111001100110000000000111111101111000100000000000000000000000000000000000
00000000000000000000000000000000000000000000000000001110000000000000000000000000001111110000000000000000000001111111111111110111111111111111100001111111111111111101111100000000000000000000000000000000
00000000000000000000000000000000000000000000000011111111000000000000000000000000011111111100000000000000000000111111111111111111111111111111111111111111111111111111111100000000000000000000000000000000
00000000000000000000000000000000000000000000000000111111100000000000000000000000011111111110011100000000000000111111111111111111111111111111110111111100000000000011111000000000000000000000000000000000
00000000000000000000000000000000000000011000000000111111110000000000000000000000011111111111111111110000000000111111111111101111111111111111110011100000000000000011111000000000000000000000000000000000
00000000000000000000000000000000000000011111111111111111100110010000000000000000001111111101111101111000000000011111111111101111111111111111111100000000000000000001100000000000000000000000000000000000
00000000000000000000000000000000000000111111111111111111101111111000000000000000000011111000111101111111111000000111111111111110011111111111111100000000000000000000000000000000000000000000000000000000
00000000000000000000000000000000000000111111011111111111111111111100000000000000000000000000111111111111111100000011111111111100001111111111111100000001111111100000000000000000000000000000000000000000
00000000000000000000000000000000000000011111011111111111111111111110000000000000000000000100011111111111111111000000001001111110001111111111111000000001111111100000000000000000000000000000000000000000
00000000000000000000000000000000000000001111111111111111111111111111000000000000000000000000011111111111111111100000000000111111001111111111111000000000111111100000000000000000000000000000000000000000
00000000000000000000000000000000000000001111111111111111111111111111110000000000000000000000011111111111111111110000000000111111100011111111111000000000001111100000000000000000000000000000000000000000
00000000000000000000000000000000000000001111111111111111111111111111111110000000000000000000000111111111111111111000111001110010000011111111111000000000001111100000000000000000000000000000000000000000
00000000000000000000000000000000000000011111111110000000000000000011111111100000000000000000000000111111111111111110011111100000000011111111110000000000001111000000000000000000000000000000000000000000
00000000000000000000000000000000000000001111111110000000000000000000111111111100000000000000000000011111111110000111001110000000000011111111110000000000001111000000000000000000000000000000000000000000
00000000000000000000000000000000000000001101111100000000000000000000000100111111110000000000000000011111111110000011100000000001110111111111110000000000001111000000000000000000000000000000000000000000
00000000000000000000000000000000000000001101111100000011100000000000000000011111111110000000000001110011111111111100000000000001110111111011110000000000011111000000000000000000000000000000000000000000
00000000000000000000000000000000000000001111111100001011100000000000000000000111111111001111000111100001111111000000000000000000000011110001100000000000111111000000000000000000000000000000000000000000
00000000000000000000000000000000000000000011111110001000000000000000000000000000111111111111111111110011111100000000000000000000000011111011100000000000111111000000000000000000000000000000000000000000
00000000000000000000000000000000000000000000111111100000000000000000000000000000000000111111111111111111100000000000000000000000000111111111100000000000011111000000000000000000000000000000000000000000
00000000000000000000000000000000000000000000111111111111111110000000000000000000000000000000111111111111000000000000000000000000000111111111000000000000011111000000000000000000000000000000000000000000
00000000000000000000000000000000000000000111111111111111111111100000000000000000000000000000011111111110000000000000000000000000000111110111000000000000001111000000000000000000000000000000000000000000
00000000000000000000000000000000000000000111111111111111111111110000000000000000000000000000111111111110000000000000000000000000000111110111000000000000001110000000000000000000000000000000000000000000
00000000000000000000000001110000000000000111111111011111111111111000000000000000000000000000011111111000000000000000000000000000001111111111000000000000011111000000000000000000000000000000000000000000
00000000000000000000000001110000000000000111111110011111111111111100000000000000000000000000111111110000000000000000000000000000000111111111000000000000011111000000000000000000000000000000000000000000
00000000000000000000000000000000000000000111111001111111111111111110000000000000000000000011111111100000000000000000000000000000000001111111000000000000011111000000000000000000000000000000000000000000
00000000000000000000000000000000000000000111111001111111111111111110000000000011100000000011111111000000000000100000000000000000000001111111000000000000111111000000000000000011100000000000000000000000
00000000000000000000000000000000000000000111111110001111111111100010000000000011100000000001111111000000000000111000000000000000001111111111000000000000111111000000000000000011100000000000000000000000
00000000000000000000000011100000000000000111111111000000011111000000000000000000000000000001111100000000000000000000000000000000001111111111000000000000111111000000000000000000000000000000000000000000
00000000000000000000000011100000000000000111111111100000001111100000000000000000000000000111111000000000000000000000000000000000001111111110000000000000111111000000000000000000000000000000000000000000
00000000000000000000000000000000000000000111111111100000000111111111000000000011100000001111111100000000000000000000000000000000001111111110000000000000111111000000000000000000000000000000000000000000
00000000000000000000000000000000000000001111100000000000000111101111000000000011100000011111111000111000000000000000000000010000001111111111000000000000111111000001110000000000000000000000000000000000
00000000000000000000000000000000000000001110000000000000000011101111000000000000000000011111111000111000000000000000000000010000001111111111000000111000111100000001110000000000000000000000000000000000
00000000000000000000000000000000000000000000000000000000000011111111000000000000000000111111110000000000000000000000000000000000001001111110000000111000111100000000000000000000000000000000000000000000
00000000000000000000000000000000000000000000000000000000000011111111000000000000000000111111110000000000000000000000000000000000000001111110000000000001111110000000000000000000001110000000000000000000
00000000000000000000000000000000000000000000000000000000000011111111000000000000000000111111100000000000000000000000000000000000000011111110000000000001111110000000000000000000001110000000000000000000
00000000000000000000000000000000000000000000000000000000000011111011000000000000000000111111100000000000000000000000000000000000001111111110000000000001001110000000000000000000000000000000000000000000
00000000000000000000000000000000000000000000000000000000000011110011000000000000000001111111000000000000000000000000000000000000001111111110000000000001101100000000000000000000000000000000000000000000
00000000000000000000000000000000000000000000100011100000000111100111000000000000000001111111000000000000000000000000000000000000011111111110000000000001111100000011100000000000000000000000000000000000
00000000000000000000000000000000000000000001111111110000000111000111000000000000000001111110000000000000000000000000000000000000011111111110000000000001111110000011100000000000000000000000000000000000
00000000000000000000000000000000000000000001111111110000000111100011000000000000000011111110000000000000000000000000000000000000011111111100000000000001111110000000000000000000000000000000000000000000
00000000000000000000000000000000000000000001111111111000011111110010000000000000000011111110000000000000000000000000000000000000001111111100000000000011111100000000000000000000000000000000000000000000
00000000000000000000000000000000000000000000111111111111111111111100000000000000000011111110000000000000000000000000000000000000011111111100000000110111011110000000000000000000000000000000000000000000
00000000000000000000000000000000000000000000111110111111101111111100000000000000000000111110000000000000000000000000000000000000011111111100000001111111011110011100000000000000000000000000000000000000
00000000000000000000000000000000000000000000011110111111101111111000000000000000000000011110000000000000000000000000000000000000001100011000000000011111111110011100000000000000000000000000000000000000
00000000000000000000000000000000000000000000001111111111111111110000000000000000000000111100000000000000000000000000000000000000000000000000000000001111111111000000000000000000000000000000000000000000
00000000000000000000000000000000000000000000001111111111111111100000000000000000000000001110000000000000000000000000000011100000000000000000000000000000111111100000000000000000000000000000000000000000
00000000000000000000000000000000000000000000000111111111111111000000000000000000000000000000000000000000000000000000000000000001110000000000000000000000001111111000000000000000000000000000000000000000
00000000000000000000000000000000000000000000000011111111111111000000000000000000000000000000000000000000000000000000000000000001110000000000000000000000000011111100000000000000000000000000000000000000
00000000000000000000000000000000000000000000000001111111111110000000000000000000000000001100000000000000000000000000000001110000000000000000000000000000111000001100000000000000000000000000000000000000
00000000000000000000000000000000000000000000000001111100001110000000000000000000000000001100000000000000000000000000000001110000000000000000000000000000111000000000000000000000000000000000000000000000
00000000000000000000000000000000000000000000000000000000000000000000000000000000000000000000000000000000000000000000000000000000000000000000000000000000000000000000000000000000000000000000000000000000
00000000000000000000000000000000000000000000000000000000000000000000000000000000000000000000000000000000000000000000000000000000000000000000000000000000000000000000000000000000000000000000000000000000
00000000000000000000000000000000000000000000000000000000000000000000000000000000000000000000000000000000000000000000000000000000000000000000000000000000000000000000000000000000000000000000000000000000
00000000000000000000000000000000000000000000000000000000000000000000000000000000000000000000000000000000000000000000000000000000000000000000000000000000000000000000000000000000000000000000000000000000
00000000000000000000000000000000000000000000000000000000000000000000000000000000000000000000000000000000000000000000000000000000000000000000000000000000000000000000000000000000000000000000000000000000
00000000000000000000000000000000000000000000000000000000000000000000000000000000000000000000000000000000000000000000000000000000000000000000000000000000000000000000000000000000000000000000000000000000
