P1
200 70
00000000000000000000000000000000000000000000000000000000000000000000000000000000000000000000000000000000000000000000000000000000000000000000000000000000000000000000000000000000000000000000000000000000
00000000000000000000000000000000000000000000000000000000000000000000000000000000000000000000000000000000000000000000000000000000000000000000000000000000000000000000000000000000000000000000000000000000
00000000000000000000000000000000000000000000000000000000000000000000000000000000000000000000000000000000000000000000000000000000000000000000000000000000000000000000000000000000000000000000000000000000
00000000000000000000000000000000000000000000000000000000000000000000000000000000000000000000000000000000000000000000000000000000000000000000000000000000000000000000000000000000000000000000000000000000
00000000000000000000000000000000000000000000000000000000000000000000000000000000000000000000000000000000000000000000000000000000000000000000000000000000000000000000000000000000000000000000000000000000
00000000000000000000000000000000000000000000000000000000000000000000000000000000000000000000000000000000000000000000000000000000000000000000000000000000000000000000000000000000000000000000000000000000
00000000000000000000000000000000000000000000000000000000000000000000000000000000000000000000000000000000000000000000000000000000000000000000000000000000000000000000000000000000000000000000000000000000
00000000000000000000111000000000000000000000000000000000000000000000000000000000000000000000000000000000000000000000000000000000000000000000000000000000000000000000000000001110000000000000000000000000
00000000000000000000111000000000000000000000000000000000000000000000000000000000000000000000000000000000000000000000000000000000011100000000000000000000000000000000000000001100000000000000000000000000
00000000000000000000000000000000000000000000000000000000000000000000000000000000000000000000000000000000000000000000000000000000010000000000000000000000000000000000000000000000000000000000000000000000
00000000000000000000000001110000000000000000000000000000000000000000000000000000000000000000000000011100000000000000000000000000000000010000000011111110000000000000000000000000000000000000000000000000
00000000000000000000000001110000000000000000000000000000000000000000000000000000000000000000000011111100000000000000000000000000000000010011100011111110000000000000000000010000000000000000000000000000
00000000000000000000000000000000000000000000000000000000000000000000000000000000000000000000000011110000000000000000000000000000000000000000100000000000000000000000000000010000000000000000000000000000
00000000000000000000000000000000000000000000000000000000000000000000000000000000000000000000000001110001111110000000000000000000000000000000000000000000000000000000000000000000000000000000000000000000
00000000000000000000000000000000111000011111100000000000000000000000000000000000000000000011100001110001111110000000000000000000000000000000000000000000011111110000000000000000000000000000000000000000
00000000000000000000000000000000111000111111111111111101111000000000000011000011110011111111110011111000011110000000000000000000000000000000000000011100111111111111111000000011100000000000000000000000
00000000000000000000000000000000000000111111111111111111111100011000011111111111110000011111111111111110011110000000011110001000000000000000000000111111111111111111100111000011100000000000000000000000
00000000000000000000000000000000000000111111111111110111111111111000111111111111111000011111111111110111111110000001111111111111111110000000000000011111111111111111101111100000000000000000000000000000
00000000000000000000000000111000000001111110011111110111111111000000111111111111111111111111111111110111111100000001111111111011111111111110000000011111111111111011111111111000000000000000000000000000
00000000000000000000000000111000000001111000011111111111110111000000111111111111111111111111111111111111111000000111111111110011111111111110000001111111111100010001111111111100000000000000000000000000
00000000000000000000000000000000000001111000111111111111100111100000001111111111111111111011111111111111111000001111111110001111111111111100000000111111000000000000011111111100000000000000000000000000
00000000000000000000000000000000000011111111111111111111001111000000001111111111111111111011111111111111110000011111111100001111111111111000111000111100000000000000001111111110000000000000000000000000
00000000000000000000000000000000000011111111111111111110001110000000111110111111111111111111111111011111100000111111111100011111111111111000111000000000000000000000000111111110000000000000000000000000
00000000000000000000000000000000000111111111001110000000010000000000111100011111111111111111111111011111100001111100011000010111111111111000000000000000000000000000000111111110000000000000000000000000
00000000000000000000000000000000000111111000000000000000000000000000111100011111111111100111111111111111000001111000000000000001111111000000000000000000000000000000000111111110000000000000000000000000
00000000000000000000000000000000000111110000000000000000000000000011111111111111111111100111111111111110000011110000000000000011111100000000000000000000000000000000000011111110000000000000000000000000
00000000000000000000000000000000000111100000000000000100011111111111111111111111101111111111111111111110000011000000000000000111111000000000000000000000000000000000000011111110000000000000000000000000
00000000000000000000000000000000000111110000001111111110111111111111111111111111001111111111011111111111111111000000000000001111110000000000000000000000000000000000000111111110000000000000000000000000
00000000000000000000000000000000000111111111111111111111111111111111111111111100011111111110011111111101111111111110000000011111100000000000000000000000000000000000000111111110000000000000000000000000
00000000000000000000000000000000000011111111111111111111111110000000000000000000000000111001111101111000110011101110000001111111000000000000000000000111000000000000001111111110000000000000000000000000
00000000000000000000011100000000000011111111111111000000000000000000000000000000000000111011111101110000000001000111001111111110000000000000000000000111000000000000001111111000000000000000000000000000
00000000000000000000000000000000000111111111111111000000000000000000000000000000000001111111111111100000000000000111111111111110000000000000000000000000000000000000011111111000000000000000000000000000
00000000000000000000000000000000011111111111111111100000000000000000000000000000000011111111111111100000000000000000011111111111000000000000000000000000000000000000011111111111000000000000000000000000
00000000000000000000000000000000111111111111111111110000000000000000000000000000000111111111101111000000000000000000001111111111111111100000000000000000000000000000001111111111000000000000000000000000
00000000000000000000000000000000111111111111111111111000000000000000000000000000000111111111101110000000000000000000011111111111111111111100000000000000000000000011101111110000000000000000000000000000
00000000000000000000000000000000111111111101111111111000000000000000000000000000001111111111111110000000000000000000111111000011111111111111110000000000000000000111111111100000000000000000000000000000
00000000000000000000000000000000111111111101111111111100000000000000000000000000011111111111111100000000000000000001111110000000000000111111111110000000000000001111111111000000000000000000000000000000
00000000000000000000000000000001111111111111111111111100000000000000000000000000111111111110111000000000000000000011111100000000000000000111111111110000000000111111111110000000000000000000000000000000
00000000000000000000000000000001110000000011101111111000000000000000000000000000111111111110010000000000000000000111111000000000000000000000111111111111110000111111111000000000000000000000000000000000
00000000000000000000000000000001100000000000001111111100000000000000000000000001111111111111100000000000000000001111100000000000000000000000000111111111111100001111110000000000000000000000000000000000
00000000000000000000000000000000000000000000011111111100000000111000000000000011111111111111100000000000000000011111100000000000000000000000000000111111111110001111111000000000000000000000000000000000
00000000000000000000000000000000000000000000001111111100000000111000000000000001111111111111000000000000000000100011000000000000000000000000000000000000111111111111111000000000000000000000000000000000
00000000000000000000000000000000000000000000001111111000000000000000000000000011111111111110000000000000000000110000000000000000000000000000000000000000111111111111111000000000000000000000000000000000
00000000000000000000000000000000000000000000011110111000000000000000000000011111111111111100000000000000000001111000000000000000000000000000000000000001111111111000001000000000000000000000000000000000
00000000000000000000000000000000000000000000011110111000000000011100000000011111111111111000000000000000011111111000000000000000000000000000000000000011111111110000000000000000000000000000000000000000
00000000000000000000000000000000000000000000011111111000000000011100000000111111111111111000000000000000011111110000000000000000000000000000000000000111111111000000000000000000000000000000000000000000
00000000000000000000000000000000000000000000111111000000000000000000000001001111111111110000000000000001111111100000000000000000000000000000000000001111111110000000000000000000000000000000000000000000
00000000000000000000000000000000000000000000111111000000000000000000000011101111111111100000000000000011111111000000000000000000000000000000000000011111111100000000000000000000000000000000000000000000
00000000000000000000000000000000000000000001111111100000000000000000000111111111111111100000000000000011111100000000000000000000000000000000000000111111111000000000000000000000000000000000000000000000
00000000000000000000000000000000000000000011111111100000000000000000000111111111111111000000000000000111111000000000000000000000000000000000000001111111110000000000000000000000000000000000000000000000
00000000000000000000000000111000000000000111111111000000000000000000001111111111111110000000000000001111111000000000000000000000001100000000000111111111100000000000000001110000000000000000000000000000
00000000000000000000000000111110000000011111111111000000000000000000011111111111111100000000000000001111110000000000000000000000011100000000001111111111000000000000000001110000000000000000000000000000
00000000000000000000000000111111110001111111111110000000000000000000111111111111111100000000000000000110000000000000000000000000000000000000011111111110000000000000000000000111000000000000000000000000
00000000000000000000000001111111111011111111100100011100000000000000111111111111111000000000000000000000000000000000000000000000000000011100111111111100000000000000000000000111000000000000000000000000
00000000000000000000000001111111111111111111100000011100000000000000000001111111110000000000000000000000000000000000000000000000000000010001111111111000000000000000000000000111000000000000000000000000
00000000000000000000000001111111111111111111110000000000000000000000000000111111100000000000000000000000000000000000000000000000000000000001111111110000000000000100000000000111000000000000000000000000
00000000000000000000000011111111111111111111110000000000000000000000000000000111000000000000000000000000000000000000000000000000000000000011111111100111001110001111100000000000000000000000000000000000
00000000000000000000000011111111111110111110000000000000000000000000000000000000000000000000000000000000000000000000000000000000000000000111111111111111111111011111100000000000000000000000000000000000
00000000000000000000000001111111111110111100000000000000000000000000000000000000111000000000000000000000000000000000000000000000000000001111111110111111111111111111100000000000011100000000000000000000
00000000000000000000000000111111111111111000000000000000000000000000000000000001111000000000000000000000000000000000000011000000000000001111111110111111111111111111000000000000011100000000000000000000
00000000000000000000000001111011110111000000000000000000000000000000000000000001110000000000000000000000000000000000000011000000000000001111111111111111111111111100000000000000000000000000000000000000
00000000000000000000000001110000000000000000000000000000000000000000000000000000000000000001100000000000000000000000000000000000000000001111110111111111001110000000000000000000000000000000000000000000
00000000000000000000000000000000000000000000000000000000000000000000001110000000000000000001100000000000000000000000000000000000000000001111100001100000000000000000000000000000000000000000000000000000
00000000000000000000000000000000000000000000000000000000000000000000001110000000000000000000000000000000000000000000000000000000000000000100000000000000000000000000000000000000000000000000000000000000
00000000000000000000000000000000000000000000000000000000000000000000000000000000000000000000000000000000000000000000000000000000000000000000000000000000000000000000000000000000000000000000000000000000
00000000000000000000000000000000000000000000000000000000000000000000000000000000000000000000000000000000000000000000000000000000000000000000000000000000000000000000000000000000000000000000000000000000
00000000000000000000000000000000000000000000000000000000000000000000000000000000000000000000000000000000000000000000000000000000000000000000000000000000000000000000000000000000000000000000000000000000
00000000000000000000000000000000000000000000000000000000000000000000000000000000000000000000000000000000000000000000000000000000000000000000000000000000000000000000000000000000000000000000000000000000
00000000000000000000000000000000000000000000000000000000000000000000000000000000000000000000000000000000000000000000000000000000000000000000000000000000000000000000000000000000000000000000000000000000
00000000000000000000000000000000000000000000000000000000000000000000000000000000000000000000000000000000000000000000000000000000000000000000000000000000000000000000000000000000000000000000000000000000
