P1
200 70
00000000000000000000000000000000000000000000000000000000000000000000000000000000000000000000000000000000000000000000000000000000000000000000000000000000000000000000000000000000000000000000000000000000
00000000000000000000000000000000000000000000000000000000000000000000000000000000000000000000000000000000000000000000000000000000000000000000000000000000000000000000000000000000000000000000000000000000
00000000000000000000000000000000000000000000000000000000000000000000000000000000000000000000000000000000000000000000000000000000000000000000000000000000000000000000000000000000000000000000000000000000
00000000000000000000000000000000000000000000000000000000000000000000000000000000000000000000000000000000000000000000000000000000000000000000000000000000000000000000000000000000000000000000000000000000
00000000000000000000000000000000000000000000000000000000000000000000000000000000000000000000000000000000000000000000000000000000000000000000000000000000000000000000000000000000000000000000000000000000
00000000000000000000000000000000000000000000000000000000000000000000000000000000000000000000000000000000000000000000000000000000000000000000000000000000000000000000000000000000000000000000000000000000
00000000000000000000000000000000000000000000000000000000000000000000000000000000000000000000000000000000000000000000000000000000000000000000000000000000000000000000000000000000000000000000000000000000
00000000000000000000000000000011111111100001000000000001111111100000000000000000000000000000000000000000000000000000000000000000000000000000000000000000000000000000000000000000000000000000000000000000
00000000000000000000000000000111111111110111111111111111111111100000000000000000000000000000000000000000000000000000000000000000000000000000000000000000000000000000000000000000000000000000000000000000
00000000000000000000000000000111111111111111101111111111111111100000000000000000000000000000000000000000000000000000000000000000000111000000000000000000000000000000000000000000000000000000000000000000
00000000000000000000000000000111111111111111101111111111111111100000000000000000000000000000000000000000000000000000000000000000000000000000000000000000000000000000000000000000000000000000000000000000
00000000000000000000011100000011110111111111111111111111111111100000000000000000000000000000000000000000000000000000000000000000000000000000000000000000001110000000000000001110000000000000000000000000
00000000000000000000011100000011110111111111111111111111111111100000000000000000000001110000000000000000000000000000000000000000000000000000000000000000001110000000000000001100000000000000000000000000
00000000000000000000000000000011111111111111111111111111111111100000000000000000000001110000000000000000000000000000000000011100000000000000000000000000000000000000000000000000000000000000000000000000
00000000000000000000000000000011111111111111111111111111111111100000000000000000000000000000000000000000000000000000000000011100000000000000000000000000000000000000000000000000000000000000000000000000
00000000000000000000000000000011111011111111111111111111111111100000000000000000000000000000000000000000000000000000000000000000000000000000000000000000011000000000000000000000000000000000000000000000
00000000000000000000000000000011111001100011111001111111110111000000000000000000000000000000000000000000000000000000000000000000000000000000000000011111111111100000000000000000000000000000000000000000
00000000000000000000000000000111111100000000000000011111100011000001100011110000100011111111111111100000000000000000000000000000000001110000000011111111111111110000000000000000001110000000000000000000
00000000000000000000000000000111111100000000000000000000000000000011111111111001110111111111111111110000000000000000000000000000000001111000000111111110111111111110000000000000001110000000000000000000
00000000000000000000000000000001111100000000000000000000000000000011111111111111111111111111111111110000001100000000000000000000000000111000001111111110111111111100000000000000000000000000000000000000
00000000000000000000000000000000111100000000000000000000000000000011111111111111101111111101111011110000011110010000000000000000000000000000111111111111111111111110011000000000000000000000000000000000
00000000000000000000000000000000111100000000000000000000000000000111111111111111101111111101111001100000011111111100000000000000000000000001111111111111111001111111111100000000000000000000000000000000
00000000000000000000000000000000111110000000000000000000000000000111111111111111111111111111111110000000001111111111001000000000000000000011111111111111100000001111111110000111000000000000000000000000
00000000000000000000000000000000111110011000000000000000000000000111111111111111111011111111111110000000001111111111111111110000000000000011111111111110000000000011111111000111000000000000000000000000
00000000000000000000000000000000111111111111111111110000000000000111110011111011110001111111111111000000000001111111111111111000000000000111111111111100000011100011111111100000000000000000000000000000
00000000000000000000000000000000011111111111111111111100000000000011100001110001110011111111111111000000000000011111111111111000000000000011111111110000000011101111111111100000000000000000000000000000
00000000000000000000000000000000011111110011111111011111100000000000000000000000000011111111111110000000000000000000111111111000000000000111111111100000000000001111111111000000000000000000000000000000
00000000000000000000000000000000011111100000111111011111110000000000000000000000000011111111111100000000000000000000001111111000000000011111111111100000000000000000111111000000000000000000000000000000
00000000000000000000000000000000011111110000000111111111111000000000000000000000000111111101111100000000000000000000000111111000000000111111111111000000001110000000111110000000000000000000000000000000
00000000000000000000000000000000011111000000000000111111111110000000000000000000001111111101111000000000000000000000000111110000000000111111111111000000011110000000111110000000000000000000000000000000
00000000000000000000000000000000001110000000000000011111111110000000000000000000001111111111111000000000001100000000000111110000000001111111111111100011111100000000111100000000000000000000000000000000
00000000000000000000000000000000001111000000000000111111111110000000000000000000011111011111111111111100011110000000000111110000000011111101111111111111111100000000001000000000000000000000000000000000
00000000000000000000000000000000011111100000000000011111111110000000000000000000111111001001111110111111111111111100001111110000000111111101111111111011111110000000000000000000011100000000000000000000
00000000000000000000000000000000011111111000000000001111111001000000000000000001111111100001111100011111111111111000011111110000000111111111111111110011111111100000000000000000011100000000000000000000
00000000000000000000000000000000000111111111111000011111111011100000000001111111111111110011111110001111100011110000111111111000001111111111111111100011111110000000000000000000000000000000000000000000
00000000000000000000000000000000000011111111110000011111111111111111000111111011111111111110000000000000000000000111111111111111011111111111111110000011111110000000000000000000000000000000000000000000
00000000000000000000000000000000000111111111100000111111111111111111111111110011111111111000000000000000000000000000111111111111111111111111111100000001111111110000001110000000000000000000000000000000
00000000000000000000000000000000000001000000001111111111111111111111111111000111111111110000000000000000000000000000111111111111111111111111111000000001111111000000001110000000000000000000000000000000
00000000000000000000000000000000000000000000000000011111111111111110000000000111111111001000000000000000000000000000111110000011111101111111111000000001111111011000000000000000000000000000000000000000
00000000000000000000000000000000000000000000000000011111011111110000000000001111111111001000000000000000000000000001111110000000111101111111110000000000011111111100000000000000000000000000000000000000
00000000000000000000000000000000000000000000000000011111011111100000000000011111111111110000000000000000000000000001111110000000011111111111111000000000011111111100000000000000000000000000000000000000
00000000000000000000000000000000000000000000000000011111111111100000000000011111111111110000000000000011100000000011111100000000111111111111111111000011111111111100000000000000000000000000000000000000
00000000000000000000000000000000001110000000000000011111111111100000000000011111111111100000000000000011100000000011111100000000111111111111111111110111111111111100000000000000000000000000000000000000
00000000000000000000000000000000001110000000000000011101111111100000000000111111111111000000000000000000000000000011011100000000100111111110011111111111111111111000000000000000000000000000000000000000
00000000000000000000000000000000001111000000000000011101111111100000000000111111111111000000000000000000000000000111011000000000000111111110011111111111111111111000000000000000000000000000000000000000
00000000000000000000000000000000001111000000000000011111111111100000000001111111111110000000000000000000000000000111111000000000011111111100000000111111111111111000000000000000000000000000000000000000
00000000000000000000000000000000001111000000000000011111111111100000000001111111111100000000000000000000000000001111111000000000011111111100000000011111111111111000000000000000000000000000000000000000
00000000000000000000000000000000001111100000000000011111111111100000000011111111111000000000000000000000000000001111111000000000111111111100000000011111111111111100000000000000000000000000000000000000
00000000000000000000000000000000001111110000000000011111111111100000000111111111111000000011100000000111000000001111110000000001111111111000000000111111111111111111000000000111000000000000000000000000
00000000000000000000000000000000001111110000000011111111111111100000000111111111111000000011100000000111000000001110010011100000111110111100000000111111111111101111100000000111000000000000000000000000
00000000000000000000000000000000000111111000000001111111111111000000001111111111110000000000000000000000000000001110000011100000111110111110000100011111111111000111110000000000000000000000000000000000
00000000000000000000000000000000000111111100000000111111111111000000011111111111000000000000000000000000000000011111100000000000111111111110000100011111111111000011111100000000000000000000000000000000
00000000000000000000000000000000000111110010000001111111111110000000011111111110000000000000000000000000000000011111100000000000111111111000000110001111111110000000111000000000000000000000000000000000
00000000000000000000000000001110000011110000000011111111111110000000111111111111000000000000000000000000000000111111000000111000011111111000001111011111111100000000001000000000000000000000000000000000
00000000000000000000000000001110000000111001111111111111111110000000111111111111000000000000000000000000000000111111000000111000000011111111111111111111111000000000000000000000000000000000000000000000
00000000000000000000000000000000000000000011111111111111111100000001111111111110000000000000000000000000000000111110000000000000000011111111111111111111110000000000000000000000000000000000000000000000
00000000000000000000000000000000000000000011111111111111100000000001100110001100000000000000000000000000000000111000000000000000000011101111111111111111000000000000000000000000000000000000000000000000
00000000000000000000000000000000000000000000001111100111000000000000000000000000000000000000000000000000000000000000000000000000000011001111111111111110000000000000000000000000000000000000000000000000
00000000000000000000000000000000000000000000000111000000000000000000000000000000000000000000000000111000000000000000000000001110000000011111111111111100000000000000000000000000000000000000000000000000
00000000000000000000000000000000000000000000000000000000000000000000000000000000000000000000000000000000000000000000000000001110000001100001111110000000000000000000000000000000000000000000000000000000
00000000000000000000000000000000000000000000000000000000000000000000000000000000000000000000000000000000000000000000000000000000000001100000000000000000000000000000000000000000000000000000000000000000
00000000000000000000000000000000000000000000000000000000000000000000000000000000000000000000000000000000000000000000001110000000000000000000000000000000000000000000000000000000000000000000000000000000
00000000000000000000000111000000000000000000001110000000000000000000000000000000000000000000000000000000000000000000001110000000000000000000000000000000000000000000000000000000000000000000000000000000
00000000000000000000000111000000000000000000001110000000000000000000000000000000000000000000000000000000000000000000000000000000000000000000000000000000000000000000000000000000000000000000000000000000
00000000000000000000000000000000000000000000000000000000000000000000000000000000000000000000000000000000000000000000000000000000000000000000000000000000000000000000000000000000000000000000000000000000
00000000000000000000000000000000000000000000000000000000000000000000000000000000000000000000000000000000000000000000000000000000000000000000000000000000000000000000000000000000000000000000000000000000
00000000000000000000000000000000000000000000000000000000000000000000000000000000000000000000000000000000000000000000000000000000000000000000000000000000000000000000000000000000000000000000000000000000
00000000000000000000000000000000000000000000000000000000000000000000000000000000000000000000000000000000000000000000000000000000000000000000000000000000000000000000000000000000000000000000000000000000
00000000000000000000000000000000000000000000000000000000000000000000000000000000000000000000000000000000000000000000000000000000000000000000000000000000000000000000000000000000000000000000000000000000
00000000000000000000000000000000000000000000000000000000000000000000000000000000000000000000000000000000000000000000000000000000000000000000000000000000000000000000000000000000000000000000000000000000
