P1
200 70
00000000000000000000000000000000000000000000000000000000000000000000000000000000000000000000000000000000000000000000000000000000000000000000000000000000000000000000000000000000000000000000000000000000
00000000000000000000000000000000000000000000000000000000000000000000000000000000000000000000000000000000000000000000000000000000000000000000000000000000000000000000000000000000000000000000000000000000
00000000000000000000000000000000000000000000000000000000000000000000000000000000000000000000000000000000000000000000000000000000000000000000000000000000000000000000000000000000000000000000000000000000
00000000000000000000000000000000000000000000000000000000000000000000000000000000000000000000000000000000000000000000000000000000000000000000000000000000000000000000000000000000000000000000000000000000
00000000000000000000000000000000000000000000000000000000000000000000000000000000000000000000000000000000000000000000000000000000000000000000000000000000000000000000000000000000000000000000000000000000
00000000000000000000000000000000000000000000000000000000000000000000000000000000000000000000000000000000000000000000000000000000000000000000000000000000000000000000000000000000000000000000000000000000
00000000000000000000000000000000000000000000000000000000000000000000000000000000000000000000000000000000000000000000000000000000000000000000000000000000000000000000000000000000000000000000000000000000
00000000000000000000000000000000000000000000000000000000000000000000000000000000000000000000000000000000000000000000000000000000000000000000000000000000000000000000000000000000000000000000000000000000
00000000000000000000000000000000000000000000000000000000000001110000000000000000000000000000000000000000000000000000000000000000000000000000000000000000000000000000000000000000000000000000000000000000
00000000000000000000000000000000000000000000000000000000000001110000000000000000000000000000000000000000000000000000000000000000000000000000000000011100000000000000000000000000000000000000000000000000
00000000000000000000000000000000000000000000000000000000000000000000000000000000000000000000000000000000000000000000000000000000000000000000000000011100000000000000001000000000000000000000000000000000
00000000000000000000000000000000000000000000000000000000000000000000000000000000000000000001110000000000000000000000000000000000000000100000000000000000000000001111111000000000000000000000000000000000
00000000000000000000000000000000000000000000000000000000000000000000000000000000000001111111110000000000000000000000000000011111111111100000000000000000111111111111100000000000000000000000000000000000
00000000000000000000000000000111000000000000000000000000000000011100000000000000011111111111111100000000000000011111111111111111111111100000000000011110011111111111000000000000000000000000000000000000
00000000000000000000000000000111000000000000000000000000000000111111100000000111111111111111111110000000000000111111111111111111111111100000000001111111011111111000000000000000000000000000000000000000
00000000000000000000000000000000000000000000000000000000000001111111100000001111111111111111111111000000000001111111111111111111111111110000011111111111111111110000000000000000000000000000000000000000
00000000000000000000000000000000000000000000000000000000111111111111100000011111111111111111111111100000000001111111111111111111111111111111111111111111111111111000011100000000000000000000000000000000
00000000000000000000000000000000000000000000000000011111111111111100100001100111110000000111111111110000000001111111111111111110011111111111111111111111111111111000011100000000000000000000000000000000
00000000000000000000000000000000000000000000011111111111111111111100000011110011000000000011111111110000000001100111111111111100001111111111111111111110001111111000000000000000000000000000000000000000
00000000000000000000000000000000000110000000111111111111111111111111000011111100000000000001111111111000001100000111111111111110001111100000001111111100000111111100000000000000000000000000000000000000
00000000000000000000000000000000001110000000111111111111111011111110000011111100000000000000111111111111111110011111111111111110000000000000001111111000000111111100000000000000000000000000000000000000
00000000000000000000000000000000000000000000111111111111110001111000000011111000000000000000111111111111111111111111111110000000110000000000011111110000000001111110000000000000000000000000000000000000
00000000000000000000000000000000000000000000111111111110000000111000001111111000000000111111111111111111110011111111110000000000100000000000011111100000000001111110000000000000000000000000000000000000
00000000000000000000000000000000001000000001111111100000000000111000011111111001111111111111111111111000000011111111100000000000000000000000011111100000000001111110000000011100000000000000000000000000
00000000000000000000000000000000001000000001111111100000000000110000011111111111111111111000011111110000000111111111100000000000000000000000111111000000000001111110001110011100000000000000000000000000
00000000000000000000000000000000000000000000111111000000000000000000011111111111111111110000001111110000000000111111100000001111000000000001111111000000000001111110001110000000000000000000000000000000
00000000000000000000000000000000000000000000111111000000000000000000111111111100000000000000011111100000000000111111100001111111100000000001111110000000000001111110000000000000000000000000000000000000
00000000000000000000000000000000000000000001111111000000000000000111111111111000000000000000111111000000000000111111111111111111110010000001111110000000000001111110000000000000000000000000000000000000
00000000000000000000000000000000000000000001111111000000000000011111110111111000000000000000111001000000000000111111111111111111111111000001111110000000000001111110000000000000000000000000000000000000
00000000000000000000000000000000000000000000111110000000000001111111100111111000000000000000111000000000000000111111111111101111111111100001111110000000000001111111000000000000000000000000000000000000
00000000000000000000000000000000000000000000111110000000000111111110011111111100000000000001111000000000000000111111111111101111111111100011111100000000011101111110000000000000000000000000000000000000
00000000000000000000000000000000011000000011111100000000011111111000011111111100000000000011111100000000000000111111111111111111111111110011111100000000011111111110000000000000000000000000000000000000
00000000000000000000000000000000111000000011111100000011111111100000011111111110000000000001111111100000000000111110011111111100011111110011111000000000000001110000000000000000000000000000000000000000
00000000000000000000000000000000000111000011111111111111111111000001111111011111000000000000001111111000000000111110000011111000011111100011111000000000000000000000000000000000000000000000000000000000
00000000000000000000000000000000000111000111111110011111111111000001111111011111100011111100000111111100100000111111100000000000111111110111111000000000000000001110000000000000000000000000000000000000
00000000000000000000000000000000000000000111111100001111111111100000001111111111001111111111011001111111110000011111110000000000111101111111110000000000000001000110000000000000000000000000000000000000
00000000000000000000000000000000000000000111111000011111111111110000000011111111011111111110000001111111110000001100110000000000011000111111110000011100000001101110000000000000000000000000000000000000
00000000000000000000000000000000000000001111111100011111111111110000000001111111111111100000000011111111110000000000000000000000010001111111110000011100000001111110000000000000000000000000000000000000
00000000000000000000000000000000000000001111111100001111111111111000000000011111111110000000000001111111110000000000000000000000000011111111110000000000000001111110000000000000000000000000000000000000
00000000000000000000000000000000000000001111111100000001111111111100000000000011111100000000000000111111111000000000000000000000001111111111100000000000000001111110000000000000000000000000000000000000
00000000000000000000000111000000000000011111100100000000011111111100000000000111111000000000000000111111111000000000000000000000001111111111100000000000000001111110000000000000000000000000000000000000
00000000000000000000000111000000000000011111100000000000001111111100000000000111110000000000000000011111111000000000000000000000011111101111000000000000000001111110000000000000000000000000000000000000
00000000000000000000000000000000000000111111110000000000001111111100000000001111100000000000000000011111110000000000000000000000011111101111000000000000000001111111000000000000000000000000000000000000
00000000000000000000000000000000000001111111000000000000001111111100001000011111100000000000000000001111110000000000000000000000011111111111100000000000000001111110000000000000000000000000000000000000
00000000000000000000000000000000000011111110000000000000001111111100001000011111000000000000000000001111110000000000000000000000011111111111100000000000000011111110000000000000000000000000000000000000
00000000000000000000011100000000000111111000000000000000001111111100000000011111000000000000000000011111110000000011111100000000111111011111100000000000000011111110000000000000000000000000000000000000
00000000000000000000011100000000001111110000000000000001101111111100000000011111000000000000000000011111100000001111111100000000111111011111000000000000000011111110000000000000000000000000000000000000
00000000000000000000000000000000001111100000000000001111101111111100000001111111000000000000000000111001100000001111111000000000111111111111000000000000000001111110000000000000000000000000000000000000
00000000000000000000000000000000011111000000000000001110001111111100000001111111000000000000000000111000000000001111111001000001111111111111000000000000000001111110000000000000000000000000000000000000
00000000000000000000000000000000111111000000000000000000001111111100000001111111000000000000000000111110000000000111111111111111111111111111100000000000000011111100000000000000000000000000000000000000
00000000000000000000000000000001111110000000000000000000001111111000000000111111000000000000000000011110000000000111111111111111111111111111111100000000000111111100000000000000000000000000000000000000
00000000000000000000000000000000011100000000000000000000011111011000000001111111000000000000000000111100000000000111111111111111111111111111111100000000001111111100000000000000000000000000000000000000
00000000000000000000000000000000001000000000000000000000011111000000000011111111000000000000000111111000000000000011111111111111111111111111100000000000011111111100000000000000000000000000000000000000
00000000000000000000000000000000000000000000000000000000111111110000000011111111000000000000001111111000000000000001111111111111111100111111100000000000011111111000000000000000000000000000000000000000
00000000000000000000000000000000000000000000000000000001111111110000000011110110000000000000011111111000000000000000001111111111111000001111111000000000111111111000000000000000000000000000000000000000
00000000000000000000000000000000000000000000000000000011111111100000000011100011000000000001111111000000000000000000000111111111000000000111111110000001111111110000000000000000000000000000000000000000
00000000000000000000000000000000000000000000000000000111111111000000000001100011110000000011111110000000000000000000000111011110000000000111111111111111111111110000000000000000000000000000000000000000
00000000000000000000000000000000000000000000000000001111111111000000000011110111111000001111111100000000000000000000001110000000000000000111111111111111111111100000000000000000000000000000000000000000
00000000000000000000000000000000111100000000000000111111111110000000000001111111111111111111111000000000000001000000001110000000000000001111111111111111111111100000000001110000001110000000000000000000
00000000000000000000000000000001111111111111111111111111111100000000000001111111111111111111110000000000000001000000000000000000000000000011111111111101111111000000000001110000001110000000000000000000
00000000000000000000000000000001111110011111111111111111111000000000000001111111111111111111000000000000000000000000000000000000000000000001111111111101111100000000000000000000000000000000000000000000
00000000000000000000000000000001111111011111111111111111100000000000000001111111111111111100000001110000000000000000000000000000000000000000001111111111111000000000000000000000000000000000000000000000
00000000000000000000000000000001111111111111111111111111000000000000000001111111111111111000000001110000000000000000000000000000000000000000000111111100000000000000000000000000000000000000000000000000
00000000000000000000000000000001111111111111111111111100000000000000000000111111111111100000000000000000000000000000000000000000000000000000000000000000000000000000000000000000000000000000000000000000
00000000000000000000000000000001111111111111111111100000000000000000000000011111111110000000000000000000000000000000000000000000000000000000000000000000000000000000000000000000000000000000000000000000
00000000000000000000000000000000001111111100000000000000000000000000000000000011100000000000000000000000000000000000000000000000000000000000000000000000000000000000000000000000000000000000000000000000
00000000000000000000000000000000000000000000000000000000000000000000000000000000000000000000000000000000000000000000000000000000000000000000000000000000000000000000000000000000000000000000000000000000
00000000000000000000000000000000000000000000000000000000000000000000000000000000000000000000000000000000000000000000000000000000000000000000000000000000000000000000000000000000000000000000000000000000
00000000000000000000000000000000000000000000000000000000000000000000000000000000000000000000000000000000000000000000000000000000000000000000000000000000000000000000000000000000000000000000000000000000
00000000000000000000000000000000000000000000000000000000000000000000000000000000000000000000000000000000000000000000000000000000000000000000000000000000000000000000000000000000000000000000000000000000
