P1
200 70
00000000000000000000000000000000000000000000000000000000000000000000000000000000000000000000000000000000000000000000000000000000000000000000000000000000000000000000000000000000000000000000000000000000
00000000000000000000000000000000000000000000000000000000000000000000000000000000000000000000000000000000000000000000000000000000000000000000000000000000000000000000000000000000000000000000000000000000
00000000000000000000000000000000000000000000000000000000000000000000000000000000000000000000000000000000000000000000000000000000000000000000000000000000000000000000000000000000000000000000000000000000
00000000000000000000000000000000000000000000000000000000000000000000000000000000000000000000000000000000000000000000000000000000000000000000000000000000000000000000000000000000000000000000000000000000
00000000000000000000000000000000000000000000000000000000000000000000000000000000000000000000000000000000000000000000000000000000000000000000000000000000000000000000000000000000000000000000000000000000
00000000000000000000000000000000000000000000000000000000000000000000000000000000000000000000000000000000000000000000000000000000000000000000000000000000000000000000000000000000000000000000000000000000
00000000000000000000000000000000000000000000000000000000000000000000000000000000000000000000000000000000000000000000000000000000000000000000000000000000000000000000000000000000000000000000000000000000
00000000000000000000000000000000000000000000000000000000000000000000000000000000000000000000000000000000000000000000000000000000111000000000000000000000000000000000000000000000000000000000000000000000
00000000000000000000000000000000000000000000000000000000000000000000000000001110000000000000000000000000000000000000000000000001111000000000000000000000000000000000000000000000000000000000000000000000
00000000000000000000000000000000000000000000000000000000000000000000000000001110000000000000000000111000000000000000000000000011110000000000000000000000000000000000000000000000000000000000000000000000
00000000000000000000000000000000000000000000000000000000000000000000000000000000000000000000000000001000000000000000000000000111110000000000000000000000000000000000000000000000000000000000000000000000
00000000000000000000000000000000000000000000000000000000000000001000000000000000011100000000000000000000000000000000000000001111100000000000000000000000000000000000000000000000000000000000000000000000
00000000000000000000000000000000000000000000000000000011110111111110000000000000011100000000000000000000000000000000000000011111000000000000000000000000000000000000000000000000000000000000000000000000
00000000000000000000000000000000000000000000000001111111111111111110011100000000000000000000000000000000000000000000000000011110000000000000000000000000000000000000000000000000001110000000000000000000
00000000000000000000000000000000000000000000000001111111111111111100011100000000000000000000000000111000000000000000000000111100000000001110000000000001110000000000000000000000001110000000000000000000
00000000000000000000000000000000000000011000000001111111111111111100000000000001111100000000000000111000000000000000000011111100000000011110000111000001110000000000000000000000000000000000000000000000
00000000000000000000000000000000000000001000000011111111111111111110000000000011111110000000000000000000000000000000000111111000000000011100011111111111111000000000000000000000000000000000000000000000
00000000000000000000000000000000000000000000000001111111110010011110000000000111111111100000000000000000000000000000001111111000000000001110111111111111111111110000000000000000000000000000000000000000
00000000000000000000000000000000000000000000000001111111100000001100000000001111101111100000000000000000000000000000001111110000000000001111111111011111111111111000000000000000000000000000000000000000
00000000000000000000000000000000000000000000000011111111100000000000000000011110000011110000000000000000000000000000011111000000000000001111111110001111111111111100000000000000000000000000000000000000
00000000000000000000000000000000000000000000000011111111000000000000000000011100000001110000000000000000000000000000011110000000000000000111111100000011111111111100000000000000001110000000000000000000
00000000000000000000000000000000000000000000000011111110000000000000000000011000000000111000000000000000000000000000111111000111000000000111111000000000001111001000000000000000001110000000000000000000
00000000000000000000000000000000000000000000000011111100000000000000000000011000000000011000000000000000000000000001111110000111000000000111111100000000000000000000000000000000000000000000000000000000
00000000000000000000000000000000000000000000000011111000000000000000000000010000000000011100000000000000000000000011110000000000000000000111111100000000000000000000000000000000000000000000000000000000
00000000000000000000000000000000000000000000000011111000000000000000000000110000000000011100000000000000000000000011110000000000000000000111111100000000000000000000010000000000000000000000000000000000
00000000000000000000000000000000000000000000000111111000000000000000000000110000000000011100000000000000000000000111111100000000000000000011111100000000000000000011110000000000000000000000000000000000
00000000000000000000000000000000000000000000000111111000000000000000000000110000000000001100000000000000000000001111111000000000000000000011111100000000000000011111111000000000000000000000000000000000
00000000000000000000000000000000000000000000000011111000000000000000000000010000000000001100000000000000000000000111111000000000000000000011111100000000000001111111111000000000000000000000000000000000
00000000000000000000000000000000000000000000000011111000000001110000000000010000000000001100000000000000000000001111111000010000000000000001111100000000001111111111000000000000000000000000000000000000
00000000000000000000000000000000000000000000000111111000111111110000000000110000000000001110000000000000000000111111111111111000000000000001111111000001111111111000000000000000000000000000000000000000
00000000000000000000000000000000000000000000000111111011111111110000000000110000000000011110000001110000000001111111111111111110000000000001111111111111111111110000000000000000000000000000000000000000
00000000000000000000000000000000000000000000000111111111101111111000000000111000000000011100000001100000000000111111111111111100000000000001111111111111111111110000001100000000000000000000000000000000
00000000000000000000000000000000000000000000000111111111000111111111000000111100000000001100000000000000000001111111111111111100000000000001111111111111111111111000000110000000000000000000000000000000
00000000000000000000000000000000000000000011100111111111000111111111100000000010000000001100000000000000000011111111100011111111000000000000111111111111111111111110000000000000000000000000000000000000
00000000000000000000000000000000000000000011110111111111000011111111100000000011100011000000000000000000000111111111100001111111100000000001111111111111111111111111000000000000001110000000000000000000
00000000000000000000000000000000000000000001111111101110000000111111110000000111111111000000000000000000000111111111000000111111110000001111111111110000000111111111000000000000001110000000000000000000
00000000000000000000000000000000000000000000111111100000000000011111111000000111111100100000000000000000001111111111000001111111110000011111111110000000000001111111100000000000000000000000000000000000
00000000000000000000000000000000000000000000001111110000000000011111111000000111111000110000000000000000001111111110000001111111110011111111111000000000000000111111100000000000000000000000000000000000
00000000000000000000000000000000000000000000001111100000000000111111111000000001110000001000000000000000011111111110000001111111111111111111100000000000000000011111110000000000000000000000000000000000
00000000000000000000000000000000000000000000001111000000000011111110011100010000000000001100000000000000011111111100000001111111111111111000000000000000000000011111110000000000000000000000000000000000
00000000000000000000000000000000000000000000001111000111111100111000001111111100000000001110000000000000011111111000000001111111111111000000000000000000000000001111110000000001110000000000000000000000
00000000000000000000000000000000000000000000011111111111101110111000001111111111100000001111000000000000011111100000000011111111111100000000000000000000000000001111110000000000010000000000000000000000
00000000000000000000000000000000000000000001100111111111000111111110011111111111111110000111100000000000111111001111111111111111111000000000000000000000000000001111110000000000000000000000000000000000
00000000000000000000000000000000000011100011110011111100000000000111111111111111111111001111111111000111111110011111111111111111110001110000000000000000000000001111000000000000000000000000000000000000
00000000000000000000000000000000000011111111111000000000000000000111111111110000111111111111111111100001111100011111111100111111110001110000000000000000000000001111000000000000000000000000000000000000
00000000000000000000000000000000000001111111111100000000011100000011011111100000000000111111111111111001111110111100000000111111110000000000000000000000000000001111110000000000000000000000000000000000
00000000000000000000000000000000000001111110011100000000011100000011011111100000000000000001111111111111111111111000000011111111100000000000000000000001110000001111110000000000000000000000000000000000
00000000000000000000000000000000000011111100000000000000000000000111111111100000000000000000111000000000111111111000000111111111100000000000000000000001110000011111110000000000000000000000000000000000
00000000000000000000000000000000000111110000000000000000000000000111111111000000000000000001111000000000111111110000000111111111000000000000000000000000000000011111100000000000000000000000000000000000
00000000000000000000000000000000001111100000000000000000000000000111111011100000011100000001111000000000001111110000001110111111000000000000000000000000000000111111100000000000000000000000000000000000
00000000000000000000000000000000011111000000000000000000000000000111110000000000011100000001100000000000000111110000001110111110000000000000000000000000000001111111000000000000000000000000000000000000
00000000000000000000000000000000111110000000000111000000000000000111110000011000000000000001100000000000001111100000011111111100000000000000000100000000000111111110000000000000000000000000000000000000
00000000000000000000000000000000011100000000011110000000000000000011100011110000000000000011110000000000001111110001111111111000000000000000000110000000011111111110000000000000000000000000000000000000
00000000000000000000000000000000001000000000111100000000000001100000100001111000000000000111110000000000000111111111111111110000000000000000000111111111111111111100000000000000000000000000000000000000
00000000000000000000000000000000000000000000111110000000000111111000000001111100000000001111100000000000000011111111111111000000000000000000000110111111111111111000000000000000000000000000000000000000
00000000000000000000000000000000000000000000011111001111111111111110000000011100110000111111100000000000000000011101111110000000000000000000000110010011111111100000000000000000000000000000000000000000
00000000000000000000000011100000000000000000011111111111111111111100000000001000111111111111000000001100000000000000000000000000000000000000000111000011111111000000000000000000000000000000000000000000
00000000000000000000001111100000000000000000001111111111111111111000000000000000111111111110000000001100000000000000000000000000000000000000000111100111110000000000000000000000000000000000000000000000
00000000000000000000001110000000000000000000001111111111111111100000000000000000110001111100000000000001110000000000000000000000000000000000000011111111000000000000000000000000000000000000000000000000
00000000000000000000000000000000000000000000001111111111111110000000000000000000000000111000000000000001110000000000000000000000000000000000000000000000000000000000000000000000000000000000000000000000
00000000000000000000000000000000000000000000000011111111111000000000000000000000000000000000000000000000000000000000000000000000000000000000000000000000000000000000000011100000011100000000000000000000
00000000000000000000000000000000000000000000000011111111100000000000000000000000000000000000000000000000000000000000000000000000000000000000000000000000000000000000000011100000011100000000000000000000
00000000000000000000000000000000000000000000000011110000000000000000000000000000000000000000000000000000000000000000000000000000000000000000000000000000000000000000000000000000000000000000000000000000
00000000000000000000000000000000000000000000000000000000000000000000000000000000000000000000000000000000000000000000000000000000000000000000000000000000000000000000000000000000000000000000000000000000
00000000000000000000000000000000000000000000000000000000000000000000000000000000000000000000000000000000000000000000000000000000000000000000000000000000000000000000000000000000000000000000000000000000
00000000000000000000000000000000000000000000000000000000000000000000000000000000000000000000000000000000000000000000000000000000000000000000000000000000000000000000000000000000000000000000000000000000
00000000000000000000000000000000000000000000000000000000000000000000000000000000000000000000000000000000000000000000000000000000000000000000000000000000000000000000000000000000000000000000000000000000
00000000000000000000000000000000000000000000000000000000000000000000000000000000000000000000000000000000000000000000000000000000000000000000000000000000000000000000000000000000000000000000000000000000
00000000000000000000000000000000000000000000000000000000000000000000000000000000000000000000000000000000000000000000000000000000000000000000000000000000000000000000000000000000000000000000000000000000
00000000000000000000000000000000000000000000000000000000000000000000000000000000000000000000000000000000000000000000000000000000000000000000000000000000000000000000000000000000000000000000000000000000
