P1
200 70
00000000000000000000000000000000000000000000000000000000000000000000000000000000000000000000000000000000000000000000000000000000000000000000000000000000000000000000100000000000000000000000000000000000
00000000000000000000000000000000000000000000000000000000000000000000000000000000000000000000000000000000000000000000000000000000000000000000000000000000000000000001110000000000000000000000000000000000
00000000000000000000000000000000000000000000000000000000000000000000000000000000000000000000000000000000000000000000000000000000000000000000000000000000000000000001111100000000000000000000000000000000
00000000000000000000000000000000000000000000000000000000000000000000000000000000000000000000000000000000000000000000000000000000000000000000000000000000000000000011111000000000000000000000000000000000
00000000000000000000000000000000000000000000000000000000000000000000000000000000000000000000000000000000000000000000000000000000000000000000000000000000000000000111110000000000000000000000000000000000
00000000000000000000000000000000000000000000000000000000000000000000000000000000000000000000000000000000000000000000000000000000000000000000000000000000000000001111110000000000000000000000000000000000
00000000000000000000000000000000000000000000000000000000000000000000000000000000000000000000000000000000000000000000000000000000000000000000000000000000000000001111100000000000000000000000000000000000
00000000000000000000000000000000111000000000000000000000000000000000000000000000000000000000000000000000000000000000000000000000000000000000000000000000000000011111000000000000000000000000000000000000
00000000000000000000000000000000111000000000000000000000000000000010000000000000000000010000000000000000000000000000000000000000000000000000000000000000000000111110000000000000000000000000000000000000
00000000000000000000000000000000000000000000000000000000000000000010000000000000000000010000000000000000000000000000000000000000000000000000000000000000000000111111000000000000000000000000000000000000
00000000000000000000000000000000000000000000000000000000000000000000000000000000000000000000000000000111111111000000000000000000000000000000000000000000000001111111100000000000000000000000000000000000
00000000000000000000000000000000000000000000000000000000000000000000000000000000000000000000000000000111111111000000000000000000011100000000000000000000000011111111100000000000000000000000000000000000
00000000000000000000000000000000000000000000000000000000000000000000000000000000000000000000000000000111111111111110000000000000011100000000000000000000000111110000000000000000000000000000000000000000
00000000000000000000000000000000000000000000000000000000000000000000000000000000000000000000000000000111111111111111000000000000000000000000000000000000001111100000000000000000000000000000000000000000
00000000000000000000000000000000000000000000000000000000000000000000000000000000000000000000000000000111111101111111110000000000000000000000000000000000001111000000000000000000000000000000000000000000
00000000000000000000000000000000000000000111000000000000000000000000000000000000000000000000000000000111111101111111111111100000000000000000000000000000000010000000000000000000000000000000000000000000
00000000000000000000000000000000000000000111100000000000000000000000000000000000000000000000000000000111111111111111111111111111000000000000000000000001100000000000000000000000000000000000000000000000
00000000000000000000000000000000000000000111111100000000000000000000000000000000000000000000000000000111111111111111111111111111000000000000000000000111000000111000000000000000000000000000000000000000
00000000000000000000000000000000000000001111111110000000000000000000000000000000001111110000000000000011111111111111111111111111000000000000000000001111000000111000000000000000000000000000000000000000
00000000000000000000000000000000000000001111111111111110000000000000000000000000000111111100000000000001111111111111111111101111100000000000111111111111100000000000000000000000000000000000000000000000
00000000000000000000000000000000000000001111111111111111100000000000000000000000001111111110000000000000000001111111111111101111100000000011111111111111110000000000000000000000000000000000000000000000
00000000000000000000000000000000000000001111111111111011111110000000000000000000111111111111000000000000000000001111111111111111100000000111111111111111111100000000000000000000000000000000000000000000
00000000000000000000000000000000000000001111111111110001111111000000000000000111111111111111110000000000000000001110000111111111100000001111110111111111111110000000000000000000000000000000000000000000
00000000000000000000000000000000000000001111111111111000111111000000000000000111111000001111110000000000000000001110000111111111000000011111110111101111111100000000000000000000000000000000000000000000
00000000000000000000000000000000000111011111111000111000111111100000000000001111100000000011111000000000000011100000000111111110000000011111111111000111111100010000000000000000000000000000000000000000
00000000000000000000000000000000000111011111110000000111111111000000000000001111000000000001111000000000000011100000001111111110000000001111111111000011111001111000000000000000000000000000000000000000
00000000000000000000000000000000000000011111110000000000011110000000000000001111000000000001111100000000000000000000011111111100000000001111111110000000110011111000000000000000000000000000000000000000
00000000000000000000000000000000000000011111110000000000000100000000000000001111000000000000110000000000000000000000011111111000000011111111011110000000001111111100000000000000000000000000000000000000
00000000000000000000000000000000000000011111110000000001110000000000000000011111100000000000110110000000000000000000111111111100011111111111011110000000001111111100000000000000000000000000000000000000
00000000000000000000000000000000000000111111110000000001110000000000000001111111111111000001111110000000000000000001111111111111111111111111111110000000001111110000000000000000000000000000000000000000
00000000000000000000000000000000000000111111111001111100000000000011111111111111111111111111111100111111111000001111111111111111111111000111111111000000001111100000000000000000000000000000000000000000
00000000000000000000000000000000000001111111111111111111000001111111111111101111111111111111111101111111111110000011111111111111110000000011111100100000001111000100000000000000000000000000000000000000
00000000000000000000000000000000000001111111111101111111111111111111111111000111111111111111111111111111111111110011111111111110000000000001111101100000001111101100000000000000000000000000000000000000
00000000000000000000000000000000000001111111111101111111111111111110000000001111110000000001110111111111111111111111111111100000000000000000111111111100011111111100000000000000000000000000000000000000
00000000000000000000000000000000000001111111111111111111111110000000000000001111100000000000100111100001110000000011111111000000000000000000001111111111111111111100000000000000000000000000000000000000
00000000000000000000000000000000000001111111111111111111111100000000000000001111100000000000001111100000000000000011111111000000000000000000000111111111111111111100000000000000000000000000000000000000
00000000000000000000000000000000000000011111111111111111110000000000000000001111110000000000011111101110000000000111111110000000000000000000001111111111111111111100000000000000000000000000000000000000
00000000000000000000000000000000000000011111111111001111111000000000000000001111111000000111111111101110000000000001111110000000000000000000011111101111111111111000000000000000000000000000000000000000
00000000000000000000000000011100000000000001111110001111111100000000000000000111111111100111111111100000000000000001111110000000000000000000011111101111111111111000000000000000000000000000000000000000
00000000000000000000000000011100000000000011111000011111111110000000000000000111111111110111111111100000000000000111111110000000000000011100011111111110111111111100000000000000000000000000000000000000
00000000000000000000000000000000000000111111100000011111111110000000000000000011111111111110011111100000000000001111111100000000000000011100111111111000001111111100000000000000000000000000000000000000
00000000000000000000000000000000000001111110000000000111111110000000000000000001111111111110011111100000000000001111111100000000000000000000111111111000000111111000000000000000000000000000000000000000
00000000000000000000000000000000000011111100000000000111111100000000000000000001111111111100111111100000000000011111111100000000000001110000111111111000000011111100000000000000000000000000000000000000
00000000000000000000000000000000000000111000000000000111111100000000000000000000111111000000111111000000000000011111111100000000000001110000111111110000000001111111000000000000000000000000000000000000
00000000000000000000000000000000001000011000000000000011011000000000000000000000010000000000111111000000000001111111111100000000000000000000011111111000000000111111000000000000000000000000000000000000
00000000000000000000000000000000011100000000000000000111011000000000000000000000000000000000111111000000000001000011111100000000000000000000001111111000000000111111000000000000000000000000000000000000
00000000000000000000000000000000111110000000000000011111111000000000000000000000000000000000111110000000000000000011111100000000000000000000001111111100000000111111000000000000000000000000000000000000
00000000000000000000000000000000111110000000000000111111110000000000000000000000000000000001111110000000000000011111111100000000000000000000001111111100000000111111000000000000000000000000000000000000
00000000000000000000000000000001111110000000001111111111110000000000000000000000000000000011111100000000000000111111111100000000000000011100000110011110000000011111100000000000000000000000000000000000
00000000000000000000000000000001111110011111111111111111000000000000000000111000000000000011111100111000000000111111111100000000000000000100000000011111000000011111100000000000000000000000000000000000
00000000000000000000000000000001111110111111111111111110000000000000000000111001000000001111111000111000000000111111111100000000000000000000000000111111111111111111000000000000000000000000000000000000
00000000000000000000000000000001111111111111111111011100000000000000000000011111100000011111110000000000000000011111111100000000000000000000000000111111111111111111000000000000000000000000000000000000
00000000000000000000000000000001111111111111111110001000000000000000000000011111110001111111100000000000000000011111111100000000000000000000000000011111111111111111000000000000000000000000000000000000
00000000000000000000000000000001111111111111111111000000000000000000000000111110111111100001000000000000000000111111111100000000000000000000000000000111111111111111000000000000000000000000000000000000
00000000000000000000000000000000111111111111111100000000000000000000000000111110111011100000000000000000000000111111110000000000000000000000000000000011111111111110000000000000000000000000000000000000
00000000000000000000000000000000001111111111100000000000000011100000000000011111111011111000000000000000000000111000000000000000000000000000000000000000011111111000000000000000000000000000000000000000
00000000000000000000000000000000000001110000000000000000000000100000000000011111111111110000000000000000000000000000000000000000000000000000000000000000000000100000000000000000000000000000000000000000
00000000000000000000000000000000000000000000000000000000000000000000000000011111111111100000000000000000000000000001110000000000000000000000000000000000000000000000000000000000000000000000000000000000
00000000000000000000000000000000000000000000000000000000000000000000000000001111111000000000000000000000000000000001110000000000000000000000000000000000000000000000000000000000000000000000000000000000
00000000000000000000000000000000000000000000000000000000000000000000000000000001000000000000000000000000000000000000000000000000000000000000000000000000000000000000000000000000011100000000000000000000
00000000000000000000000000000000000000000000000000000000000000000000000000000000000000000000000000000000000000000000000000000000000000000000000000000000000000011100000000000000011100000000000000000000
00000000000000000000000000000000000000000000000000000111000000000000000000000000000000000000000000000000000000000000000000000000000000000000000000000000000000011100000000000000000000000000000000000000
00000000000000000000000000000000000000000000000000000111000000000000000000000000000000000000000000000000000000000000000000000000000000000000000000000000000000000000000000000000000000000000000000000000
00000000000000000000000000000000000000000000000000000000000000000000000000000000000000000000000000000000000000000000000000000000000000000000000000000000000000000000000000000000000000000000000000000000
00000000000000000000000000000000000000000000000000000000000000000000000000000000000000000000000000000000000000000000000000000000000000000000000000000000000000000000000000000000000000000000000000000000
00000000000000000000000000000000000000000000000000000000000000000000000000000000000000000000000000000000000000000000000000000000000000000000000000000000000000000000000000000000000000000000000000000000
00000000000000000000000000000000000000000000000000000000000000000000000000000000000000000000000000000000000000000000000000000000000000000000000000000000000000000000000000000000000000000000000000000000
00000000000000000000000000000000000000000000000000000000000000000000000000000000000000000000000000000000000000000000000000000000000000000000000000000000000000000000000000000000000000000000000000000000
00000000000000000000000000000000000000000000000000000000000000000000000000000000000000000000000000000000000000000000000000000000000000000000000000000000000000000000000000000000000000000000000000000000
00000000000000000000000000000000000000000000000000000000000000000000000000000000000000000000000000000000000000000000000000000000000000000000000000000000000000000000000000000000000000000000000000000000
