P1
200 70
00000000000000000000000000000000010000000000000000000000000000000000000000000000000000000000000000000000000000000000000000000000000000000000000000000000000000000000000000000000000000000000000000000000
00000000000000000000000000000000011111110000000000000000000000000000000000000000000000000000000000000000000000000000000000000000000000000000000000000000000000000000000000000000000000000000000000000000
00000000000000000000000000000000011111111111111000000000000000000000000000000000000000000000000000000000000000000000000000000000000000000000000000000000000000000000000000000000000000000000000000000000
00000000000000000000000000000000011111111111111111111110000000000000000000000000000000000000000000000000000000000000000000000000000000000000000000000000000000000000000000000000000000000000000000000000
00000000000000000000000000000000000000011111111111111111110000000000000000000000000000000000000000000000000000000000000000000000000000000000000000000000000000000000000000000000000000000000000000000000
00000000000000000000000000000000000000000000001111111111111111000000000000000000000000000000000000000000000000000000000000000000000000000000000000000000000000000000000000000000000000000000000000000000
00000000000000000000000000000000000000000000000011100111111111111000000000000000000000000000000000000000000000000000000000000000000000000000000000000000000000000000000000000000000000000000000000000000
00000000000000000000000000000000000000000000000011100000011111111111000000000000000000000000000000000000000000000000000000000000000000000000000000000000000000000000000000000000000000000000000000000000
00000000000000000000000000000000000000000000000011100000000011111111111000000000000000000000000000000000000000000000000000000000000000000000000000000000000000000000000000000000000000000000000000000000
00000000000000000000000000000000000000000000000000000000000000111111111111100000000000000000011000000000000000011111111110000000000000000000000000000000000000000000000000000000000000000000000000000000
00000000000000000000000000000000000000000000000000000000000000000011111111111100000000000000111000000000000000111111111111110000000000000000001110000000000000000111000000000000000000000000000000000000
00000000000000000000000000000000000000000000000000000000000000000000001111111110000000000000000000000000000111111110111110111000000000000000001100000000000000000111000000000000000000000000000000000000
00000000000000000000000000000000000000000000000000000000000000000000000001111111001100000000000000000000000111111110111110111111000000000000000000000000000000000000000000000000000000000000000000000000
00000000000000000000000000000000000000000000000000000000000000000000000000000111111111000000000000000000001111111111111111111111100000000000000000000000000000000000000000000000011100000000000000000000
00000000000000000000000000000000000000000000000000000000000000000000000000000001111111110000000000000001111111001111111111111111100000000000000011111111111000000000000000000000011100000000000000000000
00000000000000000000000000000000000000000000000000000000000000000000000000000000111111111100000000000001111110000111111111111111110000000000001111111111111111110000000000000000000000000000000000000000
00000000000000000000000000000000000000000000000000000000000111000000000000000000111111111110000000000001111111001111111111111111110011100000011111111111111111111000000000000000000000000000000000000000
00000000000000000000000000000000000000000000000000000000111111000000000000000000000000111111100000000000111111111110111111111111110011100000111111111110001111111111000000000000000000000000000000000000
00000000000000000000000000000000000000000000000000000111111110000000000000000000000000001111111000000001111111111000001111111001111000000001111111111100000011111111110000000000000000000000000000000000
00000000000000000000000000000000000000000000000000111111111110000000000000000000000000000011110000000011111111110000000011110000111000000001111111111110000001111111111110000000000000000000000000000000
00000000000000000000000000000000000000000001011111111111111110000000000000000000000000000001111001100001111111110000000001111001111000000011111111111111111001111111111110000000000000000000000000000000
00000000000000000000000000000000000000011111111111111111111110000000000000000000000000000000011111100001111111100000000001111111111000000111111111111111011111111111111110000000000000000000000000000000
00000000000000000000000000000000011111111111111111111111111110000000000000000000000000000000000111000011111111100000000000011111110000000011111111110000000000111111011110000000000000000000000000000000
00000000000000000000000000000000011111110111111111111111111110000000000000000000000001111110000000000111111111100000000000011111110000000000001111100011100000011111011110000000000000000000000000000000
00000000000000000000000000000000001111110111111111111111110000000000000000000000111111111110000000011111111111100000000000111111111000000000000000000011100000111111111110000000000000000000000000000000
00000000000000000000000000000000000111111111111111111111000000000000000000000111111111111001111000001111111111100000000001111101111100000000000000000000000000111111111110000000000000000000000000000000
00000000000000000000000000000000001111111111111100000000000000000000000000001111101111111011111100000111111111100000000001111101111000000000000000000000000000111111011110000000000000000000000000000000
00000000000000000000000000000000001111111100000000000000000000000000000000111111101111111111111110000100111111100000000001111111110000000001100000000000000001111111011110000000000000000000000000000000
00000000000000000000000000000000001111000000000000000000000000000000000011111111111111111101111111110100111111111000000011111111110000000001100000000000000011111111111100000000000000000000000000000000
00000000000000000000000000000000001110000000000000000000000000000000000111111111111111111101111111110011111111111100000111111111110000000000000000110000110111111111111000000000000000000000000000000000
00000000000000000000000000000000001111000000000000000000000000000000000111111111111111111111111111100001111111111111011111111111110000000000000001111111111111111011110000000000000000000000000000000000
00000000000000000000000000000000001111000000000000010000000000000000000111111111100000111111111111100000111111111111111111111111110000000000000001111111111111111011100000000000000000000000000000000000
00000000000000000000000000000000001111100111111100111111000000000000000111111110000000011111011111100000011111111111111111111111100000000000000001111001111111111111000000000000000000000000000000000000
00000000000000000000000000000000001111111111111111111111100000000000100011011110000000011111011111100000011111111110111111111111000000000000000011110000111111111110000000000000000000000000000000000000
00000000000000000000000000000000001111111111111111111111110000000001110111011100000001111111111111100000011111111110111111111100000000000000000011100001111111100000000000000000000000000000000000000000
00000000000000000000000000000000000111111110111111111111111000000001111111111100000001111111111111100000111111111111111111111100000000000000000111110011111100000000000000000000000000000000000000000000
00000000000000000000000000000000000111110000000011111111111100000001111110111000000000111111111111100000111111111111111111111100000000000000000111111111111100111000000000000000001110000000000000000000
00000000000000000000011100000000000111100000000001111111111100000001111110110000000000011111111111100000011111111111111111111110000000000000000000011111111111111100000000000001001110000000000000000000
00000000000000000000011100000000000000000000000001111111111100000001111111110000001100011111111011000000111111111111111111111111000000000000000000000111111111111110000000000111000000000000000000000000
00000000000000000000000000000000000000000000000000111111111100000001111111110001101100011111111011000011111111111100111111111111110000000000000000000000111111111111000000000000000000000000000000000000
00000000000000000000000000000000000000000000000000111111111110000011111111111111100000111111111111100111111011100000000111110001111000000000000000000000111111111110000000000000000000000000000000000000
00000000000000000000000000000000000000000000000000111111111110000011111111111111100001111111111111111111111000000000000011100000111111101100000000000000111111111110000000010000000000000000000000000000
00000000000000000000000000000000000000000000000000111111111110000011111111111111000011111111111101111111111110000000000011110000111111111100000000000000111111111110000000000000000000000000000000000000
00000000000000000000000000000000000000000000000001111111111100000001111111111111101111111111111101111111111110000000000011111100111111111100000000000001111111111110000000000000000000000000000000000000
00000000000000000000000000000000000000000000000001111111101100000001111111111011111111111111111111111111111100000000000001111001111011111110000000000011111111111110000000000000000000000000000000000000
00000000000000000000000000000000000000000000000001111111101100000000111111111011111111111111111111111111111100000000000000111000111011110111100000001111110111111100000000000000000000000000000000000000
00000000000000000000000000000000000000000000000001111111111100000000111111111111111111111111111111001111111100000000000000111110111111110111111011111111100011111000000000000000000000000000000000000000
00000000000000000000000000000000000000000000000001111111111100000000011111111011111111111111111111001111111100000000000000111111111111111111111111111111110111000000000111000000000000000000000000000000
00000000000000000000000000000000011111000000000001000111111100000000001111110001111111111111110111111111101100000000000000111111111111111111111111111111111110000000000111000000000000000000000000000000
00000000000000000000000000000000011111000000000011100001111100000000000011110000111111111111110011111111101110000000000000001111111111111111111111111111111111000000001000000000000000000000000000000000
00000000000000000000000000000000011111100000000011111001111100000000000000111100011100111111111100111111111111000000000011001111111111111111111111111111111111111100011000000000000000000000000000000000
00000000000000000000000000000000011111110000000011111111111000000001110000000000000001111111111100111111111111100000011111111111111111111111011111111111111111111111111000000000000000000000000000000000
00000000000000000000000000000000001111111100000111111011111000000000010000000000000001111111111100111111111111100000001111111111111111111111001111111111111111111111111000000000000000000000000000000000
00000000000000000000000000000000000111111111111111111011110000000000000000000000000001111111111000011111111111110000001111111111111111111111100011110000011111111000000000000000000000000000000000000000
00000000000000000000000000000000000011111111111111111111110000000000000000000000000011111111110000001111111111111110011111111111111100111100000000000000000000000000000000000000000000000000000000000000
00000000000000000000000000000000000000000111111111111111110000000000111000000000000111111111110000001111111111111111111111111111111100000000000000000000000000000000000000000000000000000000000000000000
00000000000000000000000000000000000000000011111111111111000000000000111110000000000111111111100000000111111111111111111111111111111000000000000000000000000000000000000000000000000000000000000000000000
00000000000000000000000000000000000000000000000111111000000000000001111111110001001111111111100000000111111111111111111111111111111000000000000000000000000000000000000000000000000000000000000000000000
00000000000000000000000000000000000000000000000000000000000000000001111111111111111111111111100000000001111111111111111111111111110000000000000000000000000000000000000000000000000000000000000000000000
00000000000000000000000000000000000111000000000000000000000000000000110001111111111111111111000000000000011111111111111111111111110000000000000000000000000000000000000000000000000000000000000000000000
00000000000000000000000000000000000111000000000000000000000000000001110001111111111111111110000000000000000110011111111111111111000000000000000000000000000000000000000000000000000000000000000000000000
00000000000000000000000000000000000000000000000000000000000000000000111111111111111111111100000000000000000000001111111111111110000000000000000000000000000111000000000000000000000000000000000000000000
00000000000000000000000000000000000000000000000000000000000000000000011111111111111111110000000000000000000000000011111111111100000000000000000000000000000111000000000000000000000000000000000000000000
00000000000000000000000000000000000000000000000000000000000000000000000111111111111111100000000000000000000000000000000010000000000000000000000000000000000000000000000000000000000000000000000000000000
00000000000000000000000000000000000000000000000000000000000000000000000000001111111110000000000000000000000000000000000000000000000000000000000000000000000000000000000000000000000000000000000000000000
00000000000000000000000000000000000000000000000000000000000000000000000000000000000000000000000000000000000000000000000000000000000000000000000000000000000000000000000000000000000000000000000000000000
00000000000000000000000000000000000000000000000000000000000000000000000000000000000000000000000000000000000000000000000000000000000000000000000000000000000000000000000000000000000000000000000000000000
00000000000000000000000000000000000000000000000000000000000000000000000000000000000000000000000000000000000000000000000000000000000000000000000000000000000000000000000000000000000000000000000000000000
00000000000000000000000000000000000000000000000000000000000000000000000000000000000000000000000000000000000000000000000000000000000000000000000000000000000000000000000000000000000000000000000000000000
00000000000000000000000000000000000000000000000000000000000000000000000000000000000000000000000000000000000000000000000000000000000000000000000000000000000000000000000000000000000000000000000000000000
