P1
200 70
00000000000000000000000000000000000000000000000000000000000000000000000000000000000000000000000000000000000000000000000000000000000000000000000000000000000000000000000000000000000000000000000000000000
00000000000000000000000000000000000000000000000000000000000000000000000000000000000000000000000000000000000000000000000000000000000000000000000000000000000000000000000000000000000000000000000000000000
00000000000000000000000000000000000000000000000000000000000000000000000000000000000000000000000000000000000000000000000000000000000000000000000000000000000000000000000000000000000000000000000000000000
00000000000000000000000000000000000000000000000000000000000000000000000000000000000000000000000000000000000000000000000000000000000000000000000000000000000000000000000000000000000000000000000000000000
00000000000000000000000000000000000000000000000000000000000000000000000000000000000000000000000000000000000000000000000000000000000000000000000000000000000000000000000000000000000000000000000000000000
00000000000000000000000000000000000000000000000000000000000000000000000000000000000000000000000000000000000000000000000000000000000000000000000000000000000000000000000000000000000000000000000000000000
00000000000000000000000000000000000000000000000000000000000000000000000000000000000000000000000000000000000000000000000000000000000000000000000000000000000000000000000000000000000000000000000000000000
00000000000000000000000000000000000000000000000000000000000000000000000000000000000000000000000000000000000000000000000000000000000000000000000000000000000000000000000000000000000000000000000000000000
00000000000000000000000000000000000000000000000000000000000000000000000000000000000000000000000000000000000000000000000000000000000000000000000000000000000000000000000000000000000000000000000000000000
00000000000000000000000000000000000110000000000000000000000000000000000000000000000000000000000000000000000000000000000000000000000000000000000000000000000000000000000000000000000000000000000000000000
00000000000000000000000000000000001110000000000000000000000000000000000000000000000000000000000000000000000000000000000000000000000000000000000000000000000000000000000000000000000000000000000000000000
00000000000000000000000000000000000000000000000000000000000000000000000000000000000000000000000000000000000000000000000000000000000000000000000000000000000000000000000000000000000000000000000000000000
00000000000000000000000000000000000000000000111000000000000000000000000000000000000000000000000000000000000000000000000000000000000000000000000000000000000000111000000001110000001110000000000000000000
00000000000000000000000000000000000000000000000000000000000000000000000000000000000000000011100000000000000000000000000000000000000000000000000000000000000000111000000001110000000010000000000000000000
00000000000000000000000000000000000000000000000001110000000000000000000000000000000000000011100000000000000000000000001111110000000000000000000000000000000000000000000000000000000000000000000000000000
00000000000000000000000000000000000000000000000001110000000000000000011100000000000000000000000000000000000000000011111111111110000000000000000000000000000000000000000000000001110000000000000000000000
00000000000000000000000000000000000000000000000000000000000000000000011100000001110000000000000000000000000000000111111111111111000001110000000000000000000000000000000000000001110000000000000000000000
00000000000000000000000000000000000000000000000000000000000000000000000001111111111100000000000000000000000000001111111111111111100001110000000000000000000000000000000000000000000000000000000000000000
00000000000000000000000000000000000000000000000000000000000000000000000011111111111110000001110000000000000000011111111111111111100000000000000000000000000000000000000000011000000000000000000000000000
00000000000000000000000000000000000000000000000000000000000000000000000111111111111111000001110000000000000000111111111111111111100000000000000000000000000000111111111111111000000000000000000000000000
00000000000000000000000000000000000000000000000000000000000000000000011111110001111111111000000000000000000000111111000000111111100000000000000000001111111111111111111111111000000000000000000000000000
00000000000000000000000000000000000000000000010000000000000000000000111111000000011111111000000000000000000000111110000000011111100000000000000001111111111111111111111111110000000000000000000000000000
00000000000000000000000000000000000000000000011110000000000000000000111110000000011101110000000000000000000001111100000000001111100000000000000001111111111111111111111111110000000000000000000000000000
00000000000000000000000000000000000000000000111111000000000000000001111100000000011101110000000000000000000011111100000000001111100000000000000011111111111111111111111011100000000000000000000000000000
00000000000000000000000000000000000000000000111111111000000000000011111100000000001111110000000000000000000111110000000000000111110000000000000011111111111111111111111001100000000000000000000000000000
00000000000000000000000000000000000000000001111111111100000000000011111000000000001111100000000000000000000111110000000000000111111000000000000111111111111111111111111111100000000000000000000000000000
00000000000000000000000000000000000000000001111111111111000000000011111000000000001110000000000000000000001111110000000000000111111000000000000111111111111111111111111100000000000000000000000000000000
00000000000000000000000000000111000000000000000001111110000000000111111000000000001110011000000000000000001111110000000000000011111000000000000011111011111000111111111000000000000000000000000000000000
00000000000000000000000000000000000000000000000000111110000000000111110000000000000111111000000000000000011111100000000000000001110000000000010011111001110000000000001000000000011110000000000000000000
00000000000000000000000000000000000000000001000000000111000000001001110001110000000111111100000000000000011111100000000000000001110000000001111111111111000000000000000000000000011110000000000000000000
00000000000000000000000000000000000000000011100000000011000000001101110001100000000111111100000000000000111111100000000000000000110000000001111111111110111110001110000000000000000000000000000000000000
00000000000000000000000000000000000000111111111000111111111000001111100000000000000111111100000000000000111111000000000000000001111000110011111111111100111111111111000000000000000000000000000000000000
00000000000000000000000000000000000111111111110001111111111111111111100000000000000111111100000000000000111111000000000000001111111111111111111111111101111111111111100000000000000000000000000000000000
00000000000000000000000000000000111111111111110011111111110111111111110000000000000111111110000000000000111111000000000000001111111111111110011111111111111111111111111000000111000000000000000000000000
00000000000000000000000000000000111111111111111111111111100011111111110000000000000111111110000000000000111111000000000000001111111111110000011111111111111111111111111100000111000000000000000000000000
00000000000000000000000000000000011111111111000000000000000011111111111000000000000111111110000000000000111100000000000000011111111111000001111111111111111111111111111110000000000000000000000000000000
00000000000000000000000000000000010001111111001000000000000000111111111111111111100011111110000000000001111100000000000111111111111000000001111111111110011111111111111110000000000000000000000000000000
00000000000000000000000000000000000001111111111110000000011100011111111111111111110011111110000000000000111111100111110011111111111000000001111111111100001111111111111110000000000000000000000000000000
00000000000000000000000000000000000000111111111111100000011100111111111111111111111111111110000000000000011111111111111011111111111000000011111000000000000011111111111110000000000000000000000000000000
00000000000000000000000000000000000000011111111111110000000011111111100001111111111111111111111111111110011111111111111111111111111000000010000000000000000011111101111110000000000000000000000000000000
00000000000000000000000000000000000000000000000111111000000011100000000000000001111111111111111111111111111111111111111111111111111000000000000000000000000001111101111110000000000010000000000000000000
00000000000000000000000000000000000000000000000011111000000000000000011100000001111111111111111101111111111111111111111111111111110000000000000000000000000011111111111110000000000010000000000000000000
00000000000000000000000000000000000000000000000011111100000000001111111111111111110011111110001000111000111111111111001111111110110000000000000000000000000011111111111100000000000000000000000000000000
00000000000000000000000000000000000000000000011111100000000000001111111111111000100001111100000000000000011111111111101111111110010000000000000000000000000111111111111000000000000000000000000000000000
00000000000000000000000000000000000000000000011111000010000000000001111111100000000001111000000000000000001111111111111111011111110000000000000000000000111111111111001000000000000000000000000000000000
00000000000000000000000000000000000000000000000001000110000000000000110111000000000000111100000000000000000111111111111110001111100000000000000000000000111111111111000000000000000000000000000000000000
00000000000000000000000000000000000000000000000001111110000000000000000111000000000000111100000000000000000011111111111100011111100000000000000000000001111111111111100000000000000000000000000000000000
00000000000000000000000000000111000000000000000011111110000000000000001110000000000011111100000000000000000000001111111000011111100011110000000000000111111111111111100000000000000000000000000000000000
00000000000000000000000000000111000000000000000011111111110000000000001110000000000011111100000000000000000000000000000000111111110011111110001101111111011111111111000000000000000000000000000000000000
00000000000000000000000000000110000000000000000111111111110000000000000000000000000011111100000000000000000000000000000000111111111100001111011111111111011111111000000000000000000000000000000000000000
00000000000000000000000000001110000000000000000111111100000000000000000000000000000111111000000000000000000000000000000000111111111110001111111111111111111111111000000000000000000000000000000000000000
00000000000000000000000000111110000000000000001111111000000000000000000000000000000111111000000000000000000000000000000001111111111111111111111111111111111111100000000000000000000000000000000000000000
00000000000000000000000001111110000000000001111111110000000000000000000000000000000111110000000000000000000000000000011111111111011111111111111111111111111100000000000000000000000000000000000000000000
00000000000000000000000001111111111111111111111100000000000000000000000000000000001111110000000000000000000000000000011111111110011111111111111111111111110000000000000000000000000000000000000000000000
00000000000000000000000011111111111111111111111000000000000000000000000000000000011111100000000000000000000000000000001111111110011111111111111111101100000000000000000000000000000000000000000000000000
00000000000000000000000011111011111111111111100000000000000000000111000000000000111111000000000000000000000000000000001111111100000111111000000000000000000000000000000000000000000000000000000000000000
00000000000000000000000001110001100011111100000000000000000000011111000000000001111110000000000000001000000000000000011111111100000111000000000110000000000000000000000000000000000000000000000000000000
00000000000000000000000000000000000000000000000000000000000000111111000000000111111100000000000000011000100000000000111111111000000000000000001110000000000000000000000000000000000000000000000000000000
00000000000000000000000000000000000000000000000000000000000000111111111001111111111000000000000000000001111110000011111011111000000000000000000000000000000000000000000000000000000000000000000000000000
00000000000000000000000000000000000000000000000000000000000000111111111111111111100000000000000000000011111111000001111011110000000000000000111000111000000000000000000000000000000000000000000000000000
00000000000000000000000000000000000000000000000000000000000000001111111111111110000000000000000000011111111111110001111111100000000000000000111000111000000000000000000000000000000000000000000000000000
00000000000000000000000000000000000000000000000000000000000000001111111111111000000000000000000000011111111111111000111110000000000000000000111100000000000000000000000000000000000000000000000000000000
00000000000000000000000000000000000000000000000000000000000000111111111110000000000000000001100000001111111101111101111100000000000111000000111111000000000000000000000000000000000000000000000000000000
00000000000000000000000000000000000000000000000000000000000000111111100000000000000000000011100000000011111000111111111000000000000111000000000111000000000000000000000000000000000000000000000000000000
00000000000000000000000000000000000000000000000000000000000000000000000000000000000000000000000000000000000001111111000000000000000000000000000000000000000000000000000000000000000000000000000000000000
00000000000000000000000000000000000000000000000000000000000000000000000000000000000000000000000000000000000000000000000000000000000000000000000000000000000000000000000000000000000000000000000000000000
00000000000000000000000000000000000000000000000000000000000000000000000000000000000000000000000000000000000000000000000000000000000000000000000000000000000000000000000000000000000000000000000000000000
00000000000000000000000000000000000000000000000000000000000000000000000000000000000000000000000000000000000000000000000000000000000000000000000000000000000000000000000000000000000000000000000000000000
00000000000000000000000000000000000000000000000000000000000000000000000000000000000000000000000000000000000000000000000000000000000000000000000000000000000000000000000000000000000000000000000000000000
00000000000000000000000000000000000000000000000000000000000000000000000000000000000000000000000000000000000000000000000000000000000000000000000000000000000000000000000000000000000000000000000000000000
