P1
200 70
00000000000000000000000000000000000000000000000000000000000000000000000000000000000000000000000000000000000000000000000000000000000000000000000000000000000000000000000000000000000000000000000000000000
00000000000000000000000000000000000000000000000000000000000000000000000000000000000000000000000000000000000000000000000000000000000000000000000000000000000000000000000000000000000000000000000000000000
00000000000000000000000000000000000000000000000000000000000000000000000000000000000000000000000000000000000000000000000000000000000000000000000000000000000000000000000000000000000000000000000000000000
00000000000000000000000000000000000000000000000000000000000000000000000000000000000000000000000000000000000000000000000000000000000000000000000000000000000000000000000000000000000000000000000000000000
00000000000000000000000000000000000000000000000000000000000000000000000000000000000000000000000000000000000000000000000000000000000000000000000000000000000000000000000000000000000000000000000000000000
00000000000000000000000000000000000000000000000000000000000000000000000000000000000000000000000000000000000000000000000000000000000000000000000000000000000000000000000000000000000000000000000000000000
00000000000000000000000000000000000000000000000000000000000000000000000000000000000000000000000000000000000000000000000000000000000000000000000000000000000000000000000000000000000000000000000000000000
00000000000000000000000000000000000000000000000000000000000000000000000000000000000000000000000000000000000000000000000000000000000000000000000000000000000000000000000000000000000000000000000000000000
00000000000000000000000000000000000000000000000000000000000000000000000000000000000000000000000000000000000000000000000000000000000000000000000000000000000111000000000000000000000000000000000000000000
00000000000000000000000000000000000000000000000000000000000000000000000000000000000000000000000000000001110000000000000000000000000000000000000000000000000100000000000000000000000000000000000000000000
00000000000000000000000000000000000000000000000000000000000000000000000000000000000000000000000000000001110000000000000000000000000000000000000000000000000000010000000000000000000000000000000000000000
00000000000000000000000000000000000000000000000000000000000000000000000000000000000000000000000000000000000000000000000000000000000000000000000000000000011000111110000000000000000000000000000000000000
00000000000000000000000000000000000000000000000000000000000000000000000001111100000000000000000000000000000000000000000000000000111000000000000000000001111111111111001100000000000000000000000000000000
00000000000000000000111000000000000000000000000000000000000000000000000011111111000000000001110000000000000000000000000000000000111001110000000000000011111111111111111111110000000000000000000000000000
00000000000000000000111000000000000000000000000000000000000000000000001111111111100000000001110000000000000000000000000000000000000001000000000000000111111111111111111111111000000000000000000000000000
00000000000000000000000000000000000111000000000000000110000000000000001111111111111111100000000000000000000000000000000000000000000000000000000000001111111111110011111111111100000000000000000000000000
00000000000000000000000000000000000111111111000000111111000000000000001111110011111111100000000000000000000000001110000000000000000000000000000000011111111111000001111111111110000000000000000000000000
00000000000000000000000000000000000011111111100111111000000000000000001111100000111111000000000000000000000000111111000001110000000000000000000000111111111000000000011111111110000000000000000000000000
00000000000000000000000011100000000011111111111111110000000000000000001111110000011111000000000000000000000001111111111111110000000000000000000001111111100000000000001111111111000000000000000000000000
00000000000000000000000011100000000011110111111111111000000000000000011111110000001111100000000000000000000011111111111111100000000000000000000001111111000000000000000011111001000000000000000000000000
00000000000000000000000000000000001111110111111110111100000000000000111111100000000111110000000000000000000111111000011111000000000000000000000011111111000000000000000011111011000000000000000000000000
00000000000000000000000000000000011101111111111110011110000000000000111111100000000011110000000000000000000111100000000111100000000000000000000011111110000000000000000011111111100000000000000000000000
00000000000000000000000000000000111101111110111111001111000000000000111111100000000011111000000000000000000111000000000011100000000000000000000111111110000000000000000011111111000000000000000000000000
00000000000000000000000000000000111111111100011111100111000000000000000011100000000011111000000000000000001110000000000001110000000000000000001111111110000000000000000111111110000000000000000000000000
00000000000000000000000000000001111111111100000111110011100000000000000011000000000001111100000000000000001110000000000001110000000000000000001111111110000000000000001111111100000000000000000000000000
00000000000000000000000000000001111111111000000011100001100000000000111111000000000000111000000000000000011111000000000000111000000000000000001111111110000000000000001111111000000000000000000000000000
00000000000000000000000000000011111111110000000001110011100000000000111111000000000000111100000000000000011111100000000000111000000000000000000111111111000000000000111111111100000000000000000000000000
00000000000000000000000000000011111111110000000001111111100000000000111111000000000000111111100000000000111100000000000000111100000000000000000111111111000000000011111111111000000000000000000000000000
00000000000000000000000000000111111111100000000001111111100000000000111111000000000000011110000000000000111100000000000000011100000000000000000011111111000111011111111111110000000000000000000000000000
00000000000000000000000000000111111111100000000000011111100000000000111111000000000000011100000000000000111000000000000000011110000000000000000011111111101111111111111111000000000000000000000000000000
00000000000000000000000000000111111111111111000000000111100000000000111111000000000000111110000000000000000000000000000000011110000000000000000111111111111111111111111100000000000000000000000000000000
00000000000000000000000000001111111111111111111111000000000000000000111111000000000000111111000000000001000000000000000000011110000000000000011111111111111111001111100000000000000000000000000000000000
00000000000000000000000000001111111111111111111111000000000000000000111111000000000000111111000000000001110000000000000000011110000000000001100111111111111111001111000000000000000000000000000000000000
00000000000000000000000001111111111111111111111111100000000000000000111111000000000000111110000000000000110000000000000000011110000000000011110011111000011111111111100000000000000000000000000000000000
00000000000000000000000000001111111100111111101111100000000000000000001111000000000000111111000000000000000000000000000000011110000000000011111100000000000111111111100000000000000000000000000000000000
00000000000000000000000000000111111000011111101111110000000000000000001111000000000000111001000000000000000000000000000000011111000000001111111100000000000011111111110000000000000000000000000000000000
00000000000000000000000000001111111100001111111111110000000000000000111111000000000000011011100000000011100000000000000000011111111111011111111100000000000000111111110000000000000000000000000000000000
00000000000000000000000000001111111110000001111111111000000000000000111111000000000000011111100000000011100000000000000111111111111110011101111100000000000000011111110000000000000000000000000000000000
00000000000000000000000000011111111110000000111111111000000000000000011111000000000000001111100000000111100000000000111111111111111110011000111110000000000000011111110000000000000000000000000000000000
00000000000000000000000000001111111100000000011111111100000000000000111111000000000000000011000000000111100000001111111111111111111111000111001111000000000000111111110000000000000000000000000000000000
00000000000000000000000000001111111100000000011111011100000000000001111111000000000000000000000000001110000001111111111111111111000011101111000111110000000000111111110000011100000000000000000000000000
00000000000000000000000000001111111100000000001111001100000000111001111111000000000000111000000000001110011111111111100000111110000011111110001111111000000001111111110000000000000000000000000000000000
00000000000000000000000000001111111100000000001111110000000000111000111111000000000000111111000000001111111111111100000000111110000011111110000011111110000000111111100000000000000000000000000000000000
00000000000000000000000000001111111110000000001111111000000000000000011111000000000000011111000000011111111111000000000001111110000011111100000001111111100001111111000000000000000000000000000000000000
00000000000000000000000000001111111111111000001111111100000000000000011111000000000000111111100011111111111000000000000001111110000111111100000000111111111111111110000000000000000000000000000000000000
00000000000000000000000000000111111111111111111111011110000000000000011111000000011100111111111111111111100000000000000000111100000111111100000000000011111111111100000000000000000000000000000000000000
00000000000000000000000000000111111111111111111110001110000000000000011111000000011100111111111111111111000000000000000000111100000111111100000000000001111111111000000000000000000000000000000000000000
00000000000000000000000000000011111111111111111111000110000000000000001111000000011111111111111110011111000000000000000001111000000111111110000000000000111110010000000000000000000000000000000000000000
00000000000000000000000000000011111111111011111111000111111111111111100000011111111111111111110000011111000000000000000011111000001111111110011100000001111110000000000000000000000000000000000000000000
00000000000000000000000000000001111111110001111110001111111111111111110000111111111111111111100000001111000000000000000011111000001111111110011100011111111111110000000000000000000000000000000000000000
00000000000000000000000000000000011111100011111111011100011111111111111111111111111111111111000000001111000000000000000011110000001110111111111111111111111111111000000000000000000000000000000000000000
00000000000000000000000000000000001111100111111111111000000011111111111111111111100001111111000000001111100000000000000011110000000110111111111111111111111111111100000000000000000000000000000000000000
00000000000000000000000000000000001111111111111111111000000000011100000111110000000001111111000000001111100000000000000111100000000111111111111111111111110001111110000000000000000000000000000000000000
00000000000000000000000000011100000111111111111111110000000000011100000011000000000000111110000000001111111000000000111111100000000111111111111111111111000000111111111000000000000000000000000000000000
00000000000000000000000000011100000001111111111111100000011100011100000010000000000001111110000000000111111110011000011111100000000011111111111111111100000000000011000000000000000000000000000000000000
00000000000000000000000000000000000000001111111111100000011100000000000001111000000011111110000000000011111111111100010000000000000001111111111111100000000000000111000000000000000000000000000000000000
00000000000000000000000000000000000000000011111111110000000000000000000001111100000111111110000000000001111111111111000000000000000000001011100000000000000000001111100000000000000000000000000000000000
00000000000000000000000000000000111000000000000001110000000000000000000000111110001111111100000000111110011111110010000000000000000000000000000000000000000000111111100000000000000000000000000000000000
00000000000000000000000000000000111000000000000000000000000000000000000000011111111111111100000000000000000000000000000000000000000000000000000000000000000000011111110000000000000000000000000000000000
00000000000000000000000000000000000000000000000000000000000000000000000000001111111111111100000000000000000000000000000000000000000000000000000000000000000000001111110000000000000000000000000000000000
00000000000000000000000000000000000000000000000000000000000000000000000000000111111111111000000000000010000000000000000000000000000000000000000000000000000000011111111000000000000000000000000000000000
00000000000000000000000000000000000000000000000000000000000000000000000000000011111111110000000000000011100000000000000001100000000000000000000000000000000000011111111000000000000000000000000000000000
00000000000000000000000000000000000000000000000000000000000000000000000000000000001111100000000000000000000000000000000001100000000000000000000000000000000000000001111100000000000000000000000000000000
00000000000000000000000000000000000000000000000000000000000000000000000000000000000100000000000000000000000000000000000000000000000000000000000000000000000000000000111100000000000000000000000000000000
00000000000000000000000000000000000000000000000000000000000000000000000000000000000000000000000000000000000000000000000000000000000000000000000000000000000000000000111110000000000000000000000000000000
00000000000000000000000000000000000000000000000000000000000000000000000000000000000000000000000000000000000000000000000000000000000000000000000000000000000000000000010000000000000000000000000000000000
00000000000000000000000000000000000000000000000000000000000000000000000000000000000000000000000000000000000000000000000000000000000000000000000000000000000000000000000000000000000000000000000000000000
00000000000000000000000000000000000000000000000000000000000000000000000000000000000000000000000000000000000000000000000000000000000000000000000000000000000000000000000000000000000000000000000000000000
00000000000000000000000000000000000000000000000000000000000000000000000000000000000000000000000000000000000000000000000000000000000000000000000000000000000000000000000000000000000000000000000000000000
00000000000000000000000000000000000000000000000000000000000000000000000000000000000000000000000000000000000000000000000000000000000000000000000000000000000000000000000000000000000000000000000000000000
