P1
200 70
00000000000000000000000000000000000000000000000000000000000000000000000000000000000000000000000000000000000000000000000000000000000000000000000000000000000000000000000000000000000000000000000000000000
00000000000000000000000000000000000000000000000000000000000000000000000000000000000000000000000000000000000000000000000000000000000000000000000000000000000000000000000000000000000000000000000000000000
00000000000000000000000000000000000000000000000000000000000000000000000000000000000000000000000000000000000000000000000000000000000000000000000000000000000000000000000000000000000000000000000000000000
00000000000000000000000000000000000000000000000000000000000000000000000000000000000000000000000000000000000000000000000000000000000000000000000000000000000000000000000000000000000000000000000000000000
00000000000000000000000000000000000000000000000000000000000000000000000000000000000000000000000000000000000000000000000000000000000000000000000000000000000000000000000000000000000000000000000000000000
00000000000000000000000000000000000000000000000000000000000000000000000000000000000000000000000000000000000000000000000000000000000000000000000000000000000000000000000000000000000000000000000000000000
00000000000000000000000000000000000000000000000000000000000000000000000000000000000000000000000000000000000000000000000000000000000000000000000000000000000000000000000000000000000000000000000000000000
00000000000000000000000000000000000000000000000000000000000000000000000000000000000000000000000000000000000000000000000000000000000000000000000000000000000000000000000000000000000000000000000000000000
00000000000000000000000000000000000000000000000000000000000000000000000000000000000000000000000000000000000000000000000000000000000000000000000000000000000000000000000000000011100000000000000000000000
00000000000000000000000000000000000000000000000000000000000000000000000000000000000000000000000000000000000000111000000000000000000000000000000000000000000000000000000000000111100000000000000000000000
00000000000000000000000000000000000000000000000000000000000000000000000000000000000000000000000000000000000000111000000000000000000000000000000000000000000000000000000000001111000000000000000000000000
00000000000000000000000000000000000000000000000000000000000000000000000000000000000000000000000000000000000000000000000000000000000000000000000000000000000000000000000000111110000000000000000000000000
00000000000000000000000000000000000000000000000000000000000000000000000000000000000000000000000000000001100000000000000000000000000000000000000000000000110000000000000000111000000000000000000000000000
00000000000000000000000000000000001000000000000000000000000000000000000000000000000000000000000000000011110010000000000000000000000000000000110000000000111000000000000000000000000000000000000000000000
00000000000000000000000000000000011111110000000000000000000110000000000000000000000000000000000000000011111111110000000000000000000000000111111100000000000000000000000000000000000000000000000000000000
00000000000000000000000000000000011111111110000000000000011111100000000000000000000000000000000000000011111111111110000000000000000000000111111111000000000000000000000000000000000000000000000000000000
00000000000000000000000000000000001111111110000000000000011111000000000000000000000000000000000000000011111111111111000000000000000000000111111111100000000000000000000000000000000000000000000000000000
00000000000000000000000000000000000111111100000000011000111111001000000000000000000000000000000000000011111111111111110000000000000000000111111111111000011100000000000000000100000000000000000000000000
00000000000000000000000000000000000111110010000001111111111111111000000000000000000000000000000000000111111111111111111000000000000000000011111111100111111100000000000000000000000000000000000000000000
00000000000000000000000000000000000001110111111111111111111111111000000000001111000000000000000000000111111111111111111100000000000000000000000111001111111100000000000000000001110000000000000000000000
00000000000000000000000000000000000000111111111111111111111110000000000000111111110000000000000000000111011111111111111111000000000000000000000000111111111111000000000000000001110000000000000000000000
00000000000000000000000000000000000000000111111111111110111100000000000001111111100000000000000000000110001110111111111111100000000000000000000000011111111111000000000000000000000000000000000000000000
00000000000000000000000000000000000000000001111111111110011100000000000011111111100011100000000000000000011110111111111101110000000000000000000000000111110110000000000000000000000000000000000000000000
00000000000000000000000000000000000000000000111111111110000000000000000011111100000111111000000000000000001111111111111101111011100000000000000000000001100010000000000000000000000000000000000000000000
00000000000000000000000000000000000000000000111111011111100000000000000111111000000011111100000000000000000011100111111111111111100000000000000000000000111111000000000000000000000000000000000000000000
00000000000000000000000000000000000000000001111110001111111111000000000111110000000001111110000000000011100000000001111111111110001110000000000000000000011111100000000000000000000000000000000000000000
00000000000000000000000000000000000000000011111110000111111111111000000111100000000000011111000000000011100000000000111111111110001100000000000000000000001111110000000000000000000000000000000000000000
00000000000000000000000000000000000000000111111110000000011001111111000111100000000000001111100000000000000000000000001111111110000000000000000000000000001111110000000000000000000000000000000000000000
00000000000000000000000000000000000000000111111100000000000000111111111111100000000000000111100000000000000000000000000111111110000000000000000000000000001111110000000000000000000000000000000000000000
00000000000000000000000000000000000000000111111000000000001111001111111111110000000000000111110000000000000000000000001111111111000000000000000000000000001111110000000000000000000000000000000000000000
00000000000000000000000000000000000000001111111000000000111111101111100001111111100000000111110000000000000000000000001111111111000000000000000000000000001111110000000000000000000000000000000000000000
00000000000000000000000000000000000000001111110000000011111111111111000001111111111111111111111000000000000000000000001111111111000000000000000000000000001111100000000000000000000000000000000000000000
00000000000000000000000000000000000000001111100000011111111111111111100111111111111111111111111111111111111111111100011111111110000000000000001110000000111111100000000000000000000000000000000000000000
00000000000000000000000000000000000000001111100000111111111111101111111111110000111111111111111111011111111111111111111111111110000000000000001110011111111111000000000000000000000000000000000000000000
00000000000000000000000110000000000000011111110000111111111111101111111111100000000000111111000110001111111111111111111111111111000000000000001100110011111110000000000000000000000000000000000000000000
00000000000000000000000000000000000000011111100000111111001111111111111111100000000000000000000000001111111100011111111111111111111000000000000011110001111110000000000000000000000000000000000000000000
00000000000000000000000000000000000000011111100001111110000001110111111111100000000000000000011000000000000000000111111111111111110011100000000011100011111000000000000000000000000000000000000000000000
00000000000000000000000000000000000000000111110111111100000000000111111001100000000000000000011100000000000000000111111111111111100111111100000000000011111000000000000000000000000000000000000000000000
00000000000000000000000000000000000000000111111111111000000000011111111001110000000000000000011100100000000000001111111111110000001111111111110000000111111100000000000000000000000000000000000000000000
00000000000000000000000000000000000000001111111111110000000000011111111101110000000000001110011110111000000000011111011111110000000001111111111100000011111100000000000000000000000000000000000000000000
00000000000000000000000000000000000000001111111111100000000000011111111101110000000000001110111110000000000001111111011111100000000000000111111111000001111110000000000000000000000000000000000000000000
00000000000000000000000000000000000000010011111111000000000000001111111101110000000000000110111110000000000011111111111110000000000000000000111111100000111111000000000000000000000000000000000000000000
00000000000000000000000000000000000000011011111111000000000000001111111101111000000000000111111100000000000001111011111100000000000000000000001111110000011111110000000000000000000000000000000000000000
00000000000000000000000000000000000000011111110010000000000000001111111101111000000000000000111100000000010011111011111000000000000000000000000011111100111111110000000000000000000000000000000000000000
00000000000000000000000000000000000000011111110000001110000000001111111001111100000000000000011100000001111111111111100011100000000000000000000000111111111111000000000000000000000000000000000000000000
00000000000000000000000000001110000000001111111100001100000000011111111000111100000000000000111000000011111111111110000011100000000000000000000000001111011110000000000000000000000000000000000000000000
00000000000000000000000000000000000000001111111110000000000000011111111000111110000000000001111000000111111111110000000000000000000000000000000000000010011110000000000000000000000000000000000000000000
00000000000000000000000000000000000000001111111110000000000001111111110000111110000000000011111000011111111111100000000000000000000000000000000000000001111110000000000000000000000000000000000000000000
00000000000000000000000000000000000000001111111100000000000001111011110000011111000000000011110000011111111111000000000000000000000000000000000000000001111111000000000000000000000000000000000000000000
00000000000000000000000000000000000000000111111110000000000000111011110000001111100000000111100000111111110010000000000000000001110000001000000000000011111111110000000000000000000000000000000000000000
00000000000000000000000000000000000000000111111110000000000000111111100000001111111000001111000001111111110000000000000000000001110000011110000000001111111111111000000000000000001110000000000000000000
00000000000000000000000000000000000000001111111110000000000001111111100000000111111111111110000011111111111000000000000000000000000000011111111111111111111111111111000000000000001110000000000000000000
00000000000000000000000000000000000000001111111111000000000011111111000000000011111111111100000011111111111100000000000000000000000000010011111111111100100001111111000000000000000000000000000000000000
00000000000000000000000000000000000000000111111111100000001111111110000000000001111111110000000011111111111111110000000000000000000000000011111111111000000000111111100000000000000000000000000000000000
00000000000000000000000000000000001110000111111111110000111111111100000000000000011111000000000111111111000111111000000000111000000000001111110011100100000000011111110000000000000000000000000000000000
00000000000000000000000000000000001110000111111111111111111111111000000000000000000011100000000111111111000111110011110000111000000000001111100001000010000000000111110000000000000000000000000000000000
00000000000000000000000000000000000000000011111111111111101111110000000000000000000011100000000111111111111111110111111100000000000000001000000000000010000000000011111000000000000000000000000000000000
00000000000000000000000000000000000000000001111111111111101111100000000000000000000000000000000111111111111101111111111100000000000000000000000000000000000000000011111100000000000000000000000000000000
00000000000000000000000000000000000000000001111111111111111110000000000000000000000000000000000111011111111101111111110000000000000000000000000000000000000000000001111110000000000000000000000000000000
00000000000000000000000000000000000000000000111111111011111000000000000000000000000000000000000110011111111111111111110000000000000000000000000000000000000000000000111000000000000000000000000000000000
00000000000000000000000000000000000000000000011111110001000000000000000000000000000000000000000000111111111111111101110000000000000000000000000000000000000000000000010000000000000000000000000000000000
00000000000000000000000000000000000000000000001111111000000000000000000000000000000000000000000000000000000111111000110000000000000000000000000000000000000000000000000000000000000000000000000000000000
00000000000000000000000000000000000000000000001111000000000000000000000000000000000000000000111000000000000000000001110000000000000000000000000000000000000000000000000000000000000000000000000000000000
00000000000000000000000000000000000000000000001110000000000000000000000000000000000000000000111000000000000000000000000000000000000000000000000000000000000000000000000000000000000000000000000000000000
00000000000000000000000000000000000000000000000000000000000000000000000000000000000000000000000000000000000000000000000000000000000000000000000000000000000000000000000000000000000000000000000000000000
00000000000000000000000000000000000000000000000000000000000000000000000000000000000000000000000000000000000000000000000000000000000000000000000000000000000000000000000000000000000000000000000000000000
00000000000000000000000000000000000000000000000000000000000000000000000000000000000000000000000000000000000000000000000000000000000000000000000000000000000000000000000000000000000000000000000000000000
00000000000000000000000000000000000000000000000000000000000000000000000000000000000000000000000000000000000000000000000000000000000000000000000000000000000000000000000000000000000000000000000000000000
00000000000000000000000000000000000000000000000000000000000000000000000000000000000000000000000000000000000000000000000000000000000000000000000000000000000000000000000000000000000000000000000000000000
00000000000000000000000000000000000000000000000000000000000000000000000000000000000000000000000000000000000000000000000000000000000000000000000000000000000000000000000000000000000000000000000000000000
