P1
200 70
00000000000000000000000000000000000000000000000000000000000000000000000000000000000000000000000000000000000000000000000000000000000000000000000000000000000000000000000000000000000000000000000000000000
00000000000000000000000000000000000000000000000000000000000000000000000000000000000000000000000000000000000000000000000000000000000000000000000000000000000000000000000000000000000000000000000000000000
00000000000000000000000000000000000000000000000000000000000000000000000000000000000000000000000000000000000000000000000000000000000000000000000000000000000000000000000000000000000000000000000000000000
00000000000000000000000000000000000000000000000000000000000000000000000000000000000000000000000000000000000000000000000000000000000000000000000000000000000000000000000000000000000000000000000000000000
00000000000000000000000000000000000000000000000000000000000000000000000000000000000000000000000000000000000000000000000000000000000000000000000000000000000000000000000000000000000000000000000000000000
00000000000000000000000000000000000000000000000000000000000000000000000000000000000000000000000000000000000000000000000000000000000000000000000000000000000000000000000000000000000000000000000000000000
00000000000000000000000000000000000000000000000000000000000000000000000000000000000000000000000000000000000000000000000000000000000000000000000000000000000000000000000000000000000000000000000000000000
00000000000000000000000000000000000000000000000000000000000000000000000000000000000000000000000000000000000000000000000000000000000000000000000000000000000000000000000000000000000000000000000000000000
00000000000000000000000000000000000000000000000000000000000000000000000000000000000000000000000000000000111000000000000000000000000000000000000011000000000000000000000000000000000000000000000000000000
00000000000000000000000000000000000000000000000000000000000000000000000000000000000000000000000000000000111000000000000000000000000000000000000011101110000000000000000000000000000000000000000000000000
00000000000000000000000000000000000000000000000000000000000000000000000000000000000000000000000000000000000000000000000000000000000000000000000000011111001100000000000000000000000000000000000000000000
00000000000000000000000000000000000000000000000000000000000000000000000000000000111100000010000000000000000000000000000000000000000000000000000000111111111110000000000000000000000000000000000000000000
00000000000000000000000000000000000000000111100000000000000000000000000000000011111111111111100000000000000000000000000000000000000000000000111111111011111111111100000000000000000000000000000000000000
00000000000000000000000000000000000000011111111111000000000000000000000000001111111111111111110000000000000000000000000000000000000011111111111111111011111111111111100000000000000000000000000000000000
00000000000000000000000000000000000000000000111111111000000000011100000000111111111111111111110000000000000000000000000000000000011111111111111111111111111111111110011100000000000000000000000000000000
00000000000000000000000000000000000110000000111110011111100000011100000001111111111111111111110111000000000000000000000000000111111111111111000000000000001111111100011100000000000000000000000000000000
00000000000000000000000000000000000111111111111100001111110000000000000011111110111100001111111111100000000000000000000000111111111111111110000000000000001111111100011000000000000000000000000000000000
00000000000000000000000000000000001111111111100010001111110000000000000111111110111000000001111111110000000000000000000111111111111111111110000000000011111111111100001000000000000000000000000000000000
00000000000000000000000000000000011111111110000000011111110000000000000111111111110000000001111111110000000000000000111111111111111111111111000000111111111111111110000000000000000000000000000000000000
00000000000000000000000000000000011111111100000000001111110000000000001111111111100000000011111111110000000000000111111111111111111111111111100111111111111111111110000000000000000000000000000000000000
00000000000000000000000000000000111111111100000000000111110000000000001111111111100000000011111111111000000000001111111111111111100011001111100111111111111111111110000000000000000000000000000000000000
00000000000000000000000000000000111111111100000000000011110000000000001111111111100000000011111111111100011000111111111111111110000000001111100111111111111111110000000000000000000000000000000000000000
00000000000000000000000000000000111111111000000000000011111000000000011111111111100011100011111111111111111111111100001111110000000000011111100011111111111100000000000000000000000000000000000000000000
00000000000000000000000000000001111111111000000000000001111000000000011111111111100011100011111101111111111111110000011111100000000000011111000011111100110000000000000000000000000000000000000000000000
00000000000000000000000000000001111111111000000000000000000000000000011111111100000000000011111101111111111000000000111111100000000000011111000011111101100000000000000000000000000111000000000000000000
00000000000000000000000000000001111111111000000000000000000000000000011111111000000000000110011111111111000000000000111111000000000000011111100011111111100000000000000000000000000111000000000000000000
00000000000000000000000000000001111111111000000000000000000000000000011111100011100001110000011111111100000000000000111110000000000000011111100001111111000000000000000000000000000000000000000000000000
00000000000000000000000000000011111101111000000000000000000000000000011110000111111111110001111111111100000000000000011100000000000000001111000001111111000000000100000000000000000000000000000000000000
00000000000000000000000000000011111101111001111111100000000000000000011110011111111111111000111111111100000000000000000000000000000000001110000001111110000011111111110000000000000000000000000000000000
00000000000000000000000000000011111111111111111111111100000000000000111111111111111111100001111111111100000000000000000000000000000000011100000001111110011111111111111000000000000000000000000000000000
00000000000000000000000000000011111111111111110111111110000000000111111111111100100000000011111111111100000000000000000000000000000111111000000001111111111111111011111100000000000000000000000000000000
00000000000000000000000000000011111111111100100111111110000000111111111111111100000000000011111111111000000000000000000000000000011111110000000000001111111111111011111110000000011100000000000000000000
00000000000000000000000000000011111111111000000111111110011111111110111111111111000000000011111111111000000000000000000000000001111111100000000000001111111111111111111110000000011100000000000000000000
00000000000000000000000000000111111111111100000011111111111111111100011111111111000000000011111111111000000000000000000000000011111111000000000000111111111111111111111001000000000000000000000000000000
00000000000000000000000000000111111111111100000011111111111111110000011110111111000000000001111111111000000000000000000000000001111110000000000001111111111111111111110001100000000000000000000000000000
00000000000000000000000000001111111111111000011111111111111111000000011110111111000111000001111111110000000000000000000001111011111000000000000001111111111110000111100011100000000000000000000000000000
00000000000000000000000000001111111111111000111111111111111110000000011111111111000111000111111111100000000000000000000111111111100000000000111000111111111000000001110111100000000000000000000000000000
00000000000000000000000000001111111111111111111111111111111111000000011111111111000000000111111111100000000000000000000011111110000000000000111000011111110000000001111111000000000000000000000000000000
00000000000000000000000000000111111111111110011000111111111111000000001111111111000000000011111111110000000000000001100111100000000000000000000000011111100000000001111111000000000000000000000000000000
00000000000000000000000000000001111111111100000000111111111111000000001000111111000000000011111111110000000000000011111111000000000001110000000000011100000000000000111111110000000000000000000000000000
00000000000000000000000000000001111111111000000000111111111111000000000000011111000000000111111111100000000000001111111111000000000001110000000000000000000000000000111111110000000000000000000000000000
00000000000000000000000000000111111111100000000000111111111111100000000100111111000000001111111111100000000000011111111111000000000000000000000000000000000000000000111111110000000000000000000000000000
00000000000000000000000000001111111111100000000000111111111111100000001111111111000000001111111111000000000001111111110000000000000000000000000000000000000000000000111111110000000000000000000000000000
00000000000000000000000000001111111111111000000000011111111111100000000111111111000000001110111111000000000011111111000000000000000000000000000000000000000000000000111111110000000000000000000000000000
00000000000000000000000000001111111111111000000000011111111111110000000111111111000000011110111111000000000111111100000000000000000000000000000000000000011000000001111111110000000000000000000000000000
00000000000000000000000000001111111111111000000000011111111111100000000111111111000000111111111110000000001111110000000000000000000000000000000000000000111000000001111111100000000000000000000000000000
00000000000000000000000000000011111111111000000000001111011111100000000011111100000000111111111110000011111111100000000000000000000000000000000000000001111100000011111111100000000000000000000000000000
00000000000000000000000000000011111111111100000000000110011111100000000001111100000000011111111000000011111111100000000000000000000000000000000000001111111111001111111111100000000000000000000000000000
00000000000000000000000000000111111111111100000000011000111111110000000001111111000000011111111000000001111111000000000000110000000000000000000000001111111111111111111111000000000000000000000000000000
00000000000000000000000000000111111111111100000000111101111111100000000000111111100000111111111000000000111111100111111111111000000000000000000000000111111111111111111110000000000000000000000000000000
00000000000000000000000000000111111111011100000000111111110111000000111000011111100000111111111000000001111111111111111111111000000000000000000000000111111111111111111100000000000000000000000000000000
00000000000000000000000000000011111111011100000000111111100111000000111000001100000011111111111000000011111111111111111111110000000000000010000000000011111111111111111000000000000000000000000000000000
00000000000000000000000000000001111111111110000001111110011110000000000000000000000111111111110000000111111111111111111111110000000000000010000000000001111101111111110000000000000000000000000000000000
00000000000000000000000000000001111111111111001111111110111100000000000000000011111111111111000000111110111111111100111111100000000000000000000000000001111000111111111000000000000000000000000000000000
00000000000000000000000000000001111111111111111111111111111000000000000000000011111111111111000000111110111111111000000000000011100000000000000000000001110000110000111000000000000000000000000000000000
00000000000000000000000000000000111111111111111111111111110000000000000000000001111111111110100000011111111100000000000000000001100000000000000000000000000000000000000000000000000000000000000000000000
00000000000000000000000000000000011111111111111111111111000000000000000000000000011111111100000000001111000000000000000000000000000000000000000000000000000000000000001110000000000000000000000000000000
00000000000000000000000000000000000011111111111111000000000000000000000000000000000000000000000000000000000000000000000000000000000000000000000000000000000000000000001110000000000000000000000000000000
00000000000000000000000000000000000000000111000000000000000000000000000000000000000000000000000111000000000000000000000000000000000000000000000000000000000000000000000000000000000000000000000000000000
00000000000000000000000000000000000000000000000000001110000000000000000000000000000000000000000111000000000000000000000000000000000000000000000000000000000000000000000000000000000000000000000000000000
00000000000000000000000000000000000000000000000000001110000000000000000000000000000000000000000000000000000000000000000000000000000000000000000000000000000000000000000000000000000000000000000000000000
00000000000000000000000000000000000000000000000000000000000000000000000000000000000000000000000000000000000000000000000000000000000000000000000000000000000000000000000000000000000000000000000000000000
00000000000000000000000000000000000000000000000000000000000000000000000000000000000000000000000000000000000000000000000000000000000000000000000000000000000000000000000000000000000000000000000000000000
00000000000000000000000000000000000000000000000000000000000000000000000000000000000000000000000000000000000000000000000000000000000000000000000000000000000000000000000000000000000000000000000000000000
00000000000000000000000000000000000000000000000000000000000000000000000000000000000000000000000000000000000000000000000000000000000000000000000000000000000000000000000000000000000000000000000000000000
00000000000000000000000000000000000000000000000000000000000000000000000000000000000000000000000000000000000000000000000000000000000000000000000000000000000000000000000000000000000000000000000000000000
00000000000000000000000000000000000000000000000000000000000000000000000000000000000000000000000000000000000000000000000000000000000000000000000000000000000000000000000000000000000000000000000000000000
00000000000000000000000000000000000000000000000000000000000000000000000000000000000000000000000000000000000000000000000000000000000000000000000000000000000000000000000000000000000000000000000000000000
00000000000000000000000000000000000000000000000000000000000000000000000000000000000000000000000000000000000000000000000000000000000000000000000000000000000000000000000000000000000000000000000000000000
00000000000000000000000000000000000000000000000000000000000000000000000000000000000000000000000000000000000000000000000000000000000000000000000000000000000000000000000000000000000000000000000000000000
