P1
200 70
00000000000000000000000000000000000000000000000000000000000000000000000000000000000000000000000000000000000000000000000000000000000000000000000000000000000000000000000000000000000000000000000000000000
00000000000000000000000000000000000000000000000000000000000000000000000000000000000000000000000000000000000000000000000000000000000000000000000000000000000000000000000000000000000000000000000000000000
00000000000000000000000000000000000000000000000000000000000000000000000000000000000000000000000000000000000000000000000000000000000000000000000000000000000000000000000000000000000000000000000000000000
00000000000000000000000000000000000000000000000000000000000000000000000000000000000000000000000000000000000000000000000000000000000000000000000000000000000000000000000000000000000000000000000000000000
00000000000000000000000000000000000000000000000000000000000000000000000000000000000000000000000000000000000000000000000000000000000000000000000000000000000000000000000000000000000000000000000000000000
00000000000000000000000000000000000000000000000000000000000000000000000000000000000000000000000000000000000000000000000000000000000000000000000000000000000000000000000000000000000000000000000000000000
00000000000000000000000000000000000000000000000000000000000000000000000000000000000000000000000000000000000000000000000000000000000000000000000000000000000000000000000000000000000000000000000000000000
00000000000000000000000000000000000000000000000000000000000000000000000000000000000000000000000000000000000000000000000000000000000000000000000000000000000000000000000000000000000000000000000000000000
00000000000000000000000000000000000000000000000000000000000000000000000000000000000000000000000000000000000000000000000000000000000000000000000000000000000000000000000000000000000000000000000000000000
00000000000000000000000000000000000000000000000000000000000000000000000000000000000000000000000000000000000000000000000000000000000000111000000110000000000000000000000000000000000000000000000000000000
00000000000000000000000000000000000100000000000011100000000000000000000000000000000000000000000000000000000000011100000000000000000000000000000110000000000000000000000000000000000000000000000000000000
00000000000000000000000000000000001110000000000011100000000000000000000000000000000000000000000000000000000000011100000000000000000000000011100000000000000000000000000000000000000000000000000000000000
00000000000000000000000000000000111110000000000000000000000000000000000000000000000000000000000000000000000000001110000000100000000000000001100000000000000000001110000000000000000000000000000000000000
00000000000000000000000000000000011111000000000000000000000000000000000000000000000000000000000000000000000000011111111111111110000000000000000000000000000000001110000000000000000000000000000000000000
00000000000000000000000000000000001111100000000000000000000000000000000000000000001111111000000000000000000001111111111111111111001100000000100000000000000000000000000000000000000000000000000000000000
00000000000000000000000000000000001111110011100000000000000000000000000000000000001111111000000000000000000011111111111111111111111100001111111100000100000000000000000000000000000000000000000000000000
00000000000000000000000000000000000111111111111100000000000000000000000000000000011111111100000000000001111111111111000000000111111100000111111100011111100000111111111000000000000000000000000000000000
00000000000000000000000000000000000010001111111111110000000000000000000000010000111111111111000000000001111111111000000000000001111100000011111100011111110001111111111100000000000000000000000000000000
00000000000000000000000000000000000000000111111111111000000000000000000001111000000111111111000000000000111111100000000000000000000000000011111110011111111111111111111100000000000000000000000000000000
00000000000000000000000000000000000001000111111111111100000000000000000001111100000011111111000000000000111110000000000000000000000000000000011111000111111111111111111100000000000000000000000000000000
00000000000000000000000000000000000000100011011111111110000000000000000011111000000001111111100000000001111100000001110000000000000000000000000000000001111111111111111100000000000000000000000000000000
00000000000000000000000000000000000001110111011111011111000000000000000111110000000000111111100000000001111100000001110000000000000000000000000000000000000110111111111100000000000000000000000000000000
00000000000000000000000000000000000001111111111111011111100000000000001111110000000000111110000000000011111000000000000000000000000000000011100000000000000000111111111000000000000000000000000000000000
00000000000000000000000000000000000011111111111111111111100000000000011111100000000000011110010000000011111000000000000000000000000000000000000000000000000000111101110000000000000000000000000000000000
00000000000000000000000000000000001111111111111111111111110000000000011111000000000000011111110000000111110000000000000000000000000000000000000000000000000001111000100000000000000000000000000000000000
00000000000000000000000000000000000111111111111111111111111000000000001111000000000000011111110000001111110000000000000000000000000000000000000000000000000011111100000000000000000000000000000000000000
00000000000000000000000000000000000011111111111111111111111000000000000110000000000000011111110000001111100000000000000000000000000000000000000000000000000011111111000000000000000000000000000000000000
00000000000000000000000000000000000011111111111111111111110000000000001110000000000000011111110000001111100000000000000000000000000000000000001110000000000111111110000000000000000000000000000000000000
00000000000000000000000000000000000011111111000011111111100000000001111110000000000000001111110000000111111111111110001110000000000000000000001110000000001111111100000000000000000000000000000000000000
00000000000000000000000000000000000111111111000000111111100000000001111110000000000000001110111000000111111111111111011111111111000000000000000000000000011111111100000000000000000000000000000000000000
00000000000000000000000000000000000111111110000000111111111100000001111110000000000000011110111111111111111111111111111111111111110000000000000000000000111111111000000000000000000000000000000000000000
00000000000000000000000000000000000111111110011111101111111110000011111000000000000000111111111111111111111111111111111111111111111110000000000000000000111111100000000000000000000000000000000000000000
00000000000000000000000000000000000111111111100111000011111111111111111000000000001111111111111111111111011111111100111111111111111110001110000000000001111111000000000000000000000000000000000000000000
00000000000000000000000000000000000111111111110111000010001111111111111111111111111111111110000000011111011111111000011000011000111111011110000111000011111111100000000000000000000000000000000000000000
00000000000000000000000000000000000111111111111111111111000011111111111111111111111111111110000000011111111111110000010000011000011111111111000111000011111111000000000000000000000000000000000000000000
00000000000000000000000000000001111111111111111101111111100000000111111111111111100000011111110000011111111110000000000111111100111001111111110000000111111111000000000000000000000000000000000000000000
00000000000000000000000000000001111111111111111001111111110000000011111111100111000000001111110000011111111100000000000001001110001000011111111000001111111110000000000000000000000000000000000000000000
00000000000000000000000000000000000111111111111001111101111000000001111111000000000000001111110000011111111000000000000000001110000000000011111100011111111100000000000000000000000000000000000000000000
00000000000000000000000000000000000111111111100000111101111000000000111111000000000000001111110000011111110000000000000000011111000000000001111111111111111100000000000000000000000000000000000000000000
00000000000000000000000000000000001111111111000000011111111100000000111111000000000000011111110000001111100000000000000000011111100000000001111111111111001000000000000000000000000000000000000000000000
00000000000000000000000000000000011111111111000000011111111100000000111111000000000000011111110000001111100000000000000000011111100000001110011111111111000000000000000000000000000000000000000000000000
00000000000000000000000000000000011111111111000000011111111100011100001111000000000000011111110000011111000000000000000000001111100000001110001111111111000000000000000000000000000000000000000000000000
00000000000000000000000000000000001111111111000000001111111100011100001111000000000000011111111000011111100000000000000000000111100000000000000001111001000000000000000000000000000000000000000000000000
00000000000000000000000000000000000111111110000000011111111100000000111111000000000000011101111000011111000000000000000000000111110000000000111001111011000000000000000000000000000000000000000000000000
00000000000000000000000000000000000011111110000000111111011110000000111111000000000000011101110000001111000000000000000000000111111000000000111111111111000000000000000000000000000000000000000000000000
00000000000000000000000000000000000011111110000000111111011100000000011110000000000000011111100000001111000000000000000000000111111000000000111111111110000000000000000000000000000000000000000000000000
00000000000000000000000000000000000011111111000000011111111100000000011110000000000000011111100000011111000000000000000000000011111000000000111111111111000000000000000000000000000000000000000000000000
00000000000000000000000000000000000011111111000000001111101100000000001111110000000000111111100000011111000000000000000000000011111000000001111111111111111100000000000000000000000000000000000000000000
00000000000000000000000000000000000011111111000000001111100100000000000111110000000000111111000000011111000000000000000000000011111000000011111111110111111110000000000000000000000000000000000000000000
00000000000000000000000000000000000011111011100000011111111000000000000011111000000001111111000000011111000000000000000000000111111000000111110111100000111111000000000000000000000000000000000000000000
00000000000000000000000001110000000011111011110000111110011000000000000001111110000011111110000000001111000000000000000000000011111000001111110111000000011100000000000000000000000000000000000000000000
00000000000000000000000001110000000001111111111111111110000000000000000000111111101111111110000000001111100000000000000000000011111000011111111110000000001100100000000000000000000000000000000000000000
00000000000000000000000000000000000001111111111111111111100001110000000000011111111111111101110000000111100000000000000000000111110000011111110000000000001111110000000000000000000000000000000000000000
00000000000000000000000000000000000000001111111111111111110001000000000000000100111001111001110000000111100000000000000000000111110000000011100000000000000111111000000000000000000000000000000000000000
00000000000000000000111000000000000000001111111111111111100000000000000000000000010000100000000000000011110000000000000000001111100000000001110000000000000011111000000000000000000000000000000000000000
00000000000000000000110000000000000000011111111100111111000000000000000000000000000000000000000000000011110000000000000000001111000000000000000000000000000001111100000000000000000000000000000000000000
00000000000000000000000000000000000000000111111000011100000000000000000000000000000000000000000000000011111000000000000000011111100000000000000000000000000001111110000000000000000000000000000000000000
00000000000000000000000000000000000000000011111100110000000000000000000000000000000000000000000000011101111110000000000000011111100000000000000000000000000000111110000000000000000000000000000000000000
00000000000000000000000000000000000000000001111111000000000000000000000000000000000000000000000000011100111111000000000000011111000000000000000000000000000000011110000000000000000000000000000000000000
00000000000000000000000000000000000000000000000000000000000000000000000000000000000100000000000000000000011111000000000000111111000000000000000000000000000000001111000000000000000000000000000000000000
00000000000000000000000000000000000000000000000000000000000000000000000000000000000100000000000000000000000110011000000111111110000000000000000000000000000000001111000000000000000000000000000000000000
00000000000000000000000000000000000000000111000000000000000000000000000000000000000000000000000000111000000000011111111111111000000000000000000000000000000000000111100000000000000000000000000000000000
00000000000000000000000000000000111000000111000000000000000000000000000000000000000000000000000000111000000000111111111111111000000000000000000000000000000000000111100000000000000000000000000000000000
00000000000000000000000000000000111000000000000000000000000000000000000000000000000000000000000000000000000000011111111111110000000000000000000000000000000000000011110000000000000000000000000000000000
00000000000000000000000000000000000000000000000000000000000000000000000000000000000000000000000000000000000000000111111111100000000000000000000000000000000000000011110000000000000000000000000000000000
00000000000000000000000000000000000000000000000000000000000000000000000000000000000000000000000000000000000000000000010000000000000000000000000000000000000000000001111000000000000000000000000000000000
00000000000000000000000000000000000000000000000000000000000000000000000000000000000000000000000000000000000000000000000000000000000000000000000000000000000000000001111000000000000000000000000000000000
00000000000000000000000000000000000000000000000000000000000000000000000000000000000000000000000000000000000000000000000000000000000000000000000000000000000000000000111100000000000000000000000000000000
00000000000000000000000000000000000000000000000000000000000000000000000000000000000000000000000000000000000000000000000000000000000000000000000000000000000000000000111100000000000000000000000000000000
00000000000000000000000000000000000000000000000000000000000000000000000000000000000000000000000000000000000000000000000000000000000000000000000000000000000000000000011110000000000000000000000000000000
