P1
200 70
00000000000000000000000000000000000000000000000000000000000000000000000000000000000000000000000000000000000000000000000000000000000000000000000000000000000000000000100000000000000000000000000000000000
00000000000000000000000000000000000000000000000000000000000000000000000000000000000000000000000000000000000000000000000000000000000000000000000000000000000000000000111100000000000000000000000000000000
00000000000000000000000000000000000000000000000000000000000000000000000000000000000000000000000000000000000000000000000000000000000000000000000000000000000000000001111000000000000000000000000000000000
00000000000000000000000000000000000000000000000000000000000000000000000000000000000000000000000000000000000000000000000000000000000000000000000000000000000000000001111000000000000000000000000000000000
00000000000000000000000000000000000000000000000000000000000000000000000000000000000000000000000000000000000000000000000000000000000000000000000000000000000000000011110000000000000000000000000000000000
00000000000000000000000000000000000000000000000000000000000000000000000000000000000000000000000000000000000000000000000000000000000000000000000000000000000000000011110000000000000000000000000000000000
00000000000000000000000000000000000000000000000000000000000000000000000000000000000000000000000000000000000000000000000000000000000000000000000000000000000000000111100000000000000000000000000000000000
00000000000000000000000000000000000000000000000000000000000000000000000000000000000000000000000000000000000000000000011100000000000000000000000011100000000000000111100000000000000000000000000000000000
00000000000000000000000000000000000000000000000000000000000000001110000000000000000000000000000000000000000000000000011100000000000000000000000000100000000000001111100000000000000000000000000000000000
00000000000000000000000000000000000000000000000000000000000000001110000000000000000000000000000000000000000000000000000000000000000000000000000000000000000000001111110000000000000000000000000000000000
00000000000000000000000000011100000000000000000000000000000000000000000001110000000000000011000000000000000000000000000000000000000000000000000000000000000000011111110000000000000000000000000000000000
00000000000000000000000000011100000000000000000000000000000000000000000001110000000000000011000000000000000000000000000000000000000000000000000000000000000000111110000000000000000000000000000000000000
00000000000000000000000000000000000000000000000000000000000000000000000000000000000000000000000000000000000000000000000000000000000000000111000000000000000001110000000000000000000000000000000000000000
00000000000000000000000000000000000000000000000000000000000000000000000000000000000000000000000000000000000000000000000000000000000000000111000000000000000011110000000000000000000000000000000000000000
00000000000000000000000000000000000000000000001111100000000000000000000000000000000000000000000000000000000000000000000011111000000000000000000000000000000111111000000000000000000000000000000000000000
00000000000000000000000000000000000000000001111111100000000000000000000000000000000000000000000000000000000000000000001111111111000000000000000000000000000111110000000000000000000000000000000000000000
00000000000000000000000000000000000000001111111111100000000000000000000000000011100000000000000000000000000000000000001111111111100000000000000000000000001111100000000000000000000000000000000000000000
00000000000000000000000000000000000000011111111111000000000000000000000001110000000000000000000000000000000000000000011111111111111000000000000000000000111111000000000000000000000000000000000000000000
00000000000000000000000000000000000000111111111000000000000000000000000001110000000000000000000000000000000000000001111111111111111100000000000000000011111111000000000000000000000000000000000000000000
00000000000000000000000000000000000001111111100000000000000000000000000000000000000000000000000000000000000000000001111111111111111110000000000000000011111111110000000000000000000000000000000000000000
00000000000000000000000111000000000011111111100000000000000000000000000000000000111111000111111000000000000000000011110111111111111111000000000000000111111111111000000000000000000000000000000000000000
00000000000000000000000111000000000111111111000000000000000000000000000000000001111111111111111111000000000000000111110011000011111111100000000000001111111111111110000000000000000000000000000000000000
00000000000000000000000000000000000111011110000000000000000000000000000011111111111111111011111111110000000000001111111100000000001111110000000001111111111111111111000000000000000000000000000000000000
00000000000000000000000000000000001111011110000000000000000000000000001111111111111111110011111111111001111100001111111100000000000111110000000001111111011111111111100000000000000000000000000000000000
00000000000000000000000000000000011111111110000000001110000000000001111111111111111111001111000001111111111111111111111000000000000111100000000001111111001111111111100000000000000000000000000000000000
00000000000000000000000000000000011111111100000000001110000000000111111111111111111110001110000000001111111111111111111000000000000111000000000011111111110011111111100000000000000000000000000000000000
00000000000000000000000000000000011111111100000000000000000000001111100111111111111110001110000100000000001111111111111000000000000011000000001111111111100000111111100000000000000000000000000000000000
00000000000000000000000000000000111111111100000000000000000000111111000011111111111111011110000000000000000000111111111111000000000011100100011111111100000000011111100000000000000000000000000000000000
00000000000000000000000000000000111111111100000000000000000001111111000011111111111111111100000000000000000000111111111111111000000111111111111111001100000000001111111000000000000000000000000000000000
00000000000000000000000000000001111111111100000000000000000111111100000111111110001111111100000000000000000000111111111111111111111111111111111110001110000000001111111000000000000000000000000000000000
00000000000000000000000000000001111111111100000000000000001111111000000111111000001111111100000000000000000000111111100011111111111011111111111000001110000000000111111100000000000000000000000000000000
00000000000000000000000000000001111111111111110000000000011111100000000011000000011111100000000000000000001110111111100000000000010011111111110000000000000000001111111100000000000000000000000000000000
00000000000000000000000000000011111111111111110001100000111111000000000000000000011111100000000000001110001100011111100000000000000011111110000000000000000000001111111100000000000000000000000000000000
00000000000000000000000000000011111111111111111011110011111110000000000000000000011111111000000000001110000000011111100000000000000111111100000000000000000000001111111100000000000000000000000000000000
00000000000000000000000000000011111111111111111111111111111100000000000000000000011111111100000000000000000000111111100000000000000111111100000000000000000000011111111100000000000000000000000000000000
00000000000000000000000000000001111111111100111111101111110000000000000000000000111111111100000000011000000000111111100000000000001111111000000000000001111111111111111100000000000000000000000000000000
00000000000000000000000000000001111111111000011111101111100000000000000000000000111111111100000000011000000000111111100000000000011111111000000000000001111111111111111100000000000000000000000000000000
00000000000000000000000000000000111111110000001111111111100000000000000000000001111111111000000000000000000000111111100000000000111111111000000000000001111111111111111000000000000000000000000000000000
00000000000000000000000000000001111111110000000111111111100000000000000000000001111111111000000000000000000000011111110000000001111111111000000000000001111011110111110000000000000000000000000000000000
00000000000000000000000000000011111111111000000111111111110001111100000000000001111111110000000000000000000000011111111111100011111111100000000000000001111011110011000000000000000000000000000000000000
00000000000000000000000000000011111111111100000111111111110001111100000000000001111111110000000000000000000000000111111111111111111111000000000000000001111111111110000000000000000000000000000000000000
00000000000000000000000000000011111111111100001111111111111000000000000000000001111111111000000000000000000000000011111111111111111100100000000000000000111110111110000000000000000000000000000000000000
00000000000000000000000000000011111111111100011111111111111000000000000000000001111110000000000000000000000100000011111111111110011000100000000000000000000000111111100000000000000000000000000000000000
00000000000000000000000000000011111111111100111111111111111000000000000000000001111110000000000000000000000100000000001111111100011101100000000000000000000000111111110000000000000000000000000000000000
00000000000000000000000000000001111111111101111111111111100000000000000000000011111111100000000000000000000000000000000111110001111111100000000000000000000000111111111000000000000000000000000000000000
00000000000000000000000000000001111111111001111101111111000100000000000000000011111111100000000000000000000000000000000011110011111011100000011100000000000000111111111000000000000000000000000000000000
00000000000000000000000000000001111111110001111000111111100010000000000000000001111111100000000000000000000000000000000001111111111001000001111111110000000000011111111000000010000000000000000000000000
00000000000000000000000000000001111111111000110000011111110010000000000000000011111111100000000000000000000000000000000000111111111110000001111111110000000000011111111100000010000000000000000000000000
00000000000000000000000000000001111111111000110000001111111110011100000000000011111111100000000000000000000000000000000000011111111110000001111111111000000000011111111100000000000000000000000000000000
00000000000000000000000000000000111111111100100000000111111110011100000000000111111111100000000000000000000000000000000000011111111100000001111111111000000000001111111100000000000000000000000000000000
00000000000000000000000000000000111111111111000000001111111110000000000000000100111111100000000000000111000000000000000000111011111000000000111111111110000000001111111100000000000000000000000000000000
00000000000000000000000000000000011111111110000000001111111110000000111110000100111111100000000000000111111110000000000011111011110000000000111111111111000000011111111110000000000000000000000000000000
00000000000000000000000000000000011111111110000000011111111100000000111111100011111111100000000000000001111111110000001111111111100000000000011111111111110111111111111110000000000000000000000000000000
00000000000000000000000000000000011111111111000000011111111000000000111111110111111111111000000000000000111111111000111111111110000000000000001111111111111111111111111110000000000000000000000000000000
00000000000000000000000000000000001111111111100000011111111000000001111111111111111111111111000000000000011111111111111101111100000001000000001111111111111111111111111100000000000000000000000000000000
00000000000000000000000000000000001111111111100000011111111100000011111111111111111111110111111000000000011111111111111100111000000001000000000111111101111111111111111100000000000000000000000000000000
00000000000000000000000000000000000111111111110000011111111000000011111111111111111111110111111000000000111111111111111111000000000000000000000001111001111111111111111000000000000000000000000000000000
00000000000000000000000000000000000111111111111000111111110000000001100011111111111111111111111000000000111111111111111000000000000000000000000000000011111111111111110000000000000000000000000000000000
00000000000000000000000000000000000111111111111111111100000000000000000001111111111111111111111000000000000011011100000000000000000000000001110000000011111111111111000000000000000000000000000000000000
00000000000000000000000000000000001111111001111111111000000000000000000000000000110111111111111000000000000000000000000000000000000000000001110000000000000111111110000000000000000000000000000000000000
00000000000000000000000000000000001111000000111111111000000000000000000000000000000000010111110000000000000000000000000000000000000000000000000000000000000000000000000000000000000000000000000000000000
00000000000000000000000000000000011110000000000000111100000000000000000000000000000000000000000000000000000111000000000000000000000000000000000000000000000000000000000000000000000000000000000000000000
00000000000000000000000000000000011110000000000000011100000000000011100000000000000000000000000000000000000111000000000000000000000000000000000000000000000000000000000000000000000000000000000000000000
00000000000000000000000000000000111100000000000000000000000000000011100000000000000000000000000000000000000000000000000000000000000000000000000000000000000000000000000000000000000000000000000000000000
00000000000000000000000000000000111100000000000000000000000000000000000000000000000000000000000000000000000000000000000000000000000000000000000000000000000000000000000000000000000000000000000000000000
00000000000000000000000000000001111000000000000000000000000000000000000000000000000000000000000000000000000000000000000000000000000000000000000000000000000000000000000000000000000000000000000000000000
00000000000000000000000000000000001000000000000000000000000000000000000000000000000000000000000000000000000000000000000000000000000000000000000000000000000000000000000000000000000000000000000000000000
00000000000000000000000000000000000000000000000000000000000000000000000000000000000000000000000000000000000000000000000000000000000000000000000000000000000000000000000000000000000000000000000000000000
00000000000000000000000000000000000000000000000000000000000000000000000000000000000000000000000000000000000000000000000000000000000000000000000000000000000000000000000000000000000000000000000000000000
00000000000000000000000000000000000000000000000000000000000000000000000000000000000000000000000000000000000000000000000000000000000000000000000000000000000000000000000000000000000000000000000000000000
