P1
200 70
00000000000000000000000000000000000000000000000000000000000000000000000000000000000000000000000000000000000000000000000000000000000000000000000000000000000000000000000000000000000000000000000000000000
00000000000000000000000000000000000000000000000000000000000000000000000000000000000000000000000000000000000000000000000000000000000000000000000000000000000000000000000000000000000000000000000000000000
00000000000000000000000000000000000000000000000000000000000000000000000000000000000000000000000000000000000000000000000000000000000000000000000000000000000000000000000000000000000000000000000000000000
00000000000000000000000000000000000000000000000000000000000000000000000000000000000000000000000000000000000000000000000000000000000000000000000000000000000000000000000000000000000000000000000000000000
00000000000000000000000000000000000000000000000000000000000000000000000000000000000000000000000000000000000000000000000000000000000000000000000000000000000000000000000000000000000000000000000000000000
00000000000000000000000000000000000000000000000000000000000000000000000000000000000000000000000000000000000000000000000000000000000000000000000000000000000000000000000000000000000000000000000000000000
00000000000000000000000000000000000000000000000000000000000000000000000000000000000000000000000000000000000000000000000000000000000000000000000000000000000000000000000000000000000000000000000000000000
00000000000000000000000000000000000000000000000000000000000001110000000000000000000000000000000000000000000000000000000000000000000000000000000000000011100000000000000000000000000000000000000000000000
00000000000000000000000000000000000000000000000000000000000001110000000000000000000000000000000000000000000000000000000000000000000000000000000000000011100000000000000000000000000000000000000000000000
00000000000000000000000000000000000000000000000000000000000000000000000000000000000000000000000000000000000000000000000000000000000000000000000000000000000000000000000000000000000000000000000000000000
00000000000000000000000000000000000000000000000000000000000000000000000000000011100000000000000000000000000000000000000000000000000000000000000000000000000000000000000000000000000000000000000000000000
00000000000000000000000000000000000000000000000000000000000000000000000000000011100000000000000000000000000000000000000000000000000000000000000000000000000000000000000000000000000000000000000000000000
00000000000000000000000000000000000000000000000000000000000000000000000000000000000000000000000000000000000000000000000000000000000000000000000000000011111111000000000000000000000000000000000000000000
00000000000000000000000000000000000000000000000001100000000000000000000000000000000000000000000000000000000000000000000111100010000000000000000000011111111111110000000000000000000000000000000000000000
00000000000000000000000000000000000000000000000001100000000000000000000000000000000000000000000000000000000000000000001111111111000000000000000001111111111111111000000000000000000000000000000000000000
00000000000000000000000000000000000000000000000001100000000000000000000000000000000000000000000000000000000000000000011111111111100000000000000011111110111111011000000000000000000000000000000000000000
00000000000000000000000000000000000000000001011111110000000000000000000000000000000000000000000000000000000000000111111111111110010000000000001111111110111111011100000000000000000000000000000000000000
00000000000000000000000000000000000000000011111111111100000000000000000000000000000000000000000000000000000000001111111111111110111000000000011110111111111111111100000000000000000000000000000000000000
00000000000000000000000011100000001100001111111111111111110000000000000000000000000000000000000000000000000000011111111111111111111000000000011110011111111111111110000000000000000000000000000000000000
00000000000000000000000011100000001100011111111111111111100000000000000000000000000000000000000000000000000000111111111100111111111100000000011111100011111111111100000000000000000000000000000000000000
00000000000000000000000000000000000000111111111111111111100000000000000001111100000000000000000000000000000001111111111000001111111100000000001111100000000011111100000000000000000000000000000000000000
00000000000000000000000000000000000011111111111111110011110000000000001111111100000000000000000000000000000011111111000000000111110010000001100111100000000011111100000000000000000000000000000000000000
00000000000000000000000000000000000111111111111111100001110000000000011111111110000000000000000000000000000111111110000000000011100110000001110111000000000001111100000000000000000000000000000000000000
00000000000000000000000000000000001111111111111110011001111000000001111111111111110000000000000000000000001111100100000000000000011110000000111111000000000001111100010000000000000000000000000000000000
00000000000000000000000000000000111111101111110000000111111111011111111111111111110000000000000000000000011111100000000000000000111110000000011110000000000011111111110000000000000000000000000000000000
00000000000000000000000000000000111111100111100000000111111110001111111111111111111000000000000000000000111111110000000000000001111100000000000000000000000001111111111000000000000000000000000000000000
00000000000000000000000000000000011111111000100000000111111110001111111111111111111000000000000000000000111111110000000000000011111110000000000000000000000001111111111000000000000000000000000000000000
00000000000000000000000000000000011111111100000000000111100011001111111100001111111100000111111111111001111110000000000000000011111110000000000000000000011111111111100000000000000000000000000000000000
00000000000000000000000000000000111111111110000000000000000000001111111000001111111111111111111111111111111100011100000011100011111100000000000000000001111111111110000000000000000000000000000000000000
00000000000000000000000000000000011111100100000000000000000000011111111000001111111111111111111111111111111100011111111111110011111110000000000000000111111111111000000000000000000000000000000000000000
00000000000000000000000000000000011111000000000000000000000000011110111000011111111111111111111111111111111110111111111111111111011111000000000000111111111111110000000000000000000000000000000000000000
00000000000000000000000000000000111111100000000000000000000000011110111111111111111111100000000000011111111111111111111111111111011111111111111111111111111111110000000000000000000000000000000000000000
00000000000000000000000000000000111111111000001111111000000000011111111111111111111100000000000000001111001000000000000011111111111111111111111111111110000111111000000000000000000000000000000000000000
00000000000000000000000000000000111111111000011111111100000000000011111111111111111000000000000000011111000000000000000000000001111111111111111111111100000111111000000000000000000000000000000000000000
00000000000000000000000000000001111111110000111111111111000000000111111111111111111000001110111000111111110000000000000000000001111110000000111000000100011111111000000000000000000000000000000000000000
00000000000000000000000000000001111110111001111111111111100000011111111111111111110000001110000000111111110000000000000000000111111100000000000000000000001111111100000000000000000000000000000000000000
00000000000000000000000000000001111110111111111111111111110001111111110001111111110000000000000000111110000000000000000000000111111000000000000000000000000011111100000000000000000000000000000000000000
00000000000000000000000000000001111111111111111111111111111111111111100011111111100000000000000001111110000000000000000000001111111000000000000000000000000001111100000000000000000000000000000000000000
00000000000000000000000000000001111111111000000011111111111111111000000111111111100000000000000011111111100000000000000000001111110000000000000000000000000000111100000000000000000000000000000000000000
00000000000000000000000000000001111111111000000001111111111111110000001111111110000000000000000011111110000000000000000000001111110000000000000000000000000001111100000000000000000000000000000000000000
00000000000000000000000000000001111111111000000001111111111111000000011111111100000000000000000011111110000000000000000000001111110000000000000000000000000001111100000000000000000000000000000000000000
00000000000000000000000000000001111101111000000000111111111110000000111111111100000000000000000011111111100000000000000000011111110000000000000000000000000001111000000000000000000000000000000000000000
00000000000000000000000000000001111101110000000000111111111100000011111111111000000000000000000111111111100000000000000000111111110000000000000000000000000001110000000000000000000000000000000000000000
00000000000000000000000000000001111111110000000000100111111000000111111111100000000000000000000111111100000000000000000000111111100000000000000000000000000001111000000000000000000000000000000000000000
00000000000000000000000000000001111111110000000001110111111000111111111111000000000000000000000111111100000000000000000001111011100000001110000000000000000011111100000000000000000000000000000000000000
00000000000000000000000000000001111111100000000011111111111000111111111110000000000000000000000111100100000000000000000001111001000000001110000000000000000111111000000000000011100000000000000000000000
00000000000000000000000000000001111011100000000111111111111000011111111100000000000000000000000111100100000000000000000011111111000000000000000000000000001111111000000000000011100000000000000000000000
00000000000000000000000000000000111011110000011111111111111000111111111100000000000000000000000111111100000000000000000000011110000000000000000000100000011111111000000000000000000000000000000000000000
00000000000000000000000000000000111111110000111111111111111001111111111111100011111000000000000111111110000000000000000000001110000000000000000000111100111111111000000000000000000000000000000000000000
00000000000000000000000000000001111111110001111111111111111001111111111111111111111111111000000011111110000000000000001110001100000000000000000001111111111111110000000000000000000000000000000000000000
00000000000000000000000000000001111100111110011100001111110001111111111111111101111111111100000011111111000000000000111111011000000000000000000001111111111111100000000000000000000000000000000000000000
00000000000000000000000000000000111100111111001110000111110000111111111111111101111111111100000001111111100000000001111111111000000000000000000000111111111111100000000000000000000000000000000000000000
00000000000000000000000000000000111111111111111111001111111000011111111111111111111111111100000001111111111100000111111111110000000000000000000000111111111111000000000000000000000000000000000000000000
00000000000000000000000000000000011111111111111111111111111000000001111111111111111111111110000000011111111111111111111111100000000000000000000000111111111110000000000000000000000000000000000000000000
00000000000000000000000000000000011111111111111111111111000000000000000000000111111111001110000000001101111111111111111111100000000000000000000000011111100000000000011100000000000000000000000000000000
00000000000000000000000000000000001111111111111110001110000000000000000000000000001110000110000000000000111111111111111111100000000000000000000000001111000000000000011100000000000000000000000000000000
00000000000000000000000000000000001111111111111110000100000000000000000000000000000000000011000000000001111111111111111000000000000000000011100000001110000000000000000000000000000000000000000000000000
00000000000000000000000000000000001111111111111111000000000000000000000000000000000000000000000000000000111101111111110000000000000000000011100000000000000000000000000000000000000000000000000000000000
00000000000000000000111000000000011111111111111111000000000000000000000000000000000000000000000000000000001000111111110000000000000000000000000000000000000000011100000000000000000000000000000000000000
00000000000000000000111000000001111111111111111110000000000000000000000000000000000000000000000000000000000000100001000000000000000000000000000000000000000000011100000000000000000000000000000000000000
00000000000000000000000000000001111110000011100000000000000000000000000000000000000000000000000000000000000000000000000000000000000000000000011100000000000000000000000000000000000000000000000000000000
00000000000000000000000000000000011100000000000000000000000000000000000000000000000000000000000000000000000000000000000000000000000000000000011100000000000000000000000000000000000000000000000000000000
00000000000000000000000000000000001000000000000000000000000000000000000000000000000000000000000000000000000000000000000000000000000000000000000000000000000000000000000000000000000000000000000000000000
00000000000000000000000000000000000000000000000000000000000000000000000000000000000000000000000000000000000000000000000000000000000000000000000000000000000000000000000000000000000000000000000000000000
00000000000000000000000000000000000000000000000000000000000000000000000000000000000000000000000000000000000000000000000000000000000000000000000000000000000000000000000000000000000000000000000000000000
00000000000000000000000000000000000000000000000000000000000000000000000000000000000000000000000000000000000000000000000000000000000000000000000000000000000000000000000000000000000000000000000000000000
00000000000000000000000000000000000000000000000000000000000000000000000000000000000000000000000000000000000000000000000000000000000000000000000000000000000000000000000000000000000000000000000000000000
00000000000000000000000000000000000000000000000000000000000000000000000000000000000000000000000000000000000000000000000000000000000000000000000000000000000000000000000000000000000000000000000000000000
00000000000000000000000000000000000000000000000000000000000000000000000000000000000000000000000000000000000000000000000000000000000000000000000000000000000000000000000000000000000000000000000000000000
00000000000000000000000000000000000000000000000000000000000000000000000000000000000000000000000000000000000000000000000000000000000000000000000000000000000000000000000000000000000000000000000000000000
