P1
200 70
00000000000000000000000000000000000000000000000000000000000000000000000000000000000000000000000000000000000000000000000000000000000000000000000000000000000000000000000000000000000000000000000000000000
00000000000000000000000000000000000000000000000000000000000000000000000000000000000000000000000000000000000000000000000000000000000000000000000000000000000000000000000000000000000000000000000000000000
00000000000000000000000000000000000000000000000000000000000000000000000000000000000000000000000000000000000000000000000000000000000000000000000000000000000000000000000000000000000000000000000000000000
00000000000000000000000000000000000000000000000000000000000000000000000000000000000000000000000000000000000000000000000000000000000000000000000000000000000000000000000000000000000000000000000000000000
00000000000000000000000000000000000000000000000000000000000000000000000000000000000000000000000000000000000000000000000000000000000000000000000000000000000000000000000000000000000000000000000000000000
00000000000000000000000000000000000000000000000000000000000000000000000000000000000000000000000000000000000000000000000000000000000000000000000000000000000000000000000000000000000000000000000000000000
00000000000000000000000000000000000000000000000000000000000000000000000000000000000000000000000000000000000000000000000000000000000000000000000000000000000000000000000000000000000000000000000000000000
00000000000000000000000000000000000000000000000000000000000000000001110000000000000000000000000000011100000000000000000000000000000000000000000000000000000000000000000000000000000000000000000000000000
00000000000000000000000000000001110000000000000000000000000000000001110000000000000000000000000000011100000000000000000000000000000011100000000000000000000000000000000000000000000000000000000000000000
00000000000000000000000000000001110000000000000000000000000000000000010000000000000000000000000000000000000000000000000000000000000011100000000000000000000000000000000000000000000000000000000000000000
00000000000000000000000000011100000000000000000000000000000000000000000000000000000000000000000000000000000000000000000000000000000011100000000000000000000000000000000000000000000000000000000000000000
00000000000000000000000000011100000000000000000000000000000000000000000000000000000000000000000000000000000000000000000000000000000011100000000000000000000000000000000000000000000000000000000000000000
00000000000000000000000000000000000000000000000000000000000000000000000000000000000000000000000000000000000000000000000000000000000111000000000000000000000000000000000000000000000000000000000000000000
00000000000000000000000000000000000000000000000011100000000000000000000000000001110000011100000000000000000000000000000000000000011111100000000000000000000000000000000000000000000000000000000000000000
00000000000000000000000000000000000000000000000011100001000000000000000000000001111000011100000000000000000000000000000000000011111111110000000000000000000000000000000001000000000000000000000000000000
00000000000000000000000000000000000000000000000011111111111110000000000000000000111100000000000000000000000000000000000011100111111111110000000000000000000000000000111111100000000000000000000000000000
00000000000000000000000000000000000000000000001111111111111110000000000000000000011100000000000000000000000000000000000001111111111111110000000000000000000000000111111111100000001110000000000000000000
00000000000000000000000000000000000000000000111111111111111110000000000000000000000000000000000000000000000000000000000001111111111111110000000000000000011101111111111111100000001110000000000000000000
00000000000000000000000011100000000000000011111111000000011110000000000000000000000000001111110000000000000000000000000011111111111111110000000000000111111110011111111111000000000000000000000000000000
00000000000000000000000011100000000000000011111100000000000000000000000000000000111111111111111111000000000000000000000111111111111111110000000000011111111110001111111111000000000000000000000000000000
00000000000000000000000000000000000000000111110000000000000000000000000001111111100111111111111111100000000000000000001111111111111111110000000000011111111110001111101111000000000000000000000000000000
00000000000000000000000000000000000000001110000000000000000000000000000001111111110111111111111111110000000000000000011111111111111111100000000000011111111111001111001111000000000000000000000000000000
00000000000000000000000000000000000000011100000000000000000000000001110000111111111111111111111111110000000000000000111111111111100010000000000000111111111111100000111111000000000000000000000000000000
00000000000000000000000000000000000000011100011100000000000000000001110000111111111111111111111111110000000000000000111111111110000000001110000000111111111111110000111111000000000000000000000000000000
00000000000000000000000000000000000000111000011100000000000000000000000000111111111101111111111111100000000000000001110111110000000000001110000000011111111101111000111110000000000000000000000000000000
00000000000000000000000000000000000000110000000000000000000000000000000000111011111000111111111111000000000000000001110111100000000000000000000000111111111000100000001110000000000000000000000000000000
00000000000000000000000000000000000001111000000000000000000000000000000000011001110000001111111100111000000000000011111111100000000000000000000000011111100000000001001110000000000000000000000000000000
00000000000000000000000000000000000001111000000000000000000000000000000000011111000000000011111101111000000000000011111111000000000000000000000000011110000000000001111110000000000000000000000000000000
00000000000000000000000000000000000000110000000000000000000000000000000000000000000000000001111111111000000000000111111111000000000000000111000000111100000000000011111100000000000000000000000000000000
00000000000000000000000000000000000001110000000000000000000000000000000000000000000000000001111111111111000000000110001110000000000000000111000000111000000000000011111100000000000000000000000000000000
00000000000000000000000000000000000011110000000000000000000000000000000000000000000000000001111110111111000000000110001110000000000110000000000000001000000000000011111100000000000000000000000000000000
00000000000000000000000000000000000011110111000000000000000000000000000000000000000000000000111110000000000000000111111100000100000111100000000000000000000000000011111100000000000000000000000000000000
00000000000000000000000000000000000111111111101111111100000000000000000000000000000000000000011111100000000000000111111100001110000111110000000000000000010000000111111100000000000000000000000000000000
00000000000000000000000000000000000111111111111111111110000000000000000000000011100000000011001110000000000000001111111100111111001111001000000000100011111111111111111100000000000000000000000000000000
00000000000000000000000000000000000111101111111111111111100000000000000000000011100000000111101100000000000000011111111101111111111111011111111111110111111111111111111100000000000000000000000000000000
00000000000000000000000000000000000111101111111000111111110000000000000000000000000000001111111110111000000000011111111111111111111111111111111111111111111111111111111000000000000000000000000000000000
00000000000000000000000000000000001111111110000000000111110000000000000000000000000000011111111100001000000000011111111111111111111111111111111111000000000000011111111000000000000000000000000000000000
00000000000000000000000000000000000111111100000000000011111000000000000000000000000000111101111100000000000000011111111011111111111111111111100000000000000000001111111100000000000000000000000000000000
00000000000000000000000000000000000111111100000000000001111000000001110000000000000001111101111000000000000000011111111011111111111111111111000000000000000000001111111000000000000000000000000000000000
00000000000000000000000000000000000001111000000000000000111100000001110000000000000011111111110000000111000000011111111111111111110111111110000000000000000000001111001000000000000000000000000000000000
00000000000000000000000000000000000001111000000000000000111110000000000000000000001111111111110000000111000000011111111111111111100111111000000000000000000000001111000000000000000000000000000000000000
00000000000000000000000000000000000011111000000000000000111110000000000000000000001111011111000000000000000000111111111111111110001111110000000000000000000000001111100000000000000000000000000000000000
00000000000000000000000000000000011111111000000000000000000010000000000000000000111111011110000000000000000000111111111111110000001111111000000000000000000000011111100000000000000000000000000000000000
00000000000000000000000000000000011111111111000000000000000110000000000000000001111111111100000000000000000001111111111111000000001111111100000000000000000000011111100000000000000000000000000000000000
00000000000000000000000000000000011111111111111100000000011110000000000000111001111111111000000000000000011111111111111110000000000011111110000000000000000000011111100000000000110000000000000000000000
00000000000000000000000000000000001111111111111111111100011111000000000000111111110111110000000000000011111111111111111110000000000011111110000000000000000000011111100000000000100000000000000000000000
00000000000000000000000000000000001110000001111111110011111111100000000000011111110111000000000000011111111111111111111110000000000111111110000000000000000000111111100000000000000000000000000000000000
00000000000000000000000000000000000110000000001111100011111111111110000000011111111111000000011111111111111000011111111110000000000011111110000000000000000000111111000000000000000000000000000000000000
00000000000000000000000000000000000111100000000000000111111111111111111111111111111111111111111111111111000000011111111110000111000111111100000000000000000000111111000000000000000000000000000000000000
00000000000000000000000000000000000111100000000000000011111110011111111111111111111111110111111111111000000000011111111110000111001111111100000000000000000000111111000000000111000000000000000000000000
00000000000000000000000000000000000011100000000000000000011100000011111110111111111111100011110000000000000000011111111110000000001111111100000000000000000000110111000000000111000000000000000000000000
00000000000000000000000000000000000011100000000000000000010000000001111110111101111111100000000000000000000000011111111110000000011111111100000000000000000001110111000000000000000000000000000000000000
00000000000000000000000000000000000011110000000000000000000000000001111111111101111111000000000000000000000000001111111111000000111111111000000000000000000001111111111000000000000000000000000000000000
00000000000000000000000000000000000011110000000000000000011000000000001111111111111111111000000000000000000000001111111111000000000111111000000000000000000001111111111000000000000000000000000000000000
00000000000000000000000000000000000001111000000000000000111110000000001111111111111011111111100000000000000000001111111111101110000111110000000000000000000001111110000000000000000000000000000000000000
00000000000000000000000000000000000000111000000011000000111100000000001111111111111011111111000000000000000000000111111111111111111111100000111000000000000001111110000000000000000000000000000000000000
00000000000000000000000000000000000000111100000111000000011100000000001110111111111111111111000000000001000000000111111111111101111111100000111000000000000000111100000000000000000000000000000000000000
00000000000000000000000000000000000000111110000111000000011100000000001100011111111111111111000000000001000000000111111111111101111111000000000000000000000000001000000000000000000000000000000000000000
00000000000000000000000000000000000000011110000000000011111000000000000110111111111111111111000000000000000001110010011111111111111100000000000000000000000000000000000000000000000000000000000000000000
00000000000000000000000000000000000000001100000000000111111000000000000000000011111111111111000000000000000000000000011111111111111000000000000000000000000000000000000000000000000000000000000000000000
00000000000000000000000000000000000000000000011000011111100000000000000000000000001111111111000000111000000000000000111111111111110000000000000000000000000000000000000000000000000000000000000000000000
00000000000000000000000000000000000000000001111000111110000000000000000000000000000000111000000000111000000000000000111111111011000000000000000000000000000000000000000000000000000000000000000000000000
00000000000000000000000000000000000000000000010001111100000000000000000000000000000000000000000000000000000000000000001111110000000000000000000000000000000000000000000000000000000000000000000000000000
00000000000000000000000000000000000000000000000001111110000000000000000000000000000000000000000000000000000000000000000000000000000000000000000000000000000000000000000000000000000000000000000000000000
00000000000000000000000000000000000000000000000000111000000000000000000000000000000000000000000000000000000000000000000000000000000000000000000000000000000000000000000000000000000000000000000000000000
00000000000000000000000000000000000000000000000000000000000000000000000000000000000000000000000000000000000000000000000000000000000000000000000000000000000000000000000000000000000000000000000000000000
00000000000000000000000000000000000000000000000000000000000000000000000000000000000000000000000000000000000000000000000000000000000000000000000000000000000000000000000000000000000000000000000000000000
00000000000000000000000000000000000000000000000000000000000000000000000000000000000000000000000000000000000000000000000000000000000000000000000000000000000000000000000000000000000000000000000000000000
00000000000000000000000000000000000000000000000000000000000000000000000000000000000000000000000000000000000000000000000000000000000000000000000000000000000000000000000000000000000000000000000000000000
00000000000000000000000000000000000000000000000000000000000000000000000000000000000000000000000000000000000000000000000000000000000000000000000000000000000000000000000000000000000000000000000000000000
