P1
200 70
00000000000000000000000000000000000000000000000000000000000000000000000000000000000000000000000000000000000000000000000000000000000000000000000000000000000000000000000000000000000000000000000000000000
00000000000000000000000000000000000000000000000000000000000000000000000000000000000000000000000000000000000000000000000000000000000000000000000000000000000000000000000000000000000000000000000000000000
00000000000000000000000000000000000000000000000000000000000000000000000000000000000000000000000000000000000000000000000000000000000000000000000000000000000000000000000000000000000000000000000000000000
00000000000000000000000000000000000000000000000000000000000000000000000000000000000000000000000000000000000000000000000000000000000000000000000000000000000000000000000000000000000000000000000000000000
00000000000000000000000000000000000000000000000000000000000000000000000000000000000000000000000000000000000000000000000000000000000000000000000000000000000000000000000000000000000000000000000000000000
00000000000000000000000000000000000000000000000000000000000000000000000000000000000000000000000000000000000000000000000000000000000000000000000000000000000000000000000000000000000000000000000000000000
00000000000000000000000000000000000000000000000000000000000000000000000000000000000000000000000000000000000000000000000000000000000000000000000000000000000000000000000000000000000000000000000000000000
00000000000000000000000000000000000000000000000000000000000000000000000000000000000000000000000000000000000000000000000000000000000000000000000000000000000000000000000000000000000000000000000000000000
00000000000000000000000000000000000000000000000000000000000000000000000000000000000000000000000000000000000000000000000000000000000000000000000000000000000000000000000000000000000000000000000000000000
00000000000000000000000000000000000011100000000000000000000000000000000000000000000000000000000000000000000000000000000111110000000000000000000000000000000000000000000000000000000000000000000000000000
00000000000000000000000000000000000011100000000000000000000000000000000000000000000000000000000000000000000000000000000110000000000000000000000000000000000000000000000000000000000000000000000000000000
00000000000000000000000000000000000000000000000000000000000000000000000000000000100000000000000000000000000000000000000000000000000000000000000000000000000000000000000000000000000000000000000000000000
00000000000000000000011100000000000000000000000000000000000000001000000000011111000000000000000000000000000000000000000011111100000000000000000000000000000000000000000000000000000000000000000000000000
00000000000000000000011100000000000000000000000000000000000000111000000000011111100000111000000000000000000000000000011111111100000000000000000000000000000000000000000000000000000111000000000000000000
00000000000000000000000000000000000000000000000000000000000000000000000000100011111111111110000000000000000000000000011111111110000000000000000000000000000000000111111000000000000111000000000000000000
00000000000000000000000000000000000000000000000000000000000000000000000000100001111111111111100000000000000000000000111111111110000100000000000000000000000000001111111100000000000000000000000000000000
00000000000000000000000000000000000000000001110000000000000000000000000000110011111111111111110000000000000000000000111111111110000111000000000000000000000000001111111110000000000000000000000000000000
00000000000000000000000000000000000000000001110000000000000000000000000001111111111011111111111000000000000000000000110111111111000000000000000000000000000000011111111110000000000000000000000000000000
00000000000000000000000000000000000000000000000000000000000000000000000001111111111011111111111100000001000000000000110111111111000000000000000000000000000111011111111110000000000000000000000000000000
00000000000000000000000000000000000000000000001111100000000000000000000011111111111111111111111110000001000000000001111111111111100000000000000000000000000000111111111100000000000000000000000000000000
00000000000000000000000000000000000000000000111111100000000000000000000001100111100111111111111110000000000000000001111111111111110000000000000000000000000000111111111100000000000000000000000000000000
00000000000000000000000000000000000000000001111110011111000000000000000000000011000011111111111110000000000000000011111111111111110000000000000000000000000000111111111100000000000000000000000000000000
00000000000000000000000000000000000000000011111110111011110000000000000000000000000000111111111111111000000000000011111111111111100000000000000000000000000001111111100100000000000000000000000000000000
00000000000000000000001110000000000000000111111111110001111100000000000000000000000000011111111111111000000000000011111111111111100000000000000000000000000111100011000100000000000000000000000000000000
00000000000000000000000010000000000000001111111111111000111110000000000000000000000000001111111111100000000000000111111111111111100000000000000000000000001111000000011000000000000000000000000000000000
00000000000000000000000000000000000000011111111111111101111111000000000000000000000000001111101111100000000000000111111111111111110000000000000000000000011111100000111000000000000000000000000000000000
00000000000000000000000000011100000000011111111110111111111111000000000000000000000000000111101111000011100000000111111001111101110000000000000000000000111111000111111000000000000000000000000000000000
00000000000000000000000000011100000000111111111100001111111111000000000000000000000000000111111111000011100000000111111001111101111000000000000000000001111110000111111000000000000000000000000000000000
00000000000000000000000000000000000001111111111100000001111111000000000000000000001110001111111111000000000000000001111011111111111100000000000000000011111100000111111000000000000000000000000000000000
00000000000000000000000000000000000001111111111000000000111111000000000000000000001111111111111111000000000000000001110011111111111100000000000000000111111100000111111000000000000000000000000000000000
00000000000000000000000000000000000001111111110000000000011111000000000000001111111111111111111110000000000000001111110001111101111000000000000000001111111000000111110000000000000000000000000000000000
00000000000000000000000000000000000011111111110000000000000111000000000000011111111111111111111110000000000000011111110001111101111000000000000000001111110000001111100000000000000000000000000000000000
00000000000000000000000011100000000011111111000000000000000000000000000000011111111111111111111100000000000000011111100001111111111000000000000000011111110000001111100000000000000000000000000000000000
00000000000000000000000011100000000111111111001100000000000000000000000000011111111111111111111000000000000000011111000000111111111100010000000001111011100000011111110000000000000000000000000000000000
00000000000000000000000000000001110111111111111111111100000000000000000000111111111111111111110000000000000000011111000000111111111101110000000011111001100000011111110000000000000000000000000000000000
00000000000000000000000000000001111110111111110111111111000000000000000000111111111111111100000000000000000000011111000000111111111100000000000011111111111000011111110000000000000000000000000000000000
00000000000000000000000000000000001110111111110111111111100000000000000000111111111111111100000000000000000000001111000000111111111100000000000111111110111000011111100000000000000000000000000000000000
00000000000000000000000000000000001111111111111111110111111110000000000000111111111111111110000000000000000000000110000000000111111110000000001111111100000000001111100000000000000000000000000000000000
00000000000000000000000000000000001111111111111111110111111110000000000000111111111111111111100000000000000000001110000000000111111110011000011101111000000000011111100000000000000000000000000000000000
00000000000000000000000000000000001111111111111011111111111100000000000001110000111111111111110000000000000001100110000000011111111111111000011101110000000000111111100000000000000000000000000000000000
00000000000000000000000000000000001111111111110001111111111100000000000001110000011111111111111111111000000001110010000000011111111111011000111111110000000000111111100000000000000000000000000000000000
00000000000000000000000000000000001111111111100000011011111110111000000000110000111111111111111111111111000011111110000000011111111111011000011111111100000000111111100000000000000000000000000000000000
00000000000000000000000000000000010011111111000000010011111111000000000001111111111111111111111111111111111111111110000011111111111111111100011111111111100001111111000000000000000000000000000000000000
00000000000000000000000000000000010011111111000000001111111111000011111111111111111111111111111111111111111111111111111111111111111111111100111111110111111111111111000000001110000000000000000000000000
00000000000000000000000000000000011111111000000000011111111111111111111111111111100011111111110000000000001111111111111111111111111111111111111111110111111111111111100000001110000000000000000000000000
00000000000000000000000000000000011111110000001111111111111111111111011111000000000011111111100000000000000111111111111111110011111111111111111111111111111111111111111000000000000000000000000000000000
00000000000000000000000000000000011111100110001111111111111111111110001000000000000011111111110000000000000111111111111110000011111111110000000111111111001111111111111100000000000000000000000000000000
00000000000000000000000000000000011111101111011111111111111111110000000000000000000111011111111000000000000111111111111100001111111111100000000000000110000111111111111110000000000000000000000000000000
00000000000000000000000000000000011111111111111111111111111111100000000000000000000111011111111000000000000111111111111110011111111111110000000000000000000111111111111110000000000000000000000000000000
00000000000000000000000000000000011111111111000000111111111111111100000000000000001111111111110000000000000111111111111111111111111100000001110000000000111111111111111110000000000000000000000000000000
00000000000000000000000000000000001111111111000000011111111110111111000000000001111111111111110000000000000111111111011111111111111100001111111000010000111111011111111110000000000000000000000000000000
00000000000000000000000000000000001111111111100000111111111110111111111111101111111111111111100000000000000011111110001100000111111111100111111111111000000010001110001110000000000000000000000000000000
00000000000000000000000000000011100111111111110001111111111111111111111111111111111111111110000000000000000011111111000000000011111111000000111111111100000000011110000000000000000000000000000000000000
00000000000000000000000000000011100111111111111011111111111111111111111111111111111111111110000000000000000111111000000000000001111111100000000111111111100000111110000000000000000000000000000000000000
00000000000000000000000000000000000010011111111111111111111111111111101111111111111111111110000000000000000111110000000000000011111111110000000000111111111111111100000000000000000000000000000000000000
00000000000000000000000000000000000000001111111111111111111111111111101111111111111111111100000000000000000011110000000000000011111111110000000000001111111111011100000000000000000000000000000000000000
00000000000000000000000000000000000000011111111111111111111111111111111111111111111111111000000000000000000000000000000000000111111111000000000000000001111111011110000000000000000000000000000000000000
00000000000000000000000000000000000000001100111111111111110111101111111111111111111111110000000000000000000000000000000000000011111110000000000000000000011111111111000000000000000000000000000000000000
00000000000000000000000000000000000000000000011111111110000111000111111111111111111111000000000000000000000000000000000000000000011000000000000000000000000111111111110000000000000000000000000000000000
00000000000000000000000000000000000000000000001111000000000000001111111111000111111000000000000000000000000000000000000000000000001000000000000000000000000001111111111000000000000000000000000000000000
00000000000000000000000000000000000000000000000000000000000000000000011100000000000000000000000000000000000000000000000000000000011100000000000000000000000000111111111000000000000000000000000000000000
00000000000000000000000000000000000000000000000000000000000000000000000000000000000000000000000000000000000000000000000000000000011100000000000000000000000000111000111000000000000000000000000000000000
00000000000000000000000000000000000000000000000000000000000000000000000000000000000000000000000000000000000000000000000000000000000000000000000000000000000000111000001000000000000000000000000000000000
00000000000000000000000000000000000000000000000000000000000000000000000000000000000000000000000000000000000000000000000000000000000000000000000000000000000000000000000000000000000000000000000000000000
00000000000000000000000000000000000000000000000000000000000000000000000000000000000000000000000000000000000000000000000000000000000000000000000000000000000000000000000000000000000000000000000000000000
00000000000000000000000000000000000000000000000000000000000000000000000000000000000000000000000000000000000000000000000000000000000000000000000000000000000000000000000000000000000000000000000000000000
00000000000000000000000000000000000000000000000000000000000000000000000000000000000000000000000000000000000000000000000000000000000000000000000000000000000000000000000000000000000000000000000000000000
00000000000000000000000000000000000000000000000000000000000000000000000000000000000000000000000000000000000000000000000000000000000000000000000000000000000000000000000000000000000000000000000000000000
00000000000000000000000000000000000000000000000000000000000000000000000000000000000000000000000000000000000000000000000000000000000000000000000000000000000000000000000000000000000000000000000000000000
00000000000000000000000000000000000000000000000000000000000000000000000000000000000000000000000000000000000000000000000000000000000000000000000000000000000000000000000000000000000000000000000000000000
