P1
200 70
00000000000000000000000000000000000000000000000000000000000000000000000000000000000000000000000000000000000000000000000000000000000000000000000000000000000000000000000000000000000000000000000000000000
00000000000000000000000000000000000000000000000000000000000000000000000000000000000000000000000000000000000000000000000000000000000000000000000000000000000000000000000000000000000000000000000000000000
00000000000000000000000000000000000000000000000000000000000000000000000000000000000000000000000000000000000000000000000000000000000000000000000000000000000000000000000000000000000000000000000000000000
00000000000000000000000000000000000000000000000000000000000000000000000000000000000000000000000000000000000000000000000000000000000000000000000000000000000000000000000000000000000000000000000000000000
00000000000000000000000000000000000000000000000000000000000000000000000000000000000000000000000000000000000000000000000000000000000000000000000000000000000000000000000000000000000000000000000000000000
00000000000000000000000000000000000000000000000000000000000000000000000000000000000000000000000000000000000000000000000000000000000000000000000000000000000000000000000000000000000000000000000000000000
00000000000000000000000000000000000000000000000000000000000000000000000000000000000000000000000000000000000000000001100000000000000000000000000000000000000000000000000000000000000000000000000000000000
00000000000000000000000000000000000000000000000000000000000000000000000000000000000000000000000000000000000000000011111110000000000000000000000000000000000000000000000000000000000000000000000000000000
00000000000000000000000000000000000000000000000000000000000000000000000000000000000000000000000000000110000000000011111111000000000000000000000000000000000000000000000000000000000000000000000000000000
00000000000000000000000000000000000000000000000000000000000000000000000000000000000000000000000001111111000000000011111111111110000000000000000000000000000000000000000111000000000000000000000000000000
00000000000000000000000000000000000000000000000000000000000000000000000000000000000000000000000111111111000000000011111111111111100000000000000000000000000000000000000111000000000000000000000000000000
00000000000000000000000000000000000000000000000000000000000000000000000000000000000000000001111111111111000000000011111111111111111000000000000000000000000000000111000000000011100000000000000000000000
00000000000000000000000000000000000000000000000000000000000000000000000000000000000000001111111111111111000000000011111111111011111100000000000000000000000000000111000000000011100000000000000000000000
00000000000000000000000000000000000000000000000000000000000000111000000000000000000000111111111111111111000000000011111111111011111110011000000000000000000000000000000000000000000000000000000000000000
00000000000000000000000000000000000000000000000000000000000000111000000000000000011111111111111101111110000000000000111111111111111111111111100000000000000000000000000000000000000000000000000000000000
00000000000000000000000000000000000000000011100000000000000000000000000000000001111111111111111000111110000000000000011111111111111101111111110000000000000000000000000000000000000000000000000000000000
00000000000000000000000000000000000000000011100000000000000000000000000000000011111111111111111001111100000000000000000001111111111100111111111100000000000000000000000000000000000000000000000000000000
00000000000000000000000000000000000000000000000000000000000000000000000000000011111111111111100011111000000000000000000000011111111110011111111110000000000000000000000000000000000000000000000000000000
00000000000000000000000000000000000000000000000000001111111011100000000000000011111111111100000011111000000000000000000000000011111110001111111111111111110000000000000000000000000000000000000000000000
00000000000000000000000000000000000000000000000111111111111111100000000000000011111111000000000111110000000000000000000000000000011111000111110111111111111100000000000000000000000000000000000000000000
00000000000000000000000000000000000000000000011111111111111111100000000000000011111100000000001111100000000000000000000000000000000110000111110111111111111111000000000000000000000000000000000000000000
00000000000000000000000000000000000000000000111111111111111111100000000000000000100000000000001111100000000000000000000000000000000111001111111111111111111111100000010000000000000000000000000000000000
00000000000000000000000000000000000000000000011111111111111111000000000000000000000000000000011111000000000000000000000000000000000111111111111111111111111111111001110000000000000000000000000000000000
00000000000000000000000000000000000000000010011111111111111111100011111111111110001111100000111111100000000000000000000111000000001111111111111111111111111111111111111000000000000000000000000000000000
00000000000000000000000000000000000000001111111111111111100111111111111110111111000011111000111111111000000000000000000111000000011111111111111111001111111111110111111000000000000000000000000000000000
00000000000000000000000000000000000000001111111100111111000111111101111100011111100001111101111111111111100000000000000000000000011111111111111111000000001111110111100000000000000000000000000000000000
00000000000000000000000000000000000000011111111101111110001111111000111110001111110001111111111111111111110010001110000000011100100111111111111111100000011111111111000000000000000000000000000000000000
00000000000000000000000000000000000000011111111111111110000111000000000000000000000000000111111111111111111111011111110000011000100011111111110111110000111111111111000000000000000000000000000000000000
00000000000000000000000000000000000001111110111111111111000110000000000000000000000000000011111000000000001111111111111000111000000111111111100011111110011111111111000000000000000000000000000000000000
00000000000000000000000000000000000011111100111111000001110000000000000000000000000000000111110000000000000000000111111111111000001111111111111111111111001111111111000000000000000000000000000000000000
00000000000000000000000000000000001111000011111000000000000000000000000000000000000000000111110000000000000000000000011111111100111111111111111111111111110000011111100000000000000000000000000000000000
00000000000000000000000000000000111111000111110000000000000000000000000000000000000000001111100000001100000000000000000011111111111101111111111111100000000000001111100000000000000000000000000000000000
00000000000000000000000000111000111111111111110000000000100000000000000000000000000000001111100000011100000000000000000000011111111101111111100000000000000000001111000000000000000000000000000000000000
00000000000000000000000000111000001111111111110001110000111000000000000000000000000000011111100000000000000000000000000000001110111111111110000000000000000011011111000000000000000000000000000000000000
00000000000000000000000000000000000001111111111111111000011000000000000000000000000000011111000000000000000000000000000000011110011111111110000000000000000111111111000000000000000000000000000000000000
00000000000000000000000000000000000000111111111111111100011100000000000000000000000000111110000000000000000000000001110000111111001111111100000000000000000111011111000000000000000000000000000000000000
00000000000000000000000000000000000000011110111111111111111111000000000000000001110000111110000000000000000000000001110001111111101111100000000000000000000111011110000000000000000000000000000000000000
00000000000000000000000000000000000000011110111111111111111111100000000000000001110001111100000000000000000000000000000011111111111110000000000000000001111111111100000000000000000000000000000000000000
00000000000000000000000111000000000000111111111111111111111111110000000000000000000011111100000000000000000000000000000011111111111110001100000000000011111111111100000000000000000000000000000000000000
00000000000000000000000111000000000000111111111111100011111111110000011110000000000011111000000000000000000000000000000011111111111110001100011100000111111111110000000000000000000000000000000000000000
00000000000000000000000000000000000000111011111100000001111111110000011110000000000111111000000000000000000000000000000001111111110000000000000100011111111111100000000000000000000000000000000000000000
00000000000000000000000000000000000000111011111000000001111111111000000000000000001111110000000000000000000000000000011001111111110000000000000000011111111111000000000000000000000000000000000000000000
00000000000000000000000000111000000000111111111000000011111111111000000000000000011111110000000000000000000000000000111111111111111000000000000000001111111111000000000000000000000000000000000000000000
00000000000000000000000000111000000000111111111000000011111111111000000000000000011111100000000001110000000000000000111111111111100000000000000000001111111110000000000000111000000000000000000000000000
00000000000000000000000000000000000000111111111000000001111111111000000000000000111111000000000111110000000000000001111111111111000000000000000000000111111111000000000000111000000000000000000000000000
00000000000000000000000000000000000000000111111000000000111111111000000000000000111111000000000011000000000000000001111111111111100000000000000000001111111111000000000000000000000000000000000000000000
00000000000000000000000000000000000000000111111100000000111111111000000000000001111110000000000000000000000000000000111111111111000000000000000000111111110000000000000000000000000000000000000000000000
00000000000000000000000000000000000000011111111100000000011111111100000000000001111110000000000000000000000000000000111111111110000000000000000000111111110000000000000000000000000000000000000000000000
00000000000000000000000000000000000000011111111100000000011111111100000000000011111100000000000000000000000000001111111111111110000000000000000000111111111111100000000000000000000000000000000000000000
00000000000000000000000000000000000000001111111110000000011111111100000000000011111100000000000000000000000000011111111111111100000000000000000000111111111111111000000111000000000000000000000000000000
00000000000000000000000000000000000000001111111110000000111111111100000000000111111100000000000000000000000000111111111111111000000000000000000000111110111111111100011111000000000000000000000000000000
00000000000000000000000000000000000000000111111111000001111111111100000000001111111000000000000000000000000001111111111111110000000000000000000001111110111111111111111100000000000000000000000000000000
00000000000000000000000000000000000000000011111111111111111111011000000000011111111100000000000000000000000001111111111111100000000000000000000001111111111111111111111100000000000000000000000000000000
00000000000000000000000000000000000000000001111111111111111110000000000001111111111110000000000000000000000000001111111111100000000000000000000000000000111111111111111100000000000000000000000000000000
00000000000000000000000000000000000000000001111111111111111001100000000001111111100000000000000000000000000000000111111111000000000000000000000000000000000000111111111100000000000000000000000000000000
00000000000000000000000000000000000000000000111111111011111011100000000000011111100000000000000000000000000000000000001110000000000000000000000000000000000000000001111100000000000000000000000000000000
00000000000000000000000000000000000000000000001111110001111111110000000000011111000000000000000000000000000000000000000100000000000000000000000000000000000000000000000000000000000000000000000000000000
00000000000000000000000000000000000000000000000011110001111100100000000011111111000000000000000000000000000000000000000000000000000000000000000000000000000000000000000000000000000000000000000000000000
00000000000000000000000000000000000000111000100001111011111100000000000001111111000000000000000000000000000000000000000000000000000000000000000000000000000000001110000000000000000000000000000000000000
00000000000000000000000000000000000000111000111000011111111111000000000001111110000000000000000000000000000000000000000000000000000000000011100000000000000000000000000000000000000000000000000000000000
00000000000000000000000000000000000000000000000000001111111110000000000011111100000000000000000000000000000000000000000000000011100000000011100000000000000000000000000000000000000000000000000000000000
00000000000000000000000000000000000000000000000000000111100000000000000111111100000000000000000000000000000000111000000000000001100000000000000000000000000000000000000000000000000000000000000000000000
00000000000000000000000000000000000000000000000000000111000000000000000111111000000000000000000000000000000000111000000000000000000000000000000000000000000000000000000000000000000000000000000000000000
00000000000000000000000000000000000000000000000000000000000000000000001111110000000000000000000000000000000000000000000000000000000000000000000000000000000000000000000000000000000000000000000000000000
00000000000000000000000000000000000000000000000000000000000000000000011111000000000000000000000000000000000000000000000000000000000000000000000000000000000000000000000000000000000000000000000000000000
00000000000000000000000000000000000000000000000000000000000000000000011000000000000000000000000000000000000000000000000000000000000000000000000000000000000000000000000000000000000000000000000000000000
00000000000000000000000000000000000000000000000000000000000000000000000000000000000000000000000000000000000000000000000000000000000000000000000000000000000000000000000000000000000000000000000000000000
00000000000000000000000000000000000000000000000000000000000000000000000000000000000000000000000000000000000000000000000000000000000000000000000000000000000000000000000000000000000000000000000000000000
00000000000000000000000000000000000000000000000000000000000000000000000000000000000000000000000000000000000000000000000000000000000000000000000000000000000000000000000000000000000000000000000000000000
00000000000000000000000000000000000000000000000000000000000000000000000000000000000000000000000000000000000000000000000000000000000000000000000000000000000000000000000000000000000000000000000000000000
