P1
200 70
00000000000000000000000000000000000000000000000000000000000000000000000000000000000000000000000000000000000000000000000000000000000000000000000000000000000000000000000000000000000000000000000000000000
00000000000000000000000000000000000000000000000000000000000000000000000000000000000000000000000000000000000000000000000000000000000000000000000000000000000000000000000000000000000000000000000000000000
00000000000000000000000000000000000000000000000000000000000000000000000000000000000000000000000000000000000000000000000000000000000000000000000000000000000000000000000000000000000000000000000000000000
00000000000000000000000000000000000000000000000000000000000000000000000000000000000000000000000000000000000000000000000000000000000000000000000000000000000000000000000000000000000000000000000000000000
00000000000000000000000000000000000000000000000000000000000000000000000000000000000000000000000000000000000000000000000000000000000000000000000000000000000000000000000000000000000000000000000000000000
00000000000000000000000000000000000000000000000000000000000000000000000000000000000000000000000000000000000000000000000000000000000000000000000000000000000000000000000000000000000000000000000000000000
00000000000000000000000000000000000000000000000000000000000000000000000000000000000000000000000000000000000000000000000000000000000000000000000000000000000000000000000000000000000000000000000000000000
00000000000000000000000000000000000000000000000000000000000000000000000000011100000000000000000000000000001000000000000000000000000000000000000000000000000000000000000000000000000000000000000000000000
00000000000000000000000000000000011100000000000000000000000000000000000000011110000000000000111111111111111111111100000000000000001110000000000000000000000000000000000000000000000000000000000000000000
00000000000000000000000000000000011100000000000000000000000000000000000000001111000000000111111111111111111111111111111110000000001110000000000000000000000000000000000000000000000000000000000000000000
00000000000000000000000000000000000000000000000000000000000000000000000000000111100001111111111111111111111111111111111111111111000000000000000000000000000000000000000000000000000000000000000000000000
00000000000000000000000000000000000000000000000000000000000000000000000000000111111111111111111111111000000000000111111001111111111000000000000000000000000000000000000000000000000000000000000000000000
00000000000000000000000000000000000000000000000000000000000000000000000011111111111111111110000000000000000000000000000000111111111000100000000000000000000111111000000000000000000000000000000000000000
00000000000000000000000000000000000000000000000000000000000000000000001111111111111111111100000000000000000000000000000000000011111101111000111000000001111111111110000000000000000000000000000000000000
00000000000000000000000000000000000000000000000000000000000000000000111111111111101111111000000000000000000000000000000000000000001111111111111000011111111111111111100000000000000000000000000000000000
00000000000000000000000000000000000000000000000000000000000000000001111111111000000111111000000000000000000000000000000000111000000001111111111000111111111111111111111000000000000000000000000000000000
00000000000000000000000000000000000000000000000000000000000000000111111111000000001111111000000000000000000000000000001110111000000000011111111001111111111111111111111100000000000000000000000000000000
00000000000000000000000000000000000000000000000000000000000000011111111100000000001111100000000000000000000000000000001110000000000000000011111111111011111111111110111110000000000000000000000000000000
00000000000000000000000000000000000011111111111110000000000001111111110000000000000111100000000000000000000000000000000000000000000000000001111111111001100000011110111110000000000000000000000000000000
00000000000000000000000000000000000111101111111110000100000111111111100000000000000111100000000000000000000000111001110000000000000000000000111111111100000000000111111111000000000000000000000000000000
00000000000000000000000000000000111111101111111110001111011001111111100000000000000011100000000000000000000000111111111111100000000000000000111111111100000000000011111110000000000000000000000000000000
00000000000000000000000000000001111111111111100110001111111100111111000000000000000011110000000000000000000000111111111111110000000000000000111111111110000000000001111111000000001110000000000000000000
00000000000000000000000000000011111111111111000000001111011110001111000000000000000011110000000000000011100000111111111111111110000000000000111111111000000000000000111111100000001110000000000000000000
00000000000000000000000000000011111111111100000000001110001000001111000000000000000011100000000000000011100000111111111111111111000000000001111111110000110000000000111001100000000000000000000000000000
00000000000000000000000000000111111111100000000000000111000000001111000000000000000011100000000000000000000001111111111111111111100000000001111111100011111000000000010000110000000000000000000000000000
00000000000000000000000000000011111111000000000111100010000000000111100000000000000011111110000000000000000000111111111111111111111000000000111111000111111100000000000001110000000000000000000000000000
00000000000000000000000011100011111100000000011111110000000000000111100000000000000011101110000000000000000100111111111111111111111100000000111111000001111110000000001111110000000000000000000000000000
00000000000000000000000011101111111100000001111100000000000000000111100000000000000111000000000000000000000111111111111000111111111110000011111111000000111111000000000011111000000000000000000000000000
00000000000000000000000000001110011110000011100000000000000000000011100000000000001111000000000000000000001111111001100000000111111111000011111111000000000011110000010011111110000000000000000000000000
00000000000000000000000000001100001110001111000000000000000000000001110000000000010000000000000000000000011111110000000000000011111111000011111111000000000001111000001111111111000000000000000000000000
00000000000000000000000000001110011111111111100000000000000000000011111000000011111001110000000000000000011111111000000000000000111111000011111001000000000000111110000001111100000000000000000000000000
00000000000000000000000000001111111111111111111111000000000000000001111111111111111111111100000000000000011111111100000000000000011111100011111011000000000001111111000000111000000000000000000000000000
00000000000000000000000000011111111111111111111111111000000000000000111111111111111111111110000000000000011111111100000000000000011111110011111111000000000000111111111100111100000000000000000000000000
00000000000000000000000000010011111110011111111111111000000000000000111111111111100111111111000000000000111111111000000000000000001111111011111111100000000000001111111111111100000000000000000000000000
00000000000000000000000000010011111110000111111111111100000000000000001111111110000000011111100000000000111111111000000000000000001111111001111111100000000000000111111110111100000000000000000000000000
00000000000000000000000000011111111111000000000111111100000000000000000111111000000000001111100000000000111111110000000000000000000111111001111111110000000000000111111110111100000000000000000000000000
00000000000000000000000000011111111111100000000111111110000000000000001111100000000000001111100000000000111111110000000000000000000111111001111111110000000000000111111111111100000000000000000000000000
00000000000000000000000000011111111111000000011111111111110000000000011110000000000000000011100000000000011111100000011100000000001111111000111111111000000000000111101111111100000000000000000000000000
00000000000000000000000000011111111111000000011111111111110000000000011100000000000000000001100000000000010000100000011100000000000111111100111111111110000000001111001111111100000000000000000000000000
00000000000000000000000000011111111111000000011111111111000000000000111100000000000011100011100000000000000000100000000000000000000111111000011111111111000001111110011111111110000000000000000000000000
00000000000000000000000000011111101111000000011111101111000000000000111000000000000011100011110000000000000011000000000111000000000111111000001111111111111111111110011111111100000000000000000000000000
00000000000000000000000000011111101111000000011111101111000000000000111000000000000000000011110000000000000111000000000111000000001111111000000011111111111111111111101111111100000000000000000000000000
00000000000000000000000000011111111111000000011111111111000000000000111000000000011100000011110000000000001111000000000000000000001111111000000001111111111111111111000111111100000000000000000000000000
00000000000000000000000000011111111111000000011100111110000000000000000000000000011100000011110000000001111111000000000000000000001111111000000000011111111111111100000111111100000000000000000000000000
00000000000000000000000000011111111111000000000000111110000000000000000100000000000000000001100000000011111111000000000000000000011111110000000000000001111111110000001111111100000000000000000000000000
00000000000000000000000000011111111111000000000001111110000000000000111100000000000000000000100000000011111111000000000111000000011110010000000000000000000000000000001111111100000000000000000000000000
00000000000000000000000000001111111111000000011111111110000000000000011100000000000000000111100001110011111110000000000111000000011110000000000000000000000000000000001111111100000000000000000000000000
00000000000000000000000000001111111110000000011111111100000000000000001100000000000000001111000001110001101110000000000000000000011111100000000000000000000000000000001111111100000000000000000000000000
00000000000000000000000000001111111110000000011111111100000000000000011000000000000000011110000000000001000110000000000000000000111111110000000000000000000000000000001111111000000000000000000000000000
00000000000000000000000000001111111111000000011111111000000000000001111100000000000000111000000000000000001110000000000000000000111111100111000000000000000000000000011111111000000000000000000000000000
00000000000000000000000000001111111001000000111111111000011100000000111100000000000001110000000000000010011110000000000000000000111111100111000000000000011100000000011111110000000000000000000000000000
00000000000000000000000000001111111011000000111111110000000000000000111110000000000111110000000000000011111110000000000000000001111111000000000011110000111100000000111111110000000000000000000000000000
00000000000000000000000000000111111111000000111111100000000000000000111110000000001111110000000000000011111110000000000000000001111111000000011111110000111000000000111111110000000000000000000000000000
00000000000000000000000000000111111111000001111111000000000000000000111100000001111111000000000000000001111110000000000000000000111000000000011111111000000000000000111111110000000000000000000000000000
00000000000000000000000000000011111111100011111111000000000000000000011110011000111110000000000000000001111110000000000000001000110000000000011111111110000000000001111111100000000000000000000000000000
00000000000000000000000000000011111111100111111100000000000000000000001111111100110000000000000000000001111110000000000000001100000100000000011111111111100000011111111111000000000000000000000000000000
00000000000000000000000000000011111111001111111000000000000000000000000111111111000000000000000000000001111110000000000000001110000000000000001111101111111111111111111110000000000000000000000000000000
00000000000000000000000000000001111111011111110000000000000000000000000001110000000000000000000000000001111111000000000000001111111000000000000011101111111111111110011110000000000000000000000000000000
00000000000000000000000000000000111111111110000000000000000000000000000000000000000000001110000000000001111111000000000000111111111000000000000001111111111111111110000000000000000000000000000000000000
00000000000000000000000000000000011111111100000000000000000000000000000000000000000000001110000000000000111111100000000001111111110000000000000000111111111111111111100001110000000000000000000000000000
00000000000000000000000000000000001111100001110000000000000000000000000000000000000000000000000000000000100111110000000001111111100000000000000000000111111011111110000001110000000000000000000000000000
00000000000000000000000000000000000000000001110000000000000000000000000000000000000000000000000000000000000111111110000001111111000000000001110000000000110000000000000000000000000000000000000000000000
00000000000000000000000000000000000000000000000000000000000000000000000000000000000000000000000000000000001111111111110011111111000000000001110000000000000000000000000000000000000000000000000000000000
00000000000000000000000000000000000000000000000000000000000000000000000000000000000000000000000000000000001111111111111111111110000000000000000000000000000000000000000000000000000000000000000000000000
00000000000000000000000000000000000000000000000000000000000000000000000000000000000000000000000000000000000111111111111111111100000000000000000000000000000000000000000000000000000000000000000000000000
00000000000000000000000000000000000000000000000000000000000000000000000000000000000000000000000000000000000011111111111111110000000000000000000000000000000000000000000000000000000000000000000000000000
00000000000000000000000000000000000000000000000000000000000000000000000000000000000000000000000000000000000001111111111111100000000000000000000000000000000000000000000000000000000000000000000000000000
00000000000000000000000000000000000000000000000000000000000000000000000000000000000000000000000000000000000000001111111111000000000000000000000000000000000000000000000000000000000000000000000000000000
00000000000000000000000000000000000000000000000000000000000000000000000000000000000000000000000000000000000000000000000000000000000000000000000000000000000000000000000000000000000000000000000000000000
00000000000000000000000000000000000000000000000000000000000000000000000000000000000000000000000000000000000000000000000000000000000000000000000000000000000000000000000000000000000000000000000000000000
