P1
200 70
00000000000000000000000000000000000000000000000000000000000000000000000000000000000000000000000000000000000000000000000000000000000000000000000000000000000000000000000000000000000000000000000000000000
00000000000000000000000000000000000000000000000000000000000000000000000000000000000000000000000000000000000000000000000000000000000000000000000000000000000000000000000000000000000000000000000000000000
00000000000000000000000000000000000000000000000000000000000000000000000000000000000000000000000000000000000000000000000000000000000000000000000000000000000000000000000000000000000000000000000000000000
00000000000000000000000000000000000000000000000000000000000000000000000000000000000000000000000000000000000000000000000000000000000000000000000000000000000000000000000000000000000000000000000000000000
00000000000000000000000000000000000000000000000000000000000000000000000000000000000000000000000000000000000000000000000000000000000000000000000000000000000000000000000000000000000000000000000000000000
00000000000000000000000000000000000000000000000000000000000000000000000000000000000000000000000000000000000000000000000000000000000000000000000000000000000000000000000000000000000000000000000000000000
00000000000000000000000000000000000000000000000000000000000000000000000000000000000000000000000000000000000000000000000000000000000000000000000000000000000000000000000000000000000000000000000000000000
00000000000000000000000000000000000000011100000000000000000000000000000000000000000000000000000000000000000000000000000000000000000000000000000000000000000000000000000000000000000000000000000000000000
00000000000000000000000000000000000000011100000000000000000111000000000000000000000000000000000000000000000000000000000111000000000000000000000000000000000000000000000000000000000000000000000000000000
00000000000000000000000000000000000000000000000000000000000111000000000000000000000000000000000000000000000000000000011111000000000000000000000000000000000000000000000000000000000000000000000000000000
00000000000000000000000000000000000000000000000011100000000110000000000000000111000000000000000000000000000000000000011111100000001110000111111100000000000000000000000000000000000000000000000000000000
00000000000000000000000000000000000000000000000011110001111110000000000000000110000000000000000000000000000000000000011111111111110000001111111100000000000000000000000000000111000000000000000000000000
00000000000000000000000000000000000000000000000001111111111100000000000000000000000000000000000000000000000000000000011111111111110000011111111100000000000000000000000000000001000000000000000000000000
00000000000000000000000000000000000000000000000111111111111110010000000000000000000000000000001000000000000000000000011101111111110001111111111100111100000000000000000000000000000000000000000000000000
00000000000000000000000000000000000000111000011111111111111111110000000000000000000000001110011110000000000000000000011001111111111011111111111101110000000000000000000000000000000000000000000000000000
00000000000000000000000000000000000000111000111111111111111111110000000000000000000000001111111111100000000000000000000011111111111111111111111111110000000000000000000000000000000000000000000000000000
00000000000000000000000000000000000000000001111111110000001111110000000000011100000000001111111111110000000000000000000111111111001111111111111111111111111000000000000000000000000000000000000000000000
00000000000000000000000000000000000000000011111111100000000111111000000000011100000001111111001111110000000000000000001111111111000011110111011100001111111111110000000000000000000000000000000000000000
00000000000000000000000000000000000000000011111110000111000111111000000000000000000001111100000111110000000000000000001111111111110001100010000000000111111111111100000000000000000000000000000000000000
00000000000000000000000000000000000000000111111100000111001111100000000000000000000011111000000011110000000000000000011111111111000000000000000000000000011111111110000000000000000000000000000000000000
00000000000000000000000000000000000011100111111000000000001110000000000000000000000011111000000011110000000000000011111111111110000000000000000000000000000111111111100000000011100000000000000000000000
00000000000000000000000000000000000011111111110000000000000000000000000000000000000011110000000011111000000000001111111111111100000000000000000000000000000011111111110000000011100000000000000000000000
00000000000000000000000000000000000000011111100000000000000000000000000000000000000111100000000011111000000000111111111011111100000000000000000000000000000011111111110000000000000000000000000000000000
00000000000000000000000000000000000000011111110000000000000000000000000000000000000111100000000001111000000111111111100001111100000000000000000000000000000111111011110000000000000000000000000000000000
00000000000000000000000000000000000000111111111000000000000000000000000000000000000111100000000011111000011110001100000001111100000000000000000000000000000111111000111000000011100000000000000000000000
00000000000000000000000000000000000000111111111000000000000000000000000000001110000111100000000011111101111100000000000011111100001111100000000000000000001111111000010000000011100000000000000000000000
00000000000000000000000000000000000000111111111000000000000000000000000000001110000111100000000011111111111100000000001111111111111111111000000000000000001111111000000000000000000000000000000000000000
00000000000000000000000000000000000000111111111000000011111111000000000000000000000111100000000011111111111000000000001111111111111111111111000000000000011111111000000000000000000000000000000000000000
00000000000000000000000000000000000001111111111000011111111111110000000000000000000111110000000111110111100000000000001111111111111111111111100000000000011111111000000000000000000000000000000000000000
00000000000000000000000000000000000001111111111000111110111111111100000000000000000111111000011111110010000000000000001111111111111111111111110000000000111111100000000000000000000000000000000000000000
00000000000000000000000000000000000001111111111011111110111111111110000000000000000011110011111111111000000000000000001111111111111111111111111000000001111111100000000000000000000000000000000000000000
00000000000000000000000000000000000011111111111111111111111111111110000000000000000011110111111111100000000000000000001111111111111111111111111100000111110011111000000000000000000000000000000000000000
00000000000000000000000000000000000011111111111111111111111111111111000000000000011111111111111111000000000000000000001111110111111111111111110000000110000001111100000000000000000000000000000000000000
00000000000000000000000000000000000011111111111111111001111111111111000000000011111111111111111110000000000000000000001111100011111111111011110010000000000001111100000000000000000000000000000000000000
00000000000000000000000000000000000011111111111111000000111111111100100000000011111111111111111100000000000000000000001111100011111111111011111110000000000001111100000000000000000000000000000000000000
00000000000000000000000000000000000011111111111100000000111111111101100000000111111011111101111100000000000000000000000111110011100001111111111111000000000001111100111000000000000000000000000000000000
00000000000000000000000000000000000011111111111100000000111111111111100000000111111001100000111110000000000000000000000111111000000000111111111111000000000001111100111000000000000000000000000000000000
00000000000000000000000000000000000011111111111110000000011111111111100011111111111110000000111110000000000000000000000111100000000000011110111111000000111001111110000000000000000000000000000000000000
00000000000000000000000000000000000011111111111110000000001111111111110011111011100000000011111110000000000000000000000111000000000000001100011111000000111001111110000000000000000000000000000000000000
00000000000000000000000000000000000011111111111100000000001111111111111111111011000000000011111110000000000000110000000000000000000000000110001110000000000001111110000000001110000000000000000000000000
00000000000000000000000000000000000001111111111100000000001111111111111111111111100000000000011110000000000000110000000000000000000000000111011110000000000001111110000000001110000000000000000000000000
00000000000000000000000000000000000001111111111100000000001111110001111111111111100000000000001111000000000000000000000000000000000000000111111111000000000001111110000000000001110000000000000000000000
00000000000000000000000000000000000011111111111100000000001111110001111111111111000000000000001111000000000000000000000000000000000000000111111111000000000001111110000000000001110000000000000000000000
00000000000000000000000000000000000111111111111100000000001111111111111100001111000000000000111111000000000000000000000000000000000000000111111111100000000001111110000000000000000000000000000000000000
00000000000000000000000000000000000111111111111110000000001111111111111000001111000000000000111110000000000000000000000000000000000000001111111111111000000000111110000000000000000000000000000000000000
00000000000000000000000000000000000011111111111110000000011111111111110000111111000000000001111111000000000000000000000000000000000000001111111111111000000000111111000000000000000000000000000000000000
00000000000000000000000000000000000111111111111110000000111111111111000000111111100000000011111110000000000000000000000000000000000000000011111111000000000000011111000000000000000000000000000000000000
00000000000000000000000000000000000111111111111110001111111111111111000000111111100000000111111100000000000000000000000000000000000000100000111110000000000000111111000000000000000000000000000000000000
00000000000000000000000000000000000111111111111110001111111111111111100000111110011100111111111000000000000000000000000000000100000011111100111110000000000000111111000000000000000000000000000000000000
00000000000000000000000000000000000011001111111111011111111111111111100000011110111111111111111000000000000000000000000000000111001111111111111110000000000000111111000000000000000000000000000000000000
00000000000000000000000000000000000110000111111111111100000000001111000000011111111111111111110000000000000000000000000110000111111111111111111000000000000000111111100000000000000000000000000000000000
00000000000000000000000000000000011111001111111111000000000000001110000000001111111111111111000000000000000000000000001111111111111111111111110000000000000000111111000000000000000000000000000000000000
00000000000000000000000000000000011111111111111110000000000111111110000000001111111111110000000000000000000000000000000111111111001111111111110000000000000000111111000000000000000000000000000000000000
00000000000000000000000000011100011111111111111110000000011111111110000000000000001000000000000000000000000000000000000111001111000011111111110000000000000000011010000000000000000000000000000000000000
00000000000000000000000000011100010011111111111111000000011111111100000000000000000000000000000000000000000000000000001111000111110011111111100000000000000000000000000000000000000000000000000000000000
00000000000000000000000000000000000001111111111111000000111111111000000000000000000000000000000000000000000000000000001111100011111111111110000000000000000000000000000000000000000000000000000000000000
00000000000000000000000000000000000000011111111111100000011111110000000000000000000001110000000000000000000000000000001111110111111111111100000000000000000000000000000000000000000000000000000000000000
00000000000000000000000000000000000000001111111111111110011111000000000000000000000001110000000000000000000000000000001111111111111111110000000000000000000000000000000000000000000000000000000000000000
00000000000000000000000000000000000000011111111111111111111110000000000000000000000000000000000000000000000000000000001111111111111100000000000000000000000000000000000000000000000000000000000000000000
00000000000000000000000001110000000000011111111111101111111100000000000000000000000000000000000000000000000000000000000111111001110000000000000000000000000000000000000000000000000000000000000000000000
00000000000000000000000001110000000000011111111111000111100000000000000000000000000000000000000000000000000000000000000001100000000000000000000000000000000000000000000000000000000000000000000000000000
00000000000000000000000000000000000000001111111111100111000000000000000000000000000000000000000000000000000000000000000000000000000000000000000000000000000000000000000000000000000000000000000000000000
00000000000000000000000000000000001110000111111111110000000000000000000000000000000000000000000000000000000000000000000000000000000000000000000000000000000000000000000000000000000000000000000000000000
00000000000000000000000000000000001110000011111111110000000000000000000000000000000000000000000000000000000000000000000000000000000000000000000000000000000000000000000000000000000000000000000000000000
00000000000000000000000000000000000000000000000000000000000000000000000000000000000000000000000000000000000000000000000000000000000000000000000000000000000000000000000000000000000000000000000000000000
00000000000000000000000000000000000000000000000000000000000000000000000000000000000000000000000000000000000000000000000000000000000000000000000000000000000000000000000000000000000000000000000000000000
00000000000000000000000000000000000000000000000000000000000000000000000000000000000000000000000000000000000000000000000000000000000000000000000000000000000000000000000000000000000000000000000000000000
00000000000000000000000000000000000000000000000000000000000000000000000000000000000000000000000000000000000000000000000000000000000000000000000000000000000000000000000000000000000000000000000000000000
00000000000000000000000000000000000000000000000000000000000000000000000000000000000000000000000000000000000000000000000000000000000000000000000000000000000000000000000000000000000000000000000000000000
00000000000000000000000000000000000000000000000000000000000000000000000000000000000000000000000000000000000000000000000000000000000000000000000000000000000000000000000000000000000000000000000000000000
