P1
200 70
00000000000000000000000000000000000000000000000000000000000000000000000000000000000000000000000000000000000000000000000000000000000000000000000000000000000000000000000000000000000000000000000000000000
00000000000000000000000000000000000000000000000000000000000000000000000000000000000000000000000000000000000000000000000000000000000000000000000000000000000000000000000000000000000000000000000000000000
00000000000000000000000000000000000000000000000000000000000000000000000000000000000000000000000000000000000000000000000000000000000000000000000000000000000000000000000000000000000000000000000000000000
00000000000000000000000000000000000000000000000000000000000000000000000000000000000000000000000000000000000000000000000000000000000000000000000000000000000000000000000000000000000000000000000000000000
00000000000000000000000000000000000000000000000000000000000000000000000000000000000000000000000000000000000000000000000000000000000000000000000000000000000000000000000000000000000000000000000000000000
00000000000000000000000000000000000000000000000000000000000000000000000000000000000000000000000000000000000000000000000000000000000000000000000000000000000000000000000000000000000000000000000000000000
00000000000000000000000000000000000000000000000000000000000000000000000000000000000000000000000000000000000000000000000000000000000000000000000000000000000000000000000000000000000000000000000000000000
00000000000000000000000000000000000000000000000000011100000000000011100000000000000000000000000000000000000000000000000000000000000000000000000000000000000000000000000000000000000000000000000000000000
00000000000000000000000000000000000000000000000000001100000000000000000000000000000000000000111000000000000000000000000000000000000000000000000000000000000000000000000000000000000000000000000000000000
00000000000000000000000000000000000000000000000000001100000000000000000000000000000000000111111000000000000000000000000000000000000000000000000000000000000000000000000000111000000000000000000000000000
00000000000000000000000000000000000000000000000000011100000000000000000000000000000000000000000000000000000000111000000000000000000000000000000000000000000000000000000000111000000000000000000000000000
00000000000000000000000000000000000000000000000000000000000000000000000000000000000000000000000000000000000000111000000000000000000000000000000000000000000000000000000000000000000000000000000000000000
00000000000000000000000000000000000000000000000000000000000000000000000000000000000000000000000000000000000000000000000000000000000000000000000000000000000000000000000000000000000000000000000000000000
00000000000000000000000000000000000000000000000000000000000000000000000000000000000000000000000000000000000000000000000000000000000000000000000000000000000000000000000000000000000000000000000000000000
00000000000000000000000000000000000000000000000000111001111100000000000000100000000000000000000000000000000000000000000000000000000000000000000000000000000000000000000000000000000000000000000000000000
00000000000000000000000000000000000000000000000000111111111110000000000000000000000000000000000000000000000000000000000000000000000000000000000000000000000000000000000000000000000000000000000000000000
00000000000000000000000000000000000000000000000001111111111000000000000000000000000000000000000000000000000000000000000000000000000000000000000000000000000000000000000000000000000000000000000000000000
00000000000000000000000000000000000000000000011111111111110000000000000000000000000000000000000000001111000000000000000000000000000000000000000001011110011000000000000000000000000000000000000000000000
00000000000000000000000000000000000000001111111111111111111000000000000000011000100000000000000000001111111111111000000000000000000000000000000111111111111111000000000000000000000000000000000000000000
00000000000000000000000000000000000001111111111111111111111100000000000000110001110000000000000000011111111111111100011110000000111000000000011111111111111111000000000000000000000000000000000000000000
00000000000000000000000000000000001111111111111111111111111100000000011000000011111000000000000000011111111111111111111111111110111000000000111111111111111111100100000000000000000000000000000000000000
00000000000000000000000000000000111111111111111111111111111100000000011111000111111100000000000000111111111110111111111111111110000000000001111111111111111111111111000000000000000000000000000000000000
00000000000000000000000000000001111111111111111111011111111100000000111111111111111110000000000000111111111110111111111111111110000000000111111111111111111111111111100000000000000000000000000000000000
00000000000000000000000000000000011111101111111110001111111100000001110111111111111110000000000000111111111111111111111111111110000000000111111111111011111111111111100000000000000000000000000000000000
00000000000000000000000000000000000111000111111110000011111100000001110111111111111111000000000000011100111111111111111111111100000000000111111111111011111111111111100000000000000000000000000000000000
00000000000000000000000000000001000111100011111110000011111100000011111111111111111111000000000000000000000000011111111111111100000000000111111111111111111111111111100000000000000000000000000000000000
00000000000000000000000000000011111111100011111000001111111000000011111111111111111111100000000000000000000000011100001111111000000000000111111111111111111111111111100000000000000000000000000000000000
00000000000000000000001110000011111111110001000000001111111000000111111111000011111111100000000000000000000000000000001111110000000000000111111111111100000001111111100000000000000000000000000000000000
00000000000000000000001111000011111111000000000000011111110011000111111000000011111111100000000000000000000000000110001111100000000000001111111111111000000000000111100000000000000000000000000000000000
00000000000000000000011111100011111100000000000000011111110011100111111000000001111111100000000000000000000000000111001111100000000000001111111111110000000000000001100000000000000000000000000000000000
00000000000000000000011111100011111100000000000000111111100000001111111100000001111111100000000000000000000000001111110000000000000000001111111111100000000000000000000000000000000000000000000000000000
00000000000000000000000000000111111110000000000001111111100000001111111100000001111111110000000000000000000000111111110000000000000000001111111111100000000000000000000000000000000000000000000000000000
00000000000000000000000000000011111111000000000001111111000000011111111100000000110111110000000000000000000001111110001000000000000000001111111111100000000000000000111000000000000000000000000000000000
00000000000000000000000000000001111110000000000011111111000000011111111000000000110111110000000000000000000011111110000000000000000000001111111111100000011100000000111000000000000000000000000000000000
00000000000000000000000000000000000100010000000011111110000000011111111000000001111111110000000000111000000011111111100000000000000000001111111111101111111111000000000000000000000000000000000000000000
00000000000000000000000000000000000011111000000111111100000000011111111000000000111111110000000000111000000111111111000000000000000000001111111111111111111111111000000000000000000000000000000000000000
00000000000000000000000000000000000001111110000111111100000000011111111000001000111111110000000000000000001111111111000000000000000000001111111111111111111111111100000000000000000000000000000000000000
00000000000000000000000000000000000000111111000111111000000000111111111001111101111111110000000000000000000111111110000000000000000000000111111111111111101111111110000000000000000000000000000000000000
00000000000000000000000000000000000000011111111111111000000000111111111001111110111111110000011100000000001111111100000000000000000000000111111111111111101111110111000000000000000000000000000000000000
00000000000000000000000000000000000000000111111111110000000000111111110011101100011111111000011100000000011111111000000000000000000000000111111111111111111111110111100000000000000000000000000000000000
00000000000000000000000000000000000000000001111111110000000000111111111011101100011111111000000000000001111111110000000000000000000000000111111111111111111111111111110000000000000000000000000000000000
00000000000000000000000000000000000000000000111111111000000001111111111011111111111111111000000000000011111111110000011100000000000000000111111111111111111111111111110000000000000000000000000000000000
00000000000000000000000000000000000000000000111111111110000001111111111011111111111111111000000000000111111111000000011100000000000000000111110111111111111111111111111000000001110000000000000000000000
00000000000000000000000000000000000000000000111111111111110001111111111011111111111111111000000000001111111110000000000000000000000000000111110111111111100011111111111100000001110000000000000000000000
00000000000000000000000000000000000000000001111111111111111111111111100001111000111111111000000000001111111000000000000000000000000000000011111111111001100001111111111100000000000000000000000000000000
00000000000000000000000000000000000000000011111000000100111110111111100011110000110111111000000000011111111000000000000000000000000000000111111111111000000001111111111100000000000000000000000000000000
00000000000000000000000000000000000000000011111000000000011100111111111111111001110111111000000000011111111100000000000000000000000000001111111111111100000001111110111000000000000000000000000000000000
00000000000000000000000000000000000000000111111100000000000011111111111111111111111111111000110000111111111100000000000000000000000000001111111111111100001000111110010000000000000000000000000000000000
00000000000000000000000000000000000000000111111110000000000001111111111111111111111111111101111001111111111100000000000000000000000000000001111111111100111101111111000110000000000000000000000000000000
00000000000000000000000000000000001110001001111100000000000001111111111111111111111111111111111111111111111111100000000000000000000000000000111111111111111111111111000110000111000000000000000000000000
00000000000000000000000000000000001110011101110000000000000001111001111000000011111111111111111111111111111111100011111111111110000000000001111111111111001100111000001110000111000000000000000000000000
00000000000000000000000000000000000000011111110000000000000001110000111000000011111111110001111111111011110011100011111011111111111111111111111111111110000000110000011110000000000000000000000000000000
00000000000000000000000000000000000000111111100000000000000001111001111100000011111111100001111111110001100000000011110001111111111111111111111111111110000000001111111100000000000000000000000000000000
00000000000000000000000000000000000001111111100000000000000001111111111100000111111111100011111111110001000000000000000011000111111111111111111111111110000000011111111100000000000000000000000000000000
00000000000000000000000000000000000001111111000000000000000000011111111111111111111111100000000001111011000000011100000000000000000111111111111111111110000001111111111100000000000000000000000000000000
00000000000000000000000000000000000011111111000000000110000000001111111111111111111111000000001000111111000000011000000000000000000000000000011111111111000011111110111100000000000000000000000000000000
00000000000000000000000000000000000011111110000000001110000000011111111111111011111111000000001111001110000000000000000000000000000000000000001111111111100111111110111000000000000000000000000000000000
00000000000000000000000000000000000111111100000000000000000000111111111111111001111110000000001111000000000000000000000000000000000000000000001111111111111111111111110000000000000000000000000000000000
00000000000000000000000000000000001111111100000000000000000000011111111111111100111100000000000000000000000000000000000000000000000000000000000001111111111111111111111000000000000000000000000000000000
00000000000000000000000000000000001111111000000000000000000000011111111111111110111000000000000000000000000000000000000000000000000000000000000000111111111111111100110000000000000000000000000000000000
00000000000000000000000000000000000000000000000000000000000000001111111111111111110000000000000000000000000000000000000000000000000000000000000000011100111111111100000000000000000000000000000000000000
00000000000000000000000000000000000000000000000000000000000000000111111111111111000000000000000000000000000000000000000000000000000000000000000000011100011111111110000000000000000000000000000000000000
00000000000000000000000000000000000000000000000000000000000000000011111111111000000000000000000000000000000000000000000000000000000000000000000000001110011111111110000000000000000000000000000000000000
00000000000000000000000000000000000000000000000000000000000000000000011111100000000000000000000000000000000000000000000000000000000000000000000000000111111111111100000000000000000000000000000000000000
00000000000000000000000000000000000000000000000000000000000000000000000000000000000000000000000000000000000000000000000000000000000000000000000000000001111111111000000000000000000000000000000000000000
00000000000000000000000000000000000000000000000000000000000000000000000000000000000000000000000000000000000000000000000000000000000000000000000000000000000000000000000000000000000000000000000000000000
00000000000000000000000000000000000000000000000000000000000000000000000000000000000000000000000000000000000000000000000000000000000000000000000000000000000000000000000000000000000000000000000000000000
00000000000000000000000000000000000000000000000000000000000000000000000000000000000000000000000000000000000000000000000000000000000000000000000000000000000000000000000000000000000000000000000000000000
00000000000000000000000000000000000000000000000000000000000000000000000000000000000000000000000000000000000000000000000000000000000000000000000000000000000000000000000000000000000000000000000000000000
00000000000000000000000000000000000000000000000000000000000000000000000000000000000000000000000000000000000000000000000000000000000000000000000000000000000000000000000000000000000000000000000000000000
