P1
200 70
00000000000000000000000000000000000000000000000000000000000000000000000000000000000000000000000000000000000000000000000000000000000000000000000000000000000000000000000000000000000000000000000000000000
00000000000000000000000000000000000000000000000000000000000000000000000000000000000000000000000000000000000000000000000000000000000000000000000000000000000000000000000000000000000000000000000000000000
00000000000000000000000000000000000000000000000000000000000000000000000000000000000000000000000000000000000000000000000000000000000000000000000000000000000000000000000000000000000000000000000000000000
00000000000000000000000000000000000000000000000000000000000000000000000000000000000000000000000000000000000000000000000000000000000000000000000000000000000000000000000000000000000000000000000000000000
00000000000000000000000000000000000000000000000000000000000000000000000000000000000000000000000000000000000000000000000000000000000000000000000000000000000000000000000000000000000000000000000000000000
00000000000000000000000000000000000000000000000000000000000000000000000000000000000000000000000000000000000000000000000000000000000000000000000000000000000000000000000000000000000000000000000000000000
00000000000000000000000000000000000000000000000000000000000000000000000000000000000000000000000000000000000000000000000000000000000000000000000000000000000000000000000000000000000000000000000000000000
00000000000000000000000000000000000000000000000000000000000000000000000000000000000000000000000000000000000000000011100000000000000000000000000000000000011101110000000000000000000000000000000000000000
00000000000000000000000000000000000000000000000011100000000000000000110011111111100000000000000000000000000000000011100000000000000000000000000000000000011101110000000000000000000000000000000000000000
00000000000000000000000000000000000000011111111111100000000000000000111111111111110000000000000000000000000000000000000000000000000000000000000000000000000000000000000000000000000000000000000000000000
00000000000000000000000000000011111111111111111111100000000000000001111011111111110000000000000010000000000000000000000000000000000000000000000000000111000000000000000000001110000000000000000000000000
00000000000000000000000000111111111111111101111111100000000000000111111000000111111000000000000011100000000000000000000000000000000000000000000000000100000000000000000000001100000000000000000000000000
00000000000000000000000000111111111111111101111111100000000000000111111000000011111110000000000000000000000000000000000000000000000000000000000000000000000000000001110000000000000000000000000000000000
00000000000000000000000000111111111111111111111111100000000000001111111000000001111111000000000000000000000000000000000000000000000000000000000000000000000000000001110000000000000000000000000000000000
00000000000000000000000000111111111111111111111111100000000000001111110000000000111111000000000000000000000000000000000000000000000000000000000000000000000000000000000000000000000000000000000000000000
00000000000000000000000000111111111111111111111101100000000000001111100000000000011111100000000000000000000000000000000000000000000000000000000000000000000000000000000000000000000000000000000000000000
00000000000000000000000000011111111111111111111101100000000000001111100000000000011110000000000000000000000000000000000000000000000000000000000000000000000000000000000000000000000000000000000000000000
00000000000000000000000000011000110000000111111111100000000000001111100000000000011110010000000000001111111110000100000000000000000000000000000000011100000000000000000011100000000000000000000000000000
00000000000000000000000000000000000000000111111111100000000000001111000000000000011111110000000000001111111111001111000000000000000000000000000000011100000000000000000011100000000000000000000000000000
00000000000000000000000000000000000000000011111111100000000000001111000000000000001111111000000000001111111111111111111000000000000000000000000000000000000000000000000000000000000000000000000000000000
00000000000000000000000000000000000000000001111111100000000000000000001000000000001111111000000000001110111111111111111100000000000000000000000000000011100000000000000000000000000000000000000000000000
00000000000000000000000000000000000000000001111111000000000000000000001110000000001111111000000000001110011111111111111110000000000000000000000000000011100000000000000000000000000000000000000000000000
00000000000000000000000000000000000000000111111111000000000000000000000000000000001111111000000000001111011111111111111111000000000000000110000000000000000000100000000000000000000000000000000000000000
00000000000000000000000000000000000000000111111111000000000000000000000000000000001111111000000000000000000111000011111000000111000000000010001110000000000011111111000000111000000111000000000000000000
00000000000000000000000000000000000000000111111111000111000000000000000000000000001111111000011100000000000000000000110000000111000000000000001110000000001111111111100000111000000001000000000000000000
00000000000000000000000000000000000000000111111111000111000000000000000000000000001111111000011100000000000000000000000001000000000000000000000000000000111111111111111100000000000000000000000000000000
00000000000000000000000000000000000000000011111111000000000000000000000011100000001111111000000000000000000000000000000111111100000000000000000000000001111111111111111100000000000000000000000000000000
00000000000000000000000000000000000000000111111111100000000000000000000011100000001111111000000000000000000000000000000111111100000000000000000000000011111111111111111110000000000000000000000000000000
00000000000000000000000000000000000000001111111111100000000000000000000000000000001111111000000000000000000000000000000011110000000000000000000000000111111100111111111110000000000000000000000000000000
00000000000000000000000000000000000000000111111110000000000000000000000000000000001111110000000000000000000000000000000011110010000000000000000000000111111000001111110111000000000000000000000000000000
00000000000000000000000000000000000000000111111110000000000000000000000000000000011111110000000000000000000000000000000001111110000000000000000000001111111100001111110110000000000000000000000000000000
00000000000000000000000000000000000000011111111110000000000000000000000000000000011111110000000000000000001000000000000010011110000000000000000000011111111100011111111111000000000000000000000000000000
00000000000000000000000000000000000000011111111100000000000000000001110000000000011111100000000000000000001000000000000111011110000000000000000000011111111100111111111111000000000000000000000000000000
00000000000000000000000000000000000000011111111100000000000000000001110000000000100111100000000000000000000000000000000111111110000011100000000000011111111111111111111111100000000000000000000000000000
00000000000000000000000000000000000000001111111100000000000000000000000000000000110111000000000000000011100000110011001111111100000011100000000000011111111111111101111111100000000000000000000000000000
00000000000000000000000000000000000000001111111100000000000000000000000000000001111110000000000000000011100011111111111111111000000000000000000000111111111111111001110111100000000000000000000000000000
00000000000000000000000000011100011111111111111100000000000000000000000000000011111100000000000000000000000011111111111111110000000000000000000000111111111111100001110111100000000000000000000000000000
00000000000000000000000000011100011111111111111100000000000000000000000000000111111100000000000000000000000011111111111111110000000000000000000001111111111111000001111111000000000000000000000000000000
00000000000000000000000000000000011110111111111110000000000000000000000000001111111000000000000000000000000001111111111111111100000000000000000001111111111100000011111111000000000000000000000000000000
00000000000000000000000000000000011100111110111111111110000000000000000000001111110000000000000000000000000000111111111111111110000000000000000001111111111000000111111111000000000000000000000000000000
00000000000000000000000000000000000011111110111111111111110000000000000000111111100000000000000000000000000000000100001111111111000000000000000001111111110000001111111110000000000000000000000000000000
00000000000000000000000000000000000011111111111111111111111111000000000001111111000000000000000000000000000000000000000000111111101110000000000011111111111000011111111110000000000000000000000000000000
00000000000000000000000000000000000011111111110000000111100111111000000001111110000000000000000000000000000000000000000000011111111110000000001111111111111111111111111100000000000000000000000000000000
00000000000000000000000000000000000111111111110000000000000011111111000111111110000000000000000000000000000000000000000000011111110000000000011111111111111111111111111100000000000000000000000000000000
00000000000000000000000000000000000111111011100000000000000000111111111111111000000000000000000000000000000000000000000000011111110000000001110001111111111111111111011100000000000000000000000000000000
00000000000000000000000000000000000111111011000000000000000000011111111111111000000000000000000000000000000000000000000000001111111000000111100000111111111111111111001000000000000000000000000000000000
00000000000000000000000000000000000111111111000000000000011100000111111111111100000000000000000000000000000000000000000000001111110000111111100000111111110011111111110000000000000000000000000000000000
00000000000000000000000000000000001111111111000000000000011100000011111111111111110000000000000000000000000000000000000000000011110011111111110000000001100001111111100000000000000000000000000000000000
00000000000000000000000000000000001111111111100000000000000000000011111111111111111110000000000000000000000000000000000000000011111111111111100000000000000011111011100000000000000000000000000000000000
00000000000000000000000000000000000001111111000000000000000000001111111110000111111111111110000111000000000000000000000000001111111111111111110010000000000111111001000000000000000000000000000000000000
00000000000000000000000000000000000000001110000000000000000000011111111000000000111111111111111111000000000000000000000011111111111111000111111110000000001111111110000000000000000000000000000000000000
00000000000000000000000000000000000000000000000000000000000000111111111000000000001111111111111000111111111111000111111100111111111100000111111110000000011111111110000000000000000000000000000000000000
00000000000000000000000000000000000000000000000000000000000000011111111111000000000111001111111000001111111111101111101110111111111000000111111110000000111111111100000000000111000000000000000000000000
00000000000000000000000000000000000011100000000000000000000000111101111111111000000110000111111000000111111111111111000111111111110000000111111111000011111111111000000000000111000000000000000000000000
00000000000000000000000000000000000011100000000000000000011101111101111111111111111110000011110000001111111111111110011111111100100000000111111111111111111111110000000000000000000000000000000000000000
00000000000000000000000000000000000000000000000000000000011101111111111111111111111111100111110000000000111111111111111111111100000000000111111111111001111111100000000000000000000000000000000000000000
00000000000000000000000000000000000000000000000000000000000000000111111111111111111111111111110000000000111111111111111111111110000000000011111111110000111111000000000000000000000000000000000000000000
00000000000000000000000000000000000000000000000000000000000000000000111111111111111110111111111000000000011111111111111111111100000000000011111111110000111110000000000000000000000000000000000000000000
00000000000000000000000000000000000000000000000000000000000000000000000001111111111110111111111000000000011111111111101111111000000000000001111111110001111000000000000000000000000000000000000000000000
00000000000000000000000000000000000000000000000000000000000000000000000000000011111111111111111000000000001111111111000111100000000000000000111111111000110000000000000000000000000111000000000000000000
00000000000000000000000000000000000000000000000000000000000000000000000000000000001111111111111000000000000000111111000000000000000000000000001111111000000000000000000000000000000111000000000000000000
00000000000000000000000000000000000000000000000000000000000000000000000000000000000011111111011000000000000000011110000000000000000000000000000011100000000000000000111000000000000000000000000000000000
00000000000000000000000000000001110000000000000000000000000000000000000000111000000001111110001011100000000000011100000000000000000000000000000000000000000000000000111000000000000000000000000000000000
00000000000000000000000000000001110000000000000000000000000000000000000000111000000001110000000011100000000000000000000000000000000000000000000000000000000000000000000000000000000000000000000000000000
00000000000000000000000000000000000000000000000000000000000000000000000000000000000000000000000000000000000000000000000000000000000000000000000000000000000000000000000000000000000000000000000000000000
00000000000000000000000000000000000000000000000000000000000000000000000000000000000000000000000000000000000000000000000000000000000000000000000000000000000000000000000000000000000000000000000000000000
00000000000000000000000000000000000000000000000000000000000000000000000000000000000000000000000000000000000000000000000000000000000000000000000000000000000000000000000000000000000000000000000000000000
00000000000000000000000000000000000000000000000000000000000000000000000000000000000000000000000000000000000000000000000000000000000000000000000000000000000000000000000000000000000000000000000000000000
00000000000000000000000000000000000000000000000000000000000000000000000000000000000000000000000000000000000000000000000000000000000000000000000000000000000000000000000000000000000000000000000000000000
00000000000000000000000000000000000000000000000000000000000000000000000000000000000000000000000000000000000000000000000000000000000000000000000000000000000000000000000000000000000000000000000000000000
