P1
200 70
00000000000000000000000000000000000000000000000000000000000000000000000000000000000000000000000000000000000000000000000000000000000000000000000000000000000000000000000000000000000000000000000000000000
00000000000000000000000000000000000000000000000000000000000000000000000000000000000000000000000000000000000000000000000000000000000000000000000000000000000000000000000000000000000000000000000000000000
00000000000000000000000000000000000000000000000000000000000000000000000000000000000000000000000000000000000000000000000000000000000000000000000000000000000000000000000000000000000000000000000000000000
00000000000000000000000000000000000000000000000000000000000000000000000000000000000000000000000000000000000000000000000000000000000000000000000000000000000000000000000000000000000000000000000000000000
00000000000000000000000000000000000100000000000000000000000000000000000000000000000000000000000000000000000000000000000000000000000000000000000000000000000000000000000000000000000000000000000000000000
00000000000000000000000000000000001110000000000000000000000000000000000000000000000000000000000000000000000000000000000000000000000000000000000000000000000000000000000000000000000000000000000000000000
00000000000000000000000000000000111110000000000000000000000000000000000000000000000000000000000000000000000000000000000000000000000000000000000000000000000000000000000000000000000000000000000000000000
00000000000000000000000000000000011111000000000000000000000000000000000000000000000000000000000000000111000000000000000000000000000000000000000000000000000000000000000000000000000000000000000000000000
00000000000000000000000000000000001111100000000000000000000000000000000000000000000000000000000000000111000000000000000000000000000000000000000000000000000000000000000000000000000000000000000000000000
00000000000000000000000000000000001111000000000000000000000000000000000000000000000000100000000000000000000000000000000000000000000000000000000000000000000000000000000000000000000000000000000000000000
00000000000000000000000000000000000110000000000000000000000000000000011100000000000000111000000000000000000000000000000000000000000000000000000000000000000000000000000000000000000000000000000000000000
00000000000000000000000000000000000000011000000000000000000000000000011100000000000000000000000000000000000000000000000000000000000000000000000000000000000000000000000000000000000000000000000000000000
00000000000000000000000000000000000000111100000001110000000000000000000000000000000000000000000000011100000000000000000000000000000000000000000000000000000000000000000000000000000000000000000000000000
00000000000000000000000000000000000001111110000001110000000000000000000000000000000000000000000000011100000000000000000000000000000111000000000000000000000000000000001100000000000000000000000000000000
00000000000000000000000000000000000000111001000000000000000000000010000000110000000000000000000000000000000000000000000000000000000000000000000000000111000000000000001100000000000000000000000000000000
00000000000000000000000000000000000000010011100000000000000000011111000001110000000000000000000000000000000000000000000000000000000000000000000000000111000000000011100000000000000000000000000000000000
00000000000000000000000000000000000000001111111011111111110000011111100000000011100000000000000000000000000000000000000000000000000000000000000000000000111111110111111000000000000000000000000000000000
00000000000000000000000000000000000011111111111111111111110000011111110000000011100000000000000000000000000000000000000000000000000000000000000000000011111111111111111110000000000000000000000000000000
00000000000000000000000000000000000111111111111111111111100000011111110000000000000000000000000000000000000000000000000000000000000000000000000011111111111111101111111111000000000000000000000000000000
00000000000000000000000000000000001111111101111111111111000000011111110000000000000000000000000000000000000000000000000000000000000000000000000011111111111111101111111110000000000000000000000000000000
00000000000000000000000000000000000111111000110001111111000000011101100000000000000000000000000000000000000000000000000000000000000000000000000011111111111111111111111110011000000000000000000000000000
00000000000000000000000000000000000011110000100001111100000000011100000000000000000000000000000000000000000000000000000001110000000000000000000011111111111111111111101111111000000000000000000000000000
00000000000000000000000000000000000000000000000001111000000000011100011000000000000000000000000000000000000000011111100001110000000000000000000111111111111111111111101111111100000000000000000000000000
00000000000000000000000000000011100000000000010000111000000000011100011100000111000000000000000000000000000111111111100000000000000000000000001111111111011111111111111111111100000000000000000000000000
00000000000000000000000000000111100000000000001001111000000000011100011100000000100000000000000000000000001111111111111000000000000000000000011111111111011111111111111111111100000000000000000000000000
00000000000000000000000000000010000000000000011111111100000000011100011100000000100000000000000000111000111111111111111000000000000000000000111111111111111000111111111111111100000000000000000000000000
00000000000000000000000000000000000000000000011111111110000000011100001110000000000000000000000000100000111001111111111000000000000000000000001111111111110000111111111111111110000000000000000000000000
00000000000000000000000111000000000000000000111100111111000000011100000111000000000000000000000000000001110000000011111000000000000000000001001111111111100001110011111111111111100000000000000000000000
00000000000000000000000111000000000000000001111000011111100000011100000111000000000000000000000000000111111000000011111000000000000001110011111111111111000011110011111111111111100000000000000000000000
00000000000000000000000000000000000000000000111000001111110000011100000100000000000000000000000000000111110000000011111000000000000001110111111111111110001001111011111111111110000000000000000000000000
00000000000000000000111000000000000000000001110000000111111100011100000000000000000000000000000000001111100000011111110000000000000000000111110111111110011100110111111111111100000000000000000000000000
00000000000000000000111000000000000000001111110000000011111110011100000111110000000000000011100000011111000000011111100000000001110000001111110111111100111111000111111111111100000000000000000000000000
00000000000000000000000000000000000000001111100000000000111111111100000011110000000000000011100000111110000000001111110000000001110000001111111111111000111110000111111111111100000000000000000000000000
00000000000000000000000000000000000000011111000000000000011111111100000001110000000000000000000000111110000000001111100000000000000000001111111111111001111100001111111110001000000000000000000000000000
00000000000000000000000000000000000000111110000000000000001111111100000000110000000000000000000000111110000000010001100000000000000000011111111111111111111000001111111000000000000000000000000000000000
00000000000000000000000000000000000000011100000000000000000111111110000000001100000000000000000001111110000000111001000000000000000000011111111101111111110000011111111001000000000000000000000000000000
00000000000000000000000000000001110000111100000000000000000001111111000000001100000000000000000001111111001111111111000000000000000000011111111100111111100001111111111111110000000000000000000000000000
00000000000000000000000000000001110111111000000000000000000000111111110000011100000000000000000001111111111111111111000000000000000000011111111110011110000011111111111011110000000000000000000000000000
00000000000000000000000000000000001111111100000000000000000000011111111000001111100000000000000000011111111111101110000000000000000000011111100111011100000011111011111011100000000111000000000000000000
00000000000000000000000001110000001111111100000000000000000000001111111110011111110000000000000000001111111111101110000000000000000000011111100111111111100000111011111111000000000111000000000000000000
00000000000000000000000001110000011111000000000000000000000000000001111111111110010000000000000011001111111111111110000000000000000000011111111111111111111100111111111111000000000000000000000000000000
00000000000000000000000000000000111110000000000000000000000000000001111111111110010000000000000111111111000011111110000000000000000000001111111111111111111111111111111111000000000000000000000000000000
00000000000000000000000000000001111100000000000000000000000000001111111111111111100000000000001111111110000001111100000000000000000000001111111111111111111111111111111000000000000000000000000000000000
00000000000000000000000000000011111000000000000000000000000000001111111111111101110000000000111111100111000000011100000000000000000000111111111111111111111111111111111000000000000000000000000000000000
00000000000000000000000000000111110000000000000000000000000000000111111000011001111110000001111111000111000000011100000000000000000011111111111111111111111111111111111100000000000000000000000000000000
00000000000000000000000000001111100000000000000000000000000000000110000000000011111100110011111110000000000000111110000000000011111111111111111111111111111111111111111111100000000000000000000000000000
00000000000000000000000000001111000000000000000000000000000000000000000000000001111101111111111100000000000001111110000000000111111111110000001111111111111111111111100011100000000000000000000000000000
00000000000000000000000000011110000000000000000000000000000000000000000000000000111111111111111100000000000011111110000011111111111111000000000000111111111111111111100000000000000000000000000000000000
00000000000000000000000000111110000000000000000000000000000000000000000000000000111101111111111111111111111111111111111111111111110000000000000000000001111111000011100000000000000000000000000000000000
00000000000000000000000001111100000000000000000000000000000000000000000000000000111101111111111111111111111111111111111111111111000000000000000000000000111111000011100000000000000000000000000000000000
00000000000000000000000011111000000000000000000000000000000000000000000000000000111111111111111111111111111111111111111110000000000000000000000000000001111111111111000000000000000000000000000000000000
00000000000000000000000111110000000000000000000000000000000000000000000000000011111111111111100000001111111111111100000000000011111000000000000000000111111111111110000000000000000000000000000000000000
00000000000000000000000111100000000000000000000000000000000000000000000000000111011111111111100000000111111111100000000000000011111100000000000000011111111111111110000000000000000000000000000000000000
00000000000000000000001111000000000000000000000000000000000000011100000000000110001111111111110000011111111110000000000000001111111001000000000000111111111111111000000000000000000000000000000000000000
00000000000000000000000000000000000000000000000000000000000000011100000000000010000001111111111111111111111100000000000000001111111011110000000011111111111111110000000000000000000000000000000000000000
00000000000000000000000000000000000000000000000000000000000000000000000000000000000001111111111111111111110000000000000000011111111111111111000111111111111111100000000000000000000000000000000000000000
00000000000000000000000000000000000000000000000000000000000000000000000000000000000001111111111111111111100000000000000000011111111111111111111111111111111111000000000000000000000000000000000000000000
00000000000000000000011100000000000000000000000000000000000000000000000000000000000000011111111111111000000000000000000000011111111111111111111111111111111100000000000000000000000000000000000000000000
00000000000000000000011100000000000000000000001110000000000000000000001110000000000000000110100000000000000000000000000000011111000011111111110111111111111000000000000000000000000000000000000000000000
00000000000000000000000000000000111000000000001110000000000000000000001110000000000000000000000000000000000000000000000000111111000011111111110111111111110000000000000000000000000000000000000000000000
00000000000000000000000000000000111000000000000000000000000000000000000000000000000000000000000000000000000000000000000000011111111111111111111111111111000000000000000000000000000000000000000000000000
00000000000000000000000000000000000000000000000000000000000000000000000000000000000000000000000000000000000000000000000000000000111111111111110111111110000000000000000000000001110000000000000000000000
00000000000000000000000000000000000000000000000000000000000000000000000000000000000000000000000000000000000000000000000000000000000011111111110011111000000000000000000000000001110000000000000000000000
00000000000000000000000000000000000000000000000000000000000000000000000000000000000000000000000000000000000000000000000000000000000000111111111001100000000000000000000000000000000000000000000000000000
00000000000000000000000000000000000000000000000000000000000000000000000000000000000000000000000000000000000000000000000000000000000000001100000000000000000000000000000000000000000000000000000000000000
00000000000000000000000000000000000000000000000000000000000000000000000000000000000000000000000000000000000000000000000000000000000000000000000000000000000000000000000000000000000000000000000000000000
00000000000000000000000000000000000000000000000000000000000000000000000000000000000000000000000000000000000000000000000000000000000000000000000000000000000000000000000000000000000000000000000000000000
00000000000000000000000000000000000000000000000000000000000000000000000000000000000000000000000000000000000000000000000000000000000000000000000000000000000000000000000000000000000000000000000000000000
00000000000000000000000000000000000000000000000000000000000000000000000000000000000000000000000000000000000000000000000000000000000000000000000000000000000000000000000000000000000000000000000000000000
00000000000000000000000000000000000000000000000000000000000000000000000000000000000000000000000000000000000000000000000000000000000000000000000000000000000000000000000000000000000000000000000000000000
