P1
200 70
00000000000000000000000000000000000000000000000000000000000000000000000000000000000000000000000000000000000000000000000000000000000000000000000000000000000000000000000000000000000000000000000000000000
00000000000000000000000000000000000000000000000000000000000000000000000000000000000000000000000000000000000000000000000000000000000000000000000000000000000000000000000000000000000000000000000000000000
00000000000000000000000000000000000000000000000000000000000000000000000000000000000000000000000000000000000000000000000000000000000000000000000000000000000000000000000000000000000000000000000000000000
00000000000000000000000000000000000000000000000000000000000000000000000000000000000000000000000000000000000000000000000000000000000000000000000000000000000000000000000000000000000000000000000000000000
00000000000000000000000000000000000000000000000000000000000000000000000000000000000000000000000000000000000000000000000000000000000000000000000000000000000000000000000000000000000000000000000000000000
00000000000000000000000000000000000000000000000000000000000000000000000000000000000000000000000000000000000000000000000000000000000000000000000000000000000000000000000000000000000000000000000000000000
00000000000000000000000000000000000000000000000000000000000000000000000000000000000000000000000000000000000000000000000000000000000000000000000000000000000000000000000000000000000000000000000000000000
00000000000000000000000000000000000000000000000000000000000000000000000000000000000000000000000000000000000000000000000000000000000000000000000000000000000000000000000000000000000000000000000000000000
00000000000000000000000000000000000000000000000000000000001111000000000000000000000000000000000000000111000000000000000000000000000000000000000000000000000000000000000000000000000000000000000000000000
00000000000000000000000000000000000000000001110000111111111111000000000000000000100000000000000000000111000000000000000000000000000000000000000000000000000000000000000000000000000000000000000000000000
00000000000000000000000000000000011100011111100000111011111111000000000000000000111111000000000000001110000000000000000000000000000000000000000000000000000111111111000000000000000000000000000000000000
00000000000000000000000000111110001111111111100000111011111111000000000000000000111100111110000000001110000000000000000000000000000000000000000000000000001111111111100000000000000000000000000000000000
00000000000000000000000000111111011111111110011111111111111110000000111000000000111101111111111110001100000000000000000000000000000000000000000000000100011111111111100000000000000000000000000000000000
00000000000000000000000000011111111111111100011111111111111110000000110000000001111111111111111111111000000000000000000000000000000000000000000000000111111111111111100000000000000000000000000000000000
00000000000000000000000000111111111111111000111111111111111110000000000000000011111111111111011111111000000000000000100000000000000000000000000000000111111111111111000000000000000000000000000000000000
00000000000000000000000001111111011101111001111111111111111100000000000000000011111111111111011111111000000000000011100000000000000000000011100000001111110011111110000000000000000000000000000000000000
00000000000000000000000001111111011101110011111111111111111100000000000000000011111111111111111111111000000000000000000000000000000000000011100000000111100000000000000000000000000000000000000000000000
00000000000000000000000001111111111111100111111111111111111000000000000000000111111000000111111111110000000000000000000000000000000000000000000000000001100000000000000000000000000000000000000000000000
00000000000000000000000001111111111100011111111110111111110000000000000000000111100000000000001111100000000000000000000000010000000000000000000000000001100000000000000000000000000000000000000000000000
00000000000000000000000011111111111000000000000000111111100000000000000000001111000000000000000000000000000000000000000011110000000000000000000000000111110000110000000000000000000000000000000000000000
00000000000000000000000011111111111000000000000001111111000000000000000011111111000000000000000000000000000000000000000111110000000000000000000000001111110000110000000000000000000000000000000000000000
00000000000000000000000011111110000000000000000001111111000000000000000011111111000000000000000000000000000000000000001111110000000000000000000000001111110000000000000000000000000000000000000000000000
00000000000000000000000011111100000000000000000011111110000000000000000000011110000000000000000000000000000000000111011111111000000000000000000000001111100000000000000000000000000000000000000000000000
00000000000000000000000011111100000000001110000111111100000000000000000000011110000000000000000000000000000000001111011111111000000000000000000000001111100000000000000000000000000000000000000000000000
00000000000000000000000011111000000000000000001111111100000000000000000000011100000000000000000000000000000000011110011111111000000000000000000000001111100000000000000000000000000000000000000000000000
00000000000000000000000011111000000111000000011111111000000000000000000000111100000000000000000000000000000000011100111111111000000000000000000000001111100000000000000000000000000000000000000000000000
00000000000000000000000011111000000111000000011111110000000000000000000000111100001110000000000000000000000000000011111111111000000000000000000000001111100011000000000000000000000000000000000000000000
00000000000000000000000011111000000000000000111101110000000000000000000001111000100000000000000000000000000000000011111110111000000000000000000000001111111111100010000000000000000000000000000000000000
00000000000000000000000011110000000000000000111100100000000000000000000011111111110001000000000000000000000000000001111110111000000000000000000000001111111111111111000000000000000000000000000000000000
00000000000000000000000000000000000000000001111111000000000000000000000011111111100111110000000000000000000000000000111111111100000000000000000000001111111110111011100000000000000000000000000000000000
00000000000000000000000000000000000000000001111110000000000000000000000011111111101111111100000111000000000000000000111111111100000000000000000011111111111110111001110000000000000000000000000000000000
00000000000000000000000000000000000000000011111100000000000000000000000011111111111111111110000111000000000000000001111111111100000000000000000011111111111111111100110000000000000000000000000000000000
00000000000000000000000000000000000000000001111000000000000000000000000111111111001111111110000000000000000000000001111111111100000000000011100011111111111111111110111000000000000000000000000000000000
00000000000000000000000000000000000000000000111000000000000000000000001111100000000111111111000000000000000000000010011111111100000000000011100111011111100000001111111000000000000000000000000000000000
00000000000000000000000000000000000000000000010000000000000000000000001111000000000001111111000000000000000000000011001111111110000000000000000110001111000000000111111100000000000000000000000000000000
00000000000000000000000000000000000000000000000000000000000000000001111111000000000001111111000000000000000000000011111111111110000000000000000000001100000000000111111100000000000000000000000000000000
00000000000000000000000000000000000000000111100000000000000000000011111111111111111111111111100000000000000000000011110011111110000000000000000000000000000000000011111100000000000000000000000000000000
00000000000000000000000000000000000000001111000000000000000001111111111111111111111111111111110000000000000000000100010011111110000000000000000000010000000000000011111100000000000000000000000000000000
00000000000000000000000000000000000000111111000000000111100001111111111111111111111111111111111111111000000000001110000011111110000000000000000011100000000000000001111100000000000000000000000000000000
00000000000000000000000000000000000000011111000011111111110011111111111111111111111111111111111111111111111100001111100001111111000000000000000010000000000000000001110000000000000000000000000000000000
00000000000000000000000000000000000000111111100111111111111111111000000000000000000001111111111111111111111111110011100000011111000000000000000000000000000000000001100000000000000000000000000000000000
00000000000000000000000000000000000011111111001111111100000001110000000000000000000000111111100000001111111111111011100000011111111100000000000000000000000000000000001100000000000000000000000000000000
00000000000000000000000000000000000111111110001000000000000000000000000000000000000000111111000000000000001111111111110011111111111110000000000000000000000000000000011100000000000000000000000000000000
00000000000000000000000000000000111001111110000000000000000000000000000000000000000001111111000000000000000011111111111111111111111110000000000000000000000000000011111100000000000000000000000000000000
00000000000000000000000000000000111100111000000000000000000000000000000000000000000000111110000000001000000011111111111111111111111110000000000000000000000000000011110000000000000000000000000000000000
00000000000000000000000000000000011110000000000000000000000000000000000000000000000000111110000000001000000011111111111111111111111110000000000000000000000000000111110000000000000000000000000000000000
00000000000000000000000000000000011110000000000000000000000000000000000000000000000010011110000000000000000011111111111111111111111100000000000000000000000000000111110000000000000000000000000000000000
00000000000000000000000000000000011111000000000000000000000000001111000000000000000011011110000000000000000111111111111111111111111110011000000000000000000000111111110000000000000000000000000000000000
00000000000000000000000000000000111111100000000001110000000000011111000000000000000111111110000000000000000111111111111111111011111111111000000000000000000000011111110000000000000000000000000000000000
00000000000000000000000000000000111100000000000001000000000000000111000000000000000111111100000000000000001111111110111111111011111111110000000000000000000000011111100000000000000000000000000000000000
00000000000000000000000000000001111100000000000000000000000000110111000000000000001111111000000000000000001110111110111111111111111111110001000000000000000000111111100000000000000000000000000000000000
00000000000000000000000000000001111110000000000000000000000000111111000000000000001111111000000000000000001110111111111111111111100001110001110000000000000011110111000000000000000000000000000000000000
00000000000000000000000000000001111110000000000000000000000000111111000000000000011111111000000000000000001111111110011111111111100000010000111100000000000111110111000000000000000000000000000000000000
00000000000000000000000000000001111110000000000000000000000000111111001110000000111111110000000000000000001111111100000111111111110000000000111111000000001111111110000000000000000000000000000000000000
00000000000000000000000000000011111100000000000000000000000000111111101110000001111111100011100000000000011111111100000111111111110000000000111111111000111111111100000000000000000000000000000000000000
00000000000000000000000000000011111100000000000000000000000000011110011100000011111111000011100000000000011111000000000001111111110011100000011111111111111111111000000000000000000000000000000000000000
00000000000000000000000000000011111000000000000000000111000000001110111100011111111110000000000000000000011100000000000000111111100011100000011111111111111111100000000000000000000000000000000000000000
00000000000000000000000000000000000000000000000000000111000000001111111111111111111110000000000000000000000000000000000000111111000000000000000111111111111111000000000000000000000000000000000000000000
00000000000000000000000000000000000000000000000000000000000000000111111111111111110000000000000000000000000000000000000000100000000000000000000111111111111111000000000000000000000000000000000000000000
00000000000000000000000000000000100000001110000000000000000000000011111111111111100000000000000000000000000000000000000000000000000000000000111111111111111111000000000000000000000000000000000000000000
00000000000000000000000000001100100000001110000000000000000000000000111111111111100000000000000000000000001110000000000000000000000000000001111111111111111111110000000000000000000000000000000000000000
00000000000000000000000000011111000000000000000000000000000000000000111111111100000000000000000000000000001110111000000000000000000000000001111110001110000111111100000000000000000000000000000000000000
00000000000000000000000000001100000000000000000000000000000000000000111000000000000000000000000000000000000000110000000000000000000000000001111100000000000001000000000000000000000000000000000000000000
00000000000000000000000000000000000000000000000000000000000000000000000000000000000000000000000000000000000000000000000000000000000000000011111000000000000000000001100000000000000000000000000000000000
00000000000000000000000000000000000000000000000000000000000000000000000000000000000000000000000000000000000000000000000000000000000000000011111100000000000000011111110000000000000000000000000000000000
00000000000000000000000000000000000000000000000000000000000000000000000000000000000000000000000000000000000000000000000000000000000000000001110000000000000000000111111100000000000000000000000000000000
00000000000000000000000000000000000000000000000000000000000000000000000000000000000000000000000000000000000000000000000000000000000000000000000000000000000000000011111000000000000000000000000000000000
00000000000000000000000000000000000000000000000000000000000000000000000000000000000000000000000000000000000000000000000000000000000000000000000000000000000000000000111000000000000000000000000000000000
00000000000000000000000000000000000000000000000000000000000000000000000000000000000000000000000000000000000000000000000000000000000000000000000000000000000000000000010000000000000000000000000000000000
00000000000000000000000000000000000000000000000000000000000000000000000000000000000000000000000000000000000000000000000000000000000000000000000000000000000000000000000000000000000000000000000000000000
