P1
200 70
00000000000000000000000000000000000000000000000000000000000000000000000000000000000000000000000000000000000000000000000000000000000000000000000000000000000000000000000000000000000000000000000000000000
00000000000000000000000000000000000000000000000000000000000000000000000000000000000000000000000000000000000000000000000000000000000000000000000000000000000000000000000000000000000000000000000000000000
00000000000000000000000000000000000000000000000000000000000000000000000000000000000000000000000000000000000000000000000000000000000000000000000000000000000000000000000000000000000000000000000000000000
00000000000000000000000000000000000000000000000000000000000000000000000000000000000000000000000000000000000000000000000000000000000000000000000000000000000000000000000000000000000000000000000000000000
00000000000000000000000000000000000000000000000000000000000000000000000000000000000000000000000000000000000000000000000000000000000000000000000000000000000000000000000000000000000000000000000000000000
00000000000000000000000000000000000000000000000000000000000000000000000000000000000000000000000000000000000000000000000000000000000000000000000000000000000000000000000000000000000000000000000000000000
00000000000000000000000000000000000000000000000000000000000000000000000000000000000000000000000000000000000000000000000000000000000000000000000000000000000000000000000000000000000000000000000000000000
00000000000000000000000000000000000000000000000000000000000000000000000000000000000000000000000000000000000000000000000000000000000000000000000000000000000000000000000000000000000000000000000000000000
00000000000000000000000000000000000000000000000000000000000000000000000000000000000000000000000000000000000000000000000000000000000000000000000000000000000000000001110000000000000000000000000000000000
00000000000000000000000000000000000000000000000000000000000000011000000000000000111000000000000000000000000000000000000000000000000000000000000000000000000000000001110000000000000000000000000000000000
00000000000000000000000000000000000000000000000000000000000000011000000000000000111000000000000000000000000000000000000000000000000000000000000000000000000000000000000000000000000000000000000000000000
00000000000000000000000000000000000000000000000000000000000000000000000000000000000000000000000000000000001110000000000000000000000000000000000000000000000000000000000000000000000000000000000000000000
00000000000000000000000000000000000000000000000000000000000000000000000000000000000000000000000000000000001110000000000000000000000000000000000000000000000000000000000000000000000000000000000000000000
00000000000000000000000000000000000000000000000000000000000000000000000000000000000000000000000000000000000000000000000000000000000000000000000000000000100000000000000000000000000000000000000000000000
00000000000000000000000000000000000000000000000000000001100000000000000000000000000000000000000000000000000000000000000000000000000000000000000111111111111100000000000000000000000000000000000000000000
00000000000000000000000000000000000000000000000000000011110000000000000000000000000000000000000000000000000000000000000000000000000000000000011111111111111111000000000000000000000000000000000000000000
00000000000000000000000000000000000000000000000000000111111110000000000000000000000000000000000000000000000000000000000110000000000000000000011111110111111111100000000000000000000000000000000000000000
00000000000000000000000000000000000000000000000000001111111111000000000000000000000000000000000000000000000000001110001111000000000000000100111111110111111111110000000000000000000000000000000000000000
00000000000000000000000000000000000000000000000000001111111111111000000000000000000000000000000000000000000001111110011111110000000000011111111111111110011111110000000000000000000000000000000000000000
00000000000000000000000000000000000000000000000000000011111111111111000000000000000000000000100000000000000011111001111111111000000000011111111011111000011111111000000000000000000000000000000000000000
00000000000000000000000000000000000000000000000000000001111111111111100000000000000000000111111111110000000111111011111111111100000000100111111000000001111111000000000000000000000000000000000000000000
00000000000000000000000000000000000000000000000000000000000111111111111110000000000001111111111111110000000111111111111111111100000001100011111000000001111111000000000000000000000000000000000000000000
00000000000000000000000000000000000000000000000000000000000011111111111110000000000111111111111111110000000011111111111111111100000001110011111000000001111111110000000000000000000000000000000000000000
00000000000000000000000000000000000000000000000000000000000000011111011110000000001111111000000000000000000011111100001111111100000001111001110000000011111111111000000000000000000000000000000000000000
00000000000000000000000000000000000000000000000000000000000000000111011100000000011111110000000000000000001111111000000111111100000011111100100000000011111111110000000000000000000000000000000000000000
00000000000000000000000000000000000000000000000000000000000000000011111100000001111111111000000000000000011111111000000111111100000011111111000000000011111111100000000000000000000000000000000000000000
00000000000000000000000000000000000000000000000000000000000000000111111000000011110000111000000000000000011111110000000111111100000011111111000000000011110111100000000000000000000000000000000000000000
00000000000000000000000000000000000000000000000000000000000000001111111000000111100000000000000000000000001111110000001111111100000011111111100000000011110111100000000000000000000000000000000000000000
00000000000000000000000000000000000000000000000000000000000000011111110000000111100000000000000000000000000111110000001111111100000001111111110000000111111111100000000000111000000000000000000000000000
00000000000000000000000000000000000000000000000000000000000000011111100000001111000000000000000000000000000000000000011111110000000001111111110000000111111111000000000000111000000000000000000000000000
00000000000000000000000001111110000000000000000000000000111000111111000000011111000000000000000000000000000000000000011111100000000000111111110000001110111111000000000000000000000000000000000000000000
00000000000000000000000001111110000000000000000000000000111001111100000000011110000000000000000000000000000000000000011111110000000000111111111111111110111110000000000000000000000000000000000000000000
00000000000000000000000000000000000000000000000000000000000011111000000000011110000000000000000000000000000000001110111111110000000000000111111111111111111100111000000000000000000000000000000000000000
00000000000000000000000000000000001000000000000000000000000111111100001000011100000000000000000000000000000000001111111111100000000000000111111101111111111000111000000000000000000000000000000000000000
00000000000000000000000000000000001111000000000000000000001111111000001000011000000111111000000001110000000000000000011111000000000000111111111101111111110000000000000000000000000000000000000000000000
00000000000000000000000000000000011111111000000000000000000111110000000000000000011111111111000001110000000000000000011110000000000001111101111111111001000000000000000000000000000000000000000000000000
00000000000000000000000000000000011111111111000000000000000111111000000000100000111111111111000000000000000000000000111100000000000011111101111111111000000000000000000000000000000000000000000000000000
00000000000000000000000000000000000011111111111100000000011001110000000000010011111000111111100000000000000000001111111100000000000111111111111111111111000001110000000000000000000000000000000000000000
00000000000000000000000000111000000000011111111111111111111100100000000000111111110000001111000000000000000000001111111000000000000111111111100011111111100001110000010000000000000000000000000000000000
00000000000000000000000000111000000000000001111111111111111111000000000001111111100000000111100000000000000000011111110000000000000011111111000001111111100000000000111000000000000000000000000000000000
00000000000000000000000000000000000000000000001111111111110111100000000001111111000000000011110000000000000000111111110000000000000011111110000000111111110000000001111000000000000000000000000000000000
00000000000000000000000000000000000000000000000000001111110111111110000000111110000000000011110000000000000001111111100000000000000111111100000000011111110000000111111100000000000000000000000000000000
00000000000000000000000000000001110000000000000000001111111111111111111001111100000000000000000000000000000011111111000000000000001111111100000000011111111000001111111000000000000000000000000000000000
00000000000000000000000000000001110000000000000000011111111111111111111111111110000000000000000000000000000011111110000000000000011111111000000000011111111000011111110000000001100000000000000000000000
00000000000000000000000000000000000000000000000000111111110000000011111111111111110000000001100000000000000111111100000000000000011111100000000000111111111100011111000000000011100000000000000000000000
00000000000000000000000000000000000000000000000001111111110000000000000011111111111111100001100000000000000111111100000000011000011111100000000000111111111110111111000000000000000000000000000000000000
00000000000000000000000000000000000000000000000000111111100000000000000011111111111111100011110000000000001110000000000000011000001111111100000000111111111111111111000000000000000000000000000000000000
00000000000000000000000000000000000000000000000001111110000000000000000011110000111111110111100001111100001110000000001100111000001111111100000000111111111111100111000000000000000000000000000000000000
00000000000000000000000000000000000000000000001111111100000000000000001111110000000000111111000111111111111111110000111111111000001111111100000000001111111100000000000000111000000000000000000000000000
00000000000000000000000000000000000001110000011111111100000000000000001111100000000000011110011111111111111111110001111111111000001111111100000011101111110000000000000111111000000000000000000000000000
00000000000000000000000000000000000111110000111111111001110000000000000011100000000000011110000000001111111111111111111111110000001111111000111111111111100000000000000111000000000000000000000000000000
00000000000000000000000000000000000111000001111111110001110000000000000001111000000000111000000000000001111111111111111111110011111111111101111111111111000001110000000000000000000000000000000000000000
00000000000000000000000000000000000000000011111100100000000000000000000001111000000001111000000000000000111111111111111111111111111111111111111111111111000000000111000000000000000000000000000000000000
00000000000000000000000000000000000000000111111100000000000000000000000000111100000111110000000000000000111111111111111111111111111111111101111101111110000000000111000000000000000000000000000000000000
00000000000000000000000000000000000000000011111110000000000000000000000000111111111111100000000000000001111011111111111000000011111111111101111101111000000000000000000000000000000000000000000000000000
00000000000000000000000000000000000000000011111100000000000000000000000000011111111111000000000000000001111011111111000000000000000000011111111111111000000000000000000000000000000000000000000000000000
00000000000000000000000000000000000000000000111000000000000000000000000000001111111110000000000000000011111111111110000000000000000000001111101111111111000000000000000000000000000000000000000000000000
00000000000000000000000000000000000000000000000000000000000000000000000000000111111000000000000000000011111111110000000000000000000000000000000111111111000000000000000000000000000000000000000000000000
00000000000000000000000000000000000011100000000000000000000000000000000000000000000000000000000000000011111111100001000000000000000000000000000011100000000000000000000000000000000000000000000000000000
00000000000000000000000000000000000010000000000000000000000000001110000000000000000000000000000000001111111111000111000000000000000000000000000000000000000000000000000000001000000000000000000000000000
00000000000000000000000000000000000000000000000000000000000000001110000000000000000000000000000000001100111110000000000000000000000000000000000000000000000000000000000000001000000000000000000000000000
00000000000000000000000000000000000000000000000000000000000000000000000000000000000000000000000000000000111000000000000000000000000000000000000000000000000000000000000000000000000000000000000000000000
00000000000000000000000000000000000000000000000000000000000000000000000000000000000000000000000000000001110000000000000000000000000000000000000000000001110000000000000000000000000000000000000000000000
00000000000000000000000000000000000000000000000000000000000000000000000000000000000000000000000000000001000000000000000000000000000000000000000000000001110000000000000000000000000000000000000000000000
00000000000000000000000000000000000000000000000000000000000000000000000000000000000000000000000000000000000000000000000000000000000000000000000000000000000000000000000000000000000000000000000000000000
00000000000000000000000000000000000000000000000000000000000000000000000000000000000000000000000000000000000000000000000000000000000000000000000000000000000000000000000000000000000000000000000000000000
00000000000000000000000000000000000000000000000000000000000000000000000000000000000000000000000000000000000000000000000000000000000000000000000000000000000000000000000000000000000000000000000000000000
00000000000000000000000000000000000000000000000000000000000000000000000000000000000000000000000000000000000000000000000000000000000000000000000000000000000000000000000000000000000000000000000000000000
00000000000000000000000000000000000000000000000000000000000000000000000000000000000000000000000000000000000000000000000000000000000000000000000000000000000000000000000000000000000000000000000000000000
00000000000000000000000000000000000000000000000000000000000000000000000000000000000000000000000000000000000000000000000000000000000000000000000000000000000000000000000000000000000000000000000000000000
