P1
200 70
00000000000000000000000000000000000000000000000000000000000000000000000000000000000000000000000000000000000000000000000000000000000000000000000000000000000000000000000000000000000000000000000000000000
00000000000000000000000000000000000000000000000000000000000000000000000000000000000000000000000000000000000000000000000000000000000000000000000000000000000000000000000000000000000000000000000000000000
00000000000000000000000000000000000000000000000000000000000000000000000000000000000000000000000000000000000000000000000000000000000000000000000000000000000000000000000000000000000000000000000000000000
00000000000000000000000000000000000000000000000000000000000000000000000000000000000000000000000000000000000000000000000000000000000000000000000000000000000000000000000000000000000000000000000000000000
00000000000000000000000000000000000000000000000000000000000000000000000000000000000000000000000000000000000000000000000000000000000000000000000000000000000000000000000000000000000000000000000000000000
00000000000000000000000000000000000000000000000000000000000000000000000000000000000000000000000000000000000000000000000000000000000000000000000000000000000000000000000000000000000000000000000000000000
00000000000000000000000000000000000000000000000000000000000000000000000000000000000000000000000000000000000000000000000000000000000000000000000000000000000000000000000000000000000000000000000000000000
00000000000000000000000111000000000000000000000000000000000000000000000000000000000000000000000000000000000000000000000000000000000000000000000000000000000000000000000000000000000000000000000000000000
00000000000000000000000110000000000000000000000000000000000000000000000000000000000000000000000000000000000000000000000000000000000000000000000000000000000000000000000000000000000000000000000000000000
00000000000000000000111000000000000000000000000000000000000000000000000000000000000000000000000000000000000000000000000000000000000000000000000000000000000000000000000000000000000000000000000000000000
00000000000000000000111000000000000000000000000000000000000000000000000000000000000000000000000001110000000000000000000000000000000000000000000000010000000000000000000000000000000000000000000000000000
00000000000000000000000000000000000000000000000111000000000000000000000000000000000000000000000001110000000001100011000000000000001110000000000000010000000000000000000000000000000000000000000000000000
00000000000000000000000000000000000000000000000111000000000000000000000000000000000000001110000000000000000011111111111110000000001110000000000000000000000000000000000000000000000000000000000000000000
00000000000000000000000000000000000000000000000000000000000000000000000000000000000000001110000000000000000011111111111111111111000000000000000000000000000000000000000000000000000000000000000000000000
00000000000000000000000000000000000000000000000000000000000000100000000000000000000000000000000000000000000011111111111111111111100000000000000000000000000000000000000000000000000000000000000000000000
00000000000000000000000000000000000000000000000000000000000111100000000000000000000000000000000000000000000011111001100111111111110000000000000000000001100000000000000000000000000000000000000000000000
00000000000000000000000000000000000000000000000000000011001111100000000000000000000000000000000000000000000011111000000000001111111100000000000000001111111111111000000000000000000000000000000000000000
00000000000000000000000111000000000000000000000000111111111111100000000000000000000000000000000000000000000111111110000000000111111110011100000001111111111111111100000000000000000000000000000000000000
00000000000000000000000111000000000000000000000001111111111111000000000000000000000000000000000000000000000111111110000000000011111110011100000001111111111111111110000000000000000000000000000000000000
00000000000000000000000000000000000000000000000011111000111111000000000000000000000000011000000000000000000111111000000000000001111111000000000011111111111111111111000000000000000000000000000000000000
00000000000000000000000000000000000000110011100111111000111111000000000000000000011111111110000000000000000111110000000000000001111111000000000111111110000000111111111111000000000000000000000000000000
00000000000000000000000000000000000011111111111111111111111110000000000000000001111111111111100000000000000001000000000000000000111111100000001111111100000000001111111111000000000000000000000000000000
00000000000000000000000000000000001111111111111111111111111100000000000000000001110111111111111000000000000000000000000000000000011111100000011111111000000000000111111000000000000000000000000000000000
00000000000000000000001100000000011111111111111110000111111000000000000000000011110111111111111100000000000000000000000000000000111111100000011111110000000000001110111000000000000000000000000000000000
00000000000000000000001110000000011111111111110000000111110000000000000000000111111111001111111110000000000000000000000000000001111100000000001111110000000000001110111000000000000000000000000000000000
00000000000000000000000000000000001111111000000000001111100000000000000000000111111000000011111110000000000000000000000000000011111100000000001111100000000000011111111100000000000000000000000000000000
00000000000000000000000000000000000000000000000000011111000000000000000000001111110000000001111111000000000000000000000000000011111111000001111111100000000000111111111000000000000000000000000000000000
00000000000000000000000000000000000000000001110000111110000000000000000000011111110000000000111111000000000000000000000000000011101110000001111111100000000011111111111000000000000000000000000000000000
00000000000000000000000000000000000000000001110001110000000000000000000000011111100000000000011111100000000000000000000000001111100100000001111111000000000111111111111000000000000000000000000000000000
00000000000000000000000000000000000000000000000001100000000000000000000000111111000000000000011111100000000000000000000000111111111000000011111111000000011111111111111100000000000000000000000000000000
00000000000000000000000000000000000000000000000000110000000000000000000001111110000000000000001111100000000000000000000011111111110000000011111111000000111111111111111000000000000000000000000000000000
00000000000000000000000000000000000000000000000001110000000000000000000001111110000000000000000011100000011100000011111111111100100000000011111110000011111100001111111000000000001110000000000000000000
00000000000000000000000000000000000000000000000111110000000000000111000001111100000011100000000000000000001111000011111111111000000000000011111110000111111000001111111100000000001110000000000000000000
00000000000000000000000000000000000000000000001111110000000000000111000011111000111111111100000000000000000111000011111111111100000000000011111110111111111000001111111100000000000000000000000000000000
00000000000000000000000000000000000000000000011111100000000000000000000111111001111111111111000000000000000000000001111111111111100000000111111111111111000000001111011100000000000000000000000000000000
00000000000000000000000000000000000000000000011111000000000000000001000111111111111111111111100000000000000000000000000111111111110000000111111111111100000000011110001000000011100000000000000000000000
00000000000000000000000000000000000000000000111111000000000000111111101111111111111111111111110000000000000000000000000000011111111000000011111101111000000000001111000000000011100000000000000000000000
00000000000000000000000000000000000000000000111110000000000111111111111111111111111111110111111000000000000000000000000000001111111000000111111100100000000000001110000000000000000000000000000000000000
00000000000000000000000000000000000000000001111100000000011110111110011111111111111111110011111111111000000000000000000000001111111100111111111100000000000000011110011000000000000000000000000000000000
00000000000000000000000000000000000000000001111100000011111100010000011111110000111000111100111111111111111000000000000000000111111111111111111100000000000000011111110000000000000000000000000000000000
00000000000000000000000000000000000000000011111000001111111110000000011111100000111000000000111111111111111111111111111111110011111111111111111100000000000000011111110000000000000000000000000000000000
00000000000000000000000000000000000000000111111000011111111000000110011111110000111000000001111111001111111111111111111111111011111111111111111100000000000000011111100000000000000000000000000000000000
00000000000000000000000000000000000000000111110000111111000000001110011111110000000000000001111110000000001111111111111111111111111111000111111100000000000000011111100000000000000000000000000000000000
00000000000000000000000000000000000000000111110001111110000000000000111111100000000000000001111110000000000000000111111111111111111110000001111100000000000000111111100000000000000000000000000000000000
00000000000000000000000000000000000000001111100111111100000000000000111111000000000000000001111111000000000000000000000000001110011100000000111100000000000001111011100000000000000000000000000000000000
00000000000000000000000000000000000000001100000011111000000000000001111111000000000000000001111110000000000000000000000000001110000000000110011100000000000001111011000000000000000000000000000000000000
00000000000000000000000000000000000000000000010011100000000000000001111111000000000000000011111110000000100000000000000000001111100000000111011100000000000001111111000000000000000000000000000000000000
00000000000000000000000000000000000000000001111111000000000000000001111111000000000000000001111110000011110000000000000000011111110000000011111100000000000011111111000000000000000000000000000000000000
00000000000000000000000000000000000000011111111110000000000000000001111110000000000000000001111110000011110000000000000000011111110000000011111100000000000011111110000000000000000000000000000000000000
00000000000000000000000000000000000000011111111100000000000000000001111110000000000000000001111100000011000000000000000000111111110000000011111101110000000011111110000000011000000000000000000000000000
00000000000000000000000000000000000000111111110000000000000000000001111111100000000000110011111000000011000000000000000000111110000000000011111101110000000011111110000000011000000000000000000000000000
00000000000000000000000000000000000000111111100000000000000000000001111111111111011111111111110000000111110000000000000011111100000000000011111100000000000111111110000000000000011100000000000000000000
00000000000000000000000000000000000000111111000000000000000000000001111111111111111111111111100000000111111000000000000111111100000000000001111100000000000110111100000000000111011100000000000000000000
00000000000000000000000000000000000001111111000000000000000000000011111111111111111111110011100000000111111100000000011111111000000000000001111100000000001110111100000000000111000000000000000000000000
00000000000000000000000000000000000001111110000000000000000000000111101111111111111111100000000000001111111110000111111111110000000000000001111110000000001111111000000000000000000000000000000000000000
00000000000000000000000000000000000001111100000000000000000000000111000111111111111111100000000000001111111100001111111110000000000000000111111110000000110011110000000000000000000000000000000000000000
00000000000000000000000000011100000001100000000000000000000000000000000011111111111111000000000000001111111110011111111100000000000000000111001111000000111011100000000000000000000000000000000000000000
00000000000000000000000000011100000011100000000000000000000000000000000000000100000111000000000000000111111111111111100000000000000000000000000111100001111111100000000000000000000000000000000000000000
00000000000000000000000000000000000011110000000000000000000000000000000000000000000111000000000000000011111100010000000000000000000000000000001111111111111111100000000000000000001110000000000000000000
00000000000000000000000000000000000111000000000000000000000000000000000000000000000110000000000000000000000000000000001110000000000000000000000111111111111111000000000000000000001110000000000000000000
00000000000000000000000000000000000110000000000000000000000000000000000000000000001110000000000000000000000000000000000000011100000000000000000111111111111110000000000000000000000000000000000000000000
00000000000000000000000000000000001111000000000000000000000000000000000000000000000000000000000000000000000000000000000000011100000000000000001110111111111000000000000000000000000000000000000000000000
00000000000000000000000000000000001110000000000000000000000000000000000000000000000000000000000000000000000000000000000000000000000000000000001110000111100000000000000000000000000000000000000000000000
00000000000000000000000000000000011100000000000000000000000000000000000000000000000000000000000000000000000000000000000000000000000000000000000000000000000000000000000000000000000000000000000000000000
00000000000000000000000000000000011110000000000000000000000000000000000000000000000000000000000000000000000000000000000000000000000000000000000000000000000000000000000000000000000000000000000000000000
00000000000000000000000000000000111100000000000000000000000000000000000000000000000000000000000000000000000000000000000000000000000000000000000000000000000000000000000000000000000000000000000000000000
00000000000000000000000000000000111100000000000000000000000000000000000000000000000000000000000000000000000000000000000000000000000000000000000000000000000000000000000000000000000000000000000000000000
00000000000000000000000000000001111000000000000000000000000000000000000000000000000000000000000000000000000000000000000000000000000000000000000000000000000000000000000000000000000000000000000000000000
00000000000000000000000000000000001000000000000000000000000000000000000000000000000000000000000000000000000000000000000000000000000000000000000000000000000000000000000000000000000000000000000000000000
00000000000000000000000000000000000000000000000000000000000000000000000000000000000000000000000000000000000000000000000000000000000000000000000000000000000000000000000000000000000000000000000000000000
