P1
200 70
00000000000000000000000000000000000000000000000000000000000000000000000000000000000000000000000000000000000000000000000000000000000000000000000000000000000000000000000000000000000000000000000000000000
00000000000000000000000000000000000000000000000000000000000000000000000000000000000000000000000000000000000000000000000000000000000000000000000000000000000000000000000000000000000000000000000000000000
00000000000000000000000000000000000000000000000000000000000000000000000000000000000000000000000000000000000000000000000000000000000000000000000000000000000000000000000000000000000000000000000000000000
00000000000000000000000000000000000000000000000000000000000000000000000000000000000000000000000000000000000000000000000000000000000000000000000000000000000000000000000000000000000000000000000000000000
00000000000000000000000000000000000000000000000000000000000000000000000000000000000000000000000000000000000000000000000000000000000000000000000000000000000000000000000000000000000000000000000000000000
00000000000000000000000000000000000000000000000000000000000000000000000000000000000000000000000000000000000000000000000000000000000000000000000000000000000000000000000000000000000000000000000000000000
00000000000000000000000000000000000000000000000000000000000000000000000000000000000000000000000000000000000000000000000000000000000000000000000000000000000000000000000000000000000000000000000000000000
00000000000000000000000000000000001000000000000000011100000000000000000000000000000000000000000000000000000000000000000000000000000000000000000000000000000000000000000000000000000000000000000000000000
00000000000000000000000000000000001111000000000000011100000000000000000000000000000000000000000000000000000000000000000000000000000000000000000000000000000000000000000000000000000000000000000000000000
00000000000000000000000000000111011111110001000000000001110000000000000000000000000000000000000000000000000000000000000000000000000000000000000000000000000000000000000000000000000000000000000000000000
00000000000000000000000000000111001111111011111110000001110000000000000000000000000000000000000000000000000000000000000000000000000000000000000000000000000000000000000000000000000000000000000000000000
00000000000000000000000000000000000111111111111001100011000000000000000000000000000000000000000000000000000000000000000000000000000000000000000000000000000100000000000000000000000000000000000000000000
00000000000000000000000000000000000111111111111011110111000110000000000000000000000000000000000000000000000000000000000000000000000000000000000000000000000100000000000000000000000000000000000000000000
00000000000000000000000000000000000001111111111111111111101111111110000000000000000000000000000000000000000000000000000000000000000000000000000000000000000000000000000000000000000000000000000000000000
00000000000000000000000000000000000000111111100111111111111111111100011100000000000000000000000000000000000000000000000000000000000000000000000000000000000000000000000000000000000000000000000000000000
00000000000000000000000000000000000000000000000011111111101111110000111100000000000000000000000000000000000000000000000000000000000000000000000000000000000000000000000000000000000000000000000000000000
00000000000000000000000000000001110001000000000000011111101111110011111100000000001111000000000000000000001111000000000000000000000000000000000000000011001111000000000000000000000000000000000000000000
00000000000000000000000000000001110001111000000000000111111111111111111100000000111111111100000000000000001111110010000000000000000000000000000011111111111111100000000000000000000000000000000000000000
00000000000000000000000000000000000001111000000000000001111111111111111100000011111111111000000000000000000001111111111000000000000000000000000111111111100111100000000000000000000000000000000000000000
00000000000000000000000000000000000001110000000000000000001111011111111000000111111111111100100000001110000011111111111111000000000000000000001111111111100001110000000000000000000000000000000000000000
00000000000000000000000000000000000000000000000000000000000010011101111000001111111111111111110000001110000011111111111110001111100000000000111111111111110000000000000000000000000000000000000000000000
00000000000000000000000000000000000000000000000000000000000000111101111000011111111111011111111000000001111111110111111111011111110000000001111111111111111100001000000000000000000000000000000000000000
00000000000000000000000000000000000000000000000000000000000000111111111110011111110000000111111000000001111111100000011111111111110000000001111111111001111110011100000000000000000000000000000000000000
00000000000000000000000000000000000000000000000000000000000001111111111110011111100000000011111000000000001111100000000001111111110000000001111111000001111111111111000000000000000000000000000000000000
00000000000000000000000000000000000000000000000000000000000011111111111111011111000000000111111100000000000000000000000000001111100000000000111100000001111111111111000000000000000000000000000000000000
00000000000000000000000000000000000000000000000000000000000011111111000111111111100000001111111110000000000000000000000000001111100000000000111000000000001111111000000000000000000000000000000000000000
00000000000000000000000000000000000000000000000000000000000111111110000111111111110000001111111110000000000000000000000000011111000000000000000000000000001111110000000000000000000000000000000000000000
00000000000000000000000000000000000000000000000000000000000111111100000111111111111100000000000100000001110000000000000000111110000000000000000000000000011111110000000000000000000000000000000000000000
00000000000000000000000000000000000000000000000000000000001111111100011111111111111111000000000000000001110000000000000000111100000000000000000111000000111111110000000000000000000000000000000000000000
00000000000000000000000000000000000000000000000000000000011111111000011111111001111111110000000000000000000000000000000001111000000000000000000111001111111111100000000000000000000000000000000000000000
00000000000000000000000000000000000000000000000000000000011111111000001111110000011111111100000000000000000000111000000001111000001110000000000011111111111111000000000000000000000000000000000000000000
00000000000000000000000000000000000000000000000000000000111111110000001111110000000111111111100000000000000000111000000011111000001110000000000011111111111110000000000000000000000000000000000000000000
00000000000000000000000000000000000000000000000000000000111111100000001111111111000111111111111000000000000000000000000111110000000000000000000011111111111111000000000000000000000000000000000000000000
00000000000000000000000000000000000000000000000000000001111111000000011111111111111111111111111110000000000000000000001111100000000000000000000011111111111111100000000000000000000000000000000000000000
00000000000000000000000000000000000000000000000000000011111111000000011100111111111111111111111111110000000000000000001111000000000000000000000011111111111111110000000000000000000000000000000000000000
00000000000000000000000000000000000000000000000000000111111110000000011100011111100011111011111111111100000000000000011111000000000000000000000001111111111111111000000000000000000000000000000000000000
00000000000000000000000000000000000000000000000000001111111100000000011110001100000000010011111111111111000000000000111110000000000000000000000000000000111111111000000000000111000000000000000000000000
00000000000000000000000000000000000000000000000000001111111100000000111111110000000000000111111000111111110000000000111100000000000000000000000000000000001111111100000000000111000000000000000000000000
00000000000000000000000000000000000000000000000000011111111000000000111111110000000000000000001000001111111100000001111000000000000000000000000001110000001111111100000000000000000000000000000000000000
00000000000000000000000000000000000000000000000000111111110000000000111111110000000000011000011000000011111111000011111000000000000000000000000001110000001111111000010000000000000000000000000000000000
00000000000000000000000000000000000000000000000001111111100000000000111111111100000000111111111000000000111111111111111000000000000000000000000000000000001111111000111000000000000000000000000000000000
00000000000000000000000011100000000000000000000001111111000000000001111111011100000000001111111000000000001111111111110000000000000000000000000000000000001111111111111000000000000000000000000000000000
00000000000000000000000011100000000000000000000011111111000000000000000000000000000000000111111000000000000011111111111000000000000000000000000000000000011111111111111100000000000000000000000000000000
00000000000000000000000011100000000000000000000011111110000000000000000000000000000000000111111000000000000000111111111100000000000000000001110000000000111111111111110000000000000000000000000000000000
00000000000000000000000011000000000000000000000111111100000000000001111100000000000000000111111000000000000000111100111110011000000000000001110000000001111111111111100000000000000000000000000000000000
00000000000000000000000000000000000000000000001111111000000000000001111100000000000000001111110000000000000000111000011111111111000000000000000000011111111111111111000000000000011100000000000000000000
00000000000000000000000000000000000000000000011111111000000000000001111100000000000000011111110000000000000000011000000011111111111111111100111111111111111111111100000000000000011100000000000000000000
00000000000000000000000000000000000000001110111111110000000000000001111110000000000000011111110000000011100000011100000000011111111111111111111111111111111111000000000000000000000000000000000000000000
00000000000000000000000000000000000000001111111111110000000000000001111110000000000000111111100000000011100000011000000000000011111111111111111111111111111110000000000011100000000000000000000000000000
00000000000000000000000000000000000000000001111111100000000000000011111110000000000001001111000000000000000100000000000000000000111111101111111111111111111000000000000000000000000000000000000000000000
00000000000000000000000000000000000000000011111110000000000000000001111111000000001111101110000000000000000110000000000000000000011111101111111111111001000000000000000000000000000000000000000000000000
00000000000000000000000000000000000000000111111100000000000000000000111111110000011111111100000000000000001110000011100000000000011111111111111111110000000000000000000000000000000000000000000000000000
00000000000000000000000000000000000000000111111100000000000000000001111111110001111111111000000000000000011111000011100000000000001111111111111111000000000000000000000000000000000000000000000000000000
00000000000000000000000000000001110000001111111000000000000000000000111111111011111111100000000000000000111110000000000000000000000001111000000000000000000000000000000000000000000000000000000000000000
00000000000000000000000000000001110000011111111000000000000000000000111111111111111110000000000000000000111110000000000000000000000000000000000000000000000000000000000000000000000000000000000000000000
00000000000000000000000000000000000000001111110000000000000000000000011111111111111100000000000000000001111100000000000000000000000000000000000000000000000000000000000000000000000000000000000000000000
00000000000000000000000000000000000000000011100000000000000000000000001111111111110000000000000000000011111100000000000011100000000000000000000000000000000000000000000000000000000000000000000000000000
00000000000000000000000000000000000000110001000000000000000000000000000001100000111000000001110000000111110000000000000011100000000000000000000000000000000000000000000000000000000000000000000000000000
00000000000000000000000000000000000000111110000000000000000000000000000000000000001000000000000000001111100000000000000011100000000000000000000000000000000000000000000000000000000000000000000000000000
00000000000000000000000000000000000000000000000000000000000000000000000000000000000000000000000000001110000000000000000011100000000000000000000000000000111000000000000000000000000000000000000000000000
00000000000000000000000000000000000000000000000000000000000000000000000000000000000000000001110000000000000000000000000000000000000000000000000000000000000000000000000000000000000000000000000000000000
00000000000000000000000000000000000000000000000000000000000000000000000111000000000000000001110000000000000000000000000000000000000000000000000000000000000000000000000000000000000000000000000000000000
00000000000000000000000000000000000000000000000000000000000000000000000111000000000000000000000000000000000000000000000000000000000000000000000000000000000000000000000000000000000000000000000000000000
00000000000000000000000000000000000000000000000000000000000000000000000000000000000000000000000000000000000000000000000000000000000000000000000000000000000000000000000000000000000000000000000000000000
00000000000000000000000000000000000000000000000000000000000000000000000000000000000000000000000000000000000000000000000000000000000000000000000000000000000000000000000000000000000000000000000000000000
00000000000000000000000000000000000000000000000000000000000000000000000000000000000000000000000000000000000000000000000000000000000000000000000000000000000000000000000000000000000000000000000000000000
00000000000000000000000000000000000000000000000000000000000000000000000000000000000000000000000000000000000000000000000000000000000000000000000000000000000000000000000000000000000000000000000000000000
00000000000000000000000000000000000000000000000000000000000000000000000000000000000000000000000000000000000000000000000000000000000000000000000000000000000000000000000000000000000000000000000000000000
00000000000000000000000000000000000000000000000000000000000000000000000000000000000000000000000000000000000000000000000000000000000000000000000000000000000000000000000000000000000000000000000000000000
00000000000000000000000000000000000000000000000000000000000000000000000000000000000000000000000000000000000000000000000000000000000000000000000000000000000000000000000000000000000000000000000000000000
