P1
200 70
00000000000000000000000000000000000000000000000000000000000000000000000000000000000000000000000000000000000000000000000000000000000000000000000000000000000000000000000000000000000000000000000000000000
00000000000000000000000000000000000000000000000000000000000000000000000000000000000000000000000000000000000000000000000000000000000000000000000000000000000000000000000000000000000000000000000000000000
00000000000000000000000000000000000000000000000000000000000000000000000000000000000000000000000000000000000000000000000000000000000000000000000000000000000000000000000000000000000000000000000000000000
00000000000000000000000000000000000000000000000000000000000000000000000000000000000000000000000000000000000000000000000000000000000000000000000000000000000000000000000000000000000000000000000000000000
00000000000000000000000000000000000000000000000000000000000000000000000000000000000000000000000000000000000000000000000000000000000000000000000000000000000000000000000000000000000000000000000000000000
00000000000000000000000000000000000000000000000000000000000000000000000000000000000000000000000000000000000000000000000000000000000000000000000000000000000000000000000000000000000000000000000000000000
00000000000000000000000000000000000000000000000000000000000000000000000000000000000000000000000000000000000000000000000000000000000000000000000000000000000000000000000000000000000000000000000000000000
00000000000000000000000000000000000000000000000000000000000000000000000000000000000000000000000000000000000000000000000000000000000000000000111000000000000000000000000000000000000000000000000000000000
00000000000000000000000000000000000000000000111000000000000000000000000000000000000000000000000000000000000000000000000000000000000000000000111000000000000000000000000000000000000000000000000000000000
00000000000000000000000000000000000000000000111000000000000000000000000000000000000000000000000000000001110000000000000000000000000000000000000000000000000000000000000000000000000000000000000000000000
00000000000000000000000000000000000000000000000000000000000000110000000000000000000000000000000000000111110000000000000000000000000000000000000000000000000000000000000000000000000000000000000000000000
00000000000000000000000000000000000000000000000000000000000001110000000000011111000000000000000000000111000000000000000000000000000000000000000000000000000000000000000000000000000000000000000000000000
00000000000000000000000000000000000000000000000000000000000011100000000000111111111111000000000000000000000000000000000000000000000000000000000000000000000000000000000000000000000000000000000000000000
00000000000000000000000000000000000000000000000000000000000011100000000000111111111111111111111110000000000000000000000000000000000000000000000000000000000000000000000000000000000000000000000000000000
00000000000000000000000000000000000000000000000000000000000000000000000001111111111111111011111111100000000000000000000000000000000000000000000000000000000000000000000000000000000000000000000000000000
00000000000000000000000000000000000001110111011111100000011000000000000000111111111111111011111111111110000000000000000000000000000000000000001110000011100000000000000000000000000000000000000000000000
00000000000000000000000000000000000001111111111111111111111000000000000000011111111110111111111111111100100001100000000000000000000000000000001111111111100000000000000000000000000000000000000000000000
00000000000000000000000000000000000001111111111111111111111100000000000000001111111110111111111111111100100001111100000000001110000000000000000111111111100000000000000000000000000000000000000000000000
00000000000000000000000000000000000001111111111111111011111100000000000000011111111111111111111111111110000001111111100000001110000000000000001111111111110000000000000000000000000000000000000000000000
00000000000000000000000000000000000001111111111111111011111100000000000011111111111111111111111111111110000001111111110000000000000000000000011111011111111000000000000000000000000000000000000000000000
00000000000000000000000000000000000001111111111111111111111110000000000000011111111111111111111111111100000011111111100001000000110000001110111111011111111100000000000000000000000000000000000000000000
00000000000000000000000000000000000001111111111111111111111111000000000000000000000011111111111111111100000011111111100011100000110000001111111111111111111110000000000000000000000000000000000000000000
00000000000000000000000000000000000001111111111101111111011111000000000000000000000000001111110111111000000011111000111111111000000000000001111111111111111100000000000000000000000000000000000000000000
00000000000000000000001110000000111000011001101000111111011111000000000000000000000000000011110111111000000011111000000111111000000000000000111111100000111100000000000000000000000000000000000000000000
00000000000000000000001110000000111000000000000000000011111111000000000000000000000000000011111111110000000011110000000000111000000000000000111111000000011111000000000000000000000000000000000000000000
00000000000000000000000000000000000000000000000000000011011111000000000000000000000000000110011111100000000111110000000000000000000000000001111110000000001111110000000000000000000000000000000000000000
00000000000000000000000000000011100000000000000000000111011111000000000000000000000000000000011111000000011111110000000000000000000000000111111110000000001111111000000000000000000000000000000000000000
00000000000000000000000000000011100000000000000000000011111111000000000000000000000000010001111110011000000001100000000000000000000000000111111100000000000111111000000000000000000000000000000000000000
00000000000000000000000000000000000000000000000000000011111111000000000000000000000000111111111100011000000001100000000001110000000000000111111100000000000111111000000000000000000000000000000000000000
00000000000000000000000000000000000000000000000000000111111111000000000000000000000000111111110000000000000111110000000001110000000000001111111000000000000111111000000000000000000000000000000000000000
00000000000000000000000000000000000000000000000000001111111111000000000000000000000000011111110000000000000111111111100000000000000000001111111000000000000111111000000000000000000000000000000000000000
00000000000000000000000000000000000000000000000000001111111111000000000000000000000000011111111000000000001111101111110000000000000000001111111000000000000111110000000000000000000000000000000000000000
00000000000000000000000000000000000000000000000000001111111111000000000000000000000001111111110000000000001111101111111110000000000000000011111000000000000111110000000000000000000000000000000000000000
00000000000000000000000000000111000000000000000000000111111111000000000000000000000011111111110000000000001111111111111111000000000000000011110000000000000111111000000000000000000000000000000000000000
00000000000000000000000000000111000000000000000000001111111111000000000000000000000011111111100000000000001111111111111111000000000000001111110000001110000111111000000000000000000000000000000000000000
00000000000000000000000000000000000000000000000000001111111111000000000000000000000001111111000000000000000011100000111110010000000000001111110000001110000111110000000000000000000000000000000000000000
00000000000000000000000000000000000000000000000000001111111111000000000000111000000000111111000000000000000000000001111100011000000000000111110000000000000111111000000000000000000000000000000000000000
00000000000000000000000000000000000000000000000000001111111111000000000000111000001110011111000000000000000000000000000011000100000000000111111000000000000111111000000000001111110000000000000000000000
00000000000000000000000000000000000000000000000000000111111110000000000000000000001111011110000000000000000000000000000001001110000000000111111000000000000111111000000000011110000000000000000000000000
00000000000000000000000000000000000000000000000000000000111111000000000000000000011111111110000000000000000000000000000000111110001110000111111000000000001111111000000000111100000000000000000000000000
00000000000000000000000000000000000000000000000000000000011111000000000000000000011111111111000000000000000000000000000000011111001110000111111100000000000111110000000000111000000000000000000000000000
00000000000000000000000000000000000000000000000000001110011111000000000000000000111111111100000000000000000000000000000000011111000000000011111110000000000111110011100000000000000000000000000000000000
00000000000000000000000000000000000000000000000000001111111110000000000000000000111111111000000000000000011110000000000000011111100000000011111111000000111111110011100000000000000000000000000000000000
00000000000000000000000000000000000000000000000100011111111110000000000000000001111111110000000000000000000111000000000000011111110001000011111111100011111111110000000000000000000000000000000000000000
00000000000000000000000000000000000000000000000111011111111110000000000000000001111111110000000000000000000011000000000000111111111111111111111110011111111111111000000000000000000000000000000000000000
00000000000000000000000000000000000000000000000000011111111000000000000000000011111111100000000000000000000111000000000111111111111111111111111110111111111111111000000000000000000000000000000000000000
00000000000000000000000000000000000000000000000000011111110000000000000000000001111111000000000000000000011111100000111111111111110011111111111111111111111111110000000000000000000000000000000000000000
00000000000000000000000000000000000000000000000000111100001110000000000000000001111110000000000000000000011111111111111111111111100000000000111111111111111111100000000000000000000000000000000000000000
00000000000000000000000000000000000000000000000000111100011110000000000000000111111110000000000000000000011111011111111110011111110000000000001111111111111111100000000000000000000000000000000000000000
00000000000000000000000000000000000000000000000000111111111110000000000000001111111110000000000000000000011111011111100000001110111001100000000000001111111111000000000000000000000000000000000000000000
00000000000000000000000000000000000000000000000000111111111110000000000000001111111100000000000000000001111111111111000000011110111011111100000000000111111111000000000000000000000000000000000000000000
00000000000000000000000000000000000000000000000000111111111100000000000000011111111100000000000000000111111111111111100000111111111011111100000000001111111111000000000000000000000000000000000000000000
00000000000000000000000000000000000000000000000000111011111100000000000000011111111000000000000000000011100001111111111111111111111011111100000000000111111111000000000000000000000000000000000000000000
00000000000000000000000000000000000000000000000001111011111110000000000000111111111000000000000001100111000000011111111111111111111011111100000000000011111111000000000000000111000000000000000000000000
00000000000000000000000000000000000000000000000001111111111110000000000000111111110000000000001111111110000000001111111111111111110011111110000000000111011110000000000000000111000000000000000000000000
00000000000000000000000000000000000000000000000001111111111100000000000001111111110000000000011111111000000000000011111111111011110011111110000000001111011100000000000000000000000000000000000000000000
00000000000000000000000000000000000000000000000001100011111100000000000011111111100000000111111110000000000000000000111111111011100001111111000000011111111000110000000000000000000000000000000000000000
00000000000000000000000000000000000000000000000000000001100000000000000011111111100001111111111100000000000000000000000111111111110000111111000000111111111001111000000000000000000000000000000000000000
00000000000000000000000000000000000000000000000000000000000000000000000011111111111111111111110000000000000000000000000000000001110000111111100001111111000011111100000000000000000000000000000000000000
00000000000000000000000000000000000000000000000000000000000000111000000011111111111111111100000000000000000000000000000000000000000000011111110011111111000001111110000000000000000000000000000000000000
00000000000000000000000000000000000000000000000000000000000000111000000011111111111111100000000000000000000000000000000000000000000000001111111111111111000000111111000000000000000000000000000000000000
00000000000000000000000000000000010000000000000000000000000000000000000111111111111100000000000000000000000000000000000000000000000000001111111111111110000000011111000000000001110000000000000000000000
00000000000000000000000000000000011111110000000000000000000000000011111111111111100000000000000000000000000000000000000000000000000000000111110011111100000111001111100000000001110000000000000000000000
00000000000000000000000000000000011111111111111111111111111111111111111111111000000000000000000000000000000000000000000000000000000000000000000001100000000111001111100000000000000000000000000000000000
00000000000000000000000000000000011111111111111111111111111111111111111111000000000000000000000000000000000000000000000000000000000000000000000000000000000000000111110000000000000000000000000000000000
00000000000000000000000000000000000000011111111111111111111111111110000000000000000000000000000000000000000000000000000000000000000000000000000000000000000000000111111000000000000000000000000000000000
00000000000000000000000000000000000000000000001111111111111110000000000000000000000000000000000000000000000000000000000000000000000000000000000000000000000000000011111000000000000000000000000000000000
00000000000000000000000000000000000000000000000000000000000000000000000000000000000000000000000000000000000000000000000000000000000000000000000000000000000000000001111100000000000000000000000000000000
00000000000000000000000000000000000000000000000000000000000000000000000000000000000000000000000000000000000000000000000000000000000000000000000000000000000000000001111100000000000000000000000000000000
00000000000000000000000000000000000000000000000000000000000000000000000000000000000000000000000000000000000000000000000000000000000000000000000000000000000000000000111110000000000000000000000000000000
