P1
200 70
00000000000000000000000000000000000000000000000000000000000000000000000000000000000000000000000000000000000000000000000000000000000000000000000000000000000000000000000000000000000000000000000000000000
00000000000000000000000000000000000000000000000000000000000000000000000000000000000000000000000000000000000000000000000000000000000000000000000000000000000000000000000000000000000000000000000000000000
00000000000000000000000000000000000000000000000000000000000000000000000000000000000000000000000000000000000000000000000000000000000000000000000000000000000000000000000000000000000000000000000000000000
00000000000000000000000000000000000000000000000000000000000000000000000000000000000000000000000000000000000000000000000000000000000000000000000000000000000000000000000000000000000000000000000000000000
00000000000000000000000000000000000000000000000000000000000000000000000000000000000000000000000000000000000000000000000000000000000000000000000000000000000000000000000000000000000000000000000000000000
00000000000000000000000000000000000000000000000000000000000000000000000000000000000000000000000000000000000000000000000000000000000000000000000000000000000000000000000000000000000000000000000000000000
00000000000000000000000000000000000000000000000000000000000000000000000000000000000000000000000000000000000000000000000000000000000000000000000000000000000000000000000000000000000000000000000000000000
00000000000000000000000000000000000000000000000000000000000000000000000000000000000000000000000000000000000000000000000000000000000000000000000000000000000000000000000000000000000000000000000000000000
00000000000000000000000000001100000000000000000000000000000000000000000000000000011100000111000000000000000000000000000000000000000000000000000000000000000000000000000000000000000000000000000000000000
00000000000000000000001110001100000000000000000000000000000000000000000000000000011100000111000000000000000000000000000000000000000000000000000000000000000000000000000000000000000000000000000000000000
00000000000000000000001110000000000000000000000000000000000000000000000000000000000000000110000000000000000000000000000000000000000000000000000000000000000000000000000000000000000000000000000000000000
00000000000000000000000000000000000001110000000000000000000000000000000000000000000000111110000000000000000000000000000000000000000000000000000000000000000000000011111000000000000000000000000000000000
00000000000000000000000000000000000001110000000000000000000000000000000000000000000001111111000000000000000000000000000000011111111000000000001110000000111111111111111000000000000000000000000000000000
00000000000000000000000000000000011100000000000000110000000000000000000000000000000001111111111110000000000000000000000000001111111100000000001110000011111111111111111000000000000000000000000000000000
00000000000000000000000000000000011100000000000011110000000000000000000000000000000011111111111111100000000000000000000110011111111110000001000111111111111100011111100000000000000000000000000000000000
00000000000000000000000000000000000000000000001111110000000000000000000000000000000111101111111111111100000000000000001111111111111111000001000011111111111000000000000000000000000000000000000000000000
00000000000000000000000000000000000000000000011111000000000000000000000000000000001111101111111111111111111000000000000011111111111110000000000111111111111000000000000000000000000000000000000000000000
00000000000000000000000000000000000000000011111110000000000000000000000000000000000111111111111111111111111100000000100000011101111111000000011111111111111111100000000000000000000000000000000000000000
00000000000000000000000000000011100000001111111110000000000000000000000000000000000111111111111111111111111110000000111100000000011111110000111111111111111111100011110000000000000000000000000000000000
00000000000000000000000000000011000000111111111111001000000000000000000000000000000000011111111111111111111110000001111110000000001111111111111111111111111111110111110000000000000000000000000000000000
00000000000000000000000000000000000111111111111111111000000000000000000000000000000000000000110011111100111110001111111110000000000001111111001111111111111111111111111000000000011100000000000000000000
00000000000000000000000000000000011111111111111111111000000000000000000000000011100000000000000001111100011100001111111100000000000000111110000111111111111111111111111000000000011100000000000000000000
00000000000000000000000000000000111111111111111111111000000000000000000000000011100000000000000011111110011000000111111100000000000110011110000011110001111111111111111000000000000000000000000000000000
00000000000000000000000000000000111111111111111111111000000000000000000011100000000000000000000111111111111000000111111000000000001111011100000011100000001111111111111000000000000000000000000000000000
00000000000000000000000000000000111111111111111111111000000000000000000011100000000000000000000111111111110000000111111000000000011111111000000111000000000000001111110000000000000000000000000000000000
00000000000000000000000000000001111111110001111111111000000000000000000000000000000000000000001111111111100000000111111000000001111111001000000000000000000000000111110000000000000000000000000000000000
00000000000000000000000000000001111111100001111111110000000000000000000010000000000000000000111111111110000000000111110000000111111111001000000000000000000000001111110000000000000000000000000000000000
00000000000000000000000000000001111110000000111111100000000000000000000010000000000001000001111111111100000000000111110000000011111111111000000110000000000000001111100000000000000000000000000000000000
00000000000000000000000000000000111100000000011111100000000000000000000000000000000111000011111111111000000011100111110000100111100111111000000000000000000000011111100000000000000000000000000000000000
00000000000000000000000000000000000000000000011111100000000000000000000000000000000000000111111111111000000011101111111001111110000111111000000000000000000000011111100000000000000000000000000000000000
00000000000000000000000000000000000000000000111111100000000000000000000000000000000000001111111110000000000000001111111111111100001111110000000000000000000000001111000000000000000000000000000000000000
00000000000000000000000000000000000000000000001111000000000000000000000000000000000000011111111100000000000000001111111111111000011111110000000000000000000000011110000000000000000000000000000000000000
00000000000000000000000000000000000000000001001111000000000001110000000000000000000000111111111110000000000000001111111111100000111111111000000000000000000000111110000000000000000000000000000000000000
00000000000000000000000000000000000000000001111110000000000001110000000000000000000011111111111110000000000000000111111111100011111111111000000000000000000001111100000000000000000000000000000000000000
00000000000000000000000000000000000000000011111100000000000000000000000000000000000111111111111000000000000000001111111111111111111111111000000000000111000011111100000000000000000000000000000000000000
00000000000000000000000000000000000000000011111110000000000000000000000000000000000111111111110000000000000001111111111111111111111111111000000000000111000011011100000000000000000000000000000000000000
00000000000000000000000000000000000000000011111100000000000000001000000000000000001111111111100000000000010011111111111111111111111111111000000000000000000011001111000000000000000000000000000000000000
00000000000000000000000000000000000000000011111100000000000000111000000000000000011111111111000000000011111111111011111110111100101111111000000000000000000111111111000000000000000000000000000000000000
00000000000000000000000000001110000000000111111100000000000000000000000000000000111111111110000000011111111110000000111100011000001111100000000000000000000011110000000000000000000000000000000000000000
00000000000000000000000000001110000000000111111100000000000000000000000000001111111111111100000000111111110000000000011000111100001111000000000000000000000011110000000000000000000000000000000000000000
00000000000000000000000000000000000000000111111000000000000000000000000000000111110111111000111111111100000000000000000000000000000000000000000000000000011111100000000000000000000000000000000000000000
00000000000000000000000000000000000000000011111000000000000000000000000000000111110111111000111111111000000000000000000000000000010000000000000000000000011111100000000000000000000000000000000000000000
00000000000000000000000000000000000000000011111100000111111111110001111111111111111111111101111000000000000000000000000000000001111111100000000000000001111111000000000000000000000000000000000000000000
00000000000000000000000000000000000000011111111111111111111111111111111111111111111111111111110000000000000000000000000000000001111111100000000000000111111110000000000000000000000000000000000000000000
00000000000000000000000000000000000000011011111111111111111111111111111111111111111111100000111000000000000000000000000000000000011111100000000000000111111110000000000000000000000000000000000000000000
00000000000000000000000000000000000001111011111100011111111111111111111111011111111100000000000000000000000001111100000000000000001111100011100000000011111110000000000000000000000000000000000000000000
00000000000000000000000000000000000011111111111000000000000000000000001111011111111000000000000000000000000001111110000000000000001111000011100000000011111100000000000000000000000000000000000000000000
00000000000000000000000000000000001111111111110000000000000000000000001111111111110000000000000000000000000001111111000000000001000111000000000000000011111100000000000000000000000000000000000000000000
00000000000000000000000000000000111111111111110000000000000000000000001111111111100011100000000000000000000000111111000000000111101110000000000000000011111000000000000000000000000000000000000000000000
00000000000000000000000000000000111111111111100000000000000000000000011111111111000011100000000000000000000000011111000000001111111100000000000110000111111000000000000000000000000000000000000000000000
00000000000000000000000000000000011111111111100000000000000000000000111111111100000000000000000000000000000000011111111111111111111000000000000111101111110000000000000000000000000000000000000000000000
00000000000000000000000000000000010001111111100000000000000000000011111111111000000000000000000000000000000011100111111111111111110000000001110000001111110000000000000000000000000000000000000000000000
00000000000000000000000000000000000001111111100000000000000000000011111111111000000000000000000000000000000011110111111111111111100000001111110000001111100000000000000000000000000000000000000000000000
00000000000000000000000000000000000001111111100000000000000000000011111111110000000000000000000000000000000011111111111111111111000000001110000000000111000000000000000000000000000000000000000000000000
00000000000000000000000000000000000011111111100000000000000000000001111111100000000000000000000000000000000001111111111111111100000000000000000000111000000000000000000000000000000000000000000000000000
00000000000000000000000000000000000011111111100000000000000000010011111111000000000000000000000000000000000000111111111111111100000000000000000000000000000000000000000000000000000000000000000000000000
00000000000000000000000000000000000011111111100000000000000001111111111110000000000000000000000000000000000000000111111110001110000000000000000000000000000000000000000000000000000000000000000000000000
00000000000000000000000000000000000111111111000000000000000011111111111100000000000000000000000000000000000000000000000000001110000000000000000000000000000000000000000000000000000000000000000000000000
00000000000000000000000000000000000111111110000000000000000011111000000000000000000000000000000000000000000000000000000000000000000000000000000000000000000000000000000000000000000000000000000000000000
00000000000000000000000000000000001111111110000000000000000000000000000000000000000000000000000000000000000000000000000000000000000000000000000000000000000000000000000000000111000000000000000000000000
00000000000000000000000000000000001111111111000000000000001000000000000000000000000000000000000000000000000000000000000001100000000000000000000000000000000000000000000000000111000000000000000000000000
00000000000000000000000000000000001111111111000000000000001011100000000000000000000000000000000000000000000000000000000001100000000000000000000000000000000000000000000000000100000000000000000000000000
00000000000000000000000000000000001111111110000000000000000011100000000000000000000000000000000000000000000111000000000000000000000000000000000000000000000000000000000000000000000000000000000000000000
00000000000000000000000000000000001111110000000000000000000011100000000000000000000000000000000000000000000111000000000000000000000000000000000000000000000000000000000000000000000000000000000000000000
00000000000000000000000000000000001100000000000000000000000000000000000000000000000000000000000000000000000000000000000000000000000000000000000000000000000000000000000000000000000000000000000000000000
00000000000000000000000000000000000000000000000000000000000000000000000000000000000000000000000000000000000000000000000000000000000000000000000000000000000000000000000000000000000000000000000000000000
00000000000000000000000000000000000000000000000000000000000000000000000000000000000000000000000000000000000000000000000000000000000000000000000000000000000000000000000000000000000000000000000000000000
00000000000000000000000000000000000000000000000000000000000000000000000000000000000000000000000000000000000000000000000000000000000000000000000000000000000000000000000000000000000000000000000000000000
00000000000000000000000000000000000000000000000000000000000000000000000000000000000000000000000000000000000000000000000000000000000000000000000000000000000000000000000000000000000000000000000000000000
00000000000000000000000000000000000000000000000000000000000000000000000000000000000000000000000000000000000000000000000000000000000000000000000000000000000000000000000000000000000000000000000000000000
