P1
200 70
00000000000000000000000000000000000000000000000000000000000000000000000000000000000000000000000000000000000000000000000000000000000000000000000000000000000000000000000000000000000000000000000000000000
00000000000000000000000000000000000000000000000000000000000000000000000000000000000000000000000000000000000000000000000000000000000000000000000000000000000000000000000000000000000000000000000000000000
00000000000000000000000000000000000000000000000000000000000000000000000000000000000000000000000000000000000000000000000000000000000000000000000000000000000000000000000000000000000000000000000000000000
00000000000000000000000000000000000000000000000000000000000000000000000000000000000000000000000000000000000000000000000000000000000000000000000000000000000000000000000000000000000000000000000000000000
00000000000000000000000000000000000000000000000000000000000000000000000000000000000000000000000000000000000000000000000000000000000000000000000000000000000000000000000000000000000000000000000000000000
00000000000000000000000000000000000000000000000000000000000000000000000000000000000000000000000000000000000000000000000000000000000000000000000000000000000000000000000000000000000000000000000000000000
00000000000000000000000000000000000000000000000000000000000000000000000000000000000000000000000000000000000000000000000000000000000000000000000000000000000000000000000000000000000000000000000000000000
00000000000000000000000000000000000000000000000000000111000000000000000000000000000000000000000000000000000000000000000000000000000000000000000000000000000000000000000000000000000000000000000000000000
00000000000000000000000000000000000000000000000001000111000000000000000000000000000000000000000000000000000000000000000000000000000000000000000000000000000000000000000000000000000000000000000000000000
00000000000000000000000000000000000000000000110000000000000000000000000000000000000000000000000000000000000000000000000000000000000000000000000000000000000000000000000000000000000000000000000000000000
00000000000000000000000000000000000000000000110000000000000000000000000000000000000000000000000000000000000000000000000000000000000000000000000000000000000000000000000000000000000000000000000000000000
00000000000000000000000000000000000000000100010000000000000000000000000000000000000000000000000000000000000000000000000000000000000000000000000000000000000011100000000000000000000000000000000000000000
00000000000000000000000000000000000000001110111000001100000000000000000000000000000000000000000000000000000000000000000000000000000000000000000000000000000011100000000000000000000000000000000000000000
00000000000000000000000000000000000000001111111111111110011100000000000000000000000000000000000000000000000000000000000000000110000000000000000000000000000000000000000000000000000000000000000000000000
00000000000000000000000000000000000000000111111110111111111111110000000000000000000000000000000000000000000000000000000000111110000000000000000000000000000000000000000000000000000000000000000000000000
00000000000000000000000000000000000000001111111100111111011111111000110000000000000000000000000000000000000000000000000000000000000000000000000000000000000000000000000000000000000000000000000000000000
00000000000000000000000000000000000000001111000011111111011111111111111111000000000000001111000000000000000000111000000000000111000000000000000000000000000000000000000000000000000000000000000000000000
00000000000000000000000000000000000000001111000111111111111111111111111111111100000001111111110000000000000000111000000001111111110000000111000000000000000000000111000000000000000000000000000000000000
00000000000000000000000000000000000000000111111111111111111111111111111111011000111111111111111100000000000000011100000111111111111000000111000000000000000000001111000000000000000000000000000000000000
00000000000000000000000000000000001000000111111111111111111111111111111111011001111111111111111110000000000000011100001111111111111000000000000000000000000000001111000000000000000000000000000000000000
00000000000000000000000000000000011100000000011111111111111111111111111111111111111111111111111110000000000000001110000111111111111100000000000000000000000000011111000000000000000000000000000000000000
00000000000000000000000000000000011111000000000111111111111111111111111111111111111100111111111111000000000000001111001111111111111100000000000000000000000000011111100000000000000000000000000000000000
00000000000000000000000000000000111111100000000000011111111111111111111111111111111000011111111111000000000000000011111111111111111100000000000000000000000000111111100000000000000000000000000000000000
00000000000000000000000000000000001111111000000000000111111111111111111111111111110000001111111111000000000000000011111111000011111100000000000000000000000000111111100000000111000000000000000000000000
00000000000000000000000000000000000111111100000000000011101111111111111111111111110000001111111111100000000000000111111110000011111100000000000000000000000000111111100000000111000000000000000000000000
00000000000000000000000000000000000011110011000000000000000111111111111111110111100000000111111111100000000000000111111100000011111100000000000000000000000001111111100000000000000000000000000000000000
00000000000000000000111000000000000011110111100111000000000011111111111111110111100000000111111111100001111100001111110000000011111000000000000000000000000001111111100000000000000000000000000000000000
00000000000000000000111000000000000011111111111111000000000001111110111111111111110000000011111101100001111100000111110000000011111000000000000000000000000000011111100000000000000000000000000000000000
00000000000000000000000000000000000000000111111110000000000011111110111111111111110000000011111101100000000000000111100000000111000000000000000000000000000100011111000000000000000000000000000000000000
00000000000000000000000000000000000000000011111110000000000111111111111111111111111000000011111111100000000000000111000000001111000000000000000000000000000011111111000000000000000000000000000000000000
00000000000000000000000000000000000000000000111111100000000111111111111111111111111000000111011111100000011000000000000000011111111110000000000000000000000011011111000000000000000000000000000000000000
00000000000000000000000000000000000000000000011011110000001111111111001001111111111000000111011111000000011100000000000000111111111111000000000000000000000111011110000000000000000000000000000000000000
00000000000000000000000000000000000000000000010001111111000111111111000001111111111100000111111111000000000000000000000001110111111111100000000000000000001111111110000000000000000000000000000000000000
00000000000000000000000000000000000000000000000011111011100111111111110001111111111100001111111110000000000000000000000011110011111111001000000000000001111111111111000000000000000000000000000000000000
00000000000000000000000000000000000000000000000001110001111111111111110000111111111110011111111110000000000000000000000011111100111111000000000000000001111100111111000000000000000000000000000000000000
00000000000000000000000000000000000000000000000000011000111111110111100000011101111111111111111110000000000000000000000001111000011111100000000000000011111000111111000000000000000000000000000000000000
00000000000000000000000000000000000000000000000000001000111111110011000000011001111111111111111110000000000000000000000001100000001111110000000000000011110000111111000000000000000000000000000000000000
00000000000000000000000000000000000000000000000000000001111111111000000000000111111011111111111100000000000000000000000000000000001111110000000000000111100000111111000000000000000000000000000000000000
00000000000000000000000000000000000000000000000000000011111111111000000000000011111011111111111110010000000000000000000000000000000111110000000000000011000000111111000000000001000000000000000000000000
00000000000000000000000000000000000000000000000000000111111111111100000000000001111111101111111111111100000000000000000000000000001111111100000000000010000000111110000000000000000000000000000000000000
00000000000000000000000000000000000000000000000000000111111111111110000000000011111111000011111111111110000000000000000000000000001111111100000000111100000000111110000000000000000000000000000000000000
00000000000000000000000000000000000000000000000000000111111111111111000000001111111110000001111111111110000000000000000000000000011111100000000001111100000000111110000000000000000000000000000000000000
00000000000000000000000000000000000000000000000000001111111111111111110000111111111100000001111111111110000000000000000000000000011011100000000001110000000000111110000000000000000000000000000000000000
00000000000000000000000000000000000000000000000000011111111111111111111111111111111100000000111111111110000000000000000000011100111011000000000110000000000000111110000000000000000000000000000000000000
00000000000000000000001110000000000000000000000000000111111111100111111111111111111110000000011111111110000000000000000000011100011111000000001111000000000011111111000000000000000000000000000000000000
00000000000000000000001110000000000110000000000000000111111111000000111001111111111110000000011111111110000000000000000000001110111110000000001111111111111111111111111111100000000000000000000000000000
00000000000000000000000000000000000011000000000000111111111111000000000000111111111100000000001111111110000000000000000000001111111100000000001111111111111111111111111111100000000000000000000000000000
00000000000000000000000000000000000000000000000000011111111110000000000001111111111100000000001101111111000000000000000000011111111000000000011111000111110011111111111111000000000000000000000000000000
00000000000000000000000000000000000000000000000000111111111110000000000000111111111110000000001101111111000000000000001110111111111000000001110000000000000001111111111111000000000000000000000000000000
00000000000000000000000000000000000000000000000001111111111100000000000000111111111110000000011111111111000000000000001111111111100000000001110000000000000000111110011000000000000000000000000000000000
00000000000000000000000000000000000000000000000011111111111000000000000000111111111111000000011111110111000000000000011111011111000000000000000000000000000001111110000000000000000000000000000000000000
00000000000000000000000000000000000000000000000111111111111000000000000000011011111111110000011111110111000000000000001111001100000000000000000000000000000011111110000000000000000000000000000000000000
00000000000000000000000000000000000000000000000111111111110000000000000000010011111111111110011111111111000000000000000111110000000000000000000000000000000011111110000000000000000000000000000000000000
00000000000000000000000000000000000000000000000111111111110000000000000000001111111111111111100111111111000000000000001111100000000000000000000000000011100111111100000000000000000000000000000000000000
00000000000000000000000000000000000000000000001111111111100000111000000000001111111111111111110111111110000000000000000000000000000000000000000000000111111111111100000000000000000000000000000000000000
00000000000000000000000000000000000000000000000011111111100000111000000000000111111111111111111111111111000000000000000000000000000000000000000001111111111111110011111000000000000000000000000000000000
00000000000000000000000000000000000000000000011011111111000000000000000000000001111111111111111111111111100000000000000000000000000000000000000001110011111111110111111100000000000000000000000000000000
00000000000000000000000000000000000000000000011111111111000000000000000000000000011111111111111111111111000000000000000000000000000000000000000000000000011111111111111100000000000000000000000000000000
00000000000000000000000000000000000000000000111111101110000000000000000000000000011111100011111111001110001111111100000000000000000000000000000000000000111111111111111100000000000000000000000000000000
00000000000000000000000000000000000000000001111111101110000000000000000000000011101110000000000000000001111111111111111111111111000000000000111111111111111111111001111000000000000000000000000000000000
00000000000000000000000000000000000000000001001111111100000000000000000000000011100000000000000000000000001111111111111111111111111000111110011111111111100110000000001100000000000000000000000000000000
00000000000000000000000000000000000000000000000111111100000000000000000000000000000000000000000000000000000000000111111111111111110001111111011111111111000000000000000000000000000000000000000000000000
00000000000000000000000000000000000000000000000011111000000000000000000000000000000000000000000000000000000000000000000011111111100011111111111111100000000000000000000000111000000000000000000000000000
00000000000000000000000000000000000000000000000000001000000000000000000000000000000000000000000000000000000000000000000000000000000001000000000000000000000000000000000000111000000000000000000000000000
00000000000000000000000000000000000000000000000000000000000000000000000000000000000000000000000000000000000000000000000000000000000000000000000000000000000000000000000000000000000000000000000000000000
00000000000000000000000000000000000000000000000000000000000000000000000000000000000000000000000000000000000000000000000000000000000000000000000000000000000000000000000000000000000000000000000000000000
00000000000000000000000000000000000000000000000000000000000000000000000000000000000000000000000000000000000000000000000000000000000000000000000000000000000000000000000000000000000000000000000000000000
00000000000000000000000000000000000000000000000000000000000000000000000000000000000000000000000000000000000000000000000000000000000000000000000000000000000000000000000000000000000000000000000000000000
00000000000000000000000000000000000000000000000000000000000000000000000000000000000000000000000000000000000000000000000000000000000000000000000000000000000000000000000000000000000000000000000000000000
00000000000000000000000000000000000000000000000000000000000000000000000000000000000000000000000000000000000000000000000000000000000000000000000000000000000000000000000000000000000000000000000000000000
