P1
200 70
00000000000000000000000000000000000000000000000000000000000000000000000000000000000000000000000000000000000000000000000000000000000000000000000000000000000000000000000000000000000000000000000000000000
00000000000000000000000000000000000000000000000000000000000000000000000000000000000000000000000000000000000000000000000000000000000000000000000000000000000000000000000000000000000000000000000000000000
00000000000000000000000000000000000000000000000000000000000000000000000000000000000000000000000000000000000000000000000000000000000000000000000000000000000000000000000000000000000000000000000000000000
00000000000000000000000000000000000000000000000000000000000000000000000000000000000000000000000000000000000000000000000000000000000000000000000000000000000000000000000000000000000000000000000000000000
00000000000000000000000000000000000000000000000000000000000000000000000000000000000000000000000000000000000000000000000000000000000000000000000000000000000000000000000000000000000000000000000000000000
00000000000000000000000000000000000000000000000000000000000000000000000000000000000000000000000000000000000000000000000000000000000000000000000000000000000000000000000000000000000000000000000000000000
00000000000000000000000000000000000000000000000000000000000000000000000000000000000000000000000000000000000000000000000000000000000000000000000000000000000000000000000000000000000000000000000000000000
00000000000000000000000000000000000000000000000000000000000000000000000000000000000000000000000000000000000000000000000000000000000000000000000000000000000000000000000000000000000000000000000000000000
00000000000000000000000000000000000000000000000000000000000000000000000000000000000000000000000000000000000000000000000000000000000000000000000000000000000000111000000000000000000000000000000000000000
00000000000000000000000000000111000000000000000000000000000000000000000000000000111000000000000000000000000000000000000000000000000000000000000000000000000000111000000000000000000000000000000000000000
00000000000000000000000000000111000000000000000000000000000000000000000000000000111000000000000000000000000000000000000000000000000000000000000000000000000000000000000000000000000000000000000000000000
00000000000000000000000000000000000000000000000000000000000000000000000000000000000000000000000000000000000000000000000000000000000000000011100000000000000000000000000000000000000000000000000000000000
00000000000000000000000000000000000000000000000000000000011110000000000000000000000000000000000000000000000000000000000000000000000000000011100000000000000000000000000000000000000000000000000000000000
00000000000000000000000000000000000000000000000000000011111110000000011100000000000000000000000000000000000000000000000000000000000000000000000000000000000000000000000000000000000000000000000000000000
00000000000000000000000000000000000000000000111111100111111110000000011100000000000000000000000000001110000000000111000000000000000000000000000000000000000000000000000000000000000000000000000000000000
00000000000000000000000000000000000000000011111111111111111110000000000000000000000000000000000000001110000000000111111111100000000000000000000000000000000000000000000111000000011100000000000000000000
00000000000000000000000000000000000000001111111111111111111100000000000000000000000000000000000000000000000000001111111111110000000000000000000000000000000000000000000111000111000100000000000000000000
00000000000000000000001110000000000000001111111111111111111100000000000000000000000000000000000000000000000000001111111111111111111000000000000000000000000000000000000000000111000000000000000000000000
00000000000000000000001110000000000000000111111111110000111110000000000000000000000000000000000000000000000000001111111111111111111100000000000000000111000000000000000000000000000000000000000000000000
00000000000000000000000000000000000000000100011111100000111110000000000000000000000000111111111000000000000000001110000000000011111100000000000000001111000000110000000000000000000000000000000000000000
00000000000000000000000000000000000000000000000001110000111110000000000000000000000111111111111111000000000000001100000000000000111100000000000000011111000000111000000000000000000000000000000000000000
00000000000000000000000000000000000000000000000001110001111100000000000000000000001111111111110011110000000000000000000000000000111000000000000000011111100001111000000000000000000000000000000000000000
00000000000000000000000000000000000000000000000000000001111100000000000000000000001111111111110001111110000000000000000000000000111011100000000000011111111111111100000000000000000000000000000000000000
00000000000000000000000000000000000000000000000000000001111100000000000000000000011111111111111001111111000000000001110000000000111010000000000000011111111111111110000000000000000000000000000000000000
00000000000000000000000000000000000000000000000000000001111100000000000000000000011111111111111111111111110000000001110000000000010000000000000000011111111111111110000000000000000000000000000000000000
00000000000000000000000000000000000000000000000000000011111000000000000000000000011111111111111011111111111100000000000000000000010000000000000000001111111111111100000000000111000000000000000000000000
00000000000000000000000000000000000000000000000000000011111000000000000000000000111111111111110011111110111110000000000000000011100000000000011100000111111011111100000000000110000000000000000000000000
00000000000000000000000000000000000000000000000000001111111000000000000000000000111111111111111111101110111111000000000000000111100000000000011100000011111011111100000000000000000000000000000000000000
00000000000000000000000000000000000000000000000000001111111000000000011100000001111111111100000011000111111111100000000000000111000000000000000000000001111111111100000000000000000000000000000000000000
00000000000000000000000000000000001000000000000000000111110000000000011100000001111111111000000000001111111111100111000000000111000000000000000000000000111111111100000000000000000000000000000000000000
00000000000000000000000000000000011100000000000000001111110000000000000000000001111101111000000000001111111110000111000000001111000000000000000000000000011111111000000000000000000000000000000000000000
00000000000000000000000000000000000010000000000000001111110000000000000000000001111101111100000000001111111110010000000000011110000000000000000000000000011111111000000000000000000000000000000000000000
00000000000000000000000000000000100011100000000000001111110000000000000000000000111111111110000000001111101111110000000000011110000000000000000000000000011111111000000000000000000000000000000000000000
00000000000000000000000000000000000011110000000000001111100000000000000000000000111111111100000000001111101111110000000000011100000000000000000000000000111111111000000000000000000000000000000000000000
00000000000000000000000000000000000011111000000000000111100000000000000000000000111111111110000000001111111111110000000000111100000000000000000000000000111111110000000000000000000000000000000000000000
00000000000000000000000000000000000011111110000000000111000000000000000000000000011101111111000000011111111111110000000000111000000000000000000000000000111111111000000000000000000000000000000000000000
00000000000000000000000000000000000001111111110000111111000000000000000000000000001001111111000000111111111111100000000001110000000000000000000000000000111111111000000000000000000000000000000000000000
00000000000000000000000000000000000000111111111000111111000000000001110000000000000111111111111111111111111111000000000001110000000000000000000000000000111111111000000000000000000000000000000000000000
00000000000000000000000000000000000000000111111100011111000000000001111100000000001111111111111111100111111111000000000011110000000000000000000000000000001111110000000000000000000000000000000000000000
00000000000000000000000000000000000000000001111110111111000000000000011100000000111111111111111110000011111100000011100011100000000000000000000000000000000100010000000000000000000000000000000000000000
00000000000000000000000000000000000000000000111111111111000100000000000000001111111111111111111110011100111100000011100111100000000000000000000000000000000000010000000000000000000000000000000000000000
00000000000000000000000000000000000000000000001111111111000100000000000000001111111111111111111111111100010000000000001111100000000000000000000000000000000011110000000000000000000000000000000000000000
00000000000000000000000000000000000000000000000011111111000000000000000000011111110111111111111111111110000000000000011111111111111111000000000000000001111111100000000000000111000000000000000000000000
00000000000000000000000000000000000000000000000001111111110000000000000000111111110111101111111111111111000000000111111111111111111111111111110000000011111111100000000000000111000000000000000000000000
00000000000000000000000000000000000010000000000001111111111111000000000001111111111111000011111111111111111111111111111111111111111101111111111110000111111111100000000000000000000000000000000000000000
00000000000000000000000000000000001110000111000001111111111111111000000011111111111110000000111111100011111111111111111111111111111000111111111111111110111111100000000011100000000000000000000000000000
00000000000000000000000000000000000000000111000001111110011111111111000111111111111100000000111111000111111111111100111100000000000000000000001111111110111100000000000011100000000000000000000000000000
00000000000000000000000000000000000000000000000011111110000011111111111111111111110011111111111111001111111000000000111000000000000000000000000111111111111000000000000000000000000000000000000000000000
00000000000000000000000000000000000000000000000011111110000000011111111111111111110111111111011111111111100000000001111000000000000000000000000000111111111001000000000000000000000000000000000000000000
00000000000000000000000000000000000000000000000011111110000000000011111111111111111111111110001111111111000000111001110000000000000000000000000000011111111111000000000000000000000000000000000000000000
00000000000000000000000000000000000000000000000011111110000000000000001111111111111111100000011111111111000000111111110000000000000000000000000000001111111111000000000000000000000000000000000000000000
00000000000000000000000000000000000000000000000011111110000000000000001111111111110000000000111111111111000000000111110000000000000000000000000000001111111111000000000000000000000000000000000000000000
00000000000000000000000000000000000000000000000011111100000000000000001111111111100000000011111111111111100000000000100000000000000000000000000000011111011111100000000000000000000000000000000000000000
00000000000000000000000000000011100000000000000000111110000000000000001111111111110000000111111111111111100000000000000000000000000000000000000000011110001111110000000000000000000000000000000000000000
00000000000000000000000000000011100000000000000000011110000000000000000111111111111000011111111111111111000000000000000000000000000000000000000000011100001111001000000000000000000000000000000000000000
00000000000000000000000000000000000000000000000000111000000000000000000111111111111100011001110111111110000000000000000000000000000000000000000000011110011111011110000000000000000000000000000000000000
00000000000000000000000000000000000000000000000000000000000000000000000111111111111111110001110111111100000000000000000000000000000000000000000000011111111111111111000000000000000000000000000000000000
00000000000000000000000000000000000000000000000000000000000000000000000111111111111111100011111111111000000000000000000000000000000000000000000000111101111111111111000000000000000000000000000000000000
00000000000000000000000000000000000000000000000000000000000000000000000011111111111111110011111111110000000000000000000000001110000000000000000000001001111110011111100000000111000000000000000000000000
00000000000000000000000000000000000000000000000000000000000000000000000011111111111111111001111111100000111000000000000000001110000000000000000000000111111100001111110000000111000000000000000000000000
00000000000000000000000000000000000000000000000000000000000000000000000000111111111111111000111111000000111000000000000000000000000000000001110000000011001100000111111000000000000000000000000000000000
00000000000000000000010000000000000000000000000000000000000000000000000000111111111111110001111110000000000000000000000000000000000000000001110000000000000110000011111000000000000000000000000000000000
00000000000000000000010000000000000000000000000000000000000000000000000000001111111111111001111000000000000000000000000000000000000000000000000000000000000100000001111100000000000000000000000000000000
00000000000000000000000000000000000000000000000000000000000000000000000000000111111111111100000000000000000000000000000000000000000000000000000000000000000100000000111110000000000000000000000000000000
00000000000000000000000000000000000000000000000000000000000000000000000000000000000001110000000000000000000000000000000000000000000000000000000000000000001100000000111000000000000000000000000000000000
00000000000000000000000000000000000000000000000000000000000000000000000000000000000000000000000000000000000000000000000000000000000000000000000000000000001100000000010000000000000000000000000000000000
00000000000000000000000000000000000000000000000000000000000000000000000000000000000000000000000000000000000000000000000000000000000000000000000000000000000000000000000000000000000000000000000000000000
00000000000000000000000000000000000000000000000000000000000000000000000000000000000000000000000000000000000000000000000000000000000000000000000000000000000000000000000000000000000000000000000000000000
00000000000000000000000000000000000000000000000000000000000000000000000000000000000000000000000000000000000000000000000000000000000000000000000000000000000000000000000000000000000000000000000000000000
00000000000000000000000000000000000000000000000000000000000000000000000000000000000000000000000000000000000000000000000000000000000000000000000000000000000000000000000000000000000000000000000000000000
