P1
200 70
00000000000000000000000000000000000000000000000000000000000000000000000000000000000000000000000000000000000000000000000000000000000000000000000000000000000000000000000000000000000000000000000000000000
00000000000000000000000000000000000000000000000000000000000000000000000000000000000000000000000000000000000000000000000000000000000000000000000000000000000000000000000000000000000000000000000000000000
00000000000000000000000000000000000000000000000000000000000000000000000000000000000000000000000000000000000000000000000000000000000000000000000000000000000000000000000000000000000000000000000000000000
00000000000000000000000000000000000000000000000000000000000000000000000000000000000000000000000000000000000000000000000000000000000000000000000000000000000000000000010000000000000000000000000000000000
00000000000000000000000000000000000000000000000000000000000000000000000000000000000000000000000000000000000000000000000000000000000000000000000000000000000000000000111000000000000000000000000000000000
00000000000000000000000000000000000000000000000000000000000000000000000000000000000000000000000000000000000000000000000000000000000000000000000000000000000000000001111100000000000000000000000000000000
00000000000000000000000000000000000000000000000000000000000000000000000000000000000000000000000000000000000000000000000000000000000000000000000000000000000000000011111000000000000000000000000000000000
00000000000000000000000000000000001000000000000000000000000000000000000000000000000000000000000000000000000000000000000000000000000000000000000000000000000000000111110000000000000000000000000000000000
00000000000000000000000000000000011100000000000000000000000000000000000000000000000000000000000000000000000000000000000000000000000000000000000000000000000000001111100000000000000000000000000000000000
00000000000000000000000000000000011110000000000000000000000111000000000000000000000000000000000000000000000000000000000000000000000000000000000000000000000000011111000000000000000000000000000000000000
00000000000000000000000000000000111111000000000000000000000111000000000000000000000000000000000000000000000000000000000000000000000000000000000000000000000000111111000000000000000000000000000000000000
00000000000000000000000000000000001111110000000000000000111000000000000000000000000000000000000000000000000000000000000000000000000000000000000000000000000011111111000000000000000000000000000000000000
00000000000000000000000000000000000111110000000000000000111000000000000000000000000000000000000000000000000000000000010000000000000000000000000000000000001111111110000000000000000000000000000000000000
00000000000000000000000011100000000000000001100000000000000000000011000111111110000000000000000000000000000000001111111000000000000000000000000000000000011111111110000000000000000000000000000000000000
00000000000000000000000011100000000000001111111000000000000000001111111111111111100000000000000000000000000000011111111000000000000000000000000000000001111111011111000000000000000000000000000000000000
00000000000000000000000001110000000000000111111111100000000001111111111111111111110000000000000000000000000000111111111100000000000000000000000000000011111111011111000000000000000000000000000000000000
00000000000000000000000001111100000000000000111111111110000011111111111111111111111000000000000000000000000000111111111100000000000000000111000000011111111111111111000000000000000000000000000000000000
00000000000000000000000001111111000000000000001111111111111111110111111110001100111000000000000000000000000000111111111100000000000000000100000001111111111111111111000000000000000000000000000000000000
00000000000000000000000001111111111000000000000000111111111111110111111000000000111100000000000000000000000000111111111100000000000000000000001111111111111111111111100000000000000000000000000000000000
00000000000000000000000001111111111111001110000000000111111111111111111110000001111110000000000000000000000001111111111110000000000000000001111111111111111111111111100000000000000000000000000000000000
00000000000000000000000001111111111111111110000000000000011111111011111111001111111111111111110000000000000001111111111111000000000000010011111111111111111111111111100000000000001110000000000000000000
00000000000000000000000000111111111111111111100000000000001111110001111111111111111111111111111110000011111111111111111111111111111100111111111111111111011111111111000000000000001110000000000000000000
00000000000000000000000000011111111111111111111000000000001111110000000001111111111111111111111111001111111111111111111111111111111111111111100001111111001111111110000000000000000000000000000000000000
00000000000000000000000000000011000111111111111100001110001111110000000000000001111111111111111111111111111111111111111111111111111111000000000001111110001111111110000000000000000000000000000000000000
00000000000000000000000000000000000001111111111111101110001111111000000000000001111111110000000000001111111111111111111111110010111110000000000001111100001111111111100000000000000000000000000000000000
00000000000000000000000000000000000000111110011111100000001111111000000000000001111111110000000000000000000011111111111111100000011100000000000001110000001111111111100000000011100000000000000000000000
00000000000000000000000000000000000000000000001111100000001111111000000000000001111111110000000000000000000011111001111111100000000000000000000001110000001111111111100000000011100000000000000000000000
00000000000000000000000000000000000000000000011111100000000110111000000000000011111111110000000000000000000111110001111111100000000000000000000000000000001111111111100000000000000000000000000000000000
00000000000000000000000000000011100000000000111111000000000110111000000000000011111111110000000000000000001111110001111111100000000000000000000000000000001111111111100000000000000000000000000000000000
00000000000000000000000000000011100000000000111110000000000111111000000000000001111111110000000000000000001111110001111111100000000000000000000000000000001111111111100000000000000000000000000000000000
00000000000000000000000000000000000000000000111110000000000111111100000000000001111111110000000000000000001111100001111111110000000000000000000000000000001111111111100000000000000000000000000000000000
00000000000000000000000000000000000000000001111110000000000011111110000000000001111111100000000000000000001111110000111111110000000000000000000000000000001111111111100000000000000000000000000000000000
00000000000000000000000000000000011100000011111100000000000001111110000000000001111111100000000000000000011111100000111111110000000000000000000000000000011111111111100000000000000000000000000000000000
00000000000000000000000000000000001100000011111000000000000001111111000000000011111111100000000000000011111111100000111111110000000000000000000000000000011111011111100000000000000000000000000000000000
00000000000000000000000000000000000000000111100000000000000000111111100000000011111111100000000000000011111111000000111111110000000000000000000000000000011110001111100000000000000000000000000000000000
00000000000000000000000000000000000000000111000000000000000000000111000000001111111111100000000000000000111111000000011111111000000000000000000000000000011100011111110000000000000000000000000000000000
00000000000000000000000000000000000000001111100001110000000000000011101111111111111111100000000000000000001111000000001111111000000000000000000000000000011110111111100000000000000000000000000000000000
00000000000000000000000000000000000000001111100001110000000000000111111111111111111111100000000000000000000000000000001111111100000000000000000000000000001111111111100000000000000000000000000000000000
00000000000000000000000000000000000000001111110000000000000000000011111111111111111111110000000000000000110000000111001111111100000000000000000000000000001111101111110000000000000000000000000000000000
00000000000000000000000000000000000000001111111000000000000000000000100111111111111111110000000000000001111110000111001110111100000000000000000000011100001111101111110000000000000000000000000000000000
00000000000000000000000000000000000000001111111000000000000000000000000011111111111111110000000000000001111110000000000110111100000000000000000000011100111111111111110000000000000000000000000000000000
00000000000000000000000000000000000000001111100000000000000000000000000000001100011111100000000000000001111100000000000111111100000011000000000000000000011111111011110000000000000000000000000000000000
00000000000000000000000000000000000000011111100000000000111000000000000000000000011111100000000000000001111100000000000111111110000011000000000000000000001111111011100000000000000000000000000000000000
00000000000000000000000000000000000000111111000000000000111000000000000000000000011111100000000000000011111100000000000111111110000000000000000000000000000111111111100000000000000000000000000000000000
00000000000000000000000000000000000000111111000000000000000000000000000000000000011111100000000000000011111100000000000111111000000000000000000000000000000111111011110000000000000000000000000000000000
00000000000000000000000000000000000000110111000000000000000000000000000000000000111111000000000000000011111000000000000011111000001111000000000000000000011111111011110000000000000000000000000000000000
00000000000000000000000000000000000000110111000000000000000000000000000000000000111111000000000000000111111000000000000111111111111111100000000000000000010001111111110000000000000000000000000000000000
00000000000000000000000000000000000001111111000000000000000001110010000000000000111111000000000000000111111001111001111111111111111111110000000000000000010000111111110000000000000000000000000000000000
00000000000000000000000000000000000001111110000000000000000001110111100000000001111111000000000000000011111111111111111111101111111111110000000000000000010001111111110000000000000000000000000000000000
00000000000000000000000000000000000001111110000000000000000000000011110000000011110010000000000000000011111111111111111111101111111111110000000000000000010011111111110000000000000000000000000000000000
00000000000000000000000000000000000001111110000000000000000000000000111100000011110000100000000000000111111111111111111111111111111111110000000000011100011111111111110000000000000000000000000000000000
00000000000000000000000000000000000001111110000000000000001110000000001111100011111100100000000000000111111111111111111111001111100000000000000000011100011111111111100000000000000000000000000000000000
00000000000000000000000000000000000011111110000000000000001110000011001111110111111000000000000000000001111000110000000000001111100000000000000000000000011111111111100000000000000000000000000000000000
00000000000000000000000000000000000011111110000000000000000000000001111111111111111000000000000000000000000000000000000000111111100000000000000000000000000111111111100000000000000000000000000000000000
00000000000000000000000000000000000011111100000000000000000000000000011111111111110000000000000000000000000000000000000000111111100000000000000000000000000111111111100000000000000000000000000000000000
00000000000000000000000000000000000011111110000000000000000000000000000111100000000000000000000000000000000000000000000000000111100000000000000000000000001111111111110000000000000111000000000000000000
00000000000000000000000000000000000011111100000000000000000000000000000000000000000000000000000000000000000000000000000000000111110000000000000000000000011111111111110000001000000111000000000000000000
00000000000000000000000000000000000011111100000000000000000000000000000000000000000000000000000000000000000111000000000000011111110000000000000000000000011111111111100011111100000000000000000000000000
00000000000000000000000000000000111011111100000000000001110000000000000000000111000000000000000000000000000111000000000000011111110000000000000000000000011111111111100111111100000000000000000000000000
00000000000000000000000000000000111111111100000000000001000000000000000000000111000000000000000000000000000000000000000000011111111000000000000000000000011111111111101111111100000000000000000000000000
00000000000000000000000000000000000011111000000000000000000000000000000000000000000001110000000000000000000000000000001111111111111111000000000000000000011111111111111111111100000000000000000000000000
00000000000000000000000000000000000111000000000000000000000000000111000111000000000001110000000000000000000000000000011111111111111111111100000000000000111111111111111111100000000000000000000000000000
00000000000000000000000000000000001110000000000000000000000000000111000111000000000000000000000000000000000000000001111111111111111111111100000000000111111111111111001000000000000000000000000000000000
00000000000000000000000000000000001110000000000000000000000000000000000000000000000000000000000000000000000000000001111111111111111111111100000000011111111111111110000000000000000000000000000000000000
00000000000000000000000000000000000000000000000000000000000000000000000000000000000000000000000000000000000000000000001100111101111111111100000001111111111111100000000000000000000000000000000000000000
00000000000000000000000000000000000000000000000000000000000000000000000000000000000000000000000000000000000000000000000000000000000000000000000011111111111000000000000000000000000000000000000000000000
00000000000000000000000000000000000000000000000000000000000000000000000000000000000000000000000000000000000000000000000000000000000000000000000011111110000000000000000000000000000000000000000000000000
00000000000000000000000000000000000000000000000000000000000000000000000000000000000000000000000000000000000000000000000000000000000000000000000011100000000000000000000000000000000000000000000000000000
00000000000000000000000000000000000000000000000000000000000000000000000000000000000000000000000000000000000000000000000000000000000000000000000000000000000000000000000000000000000000000000000000000000
00000000000000000000000000000000000000000000000000000000000000000000000000000000000000000000000000000000000000000000000000000000000000000000000000000000000000000000000000000000000000000000000000000000
