P1
200 70
00000000000000000000000000000000000000000000000000000000000000000000000000000000000000000000000000000000000000000000000000000000000000000000000000000000000000000000000000000000000000000000000000000000
00000000000000000000000000000000000000000000000000000000000000000000000000000000000000000000000000000000000000000000000000000000000000000000000000000000000000000000000000000000000000000000000000000000
00000000000000000000000000000000000000000000000000000000000000000000000000000000000000000000000000000000000000000000000000000000000000000000000000000000000000000000000000000000000000000000000000000000
00000000000000000000000000000000000000000000000000000000000000000000000000000000000000000000000000000000000000000000000000000000000000000000000000000000000000000000000000000000000000000000000000000000
00000000000000000000000000000000000000000000000000000000000000000000000000000000000000000000000000000000000000000000000000000000000000000000000000000000000000000000000000000000000000000000000000000000
00000000000000000000000000000000000000000000000000000000000000000000000000000000000000000000000000000000000000000000000000000000000000000000000000000000000000000000000000000000000000000000000000000000
00000000000000000000000000000000000000000000000000000000000000000000000000000000000000000000000000000000000000000000000000000000000000000000001110000000000000000000000000000000000000000000000000000000
00000000000000000000000000000000000000000000000000000000000000000000000000000000000000000000000000000000000000000000000000000000000000000000001111111111000000000000000000000000000000000000000000000000
00000000000000000000000000000000000000000000000000000110000000000000000000000000000000000000000000000000000000000000000000000000000000000000011111111111111111100000000000000000000000000000000000000000
00000000000000000000000000000000000000000000000000000110000000000000000000000000000000000000000000000000000000000000000000000000000000000000011111111111111111111000110000000000000000000000000000000000
00000000000000000000000000000000000000000000000000000000000000000000000000001111110000000000000000000000000000000000000000000000000000000000011111111111111111111000111111111000000000000000000000000000
00000000000000000000000000000000000000000000000000000000000000000000000000111111111110000000000000000000000000000000000000000000000111000000111111111111111110111101111111111111110000000000000000000000
00000000000000000000000000000000000000000000000000000000000000000000000011111110111111000001110000000000000000000000000000000000000111000000111111111111111110111111110111111111100000000000000000000000
00000000000000000000000000000000000000000000000000000000000000000000000111111110111111100001110000000000000111000000000000000000000111000000111111111111111111111111110111111111100000000000000000000000
00000000000000000000000000000000000000000000000000000000000000000000001111111111111111110000000000000000000111000000000000000000000000000000111101111111111111111111111111111111000000000000000000000000
00000000000000000000000000000000000000000000000000000000000000000000011111111111111111110000000000000000000000000000000000000110000000000000011000111111111111111111111111111110000000000000000000000000
00000000000000000000000000000000000000000000000000000000000000000000111111111000011111111000000000000000000000000011100111111111100000000000000000000000000111111111111101111110000000000000000000000000
00000000000000000000000000000000100000000000000000000000000000000000111111100000001111111100000000000000000000000011000111111111111000000000000000000000000000001111111000111100000000000000000000000000
00000000000000000000000000000000110000000000000000000000000000000000011111000000000111111100000000000000000000000011101110111111111100000000000000000000000000011111111000111000000000000000000000000000
00000000000000000000000000000000000000000000000000000000000000000000111110000000000011111110000000000000000000000011111110111111111100000000000000000000000000111111111100110000000000000000000000000000
00000000000000000000000000000000000111111111000000000000000000000011111110000000000001111110000000000000000000000111111111111111101100000000000000000000000001111111111111000000000000000000000000000000
00000000000000000000000000000000001111111111111000000000000000000111011110000000000001111110000000000000000000000111111111111111101110000000000000000000000011111111111110000000000000000000000000000000
00000000000000000000000000000000011111111111111111000000000000000011011100000000000001111110000000000000000000000111100000000011111110000011000000000000000011111111011100000000000000000000000000000000
00000000000000000000000000000000111111111111111111110000000000000111111100000000000000011111000000000000000000000110000000000011101110000011000000000000000111111111001000000000000000000000000000000000
00000000000000000000000000000000111111111101111111111000000000000111111000000000000000011111000000000000000000000000000000000001101110000000000000000000001111111111110000000000000000000000000000000000
00000000000000000000000000000000111111111101111111111000000000111111111000000000000000111111000000000000000000000000000000000001111111110000000000000000011101111111111000000000000000000000000000000000
00000000000000000000000000000000111111111111111111111100100000111111111000000000000001111111000000000000000111000000000000000011111111110000000000111000111101111111111100000000000000000000000000000000
00000000000000000000000000000000111111111111001111111111110000111111111000000000000001111111000000000011100111000000000000000111111100000000000000111001111111111111111100000000000000000000000000000000
00000000000000000000000000000000111111111110000011111111111111111111111111000111100001111111000000000011100000000000000000000111111000000000000000000011111111111111111000000000000000000000000000000000
00000000000000000000000000000000111111111000000111111111111111111111111111111111111001111110000000000000000000000000000000001111111000000000000000000111111111111111110000000000000000000000000000000000
00000000000000000000000000000000011111110000000111111111111111111111111111111111111111111110000000000000000000000000000000011111110000000000000000001111111111111000000000000000000000000000000000000000
00000000000000000000000000000000111110111000000011111111111111000011110001111111111111111111000000000000000000000000000000111111100000000000000000001111111111110000000000000000000000000000000000000000
00000000000000000000000000000001111110111100000111111111101110000011100000111111111111111111100000000000000000001110000111111111000000000000000000001111111111100000000000000000000000000000000000000000
00000000000000000000000000000001000111111100011111111111101110001111110000111111111111111111111100000000000000001111111111111110000000000000000000011111111111000000000000000000000000000000000000000000
00000000000000000000000000000000000011110010001111100111111111001111100000111101110001110111111100000000000000001111111111111100000000000000000000011111111110000000000000000000000000000000000000000000
00000000000000000000000000000011100111110111000110000111111111011111100000111100100001110111111110000000000000001111111111111100000000000000000000111111111100000000000000000000000000000000000000000000
00000000000000000000000000001111111111111110001110011111111110011111000000011110000000111111111111100000000000001111111111111110000000000000000001111111111100000000000000000000000000000000000000000000
00000000000000000000000000011111111111111100001111111111111110011111000000000000000000111111111111110000000000001111111111111111000000000000000011111111110000000000000000000000000000000000000000000000
00000000000000000000000000011111111111111110011111111101111100011111110000000000000001111111000111111100000000011111111111111111000000000000000111111111100000000000000000000000000000000000000000000000
00000000000000000000000000111101111111111111111111111101111000111111110000000000000001111111000000111100010000000000000001111110000000000000001111111111110000000000000000000000000000000000000000000000
00000000000000000000000000111101111111111111111111111111111001111111110000000000000001111111000000001100111100000000000001111111000000000000001111111111100001110000000000000000000000000000000000000000
00000000000000000000000000111111111111111110001111111111100001111111110000000000000001111110000000000011111111000000000001111111100000000000001111111111000001110000000000000000000000000000000000000000
00000000000000000000000001111111111111111000000111111100000000000111110000000000000001111111000000000001111111111000000000111110000001110000011111111110000000000000000000000000000000000000000000000000
00000000000000000000000001111111111111110000000111111110000000000011110000000000000000001111110000000000111111111110000000011100000001110000111110111110000000000000000000000000000000000000000000000000
00000000000000000000000000111111111111100000000111111111000000000111000000000000000000001111110000000000111111111111110000000000000000000000111110111100000000000000000000000000000000000000000000000000
00000000000000000000000001111111111111000000000011111111000000011111000000000000001111111100000000000000000011100111111111100000000000000001111111111000000000000000000000000000000000000000000000000000
00000000000000000000000001111111111110000000000001111111111100000111111000000000001111111000000000000000000010000011111111111110000001110001111111111000000000000000000000000000000000000000000000000000
00000000000000000000000001111111111110000000000001111111111100000111111000000000011111111000000000000000000000000000011111111110000001110011101111110000000000000011100000000000000000000000000000000000
00000000000000000000000000111111111110000000000011111111111000001111111100111000011111110000000000000000000000000000001111111111000000000011001111100000000000011111111000000000000000000000000000000000
00000000000000000000000000011111111111000000000001111111110000001111111111111001111111100000000000000000000000000000011111111111111000000100011111100000000000111111111000000000000000000000000000000000
00000000000000000000000000001111111111100000000001111111110000001111111111111111111111000000000000000000000000000000111111111111111111111110111111111111111000111111000000000000000000000000000000000000
00000000000000000000000000000111111111111000000011111111000000000111111111111111111110000000000000000000000000000011111111111111111111111111111111111111111111000000000000000000000000000000000000000000
00000000000000000000000000000011111111111111111111110111000000000111111111111111111100000000000011111000000000011111111111100000000001111111111111111111111110000000000000000000000000000000000000000000
00000000000000000000000000000011111111111111111111110111110000000011111011111111111000000000000011111111111111111111111111000000000000111111111001111111110000000000000000000000000000000000000000000000
00000000000000000000000000000011111111111111111111111111110000000001110001111111100000000000000011111111111111111111111100000000000000111111110000000000000000000000000000000000000000000000000000000000
00000000000000000000000000000000000111111111111111110111100000000000111110000000000000000111000111111101111111100001111000000000000000011111110000000000000000000000000000000000000000000000000000000000
00000000000000000000000000000000000000111111111111110111100000000000000000000000000000000111001111111000111111100000000000000000000000111111110000000000000000000000000000000000000000000000000000000000
00000000000000000000000000000000000000000111111111111110000000000000000000000000000000000000000111111101111111110000000000000000000011111111110000000000000000000000000000000000000000000000000000000000
00000000000000000000000000000000000000000000111111111100000000000000000011100000000000000000000111111111111011000000000000000000000011111011100000000000000000000000000000000111000000000000000000000000
00000000000000000000000000000000000000000000000000000000000000000000000011100000000000000000000011111000000000000000000000000000000001110001100000000000000000000000000000000111000000000000000000000000
00000000000000000000000000111000000000000000000000000000000000000000000000000000000000000000000000000000000000000000000000000000000000000000000000000000111000000000000000000000000000000000000000000000
00000000000000000000000000111000000000000000000000000000000000000000000000000000000000000000000000000000000000000000000000000000000000000000000000000000111000000000000000000000000000000000000000000000
00000000000000000000000000000000000000000000000000000000000000000000000000000000000000000000000000000000000000000000000000000000000000000000001110000000000000000000000000000000000000000000000000000000
00000000000000000000000000000000000000000000000000000000000000000000000000000000000000000000000000000000000000000000000000000000000000000000001110000000000000000000000000000000000000000000000000000000
00000000000000000000000000000000000000000000000000000000000000000000000000000000000000000000000000000000000000000000000000000000000000000000000000000000000000000000000000000000000000000000000000000000
00000000000000000000000000000000000000000000000000000000000000000000000000000000000000000000000000000000000000000000000000000000000000000000000000000000000000000000000000000000000000000000000000000000
00000000000000000000000000000000000000000000000000000000000000000000000000000000000000000000000000000000000000000000000000000000000000000000000000000000000000000000000000000000000000000000000000000000
00000000000000000000000000000000000000000000000000000000000000000000000000000000000000000000000000000000000000000000000000000000000000000000000000000000000000000000000000000000000000000000000000000000
00000000000000000000000000000000000000000000000000000000000000000000000000000000000000000000000000000000000000000000000000000000000000000000000000000000000000000000000000000000000000000000000000000000
00000000000000000000000000000000000000000000000000000000000000000000000000000000000000000000000000000000000000000000000000000000000000000000000000000000000000000000000000000000000000000000000000000000
