P1
200 70
00000000000000000000000000000000000000000000000000000000000000000000000000000000000000000000000000000000000000000000000000000000000000000000000000000000000000000000000000000000000000000000000000000000
00000000000000000000000000000000000000000000000000000000000000000000000000000000000000000000000000000000000000000000000000000000000000000000000000000000000000000000000000000000000000000000000000000000
00000000000000000000000000000000000000000000000000000000000000000000000000000000000000000000000000000000000000000000000000000000000000000000000000000000000000000000000000000000000000000000000000000000
00000000000000000000000000000000000000000000000000000000000000000000000000000000000000000000000000000000000000000000000000000000000000000000000000000000000000000000000000000000000000000000000000000000
00000000000000000000000000000000000000000000000000000000000000000000000000000000000000000000000000000000000000000000000000000000000000000000000000000000000000000000000000000000000000000000000000000000
00000000000000000000000000000000000000000000000000000000000000000000000000000000000000000000000000000000000000000000000000000000000000000000000000000000000000000000000000000000000000000000000000000000
00000000000000000000000000000000000000000000000000000000000000000000000000000000000000000000000000000000000000000000000000000000000000000000000000000000000000000000000000000000000000000000000000000000
00000000000000000000000000000000000000000000000000000000000000000000000000000000000000000000000000000000000000000000000000000000000000000000000000000000000000000000000000000000000000000000000000000000
00000000000000000000000000000000000000000000000000000000000000000000000000000000000000000000000000000000000000000000000000000000000000000000000000000000000000000000000000000000001100000000000000000000
00000000000000000000000000000000000000000111100001110000000000000000000000000000000000000000000000000000000000000000111000000000000000000000000000000000000000000000000000001110011100000000000000000000
00000000000000000000000000000000000001111111110011110000000000000000000000000000000000000000000000000000000000000000111000000000000000000000000000000000000000000000000011111111111100000000000000000000
00000000000000000000000000000000111111111011111111110000000000000000000000000000000000000000000000000000000000000000000000000000000000011100000000000000000000000000001111111111101100000000000000000000
00000000000000000000000000000111111111111011111111110000000000000000000000000000000000000000000000000000000000000000000000000010000000011100000000000000000000000111111111111111000100000000000000000000
00000000000000000000000000001111111111111111111111111100000000000000000000000000000000000000000000000011100000000000000000111111000000000000000000000000000001111111111111111111100000000000000000000000
00000000000000000000000000011111101111111111111111111100000000000000000000000000000000000000000000000011100000000000000001111111000000000000000000000000000011111111111111111111110000000000000000000000
00000000000000000000000010001111101111111111111111111100000000000000000000000000001110000000000000000000000000000000000011111111000000000000000000000000000011111111111111111111111000000000000000000000
00000000000000000000000110001111111111101111111111110000000000000000000000000000001110000000000000000000000000000000000111111111000000000000000000000000000111111111111110000011111000000000000000000000
00000000000000000000000111000111111111101111111111110011000000000000000000000000000000000000000000000000000000000000000111111111100000000000000000000000000100111111100000000000000000000000000000000000
00000000000000000000000111101111111111111111111111111111100000000000000000000000000000000000000000000000000000000000000111111111100000000000000000000000000100111110000000000000000000000000000000000000
00000000000000000000001111111111111111111111111111111111100000000111001111110000000000000000000000000000000000000000001111111111100111000000000000000000000111111100000000000000000000000000000000000000
00000000000000000000001001111111111110000001111111111111100000000111111111111000000000000000000000000000000000000000001111111111100111000000000000000000000111111000000000000000000000000000000000000000
00000000000000000000001101111111111100000000111111111111100000000001111111111111111110000000000111000000000000000000011111111111110000000000000000000000001111111000000000000001110000000000000000000000
00000000000000000000011111111111111000000000011111111111100000000000111110011111111111100000000111000000000000000000011111111111110000000000000000000000001111111000000000000001110000000000000000000000
00000000000000000000001111111111111000000000011111111111000000000001111100001111101111110000000000000000000000000000011111111111000000000000000000000000001111111000000000000000000000000000000000000000
00000000000000000000000111111111111000000000011111111111000000000111111110001111101111111000000000000000000000000000111110111110000000000000000000000000001111111000000000000000000000000000000000000000
00000000000000000000001111111111111000000000011111111111000000000111111111110011111111111100000000000000000000000000111100011001111000000000000000000000001111110000000000000000000000000000000000000000
00000000000000000000000111111111111000000000011101111110000000001111111111110001111111111111000000000000000000000001111100011011111000000000000000000000000011110000000011111110000000000000000000000000
00000000000000000000000111111111111000000000011101111110000000001111111111111000111111111111000000000000000000000001111100011111111000000000000000000000000001110000000111111111000000000000000000000000
00000000000000000000000111111111111000000000011111111110000000001111111111110000011111111110000000000000000000000001100000011111111100000000000000000000000011110001111111111111111000000000000000000000
00000000000000000000000111111111111100000000001111111100000000001111111111110000001111111111000000000000000000000001100000001111111100000000000000000000000111110011111111101111111100000000000000000000
00000000000000000000000111111111111111001110000111111100000000001111111111100000000111111111111000000000000000000011110000001111111100000000000000000000001111110001111111101111111110000000000000000000
00000000000000000000000011111111111111111111001111111000000000011111111111100000000011111111111100111111000000000111111000001001111100000000000000000000001111110011111111111111111110000000000000000000
00000000000000000000000011111111111111111111111111110000111000011111111111100000000001111111111110111111000000000111110000000001111100000000000000000000000011111111111111111111111111000000000000000000
00000000000000000000000001111111111111111111111111100000111000011101110111100000000000111111111110000000000000001111110000000111111100000000000000000000000011111111100000000111111111000000000000000000
00000000000000000000000000111111111111111111111111000000000000001000110111100000000000011111111110000000000000001111111100000111111100000000000000000000011111111111000000000001111111000000000000000000
00000000000000000000000000011111111111111111111111100000000000000000111111100000000000111011111110000000000000011100111100000111111110000000000000000000001111111100000000000000111111100000000000000000
00000000000000000000000000000111111111111111111011100000000000000001111111100000000000111011111111000000000000011100000000000111111111000000000000000000001111111000000000000000111111100000000000000000
00000000000000000000000000000011011111111111110001110000000000001111111111100000000000111111110111100000000000011110000000000011111111111111111111110000011111110000000000000000111111100000000000000000
00000000000000000000011100000011011111111111111011111100000000001111111111100000000000011111110111100000000000111110000000000111111111111111111111111100111111100000000000000000111111100000000000000000
00000000000000000000011100000011111111111111111111111110000000000111111111110000000000011111111111100000000001111110000000011111111111111111111111111000111111100000000000000000111111100000000000000000
00000000000000000000000000000111111111111111111111111110000000000111111111110000000000011111011111100000111011111100000001111111111101111111111111111101111100000000000000000000111111100000000000000000
00000000000000000000000000111111111111111001111111111111000000000111111111110000000000011111011111100000011111111000000111111111111101111111111111001111111000000000000000000000111111100000000000000000
00000000000000000000000000001111111111111100111111111111100000001111111111110000000000001111111111110000001111111111111111111111111111110011111100000001111100000000000000000000111111100000000000000000
00000000000000000000000000000111111111111110010011111111100000001111001111110000000000001111111111110000001110111111111111111111111111110000011000000000111111100000000000000000111111100000000000000000
00000000000000000000000000000111111111111111110011111111100000000110000111111000000000001111111111110000001110111111111111111111111111111000000000000000011111111000000000000000111111000000000000000000
00000000000000000000000001001111111100111111111111111111100000000000001110110000000000001111111111110000001111111111111110001000011111111000000000000000000111111110000000000001111111000000000000000000
00000000000000000000000011111111111000000111111111111111000000000000111110111000000000001111111110000000011111111100000000000000011111111000000000000000000011111111000000000001111111000000000000000000
00000000000000000000000001111111111000000001111111111111100000000011111111111100000000001111111100011111111111110000000000000000011111111100000000000000000000111111000000000001111110000000000000000000
00000000000000000000000011111111111000000000111111111111100000000011111111111100000000000111111100111111111110000000000000000000001111111100000000000000000000011111100000000011111110000000000000000000
00000000000000000000000001111111111000000000001001111111100000100001110111111100000000000111111111111111111000000000000000000000001111111100000000000000000010001111110000000111111100000000000000000000
00000000000000000000000000111011111100000000000001111111110000100001110111111100000000000111001111111111000000000000000000000000001111111100000111000000011111000111111000001111111100000000000000000000
00000000000000000000000000111011111100000000000011111111111000000011111111111110000000001000001111111000000000000000000000000000001111111110000111000001111111000011111000001111111100000000000000000000
00000000000000000000000001111111111100001110001111111111111100111111111111111111000000011000111111110000000000000000000000011111111111111111100111000001111111100001111100011111111000000000000000000000
00000000000000000000000001111111110010001110011111111111111111000111111111111111111111000001111101110000000000000000000000011111111111111111000111100001111111110000001111111111110000000000000000000000
00000000000000000000000000111111110111000011111111111111111111000001111111111111111100000011111100100000000000000000000000011111111111111110000111110001111111111000001111111111100000000000000000000000
00000000000000000000000000111111111111110111111111111110011000001000111111111101111100111111111111000000111000000000000000011111111111111110001111110001111111111111111111111111000000000000000000000000
00000000000000000000000000111011111111111111111111111100000000000000001111111101111111110111111111000000111000000000000000000000000000000000000111110001111111111111111111111110000000000000000000000000
00000000000000000000000000011001111111111111111111111110000000000000000111111111110111110011111111000000000000000000000000000000000000000000000000000000111111111111111111111000000000000000000000000000
00000000000000000000000000011110011111111111111111111100000000000000000011110111110111111000111100000000000000000000000000000000000000000000000000000000011111111111111111100000000000000000000000000000
00000000000000000000000000000000011111111111110111111100000000000000000011110111111111111100000000000000000000000000000000000000000000000000000000000000001111111111111110000000000000000000000000000000
00000000000000000000000000000001111111111111110111111100000000000000000000111111111111111111000000000000000000000000000000000000000000000000000000000000000011111111111100000000000000000000000000000000
00000000000000000000000000000011111111111111111111100000000000000000000000011111111111111110000000000000000111000000000000000000010000000000011100000000000000000000000000000000000000000000000000000000
00000000000000000000000000000001111111110111111111000000000000000000000000000011111000000000000000000000000000000000111000000000010000000000011100000000000000000000000000000000000000000000000000000000
00000000000000000000000000000000111111110111111100000000000000000000000000000001110000000000000000000000000000000000111000000000000000000000000000000000000000000000000000000000000000000000000000000000
00000000000000000000000000000000011111111111110000000000000000000000000000000000000000000000000000000000000000000000000000000000000000000000000000000000000000000000000000000000000000000000000000000000
00000000000000000000000000000000000001111000000000000000000000000000000000000000000000000000000000000000000000000000000000000000000000000000000000000000000000000000000000000000000000000000000000000000
00000000000000000000000000000000000000000000000000000000000000000000000000000000000000000000000000000000000000000000000000000000000000000000000000000000000000000000000000000000000000000000000000000000
00000000000000000000000000000000000000000000000000000000000000000000000000000000000000000000000000000000000000000000000000000000000000000000000000000000000000000000000000000000000000000000000000000000
00000000000000000000000000000000000000000000000000000000000000000000000000000000000000000000000000000000000000000000000000000000000000000000000000000000000000000000000000000000000000000000000000000000
00000000000000000000000000000000000000000000000000000000000000000000000000000000000000000000000000000000000000000000000000000000000000000000000000000000000000000000000000000000000000000000000000000000
