P1
200 70
00000000000000000000000000000000000000000000000000000000000000000000000000000000000000000000000000000000000000000000000000000000000000000000000000000000000000000000000000000000000000000000000000000000
00000000000000000000000000000000000000000000000000000000000000000000000000000000000000000000000000000000000000000000000000000000000000000000000000000000000000000000000000000000000000000000000000000000
00000000000000000000000000000000000000000000000000000000000000000000000000000000000000000000000000000000000000000000000000000000000000000000000000000000000000000000000000000000000000000000000000000000
00000000000000000000000000000000000000000000000000000000000000000000000000000000000000000000000000000000000000000000000000000000000000000000000000000000000000000000000000000000000000000000000000000000
00000000000000000000000000000000000000000000000000000000000000000000000000000000000000000000000000000000000000000000000000000000000000000000000000000000000000000000000000000000000000000000000000000000
00000000000000000000000000000000000000000000000000000000000000000000000000000000000000000000000000000000000000000000000000000000000000000000000000000000000000000000000000000000000000000000000000000000
00000000000000000000000000000000000000000000000000000000000000000000000000000000000000000000000000000000000000000000000000000000000000000000000000000000000000000000000000000000000000000000000000000000
00000000000000000000000000000000000000000000000000000000000000000000000000000000000000000000000000000000000000000000000000000000000000000000000000000000000000000000000000000000000000000000000000000000
00000000000000000000000000000000000000000000000000000000000000000000000000000000000000000000000011000000000000000000000000000000000000000000000000000000000000000000000000000000000000000000000000000000
00000000000000000000000000000000000000000000000000000000000000000000000000000000000000001110000011100000000000000000000000000000000000000000000000000000000000000000000000000000000000000000000000000000
00000000000000000000000000000000000000000000000000000000000000000000000000000011100000001110000000000000000000000000000000000000000000000000000000000000001110000000000000000000000000000000000000000000
00000000000000000000000000000000000000000000000000000111000000000000000000000011100000000000000000000000000000011100000000000000000000000000000000000000001110000000000000000000000000000000000000000000
00000000000000000000000000000000000000000000011111000111000000000000000000000000000000000000000000000000000000011100000000000000000000000000000000000000000000000000000000000000000000000000000000000000
00000000000000000000000000000000000000000011111100000000000000000000000000000000000000000000000000000000000000000000000000000000000000000000000000000000000000000000000000000000000000000000000000000000
00000000000000000000000001111000000000000111111100110000000000000000000000000000011100000000000000000000000000000000000000000000000000000000001100000000000000000000000011000000000000000000000000000000
00000000000000000000000001111000000011111111111111111100000000000000000000000000111110111100000000000000000000000000000000000011100000000011111100000000000000000000000111000000000000000000000000000000
00000000000000000000000000000000001111111111111111111100000000000000000000000001111111111110000000000000000000000000000000000000100000001111111100000111111111110000100000000000000000000000000000000000
00000000000000000000000000000011111111111111111111111100000000000000000000000011111111111110000000000000000000000000000000000000000111111111111100111110111111111011110000000000000000000000000000000000
00000000000000000000000000000111111111000000111111111100000000000000000000000111111100111111000000000000000000000000000000000001111111111111111111111110111111111111100000000000000000000000000000000000
00000000000000000000000000011111111100000000001111111000000000000000000000001111110000011111100000000000000000000000000000001111111111111111111111111111111111111111101110000000000000000000000000000000
00000000000000000000000000111111110000000000001111111000000000011100000000001111110000001111100000000000000000000000011111000111111111111111111111111111111111111111111110000000000000000000000000000000
00000000000000000000000000111100100000000000001111111100000000011100000000011111100000001111100000000000000000000000111111101111111111111111111111111111111111111111110111000000000000000000000000000000
00000000000000000000000000011100000000000000000111111100000000011100000000111111000000001111000000000000000000000001111111111111111111111111111111111111111111111101110111000000000000000000000000000000
00000000000000000000000000111111000000000000000111101100000000000000000000111111000000000111100000000000000000000001111111111111111111111000011111111111111111111101111111000000000000000000000000000000
00000000000000000000000011111110000000000000000111101100000000000000000001111110000000000111110000000000000000000001111111111111111111110000001101111111110011111111111111000000000000000000000000000000
00000000000000000000000011111110000000000000000111111100000000000000000001111100000000001111110000000000000000000011111111111111110000000000001100111100000000111111111111000000000000000000000000000000
00000000000000000000000011111110000000000000000111111100000000000000000011111100000000001111110000000000000000000011111111111110000000000000001110000000000000011111111111100000000000000000000000000000
00000000000000000000000011011110000000000000000111111100000000000000000011111100000000001111100000000000000000000111111111000000000000000000000000000000000000001111011111110000000000000000000000000000
00000000000000000000000011011110000000000000001111111000000000000000000111111000000000000111100000000000000000000111111111000000000000000000000000000000000000001111011111110000000000000000000000000000
00000000000000000000000011111111000000000000001111111000000000000000001111111000000000000111110000000000000000000111111110000000000000000000000000000000000000001111111111110000000000000000000000000000
00000000000000000000000011111111111100000000011111110000000000000000001111111000000000000001110000000000000000000111111110000000000000000000000000000000000000001111111111100011100000000000000000000000
00000000000000000000000011101111111110000111111111100000000000000000001111110000000000000000110000000111000000001111111111000000000000000000000000000000000000001111111111100001111000000000000000000000
00000000000000000000000001001111111111111111111111110000000000000000011111110000000000000001110000000111000000001111111111000000111111000000000000000000000000011111111111100000111000000000000000000000
00000000000000000000000000011111111111111111111111111110000000000000011111110000000000000000000000000000000000001111111111011001111111110000000000000011111111001111111111000000000000000000000000000000
00000000000000000000000000001111111111111111101111111111110000000000111111100000000000000110000000000000000000001111111111111111111111111000000000000111111111101111111111000000000000000000000000000000
00000000000000000000000000000111111111111011100000001111111111000001111111100000000000001111110000000000000000001111111111111111111111111100000000000111110111111111111110000000000000000000000000000000
00000000000000000000000000000001111111111011111100000111111111111111111111000000000000001111111000000000000100011111111111011111110111111100000000000011110111111111111100000000000000000000000000000000
00000000000000000000000000000011111111111111111110001110011111111111111111000000000000001111111000000000000111011111111111011111110111111100000000000011111111111111111110000000000000000000000000000000
00000000000000000000000000000111111111100011111111100000000000111111111111100000000000001111111000000000000000111111111111111111111111111100000000000001111111111111111111100000000000000000000000000000
00000000000000000000000000001111111000000000011111110000000000000111111111111100000000001111110000000000000000011111111111111101111111111100000000000001111110111111111111110000000000000000000000000000
00000000000000000000000000011111110000000000001111110000000000000011111111111111110000001111100000000000000000011111011111110000111111100010000000000001111100011111011111111000000000000000000000000000
00000000000000000000000000011111100000000000001111110000000000000111111111111111111111100111100000000000000000111111011110000000011110000110000000000011111111111111011111111100000000000000000000000000
00000000000000000000000000111111100000000000001111100000000000000111111110000111111111110111110000000000000000111111111100000000011110011111110001111111111111111111111111111100000000000000000000000000
00000000000000000000000001111111100000000111000111001000000000000111111100000000111111111111111111111000000000111100011100000011111111111111111011111111111111111111111111111110000000000000000000000000
00000000000000000000000001111111000000000111000111011000000000000011111100000000000000111111111111111111111111111110111111111111111111111111111111111111111111111111111111110010000000000000000000000000
00000000000000000000000001111111000000000000000111111100000000000111111100000000000000000111111111111111111111111111111111111111111111111111111111100000000000001111111111100011000000000000000000000000
00000000000000000000000001111111000000000000000011111100000000001111111111100000000000000111110000001111111111111111111111111111111110111110000000000000000000000000111111110111000000000000000000000000
00000000000000000000000001111111000000000000000011111100000000001111111111100000000000111111100000000000001111111111111110000000001100111100000000000000000000000000011111111111000000000000000000000000
00000000000000000000000001111111000000000000000111111100000000011111111100000000000000111111100000000000000000000011100000000000000001111100000000100000000000000000011111111111100000000000000000000000
00000000000000000000000001111011000000000000000111111100000000011111111000000000000111111111100000000000000000000111100000000000010011111100000001110000000000000000011111111111100000000000000000000000
00000000000000000000000000111011100000000000000111111100000000011111111000000000000011111111100000000000000011111111100000000000111111111100000001100011000000000000111111111111110000000000000000000000
00000000000000000000000000111111100000000000000111111100000000011111111000000000000001111111100000000000000011111111110000000000111111111100000000110111111000000000111101111111111100000000000000000000
00000000000000000000000000011111100000000000000111111110000000011111110000000001110001111111000000011100000011111111111000000001111111111000000000111111111110011111111101111111111100000000000000000000
00000000000000000000000000001111110000000000001001111110000000011111111000000001110011111110000000011100000001111111111000001111111111111001110000111111111111111111111111111111100000000000000000000000
00000000000000000000000000001111111100000000011101111000000000011101111000000000000011111110000000000000000001111101111111111111111111110001110000111111111111111111111111111111000000000000000000000000
00000000000000000000000000000111111110000000111111111000000000001101111000000000000111111100000000000000000000111000111111111111111111110000000000111111111111111111111111111111100000000000000000000000
00000000000000000000000000000011111111100001111111110000000000011111111100000000001111111100000000000000000000011000111111111111111111110000000000011111111111111111111111111111000000000000000000000000
00000000000000000000000000000001111111111111111111100000000000011111111100000000001111111000000000000000000000001100011111111111111111000000000000001111111111111111111111111111000000000000000000000000
00000000000000000000000000000000011111111111111111000000000000001111111110000000100001110000000000000000000000000100011111111111111110000000000000000001111111111111111111111111000000000000000000000000
00000000000000000000000000000000000111000111100110000001110000001111111111000111110000100000000000000000000000000001100111111111111000000000000000000000011111111111111111111110000000000000000000000000
00000000000000000000000000000000000000000011000000000001100000000011111111111111111110000000000000000000000000000000000011110001111000000000000000000000000001111111111111111100000000000000000000000000
00000000000000000000000000111000000000000000000000000000000000000011111111111111111100000000000000000000000000000000000000000000000000000000000000000000000000001000111111110000000000000000000000000000
00000000000000000000000000111000000000000000000000000000000000000001111111111111110000000000000000000000000000000000000000000000000000000000000000000000000000000000000000000000000000000000000000000000
00000000000000000000000000000000000000000000000000000000000000000000000111111000000000000000000000000000000000000000000000000000000000000000000000000000000000000000000000000000000000000000000000000000
00000000000000000000000000000000000000000000000000000000000000000000000000000000000000000000000000000000000000000000000000000000000000000000000000000000000000000000000000000000000000000000000000000000
00000000000000000000000000000000000000000000000000000000000000000000000000000000000000000000000000000000000000000000000000000000000000000000000000000000000000000000000000000000000000000000000000000000
00000000000000000000000000000000000000000000000000000000000000000000000000000000000000000000000000000000000000000000000000000000000000000000000000000000000000000000000000000000000000000000000000000000
00000000000000000000000000000000000000000000000000000000000000000000000000000000000000000000000000000000000000000000000000000000000000000000000000000000000000000000000000000000000000000000000000000000
00000000000000000000000000000000000000000000000000000000000000000000000000000000000000000000000000000000000000000000000000000000000000000000000000000000000000000000000000000000000000000000000000000000
00000000000000000000000000000000000000000000000000000000000000000000000000000000000000000000000000000000000000000000000000000000000000000000000000000000000000000000000000000000000000000000000000000000
