P1
200 70
00000000000000000000000000000000000000000000000000000000000000000000000000000000000000000000000000000000000000000000000000000000000000000000000000000000000000000000000000000000000000000000000000000000
00000000000000000000000000000000000000000000000000000000000000000000000000000000000000000000000000000000000000000000000000000000000000000000000000000000000000000000000000000000000000000000000000000000
00000000000000000000000000000000000000000000000000000000000000000000000000000000000000000000000000000000000000000000000000000000000000000000000000000000000000000000000000000000000000000000000000000000
00000000000000000000000000000000000000000000000000000000000000000000000000000000000000000000000000000000000000000000000000000000000000000000000000000000000000000000000000000000000000000000000000000000
00000000000000000000000000000000000000000000000000000000000000000000000000000000000000000000000000000000000000000000000000000000000000000000000000000000000000000000000000000000000000000000000000000000
00000000000000000000000000000000000000000000000000000000000000000000000000000000000000000000000000000000000000000000000000000000000000000000001100000000000000000000000000000000000000000000000000000000
00000000000000000000000000000000000000000000000000000000000000000000000000000000000000000000000000000000000000000000000000000000000000000000001111100000000000000000000000000000000000000000000000000000
00000000000000000000000000000000000000000000000000000000000000000000000000000000000000000000000000000000000000000000000000000000000000000000001111111111100000000000000000000000000000000000000000000000
00000000000000000000000000000000000000000000000000000000000000000000000000000000001110000000000000000000000000000000000000000000000000000000011111111111110000000000000000000000000000000000000000000000
00000000000000000000000000000000000000000000000000000000000000000000000000000000001110000000000000000000000000000000000000000000000000000000011111111111111110001111110000000000000000000000000000000000
00000000000000000000000000000000000000000000000000000000000000000000000000000000000000000000000000000000000000000000000000000000000000000000111111111111111111011111111000000000000000000000000000000000
00000000000000000000000000000000000000000000000000111110000000000000000000000000000011100000000000000000000000000000000000000000000000000011111111111000111111111111111100000000000000000000000000000000
00000000000000000000000000000000000000000000001111111111111111100000000000000000011111100000000000000000000000000000000000000000000000000111111111110000011111111111111110000000000000000000000000000000
00000000000000000000000000000000000000000000111111111111111111111000000000000000011100000000000000000000111000000000000000000000000000000000111111110000111111111111111100000000000000000000000000000000
00000000000000000000000000000000000000000001111111111111111111111000000000000000000000000000000000000000111000000000000000000000000000000000011111111001111111111111111000000000000000000000000000000000
00000000000000000000000000000000000100000111111111111111111111111100000000000000000000000000000000000000000000000000000000000001111000000000000001111111111111111111111100000000000000000000000000000000
00000000000000000000000000000000001110000111111111111111111111111111100000111110000000000000000000000000000000000000000000011111111100000000000000000100111111111111111100000000000000000000000000000000
00000000000000000000000000111000111111001111111111111111111111101111110011111111100000000000000000000000000000111000000000111111111110000000000000000000111111111111111100000000000000000000000000000000
00000000000000000000000000100000011111111111111111000000001111101111111111111111000000000000000000000000000000111000000001111111111011100000000000000111111011111110111100000000000000000000000000000000
00000000000000000000000000000000011111111111111100000000000011111111111111111111000000000000000000000000000000000000000111111111110011100000000000000111110011111110111000000000000000000000000000000000
00000000000000000000000000000000001111111111100000000000000001111111111111110111100000000000000000000000000000000000001111111111110000000000000001001111000111111111110000000001110000000000000000000000
00000000000000000000000000000000000111111111000000000000000000011111111111100011100000000000000000000000000000000000001111111111110000000000000011111110000111011111110000000001110000000000000000000000
00000000000000000000000000000000000111111111100000000000011100011111111111000001100000000000000000000000000000000000011111111110000000000000000001111100001111011111100000000000000000000000000000000000
00000000000000000000000000000000000011111111100000000000011100001111110010000011100000000000000000000000000000000011111111111110000000000000010011111100011111111111100000000000000000000000000000000000
00000000000000000000000000000000000011111111000000000000000000001111110000000111100000000000000000000000000111000111111111111110000000000001111111000000111111111111000000000000000000000000000000000000
00000000000000000000000000000000000011111111001110000000000000001111111100000111100000000000000000000000000111000111111111111110000000000011000110000000111111111111000000000000000000000000000000000000
00000000000000000000000000000000000011111111101110000000000000001111111100000011100000000000000000000000000000001111100011111110000000001110000000000000011111111110000000000000000000000000000000000000
00000000000000000000000000000000000011111111100000000000000000001111111100000011100000000000000000000000000001111111000011111100000111111111000000000000111110111100000000000000000000000000000000000000
00000000000000000000000000000000000001111111100000000000000000001111111000001111100000000000000000000001110011111110000111111100000111111111100000000001111110111100000000000000000000000000000000000000
00000000000000000000000000000000000001111111110000000000000000011111111000101111100000000000000000000001111111111000001111111000000111111110000000000000011111111000000000000000000000000000000000000000
00000000000000000000000000000000000000111111111111000000000000011111111011111111100000000000000000000000011110010000011111110000001111111100000000001000011111111000000000000000000000000000000000000000
00000000000000000000000000000000000000111111111111000000000000111111111000001111100000000000000000000000011110000000011111100000011111110000000000011111111111110000000000000000000000000000000000000000
00000000000000000000000000111000000000001111111111000000000111111110010000001111100000000000000000000000111111000000111111100001111111100000000000111111111111110000000000000000000000000000000000000000
00000000000000000000000000001000000000000111111111100000011111111110000000000011100000000000000000000011111110000000111111100111111100000000000000111111111111100000000000000000000000000000000000000000
00000000000000000000000000000000000000001111111111111111111111111111000000000011110000000000000000000111111100000001111111101111110000000000000000111111111111000000000000000000000000000000000000000000
00000000000000000000000000000000000001111111111111111111111111111111000000000111110000000000000000000111111000000011111111111111100000000000000000011111111110000000000000000000000000000000000000000000
00000000000000000000000000000000001111111111111111111111111111111000000000000111100000000000000000000111110000000011111111111111000000000000000010011111111110000000000000000000000000000000000000000000
00000000000000000000000000000000111111111111111111111111111111110000000000000111000000000000000000000000000000000111111111111110000000000000000011111111111000000000000000000000000000000000000000000000
00000000000000000000000000000001111111111111111111111111111110000000000000000011100000000000000001111000000000000111111111001100000000000000000001111111110000000000000000000000000000000000000000000000
00000000000000000000000000000011111111111111111111111111111110000000000000000011100000000000000011111110000000001111111111000000000000000000000011111111110000000000000011000000000000000000000000000000
00000000000000000000000000000111111111111000000111111111111111000000000000000111100000000000000111111110000000001111011111100000000000000000011111111111110000000000000111000000000000000000000000000000
00000000000000000000000000001111111111100000000000011111111111100000000000000011100000000000001111111000000000011111011111110000000000001110111111111111100000000000000000000000000000000000000000000000
00000000000000000000000000011111111110000000000000000111111111100000000000000011100000000000000111110000000000011111111111110000000000001111111111111111110000000000000000000000000000000000000000000000
00000000000000000000000000010011111100000000000000000011111111110000000000000111110000000000001111100010111111111111111111100000000000000001111111111111111000000000000000000000000000000000000000000000
00000000000000000000000000011011100000000000000000000001111111110000000111000011111110000000111111111111111111111111111111000000000000000001110111111111111000000000000000000000000000000000000000000000
00000000000000000000000000011111100000000000000000000000111111111000000111000011111111000000111111111111111111111111111110000000000000000111110111111100000000000000000000000000000000000000000000000000
00000000000000000000000000111111110000000000011000000000011111111100011110001111111111000000011111111111111111111111110000111000000000001111111111111100000000000000000000000000000000000000000000000000
00000000000000000000000001111111110000000000011000000000011111111111111110001111110011000000111111111111111111111111000000111000000000011111111111111000000000000000000000000000000000000000000000000000
00000000000000000000000001111111110000000000000000000000011111111111111111101111110011100011111111111111111111111110000000000000000000111111111111110011100111000000000000000000000000000000000000000000
00000000000000000000000000111111111000000000000000000000011111111111111111111111110011100001111111001111100011111110000000000000000000111111111111110000000111000000000000000000000000000000000000000000
00000000000000000000000000111111111000000000000000000000011111111111111111111111111111100001111100000110000111111110000000000000000001111111111111100000000000000000000000000000000000000000000000000000
00000000000000000000000000111111111000000000000000000000011111111100111111111101111111111111111100011000000111111100000000000000000011111111111111100000000000000000000000000000000000000000000000000000
00000000000000000000000000011111111100000000000000000000111111111000000011111101111110111111111110000000000111111100000000000000000111111111110111000000000000000000000000000000000000000000000000000000
00000000000000000000000000011111111100000000000000000000111111111000000001111111111110011111110000000000001111111000000000000000001111111111110010000000000000000000000000000000000000000000000000000000
00000000000000000000000000001111111110000000000000000000111111111000000000001111111111100000000000000000001111000000000000000000011111111111111100000000000000000000000000000000000000000000000000000000
00000000000000000000000000001111111111000000000000000001111111110000000000000011111111000000000000000000001110000000000000000000011111111111111000000000000000000000000000000000000000000000000000000000
00000000000000000000000000000111111111000000000000000111111111110000000000000001111110000000000000000000001100000000000000000000111111111111000000000000000000000000000000000000000000000000000000000000
00000000000000000000000000000011111110011100000000001111111111100000000000000000011111000000000000000000000000000000000000000001111111111111000000000000000000000000000000000000000000000000000000000000
00000000000000000000000000000011111110111111111000011111111111100000000000000000001111111000000000000000000000000000000000000001111111111111000000000000000000000000000000000000000000000000000000000000
00000000000000000000000000000111111111111111111111111111111111000000000000000000000011111000000000000000000000000000000000000001111111111111000000000000000000000000000000000000000000000000000000000000
00000000000000000000000000000111111111111111111111111111011110000000000000000000000001111000000000000000000000000000000000000001110111000000000000000000000000000000000000000000000000000000000000000000
00000000000000000000000000000000001111100111111111111111011111000000000000000000000000011000000000000000000000000000000000000000000000000000000000000000000000000000000000000000000000000000000000000000
00000000000000000000000000000000000011000001111111111111111111111000000000000000000000001000000000000000000111000000000000000000000000000000000000000000000000000000000000000000000000000000000000000000
00000000000000000000000000000000000000000001111111111111110011111000000000000000000000000000000000000000000111000000000000000000000000000000000000000000000000000000000000000000000000000000000000000000
00000000000000000000000000000000000000000011111111111100000000000000000000000000000000000000000000000000000000000000000000000000000000000000000000000000000000000000000000000000000000000000000000000000
00000000000000000000000000000000000000000000000011110000000000000000000000000000000000000000000000000000000000000000000000000000000000000000000000000000000000000000000000000000000000000000000000000000
00000000000000000000000000000000000000000000000000000000000000000000000000000000000000000000000000000000000000000000000000000000000000000000000000000000000000000000000000000000000000000000000000000000
00000000000000000000000000000000000000000000000000000000000000000000000000000000000000000000000000000000000000000000000000000000000000000000000000000000000000000000000000000000000000000000000000000000
00000000000000000000000000000000000000000000000000000000000000000000000000000000000000000000000000000000000000000000000000000000000000000000000000000000000000000000000000000000000000000000000000000000
00000000000000000000000000000000000000000000000000000000000000000000000000000000000000000000000000000000000000000000000000000000000000000000000000000000000000000000000000000000000000000000000000000000
