P1
200 70
00000000000000000000000000000000000000000000000000000000000000000000000000000000000000000000000000000000000000000000000000000000000000000000000000000000000000000000000000000000000000000000000000000000
00000000000000000000000000000000000000000000000000000000000000000000000000000000000000000000000000000000000000000000000000000000000000000000000000000000000000000000000000000000000000000000000000000000
00000000000000000000000000000000000000000000000000000000000000000000000000000000000000000000000000000000000000000000000000000000000000000000000000000000000000000000000000000000000000000000000000000000
00000000000000000000000000000000000000000000000000000000000000000000000000000000000000000000000000000000000000000000000000000000000000000000000000000000000000000000000000000000000000000000000000000000
00000000000000000000000000000000000000000000000000000000000000000000000000000000000000000000000000000000000000000000000000000000000000000000000000000000000000000000000000000000000000000000000000000000
00000000000000000000000000000000000000000000000000000000000000000000000000000000000000000000000000000000000000000000000000000000000000000000000000000000000000000000000000000000000000000000000000000000
00000000000000000000000000000000000000000000000000000000000000000000000000000000000000000000000000000000000000000000000000000000000000000000000000000000000000000000000000000000000000000000000000000000
00000000000000000000000000000000000000000000000000000000000000000000000000000000000000000000000000000000000000000000000000000000000000000000000000000000000000000000000000000000000000000000000000000000
00000000000000000000000000000000000000000000000000000000111000000000000000000000000000000000000000000000000000000000000000000000000000000000000000000000000000000000000000000000000000000000000000000000
00000000000000000000000000000000000000000000000000000000111000000000000000000000000000000000000000000000000000000000000000000000000000000000111000000000000000000000000000000000000000000000000000000000
00000000000000000000000000000000000000000000000000000000000001110000000000000000000000000000000000000000000000000000000000000000000000000001111000000000000001110000000000000000000000000000000000000000
00000000000000000000000000000000000000000000000000000000000001111000000000000000000000000000000000000000000000000000000000000000000000000001100000000000000001110000000000000000000000000000000000000000
00000000000000000000000000000000000000000000000000000000000000111000000000000000000000011100000000000010000000000000000000000000000001110000000000000000001000000011000000000000000000000000000000000000
00000000000000000000000000000000000000000000001110000000000000010000000000000000000001111110000001111110000000000000000000000000000001110000011100000000001000001111000000000000000000000000000000000000
00000000000000000000000000000000000000000000001110000000000000111000000000000000000011111110000001110000000000000000000000000000000000100000011100000000000000011111000000000000000000000000000000000000
00000000000000000000000000000000000000000000000000000000000000111000000000000000000001111110000000000000000000000000000000000000000000110000000000000000000011111111000000000000000000000000000000000000
00000000000000000000000000000000000000000000000000000000000000000001110000000000000011111110000000000000000000000000000000000000000000110000000000000000001100111111000000000000000000000000000000000000
00000000000000000000000000000000000000000000000000000000000000000001110000000000011111111110000000000000000000000000000000001110000000000000000000000000011110111111000000000000000000000000000000000000
00000000000000000000000000000000000000000000000000000000000000000000000000000000111111111110000000000000000000001000000000001110000000000000000000000000111111111110000000000000000000000000000000000000
00000000000000000000000000000000000000011111111111110000000000000000000000000001110111111100000000000000000000111111000000000000000000000000000000000000111111111110000000000000000000000000000000000000
00000000000000000000000011100000000001111111111111111111000000000000000000000011100011111100000000000000000011111111110000000000000000000000000000000001111111111110000000000000000000000000000000000000
00000000000000000000000011100000000111111111110111111111110000000111000000000111110011101100000000000000000111111111110000000000000000000000000000000000111111111100000000000000000000000000000000000000
00000000000000000000000000000000001111111111100011111111111100000111000000001111110011101100000000000000001111111111111000000000000000000000000000000000111111111100000000000111000000000000000000000000
00000000000000000000000000000000001111111111000111111111111110000000000000001111000011111100000000000000011111111111111111000000000000000000000000000111111111111000000000000111000000000000000000000000
00000000000000000000000000000000001111111111101111111111111111000000000000001110000011111100000000000000011111111111111110000000000000000000000000000111111111111000000000000000000000000000000000000000
00000000000000000000000000000000011100111111111111111111111111100000000000000000000111111100000000010000111111111101111111000000000000000000000000000011111111111000000000000000000000000000000000000000
00000000000000000000000000000000000000011111111011111111111111110000000000000000000111111100000001110000111111110000111111100000000000000000000000000111111111111000000000000000000000000000000000000000
00000000000000000000000000000000000000011111100000011111111111110000000000000000000111111100000000000000111111100000011110010000000000000000000000011111111111111000000000000000000000000000000000000000
00000000000000000000000000000000011110001111000000000011111111111000000000000000000001111100000000000000111111000000001110110000000000000000000000011111111111111000000000000000000000000000000000000000
00000000000000000000000000000000011111011111000000000001111111111000000000000000000001111100000000000000111110000000001111110000000000000000000000001111111111110000000000000000000000000000000000000000
00000000000000000000000000000000011111111111000000000011111111111000000000000000000111111100000000000001111111000000001111110000000000000000000000011111111111100000000000000000000000000000000000000000
00000000000000000000000000000000001111111111100000000011111111111100000000000000000111111100000000000011111110000000001111110000000000000000000011111111111111100000000000000000000000000000000000000000
00000000000000000000000000000000000111011111110000000011111111011100000000000000000111111000000000000011111110000000011111110000000000000000000011111111111111110000000000000000000000000000000000000000
00000000000000000000000000000000000010011111111110011111111111011100000000000000000111111000000000000001111111000000011111100000000000000000000111110111111111110000000000000000000000000000000000000000
00000000000000000000000000000000000000111111111111111111111111111000000000000000000011100000000000000001111110000000011111100000000000000000001111100111111111100000000000000000000000000000000000000000
00000000000000000000000000000000000000111111111111111111111111111000000000000000000111100000000000000001111110000000111111100000000000000000001111100111111111100000000000000000000000000000000000000000
00000000000000000000000000000111000000000111111111111111111111110000000000000000000111111000000000000001111111000001111111100000000000000000011111001111111111100000000000000000000000000000000000000000
00000000000000000000000000000111011111100111011111111101111111110000000000000000000111111000000000000001111111100111110111100000000000000000011110001111111111000000000000000000000000000000000000000000
00000000000000000000000000000000011111111111011111111001111111111000000000000000000111110000000000000000111111111111110111000000000000000000111110001111111111000000000000000000000000000000000000000000
00000000000000000000000001110000001111111111111111100111111111111111111111000000001111110000000000000000111111111111111111000000000000000001111100001111111111000000000000000000000000000000000000000000
00000000000000000000000001110000000111111111111111000111111111111011111111111111111111111100000000000001111111111110011111000000000000000011111100011111111110000000000000000000000000000000000000000000
00000000000000000000000000000000000011111111111111100111111111111011111111111111111111001111111111111111111011111110001111000000000000000111111000011111111111000000000000011100000000000000000000000000
00000000000000000000000000000000000001111111111110000000001111111111111111111100111111000011111111111111111011101100011111111110000000001111111000111111111111000000000000011110000000000000000000000000
00000000000000000000000000000000000001111111111110000000000011111111111110000000011111110001111111111111111111101110111111111111111111111111111111111111111111111111111000000111000000000000000000000000
00000000000000000000000000000000000001111111111110000000000001111111111110000000001111110000011111111111111111111111111111011111111111111111111111111111100111111111111000000011000000000000000000000000
00000000000000000000000000000000000001111111111110000000000001111111111111000000000111111000000000000000000000011111111110001111100011111111111111111110000111111111111000000000000000000000000000000000
00000000000000000000000000000000000001111111111110000000000000111111111111000000001111111000000000000001100000001111111100000000000001111001111111111110011111111111111000000000000000000000000000000000
00000000000000000000000000000000000000111111111111000111000000001111111111100000001111111110000000001111100000000111111000000000000001110000000001111111111110000000000000000000000000000000000000000000
00000000000000000000000000000000000001111111111111000111001110000111111011100000011111100110011100011111100000000011110000000000000011111000000001111111111111110000000000000000000000000000000000000000
00000000000000000000000000000000000011111111111111000000001110001111111011110001111111100000000100011111110000100111100000000000000111111000000001111111111111111100000000000000000000000000000000000000
00000000000000000000000000000000000011111111111110011100000000011111111111110001111111111000000000111111111001111111000000000000000111110000000011111110111111111000000000000000000000000000000000000000
00000000000000000000000000000000000000001111111110111111100011111111111111111000011111111000000000011111111111111110000000000000000111111111111111111110111111111000000000000000000000000000000000000000
00000000000000000000000000000000000000000111111111111111111111111111111101111000001111111000000000011111111111111111000000000000001110011111111111111111111111110000000000000000000000000000000000000000
00000000000000000000000000000000000000000111111111111011111111111111111000111000001111111000000000011111111111111110000000000000011110111111111111101111111111000000011100000000000000000000000000000000
00000000000000000000000000000000000000000000011111111011111111111011110001111000001111111000000000011111111111111100000000000000111111111111111111101111110000000000011100000000000000000000000000000000
00000000000000000000000000000000000000000000001111111111111111111011111011111100011111110000000000000011111111111000000000000000111111111111000111111111110000000000000000000000000000000000000000000000
00000000000000000000000000000000000000000000000111111111111111111111111111111111111111110000000000000011111111110011100000000000011100000000000111101111110000000000000000000000000000000000000000000000
00000000000000000000000000000000000000000000000000000011111111111111111111111111111111100111111100000111111111000111100000000000000000000000000111101111110000001110000000000000000000000000000000000000
00000000000000000000000000000000000000000000000000000001111111111111111111111111111111100111111100000001111100001111000000000000000000000000000111111111100000001110000000000000000000000000000000000000
00000000000000000000000000000000000000000000000000000000000001000001110000011111111111111001111100000000000000001110000000000000000000000000000111111111100000000000000000000000000000000000000000000000
00000000000000000000000000000000000000000000000000000000000000000000000000000000001000111000111100000000000000000000000000000000000000000000000011111111000000000000000000000000000000000000000000000000
00000000000000000000000000000000000000000000000000000000000000000000000000000000000000000000111100000000000000000000000000000000000000000011100111111111001100000000000000000000000000000000000000000000
00000000000000000000000000000000000000000000000000000000000000000000000000000000000000000000000000000000000000011100000000000000000000001111111111111111001110000000000000000000000000000000000000000000
00000000000000000000000000000000000000000000000000000000000000000000000000000000000000000000000000000000000000011100000000000000000000001111111111111111011110000000000000000000000000000000000000000000
00000000000000000000000000000000000000000000000000000000000000000000000000000000000000000000000000000000000000000000000000000000000000001111111111111111111110000000000000000000000000000000000000000000
00000000000000000000000000000000000000000000000000000000000000000000000000000000000000000000000000000000000000000000000000000000000000001111111111111111111100000000000000000000000000000000000000000000
00000000000000000000000000000000000000000000000000000000000000000000000000000000000000000000000000000000000000000000000000000000000000000000000000000000000000000000000000000000000000000000000000000000
00000000000000000000000000000000000000000000000000000000000000000000000000000000000000000000000000000000000000000000000000000000000000000000000000000000000000000000000000000000000000000000000000000000
00000000000000000000000000000000000000000000000000000000000000000000000000000000000000000000000000000000000000000000000000000000000000000000000000000000000000000000000000000000000000000000000000000000
00000000000000000000000000000000000000000000000000000000000000000000000000000000000000000000000000000000000000000000000000000000000000000000000000000000000000000000000000000000000000000000000000000000
