P1
200 70
00000000000000000000000000000000000000000000000000000000000000000000000000000000000000000000000000000000000000000000000000000000000000000000000000000000000000000000000000000000000000000000000000000000
00000000000000000000000000000000000000000000000000000000000000000000000000000000000000000000000000000000000000000000000000000000000000000000000000000000000000000000000000000000000000000000000000000000
00000000000000000000000000000000000000000000000000000000000000000000000000000000000000000000000000000000000000000000000000000000000000000000000000000000000000000000000000000000000000000000000000000000
00000000000000000000000000000000000000000000000000000000000000000000000000000000000000000000000000000000000000000000000000000000000000000000000000000000000000000000000000000000000000000000000000000000
00000000000000000000000000000000000000000000000000000000000000000000000000000000000000000000000000000000000000000000000000000000000000000000000000000000000000000000000000000000000000000000000000000000
00000000000000000000000000000000000000000000000000000000000000000000000000000000000000000000000000000000000000000000000000000000000000000000000000000000000000000000000000000000000000000000000000000000
00000000000000000000000000000000000000000000000000000000000000000000000000000000000000000000000000000000000000000000000000000000000000000000000000000000000000000000000000000000000000000000000000000000
00000000000000000000000000000000000000000000000000000000000000000000000111000000000000000000000000000000000000000000000000000000000000000000000000000011100000001110000000000000000000000000000000000000
00000000000000000000000000000000000000000000000000000000000000000000000111000000000000000000000000000000000000000000000000000000000000000000000000000011101110001110000000000000000000000000000000000000
00000000000000000000000000000000000000000000000000000000000000000000000000000000000000000000000000000000000000000000111000000000000000000000000000000000001110000000000000000000000111000000000000000000
00000000000000000000000000000000000000000000000000000000000000000000000000000000000000000000000000000000000000000000111000000000000000000000000000000000000000000000000000000000000111000000000000000000
00000000000000000000000000000000000000000000000000000000000000000000001100000000000000000000000000000000000000000000000000000000000001100000000000000000000000000000000000000000000000000000000000000000
00000000000000000000000000000000000000000000000000000000000000000000011100000000000000000000000000000000000000000000000000000000000001100000000000000000000000000000000000000000000000000000000000000000
00000000000000000000000000000111000000000000000000000000000000000011111110001100000000000000000000000000000000000000000000000000000000000110000000000000000000000000000000000000000000000000000000000000
00000000000000000000000000000111000000000000000000000000000000000010011111111111111100000000000000000000000000000000000000000111000000000010000000000000000000000000100000000000000000000000000000000000
00000000000000000000000000000000000000000000000000000000111000000000001111111111111100000000000000000000000000000000000000000111000000000000000000000000000000000001110000000000000000000000000000000000
00000000000000000000000000000000000000000000000000000000111000000000011111111111111000000000000000000000000000000000000000000000000111111001110000000000000000000011111100000000000000000000000000000000
00000000000000000000000000000000000000000000000000000000000000000000000001111111111000000000000000000000000000000000000000000010001111111111110000000000000000000011111000000000000000000000000000000000
00000000000000000000000000000000000000000001110011000000000000000000000000001111111000000000000000000000000000000000000000001111111111111111100001101000000000000111110000000000000000000000000000000000
00000000000000000000000000000000000000011111100011111100000000000000000000001111110000000000000000000000000000000000000000001111111111111111100011111111111100001110000000000000000000000000000000000000
00000000000000000000000000000000000011111111110111111111000000000000000000001111110000000000000000000000000000000000000000001111111111111110000111111111111111111100000000000000000000000000000000000000
00000000000000000000000000000000000111111111111111111111110000000000000000001111110000000000000000000000000000000000001111000110000011111110000111111111111111111110000000000000000000000000000000000000
00000000000000000000000000000000000111111111111111111111111000000000000000001111110000000000000000000000000000000000011111000000000001110110000011111111111111111111100000000000000000000000000000000000
00000000000000000000000000000000001111111111111011111111111000000000000000001111110000000000000000000000000000000000111111100000000001110111000111110111111111111111100000000000000000000000000000000000
00000000000000000000000000000000011111011110000000111111111100000000000000001111110000000000000000000000000000000001111111000000000001111111000111110001011111111111100000000000000000000000000000000000
00000000000000000000111000011000011111011100000000000111111110000000000000011110010000000000000000000001110000000011111110000000000001111111001111111000001111111111100000000000000000000000000000000000
00000000000000000000111000111000011111111000000000000011111110000000000000011110110000000000000000000001110000000011111100000000000000011110001111011000001111100000000000000000011100000000000000000000
00000000000000000000000000000000011111110000000000000011111111000000000000011111110000000000000000000000000000000111111000000000000010001100000111011000011111000000000000000000011100000000000000000000
00000000000000000000000000000000011111110000000000000001111111000000000000011111110000000000000000000000000000011111110000000000000011000100000111111000111110000000000000000000011100000000000000000000
00000000000000000000000000000000011111110000000000000001111111000000000000011111110000000000000000000000000000111111110000000000000111101100001111111111111100000000000000000011100000000000000000000000
00000000000000000000000000000000011111110000000000000011111111000000000000011111100000000000000000000000000001111111000000000000000111111100001110111111111000000000000000000011100000000000000000000000
00000000000000000000000000000000011111110000000000000011111110000000000000011111100000000000000000000000000001111110000000000000000111111100001100011111111000000000000000000000000000000000000000000000
00000000000000000000000000000000011111110000000000000000111100000000000000011111100000000000000000000000000011111111000000000000001111111000001110001101111100000000000000000000000000000000000000000000
00000000000000000000000000000000001111111000000000001100111100000000000000001111100000000000000000000000000011111110000000000000001111111000000111011000111111100000000000000000000000000000000000000000
00000000000000000000000000000000000111111100000001111111111000000000000000001111100000000000000000000000000111111110000000000000001111111000001111111100011111111000000000000000000000000000000000000000
00000000000000000000000000000000000011111111110111111111100000000000000000011111110000000000000000000000000111111100000000000000000011111000001111111110111101111110000000000000000000000000000000000000
00000000000000000000000000000000000001111111111111111111100000000000000000011111111100000000000000000000001111111000011100000000000000110000011111111111111101111111000000000000000000000000000000000000
00000000000000000000000000000000001000111111111111111100000000000000000000111111111100000000000000000000001111011000000000000000111100010001111111111111111111111111100000000000000000000000000000000000
00000000000000000000000000000000011111111111111111111000000000000000000000111111110000000000000000111000001111001000000000000001111111111111111111110000000011111111110000000000000000000000000000000000
00000000000000000000000000000000011111100111111111110000000000000000000000111111100000000000000000111000001111111000000000000011111111111111100000000000000001111100001000000000000000000000000000000000
00000000000000000000000000000000111111100001111111111000000000000000000000111111100000000000000000000000011111111000000000001111111111111111000000000000000000011100011100000000000000000000000000000000
00000000000000000000000000000000111111110000000001111110000000000000000000111111100000000000000000000000011111011000000000011111111111111110000000000000000000001111111100000000000000000000000000000000
00000000000000000000000000000000111111111110000000111111000000000000000001111111000000000000000000000000001111011100000011111111111111110000000000000000000000000111111100000000000000000000000000000000
00000000000000000000000000000001111111111111110000011111100000000000000001111111000000001110000000000000011111111111110001111111111111000000000000000000000000000111111110000000000000000000000000000000
00000000000000000000000000000001111111111111100000011111100000000000000000111111000000001110000000000000111111111111111011111111111110000000000000000000000000000111111110000000000000000000000000000000
00000000000000000000000000000011111110000111110011111111000000000000000000111110000000000000000000000001111011111111111111111111111100000000000000000000011100000111111110000000000000000000000000000000
00000000000000000000000000000011111100000000111111111111000000000000000000111110000000000000000000000001110000111111111111111111111100000000000000000000011100000011111110000000000000000000000000000000
00000000000000000000000000000111111100000000001111111111110000000000000000111111110000000000000000000000000001111111111111111111111000110000000000000000000000000011111110000000000000000000000000000000
00000000000000000000000000000111111100000000000000111111111111000000000000111111110000000000000000001100011111111111111111111111110000111000000000000000000000000011111110000000000000000000000000000000
00000000000000000000000000000011111000000000000000011111111111111110000001111111110000000000111111111111111111111100000000111111110000000000000000000000000000000011111100000000000000000000000000000000
00000000000000000000000000000011111000000100000110011111110001001111111111111111111111111111111111110111111111000000000001111111100000000000000000000000000000000111111100000000000000000000000000000000
00000000000000000000000000000111011000011100000000011111100000000111111111111111111111111111111111110011111000000000000001111111000000000000000000000000000000001111111100000000000000000000000000000000
00000000000000000000000000000111011100000000000000111000100010000111111111111111111011111111110001111100000000000000000011111110000000000000011000000000000000011111111100000000000000000000000000000000
00000000000000000000000000000011111100000000000000000000000011101111111111111111110001111100000001111100000000000000000111111100000000000000111111000000000000001111111011100000000000000000000000000000
00000000000000000000000000000011111110000000000011100111000000011111111111111111100011111000000011111100000000000000011111110000000000000000111111111110001111101111100011100000000000000000000000000000
00000000000000000000000000000011111111000000000011111110000000011111111111111111100011100000000011111100000000000000111111100000000000000000111111111111001111111111100000000000000000000000000000000000
00000000000000000000000000000001111111111100100111111100000000011111111111110000000000000000000111111100000000000111111111000000000000000000111111111111110001111111000000000000000111000000000000000000
00000000000000000000000000000000111100111111111111111000000000011111110000000000000000000000001111111111111111111111111110000000000000000000011111111111111001111110000000000000000111000000000000000000
00000000000000000000000000000000111100001111111111100000000000000000000000000000000111000000000111111111111111111111111000000000000000000000001111111111111111110000000000000000000000000000000000000000
00000000000000000000000000000000011110000111111110000000000000000000000000000000000111000000000000111111111111111111100000000000000000000000000000111101111001000000000000000000000000000000000000000000
00000000000000000000000000000000001111001111111100000000000000000000000000000000000000000000000000000010001111111100000000000000000000000000000000000000000000000000000000000000000000000000000000000000
00000000000000000000000000000000000011111111110000000000000000000000000000000000000000000000000000000000000000000000000000000000000000000000000000000000000000000000000000000000000000000000000000000000
00000000000000000000000000001110000000111111000000000000000000000000000000000000000000000000000000000000000000000000000000000000000000000000000000000000000000000000011000000000000000000000000000000000
00000000000000000000000000001110000000000000000000000000000000000000000000000000000000000000000000000000000000000000000000000000000000000000000000000000000000000000011000000000000000000000000000000000
00000000000000000000000000000000000000000000000000000000000000000000000000000000000000000000000000000000000000000000000000000000000000000000000000000000000000000000000000000000000000000000000000000000
00000000000000000000000000000000000000000000000000000000000000000000000000000000000000000000000000000000000000000000000000000000000000000000000000000000000000000000000000000000000000000000000000000000
00000000000000000000000000000000000000000000000000000000000000000000000000000000000000000000000000000000000000000000000000000000000000000000000000000000000000000000000000000000000000000000000000000000
00000000000000000000000000000000000000000000000000000000000000000000000000000000000000000000000000000000000000000000000000000000000000000000000000000000000000000000000000000000000000000000000000000000
00000000000000000000000000000000000000000000000000000000000000000000000000000000000000000000000000000000000000000000000000000000000000000000000000000000000000000000000000000000000000000000000000000000
00000000000000000000000000000000000000000000000000000000000000000000000000000000000000000000000000000000000000000000000000000000000000000000000000000000000000000000000000000000000000000000000000000000
