P1
200 70
00000000000000000000000000000000000000000000000000000000000000000000000000000000000000000000000000000000000000000000000000000000000000000000000000000000000000000000000000000000000000000000000000000000
00000000000000000000000000000000000000000000000000000000000000000000000000000000000000000000000000000000000000000000000000000000000000000000000000000000000000000000000000000000000000000000000000000000
00000000000000000000000000000000000000000000000000000000000000000000000000000000000000000000000000000000000000000000000000000000000000000000000000000000000000000000000000000000000000000000000000000000
00000000000000000000000000000000000000000000000000000000000000000000000000000000000000000000000000000000000000000000000000000000000000000000000000000000000000000000000000000000000000000000000000000000
00000000000000000000000000000000000000000000000000000000000000000000000000000000000000000000000000000000000000000000000000000000000000000000000000000000000000000000000000000000000000000000000000000000
00000000000000000000000000000000000000000000000000000000000000000000000000000000000000000000000000000000000000000000000000000000000000000000000000000000000000000000000000000000000000000000000000000000
00000000000000000000000000000000000000000000000000000000000000000000000000000000000000000000000000000000000000000000000000000000000000000000000000000000000000000000000000000000000000000000000000000000
00000000000000000000000000000000000000000001110000000000000000000000000000000000000000000000000000000000000000000000000000000000000000000000000000000000000000000000000000000000000000000000000000000000
00000000000000000000000000000000000000000001000000000000000000000000000000000000000000000000000000000000000000000000000000000000000000000000000000000000000000000000000000000000000000000000000000000000
00000000000000000000000000000000000000000000000000000000000000000001100000000000000001110000000000000000000000000000000000000000000000000000000000000000000000000000000000000000111000000000000000000000
00000000000000000000000000000000000000000000000000000000011100000001110000000000000001111000000000000000000000000000000000000000000000000000000000000000000000000000000000000000100000000000000000000000
00000000000000000000000000000000000000000000000000000000011100000000000000000000000011111000111000000000000000000000000000000000000000000000000000000000000000000001100000000000000000000000000000000000
00000000000000000000000000000000000000000000000000000000000000000000000000000111111111110011111100011000000000000000000000000011111111111111111100000000000000000111100000000000000000000000000000000000
00000000000000000000000000000000000000000000000000000000000000000000001111111111111111110111111110111100000000000000000011000100111111111111111100011111111000000111000000000000000000000000000000000000
00000000000000000000000000000000000000000000000000000000000000000000011111111111111111111111111111111000000000000111111111111110111111111111111110011111111111000000000000000000000000000000000000000000
00000000000000000000000000000000000000000000000000000000010000000001111111111111111111111111111111111000000111111111111111001111111111111111111111100011111111111100000000000000000000000000000000000000
00000000000000000000000000000000000000000000000000000111111100000111111111111111100111111111111111111111001111111111101111000000000000000000000000000001111111111111100000000000000000000000000000000000
00000000000000000000000000000000000000001110000000001111111110000111110111111111000011111111111111111111111111111111101111100000000000000000000000000011111111111111111100000000000000000000000000000000
00000000000000000000000000000000000000001110000000111111111111000111110111000111000011111111111111111111111000011111111111110000000000000000000000000111111111111111111100000000000000000000000000000000
00000000000000000000000000000000000000000000000001111111111110000111111111000000000011111111111111111111000000011111111111110000000000000000000001110011111111111111111000000000000000000000000000000000
00000000000000000000000000000000000000000000000110011111111111000111111111100000000011111111111111111100000000011111111111110000000000000010000011110001110011111111001000000000000000000000000000000000
00000000000000000000000000000000000000000000001110001111111111000111111111100000000001111111111111111100000000011011111111110011000000000111100011110000000011111110000000000000000000000000000000000000
00000000000000000000000000000000000000000000011111000111111111000111111000000000000001111111111111111000000000111011111000111111100000001111000011110000000011111110000000000000000000000000000000000000
00000000000000000000000000000000000000000000011100001111111111000111110000000000000001111111111111111000000000111111110000011111100000001110000011110000000011101111000000000000000000000000000000000000
00000000000000000000000000000000000000000001111100111111111100000111100000000001110011111111111111111000000000111111100000000111110000000000000001110000000001101111100000000000000000000000000000000000
00000000000000000000000000000000000000000011111111111111111100000011000000000111111111111111111111111000000000111111100000000011111000000000000001110000000001111111100000000000000000000000000000000000
00000000000000000000000000000000000000000011111111110011111110000000000000111111111100111111111111111000000000111011100000000011111100000000000011110000000001111111100000000000000000000000000000000000
00000000000000000000000000000000000000000111111000000011111110000000000011111111100000011111111111111000000000110001100000000001111100000000000011110000000001111111100000000000000000000000000000000000
00000000000000000000000000000000000000000111110000000011111100000000000111111110000000011111111111110000000000100011000000000001111100000000000011110000000001111110000000000000000000000000000000000000
00000000000000000000000000000000000000001111111000000011111100000000011111110000000000011111111111110000000000000111000000000000111110000000000001100000000001000100000000000000000000000000000000000000
00000000000000000000000000000000000000001111111000000011111100000001111111000000000000011111111111100000000000011111000000000000111110000000000000000000000001000001100000000000000000000000000000000000
00000000000000000000000000000000000000011111111000000011111000000111111100000000000000100111111111000000000000111111000000000000111111000000000000000000000001100011100000000000000000000000000000000000
00000000000000000000000000000000000000011111111000000111111000001111110000000000000000110011111111000000000000111111011100000000111110000000000000000000000001111111000000000000000000000000000000000000
00000000000000000000000000000000000000011111111000001111111100111111100000000000000001111100001111000000000000111111000000000000111111000000000000000000000011111111000000000000000000000000000000000000
00000000000000000000000000000000000000011111111000011111111111111111000000000000000001111110000110000000000000111111000000000000011111000000000000000000000011111111000000000000000000000000000000000000
00000000000000000000000000000000000000011111111100011111111111111100000000000000000011111111000100000000000000011111000000000000011111000000000000000000000011111111000000000000000000000000000000000000
00000000000000000000000000000000000000011111111110111111111111111000000000000000000100111111110000000000000000011111000000000000111110000000000000000000001111111110000000000000000000000000000000000000
00000000000000000000000000000000000000011111111111111111111111110000000000000000000110111111110000000000000000001111000000000000111111000000000000000000001111111100000000000000000000000000000000000000
00000000000000000000000000000000000000011111111111111111111111100000000000000000001111111111100000000000000111111111000000000000111111000000000000000000000111101100000000000000000000000000000000000000
00000000000000000000000000000000000000011111111111111111101111100000000000000000111111111111000000000000000111111111000000000000011111000000000000000000000111100100000000000000000000000000000000000000
00000000000000000000000000000000000000111111111111111111101111100000000000000001111111111110000000000000000000011111000000000000011110000000000000000000001111110000000000000000000000000000000000000000
00000000000000000000000000000000000000111111111111111111111111110001110000000001111111110000000000011100000000011111000000000000111110000000000000000000001111110000000000000000000000000000000000000000
00000000000000000000000000000000000000000001111111111001111111100001110000000000111111100000000000000100000000001111000000000000111110000000000000000000011111110000000000000000000000000000000000000000
00000000000000000000000000000000000000000001111111110000111111100000000000011001111110000000000000000000000000000011000000000000111110000000000000000000011111100000000000000000000000000000000000000000
00000000000000000000000000000000000000000011111111110001111100100000000001111111111100000000000000000000000000000001100000000001111110000000000000000000111111000000000000000011000000000000000000000000
00000000000000000000000000000000000000000111111111111001111100100000000011111111110000000000000111110000000000000001100000000001111100000000000000000001111110000000000000000111000000000000000000000000
00000000000000000000000000000000000000001111111000111001111111100000000111111111100000000000000111111100000000000011100000000011111100000000000000000011111100000000000000000000000000000000000000000000
00000000000000000000000000000000000000001111110000000001111111100000001111111110000000000000001111111100000000000011110000000011111000000000000000011111111000000000000000000000000000000000000000000000
00000000000000000000000000000000000000011111111000000001111111000000000111111100000000000000001111111000000000000111110000000011110000000000000000011111110000000011111111000000000000000000000000000000
00000000000000000000000000000000000011111111111000000000111110000001110111111100000000000000001111110000000000000011111000000111111000000000000000001111111001111111111111000000000000000000000000000000
00000000000000000000000000000000001111111111111000000001111110000001111111111111111000111111111111110000000000000001111100001111011000000000000000011111111110000011111000000000000000000000000000000000
00000000000000000000000000000000011111111111111000000111111110000001111111111111111101111111111111110000000000000000111111011111001000000000000000011111110111000011110000000000000000000000000000000000
00000000000000000000000000000000100000111111111100000111111100000001111111111111111111111111111111110000000000000000001111111111110000000000000000001111110111111111110011000000000000000000000000000000
00000000000000000000000000000000000000011111111111001111111000000001111111111111111111111111111111100000000000000000000111111111110000000000000000000111111111111111111000100000000000000000000000000000
00000000000000000000000000000000011100011111111111111111110001110001111111111111111111111111101111100000000000000000001111111111100000000000000000000111111111111111111000000000000000000000000000000000
00000000000000000000000000000000001111111111111111111111100001110001111111111111111111111111101111100000000000000000000111111111000000000000000000000111111100111100000000000000000000000000000000000000
00000000000000000000000000000000000011111111111111111111000000000001111111111111111111111111111111100000000000000000000000111100000000000000000000000000000000000000000000000000000000000000000000000000
00000000000000000000000000000000000000011111111111111000000000000000001111111111111111111111111111100000000000000000000000000000000000000000000001110000000000000000000000000000000000000000000000000000
00000000000000000000000000000000000000001111111111110000000000000000000000110001111110011111111111100000000000000000000000000000000000000000000001110000000000000000000000000000000000000000000000000000
00000000000000000000000000000000000000001111111111110000000000000000000000111000000100000000001111100000000000000000000000000000000000000000000000000000000000000000000000000000000000000000000000000000
00000000000000000000000000000000000000000111111110000000000000000000000000111000000000000000000000000000000000000000000000000000000000000000000000000000000000000000000000000000000000000000000000000000
00000000000000000000000000000000000000000001111100000000000000000000000000000000000000000000000000000000000000000000000000000000000000000000000000000000000000000000000000000000000000000000000000000000
00000000000000000000000000000000000000000000000000000111000000000000000000000000000000000000000000000000000000000000000000000000000000000000000000000000000000000000000000000000000000000000000000000000
00000000000000000000000000000000000000000000000000000111000000000000000000000000000000000000000000000000000000000000000000000000000000000000000000000000000000000000000000000000000000000000000000000000
00000000000000000000000000000000000000000000000000000000000000000000000000000000000000000000000000000000000000000000000000000000000000000000000000000000000000000000000000000000000000000000000000000000
00000000000000000000000000000000000000000000000000000000000000000000000000000000000000000000000000000000000000000000000000000000000000000000000000000000000000000000000000000000000000000000000000000000
00000000000000000000000000000000000000000000000000000000000000000000000000000000000000000000000000000000000000000000000000000000000000000000000000000000000000000000000000000000000000000000000000000000
00000000000000000000000000000000000000000000000000000000000000000000000000000000000000000000000000000000000000000000000000000000000000000000000000000000000000000000000000000000000000000000000000000000
00000000000000000000000000000000000000000000000000000000000000000000000000000000000000000000000000000000000000000000000000000000000000000000000000000000000000000000000000000000000000000000000000000000
00000000000000000000000000000000000000000000000000000000000000000000000000000000000000000000000000000000000000000000000000000000000000000000000000000000000000000000000000000000000000000000000000000000
