P1
200 70
00000000000000000000000000000000000000000000000000000000000000000000000000000000000000000000000000000000000000000000000000000000000000000000000000000000000000000000000000000000000000000000000000000000
00000000000000000000000000000000000000000000000000000000000000000000000000000000000000000000000000000000000000000000000000000000000000000000000000000000000000000000000000000000000000000000000000000000
00000000000000000000000000000000000000000000000000000000000000000000000000000000000000000000000000000000000000000000000000000000000000000000000000000000000000000000000000000000000000000000000000000000
00000000000000000000000000000000000000000000000000000000000000000000000000000000000000000000000000000000000000000000000000000000000000000000000000000000000000000000000000000000000000000000000000000000
00000000000000000000000000000000000000000000000000000000000000000000000000000000000000000000000000000000000000000000000000000000000000000000000000000000000000000000000000000000000000000000000000000000
00000000000000000000000000000000000000000000000000000000000000000000000000000000000000000000000000000000000000000000000000000000000000000000000000000000000000000000000000000000000000000000000000000000
00000000000000000000000000000000000000000000000000000000000000000000000000000000000000000000000000000000000000000000000000000000000000000000000000000000000000000000000000000000000000000000000000000000
00000000000000000000000000000000000000000000000000000000000000000000000000000000000000000000000000000000000000000000000000000000000000000000000000000000000000000000000000000000000000000000000000000000
00000000000000000000000000000000000000000000000000000000000000000000000000000000000000000000000000000000111000000000000000000000000000000000000000000000000000000000000000000000000000000000000000000000
00000000000000000000000000000000000000000000000000000000000000000000000000000000000000000000000000000000111000000000000000000000000000000000000000000000000001110000000000000000000000000000000000000000
00000000000000000000000000000000000000000111000000000001110000000000001000000000000000000000000000000000000000000000000000000000000000000000000000000111000001110000000000000000000000000000000000000000
00000000000000000000000000000000000000000000000000000001110000000000111000000000000000000000000000000000000000000000000000000000000000000000000000000000000000000000000000000000000000000000000000000000
00000000000000000000000000000000000000000000000000000000000000000000000000000000000000000000000000000000000000000000000001111111100000000000000001110000000000000000000000000000000000000000000000000000
00000000000000000000000000000000000000000000001110000000000000000000000000000000000000000000000000000000000000000001111111111111110010000000000001111111100000000000000000000000000000000000000000000000
00000000000000000000000000000000000000000000001110000000000000000000000000000000000000000000000000000000000000000111111011111111111111000001110001111111100011100000000000000000000000000000000000000000
00000000000000000000000000000000000000000000000000000000000000000000000000000000000000000000000000000000000000011111111001111111111111100001110001111111110011100000000000000000000000000000000000000000
00000000000000000000000111000000000000000000000000000000000000000000000000000000000000000000000000000000000001111111111100000111111111110000000001111111110000000000000000000000000000000000000000000000
00000000000000000000000111000000000000000000000111111100000000000000000000011100011000000000000000000000000011111110111100000011111111110000000001111111110000000000000000000000000000000000000000000000
00000000000000000000000000000000000000000000011111111111000000000000000000111110111111000000000000000000000111111110111000000011111111111000000011111111110000000000000000000000000000000000000000000000
00000000000000000000000000000000000000000000111011111111100011100000000001111111111111111000011111111000111111111111111000000011111111111000000111111111110000000000000000000000000000000000000000000000
00000000000000000000000000000000000000000000111011111111111111100000000001111111111111111111111111111111111111111111111110000111111111111000001111001111110000000000000000000000000000000000000000000000
00000000000000000000000000000000000000000000111111111100011111000000000001110111111111111111101111111111111111111111111111111111111011111000011111000111110000000000000000000000000000000000000000000000
00000000000000000000000000000000000000000001111111110000001000100000000011110011111111111111100111111111111111011111111111111111110011111000111111100111111000000000000000000000000000000000000000000000
00000000000000000000000000000000000000000001111111110000000000110000000011111100111111111111110000000000111111011111100011111111100111111111111111111111111000000000000000000000000000000000000000000000
00000000000000000000000000000000000000000001111111110000000001111100000111111110011100011111111000000000011111111111100000001111101111111111111110111111111000000000000000000000000000000000000000000000
00000000000000000000000000000000001110000000111111110000000001111110001111111111100000000111111100000000011111111111000000000111111111111111111110111101110000000000000000000000000000000000000000000000
00000000000000000000000000000000001110000000111111111000000001111111111111111111000000000011111110000000111111111111000000001111111111111111111111111101110000000000000000000000000000000000000000000000
00000000000000000000000000000000000000000000111111111000000000011111111110011110000000000001111111000000111111111111000000001111111111110000111111111111111000000000000000000000000000000000000000000000
00000000000000000000000000000000000000000000111111111100000000011111111100000010000000000000111111000000111111111111000000001111111111000000001111111111111000000000000000000000000000000000000000000000
00000000000000000000000000000000000000000000011111111100000001111111110000000000000000000000111111100000111111111111000000001111111111000000000011111111111000000000000000000000000000000000000000000000
00000000000000000000000000000000000000000000011111111110000111111111100000000000000000011100011111100000011011111111000000011111111111100000000000111111111100000000000000000000000000000000000000000000
00000000000000000000000000000000000000000000011111111111011111111111100000000000000000000000011111100000010011111110000000011111111111000000000000011111111110000000000000000000000000000000000000000000
00000000000000000000011100000000000000000000001111111101111111111111111100000000000000000001111101100000011111111110000000011101111111000000000000001111111111000000000000000000000000000000000000000000
00000000000000000000011100000000000000000000000111111101111111111111111100000000000000000001111101110000011111111110000000111101111111000000000000011111111111110000000000000000000000000000000000000000
00000000000000000000000000000000000000000000000011111111111111111100111000000011100000000000011111110000011111111110000000111111111110000000000000011111111111111100000000000000000000000000000000000000
00000000000000000000000000000000000000000000000011111111011111100000111000000011100000000000001111110000011111111111000001111110111100000000000000011111111111111110000000000000000000000000000000000000
00000000000000000000000000000000000000000000000011111111011111100000000000000000000000000000000111100000001111111111000011111110111100000000000000011111111100111111000000000000000000000000000000000000
00000000000000000000000000000000000000000000001111111111111111111000000000000000000000000001100111100000001111111111111111111111111100000001100000001111111100001111100000000000000000000000000000000000
00000000000000000000000000000000000000000000011111111111111111111100111000000000000000001111111111100000001111111111111111111001111000000001100000001111011100000111110000000000000000000000000000000000
00000000000000000000000000000000000000000000111111111111111101111110111000000000000000111111111111100000000001111111111110000001110000000000000000001111011100000011111000000000000000000000000000000000
00000000000000000000000000000000000000000001111111111001111101111110000000000000000111111111011111000000000000111111111100000111110000000000000000011111111110000001111100000000000000000000000000000000
00000000000000000000000000000000000000000001111111100000111111111111000000000000111111111111001110000000000000111111111100111111110000000000000000011111111111011100111000000000000000000000000000000000
00000000000000000000000000000000000000000011111111000111011111111111000000000011111111111111110000000000000000001110001111111111100000000000000000001111111111011100010000000000000000000000000000000000
00000000000000000000000000000000000000000011110111000001001111111111000000001111111111111111000000000000001000000000001111111110000000000000000000001111111110000000000000000000000000000000000000000000
00000000000000000000000000000000000000000111110111000000001111111111000000001000111111111000000000000000001000000000000011111110000000000000000000001100111110000000000000000000000000000000000000000000
00000000000000000000000000000000000000000111111111000000001111001111000000000000001111000000000000000000000000000000000001111111000000000000000000001000111110000000000000000000000000000000000000000000
00000000000000000000000000000000000111001111111111000000001110001111000000000011000100000000000000000000000000000000000011111111000000000000000000001111111110000000000000000000000000000000000000000000
00000000000000000000000000000000000111011111111111000000001110011111000000000111100000000000000000000000000000000000000011111110000000000000000000001111111110000000000000000000000000000000000000000000
00000000000000000000000000000000000000001111111111000000001111111110000000001111110000000000000000000000000000000000000111111100000000000000000000001111111110000000000000000000000000000000000000000000
00000000000000000000000000000000000001001111111111000000011111111100000000001111110000000000000000000000000111000000000111111000000000000000000000001111111110000000000000000000000000000000000000000000
00000000000000000000000000000000000011111111111111100000111111111000000000001111111000000000000000000000001111000000001111111000000000000000000000001111111110000000000000000000000000000000000000000000
00000000000000000000000000000000000011111000111111111111111111110000000000001111100111100000000000000000001111101100011111110000000000000000000000000111111110000000000000000000000000000000000000000000
00000000000000000000000000111000000111110000011111111111111100000000000000001111000111111111000000000000001111100000111111100000000000000000000000000111111111011111000000000000000000000000000000000000
00000000000000000000000000000000000111110000000110001111111000000000000000000011101111110011100000000000001111110011111110000000000000000000000000011111111111111111100000000000000000000000000000000000
00000000000000000000000000000000001111100000000000000000000000000000000000000001111111000011110011110000001111111111111100000000000000000000100000011011111111111111100000000000000000000000000000000000
00000000000000000000000000000000011111100000000000000000000000000000000000000000000110001111111111110000001111111111111000000000000000000000111001111011111101111111100000000000000000000000000000000000
00000000000000000000000000000000011111000000000000000000000000000000000000000000000000000111111111110000001111111111100000000000000000000000011111111111111000111111000000000000000000000000000000000000
00000000000000000000000000000000111110000000000000000000000000000000000000000000000000000001111111110000000111111100000000000000000000000000001111111001100000000100000000000011100000000000000000000000
00000000000000000000000000000000111110000000000000000000000000000000000000000000000000000000001111110000000111111000000000000000000000000000001111110000000000000000000000000011100000000000000000000000
00000000000000000000000000000001111100000000000000000000000000000000000000000001110000000000000000000000000000000000000000000000000000000000001111100000000000000000000000000000000000000000000000000000
00000000000000000000000000000000011100000000000000000000000000000000000000000000110000000000000000000000000000000000000000000000000000000000000000000000000000000000000000000000000000000000000000000000
00000000000000000000000000000000001000000000000000000000000000000000000000000000000000000000000000000000000000000000000000000000000000000000000000000000000000000000000000000000000000000000000000000000
00000000000000000000000000000000000000000000000000000000000000000000000000000000000000000000000000000000000000000000000000000000000000000000000000000000000000000000000000000000000000000000000000000000
00000000000000000000000000000000000000000000000000000000000000000000000000000000000000000000000000000000000000000000000000000000000000000000000000000000000000000000000000000000000000000000000000000000
00000000000000000000000000000000000000000000000000000000000000000000000000000000000000000000000000000000000000000000000000000000000000000000000000000000000000000000000000000000000000000000000000000000
00000000000000000000000000000000000000000000000000000000000000000000000000000000000000000000000000000000000000000000000000000000000000000000000000000000000000000000000000000000000000000000000000000000
00000000000000000000000000000000000000000000000000000000000000000000000000000000000000000000000000000000000000000000000000000000000000000000000000000000000000000000000000000000000000000000000000000000
00000000000000000000000000000000000000000000000000000000000000000000000000000000000000000000000000000000000000000000000000000000000000000000000000000000000000000000000000000000000000000000000000000000
00000000000000000000000000000000000000000000000000000000000000000000000000000000000000000000000000000000000000000000000000000000000000000000000000000000000000000000000000000000000000000000000000000000
00000000000000000000000000000000000000000000000000000000000000000000000000000000000000000000000000000000000000000000000000000000000000000000000000000000000000000000000000000000000000000000000000000000
