P1
200 70
00000000000000000000000000000000000000000000000000000000000000000000000000000000000000000000000000000000000000000000000000000000000000000000000000000000000000000000000000000000000000000000000000000000
00000000000000000000000000000000000000000000000000000000000000000000000000000000000000000000000000000000000000000000000000000000000000000000000000000000000000000000000000000000000000000000000000000000
00000000000000000000000000000000000000000000000000000000000000000000000000000000000000000000000000000000000000000000000000000000000000000000000000000000000000000000000000000000000000000000000000000000
00000000000000000000000000000000000000000000000000000000000000000000000000000000000000000000000000000000000000000000000000000000000000000000000000000000000000000000000000000000000000000000000000000000
00000000000000000000000000000000000000000000000000000000000000000000000000000000000000000000000000000000000000000000000000000000000000000000000000000000000000000000000000000000000000000000000000000000
00000000000000000000000000000000000000000000000000000000000000000000000000000000000000000000000000000000000000000000000000000000000000000000000000000000000000000000000000000000000000000000000000000000
00000000000000000000000000000000000000000000000000000000000000000000000000000000000000000000000000000000000000000000000000000000000000000000000000000000000000000000000000000000000000000000000000000000
00000000000000000000000000000000000000000000000000000000000000000000000000000000000000000000000000000000000000000000000111000000000000000000000000000000000000000000000000000000000000000000000000000000
00000000000000000000000000000000000000000000000000000000000000000000000000000000000000000000000000000000000000000000000001000110000000000000000000001110000000000000000000000000000000000000000000000000
00000000000000000000000000000000000000000000000000000000000000110000000000000000000000000000000000000000000000000000000000001110000111000000000000001110000000000000000000000000000000000000000000000000
00000000000000000000000000000000000000000000000000000000000000111000000000000000000000000000000000000000000000000000000011110000000111000000000000000000000000000000000000000000000000000000000000000000
00000000000000000000001110000000000000000000000000000000000000000000000000000000000000000000000000000000000000000000011111110000000000001111000000000000000000000000000000000000000000000000000000000000
00000000000000000000001110000000000000000000000000000000000000000000000000000000000000000000000000000000000000000111111111110000000000001111000000000000000000000000000000000000000000000000000000000000
00000000000000000000000000000000000000000000000000000000000000000000000000000000000000001110111000000000000011000111111111110000000000000000000000000000000000000001000000000000000000000000000000000000
00000000000000000000000000000000000000011000111000000000000000000000000000001111110001001110110000000000000111000111111110000000000000000000000000000000000000000111000000000000000000000000000000000000
00000000000000000000000000000000000001111111111111110000000000000000000000111111111110001100000000000000000111000111111110000000000000000000000000000000000001111111000000000000000000000000000000000000
00000000000000000000000000000000000001111111111111111000000000000000000011111111111111011100000000000000000111101111111111100000000000000000000000000000000111111111000000000000000000000000000000000000
00000000000000000000011100000000000001111111111111111100000000000000000111111111111111111110000000000000001111111111011111100000000000000000000000000000011111110110000000000000000000000000000000000000
00000000000000000000011100000000000001111111111111111111100000000000001111111111111111111110000000000000001111111110001111100000000000000000000111000000011111100010001110000000000000000000000000000000
00000000000000000000000000000000000011100111111111111111111000000000011111111111111111111110000000000000001111111100001111100000000000000000000111001111001111000100000000000000000000000000000000000000
00000000000000000000000000000000000010000111000000000111111110000000011110000000011111111110000000000000001111110000001111100000000000000000000111111111101111100100000000000000000000000000000000000000
00000000000000000000000000000000000000001110000000000011111111000000111100000000001111111110000000000000011111000000001111000000000000000000111111111111111111111000000000000000000000000000000000000000
00000000000000000000000000000000000001111110000000000001111111100001111000000000011111111110000000000000011100000000011111000000000000000111111111111111111111111011100000111000000000000000000000000000
00000000000000000000000000000000000001111111000000000000111111110001110000000000011111111100000000000000011100000000011111000000111000111111111111111111110111111000100000111000000000000000000000000000
00000000000000000000000000000000000001100111000000000000001111111001100000000000011111111100000000000000011000000000011111000000111011111111111111111000000111110000000000000000000000000000000000000000
00000000000000000000000000000011100111000110000000000000000111111101100000000000011111111000000000000000011000000000011111000000000011111111111110000000001111100000000000000000000000000000000000000000
00000000000000000000000000000011100111001110000000000000000111111111110000000000011111111000000000000000010000000000011110000000000001111111110000000000011111100000000000000000000000000000000000000000
00000000000000000000000000000000000000001111001000000000000011111111110000000000001111110000000000000000000000000000111110000000000011111110010000000000111111000000000000000000000000000000000000000000
00000000000000000000000000000000000000000111111100000000000011101111000000000000011101100000000000000000000000000000111110000000000111111000111111100011111111000000000000000000000000000000000000000000
00000000000000000000000000000000000000000111111111000000000011000110000000000000111101110000000000000000000000000000111111111110001111111101111111110111111111100000000000000000000000000000000000000000
00000000000000000000000000000000000000011111111111100000000011000111000001111111111111111111111111111111111111111000011111111111111111111111111111111111111111110011000000000000000000000000000000000000
00000000000000000000000000000000000000111111101111111110000111101111111111111111111111111110111111111111111111111100011111111111111111111111111111111001111111111111110000000000000000000000000000000000
00000000000000000000000000000000000001110111101111111111111111111111111111111111111111111110111111110111111111111111111111111110000111110000000000000000111110001111111100000000000000000000000000000000
00000000000000000000000000000000000001110111111111111111111111111111111111111111111111111111111111100011100011111111111100000000000000000000000000000001111100000011111100000000000000000000000000000000
00000000000000000000000000000000000001111111110000111111111111111111110000111111110111111111110000000000000000000111111000000000000000000000000000000111111000000000111000000000000000000000000000000000
00000000000000000000000000000000000001111111000000011111111111111001110000011111110111111111100000000000000000000011111000000000000000000000000000000111000000000000001000000000000000000000000000000000
00000000000000000000000000000000000001111111000000111111111111100001110000000001111111111111100000000000000000000111110000000000000000000000000000001110000000000000000000000000000000000000000000000000
00000000000000000000000000000000000001111111000110011111111111100000000000000000011111111111100000000000000000000111110000000000000111000000000000001110000000000000000000000000000000000000000000000000
00000000000000000000000000000000000001111111011100001111001111110000000000000010000111111111110000000000000000001110000000000000000000000000000000011100000000000000000000000000000000000000000000000000
00000000000000000000000000000000000001111111111100010111000011111000000000000010000011111111110000000000000000001110110000000000000000000000000000011110000000000000000000000000000000000000000000000000
00000000000000000000000000000000000001111111101110000000000001111100000000000000000011111111110000000001110000011111110000000000000000000000000000111111000000001100000000000000000000000000000000000000
00000000000000000000000000000000000000111111101111000000000001111110000000000000000001111111100000000001110000011111100000000000000000000000000000111111000000001100000000000000000000000000000000000000
00000000000000000000000000000000000000111111111111000000000000111110000000000000000001111111100000000000000000111111000000000000000000000000000001111110000000000000000000000000000000000000000000000000
00000000000000000000000000000000000000111111111000000000000000111111000000000000000000111100000000000000000000111110000000000000000000000000000011101100000000000000000000000000000000000000000000000000
00000000000000000000000000000000000001111111111000000000000000111111100000000000111000111100001110000000000001111110000000000000000000000000000001100100000000000000000000000000000000000000000000000000
00000000000000000000000000000000000011111111111100000000000000011111100000000000111000111110001110000000000011111100000000000000000000000000000001111000000000000000000000000000000000000000000000000000
00000000000000000000000000000000000011111111101111000000000000011111000000000000000001111110000000000000000011111000000000000000000000000000000100111000000000000000000000000000000000000000000000000000
00000000000000000000000000000000000111111001001111110000000000011110000000000000000001111100000000000000000111111000010000000000000000000000001110110000000000000000000000000000000000000000000000000000
00000000000000000000000000000000001111110000111111111000000000111111000000000000000001111100000000000000000111111000011100000000000000000000001111110000000000000000000000000000000000000000000000000000
00000000000000000000000000000000011111100000001111111000111111111111000000000000000001111000000000000000001111111000000000000000000000000000000111100000000000000000000000000000000000000000000000000000
00000000000000000000000000000000011111000000000011110001111111111111100110000000000011111000000000000000001111110000000011100000000000000000000111100000000000000000000000000000000000000000000000000000
00000000000000000000000000000000111110000000000000110001111110011111111111110000000111110000000000000000011111110000000011100000000000000000111111000000000000000000000000000000000000000000000000000000
00000000000000000000000000000001111100000000000000000000111110000111111111111100000111100000000000000000011111100000000000000000000000000000111111000000000000000000000000000000000000000000000000000000
00000000000000000000000000000000011100000000000000000000011111100011111111111111111111000000000000000000111111100000000000000000000000000001111110000000000000000000000000000000000000000000000000000000
00000000000000000000000000000000001000000000000000000000001111100011111111101111111100000000000000000001111111000000000000000000000000100001111110000000000000000000001000001110000000000000000000000000
00000000000000000000000000000000000000000000000000000000000000000001111111101111111000000000000000000011111110000000000000000000000011100000111111000000000000000000001110001110000000000000000000000000
00000000000000000000000000000000000000000000000111000000000000000000100111111111110000000000000000000001000010000000000000000000000000000000111111000000000000000000000000000000000000000000000000000000
00000000000000000000000000000000000000000000000111000000000000000000000111111111000000000000000000000000000011000000000000000000000000000011111000000000000000000000000000000000000000000000000000000000
00000000000000000000000000000000000000000000000000000000000000000000001111111100000000000000000000000000000111000000000000000000000000000111110000000000000000000000000001000000000000000000000000000000
00000000000000000000000000000000000000000000000000000000000000000000000111000000000000000000000000000000000000000000000000000000000000000111110000000000000000000000000001000000000000000000000000000000
00000000000000000000000000000000000000001110000000000000000000000000000000000000000000000000000000000000000000000000000000000000000000000000000000000000000000000000000000000000000000000000000000000000
00000000000000000000000000000000000000001110000000000000000000000000000000000000000000000000000000000000000000000000000000000000000000000000000000000000000000000000000000000000000000000000000000000000
00000000000000000000000000000000000000000000000000000000000000000000000000000000000000011100000000000000000000000000000000000000000000000000000000000000000000000000000000000000000000000000000000000000
00000000000000000000000000000000000000000000000000000000000000000000000000000000000000011100000000000000000000000000000000000000000000000000000000000000000000000000000000000000000000000000000000000000
00000000000000000000000000000000000000000000000000000000000000000000000000000000000000000000000000000000000000000000000000000000000000000000000000000000000000000000000000000000000000000000000000000000
00000000000000000000000000000000000000000000000000000000000000000000000000000000000000000000000000000000000000000000000000000000000000000000000000000000000000000000000000000000000000000000000000000000
00000000000000000000000000000000000000000000000000000000000000000000000000000000000000000000000000000000000000000000000000000000000000000000000000000000000000000000000000000000000000000000000000000000
00000000000000000000000000000000000000000000000000000000000000000000000000000000000000000000000000000000000000000000000000000000000000000000000000000000000000000000000000000000000000000000000000000000
00000000000000000000000000000000000000000000000000000000000000000000000000000000000000000000000000000000000000000000000000000000000000000000000000000000000000000000000000000000000000000000000000000000
00000000000000000000000000000000000000000000000000000000000000000000000000000000000000000000000000000000000000000000000000000000000000000000000000000000000000000000000000000000000000000000000000000000
