P1
200 70
00000000000000000000000000000000000000000000000000000000000000000000000000000000000000000000000000000000000000000000000000000000000000000000000000000000000000000000000000000000000000000000000000000000
00000000000000000000000000000000000000000000000000000000000000000000000000000000000000000000000000000000000000000000000000000000000000000000000000000000000000000000000000000000000000000000000000000000
00000000000000000000000000000000000000000000000000000000000000000000000000000000000000000000000000000000000000000000000000000000000000000000000000000000000000000000000000000000000000000000000000000000
00000000000000000000000000000000000000000000000000000000000000000000000000000000000000000000000000000000000000000000000000000000000000000000000000000000000000000000000000000000000000000000000000000000
00000000000000000000000000000000000000000000000000000000000000000000000000000000000000000000000000000000000000000000000000000000000000000000000000000000000000000000000000000000000000000000000000000000
00000000000000000000000000000000000000000000000000000000000000000000000000000000000000000000000000000000000000000000000000000000000000000000000000000000000000000000000000000000000000000000000000000000
00000000000000000000000000000000000000000000000000000000000000000000000000000000000000000000000000000000000000000000000000000000000000000000000000000000000000000000000000000000000000000000000000000000
00000000000000000000000000000000000000000000000000000000000000000000000000000000000000000000000000000000000000000000000000000000000000000000000000000000000000000000000000001110000000000000000000000000
00000000000000000000000000000000000000000000000000000000000000000000000000000000000000000000000000000000000000000000000000000000000000000000000000000000000000000000000000001110000000000000000000000000
00000000000000000000000000000000000000001000000000000000000000000000000000000000000000000000000000000000000000000000000000000000000000000000000000000000000000000000000000000000000000000000000000000000
00000000000000000000000000000000000000001000000000000000000000000000000000000000000000000000000000000000000000000000011100000000000000000000000000000000000000000000000000000000000000000000000000000000
00000000000000000000000000000000000000000000000000000000000000000000000001100011100000000000000000000000000000000000011100000000111111110000000000000000000000000000000000000000000000000000000000000000
00000000000000000000000000000000000000000000000000000000000000000011111111000011111111100000000000000000000000000000000000001111111111111100000000000000000000000000000000000000000000000000000000000000
00000000000000000000000000000000000000000000000000000000000000111111111111100111111111111111111000111110000000000000000000111111111101111110000000000000000000000000000000111000000000000000000000000000
00000000000000000000000000000000000000000000000000000000000111111111111111111111111111111111111111111110000000000000000001111111111101111111110111000000000000000000000000111100000000000000000000000000
00000000000000000000000000000000000000000000000000000000011111111110000000000000000001111111111111111110000000000000000011111111111111111111111111000000000000000000000001111111100000000000000000000000
00000000000000000000000000000000000000000000000000000000111111110000000000000000000001111111110011111110000000000000000111111111111111111111110000000000000000000000000111110011110000000000000000000000
00000000000000000000000000000000000000000000000000000011000110000000000000000000000001111111100001111111100000000000001111111111111111101111110000000000000000000000011111110001111000000000000000000000
00000000000000000000000000000000000000000000000000001111000110000000000000000000000001111111100001111111110000000000011111111111110111101111111000000000000000000001001111111000111100000000000000000000
00000000000000000000000000000000000000000000000000111111111111100000000000000000011101111000000011111111111100000000011111111111100011111111111000000000000000000111101111111100111100000000000000000000
00000000000000000000000001110000000000000000000011111111111111100000000000000000011111110000000111111111111111000000111111111111000111111111111000000000000000000111111111111111111100000000000000000000
00000000000000000000000001111000000000000000001111111111111111000000000000000000011111100000000111111111111110001000111111111110000011111011111100000000000000001111011111111111110000000000000000000000
00000000000000000000000000111000000000000000011111111111111111000000000000000000111111100000000111111111111110000110001111111100000000111011111100000000000000111111011111111111110000000000000000000000
00000000000000000000000000000000000000000000011111111111111111111100000000000000111000000000000111111100000011001111001111111000000000111111111100000011100001111111111111111111111100000000000000000000
00000000000000000000000000000000000000000000011111111111111111111110000000000000111000000000000001111000000000011111111111111000000000011111111110000011100011111111110000011111111100000000000000000000
00000000000000000000000000000000000000000000111111101111111111111111000000000000111000000000000001111100100000000111111111111000000000011111111111100000000111111111000000011111111000000000000000000000
00000000000000000000000000000000000000011111111111101111111111111111110000000000011000000000000111111111100000000011111111110000000000011111111111100000000111111110000000011111111000000000000000000000
00000000000000000000000000000000000001111111111111111111111111111111111000000000000000000000001111111111000000000001111111110000000000011111111110000000000111111100000000001111111000000000000000000000
00000000000000000000000000000000000011111111111111111111000111111111111100000000000000000000001111111110000000000000111111100000000000011111111100000000001111111100000000001111111000000000000000000000
00000000000000000000011100000000000111111111101111111000000011111111111110000000000000000000001111111110000000000000111111100100000000011111111100000000001111111100000000010011111000000000000000000000
00000000000000000000011000000000001111111011101110110001110001111111111110000000000000000011111111111110000000000001111111111111000000011111111100000000001111111000000000111011111100000000000000000000
00000000000000000000000000000000001111100001111110111001110001111111111110000000000000000011111111111110000000000001111111111011100000011111111000000000000100111100000001111111111100000000000000000000
00000000000000000000000000000000011111000001111111111000000001111111111100000000000000000111111111111100000000000000111110111011111110011111111000000000000000011110000111111111000000000000000000000000
00000000000000000000000000000000100111000001111110111100000111101111111100000000000000111111111111111000000000000000111110111111111111111111111000000000000000011111111111111100000000000000000000000000
00000000000000000000000000000001100010000000111110111111101111101111111100000000000000111111100111110000000000000000011111111111111111111111100000000000000000111111111111111000000000000000000000000000
00000000000000000000000000000000011100000111111111111111110011111111111000000001110000111111100011111000000000000000011111111111111111111111000100000000000001111111111111110000000000000000000000000000
00000000000000000000000000000000001000011111111111111111111011111111110000000001110000111111110011111100000000000000001111111111111111111110001100000000000000111111111111110000000000000000000000000000
00000000000000000000000000000000000001111111111111111111111111111100100000000000000000000011111111111110000000000000000111111111111111111111000000000000000000111111111111111110000000000000000000000000
00000000000000000000000000000000000011111111111111111111111111111000000000000000000000000000111111111111000000000000000000001111111111111111110000000000000001111111111111111111000000000000000000000000
00000000000000000000000000000000000111111111111111111111111110000000000000000000000000000000111111110011000000000000000001000111111111111111111000000000000011111111111111111111100000000000000000000000
00000000000000000000000000000000001111111111111111110011111110000000000000000000000000000011111111110000100000000000000111111001111111111111111111000000000111111111100011111111100000000000000000000000
00000000000000000000000000000000010011111111110000000011111111000000001000000000000000000011111111111001110000000000000111111101111111111111111111000000001111110001110001111111100000000000000000000000
00000000000000000000000000000000111011111111000000000111111110000000001000000000000000000000001111111111110000000000001111111111111000111101111111100000001111100001110001111111100000000000000000000000
00000000000000000000000000000001111111111110000000000111111111000000000000000000000000000000001111111111110000000000000111111111100000000001111111110000011111110000000000111111100000000000000000000000
00000000000000000000000000000001111111111110100000000111111111100000000000000000000000000000000111111111110000000000001111111110000000000111111111110000011111110000000000111111100000000000000000000000
00000000000000000000000000000001111111111100111000001111111111100000000000011000000000000000000111111011110000000000011111111110000000000011110111111100011111110000000000111111100000000000000000000000
00000000000000000000000000000011111111111000000000001111111111100000000000111000000000000000000111111011100000000000111111111100000000000001110011111110011111110000000000111111100000000000000000000000
00000000000000000000000000000111111111111000000000011111111111000000000001111100000000000000001111111111110000000000111111111100000000000001111001111111111111110000000001111101100000000000000000000000
00000000000000000000000000000100111111111000000001111111111110000000000001111110000000000000011111111111111000000000111111111100000000000001111101111111111111110000000001111100100000000000000000000000
00000000000000000000000000000110111111111100000011111111111110000000000001111100000000000000011111111111111000000000111111111100000000000001111111111111111111110000000011111111100000000000000000000000
00000000000000000000000000001111111111111110111111111110111100000000000000000000000000000000011111111111111000000000011111111100000000000001111111111111111111111100000111111111100000000000000000000000
00000000000000000000000000001111111111111111111111111110011000000000000000000000000000000000011111111111111000000000011111111100000000000001111011111111111111111111011111111111011100000000000000000000
00000000000000000000000000000011111111111111111111111111100000000000000001111100000000000000111111111111111000000000111111111100000000000001111011111110111111111111111111111110011100000000000000000000
00000000000000000000000000000011111111111111111111111111000000000000000000011111111110000011111111111111110000000000111111111110000000000011111111111110001111111111111111111110000000000000000000000000
00000000000000000000000000000111111111111111111011111110000000000000000000001111111111111111111011111111110000000000111101111111100000000111111111111110000111111111111111111100000000000000000000000000
00000000000000000000000000000111111111111011111011111100000000000000000000000111111111111111111011111111110000000000111101111111110000011111101111111100000011111111111111111000000000000000000000000000
00000000000000000000000000000111111111111011111111000000000000000000000000000111111111101111111111111111100000000000011111111111111111111111001111111100000000111111100111110000000000000000000000000000
00000000000000000000000000111001111101111111111100000000000000000000000000000000001111000111111111101111000000000000011111111111111111111110011111011100000000001111000011100000000000000000000000000000
00000000000000000000001110111000001000110111000000000000000000000000000000000000000000001111111111000110000000000000001110111111111111111110111111001000000000000011100010001110000000000000000000000000
00000000000000000000001110000000000000000000000000000000000000000000000000000000000000000001111000110000000000000000001100111111111111011111111111110000000000000000111000001110000000000000000000000000
00000000000000000000000000000000000000000000000000000000000000000000000000000000000000000000011000000000000000000000000001111111111111011111111111110000000000000000010000000000000000000000000000000000
00000000000000000000000000000000011000000000000000000000000000000000000000000000000000000000011111000000000000000000000001111111111111111111111100100000000000000000000000000000000000000000000000000000
00000000000000000000000000000000000000000000011100000000000000000000000000000000000001110000011100000000000000000000000000111111111111111111111000000000000000000000000000000000000000000000000000000000
00000000000000000000000000000000000000000000011100000000000000000000000000000000000001110000000000000000000000000000000000001111111111111111111100000000000000000000000000000000000000000000000000000000
00000000000000000000000000000000000000000000000000000000000000000000000000000000000000000000000000000000000000000000000000000001111111111111100000000000000000000000000000000000000000000000000000000000
00000000000000000000000000000000000000000000000000000000000000000000000000000000000000000000000000000000000000000000000000000000011100001000000000000000000000000000000000000000000000000000000000000000
00000000000000000000000000000000000000000000000000000000000000000000000000000000000000000000000000000000000000000000000000000000000000000000000000000000000000000000000000000000000000000000000000000000
00000000000000000000000000000000000000000000000000000000000000000000000000000000000000000000000000000000000000000000000000000000000000000000000000000000000000000000000000000000000000000000000000000000
00000000000000000000000000000000000000000000000000000000000000000000000000000000000000000000000000000000000000000000000000000000000000000000000000000000000000000000000000000000000000000000000000000000
00000000000000000000000000000000000000000000000000000000000000000000000000000000000000000000000000000000000000000000000000000000000000000000000000000000000000000000000000000000000000000000000000000000
