P1
200 70
00000000000000000000000000000000000000000000000000000000000000000000000000000000000000000000000000000000000000000000000000000000000000000000000000000000000000000000000000000000000000000000000000000000
00000000000000000000000000000000000000000000000000000000000000000000000000000000000000000000000000000000000000000000000000000000000000000000000000000000000000000000000000000000000000000000000000000000
00000000000000000000000000000000000000000000000000000000000000000000000000000000000000000000000000000000000000000000000000000000000000000000000000000000000000000000000000000000000000000000000000000000
00000000000000000000000000000000000000000000000000000000000000000000000000000000000000000000000000000000000000000000000000000000000000000000000000000000000000000000000000000000000000000000000000000000
00000000000000000000000000000000000000000000000000000000000000000000000000000000000000000000000000000000000000000000000000000000000000000000000000000000000000000000000000000000000000000000000000000000
00000000000000000000000000000000000000000000000000000000000000000000000000000000000000000000000000000000000000000000000000000000000000000000000000000000000000000000000000000000000000000000000000000000
00000000000000000000000000000000000000000000000000000000000000000000000000000000000000000000000000000000000000000000000000000000000000000000000000000000000000000000000000000000000000000000000000000000
00000000000000000000000000000000000000001100000000000000000000000000000000000000000000000000000000000000000000000000000000000000000000000000000000000000000000000000000000000000000000000000000000000000
00000000000000000000000000000000000000001100000000000000000000000000000000000000000000000000000000000000000000000000000000000000000000000000000000000000000000000000000000000000000000000000000000000000
00000000000000000000000000000000000000000000000000000000000000000000000000000000000000000000000000000000000000000000000000000000000000000000000000111000000000000000000000000000000000000000000000000000
00000000000000000000000000000000000000000000000000000000000000010000000000000000000000000000000000000000000000000000000000000000000000000000000000111000000000000000000000000000000000000000000000000000
00000000000000000000000000000000000000000000000000000000000000010000000000000000000000000000000000000000000000000111000000000000000000000000000000000000000000000000000000000000000000000000000000000000
00000000000000000000000000000000000000000000000000000000000000000000000000000000000000000000000000000000000000000111000000000000000000000000000000000000000000000000000000000000000000000000000000000000
00000000000000000000000000000000000000000000000000000000000000000000000000000000000000000000000000000000000000000000000000010000000000000000000000000000000000000000000000000000000000000000000000000000
00000000000000000000000000000000000000000000000000000000001110000000000000000000000000000000000000000000000000000000011100111100000000000000000111100000011111100000000000000000000000000000000000000000
00000000000000000000000000000000000000000000000000000000001110000000000000000000000000000000000000000000000111000011111111111111000000000000000111100001000111111000001110000000000000000000000000000000
00000000000000000000000000000000000000000000000000000000000000000000000000000000000000000000000000000000000100001111111111111111100000000000000000000111000110111000000110000000000000000000000000000000
00000000000000000000000000000000000000000000000000000000000000000000000000000000000000000001111100000000000000011111111111111111110000000000000000011110001100011000000000000000000000000000000000000000
00000000000000000000000000000000000000000000000000000000000000000000000000000000000000001111111100000000000011111111111111111111111000000000000001111111011100011000000000000000001110000000000000000000
00000000000000000000000000000000000000000000000000000000000000000000000000000000000000011111111100000000000111101111111111111111111000000000000011111111111110111111000000000000001110000000000000000000
00000000000000000000000000000000000000000000000000000001000000000000000000000000000000111111011100000000001111101110000111011111111000000000000111011111111111111111000000000000000000000000000000000000
00000000000000000000000000000000000000000000000000000011111111110000000000000000000000111111011100000000001111111100000000001111111100000011001111011111111111111111100000000000000000000000000000000000
00000000000000000000000000000000000000000000000111110000111111111111000000000000000001001111111100000000011111110000000000000111111100000111011111111111111111111111100000000000000000000000000000000000
00000000000000000000000000000000000000000000001111111100111111111001110000000000000001101111111100000000111111100000000000000011111110000000011111111110000111111111110000000000000000000000000000000000
00000000000000000000000000000001110000000000011111111111111011111011111000000000000011111111111100000000111111100000000000000011111110000000111111111000000011111111110000000000000000000000000000000000
00000000000000000000000000000001110000000000111111111111111011111111111110000000000111111111111000000001111111100000000000000011111110000000111111110000000001111111110000000000000000000000000000000000
00000000000000000000000000000000000000000001111111111111111111111111111110000000000111111111111000000001111111000000000000000001111100000001111111110000000001111111110000000000000000000000000000000000
00000000000000000000000111000000000000000001111111111011111111111111111111000000001111111101111000000011111111000000000000000000111100000001111111000000000001111111000011100000000000000000000000000000
00000000000000000000000110000000000000000011111111111001111111110111111111100000001111111101111000000011111110000000000000000001111000000011111110000000000000111111000011100000111000000000000000000000
00000000000000000000000000000000000000000111111101111111110000110111111111100000011111111111111110000000111110000000000000000001111000001111111111000000000000111111110000000000111000000000000000000000
00000000000000000000000000000000000000000111111101111110000000111111111111100000011111101111111110000000001110000000000000000001110000001111111111000000000001111111111000000000000000000000000000000000
00000000000000000000000000000000011000000011111111111110000000011111111111100000111111000111111000000011001100000000000000000001111001000001111111000000000001111111111000000000000000000000000000000000
00000000000000000000000000000000011000000011111111111100000000011111111111100011111110001111110000000111111100000000000000000001111111000001111111000000000000111111111000000000000000000000000000000000
00000000000000000000111000000000000000000011111111111100000111011111111111100011111110001111100000001111111100000000000000000001111110000111111111000000000000111111111000000000000000000000000000000000
00000000000000000000100000000000000000000011111111111100000110001111111111000001111100001111100000001111111000000000000000000011111110000111111111000000000000111111111000000000000000000000000000000000
00000000000000000000000000000000000000000001110011111100000000011111111111000001111000000111110000000001111000000000000000000011111110000111111111000000000000111100111000000000000000000000000000000000
00000000000000000000000000000000000000000001110001111110000000111111111110000011111000000111100000000001111000000000000000000011111111000111111111000000000000111100000000000000000000000000000000000000
00000000000000000000000000000000000000000000111001111111111001111111111100000111111000001111110000000011111000000000000000000011111111000111111111000000000000111111000000000000000000000000000000000000
00000000000000000000001110000000000000000000111111111111111111111111111000001111110000011111111000000111111100000000000000000011111111001111111111000000000000011111110000000000000000000000000000000000
00000000000000000000001110000000000000000000011111111111011111111111101000111111110001111111111100001111111111110000000000000111111111000111111111000000000000011111111000000000000000000000000000000000
00000000000000000000000000000000000000000000000111111111011111111111100000111111111111111111111111111111111111111111111100011111111111000111011111000000000000011111111100000000000000000000000000000000
00000000000000000000000000000000000000000000000011111111111111111111110000011111111111111111111111111111111111111011111000011111111111101110001111000000000000111111111100000000000000000000000000000000
00000000000000000000000000000000000000000000000111111111111111111111111110011111111111111111111111111111111111110001111000111111111111111110001111100000000000111111111100000000000000000000000000000000
00000000000000000000000000000000000000000000011111111111111111111111111110001111111111111110000000001111111110000000000011111111111111111111011111111111110001111111111100000000000000000000000000000000
00000000000000000000000000000000000000000000111111111111111111111011111111011111111111111100000000000111111100000000000000001111111111111111111111111111111011111111111100000000001110000000000000000000
00000000000000000000000000000000000000000001111111110111100001111011111111111111111111111110000000000011111110000000000000000111111110001111111111111111111111111111111100000000001110000000000000000000
00000000000000000000000000000000000000000011111111110010000001111111111111111111111111111111111000000011111110000000000000000111011100000111111100000000011111111111100100000000000000000000000000000000
00000000000000000000000000000000000000000111111111111000000111111111111111111111110111111111111000000011111111000000000000011111011000000111111100000000000001110111100000000000111000000000000000000000
00000000000000000000000000000000000000000111111111111100111111111011111111111110000111111111110000000001111111000000000000111111111001110011111111100000000001100011111000000000111000000000000000000000
00000000000000000000000000000000000000001111111111111111111111110011111111111000001111111111110000000000111111110000000000111111110000000011111111110000000001110111110000000000000000000000000000000000
00000000000000000000000000000000000000011111111111111110011110001111111111110000011111111111100000000000111101111100000001111111100000000011111111110000000001111111110000000000000000000000000000000000
00000000000000000000000000000000000000011111111111111100000000001111111101110000011111111111000000000000001001111111110011111111100000000001111110111100000111111111111000000000000000000000000000000000
00000000000000000000000000000000000000011111111111111100000000001110111101110000111111111000000000000000000111111111111111111111100000000001111110111111111111111111110000000000000000000000000000000000
00000000000000000000000000000000000000011111111111111000000000011110111111110111111111000000000000000000000011111111111111111111000000000000111111111111100011111111100000000000000000000000000000000000
00000000000000000000000000000000000000111111111111110000000000111111111111100011000100000000000000000000000000111111111111111110000000000000011111111111110000000111100000000000000000000000000000000000
00000000000000000000000000000000000011111111111111110000000001111111111111100000000000000000000000000000000000001111111111111000000000000000000011111111111100000011100000000000000000000000000000000000
00000000000000000000000000000000000111111111111111111000000111111111111111000000000000000000000000000000000000000000001111000000000000000000000001111111111111100111100000000000000000000000000000000000
00000000000000000000000000000000111111111111111111111111011111111111111111000000000000000000011100000000000000000000000000000000000000000000000000111111111111111111000000000000000000000000000000000000
00000000000000000000000000111000111111111101111111111111111111111111111110000000000000000000000000000000000000000000000000000000000000000000000000001111111111111100000000000000000000000000000000000000
00000000000000000000000000111000011100011101111111111111111101111111111110000000000000000000000000000000000000000000000000000000000000000000000000000000001111000000000000000000000000000000000000000000
00000000000000000000000000000000010000011111111111111111111101111111110000000000000000000000000000000000000000000000000000000000000000000000000000000000000000000000000000000000000000000000000000000000
00000000000000000000000000000000000000000111110111111111111111111111100000000000000000000000000000000000000000000000000000000000000000001110000000000000000000000000000000000000000000000000000000000000
00000000000000000000000000000000000000000111110111110111111111111110000000000000000000000000000000000001110000000000000000011100000000001110000000000000000000000000000000000000000000000000000000000000
00000000000000000000000000000000000000001111111111110111111111111000000000000000000000000000000000000001110000000000000000011100000000000000000000000000000000000000000000000000000000000000000000000000
00000000000000000000000000000000000000000111111111111111111111100000000000000000000000000000000000000000000000000000000000000000000000000000000000000000000000000000000000000000000000000000000000000000
00000000000000000000000000000000000000000011111111111111111000000000000000000000000000000000000000000000000000000000000000000000000000000000000000000000000000000000000000000000000000000000000000000000
00000000000000000000000000000000000000000001111111111111110000000000000000000000000000000000000000000000000000000000000000000000000000000000000000000000000000000000000000000000000000000000000000000000
00000000000000000000000000000000000000000000010001111000000000000000000000000000000000000000000000000000000000000000000000000000000000000000000000000000000000000000000000000000000000000000000000000000
00000000000000000000000000000000000000000000000000000000000000000000000000000000000000000000000000000000000000000000000000000000000000000000000000000000000000000000000000000000000000000000000000000000
00000000000000000000000000000000000000000000000000000000000000000000000000000000000000000000000000000000000000000000000000000000000000000000000000000000000000000000000000000000000000000000000000000000
