P1
200 70
00000000000000000000000000000000000000000000000000000000000000000000000000000000000000000000000000000000000000000000000000000000000000000000000000000000000000000000000000000000000000000000000000000000
00000000000000000000000000000000000000000000000000000000000000000000000000000000000000000000000000000000000000000000000000000000000000000000000000000000000000000000000000000000000000000000000000000000
00000000000000000000000000000000000000000000000000000000000000000000000000000000000000000000000000000000000000000000000000000000000000000000000000000000000000000000000000000000000000000000000000000000
00000000000000000000000000000000000000000000000000000000000000000000000000000000000000000000000000000000000000000000000000000000000000000000000000000000000000000000000000000000000000000000000000000000
00000000000000000000000000000000000000000000000000000000000000000000000000000000000000000000000000000000000000000000000000000000000000000000000000000000000000000000000000000000000000000000000000000000
00000000000000000000000000000000000000000000000000000000000000000000000000000000000000000000000000000000000000000000000000000000000000000000000000000000000000000000010000000000000000000000000000000000
00000000000000000000000000000000000000000000000000000000000000000000000000000000000000000000000000000000000000000000000000000000000000000000000000000000000000000011110000000000000000000000000000000000
00000000000000000000000000000000000000000000000000000000000000000000000000000000000000000000000000000000000000000000000000000000000000000000000000000000000000011001111000000000000000000000000000000000
00000000000000000000000000000000000000000000000000000000000000000000000000000000000000000000000000000000000000000000000000000000000000000000000000000000000000001100111000011100000000000000000000000000
00000000000000000000000000000000000000000000000000000000000000000000000000000000000000000000000000000000000000000000000000000000000000000000000000000000001110011111000000011100000000000000000000000000
00000000000000000000000000000000000000000000000000000000000000000000000000000000000000000000000000000000000000000000000000000000000000000000000000000000111111111000000000000000000000000000000000000000
00000000000000000000011100000000000000000000000000000000000000000000000000000000000000000000000000000000000000000000000000000000000000000000000000000011111111100000000000000000000000000000000000000000
00000000000000000000011100000000000000000000000000000000000000000000000000000000000111100000000001110000000000000000000000000000000000000000000000000111111100000000000000000000000000000000000000000000
00000000000000000000000000000000000000000000000000000000011100000000000000000000001111110000000001110000000000000000000000000000000000000000000000011111110000000000000000000000000000000000000000000000
00000000000000000000000000000000000000000000000000000000011100000000000000000000001111110000000000000000000111000000000000000000000000000000000001111111000000000000000000000000000000000000000000000000
00000000000000000000000000000000000000000000000000011100000000000000000000000000011111110000000000000000000111000000000000000000000000000000111111111111000000000000000000000000000000000000000000000000
00000000000000000000000000000000000000000000000000011100000000000000000000000000011111110000000000000011001111000000000000000000000000000000111111111111111000000000000000000000000000000000000000000000
00000000000000000000000000000000000000000000000000000000000000000000000000000000111111110000000000011111111111000000000000000000000000000011111111111111111100000000000000000000000000000000000000000000
00000000000000000000000000000000000000000000000000000000000000000000000000000000111110110000000001111111111111100000000000000000000000001111111000000111111110000000000000000000000000000000000000000000
00000000000000000000000000000000000000001110001111100000000000000000000000000001111110010000000011111111111111100000000000000000000000111111110000000111110010000000000000000000000000000000000000000000
00000000000000000000000000000000000000001111111111111110000000000000001110000001111111110000000011111111111111110000000000000000000011111111110000000011110111000000000000000000000000000000000000000000
00000000000000000000000000000000000000011111110011111111100000000000001110000011111111110000000011111111011111111000000000000000000111111111110000000011111111111000000000000000000000000000000000000000
00000000000000000000000000000000001001111111100011111111111000000000000100000011111111110000000001111100011111111000000000000001111111111111110000000000111111111000000000000000000000000000000000000000
00000000000000000000000000000000001111111111100111111111110000000000001110000111111111110000000001111000011111110000000000000111111111001111110000000000111111000000000000000000000000000000000000000000
00000000000000000000000000000000011111111111111111111111100000000000001110011111110111111000000001000000001110000000000000001111111100000111110000000001111110000000000000000000000000000000000000000000
00000000000000000000000000000001111111111111011110011111110010000000000000011101100011111000000000000000001110000011100000111111100000011001111000000001111110000000000000000000000000000000000000000000
00000000000000000000000000000000111111111111001110000111111111000000000000000000100011111000000000000000001111111011100001111001000000011101111100000001111110000000000000000000000000000000000000000000
00000000000000000000000000000000000111111111110000000011111111000000000000000111100011111000000000000000001111111000000111110000000000111111111110000011111100011100000000000000000000000000000000000000
00000000000000000000000000000000000011111111100000000000011111100000000000000001000011111000000000000000001111111000011111111000000000111111110000000011111000011100000000000000000000000000000000000000
00000000000000000000000000000000000001111111000000000000011111100000000000000000000000011100000000000000001111111011111111100000000000111111110000111100000000001000111000000000000000000000000000000000
00000000000000000000000000000000000000111111000000000001111111100000000000001100000010011100000000000000000000000011111111000000000000111111111111111110000000011100111000000000000000000000000000000000
00000000000000000000000000000000000000111111111000000001111111100000000000011110000011111100000000000000000000000111100000000000000000011111111111111111111000011100000000000000000000000000000000000000
00000000000000000000000000000000000000011101111100000011111111100000000000011110000011111100000000000000000111111111000000000000000000011111111111111111111111000000000000000000000000000000000000000000
00000000000000000000000000000000000000001001111110000111111111100000000000111110000011111100000111000000001111111110000000000000000000001111111111111111111111110000000000000000000000000000000000000000
00000000000000000000000000000000000000000111111111111111111110000000000000111110000001111111111111000011111111111110000000000000000000001111111111111001111111111000000000000000000000000000000000000000
00000000000000000000000000000000000000000011111111111111111110000000000000111100000001111111111000011111111111111110000000000000000000000111111111110000111111111000000000000000000000000000000000000000
00000000000000000000000000000000000000000000111111111111111100000000000000111100000011111011111000111011111111111110000000000000000000000001111111111001111111111100000000000000000000000000000000000000
00000000000000000000000000000000000000000000011111111111111110000000000001111000000111111011111111110001000001111110000000000000000000000000111111111110011111111100000000000000000000000000000000000000
00000000000000000000000000000000000000000000111110111111111111110000000111111000111111111111101111111000000001111111000000000000000000000000011111111111011111111110000000000000000000000000000000000000
00000000000000000000000000000000000000000001111110011110011111111000000111111111111111111111100110000000000001111111000000000000000000000000011110111111111111111110000000000000111000000000000000000000
00000000000000000000000000000000000000000011111111100000001110111100000111111111111111111111110000000000000001111111000000000000000000000000111100001111111111111110000000000000111000000000000000000000
00000000000000000000000000000000000000000011111111000000011110111111111111111111111111111111000000000011100001111111000000000000000000000001111100000001111111111110000000000000000000000000000000000000
00000000000000000000000000000000000000000011111111000000001111111111111111111111111000111110000000000011100001111111000000000000000000000011110000000001111111111110000000000000000000000000000000000000
00000000000000000000000000000000000000000011111111000000000111111111111111110011110000011100000000000000000001111111100000000000000000000011110000000000111111111110000000000000000000000000000000000000
00000000000000000000000000000000000000000011111111000000000111111111111111100000000000011100000000000000000000111111100000000000000000000011111000000000111111101110000000000000000000000000000000000000
00000000000000000000000000000000000000000001111111111100000111111111100011110000000000011110000000000000000000111111110000000000000000011111111000000000011111101110000000000000000000000000000000000000
00000000000000000000000000000000000000000000011111111100000111111111000001000000000000011111000000000000000000011111110000000000000000011110110000000000011111111110000000000000000000000000000000000000
00000000000000000000000000000000000000000000011111111000000011111110000000000000000000011111000000000000000000001111110000000000000000011100011000000000011111111000000000000000000000000000000000000000
00000000000000000000000000000000000000000001111111111000000111111100000000000000000000011111000000000000000000001111110000000000000000011000111000000000011111110000000000000000000000000000000000000000
00000000000000000000000000000000000000000000111111110000000111111100000000000000000000011110000000000000000000011110110000000000000000000001111000000000011111100000000000000000000000000000000000000000
00000000000000000000000000000000000000000001111111111100011001111100000000000000000000001100000000000000000000011110110000000001100000000111111000000000111111000000000000000000000000000000000000000000
00000000000000000000000000000000000000000011111111111111111101111100000000000000000000000000000000000000000000001111111000011111110000001111111000000000111110000000000000000000000000000000000000000000
00000000000000000000000000000000000000000011111111111111111111111100000000000000000000000000000000000000000000001111111100011111110000011111111000000001111100000000000000000000000000000000000000000000
00000000000000000000000000000000000000000000001111111111111111111000000000000000000000000000000000000000000000001111111111001111110000011111111000000011111000000000000000000000000000000000000000000000
00000000000000000000000000000000000000000000000111111111111111000000000000000000000000000000000000000000000000001111111111101111110000011011111110001100010000000000000000000000000000000000000000000000
00000000000000000000000000000000000000000000000011111111111110000000000000000000000000000000000000000000000000001111111111111111000000111011111111111100000000000000000000000000000000000000000000000000
00000000000000000000000000000000000000000000000000111111111100000000000000000000000000000000000000000000000000110011111111111100000000111111111111111110000000000000000001110000011100000000000000000000
00000000000000000000000000000000000000000000000000000000000000000000000000000000001110000000000000000000000001111011111111110000000000111111111111110000000000000000000001110000011100000000000000000000
00000000000000000000000000000000000000000000000000000000000000000000000000000000001110000000000000000000000011111111111110000000000000111111111111100000000000000000000000000000000000000000000000000000
00000000000000000000000000000000000000000000000000000000000000000000000000000000000000000000000000000001111111111111100000000000000000011111111110000000000000000000000000000000000000000000000000000000
00000000000000000000000000000000000000000000000000000000000000000000000000000000000000000000000000000001111111110000000000000000000000000111111000000000000000111000000000001110000000000000000000000000
00000000000000000000000000000000000000000000000000000000000000000000000000000000000000000000000000000001111111000000000000000000000000000000000000000000000000111000000000001110000000000000000000000000
00000000000000000000000000000001110000000000000000000000000000000000000000000000000000000000000000000001111110000000000011100000000000000000000000000000000000000000000000000000000000000000000000000000
00000000000000000000000000000001110000000000000000000000000000000000000000000000000000000000000000000001111100000000000011100000000000000000000000000000000000000000000000000000000000000000000000000000
00000000000000000000000000000000000000000000000000000000000000000000000000000000000000000000000000000001100000000000000000000000000000000000000000000000000000000000000000000000000000000000000000000000
00000000000000000000000000000000000000000000000000000000000000000000000000000000000000000000000000000000000000000000000000000000000000000000000000000000000000000000000000000000000000000000000000000000
00000000000000000000000000000000000000000000000000000000000000000000000000000000000000000000000000000000000000000000000000000000000000000000000000000000000000000000000000000000000000000000000000000000
00000000000000000000000000000000000000000000000000000000000000000000000000000000000000000000000000000000000000000000000000000000000000000000000000000000000000000000000000000000000000000000000000000000
00000000000000000000000000000000000000000000000000000000000000000000000000000000000000000000000000000000000000000000000000000000000000000000000000000000000000000000000000000000000000000000000000000000
00000000000000000000000000000000000000000000000000000000000000000000000000000000000000000000000000000000000000000000000000000000000000000000000000000000000000000000000000000000000000000000000000000000
