P1
200 70
00000000000000000000000000000000000100000000000000000000000000000000000000000000000000000000000000000000000000000000000000000000000000000000000000000000000000000000000000000000000000000000000000000000
00000000000000000000000000000000001110000000000000000000000000000000000000000000000000000000000000000000000000000000000000000000000000000000000000000000000000000000000000000000000000000000000000000000
00000000000000000000000000000000111111000000000000000000000000000000000000000000000000000000000000000000000000000000000000000000000000000000000000000000000000000000000000000000000000000000000000000000
00000000000000000000000000000000011111100000000000000000000000000000000000000000000000000000000000000000000000000000000000000000000000000000000000000000000000000000000000000000000000000000000000000000
00000000000000000000000000000000001111100000000000000000000000000000000000000000000000000000000000000000000000000000000000000000000000000000000000000000000000000000000000000000000000000000000000000000
00000000000000000000000000000000000111110000000000000000000000000000000000000000000000000000000000000000000000000000000000000000000000000000000000000000000000000000000000000000000000000000000000000000
00000000000000000000000000000000000111111000000000000000000000000000000000000000000000000000000000000000000000000000000000000000000000000000000000000000000000000000000000000000000000000000000000000000
00000000000000000000000000000000000011111100000000000000000000000000000000000000000000000000000000000000000000000000000000000000000000000000111000000000000000000000000000000000000000000000000000000000
00000000000000000000000000000000000001111100000000000000000000000000000000000000000000000000000000000000000000000000000000000000000000000000111000000000000001110000000000000000000000000000000000000000
00000000000000000000000000000000000000011110000000000000000000000000000000000000000000000000000000000000000000000000000000000000000000000000000000000000000001110000000000000000000000000000000000000000
00000000000000000000000001110000000000001111000000000000000000000000000000000000000000000000000000000000000000000000000000000000000000011110000000000000011000000000000000000000000000000000000000000000
00000000000000000000000001110000000000011110000000000000000000000000000000000000000000000000000000000000000000000000000000000001100000111111111000000111111000000000000000000000000000000000000000000000
00000000000000000000000000000000000000001100001000000000000000000000000000000011110000000000000000000000000000000011100000000001100001111111111110000100000000000000000000000000000000000000000000000000
00000000000000000000000000000000000000000000011100000000000000000000000111000111100000000000000000000000000000000010000000000000000011111111111110000000000000000000000000000000000000000000000000000000
00000000000000000000000000000000000000000001111000000000000000000000000111000111110000000000000000000000000000000000000000000000000111111111111110000000000000000000000000000000000000000000000000000000
00000000000000000000000111110000000000000000111100100000000000000000000000000111111000000000000000000000000000000000000000000000001111111111011111100000000000000000000000000000000000000000000000000000
00000000000000000000000111110000000000000000011111000000000000000000000000001111111100000000000000000000000000000000000000000011111111111111011111111111110000000011000000000000000000000000000000000000
00000000000000000000000000000000000000000000001111100000000000000000000000000111111100000000000000111000000000000000100011000111111111110111111111111111111100011111111100000000000000000000000000000000
00000000000000000000000000000000000000000000000111111110000000000000000000000111111110000000000000111000000000000000111111101111111111110011111111000111111000011111111100000000000000000000000000000000
00000000000000000000000000000000000000000000000000111110001000000000000000000111111110000000000000000000001111111001111111111111111111111100010000000000011000111111111100000000000000000000000000000000
00000000000000000000000000000000000000000000111100111111001000000000000000000011111111000000000000001111111111011111111110000111111111111100000000000000000000011111111100000000000000000000000000000000
00000000000000000000000000000000000000000011111111111111100011111000000000000011111111100000010000000000011110001100000000000111111111111110000000000000000000011111111110000000000000000000000000000000
00000000000000000000000000000000000000000111111111111111110111111111000000001111111111111111111001110000001100000000000000001111111111111111000000000000000000111110111110000000000000000000000000000000
00000000000000000000000000000000000000000111111111111011111111111111111111111111111111111111111111111000000011100000000000011111111111111111000000000000000001111110111100000000000000000000000000000000
00000000000000000000000000000000000000001111111111110001111111111111111111111110111111110011110000000000000011100000000000011111111111111111000000000000000011111111111000000000000000000000000000000000
00000000000000000000000000000000000000011111111111110011111111111111111111111110111111110000000000000000000000000000000000111111111111111110000000000000000011111111111000000000000000000000000000000000
00000000000000000000000000000000000000111111111000000000111111111000000001111111111111111000000000000000000000000000000001111111101111111110000000000000000111111111111000000000000000000000000000000000
00000000000000000000000000000000000000111111110000000000011111111000000000011111111111111000000000000000000000000000000011111111001111111110000000000000001111111111111000000111000000000000000000000000
00000000000000000000000000000000000000111111110000000000011111111000000000001111100011111000000000000000000000000111000111111111001111111100000000000000011111111111111000000111000000000000000000000000
00000000000000000000000000000000000000111110000000000000001111111000000000001111000011111000000000000000000000000111001111111111100111111100000000000000111111001111111000000000000000000000000000000000
00000000000000000000000000000000000000111110000000000000001100011000000000001111000001111000000000000000000000000000011111110011100011111000000000000001111111001111111000000000000000000000000000000000
00000000000000000000000000000000000000111111100000000000011000000000000000001111000001111110000000000000000000000000111111100000000111111000000000000011111110001111110000000001000000000000000000000000
00000000000000000000000000000000000000111111110000000000011100100000000000001111000000111110000000000000000000000001111111100000001111111111000000000011111110001111110000000111000000000000000000000000
00000000000000000000000000000000000000011111111000000001111111110000000000000111000000011111000000000000000000000001111111000000111111110111000000000111111100001101110000000000000000000000000000000000
00000000000000000000000000000000000000001111111000000111111111100000000000100111000000001111000000000000000000000011111110000000111111100000000000001111111000001101110000000000000000000000000000000000
00000000000000000000000000000000000000001111110000111111111111100000000000111111000000001111100000000000000000000111111100000001111111100000000000011111110000001111110000000000000000000000000000000000
00000000000000000000000000000000000000000111111001111111111111000000000000011111000000011111100000000000000000001111111000000011111111100000000000011111100000011111110000000000000000000000000000000000
00000000000000000000000000000000000000001111111111111111111100000000000000011110000000001111110000000000000000001111111000000011111111100000000000111111100000001111110000000000000000000000000000000000
00000000000000000000000000000000000000011111111111111111111000000000000000011111000000011111111110000000000000011111110000000111111111000000000001111111000000001111110000011100000000000000000000000000
00000000000000000000000000000000000000111111111111111111110000000000000000011111111111111110111110000000000000111111110000000011111110000000000011111110000000011111110000011100000000000000000000000000
00000000000000000000000000000000000001111111111111111111110000000000000000001111111111111110111110001000000001111111100000000111111110000000000001111100000000011111100000000000000000000000000000000000
00000000000000000000000000000000000001111111111111111111100000000000000000001111111111111111111100001100000010011111110000101111111110000000000011111100000000001111100000000000000000000000000000000000
00000000000000000000000000000000000011111110000000011111000110000000000000000111111111111111111100001000000111011111111011111111110011110000000111111111000000011111100000000000000000000000000000000000
00000000000000000000000000000000000011111100000000000111101110000000000000000000000000000001111110000000000111111111111111111111110000010000001111111111100111111111111100000000000000000000000000000000
00000000000000000000000000000000000011111110000000000011111110000000000000000000000000000001111110000000000111111111111000011111111100000000001111111111111111111111111111000000000000000000000000000000
00000000000000000000000000000000000001111100000000000000011110000000000000000000000000000000111111000000001111111111110000011111011111100000001111111111111111111111111111000000000000000000000000000000
00000000000000000000000000000011100001111100000000000000011111000000000000000000000000000000011111000000001111111111100111111111011111100000000111111111111111111111111111000000000000000000000000000000
00000000000000000000000000000011100001111110000000000001111111000000000000000000000000111000011111100000001111111111101111111111111111100000000000000001110001111111111110000000000000000000000000000000
00000000000000000000000000000000000001111111000000000011111110000000000000000000000000111000011111100000001111111111111111111111111111000000000000000000000000111111111110000000000000000000000000000000
00000000000000000000000000000000000001111111110000000011111100000000000000000000000000000011111111110000001111111111111111111111001110000000000000000000000000011111000000000000000000000000000000000000
00000000000000000000000000000000000000111111111100000111111100000000000000000000000000000111111111111110000111000000000111111110000000000000000000000000000000111111000000000000000000000000000000000000
00000000000000000000000000000000000000110011111111111111111110000000000000000000000000000011111111111110000000000000000011111100000000000000000000000000000000111111000000000000000000000000000000000000
00000000000000000000000000000000000000000011111111111111111110000000000000000000000000000001111111111111000000000000000111111100000000000000000000000000000000111111000000000000000000000000000000000000
00000000000000000000000000000000000000000111111111111111111100000000000000000000000000000000000111111111110000000000000111111110000000000000000000000000000000111111000000000000000000000000000000000000
00000000000000000000000000000111000000000011110111111111001000000000000000000001110000000000000001000011110000000000001111110000000000011100000000000000000000111110000000111000000000000000000000000000
00000000000000000000000000000111000000000001110111111111000000000000000000000001000000000000000001000011100000000000001111110000000000011100000000000000000001111110000000111000000000000000000000000000
00000000000000000000000000000000000000000000111111111111100000000000000000000000000000000000000000000011100000000000011111111100000000000000000000000000000000111110000000000000000000000000000000000000
00000000000000000000000000000000000000000000000111111111000000000000000000000000000000000000000000000000000000000000011111111000000000000000000000000000000000000000000000000000000000000000000000000000
00000000000000000000000000000000000000000000000001110000000000011100000000000000000000000000000000000000000000000000111111111000000000000000000000000000000000000000000000000000000000000000000000000000
00000000000000000000000000000000000000000000000000000000000000011100000000000000000000000000000000000000000000000000011000000000011100000000000000000000000000000000000000000000000000000000000000000000
00000000000000000000000000000000000000000000000000000000000000000000000000000000000001110000000000000000000000000000000000000000011100000000000000000000000000000000000000000000000000000000000000000000
00000000000000000000000000000000000000000000000000000000000000000000000000000000000001110000000000000000000000000000000000000000000000000000000000000000000000000000000000000000000000000000000000000000
00000000000000000000000000000000000000000000000000000000000000000000000000000000000000000000000000001110000000000000000000000000000000000000000000000000000000000000000000000000000000000000000000000000
00000000000000000000000000000000000000000000000000000000000000000000000000000000000000000000000000001110000000000000000000000000000000000000000000000000000000000000000000000000000000000000000000000000
00000000000000000000000000000000000000000000000000000000000000000000000000000000000000000000000000000000000000000000000000000000000000000000000000000000000000000000000000000000000000000000000000000000
00000000000000000000000000000000000000000000000000000000000000000000000000000000000000000000000000000000000000000000000000000000000000000000000000000000000000000000000000000000000000000000000000000000
00000000000000000000000000000000000000000000000000000000000000000000000000000000000000000000000000000000000000000000000000000000000000000000000000000000000000000000000000000000000000000000000000000000
00000000000000000000000000000000000000000000000000000000000000000000000000000000000000000000000000000000000000000000000000000000000000000000000000000000000000000000000000000000000000000000000000000000
00000000000000000000000000000000000000000000000000000000000000000000000000000000000000000000000000000000000000000000000000000000000000000000000000000000000000000000000000000000000000000000000000000000
00000000000000000000000000000000000000000000000000000000000000000000000000000000000000000000000000000000000000000000000000000000000000000000000000000000000000000000000000000000000000000000000000000000
