P1
200 70
00000000000000000000000000000000000000000000000000000000000000000000000000000000000000000000000000000000000000000000000000000000000000000000000000000000000000000000000000000000000000000000000000000000
00000000000000000000000000000000000000000000000000000000000000000000000000000000000000000000000000000000000000000000000000000000000000000000000000000000000000000000000000000000000000000000000000000000
00000000000000000000000000000000000000000000000000000000000000000000000000000000000000000000000000000000000000000000000000000000000000000000000000000000000000000000000000000000000000000000000000000000
00000000000000000000000000000000000000000000000000000000000000000000000000000000000000000000000000000000000000000000000000000000000000000000000000000000000000000000000000000000000000000000000000000000
00000000000000000000000000000000000000000000000000000000000000000000000000000000000000000000000000000000000000000000000000000000000000000000000000000000000000000000000000000000000000000000000000000000
00000000000000000000000000000000000000000000000000000000000000000000000000000000000000000000000000000000000000000000000000000000000000000000000000000000000000000000000000000000000000000000000000000000
00000000000000000000000000000000000000000000000000000000000000000000000000000000000000000000000000000000000000000000000000000000000000000000000000000000000000000000000000000000000000000000000000000000
00000000000000000000000000000000000000000000000000000000000000000000000000000000000000000000000000000000111000000000000000000000000000000000000000000000000000000000000000000000000000000000000000000000
00000000000000000000000000000000000000000000000000011000000000000000000000000000000000000000000011100000001000000000000000000000000000000000000000000000000000000000000000000000000000000000000000000000
00000000000000000000000000000000000000000000001111111100000000000000000000000000000000001000000000100000000000000001110000000000000000000000000001110000000000000000000000000000000000000000000000000000
00000000000000000000000000000000000000111111111111111111111111000000000000000000000000001000000000000000000000000001110000000000000000000000000001110000000000000000000000000000000000000000000000000000
00000000000000000000000000000001111111111111111111111111111111111000000000000000000000001100000000000000000000000000000000000000000000000000000000000000000000000000000000000000000000000000000000000000
00000000000000000000000000000001111111111000111111111111111111111111000000000000011110011111000000000000000000000000000000000000000000000000000000000000000000000000000001000000000000000000000000000000
00000000000000000000000000000000111111111000111111011110000011111111111000000000111111111111000000000000000000000000000000000000000000000000000000000000000000000000000001000000000000000000000000000000
00000000000000000000000000000000111111111111111110001110000001111111111100100111111111110000000000000000000000000000000000000000000000000000000000000000000000000000000000000000000000000000000000000000
00000000000000000000000000000001111111000111111111011111000001000011111111111111111111100000000000000000000000000000000000000000000000000000000000000111000110000000000000000000000000000000000000000000
00000000000000000000000000000001111111101111111111111111100000000000001111111111111110000000000000000000000000000000000000000000000000000000000000011111111111100000000000000000000000000000000000000000
00000000000000000000000000000000011111111111111111111111110000000000001111111111111110000000000000000000000000000000000000000001111000000000000000111111111111110000000000000000000000000000000000000000
00000000000000000000000000000000011111111111111111111111111000000001111111111111111111000000000000000000000000000000000000111011111111111110000001111111111111111000000000000000000000000000000000000000
00000000000000000000000000000000011111111111111111111111111100000001111111111111111111110000000000000000000000000000000000111111111111111110000011111111111111111100000000000000000000000000000000000000
00000000000000000000000000000000001111111111111011111111011100000001111111111000001111111100000000000000000000001111100000000111111111111111000111111111111111111110000000000000000000000000000000000000
00000000000000000000000000000001001111111111100001111111011110000000111111110000000011111111100000000000000000001111100000001111111111111110000111111111111111111110000000000000000000000000000000000000
00000000000000000000000000000001111111111110000011111111111110000000111110000000000000111111111000000000000000000000000000011111111111110010001111111111111111111110000000000000000000000000000000000000
00000000000000000000000000000010011111111100000001111111111110000000111100000000000000001111111110000000000000000000000000111111111111100000001111111100000011111111000000000000000000000000000000000000
00000000000000000000000000000000011111111000000001111111111110000000111100000000000000000001111111110000000000000000000001111011111110000100000111111000000011111111000000000000000000000000000000000000
00000000000000000000000000000001111110111000000000111111111110000000111100000000000000000000111111111000000000000000000011111011111110000100000111110000000001111111100000000000000000000000000000000000
00000000000000000000000000000111111110110000000000111111111100000000111100000000000000111100001111111111000000000000000111111111111111111100001111110000000000111111100000000000000000000000000000000000
00000000000000000000000000000111111111110000000000111111111000000000111100000000001111111111100000111111110000000000000111111011111111111000011111110000000000111111110000000000000000000000000000000000
00000000000000000000000000000011111111111000000000111100111100000000011100000000011111101111111000001111100100000000001111111001111011111000111110000000000000011111110000000000000000000000000000000000
00000000000000000000000000000011111111111000000000111000011111100000111110000000111111101111111100000011001111100000011111111111111011111000111110000000000000000111110000000001100000000000000000000000
00000000000000000000000000000001111111111100000001111100111111100000111110000111111111111111111100000000111111111111111111111100111111111000111111100000000000000011110000000001100000000000000000000000
00000000000000000000000000000001111111111110000001111111111011110000111110000111111111111111111110000000001111111111111111111101111111111000111111000000000000000011100000000000000000000000000000000000
00000000000000000000000000000000111111111111100111111111110001110000111100000111100000011111111110000000000000100111111111111111111111111000111111000000000001100111100000000000000000000000000000000000
00000000000000000000000000000000111111111111111111111111100000000000111100000110000000001111111110000000000000000011111111111111111111111000111111100000000011111111110000000000000000000000000000000000
00000000000000000000000000000000011111111111111111011111000000000000000011100000000000000111111110000000000000000111111111111111101111111000111111110000000111111111110000000000000000000000000000000000
00000000000000000000000000000000001111111111111111011111111000000000000111100000000000000111111111000111000000000111111111111111101111110000111111111000001111111111110000000000000000000000000000000000
00000000000000000000000000000000000011111101111111111111111100000000011111100000000000000111111111000111000000001111111111111111111111110000011111111111111111111111110000000000000000000000000000000000
00000000000000000000000000000000000001111101111111000111111110000000011111100000000000000011111111000111000000011111111100000111111111110000000111111111111111111111110000000000000000000000000000000000
00000000000000000000000000000000000001111111111110000111111111000000011111000000000000000011111111100000000000011111111000000011111111111111000111111111111111111111110000000000000000000000000000000000
00000000000000000000000000000000000011111111111000111111111111100000011110000000000000000011111111100000000000000000110000000011111111111111111111111111111111111111110000000000000000000000000000000000
00000000000000000000000000000000000011111111100000001111111111100000011110000000000000000001111111000000000001100000010000000000011111111111111111111111111111111111110000000000000000000000000000000000
00000000000000000000000000000000000111111111100000000111111111110011111100000000000000000001111110000000000011111111100000000000001111100000111111111110111111111111100000000000000000000000000000000000
00000000000000000000000000000000011111101111000000000111111111110011100000000000000000000001111111000000000001111111110000000010011111000000000000111110111111111111110000000000011100000000000000000000
00000000000000000000000000000000011111101110000000000011111111110000000000000000000000000000011111000000000001111111111111111111111111000000000000011111111111111111111000000000011100000000000000000000
00000000000000000000000000000000111111111110000000000011111111110000000000000000000000000000011110000000000011111111111111111111111111000000000000001111000011111111111000000000000000000000000000000000
00000000000000000000000000000000111111111110000000000001111111111000000000000000000000000000111110000000000001111111111111111111111100011100000000000000000011111111000000000000000000000000000000000000
00000000000000000000000000000000111111111110000000000001111111111000000000000000000000000010011110000000000001111111111111111111111000111100000000000000000011111111000000000000000000000000000000000000
00000000000000000000000000000000111111111110000000000011111111110000000000000000000000000111011100000000000001111111111111111111111001111100000000000000000111111110000000000000000000000000000000000000
00000000000000000000000000000000111111111110000000000001100111111000000000000000000000000111111000000000000001111111111111111111111111111100000000000000001111111110000000000000000000000000000000000000
00000000000000000000000000000000111111111111000000000000000111111100000000000000000000000011110000000000000000000000111001111111111111111000000000000000001111111100000000000000000000000000000000000000
00000000000000000000000000000000111111111111000000000000011111111000000000000000000000000011110000000000000000000000000000111111111111111000000000000000000111111000000000000000000000000000000000000000
00000000000000000000000011100000110011111111100000000111111111111000001000000000000000111111100000000000000000000000000000001111111111111000000000000001110111111000000000000000000000000000000000000000
00000000000000000000000011100000000001111011110000001111111111110000011100000000000001111111000000000000000000000000000000001111011111111000000000000111111111110000000000000000000000000000000000000000
00000000000000000000000000000000000011111011111111111111111011110000111110000000000011111100000000000000000000000000000000001110011100000000000000001111111111100000000000000000000000000000000000000000
00000000000000000000000000000000011111111111111111111111111011110001111111000000001001111100000000000000000000000000000000000001111100000000011000111111111111000000000000000000000000000000000000000000
00000000000000000000000000011000011111111111111111111111111111100001111111100001111100110000000000000000000000000000000000000001111000000000111111111111111110000000000000000000000000000000000000000000
00000000000000000000000000011100000011110111111100111111111111100001111111111111111111000000000000000000000000000000000000001100010000000001111111110111111110000000000000000000000000000000000000000000
00000000000000000000000000000000000001110111110000111111111111100001111111111111011100000000000000000000000000000000000000001110000000000011111111110111111000000000000000000000000000000000000000000000
00000000000000000000000000000000000001111111100001111111111000000001111111111110000000000000111000000000000000000000000000001111100000000111011111111111100000000000000000000000000000000000000000000000
00000000000000000000000000000000000000011111100111111100010000000001111111111111000000000000111000000000000000000000000000001111111000000110011111111111000000000000000000000000000000000000000000000000
00000000000000000000000000000000000000000111111111111000000000000000111111111100000000000000000000000000000000000000000000000001111000000001111111101110000000000000000000001100000000000000000000000000
00000000000000000000000000000000000000000000000000000000000000000000111111100000000000000000000000000000000111000000000000000000000000000011111111000000000000000000000000111100000000000000000000000000
00000000000000000000000000000000000000000000000000000000000000000000000000000000000000000000000000000000000001000000000000000000000000000111111111000000000000000000000000011100000000000000000000000000
00000000000000000000000000000000000000000000000000000000000000000000000000000000000000000000000000000000000000000000000000000000000000000001111000000000000000000000000000011100000000000000000000000000
00000000000000000000000000000000000000000000000000000000000000000000000000000000000000000000000000000000000000000000000000000000000000000000000000000000000000000000000000000000000000000000000000000000
00000000000000000000000000000000000000000000000000000000000000000000000000000000000000000000000000000000000000000000000000000000000000000000000000000000000000000000000000000000000000000000000000000000
00000000000000000000000000000000000000000000000000000000000000000000000000000000000000000000000000000000000000000000000000000000000000000000000000000000000000000000000000000000000000000000000000000000
00000000000000000000000000000000000000000000000000000000000000000000000000000000000000000000000000000000000000000000000000000000000000000000000000000000000000000000000000000000000000000000000000000000
00000000000000000000000000000000000000000000000000000000000000000000000000000000000000000000000000000000000000000000000000000000000000000000000000000000000000000000000000000000000000000000000000000000
00000000000000000000000000000000000000000000000000000000000000000000000000000000000000000000000000000000000000000000000000000000000000000000000000000000000000000000000000000000000000000000000000000000
