P1
200 70
00000000000000000000000000000000000000000000000000000000000000000000000000000000000000000000000000000000000000000000000000000000000000000000000000000000000000000000000000000000000000000000000000000000
00000000000000000000000000000000000000000000000000000000000000000000000000000000000000000000000000000000000000000000000000000000000000000000000000000000000000000000000000000000000000000000000000000000
00000000000000000000000000000000000000000000000000000000000000000000000000000000000000000000000000000000000000000000000000000000000000000000000000000000000000000000000000000000000000000000000000000000
00000000000000000000000000000000000000000000000000000000000000000000000000000000000000000000000000000000000000000000000000000000000000000000000000000000000000000000000000000000000000000000000000000000
00000000000000000000000000000000000000000000000000000000000000000000000000000000000000000000000000000000000000000000000000000000000000000000000000000000000000000000000000000000000000000000000000000000
00000000000000000000000000000000000000000000000000000000000000000000000000000000000000000000000000000000000000000000000000000000000000000000000000000000000000000000000000000000000000000000000000000000
00000000000000000000000000000000000000000000000000000000000000000000000000000000000000000000000000000000000000000000000000000000000000000000000000000000000000000000000000000000000000000000000000000000
00000000000000000000000000000000001000000000000000000000000000000000000000000000000000000000000000000000000000000000000000000000000000000000000000000000000000000000000000000000000000000000000000000000
00000000000000000000000000000000011100000000000000000000000000000000000000000000000000000000000000000000000001110000000000000000000000000000000000000000000000000000000000000000000000000000000000000000
00000000000000000000000000000000111110000111000000000000000000000000000000000000000000000000000000000000000111110000000000000000000000000000000000000000000000000000000000000000000000000000000000000000
00000000000000000000000000000000011111000111000000000000000100000000000000000000000000000000000000000000000111000000000000000000000000110000000000000000000011100000000000000000000000000000000000000000
00000000000000000000000000000000001111100000000000000000001100000000000000000000000000000000000000000000000110000000000000000000000001111000000000000000000011100000000011000000000000000000000000000000
00000000000000000000000000000000000111110000000000000000011100000000000000000000000000000000000000000000001110000000000000000000000001111111110000000000000000000000000000000000000000000000000000000000
00000000000000000000011100000000000011111000000001110000011100000000000000000000000000000000000000000000000000000000000000000000000001111111111100000000000000000000000000000000000000000000000000000000
00000000000000000000011100000000000001111100111111110000000000000000000000000000000000000000000000000000000000000000000000000000000001111111111111100000000000000000000000000000000000000000000000000000
00000000000000000000000000000000000000111111111111110001000000000000000000000000000000000000000000000000000000000000000000000000000001111111111111111110000000000000000000000000000000000000000000000000
00000000000000000000000000000000000000111111111111111000000000000000000000000000000000000000000000000000000000000000000110000000000001111111111111111100000000000000000000000000000000000000000000000000
00000000000000000000000000000000000000011111111111111100000000000000000000000000000000000000000000000000000001100000000110000000000001111111111111111100111100000000000000000000000000000000000000000000
00000000000000000000000000000000000000001111111111111111110000000000000000000000000000000000110000000000000111110000000000000000000001111111111111111111111110000000000000000000000000000000000000000000
00000000000000000000000000000000000000001111110111111111111000000000000000000000000000000111111000000000011111110001110000000000000001111111111111111111111100000000000011000000000000000000000000000000
00000000000000000000000000000000000000001111110111111111111000000000000000000000000000011111110000000001111111110000000000000000000001111111111111111111111100000000000011000000000000000000000000000000
00000000000000000000000000000000000000000111111111111111111000000000000000000011111111111111110000001111111111110000000000000000000000011111001111111111111100000000001000000000000000000000000000000000
00000000000000000000000000000000000000000111111111111111111000000000000000111111111111111111110000001111111111110000000000000000000010011110000011111111111110011111111000000000000000000000000000000000
00000000000000000000000000000000000000011111110011111111111000000000001111111111111111111111100010011111111111110000000000000000000011111110000000011111111111111101111000000000000000000000000000000000
00000000000000000000000000000000000000111111100000001111111000000011111111111111111001100110000011111111111111110000000000000000000011111111000000000111111111111000111000000000000000000000000000000000
00000000000000000000000000000000000000111110000000000111111100000011111111001111100000000000000011111111111111100000000000000000000011111111000000001111111110001000000000000000000000000000000000000000
00000000000000000000000000000000000000111110000000001111111110000000011111000000000000000000000011111110001111100000000000000000000001111111000001111111111100000000000000000000000000000000000000000000
00000000000000000000011100000000000000111111100000011111111111000000011111110000000000000000000000011100000111100000000000000000000001111111111000111111110000000000000000000000000000000000000000000000
00000000000000000000011100111000000000111111110000111101111111111100001111110000000000000000000000000000001111000000000000000000000111111111111101111100000000000000000000000000000000000000000000000000
00000000000000000000000000111000000000111111111101111100100011111111011111100000000000000000000000000000011110000000000000000011111111111111111111110000000000000000000000000000000000000000000000000000
00000000000000000000000000000000011100111111111111111110000000111111111111000000000011000000000000000000011111000000000011111111111111111111111111100000000000000000000000000000000000000000000000000000
00000000000000000000000000000000011100011111111111111111000000001111111111100000000111100000000000000000111111100111111111111111111001111111111111110000000000000000000000000000000000000000000000000000
00000000000000000000000000000000000000011111111111111111111000000011111111111111111111110000000000001111111111111111111111111110000001111111111111111000000000000000000000000000000000000000000000000000
00000000000000000000000000000000000000001111111111111111111100000000111111111111111111111111000110001111111111111111111111111000001111111111111111111100000000000000000000000000000000000000000000000000
00000000000000000000000000000000000000000111111111101111111110000000011111111111111111111111111000011111111111111100000000010000001110011111111111111100000000000000000000000000000000000000000000000000
00000000000000000000000000000000000000000111111111000111111110000000001111111111111111100111111000111111111110000000000000111000000100001111111111111110000000000000000000000000000000000000000000000000
00000000000000000000000000000000000000001111111110000111111000000000001111111111111111100000010000000011111100000000000000111011100000000000111101111111000000000000000000000000000000000000000000000000
00000000000000000000000000000000000000001110011110000011110011100000001111111111111111111000000000000011111100000000000000000011100000000000011001111111000000000000000000000000000000000000000000000000
00000000000000000000000000000000000000011100001111000001000111111000001101000001111111111100000000000011111100000000000000000000000000000000000111111111000000000000000000000000000000000000000000000000
00000000000000000000000000000000000000111100100111000000001111111000000000000000111111111100000000000011111100000000000000000000000000000000000111111111100000000000000000000000000000000000000000000000
00000000000000000000000000000000000000111111000000000000111111100011100000000000011111111110000000000000111100000000000000000000000000000000000010011111100000000000000000000000000000000000000000000000
00000000000000000000000000000000000000111111000000000001111111000011100000000000000000111110000000000100111000000000000000111000000000000000000000011111000000000000000000000000000000000000000000000000
00000000000000000000100000000000000001111100000000000001111111100000000000000000000000111100000000000111111000000000000000111000000000000000000001111100000000000000000000000000000000000000000000000000
00000000000000000000100000000000000001111100000000000001111111100000000000000000000001111000011100000111111000000000000000000000000001110000000001111100100000000000000000000000000000000000000000000000
00000000000000000000000000000000000001111110000000000011111111000000000000000000000001111000011100001111111000000000000000000000000001110000000001111111100000000000000000000000000000000000000000000000
00000000000000000000000000000000000001111111000000000111111111000000000000000000000001111100000000001100110000000000000000000000100000000000000001111111100000000000000000000000000000000000000000000000
00000000000000000000000000000000000011111111100000001111111111000000000000000000000001111110000000000000110000000000000000000000111000000000000001111111110000000000000000000000000000000000000000000000
00000000000000000000000000000000000011111011110000000111111110000000000000000000000001111100000000000001110000000000000000000001111100000000000001111111110000000000000000000000000000000000000000000000
00000000000000000000000000000000000011111011111100001111111100000000000000000000000011111100000000011111110000000000000000000001110011000001110011111111100000000000000000000000000000000000000000000000
00000000000000000000000000000000000011111111111111111111111000000000000000000000000010011000000000011111110000000000000000000000100000110001111011111111100000000000011100000000000000000000000000000000
00000000000000000000000000000000000011111111111111111111110000000000110000000000000011011000000000011111110000000000000000000000011001111111111111111111000000000000011100000000000000000000000000000000
00000000000000000000000000000000000011101111111111011111100000000000110000000000000011111000000000111101110000000000000000000000111111111111111111111111000000000000000001000000000000000000000000000000
00000000000000000000000000000000000001001111111111011110000000000000111000000000000111110000000000111101110000000000000000000000111111111111111111111111100000000000000001000000000000000000000000000000
00000000000000000000000000000000000000111111111111111100000000000000111111100000001111110000000000111111110000000000000000000000111111111111111111111111000000000000000000000000000000000000000000000000
00000000000000000000000000000000000000111111111111111011100000000000111111111110111111100000000000111111110000000000000000000000011111111011111111111110000000000000000000000000000000000000000000000000
00000000000000000000000000000000000000011111111100000011100000000000111111111111111111100000001111111111110000000000000000000000001111111011111111111100000000000000000000000000000000000000000000000000
00000000000000000000000000000000000000000100000000000000000000000000000001111111111111000000001111111111110000000000000000000000000111111111111111111100000000000000000000000000000000000000000000000000
00000000000000000000000000000000000000000000000000000000000000000000000001111001111110000000000011111111100000000000000000000000000001111111111111111100000000000000000000000000000000000000000000000000
00000000000000000000000000000000000000000000000000000000000000000000000011110000001100000000000001111111100000000000000000000000000000011111111111110000000000000000001110111000000000000000000000000000
00000000000000000000000000000000000000000000000000000000000000000000000011100000000000000000000001111111100000000000000000000000000000000011111111100000000000000000000000111000000000000000000000000000
00000000000000000000000000000000000000000000000011100000000000000000000000000000000000000000000001000001111000000000000000000000000000000000111110000000000000000000000000000000000000000000000000000000
00000000000000000000000000000000000000000000000011000000000000000000000000000000000000000000000000000001111000000000000000000000000000000000000000000000000000000000000000000000000000000000000000000000
00000000000000000000000000000000000000000000000000000000000000000000000000000000000000000000000000000000000000000000000000000000000000000000000000000000000000000000000000000000000000000000000000000000
00000000000000000000000000000000000000000000000000000000000000000000000000000000000000000000000000000000000000000000000000000000000000000000000000000000000000000000000000000000000000000000000000000000
00000000000000000000000000000000000000000000000000000000000000000000000000000000000000000000000000000000000000000000000000000000000000000000000000000000000000000000000000000000000000000000000000000000
00000000000000000000000000000000000000000000000000000000000000000000000000000000000000000000000000000000000000000000000000000000000000000000000000000000000000000000000000000000000000000000000000000000
00000000000000000000000000000000000000000000000000000000000000000000000000000000000000000000000000000000000000000000000000000000000000000000000000000000000000000000000000000000000000000000000000000000
00000000000000000000000000000000000000000000000000000000000000000000000000000000000000000000000000000000000000000000000000000000000000000000000000000000000000000000000000000000000000000000000000000000
00000000000000000000000000000000000000000000000000000000000000000000000000000000000000000000000000000000000000000000000000000000000000000000000000000000000000000000000000000000000000000000000000000000
00000000000000000000000000000000000000000000000000000000000000000000000000000000000000000000000000000000000000000000000000000000000000000000000000000000000000000000000000000000000000000000000000000000
