P1
200 70
00000000000000000000000000000000000000000000000000000000000000000000000000000000000000000000000000000000000000000000000000000000000000000000000000000000000000000000000000000000000000000000000000000000
00000000000000000000000000000000000000000000000000000000000000000000000000000000000000000000000000000000000000000000000000000000000000000000000000000000000000000000000000000000000000000000000000000000
00000000000000000000000000000000000000000000000000000000000000000000000000000000000000000000000000000000000000000000000000000000000000000000000000000000000000000000000000000000000000000000000000000000
00000000000000000000000000000000000000000000000000000000000000000000000000000000000000000000000000000000000000000000000000000000000000000000000000000000000000000000000000000000000000000000000000000000
00000000000000000000000000000000000000000000000000000000000000000000000000000000000000000000000000000000000000000000000000000000000000000000000000000000000000000000000000000000000000000000000000000000
00000000000000000000000000000000000000000000000000000000000000000000000000000000000000000000000000000000000000000000000000000000000000000000000000000000000000000000000000000000000000000000000000000000
00000000000000000000000000000000000000000000000000000000000000000000000000000000000000000000000000000000000000000000000000000000000000000000000000000000000000000000000000000000000000000000000000000000
00000000000000000000000000000000000000000000000000000000000000000000000000000000000000000000000000000000000000000000000000000000000000000000000000000000011100000000000000000000000000000000000000000000
00000000000000000000000000000000000000000000000000000000000000000000000000000000000000000000000000000000000000000000000000000000000000000000000000000000011100000000000000000000000000000000000000000000
00000000000000000000000000000000000000000000000000000000000000000000000000000000000000000000000000000000000000011100000111111100000000000000000000000000000000000000000000000000000000000000000000000000
00000000000000000000000000000000000000000000000000000000000000000000000000000000000000000000000000000000000000011100001111111100000000000000000000000000000000000000000000000000000000000000000000000000
00000000000000000000000000001110000000000000000000000000000000000000000000000001110000000000000000000000011100000000111111111100000000000000000000000000000000000000000000000000000000000000000000000000
00000000000000000000000000001110111000000000000000000000000000000000000000000001110000000000000000000000011100000001111111111100000000000000001111000000000000000000000000000000001000000000000000000000
00000000000000000000000000000000111000000000000000000000000000000000000000000000000000000000000000000000000000000011111111111100000000000000001111111000000000000111000000000000000000000000000000000000
00000000000000000000000000000000000000000000000000000000000000000000000000000000000000000000000000000000000000000111111111110000000000000010011111111111111000000111000000000000000000000000000000000000
00000000000000000000000000000000000000000001111100011000000000000000000000000000000000000000000000000000000000001111111111110000000000000011111111111111111110000000000000000000000000000000000000000000
00000000000000000000000000000000000000001111111110111100000000000000000000000000000000000000000000000000000000001111111111111000000000000111111111111110011111100000000000000000000000000000000000000000
00000000000000000000000000000000000000111111111111111100000000000000000000000000000000000000000000000000000000011111111111111000000000001111111111111100011111110000000000000000000000000000000000000000
00000000000000000000000000000000000011111111111111111110000000000000000000000000000000000000000000000000000000111111001111111000000000001111111111110000111111111000000000000000000000000000000000000000
00000000000000000000000000000000000111111111111111111111100000000000000000111001111111000000000000000111000001111110001111111000000000001111111111100000011111111100000000000000000000000000000000000000
00000000000000000000000000011100001111111101111111111111111100000000000001111111111111111000000000000111000011111100011111111000000000011110011111100000011111111000000000000000000000000000000000000000
00000000000000000000000000011100011111111101111111111111111100000000000011111111111111111100000000000000000111111100011111111100000011111110000111100000001111111001000000000000000000000000000000000000
00000000000000000000000000000000011111111111111111111011111000000000000111111111000011111111000000000000000111111000011111111110000011111111100111100000001111111111000000000000000000000000000000000000
00000000000000000000000000000000100111111111111111110011110000000000001111111110000000111111000000000000001111110000011111111110000000011111111111100000000111111100000000000000000000000000000000000000
00000000000000000000000000000001110111111110000110001111111000000000001111111100000000001111000011100000111111110000011111111100000000111111111111100000001111111100000000000000000000000000000000000000
00000000000000000000000000000001111111111100000000011111111000000000001111111000000000001111000011100000111111100000011111111000000001111111111111111111111111111111110000000000000000000000000000000000
00000000000000000000000000000001111111111000000000111111111000000000011111001000000000000111000000000001111111000000011111111000000001111111111111111111111111111111111000000000000000000000000000000000
00000000000000000000000000000000011111111000000000111111111000000000011111000000000000000111001110000000111110000000001101111000000000011111111111001111111110111110111100000000000000000000000000000000
00000000000000000000000000000000001111111000000000111111011000000000011111110000000000000000001111000100111100000000001101110000000000001111111110000000001110111110111100000000000000000000000000000000
00000000000000000000000000000001110011111000000000111111011000000000011011110000000000000000000000001111111000000000011111110000000000011111111110000000001111111111111000000000000000000000000000000000
00000000000000000000000000000001111011111000000000111111111000000000111011110000000000000000000000011111110000000000011111110000000011111111111111000000001111111111111000000000000000000000000000000000
00000000000000000000000000000000111111111100000001111111111000000000111111100000000000000000000000111111100000000000011111110000001111111111111111100000000111111111100000000000000000000000000000000000
00000000000000000000000000000000111111111110000011111111110000000000011111100000000000000000000001111111000000000000111111110001111111110001111111110000000111111111100000000000000000000000000000000000
00000000000000000000000000000000111111111111110111111111110000000000011111100000000000000000000001111111000000000000111111110111111111000000111111111100001111111110000000000000000000000000000000000000
00000000000000000000000000000000111111111111111111111111111000000000011111111111100000000000000011111100000000000000111110011111111100000000011111111111111111111110000000000000000000000000000000000000
00000000000000000000000000000000011111111111111111111111111110000000011111111111111000111000000111111100000000000000111110111111100000000000111111101111111111111000000000000000000000000000000000000000
00000000000000000000000000000000001111111111111111111111111111100000011111111111111111111100001001111000000000000000111111111111000000000011111111001111111111111000000000000000000000000000000000000000
00000000000000000000000000000000000111111111111111111111111111110000011011111000000111111110011101100000000000000000111111111100000000000111111000111111111111111100000000000000000000000000000000000000
00000000000000000000000000000000000011111011111111111111111111111000011011100000000001111111111111110000000000000001111111111000000000001111110001111000001111110011000000000000000000000000000000000000
00000000000000000000000000000000000000100011111111111111111111111100011111100000000000100111111111111111000000000011111111110000000000001111100011100000000111110111100000000000000000000000000000000000
00000000000000000000000000000000000000001111111111111111111011111110011111100000000000000111111111111111111111100111111111100000000000011111100111100000000111111111100000000000000000000000000000000000
00000000000000000000000000000000000000001111111111000111111011111111011111100000000000011111111111111111110011111111111111100000000000011111111111100000000111111111100000000000000000000000000000000000
00000000000000000000000000000000000000011111111110000000111111111111111111100000000000011111111001111111110111111111111111100000000000011111111111100000000011111111110000000000000000000000000000000000
00000000000000000000000000000000000000011111111100000000011101111111111111100000000000001111111000000111111111111111111111111000000000111111111111100000000011111111111100000000000000000000000000000000
00000000000000000000000000000000000000111111111100000000001001111111111111100000000000001111111000000001111111111111111111111100000000111111111111000000000011111111111110000000000000000000000000000000
00000000000000000000000000000000000000111111111100000000000111111111111111100011100000000111110000000001111111000011111111111000111001111111111111000000000011111111111110000000000000000000000000000000
00000000000000000000000000000000000001111111111100000000000111111111111111100000000000000111110000000111111110000001111111111101111111111111111111000000000011111111111110000000000000000000000000000000
00000000000000000000000000000000000111111111111100000000000111111111111111110000000000001001110000011111001000000001111111111111111111111101111111000000000011111111111110000000000000000000000000000000
00000000000000000000000000000000000111111111000000000000000011111111111111110000000000011101110001111110000000000001111111100111111111111001111111000000000001111111111110000000000000000000000000000000
00000000000000000000000001110000000000111111000000000000000000011111111111110000000000011111110001111110000000000001111111100001111111110011111111000000000001111111111110000000000000000000000000000000
00000000000000000000000001110000000000000111111110000000000000011111111100110000000000011111111001100000000000000001111111100001111111110111111111000000000011111111111110000000000000000000000000000000
00000000000000000000000000000000010000000011111111000000000011111111111000001000000000111111111100000000000000000000111111100001111111111111111111000000000011111111111110000000000000000000000000000000
00000000000000000000000000000111111111100111111111100000000111111111111110011100000001111111111100000000000000000000111111000000000111111111111111000000000001111111111100000000000000000000000000000000
00000000000000000000000000000111111111111111111111110000000111111111111111111110001111111111110000000000001111000001111111000000000000011101111111000000000011111111111100000000000000000000000000000000
00000000000000000000000000000000011111111111111111111100011111111111111001111111111111111100000000000000001111100011111111000000000000011000111111100000000011111111111000000000000000000000000000000000
00000000000000000000000000000000000000011111111111111100011111111111111001111111111111111000000000000000011111111111111100000000000000011101111111100000000111111111110000000000000000000000000000000000
00000000000000000000000000000000000000001111111111111100011111111101111100111111111000100000000111000000001111111111111100000000000000001111111101111111111111111111100000000000000000000000000000000000
00000000000000000000000000000000000000000011111111111000011111111101111110011111110000000000000111000000001111111111111111100000000000000111111101111111111111111111100000000000000000000000000000000000
00000000000000000000000000000000000000000001111111111100111111111111111111000000000000000000000000000000000000011111111111111110000000000011111111111111111111111110000000000000000000000000000000000000
00000000000000000000000000000000000000000000111111111111111111111111100000000000000000000000000000000000000000000011111111111111100000000001111111111111111111100000000000000000000000000000000000000000
00000000000000000000000000000000000000000000011110111111111111111110000000000000000000000000000000000000000000000000111111111111110000000000001111111111111000000011100000000000000000000000000000000000
00000000000000000000000000000000000000000000001110011111111110011000000000000000000000000000000000000000000000000000000111111111110000000000000001111111000000000011100000000000000000000000000000000000
00000000000000000000000000000000000000001110000111011111111100000000000011100000000000000000000000000000000000000000000000011111110000000000000000000000000000000000000000000000000000000000000000000000
00000000000000000000000000000000000000001110000000000010000000000000000011100000000000000000000000000000000000000000000000000001110000000000000000000000000000000000000000000000000000000000000000000000
00000000000000000000000000000000000000000000000000000000000000000000000000000000000000000000000000000000000000000000000000000000000000000000000000000000000000000000000000000000000000000000000000000000
00000000000000000000000000000000000000000000000000000000000000000000000000000000000000000000000000000000000000000000000000000000000000000000000000000000000000000000000000000000000000000000000000000000
00000000000000000000000000000000000000000000000000000000000000000000000000000000000000000000000000000000000000000000000000000000000000000000000000000000000000000000000000000000000000000000000000000000
00000000000000000000000000000000000000000000000000000000000000000000000000000000000000000000000000000000000000000000000000000000000000000000000000000000000000000000000000000000000000000000000000000000
00000000000000000000000000000000000000000000000000000000000000000000000000000000000000000000000000000000000000000000000000000000000000000000000000000000000000000000000000000000000000000000000000000000
00000000000000000000000000000000000000000000000000000000000000000000000000000000000000000000000000000000000000000000000000000000000000000000000000000000000000000000000000000000000000000000000000000000
