P1
200 70
00000000000000000000000000000000000000000000000000000000000000000000000000000000000000000000000000000000000000000000000000000000000000000000000000000000000000000000000000000000000000000000000000000000
00000000000000000000000000000000000000000000000000000000000000000000000000000000000000000000000000000000000000000000000000000000000000000000000000000000000000000000000000000000000000000000000000000000
00000000000000000000000000000000000000000000000000000000000000000000000000000000000000000000000000000000000000000000000000000000000000000000000000000000000000000000000000000000000000000000000000000000
00000000000000000000000000000000000000000000000000000000000000000000000000000000000000000000000000000000000000000000000000000000000000000000000000000000000000000000000000000000000000000000000000000000
00000000000000000000000000000000000000000000000000000000000000000000000000000000000000000000000000000000000000000000000000000000000000000000000000000000000000000000000000000000000000000000000000000000
00000000000000000000000000000000000000000000000000000000000000000000000000000000000000000000000000000000000000000000000000000000000000000000000000000000000000000000000000000000000000000000000000000000
00000000000000000000000000000000000000000000000000000000000000000000000000000000000000000000000000000000000000000000000000000000000000000000000000000000000000000000000000000000000000000000000000000000
00000000000000000000000000000000000000000000000000000000000000000000000000000000000000000000000000000000000000000000000000000000000000000000000000000000000000000000000000000000000000000000000000000000
00000000000000000000000000000000000000000000000000000000000000000000000000000000000000000000000000011100000000000000000000000000000000000000000000000000000000000000000000000000000000000000000000000000
00000000000000000000000000000000000000000000000000000000000000000000000000000000000000000000000000011100000000000000000000000000000000000000000000000000000000000000000000000000000000000000000000000000
00000000000000000000000000000000000000000000000000000000000000000000000000000000000000000000000000000000000000000000000000000000000000000000000000000000000000000000000000000000000000000000000000000000
00000000000000000000000000000000000000000000000000000000000000000000000000000000000000000000000000000000000000000000000000000000000000000000000000000000000000000000000000000000000000000000000000000000
00000000000000000000000000000000000000000000000000000000000000000000000000000000000000000000000000000000000000000000000000000000000000000000000000000000000000000000000001110000000000000000000000000000
00000000000000000000000000111000000000000000000000000000000000000000000000000000000000000000000000000000000000000000000000000000000000000000000000000000000000000000000001110000000000000000000000000000
00000000000000000000000000000000000000000000000000000000000001000000000000000000000000000000000000000000000000000000000000000000000000000000000000000000000000000000000000000000000000000000000000000000
00000000000000000000000000000000000000000000000000011111110011110000000000000000011100000000000000000000011100000000000000000000000000000000000000000000000000000000000000000000000000000000000000000000
00000000000000000000000000000000000000000000000000111111111111111100000000000000011100000000000000000000011100000001100000000000000000000000000000111100000000000000000000000000000000000000000000000000
00000000000000000000000000000000000000000000000000111111111111111100000000000000000000000000000000000000000000000011111000000000000000000011100001111110000000000000000000000000000000000000000000000000
00000000000000000000000000000000000000000000011001111111111111111110000000000000000000000000000000000000000000000011111110000000000000000011100001111111100000000000000000000000000000000000000000000000
00000000000000000000000000000000000000000000111111111111111111111111000000000000000000000111111111000000000000000011111111100000000000000000000011111111110000000000000000000000000000000000000000000000
00000000000000000000000000000000000000000000111111111111111101111111000000000000000000001111111111110000000000000011111111111100000000000000000011100011111000000000000000000000000000000000000000000000
00000000000000000000000000000000000000000011111111111100111000111111000000000000000000111101111111100000000000000011111111111110000000000000000000000001111111000000000000000000000000000000000000000000
00000000000000000000000000000000000000000111111111111000010001111110000000000000000001111101111111110111000000000011100111111111000000000000000000000000011111100000000000000000000000000000000000000000
00000000000000000000000000000000000000001111111111110000000001111100000000000000000011111111111111111111100000000011000001111111000000000000000000000000001111000000000000000000000000000000000000000000
00000000000000000000000000011100000000011111111111100000000011111110000000000000000111111111111111111111110000000111000000110000000000000000000000000000000001000000000000000000000000000000000000000000
00000000000000000000000000011100001000000111111111000000000111101111100000000000001111111111111111111111110000000111000000000000000000000000000000000000000000111000000000000000000000000000000000000000
00000000000000000000000000000000011100000111111100000000000111101111100000000000001111111111000001111111111000000111000000000000000000000000000000000000000001111000000000000000000000000000000000000000
00000000000000000000000000000000111110000111111000010000000111111111100000000000011111111110000000111111111000000111001110000000000000000000000000000000000001110000000000000000000000000000000000000000
00000000000000000000000000000001111111000011111100110000000111111111000000000000111111111111000000000111111100000110001110000000000000000000000000000111000011110000000111000000000000000000000000000000
00000000000000000000000000000001111111100001111110001100001111111111100000000000111111111111000000000011111100001110000000000000000000000000000000000111000111100000000111000000000000000000000000000000
00000000000000000000000000000000000111110000111111011111011111111111000000000001111111111000000000000011111100001111110000000000000000000000000000000000001111100000000000000000000000000000000000000000
00000000000000000000000000000000000011111000111111111111111111111110000000000001111111111000000000000000111110001111111100000000000000000000000000000001111110000000000000000000000000000000000000000000
00000000000000000000000000000000000001111100001111111111111111111110000000000011111111111111111100000000001110001111111110000000000000000000000000000001111110000000000000011100000000000000000000000000
00000000000000000000111000000000000000111110000111111111111111111100000000000011111111111111111111000000000000001111111100000000000000000000000000000001111100000000000000011100000000000000000000000000
00000000000000000000111000000000000000111111000111111111111111111110000000000011111111111111111111111000000000001110000000011000000000000000000000000011111000000000001110000000000000000000000000000000
00000000000000000000000000000000000000011111110111111111111111111100000000000011111111111111111111111000000001111000000000011000000000000000000000000011111000000000001110000000000000000000000000000000
00000000000000000000000000000000000000001111110011110111111111111100100000000111111111111111111111111100000001110000000000011100000000000000000000000111110000000000000000000000000000000000000000000000
00000000000000000000000000000000000000000111110111110111100111111111110000000111111111111111111111111110000000000000000000111100000000000000000000001111110000000000000000000000000000000000000000000000
00000000000000000000000000000000000000000111111111111110000001111111110000001111111100000000111111111111000000000000000000011110000000000000000000011111000000000000000000000000000000000000000000000000
00000000000000000000000000000000000000000111111111111110000001111110000000001111111000000000001111111111000000000000000000011110000000000000000000111110000000000000000000000000000000000000000000000000
00000000000000000000000000000000000000000000111111111111000000111100000000001111111000011100000111111111100000000000000000011111000000000000000001111100000000000000000000000000000000000000000000000000
00000000000000000000000111000000111000000000111111111111000000001110000000000011111100011100000111111111100000000000000000011111000000000000000011111100000000000000000000000000000000000000000000000000
00000000000000000000000001000000000000000000011111111111100000001111111100000011100100000000000111111111110011100000000000001111000000000000000111111111111110001100000000000000000000000000000000000000
00000000000000000000000000000000000000000000000011111111110000011111111100011111100100000000000011111111100001100000000000001110000000000000111111111111111111111111100000000000000000000000000000000000
00000000000000000000001110000000000000000000000011111111111100011111111100011111111100000000000011111111000001110000000000001000110001111100011111111111111111111111111100000000000000000000000000000000
00000000000000000000001110000000000000000000001111111111111111111110111100011111111100000000000111111111000011110000000000011101111111111110111111111111111111111111111100000000000000000000000000000000
00000000000000000000000000000000000000000000001111111111111111111110111100001111111100000000000111111111100011110000000000111111111111111111111000000000111100000001111000000000000000000000000000000000
00000000000000000000000000000000000000000000000111111110001111111111111100000011111100000000001111111111100011110000000000111111111111101111100000000000011000000000001000000000000000000000000000000000
00000000000000000000000000000000000000000000000011111100001111111111111110000011111110000000001111111111100111111111111100011111111000001111000000000000000000000000000000000000000000000000000000000000
00000000000000000000000000000000000000000000000001111110011111111111111111111111111100000000111111111110001111111111111100011111110000000010001110000000000000000000111000000000000000000000000000000000
00000000000000000000000000000000000000000000000000111111111111111111111111111111111110111111111111111110011111111111111110001111110000000000001110000000000000000000111000000000000000000000000000000000
00000000000000000000000000000000000000000000000000011111111111111111111111111111111111111111111111111111111111111110000000001111110000000000000000000000000000000000000000000000000000000000000000000000
00000000000000000000000000000000000000000000000000000111111111111111111111111111111111111111111111111111111000111000000000011111111000000000000000000000000000000000000000000000000000000000000000000000
00000000000000000000000000000000000000000000000000000011111101111111011100000001111111111111111011111111110000000001110000111111110000000000000000000000000000000000000000000000000000000000000000000000
00000000000000000000000000000000000000000000000000111000111000111111001000000000111111111111111011111101110000000011111111111111110000000000000000000000000000000000000000000000000000000000000000000000
00000000000000000000000000000000000000000000000000111000000000111111110000000000001111111101111111111000000000000011111111111111110000000000000000000000000000000000000000000000000000000000000000000000
00000000000000000000000000000000000000000000000000000000000000111111100000000000000001111000111111100000000000000000011111101111100000000000000000000000000000000000001100000000000000000000000000000000
00000000000000000000000000000000000000000000000000000011100000000000000000000000000000000001111110000000000000000000000111101111100000000000000000000000000000000000000000000000000000000000000000000000
00000000000000000000000000000000000000000000000000000011100000000000000000000000000000000000000000000000000000000000000011111100000000000000000000000000000000000000000000000000000000000000000000000000
00000000000000000000000000000000000000000000000000000000000000000000000000000000000000000000000000000000000000000000000000010000000000000000000000000111000000000000000000000000000000000000000000000000
00000000000000000000000000000000000000000000000000000000000000000000000000000000000000000000000000000000000000000000000000000000000000000000000000000110000000000000000000000000000000000000000000000000
00000000000000000000000000000000000000000000000000000000000000000000000000000000000000000000000000000000000000000000000000000000000000000000000000000000000000000000000000000000000000000000000000000000
00000000000000000000000000000000000000000000000000000000000000000000000000000000000000000000000000000000000000000000000000000000000000000000000000000000011100000000000000000000000000000000000000000000
00000000000000000000000000000000000000000000000000000000000000000000000000000000000000000000000000000000000000000000000000000000000000000000000000000000011100000000000000000000000000000000000000000000
00000000000000000000000000000000000000000000000000000000000000000000000000000000000000000000000000000000000000000000000000000000000000000000000000000000000000000000000000000000000000000000000000000000
00000000000000000000000000000000000000000000000000000000000000000000000000000000000000000000000000000000000000000000000000000000000000000000000000000000000000000000000000000000000000000000000000000000
00000000000000000000000000000000000000000000000000000000000000000000000000000000000000000000000000000000000000000000000000000000000000000000000000000000000000000000000000000000000000000000000000000000
00000000000000000000000000000000000000000000000000000000000000000000000000000000000000000000000000000000000000000000000000000000000000000000000000000000000000000000000000000000000000000000000000000000
00000000000000000000000000000000000000000000000000000000000000000000000000000000000000000000000000000000000000000000000000000000000000000000000000000000000000000000000000000000000000000000000000000000
00000000000000000000000000000000000000000000000000000000000000000000000000000000000000000000000000000000000000000000000000000000000000000000000000000000000000000000000000000000000000000000000000000000
