P1
200 70
00000000000000000000000000000000000000000000000000000000000000000000000000000000000000000000000000000000000000000000000000000000000000000000000000000000000000000000000000000000000000000000000000000000
00000000000000000000000000000000000000000000000000000000000000000000000000000000000000000000000000000000000000000000000000000000000000000000000000000000000000000000000000000000000000000000000000000000
00000000000000000000000000000000000000000000000000000000000000000000000000000000000000000000000000000000000000000000000000000000000000000000000000000000000000000000000000000000000000000000000000000000
00000000000000000000000000000000000000000000000000000000000000000000000000000000000000000000000000000000000000000000000000000000000000000000000000000000000000000000000000000000000000000000000000000000
00000000000000000000000000000000000000000000000000000000000000000000000000000000000000000000000000000000000000000000000000000000000000000000000000000000000000000000000000000000000000000000000000000000
00000000000000000000000000000000000000000000000000000000000000000000000000000000000000000000000000000000000000000000000000000000000000000000000000000000000000000000000000000000000000000000000000000000
00000000000000000000000000000000000000000000000000000000000000000000000000000000000000000000000000000000000000000000000000000000000000000000000000000000000000000000000000000000000000000000000000000000
00000000000000000000000000000000000000000000000000000000000000000000000000000000000000000000000000000000000000000000000000000000000000000000000000000000000000000000000000000000000000000000000000000000
00000000000000000000000000000000000000000000000000000000000000000000000000000000000000000000000011100000000000000000000000000000000000000000000000000000000000000000000000000000000000000000000000000000
00000000000000000000000000000000000000100011100000000000000000000000000000000000000000000000000011100000000000000000000000000000000000000000000000000000000000000000000000000000000000000000000000000000
00000000000000000000000000000000000000100011100001110000000000000000000000000000000000000000000000000000000000000000000000000000000000000000000000000000000000000000000000000000000000000000000000000000
00000000000000000000000000000000000000000000000001111100000000000111000000000000000000000000000000000000000000000000000000000000000000000000000000000000000000000000000000000000000000000000000000000000
00000000000000000000000000000000000000000000000000111110000000000111000000000000000000000000000000000000000000000000000000000000000000000000000000000111000000000000000000000000000000000000000000000000
00000000000000000000000000000000000000000000000000111111111000000000000000000000000000011111000000000000000000000000000000000000000000000000000000000111000000000000000000000000000000000000000000000000
00000000000000000000000000000000001000000000000001111111111110000000000000000000111111111111110000000011100000000000000000000000000000000000000000000000000000000000000000000000000000000000000000000000
00000000000000000000000000000000011100000000001111111111111111000000000001000001111111111111111000000011100000000000000000000000000000000000000000000000000000000000000011100000000000000000000000000000
00000000000000000000000000000000111110000000111111111110011111100000000001110000111111111111111100000000000000001111000000000000000000000000000000000000000000000000000011110000000000000000000000000000
00000000000000000000000000000000011111000001111111000000001111100000000000111110111111111111111100000000000000111111111000000000000000000000000000111100000000000000000001111000000000000000000000000000
00000000000000000000000000000000001111100011111100000000001111100000000000111111111111111111111110001000000011111111111100000000000000000000000100011111000000000000000000111000000000000000000000000000
00000000000000000000000000000000000111000111110000000000000111100000000001111111111110001111111110100000011111111111111100000000000001110000011110111111100000000000000000000000000000000000000000000000
00000000000000000000000000000000000011100111100000000000000111110000000011111111000000000111111110000000111110000001111110000000000001110000111111111111110000000000000000000000000000000000000000000000
00000000000000000000000000000000000001111111100000000000000111110000000011111110000000000111111110000001111100000000001110000000000000000001111111111111110000000000000000000000000000000000000000000000
00000000000000000000000000000000000000111111100000000000000011110000000111111100000000000111111100000011111000000000000111000000000000000011111111111111111000000000000000000000000000000000000000000000
00000000000000000000000000000000000000111111100000000000000011110000000001111000000000000011111110000011110000000000001111000000000000000111111100000111111100000000000000000000000000000000000000000000
00000000000000000000000000000000000000011111111000000000000011100000001001110000000000000011111111000111100000000000000111100000000000001111111000000011111100000000000000000000000000000000000000000000
00000000000000000000000000000000000000000011111100000000000111000000001111100000000000000111111111000111100000000000000111110000000000001111110000000011111100000000000000000000000000000000000000000000
00000000000000000000000000000000000000000001111111000000000111000000011111100000000000000111111100000111000000000000000011110000000000011111100000000001111110000000000000000000000000000000000000000000
00000000000000000000000000000000000000000001111000111000000110000000011111000000000000000111111000001110000000000000000011110000000000011111000000000001111111000000000000000000000000000000000000000000
00000000000000000000010000000000000000000001110000111110001110000000011111000000000000000111111000011110000000011100000011111000000000011111000000000000111100000000000000000000000000000000000000000000
00000000000000000000011000000000000000001111100001111111111100000000011111100000000000001110000000111110000000011100000011111000000000011111000000000000111100000000000000000000000000000000000000000000
00000000000000000000000000000000000000001111100000011111111110000000111111110000000000010000000000111110000000000000000001111000000000111111000000000000111111100000000000000000000000000000000000000000
00000000000000000000000000000000000000000111110000011111111111000000111111110000000000111001000000111110000000000000000001111000000000111111000000000000111111100000000000000000000000000000000000000000
00000000000000000000000000001110000000000011111100011111111111111111111111110000000011111100000000111100000000000000000001111000000000111110000000000000111111110000000000000000000000000000000000000000
00000000000000000000000000001110000000000001111111111111111111111111111111111100011111111110000001111110000000000000000001111100000000111111000000000000111111110000000000000000000000000000000000000000
00000000000000000000000000000000000000000000111111111111111111111111111011111110011111111111111111111111111000000000000001111100000000111111000000000000111111110000000000000000000000000000000000000000
00000000000000000000000000000000000000000000011111111111100000000011110011111111001111111111111111111111111111111100000001111100000000111111000000000001111111110000000000000000000000000000000000000000
00000000000000000000000000000000000000000111000100001111100000000000001111111111101111111111110111111111111111111111111111111100000000001111000000000001111111110000000000000000000000000000000000000000
00000000000000000000000000000000000000001111000000001111110000000000011111111111111111111111100010011111111111111111111111111110000000000111100000000011111111111000000000000000000000000000000000000000
00000000000000000000000000000000000000011110000000000011111000000001111111111111111101111111000000011111110000000111111111111111000000001111111000000001101111111000000000000000000000000000000000000000
00000000000000000000000000000000000000011110000000000001111000000011111111111001111001111110000001111001110000000011111011111111000000011111111111010011100111111000000000000000000000000000000000000000
00000000000000000000000000000000000000111100000000000001111000000111111111000000000111110110000001111001110000000001110000111111100111001111111111111111111111111100000000000000000000000000000000000000
00000000000000000000000000000000000000111000000000000000111000000111111100000000000011110110000001111100000000000000000000111111111111101111111111111111100011111100000000000000000000000000000000000000
00000000000000000000000000000000000000010000000000000000111000011111111000000000000001111111000001111100000000000000000000011111011111111111111111111111000011111100000000000000000000000000000000000000
00000000000000000000000000000000000000110000000000000001110000011111110000000000000001111111000001111100000000000000000000011110000001111111111111111110000000111110000000000000000000000000000000000000
00000000000000000000000000000000000001110000000000000001110000111111100000000000000001111111000001111100000000000000000000011110000000011111111111100000000000111110011100000000000000000000000000000000
00000000000000000000000000000000000001110000000000000001110000111111000000000000000000111111000000111100000000000000000000011110000000000000001111000000000111111100011100000000000000000000000000000000
00000000000000000000000000000000000001110000000000000010000001111111000000000011100000011111000001111100000000000000000000111110000000000000001111000000000111111000000000000000000000000000000000000000
00000000000000000000000000000000000001110000000000000111000000111110000111000011100000011111000001111100000011100000000000011110000000000000011111000000000111111100000000000000000000000000000000000000
00000000000000000000000000000000000001111000000000000111110000111110000001000000000001111110000001111100000011100000000000000010000000000000001111100000000111111100000000000000000000000000000000000000
00000000000000000000000000000000000001111000000000001111110011111110000000000000000001111110000001111100000000000000000000000000000000000111000011111110001111111000000000000000000000000000000000000000
00000000000000000000000000000000000000111000000000011111000111111110000000000000000111111110000000111100000000000000000000011100000000000111000001111111111111111000000000000000000000000000000000000000
00000000000000000000000000000000000000110000000001111110000111111100000000000000000111111100000000111110000000000000000000111100000000000111100000111111111111110000000000000000000000000000000000000000
00000000000000000000000000000000000000111001100111111100000011111110111000000000001111111100000000111110000000000000000001111100000000000111111100011111111111100000000000000000000000000000000000000000
00000000000000000000000000000000000000111111111111111000000000011100011000000000011111111000000000111111000000000000000001111000000000000111111100011111111100000000000000000000000000000000000000000000
00000000000000000000000000000000000000011111111111100000000000011110011000000000111111110000000000111111000110000000000011111000000000000011000001111111111000000000000000000000000000000000000000000000
00000000000000000000000000000000000000000111111111000000000001111111111110000011111111110000000000011111000110000000000111110000000000000010000011111111111100000000000000000000000000000000000000000000
00000000000000000000000000000000000000000000000000000000000001111111111111111111111111100000000000011110000000000000001111110000000000000001111111111111111111110000000000000000000000000000000000000000
00000000000000000000000000000000000000000000000000000000000001111111111111111111111111000000000000001111001000000000011111100000000000000000000000010000001111111000000000000000000000000000000000000000
00000000000000000000000000000000000000000000000000000000000000111111111111111111111110000000000000001111111110000001111111000000000000000000000000000000000011111110000000000000000000000000000000000000
00000000000000000000000000000000000000000000000111000000000000001111111111111111110000000000000000000111111111111111111100000000000000000000000000000000000001111111000000000000000000000000000000000000
00000000000000000000000000000000000000111000000000000111000000000111111111111111000000000000000000000011001111111111111000000000000000000000000000000000000000111111100000000000000000000000000000000000
00000000000000000000010000000000000000111000000000000111000000000000111111110000000000000000000000000000000111111110000000000000000000000000000000000000000000011111110000000000000000000000000000000000
00000000000000000000011100000000000000000000000000000000000000000000000000000000000000000000000000000000000111111000000000000000000000000000000000000000000000000111110000000000000000000000000000000000
00000000000000000000000000000000000000000000000000000000000000000000000000000000000000000000000000000000000000000000000000000000000000000000000000000000000000000011111000000000000000000000000000000000
00000000000000000000000000000000000000000000000000000000000000000000000000000000000000000000000000000000000000000000000000000000000000000000000000000000000000000011111100000000000000000000000000000000
00000000000000000000000000000000000000000000000000000000000000000000000000000000000000000000000000000000000000000000000000000000000000000000000000000000000000000001111110000000000000000000000000000000
00000000000000000000000000000000000000000000000000000000000000000000000000000000000000000000000000000000000000000000000000000000000000000000000000000000000000000000111000000000000000000000000000000000
00000000000000000000000000000000000000000000000000000000000000000000000000000000000000000000000000000000000000000000000000000000000000000000000000000000000000000000010000000000000000000000000000000000
00000000000000000000000000000000000000000000000000000000000000000000000000000000000000000000000000000000000000000000000000000000000000000000000000000000000000000000000000000000000000000000000000000000
00000000000000000000000000000000000000000000000000000000000000000000000000000000000000000000000000000000000000000000000000000000000000000000000000000000000000000000000000000000000000000000000000000000
