P1
200 70
00000000000000000000000000000000011100000000000000000000000000000000000000000000000000000000000000000000000000000000000000000000000000000000000000000000000000000000000000000000000000000000000000000000
00000000000000000000000000000000111110000000000000000000000000000000000000000000000000000000000000000000000000000000000000000000000000000000000000000000000000000000000000000000000000000000000000000000
00000000000000000000000000000000011111000000000000000000000000000000000000000000000000000000000000000000000000000000000000000000000000000000000000000000000000000000000000000000000000000000000000000000
00000000000000000000000000000000001111100000000000000000000000000000000000000000000000000000000000000000000000000000000000000000000000000000000000000000000000000000000000000000000000000000000000000000
00000000000000000000000000000000000111110000000000000000000000000000000000000000000000000000000000000000000000000000000000000000000000000000000000000000000000000000000000000000000000000000000000000000
00000000000000000000000000000000000011111000000000000000000000000000000000000000000000000000000000000000000000000000000000000000000000000000000000000000000000000000000000000000000000000000000000000000
00000000000000000000000000000000000001111100000000000000000000000000000000000000000000000000000000000000000000000000000000000000000000000000000000000000000000000000000000000000000000000000000000000000
00000000000000000000000000000000000000111111000000000000000000000000000000000000000000000000000000000000000000000000000000000000000000000000000000000000000000000000000000000000000000000000000000000000
00000000000000000000000000000000000000111100100000000000000000000000000000000000000000000000000000000000000000000000000000000000000000000000000000000000000000000000000000000000000000000000000000000000
00000000000000000000000000000000000000011000111000000000000000000000000000000000000000000000000000000000000000000000000000000000000000000000000000000000000000000000000000000000000000000000000000000000
00000000000000000000000000000000000000000000111100000000001111111110000000000000000000000000000000000000000000000000000000000000000000000000000000000000000000000000000000000000000000000000000000000000
00000000000000000000000000000000000000000000111111000000011111111111100000000000000000000000000000000000000000000000000000000000000000000000000000000000011111100000000000000000000000000000000000000000
00000000000000000000000000000000000000000000111111111111111111111111110000000000000000000000000000000000000000000000000000000000000000000000000000001111111111111000000000000000000000000000000000000000
00000000000000000000000000000000000000000000011111111111111111111111111000000000000000000000000000000000000000000000000000000000000000000000000011000111111111111110000000000000000000000000000000000000
00000000000000000000000000000000000000000000000111111111111111111011111000000000000000000000000000000000000110111100000000000000000000000000000111101111111111111111000000000000000000000000000000000000
00000000000000000000000000000000000000000000000011111111111111111011111100000000000000000000000000000001111111111111111000000000000000000000001111111111111111111111111000000000000000000000000000000000
00000000000000000000000000000000000000000000000111111111111111111111111110000000000000000000000000000001111111111111111111110000000000000000011111111111111111111111111000000000000000000000000000000000
00000000000000000000000000000000000000000000011111111111111111111111111110000000000000000000000000000000111111111111111111111000000000000000011111110000000111111111111000000000000000000000000000000000
00000000000000000000000000000000000000000000011111111111111111111111111110000000000000000000000000000000111111111111111111111111001110000000011111100000000001111111110000000000000000000000000000000000
00000000000000000000000000000000000000000000111111110111100011111111111110000000000000000000000000000001111111110011111110011111111110000000111111110000000000001111110000000000000000000000000000000000
00000000000000000000000000000000000000000001111111110111000001111111111110000000000000000111110001110001111111100001111100001111111100000001111111100000000000000111110000000000000000000000000000000000
00000000000000000000000000000000000000000011111111111110000001111111111100000000000000111111110001111011110010000000000000011111111100000011111111100000000000001111111000000000000000000000000000000000
00000000000000000000000000000000000000000011111111111100000001111111111100000000000111111111111011111111100000000000000000111111111110000011111111000000000000000111111000000000000000000000000000000000
00000000000000000000000000000000000000000011111111111000000001111111111100010001111111111111111111111111000000000000000000001111111111000001101111000000000000000111111100001000000000000000000000000000
00000000000000000000000000000000000000000011111111011000000001111111111100011111111111111111111111111111100000000000000000000011111111000001101111000000000000000011111100001110000000000000000000000000
00000000000000000000000000000000000000000011111111011000000001111111001000011111111111111111111111111111111000000000000000000001111111000001111111100000000000000011111100000000000000000000000000000000
00000000000000000000000000111000000000000111111111111000000001111110000000000011111110111111111111111101111111111111000111000000111111000001111111000000000000000011111110000000000000000000000000000000
00000000000000000000000000111000000000000111111111111000000011111111000000000001111110011111111111111101111111111111111111111000111110010000111110000000000000000000001110000000000000000000000000000000
00000000000000000000000000000000000000000111111111111100000011111111100000000010011111111100000001111111111111100111111111111111111110110000111110000000000000000000001110000000000000000000000000000000
00000000000000000000000000000000000000000111111111111110000111111111000000000010011111011100000000111110000000000011111111111100111111111000111111100000000000000011111110000000000000000000000000000000
00000000000000000000000000000000000000000011111111110111111111111111000000000000111110011100000000111100000000000000000000011001111111111000011111110000000000000111111100000000000000000000000000000000
00000000000000000000000000000000000000000011111111110111111111111111100000000001111110000000000000111000000000000000000000000111111111111000001111111000000000000111111100000000000000000000000000000000
00000000000000000000000000000000000000000011111101111111111111111111111100000111111110000000000001111100000000000000000000000000011111111110001111111100000000000111111111000000000111000000000000000000
00000000000000000000000000000000111000000011111101111111111111111111111100000111111110000000000011111111000000000000000000000000011111101111111111111100000000011111111111000000000111000000000000000000
00000000000000000000000000111000111000000011111111111111111111011111111000000111111111000000000111111111110000000000000000000000011111100111111111111110000000111111111110000000000000000000000000000000
00000000000000000000000000001000000000000001111111111111111111011111111011000011111111100000011111111111110000000000000000011100001111110011111111111111111111111101111110000000000000000000000000000000
00000000000000000000000000000000000000000000011111111111111111111111111111100000011111000111111111111110000000000000000000011100011111110001111111111111111100111100111000000000000000000000000000000000
00000000000000000000000000000000000000000000000111111110001111111111111111100000011111101111111111111100000000000000000000000000111111100000011111111111111100111111111001000000000000000000000000000000
00000000000000000000000000000000000000111000001111111100000011111111111111100000011111111111111111110000000000000000000000000001111111000000001111111111110011111110111111000000000000000000000000000000
00000000000000000000000000000000000000111000001111111100000000111111111111100000111111111111110111100000000000000000000000000011111111000000000011111111110111111100111111000111000000000000000000000000
00000000000000000000000000000000000000000000100111111100000000111111111111110001111111111111100011110000000000000000000000000011111111000000000001111111111111110000111110000111000000000000000000000000
00000000000000000000000000000000000000000001110111111100000111011111111111110111110111111111100011111000000000000000000000000111111110000000000000111111111111100000111100000000000000000000000000000000
00000000000000000000000000000000000000000011111111111000000111011111111111100111110111111111100111111110000000000000000000001111111110000000000000001111110000000000111110000000000000000000000000000000
00000000000000000000000000000000000000000111111111110000000010011111111111001111111111110000001111111110000000000000000000011111111100000000000000000111110000000000111111000000000000000000000000000000
00000000000000000000000000000000000000000111111111110000000011011111111110011111111100000000001111111110000000000000000001111111110000000000000000000001111110000000111111000000000000000000000000000000
00000000000000000000000000000000000000001111111111100000000111111111111100001111111000000000001111011111000000000000000001111111100000000000000000000000111111000000111111000000000000000000000000000000
00000000000000000000000000000000000100001111111111100000000000011111111110011111110000000000000111011111000000000011100011111111100000000011100000000000111111100000111111000000000000000000000000000000
00000000000000000000000000000000011100011111111111100000000000111111111111111111110000000000000011111110000000000011100111111111000000000011000000000001111111110000111001000000000000000000000000000000
00000000000000000000000000000000000000010011111111000000000000111111111001111111110000000000000011111110000000000000011111111110000000000000000001110011110011111000111000000000000000000000000000000000
00000000000000000000000000000000000000111011111111000000000001111111111000111111111000000000000011111111000000000000011111111100000000000000000001110111111001111111111110000000000000000000000000000000
00000000000000000000000000000000000000111111111111100000000011111111111100111111111000000000000111111111000000000000111101111000000000000000000000000011111100111111111110000000000000000000000000000000
00000000000000000000000000000000000000111111111111100000001111111111111100011111111100000000011111111110000000000001111101110000000000000000000000000011111100111111111100000000000000000000000000000000
00000000000000000000000000000000000001111111111111110010011111111111111000011111111111111001111111111100000000000011111111100000000000000000000000000001111111111111111100000000000000000000000000000000
00000000000000000000000000000000000001111111111111001111111111111111111000001111111111111111111111111100000000000011110111000000000000000000000000000001111111111111111100000000000000000000000000000000
00000000000000000000000111000000000001111111111111011111111111111111100000000111111101111111111111111000000000001111110000000000000000000000000000000000111111111111111100000000000000000000000000000000
00000000000000000000000111000000000001001111111111111111111111111111000000000011111101111111111111110000000000011111111000000000000000000000000000000000011111111111111000000000000000000000000000000000
00000000000000000000000000000000000000001110000111111011111111111111000000000000111111111111111111100000000000111111111000000000000000000000000000000000001111111111111000000000000000000000000000000000
00000000000000000000000000000000000000111110000111111011111111111111000000000000011111111111111111000000000000111111111000000000000000000000000000000000001111111111111100000000000000000000000000000000
00000000000000000000000000000000000000111111111111111111111111110000000000000000000000111111111100000000000001111111110000000000111000000000000000000000001111111111111100000000000000000000000000000000
00000000000000000000000000000000000000111111111111111111100110000000000000000000000000000000011100000000000011111111000000000000111000000000000000000000001110000001111110000000000000000000000000000000
00000000000000000000000000000000000000011111111111111111000000000000000000000000000000000000000000000000000001111111100000000000000000000000000000000000000000000000111000000000000000000000000000000000
00000000000000000000000000000000000000001111111111111111100000000000000000000000000000000000000000000000000001111111110000000000000000000000000000000000000000000000010000000000000000000000000000000000
00000000000000000000000000000000000111001111111111111000000000000000000000000000000000000000000000000000000011111111111110001111111111000000000000000000000000000000000000000000000000000000000000000000
00000000000000000000000000000000000111000111111111100000000000000000000000000000000000000000000000000000000011111111111111111111111111111000000000000000000000000000000000000000000000000000000000000000
00000000000000000000000000000000000000000000000000000000000000000000000000000000000000000000000000000000000011111111111111111111111111111000000000000000000000000000000000000000000000000000000000000000
00000000000000000000000000000000000000000000000000000000000000000000000000000000000000000000000000000000000011111111111111111111111111110000000000000000000000000000000000000000000000000000000000000000
00000000000000000000000000000000000000000000000000000000000000000000000000000000000000000000000000000000000001111111111111111111111111110000000000000000000000000000000000000000000000000000000000000000
00000000000000000000000000000000000000000000000000000000000000000000000000000000000000000000000000000000000000000000000000000000111111110000000000000000000000000000000000000000000000000000000000000000
00000000000000000000000000000000000000000000000000000000000000000000000000000000000000000000000000000000000000000000000000000000000000000000000000000000000000000000000000000000000000000000000000000000
00000000000000000000000000000000000000000000000000000000000000000000000000000000000000000000000000000000000000000000000000000000000000000000000000000000000000000000000000000000000000000000000000000000
