P1
200 70
00000000000000000000000000000000000000000000000000000000000000000000000000000000000000000000000000000000000000000000000000000000000000000000000000000000000000000000000000000000000000000000000000000000
00000000000000000000000000000000000000000000000000000000000000000000000000000000000000000000000000000000000000000000000000000000000000000000000000000000000000000000000000000000000000000000000000000000
00000000000000000000000000000000000000000000000000000000000000000000000000000000000000000000000000000000000000000000000000000000000000000000000000000000000000000000000000000000000000000000000000000000
00000000000000000000000000000000000000000000000000000000000000000000000000000000000000000000000000000000000000000000000000000000000000000000000000000000000000000000000000000000000000000000000000000000
00000000000000000000000000000000000000000000000000000000000000000000000000000000000000000000000000000000000000000000000000000000000000000000000000000000000000000000000000000000000000000000000000000000
00000000000000000000000000000000000000000000000000000000000000000000000000000000000000000000000000000000000000000000000000000000000000000000000000000000000000000000000000000000000000000000000000000000
00000000000000000000000000000000000000000000000000000000000000000000000000000000000000000000000000000000000000000000000000000000000000000000000000000000000000000000000000000000000000000000000000000000
00000000000000000000000000000000000000000000000000000000000000000000000000000000000000000000000000000000000000000000000000000000000000000000000000000000000000000000000000000000000000000000000000000000
00000000000000000000000000000000000000000000000000000000000000000111000000000000000000000000000000000000000000000000000000000000000011100000000000000000000000000000000000000000000000000000000000000000
00000000000000000000000000000000010001111111111100000000000000000111000000000000000000000000000000000000000000000000000000000000000011100000000000000000000000000000000111000000000000000000000000000000
00000000000000000000000000000000011011111111111111111100000000000000000000000000000000000000000000000000000000000000000000000000000000000000000000000000000000000000000111000000000000000000000000000000
00000000000000000000000000000000011111111111111111111110000000000000000000000000000000000000000000000000000000000000000000000000000000001110000000000000000000000000100000000000000000000000000000000000
00000000000000000000000000000000011000100011111100001111111111000000000000000000111000000000000000000000000000000000000000000000000000001110000000000000000000000001110000000000000000000000000000000000
00000000000000000000000000000000000000000000000000000111111111110000000000000000111001111111000000000000000000000000000000000000000000000000000000000000011100000011100100000000000000000000000000000000
00000000000000000000000000000000000000000000000000000111111111111100000000000000011111111111100111100000000000000000000000000000000000000000000000000000001100000111100000000000000000000000000000000000
00000000000000000000000000000000000000000000000000000000000011111111000000000000001111111111111111110000000000000000000000000000000000000000000000000000000000000111110000000000000000000000000000000000
00000000000000000000000000000000000000000000000000000000000000111111100000000000111100111111111111111000000000000000000000000000000000000000000000000000000000001111100000000000000000000000000000000000
00000000000000000000000000000000000000000000000000000000000000001111111111000011111000011111111111111000000000000000000000000000000000000000000000000000000000011111100000000000000000000000000000000000
00000000000000000000000000000000000000000000000011111001000000000011111111100111111000111111111111111100000000000000000000000000000000000000000000000000011100111111000000000000000000000000000000000000
00000000000000000000000000000000000000000000001111111111100000000000001111111111110011111111111001111110000000000000000000000000000000000000000000000000111110001110000000000000000000000000000000000000
00000000000000000000000000000000000000000000111111111101110000000000000001111111110000000000010001111110000000000000000000000000000000000000000000000001111111001100000000000000000000000000000000000000
00000000000000000000000000000000000000000001111111111101110000000000010000111111111100000000001111111111000000000000000000000000000000000000000000000001111111111100000000000000000000000000000000000000
00000000000000000000000000000000000000000011111110011111111000000000011100011111111111000000001111111111000000000000000000000000000000000000000000000011111111111111100000000000000000000000000000000000
00000000000000000000000000000000000000000111111110011111111000000000000000011101111111110000000111111110000000000000000000000000000000000000000000000011111111110011100000000000000000000000000000000000
00000000000000000000000000000000000000000111111000000111111000000000000000011101111011111110000011111110000000000000000000111000000000000000000000000011111111100000000000000000000000000000000000000000
00000000000000000000000000000000000000001111110000000011100000000000000000011111111001111111110011111110000000000000000001111111000000000000000000000011111111100000000000000000000000000000000000000000
00000000000000000000000000000000000000000111110000000011000000000000000000011111111100111111111111111110000000000000000011111111100000000000000001111111111111100000000000000000000000000000000000000000
00000000000000000000000000000000000000000111100000000000111100000000000000011111111100000011111111111110000000000000001111111111100000000000000001111111101111100000000000000000000000000000000000000000
00000000000000000000000000000000000000011111100000000001111100000000000000011111111100000000111111111110000000000000011111001111000000000000000001111111000111100000000000000000000000000000000000000000
00000000000000000000000000000000000000111111100000000001111000000000000000000111111110000000111111101111100000000111111100001110000000000000000001111111101111100000000000000000000000000000000000000000
00000000000000000000011100000000000000111111000000000011111000000000000000000011111111000011111111101111111100000111110000000000000000000000001111111100001111110000000000000000000000000000000000000000
00000000000000000000011100000000000001111111000000000111111100000000000000000011111111111111111111111111111111111111100000010000011100000000011110111100001111110000000000000000111000000000000000000000
00000000000000000000000000000000000001111111100000000111111110000000000000000111111111111111111111000001111111111111100000111100011110001100111100011111000111110000000000000000110000000000000000000000
00000000000000000000000100000000001110111111100000000011111110000000000000000011111111111111111110000000001111111111111111111000011111111111111100111110000001110000000000000000000000000000000000000000
00000000000000000000000100000000001110011111100000000011110000000000000000000011111111111101111110000000000111111111111111110000111111111111100000111110000000111000000000000000000000000000000000000000
00000000000000000000000000000000000000001111111000111111100000000000000000000011101111111000111111100111000111111111111111111001111111111100000000111110000100111000000000000000000000000000000000000000
00000000000000000000000000000000000000000111111111111111000000000000000000001111000111110001111111110111011111110000000111111111111111000000000001111100111111111000000000000111000000000000000000000000
00000000000000000000000000000000000000000111111111111100000000000000000000011111100000010011111111110000111100000000000011111000000000000000000001111100111111111000000000000111000000000000000000000000
00000000000000000000000000000000000000011111111111111000000000000000000001111111111000000111111111110000111000000000001111110000000000000000000011111100000011111100000000000000000000000000000000000000
00000000000000000000000000000000000000111111111111111110000000000000000001111111110000000000011111111001111100000000001111110000000000000000000011111000000001111100000000000000000000000000000000000000
00000000000000000000000000000000000001111111000001111111000000000000000011111110000000000000011111111001111110000000000011100000000000000000000111111000000001111100000000000000000000000000000000000000
00000000000000000000000000000000000011111100000000111111100000000000000111111100000000000000111111111001111111111000000011000000000000000000000111110000000011111110000010000000000000000000000000000000
00000000000000000000000000000000001111111000000000011111100000000000000111111110000000000000111111111000011111111111000111000000000000000000001111110000000001111110000110000000000000000000000000000000
00000000000000000000000000000000001111110000000000001111111110000000001111111110000000000000111111110000000011111111111111100000000000000000001111100000000011111111111110000000000000000000000000000000
00000000000000000000000000000000011110010000000000000111111000000000001111111110000000000001111111110000000000011111100111110000000000000000000000000001111111111111111110000000000000000000000000000000
00000000000000000000000000000000011110000000000000001111110000000000001111111110000000000001111111111000000000000001000111111000000000000000000000011011111111111111111110000000111000000000000000000000
00000000000000000000000000000000111111000001110000001111111000000000001111111110000000000001111111111000000000000000001111110000000000000000001100011111111111111111111110000000111000000000000000000000
00000000000000000000000000000000111111100001100000001111111000000000001111111110000000000011111111110000000000000000001111000000000000000000111110011111111111111111111110000000000000000000000000000000
00000000000000000000000000000001110111000001000000001110110000000000001111111111111110000011111111110000000000000000011111000000000000000000011111011111000110111111100000000000000000000000000000000000
00000000000000000000000000000000100111000000000000001110110000000000011111111111111111000111111111100000000000000000011110000000000000000000000000000000000000011111000000000000000000000000000000000000
00000000000000000000000000000000001111000000000000001111110000000000011111111111111100001111111111100000000000001000111100000000000000000000000000000000000000001111000000000000000000000000000000000000
00000000000000000000000000000000011110000000111000001111110000000000001111111111111100011111111111000000000000011111111100000000000000000000000000000000000000001111000000000000000000000000000000000000
00000000000000000000000000000000111100000000111000000111110000000000001111111111111100011111111000000000000000011111111110000000000000000000000000000000000000001111100000000000000000000000000000000000
00000000000000000000000000000000000100000000000000001111110000000000000111111111111000111111110000000000000000001111101111111000000000000000000000000000000000001111110111000000000000000000000000000000
00000000000000000000000000000000000000110000000000111111100000000000000011111111111001111111110000000000000000000000000111111000000000000000111000000000000000001111111111000000000000000000000000000000
00000000000000000000000001110000000001110000000001111111100000000000000001111111111110011111100000000000000000000000000011000000000000000000111000000000000000001111111000000000000000000000000000000000
00000000000000000000000001110000000011110001001111111111100000000000000000111111111111001110000000001110000000000000000000000000000000000000000000000000000000000111110000000000000000000000000000000000
00000000000000000000000000000000000001100011111111111110000000000000000000001100111111001100000000001111110000000000000000000000000000000000000000000111000000000000000001110000000000000000000000000000
00000000000000000000000000000000000000000011111111111100000000000000000000000000000000000000000000000001110000000000000000000000000000000000000000000111000000000000000001111110000000000000000000000000
00000000000000000000000000000000000000000111111111111000000000000000000000000000000000000000000000000000000000000000000000000000000000000000000000000000000000000000000000001110000000000000000000000000
00000000000000000000000000000000000000000000001111100000000000000000000000000000000000000000000000000000000000000000000000000000000000000000000000000000000000000000000000000000000000000000000000000000
00000000000000000000000000000000000000000000000000000000000000000000000000000000000000000000000000000000000000000000000000000000000000000000000000000000000000000000000000000000000000000000000000000000
00000000000000000000000000000000000000000000000000000000000000000000000000000000000000000000000000000000000000000000000000000000000000000000000000000000000000000000000000000000000000000000000000000000
00000000000000000000000000000000000000000000000000000000000000000000000000000000000000000000000000000000000000000000000000000000000000000000000000000000000000000000000000000000000000000000000000000000
00000000000000000000000000000000000000000000000000000000000000000000000000000000000000000000000000000000000000000000000000000000000000000000000000000000000000000000000000000000000000000000000000000000
00000000000000000000000000000000000000000000000000000000000000000000000000000000000000000000000000000000000000000000000000000000000000000000000000000000000000000000000000000000000000000000000000000000
00000000000000000000000000000000000000000000000000000000000000000000000000000000000000000000000000000000000000000000000000000000000000000000000000000000000000000000000000000000000000000000000000000000
00000000000000000000000000000000000000000000000000000000000000000000000000000000000000000000000000000000000000000000000000000000000000000000000000000000000000000000000000000000000000000000000000000000
00000000000000000000000000000000000000000000000000000000000000000000000000000000000000000000000000000000000000000000000000000000000000000000000000000000000000000000000000000000000000000000000000000000
00000000000000000000000000000000000000000000000000000000000000000000000000000000000000000000000000000000000000000000000000000000000000000000000000000000000000000000000000000000000000000000000000000000
