P1
200 70
00000000000000000000000000000000000000000000000000000000000000000000000000000000000000000000000000000000000000000000000000000000000000000000000000000000000000000000000000000000000000000000000000000000
00000000000000000000000000000000000000000000000000000000000000000000000000000000000000000000000000000000000000000000000000000000000000000000000000000000000000000000000000000000000000000000000000000000
00000000000000000000000000000000000000000000000000000000000000000000000000000000000000000000000000000000000000000000000000000000000000000000000000000000000000000000000000000000000000000000000000000000
00000000000000000000000000000000000000000000000000000000000000000000000000000000000000000000000000000000000000000000000000000000000000000000000000000000000000000000000000000000000000000000000000000000
00000000000000000000000000000000000000000000000000000000000000000000000000000000000000000000000000000000000000000000000000000000000000000000000000000000000000000000000000000000000000000000000000000000
00000000000000000000000000000000000000000000000000000000000000000000000000000000000000000000000000000000000000000000000000000000000000000000000000000000000000000000001000000000000000000000000000000000
00000000000000000000000000000000000000000000000000000000000000000000000000000000000000000000000000000000000000000000000000000000000000000000000000000000000000001111111100000000000000000000000000000000
00000000000000000000000000000000000000000000000000000000000001110000000001110000000000000000000000000000000000000000000000000000000000000000000000000000111111111111111111000000000000000000000000000000
00000000000000000000000000000000000000000000000000000000000111110000000001110000000000000011100000000000000000000000000000000000000000000000000000000011111101111111111111000000000000000000000000000000
00000000000000000000000000000000000000000000000011100000000111000000000000000000000000000011110000000000000000000000000000000000000000000000000000011100111000111111000000000000000000000000000000000000
00000000000000000000000000000000000000000000000011100000000000000000000000000000000000000001111000000000000000000000000000000000000000000000000001111110010000000000000000000000000000000000000000000000
00000000000000000000000011100000000000000000000011111000000000000000000000000000000000000000111000000000000000000000000000000000000000000000001111111111000000000000000000000000000000000000000000000000
00000000000000000000000011100000000000000000110111111111111000000000000000000000000000000000000000000000000000000000000000000000000000000001111111111000000000000000000000000000000000000000000000000000
00000000000000000000000000000000000000000011110011111111110000000000000000000000000000000000000000000000011100000000000000000000000000000111111111100000000000000000000000000011000000000000000000000000
00000000000000000000000000000000011100000011111011111111111000100000000000000000000000000000000000000000011100000000000000000111110000111111111100000000000000000000000000000011000000000000000000000000
00000000000000000000000000000000001100000111111111111111111111110011000000000000000000000000000000000000000000000000000001111111111111111111100000001000000000000000000000000000000000000000000000000000
00000000000000000000000000000000000000000111111101111001111111111111100000000000000000000000000000000000000000000000001111111111111111111110000000001000000000000000000000000000000000000000000000000000
00000000000000000000000000000000000000000111111101110000000111111111100001111110000000000000000000000000000000000000011111111111111111110000000000000000000000000000000111000000000000000000000000000000
00000000000000000000000000000000000000000011111111110000000011111111001111111111111100000000000000000000000000000000111111111111111111000000000000000000000000000000000111000000000000000000000000000000
00000000000000000000000000000000000000000001111111110000000011111111011111111101111111000000000000000000000000000011111111111111111100000000000000000000000000000000000010000000000000000000000000000000
00000000000000000000000000000000000000110011101111110000000011111111111111111000011111110000000000000000000000000111111110111111111000000000000000000000001111111111111110000000000000000000000000000000
00000000000000000000000000000000000000111111101111100000000011111111111111111000000011111000000111000000000000000111111001111111111000000000000000000111111111111111111111000000000000000000000000000000
00000000000000000000000000000000000001111111111111100000001111110111111111110000000000111110000111000000000000001111100011111111111100000000000000111111111101111111111111110000000000000000000000000000
00000000000000000000000000000000000001111111111111100000001111100011111111110000000000001111100000000000000000011111100111111000111100000000000001111110111000111111111111111000000000000000000000000000
00000000000000000000000000000000000001111111111111100000000011110111111011110000000000000111110000000000000000111111111111100000000000000000000011111100000000011111111111111000000000000000000000000000
00000000000000000000000000000000000000111111111111100000000011111111111011110000000000000111111000000000000000111111111110000000000000000000000111111100000000000111111111111000000000000000000000000000
00000000000000000000000000000000000000111111111111000000000011111111111111110000000000000011111000000000000001111111111000000000000000000000000111111000000000000011111111111000000000000000000000000000
00000000000000000000000000000000000000111111111111000000000011111101111111110000000000000011111000000000000011111111110000000000000000000000000111110000000000000011111111000000000000000000000000000000
00000000000000000000000000000000000000111111110111000000000111111101111111111000000000000011111000000000000111111111100000000000000000000000000111000000000000000001111110000000000000000000000000000000
00000000000000000000000000000000001000111101110111000000001111111111111111111000000000000011111000000000011111111111100000000000000000000000000110000000000000000011111110000000000000000000000000000000
00000000000000000000000000000000011100011001111111000000011111111111111101111000000000000111111000000000111111111111000000000000000000000000000000000000000000011111111110000000000000000000000000000000
00000000000000000000000000111000111110000111111111100000011111111111111101110000000000001111111000011111111111111111000000000000000000000000000000000000000000001101111110000000000000000000000000000000
00000000000000000000000000111000011111000011111111110000111111111111111111110010000000001111110000011111111111111111000000000110000000000000000000000000000000011101111110000000000000000000000000000000
00000000000000000000000000000000001110010000111111000000111111111111110011111111000000011100110000111111111111111111000111111111100000000000000000000000000011111111111000000000000000000000000000000000
00000000000000000000111000000000001110110000111111000001111111111111100011111111100000111000000001111100001111111111001001111111110000000000000000000000001111111111110000000000000000000000000000000000
00000000000000000000111000000000001111111001111111111111111111111110000001111111110001111000000011111000001111111111111101111111111000000000000000000011111111111111100000000000000000000000000000000000
00000000000000000000000000000000011111111111100111111111111111111000000000111111111011110001111111111100011111111111111111111111111100000000000000000111111111111111110000000000000000000000000000000000
00000000000000000000000000000000111111111111100011001111111111110000000000011111111111110011111111100000011111111111111111111111111110000000000000000011111111111111111100000000000000000000000000000000
00000000000000000000000000000001111111111111111000000011111111111000000000001111111111111111111100000000111111111111100000111110111110011100000000000010001111111111111110000000000000000000000000000000
00000000000000000000000000000011111111111111111100000001111111111100000000001111111111111111110000000000111111111110000000011110111111111100000000000000000111111111111110000000000000000000000000000000
00000000000000000000000000000011111111111111111111000001111111111110000000000111011101111111100000000000111111111110000000001111111111100000000000000000000011110001111000000000000000000000000000000000
00000000000000000000000000000011111110111111111111111001111111111111000000001111011101111111100000000000111111111111000000000111111111000000000000000001110001110001111000000000000000000000000000000000
00000000000000000000000000000000111110111111001111110001111111111111000001111111111111111111110000000000110111111110000000011001111111100000000000000001100011111111111110000000000000000000000000000000
00000000000000000000000000000000111111111110000011111011111111111111100011111111100111111111110000000001110111111110000000011101111111100000000000000000000001111111111110000000000000000000000000000000
00000000000000000000000000000011111111111110000000011111111111111111111111111111000001111111111000000011111111111110000000001111111111100000000011100000000011111111111110000000000000000000000000000000
00000000000000000000000000000111111111111100000000000111111111111111111111111000000000000111111100000011111111111110000000000111111111100000000011100000000011111111111100000000000000000000000000000000
00000000000000000000000111001111111111111100000000000001111111111111111111110000000000000111111100000011111111111110000000000111111111110000000000000000000011111111111100000000000000000000000000000000
00000000000000000000000111011111111111111100000000000001111111111111111111100000000000000111111100000011111111111100000000011111111111110000000000000000000111111111111000000000000000000000000000000000
00000000000000000000000000011111111111100000000000000001111111111111111111100000000000000001111100000011111111111100111000011111110111111000000000000000001111111111111000000000000000000000000000000000
00000000000000000000000000111111111110000000000000000011101111111111111111100000000000000001111100000011111111111100111000011111110111111110000000000000001111111111111100000000000000000000000000000000
00000000000000000000000001111111111110011000000000000011101111111111111100000000000000000011111100000111111111111100000000011111111111111110000000000000011111111111111100000000000000000000000000000000
00000000000000000000000001111111111111111000000000000011111111111111111000000000000000000011111000000111111111111100000000011111111111011111000000000000111111111110000000000000000000000000000000000000
00000000000000000000000000001111111111111000000000000011111111111111000111100000000000000001111000000111111101111100000000011111111111001111000000000111111111111000000000000000000000000000000000000000
00000000000000000000000000000111111111111100000011100011111111111110001111100111000000000011110000000111111000111100000000011111000111100111100000111111111111110000000000000000000000000000000000000000
00000000000000000000000000000011111111111100000011100011111111111110011111100111000000001111100000000111110001111100000011111110000111110111110011111111111110000000000000000000000000000000000000000000
00000000000000000000000000000001111111111111000011110111111111111100011111110000000000111111100000000111110001111100000011111110001111111111111111111111100000000000000000000000000000000000000000000000
00000000000000000000000000000000011111111111100011111111111111111100011111111000000000111111000000000111111100111100000000011111011111111111110111111110000000000000000000000000000000000000000000000000
00000000000000000000000000000000001111111111110111111111110111111000011111111100000001111100000000000011111110111100000000001111111111111111100001000000000000000000111000000000000000000000000000000000
00000000000000000000000000000000000111111111111111111111110111100000001111011110001111111000000000000011111111111100000000001111111111110000000000000000000000000000111000000000000000000000000000000000
00000000000000000000000000000000000001111111111111111111111111000000000111011110001111100000000000000011111111111110000000011111111111100000000000000000000000000000000000000000000000000000000000000000
00000000000000000000000000000000000000000001111111111111111000000000000011111110001110000000000000000001111111111110000010011111111111100000000000000000000000000000000000000000000000000000000000000000
00000000000000000000000000000000000000000000000000000000000000000000000001111111000000000000000000000000000111111111000011011111111111000000000000000000000000000000000000000000000000000000000000000000
00000000000000000000000000000000000000000000000000000000000000000000000000000000000000000000000000000000000111011111111111111111111110000000000000000000000000000000000000000000000000000000000000000000
00000000000000000000000000000000000000000000000000000000000000000000000000000000000000000000000000000000000111011111111111111111111100000000000000000000000000000000000000000000000000000000000000000000
00000000000000000000000000000000000000000000000000000000000000000000000000000000000000000000000000000000000011111111111111111111110000000000000000000000000000000000000000000000000000000000000000000000
00000000000000000000000000000000000000000000000000000000000000000000000000000000000000000000000000000000000001111111111111111111000000000000000000000000000000000000000000000000000000000000000000000000
00000000000000000000000000000000000000000000000000000000000000000000000000000000000000000000000000000000000000000000000000000000000000000000000000000000000000000000000000000000000000000000000000000000
00000000000000000000000000000000000000000000000000000000000000000000000000000000000000000000000000000000000000000000000000000000000000000000000000000000000000000000000000000000000000000000000000000000
00000000000000000000000000000000000000000000000000000000000000000000000000000000000000000000000000000000000000000000000000000000000000000000000000000000000000000000000000000000000000000000000000000000
00000000000000000000000000000000000000000000000000000000000000000000000000000000000000000000000000000000000000000000000000000000000000000000000000000000000000000000000000000000000000000000000000000000
