P1
200 70
00000000000000000000000000000000000000000000000000000000000000000000000000000000000000000000000000000000000000000000000000000000000000000000000000000000000000000000000000000000000000000000000000000000
00000000000000000000000000000000000000000000000000000000000000000000000000000000000000000000000000000000000000000000000000000000000000000000000000000000000000000000000000000000000000000000000000000000
00000000000000000000000000000000000000000000000000000000000000000000000000000000000000000000000000000000000000000000000000000000000000000000000000000000000000000000000000000000000000000000000000000000
00000000000000000000000000000000000000000000000000000000000000000000000000000000000000000000000000000000000000000000000000000000000000000000000000000000000000000000000000000000000000000000000000000000
00000000000000000000000000000000000000000000000000000000000000000000000000000000000000000000000000000000000000000000000000000000000000000000000000000000000000000000000000000000000000000000000000000000
00000000000000000000000000000000000000000000000000000000000000000000000000000000000000000000000000000000000000000000000000000000000000000000000000000000000000000000000000000000000000000000000000000000
00000000000000000000000000000000000000000000000000000000000000000000000000000000000000000000000000000000000000000000000000000000000000000111000000000000000000000000000000000000000000000000000000000000
00000000000000000000000000000000000000000000000000000000000000000000000000000000000000000000000000000000000000100000000000000000000000000111111111100000000000000000000000000000000000000000000000000000
00000000000000000000000000000000000000000000000000000000000000000000000000000000000000000000000000000000000000100000000000000000000000000111111111111110000000000000000000000000000000000000000000000000
00000000000000000000000000000000000000000000000011100000000000000000000000000000000000000000000000000000000000000000000000000000000000000011001111111111111000000000000000000000000000000000000000000000
00000000000000000000000000000000000000000000000011100000100000000000000000000000000000000000000000000000000000000000000000000000000000000000000111111111111111111100000000000000000000000000000000000000
00000000000000000000000000000000011100000000000000000000100000000000000000000000000000000000000000000000000000000000000000000000000000000000000001111111111110001100000000000000000000000000000000000000
00000000000000000000000000000000011100000000000000000000000000000000000000000000000000000000000000000000000000000000000011100000000000000000000000000001111110001110011111000000000000000000000000000000
00000000000000000000000000000000000000000000000000000000000000000000000000000000000000000000000001110000011001100111111111100001110000000000000000000000000000001111111111000000000000000000000000000000
00000000000000000000000000000000000000000000000000000000000000000000000000000000000000000000000011111111111111111111111111110011110000000000000000000000000000000000111111000000000000000000000000000000
00000000000000000000000000000000000000000000000000000000000000000000000000000000000000000000000001111111101111111011111111111111110000000000000000000000000000000000111000000000000000000000000000000000
00000000000000000000000000000000000000000000000000000000000000000000111000000000000000000000000000111111101111111011111111111111110000000000000000000000000000000001110000000000000000000000000000000000
00000000000000000000000000000000000000000000000000000000000000000001111111111100000000000000000001111111111111111111111111111111111000000000000000000000000000000001111100000000000000000000000000000000
00000000000000000000000000000000000000000000000000000000000000111111111111111111000000000000000001111111111111111110111111111110111000000000000000000000000000000011111100000000000000000000000000000000
00000000000000000000000000000000000001111111000000000000000000111111111111111111110000000000000001111111111111111110111111111110111000000000000000000000000000000011111100000000000000000000000000000000
00000000000000000000000000011100000011111111111000000000111001111111111111111111111100000000000001111111111111111111111110111111110000000000000000000000000001110111110000000000000000000000000000000000
00000000000000000000000000011100000011111111111110000000111001111111111011111111111110000000000000111111111111111111100000011111110000000000000000000000000001111111000000000000000000000000000000000000
00000000000000000000000000000000000011111111111111100000000000111111111001111111111011100000000001111111100000000000000000011111100000000000000000000000000000001111000000000000000000000000000000000000
00000000000000000000000000000000001111111111111111110000000000011111111110111111111011100000000001111110000000000000000000111111100000000000000000000000000000011111000000000000000000000000000000000000
00000000000000000000000000000000001111111111111110011000000000111111111100000111111111110000000001111100000000000000000000111111100000000000000000000000000000011110000000000000000000000000000000000000
00000000000000000000000000000000001111101111111100000100000000111111110000000001111111110000000000111110000000000000000000111111000000000000000000000000000000111110000000000000000000000000000000000000
00000000000000000000000000000000000111100111111100001110000000111111110000000000111111111000000000111110000000000000000001111111000000000000000000000000000000011100000000000000000000000000000000000000
00000000000000000000000000000000000111111000001100011111000000111111111000000000111111111000000000111110000000000000000001111111100000000000000000000000000000011100000000000000000000000000000000000000
00000000000000000000001110000000001111111000000010001111000000011111111000000000111111111000000000011100000000000000000011111011111110001111100000000000000011111000000000000000000000000000000000000000
00000000000000000000001110000000011111111000000000000011000000011111111100000001111111110000000000000000000000000000000111111011111111011111111111110000000111111111000000000000001000000000000000000000
00000000000000000000000000000000001111111000000000110001111000001111111110000011111111110000000000000000000000001111111111111111111111111101111111111110001111110111000000000000001000000000000000000000
00000000000000000000000000000000001111111000000000111011111100001111111111111111111111100000000000000000000001111111111111111111100011111000111111111111111111110000000000000000000000000000000000000000
00000000000000000000000000000000001111111000000000111111100000000111111111111111111110000000000000000000011111111111111111111110000000000000000000111111111111110000000000000000000000000000000000000000
00000000000000000000000000000000000111111100000000111111000001110011111111111111111110000000000000011111111111111100001111111100000000000000000000000011111111111000000000000000000000000000000000000000
00000000000000000000000000000000000011111111001011111111000001110000111111111111111111000000000011111110111111000000001111111100000000000000000000000000111111111100000000000000000000000000000000000000
00000000000000000000001000000000000001111111111111111111000000000000111111111111111111110000111111111100011000000000001111111100000000000000000000000000011111111110000000000000000000000000000000000000
00000000000000000000001110000000000001111111111111111110000000000001111111111111111111111111111111000000000000000000001111100000000000000000000000000000011111111111000000000000000000000000000000000000
00000000000000000000000000000000000001111111110111111100000000000001111111111111111111111111111110000000000000000000011111100000000000000000000000000000111110011111110000000000000000000000000000000000
00000000000000000000000000000000000011111100100111111000000000000011111111111111111111111111110000000000000000000000011111111000000000000000000000000000111100001111111000000000000000000000000000000000
00000000000000000000000000000000000111111000001111111100000000000011111011111111111111110000000000000000000000000000011111110000000000000000000000000001111100000111111100000000000000000000000000000000
00000000000000000000000000000000001111111100001110111110001110000011110001111111110000000000000000000000000000000000011111110000000000000000000000000001111000000001111000000000000000000000000000000000
00000000000000000000000000000000011111111101110100111110000000000111111011111111100000000100000000000000000000000000111111110000000000000000000000000011111100000000111000000000000000000000000000000000
00000000000000000000000000000000011111111000000001111111000000001111111111111111000111111100000000000000000000000000111111100000000000000000000000000011111100000000010000000000000000000000000000000000
00000000000000000000000000000000011111110000000001111000000000011111111111101110001111011100000000111000000000000000111111110000000000000000000000000011111000000000000000000000000000000000000000000000
00000000000000000000000000000000111111110000000000110001100001111111111111000000011111011000000000111000000000000001111111111100000000000000000000000011110000000000000000000000000000000000000000000000
00000000000000000000000000000000111111110000000000100011111111111111111111000000111111111000010000000000000000000001111111111100000000000000000000000111100000000000000000000000000000000000000000000000
00000000000000000000000000000000111111110000000000111111111111111111111111100001111111110000010000000000000000000001110111100000000000000000000000000111100000000000000000000000000000000000000000000000
00000000000000000000000000000000111111110000000000111101111111100001111111111111111111100000000011000000000000000011110111000000000000000000000000001111000000000000000000000000000000000000000000000000
00000000000000000000000000000000111111110000000000111101111100000001111111111111111001000000000011000000000000000011111111000000011100000000000000001111111000000000000000000000000000000000000000000000
00000000000000000000000000000000011111110000000001111111111000000000111111111111111000000000000000000000000000000011110110000000011100000000000000001111111000000000000000000000000000000000000000000000
00000000000000000000000000000000001111111000000111111111110000000000111111111111111100000000000001110000000000000011110110000000000000000000000000000110000000000000000000000000000000000000000000000000
00000000000000000000000000000000001111111100011111111111110000000000011111110111111000000000000000010000000000000011111110000000000000000000000000001110000000000000000000000000000000000000000000000000
00000000000000000000000000000000011100011111111111111111100000000000011111110111110000000000000000000000000000000111111110000000000000000000000000011110000000000000000000000000000000000000000000000000
00000000000000000000000000000000011000001111111111111111100000000000000111111110000000000000000000000000000000000111111100000000000000000000000000000100000000000000000000000000000000000000000000000000
00000000000000000000000000000000001000001111111111111111000000000000000000000000000000000000000000000000000111000111111100000000000000000000000000000000000000000000000000000000000000000000000000000000
00000000000000000000000000000000000000001111111111111111000000000000000000000000111111000000000010000000000000001111111000000000000000000000000000000000000000000000000000000000000000000000000000000000
00000000000000000000000000000000000111000111111111111001110000000000000000000000111111000000001110000000000000001111110000000000000000000000000000000000000000000000000000000000000000000000000000000000
00000000000000000000000000000000000011101111111111100001110000000000000000000000000000000000000000000000000000001111111000000011100000000000000000000000000000000000000000000000000000000000000000000000
00000000000000000000000000000000000011111111111110000000000000000000000000000000000000000000000000000000000000001110011100000001100000000000000000000000000000000000000000000000000000000000000000000000
00000000000000000000000000000000000111111110000000000000000000000000000000000000000000000000000000000000000000001000011100000000000000000000000111000000000000000000000000000000000111000000000000000000
00000000000000000000000000000000001111100000000000000000000000000000000000000000000000000000000000000000000000000000000000000000000000000000111111000000000000000000000000000000000111000000000000000000
00000000000000000000000000000000000111000000000000000000000000000000000000000000000000000000000000000000000000000000000000000000000000011100111000000000000000000000000000000000000000000000000000000000
00000000000000000000000000000000100010000000000000000000000000000000000000000000000000000000000000000000000000000000000000000000000000011100000000000000000000000000000000000111000000000000000000000000
00000000000000000000000000000000011100000000000000000000000000000000000000000000000000000000000000000000000000000000000000000000000000000000000000000000000000000000000000000111000000000000000000000000
00000000000000000000000000000000001000000000000000000000000000000000000000000000000000000000000000000000000000000000000000000000000000000000000000000000000000000000000000000000000000000000000000000000
00000000000000000000000000000000000000000000000000000000000000000000000000000000000000000000000000000000000000000000000000000000000000000000000000000000000000000000000000000000000000000000000000000000
00000000000000000000000000000000000000000000000000000000000000000000000000000000000000000000000000000000000000000000000000000000000000000000000000000000000000000000000000000000000000000000000000000000
00000000000000000000000000000000000000000000000000000000000000000000000000000000000000000000000000000000000000000000000000000000000000000000000000000000000000000000000000000000000000000000000000000000
00000000000000000000000000000000000000000000000000000000000000000000000000000000000000000000000000000000000000000000000000000000000000000000000000000000000000000000000000000000000000000000000000000000
00000000000000000000000000000000000000000000000000000000000000000000000000000000000000000000000000000000000000000000000000000000000000000000000000000000000000000000000000000000000000000000000000000000
