P1
200 70
00000000000000000000000000000000000000000000000000000000000000000000000000000000000000000000000000000000000000000000000000000000000000000000000000000000000000000000000000000000000000000000000000000000
00000000000000000000000000000000000000000000000000000000000000000000000000000000000000000000000000000000000000000000000000000000000000000000000000000000000000000000000000000000000000000000000000000000
00000000000000000000000000000000000000000000000000000000000000000000000000000000000000000000000000000000000000000000000000000000000000000000000000000000000000000000000000000000000000000000000000000000
00000000000000000000000000000000000000000000000000000000000000000000000000000000000000000000000000000000000000000000000000000000000000000000000000000000000000000000000000000000000000000000000000000000
00000000000000000000000000000000000000000000000000000000000000000000000000000000000000000000000000000000000000000000000000000000000000000000000000000000000000000000000000000000000000000000000000000000
00000000000000000000000000000000000000000000000000000000000000000000000000000000000000000000000000000000000000000000000000000000000000000000000000000000000000000000000000000000000000000000000000000000
00000000000000000000000000000000000000000000000000000000000000000000000000000000000000000000000000000000000000000000000000000000000000000000000000000000000000000000000000000000000000000000000000000000
00000000000000000000000000000000000000000000000000000000000000000000000000000000000000000000000000000000000000000000000000000000000000000000000000000000000000000000000000000000000000000000000000000000
00000000000000000000000000000000000000000000000000000000000000000000000000000000000000000000000000000000000000000000000000000000000000000000000000000000000000000000000000000000000000000000000000000000
00000000000000000000000000000000000000000000000000000000000111000000000000000000000000000000000000000000000000000000000000000000000000000000000000000000001110000000000000000000000000000000000000000000
00000000000000000000000000000000000000000000000000000000000111000000000000000000000000000000000111000000000000000000000000000000000000000000000000000000001000000000001000000000000000000000000000000000
00000000000000000000000000000000000000000000000000000000001000000000000000000000000000000000000111000000000000000000000000000000000000000000000000000000000000011111111000000000000000000000000000000000
00000000000000000000000000000000000000000000000000000000001000000000000000000000000000000000000000000011000000000000000000000000000000000000000000000000000000100011111000000000000000000000000000000000
00000000000000000000000000000000000000000000000000000000000000000000000000000000000000111000000000000011100000000000000000000000000000000000000000000000111001100001111000000000000000000000000000000000
00000000000000000000000000000000000000000000011000000000000000000000000000000000000000111000000000000000000000000000000000000000000000000000000000011111111111110000000000000000000000000000000000000000
00000000000000000000000000000000000000000000011000000000000000000000000000000000000000000000000000000000000000000000000000000000000000000000000000111111111111100000000000000000000000000000000000000000
00000000000000000000000000000000000000000000000000000000000000000000000000000000000000001111100010000000000000000000000110000000000000000000111101111111111111110000000000000000000000000000000000000000
00000000000000000000000000000000000000000000000000001100000000000000000000000000000000001111111111100000000000011111001110000000000000000011111111111111111111111000000000000000000000000000000000000000
00000000000000000000000000000000000000000100000010011111110000000000000000000000000000011111111111110000000000111111111110000000000000001111111111111111111111111110000000000000000000000000000000000000
00000000000000000000000000000000000000011000000000111111100100000000000000000000000111111111111111111000000111111111111110000000000011111111111111111111111111111111000000000000000000000000000000000000
00000000000000000000000000000000000000000000000000111111101110000000000000000000001111111000001111111100111111111111111110000000011111111111111111111111111111111111000000000000000000000000000000000000
00000000000000000000000000000000000000000000111111000111111111100000000000000000011111110000000011111110111001110111111111000001111111111111111111111100111111111111000000000000000000000000000000000000
00000000000000000000000000000000000000000001111111000011111111110000001000000000011111100000000001111110011101110111111111110011111111000000001111000000000111111111100000000000000000000000000000000000
00000000000000000000000000000000111000000001111111100001111111111000001000000000100111000000000001111110001111111111111111111111110000000000000100000000000011111111100000000000000000000000000000000000
00000000000000000000000000000000111000000000011111000000001111111000000000000001110111000000000000111100001111111111111110111110000000000000000000000000000001111111100000000000000000000000000000000000
00000000000000000000000000000000000000000000011110000000000111111100000000000111111110000000000000111100001111111111111110010000000000000000000000000000000001111111110000000000000000000000000000000000
00000000000000000000000000000000000000000000111110000000000011111110000000001111111110000000000000111111001111111111111111000000000000000000000000000000000000111110010000000000000000000000000000000000
00000000000000000000000000000000000000000001111100000000000001111110000000000011111110000000000000111111111111111111111110000000000000000000000000000000000000111110010000000000000000000000000000000000
00000000000000000000000000000000000000000001111110000000000001111110110000000001111110000000000000111110111111111101111110000000000000000000000000000000000001111111110000000000000000000000000000000000
00000000000000000000000000000000000000000011111110000000000001110000010000000001111110000000000000111110111111000000111111100000000000000000000000000000000001111111100000000000000000000000000000000000
00000000000000000000000000000000000000000011111110000000000000110000000000000000111100000000000011111111111000000000111111100000000000000000000000000000000011111111000000000000000000000000000000000000
00000000000000000000000000000000000000000011111110000000000001111111000000000001111100000000111111111111100000000000011111110000000000000000000000111110001111111111000000000000000000000000000000000000
00000000000000000000000000000000000000000001111111000000000011111111100000000011111110000001111111111111100000000000011111110000000000000000000001111111111111111111011100000000000000000000000000000000
00000000000000000000000000000000001000000001111111100000000011111111000000000011110011110011111111111111100000000000011111110000000000000000000001111111111111111100011100000000000000000000000000000000
00000000000000000000000001110000001111000001111111100000000001111111000000000011110111111111111111111111100000000000011111110000000000000000000001111111111111111000000000000000000000000000000000000000
00000000000000000000000001110000011111111001111110000000000001111111000000000011111111111100000111111111100000000000001111111000000000000000000001111111111111110000000000000000000000000000000000000000
00000000000000000000000000000000011111110001111110010000000011111111000001111111111111110000001111111111100000000000001111111000000000000000000000111111011111100000000000000000000000000000000000000000
00000000000000000000000000000000000011111011111111110001111111110111111111111111111111100001111111001111100000000000001111111000000000000000000000011111011111100000000000000000000000000000000000000000
00000000000000000000000000000000000000011111111111111011111101110111111111111111111111110111111110000111000000000000011111111000000000000000000000001111111111110000000000000000000000000000000000000000
00000000000000000000000000000000000000000000001111111111111101111111111111000000111111111111111000001110000000000000111111111000000000000000000000000111111111111000000000000000000000000000000000000000
00000000000000000000000000000000000000000000000011111111111111111110000000000000011111111110000000111111000000000000111111111000111000000000000000000000001111111100000000000000000000000000000000000000
00000000000000000000000000000000000000000000000001111111111111111100000000000000000000110000000001111111000000000000000111110000111000000000000000000000000001111100000000000000000000000000000000000000
00000000000000000000000000000000000000000000000111111111111111111110000000000000000000000000000001111100000000000000000011110000000000000000000000000000000001111110000000000000000000000000000000000000
00000000000000000000000000000000000000000011101111111111111111111111000000000000000000000000000001110000000000000000000011111100000000000000000000000000000011111110000000000000000000000000000000000000
00000000000000000000000000000000000000000011111111111110001111111111110000000000000000000000000001110000000001110000000011111100000000001100000000000000000001111110000000000000000000000000000000000000
00000000000000000000000000000000000000000000011111111100000011111111111000000000000000000000000001111100000001110000000001111110000000111110000000000000000001111110000000000000000000000000000000000000
00000000000000000000000000000000000000000000011111110000000000011111111000000000000000000000000011111100000000000100000011110000000000111111000000000000000011111110000000000000000000000000000000000000
00000000000000000000000000000000000000000000001111100000000000001111111100000000000000000000000011110000000000000111111111110000000000111111100000000000000111111100000000000000000000000000000000000000
00000000000000000000000000001110001111110000001111100000000000000111111100000000000000000000000111100000001110000011111111111000110111111111111100000000001111111100000000000000000000000000000000000000
00000000000000000000000000001110001111110000011111000000000000000111111110000000000000000000001111100000001110000000011111111111111111111111111111110000011111111000000000000000000000000000000000000000
00000000000000000000000000000000000000000000111111000000000000000011111111000000000000000000011111100000000000000000011111111111111111111111111111111100011111111000000000000000000000000000000000000000
00000000000000000000000000000000000000000001111110000000000000000011111111000011100000000000111111000000000000000000111111101111111111111111111111111110111111111000000000000000000000000000000000000000
00000000000000000000000000000000000000000001111000000000000000000001111111000011110000000111111100000000000000000000111111000111111111111111111111111111111111111000000000000000000000000000000000000000
00000000000000000000000000000000000000000011111000000000000000000001111111000011100000011111111000000000000000000000000110000111111111110011111111111111111111111000000000000000000000000000000000000000
00000000000000000000000000000000000000000011111110000000000000000001111111000011110000111111000000000000000000000000000000000000011111100000111111111111111111110000000000000000000000000000000000000000
00000000000000000000000000000000000000000001111100000000000000000001111011100111111111111100000000000000000000000000000000000000000000000000001111111111111111100000000000000000000000000000000000000000
00000000000000000000000000000000000000000001111000000000000000000011111011100011111111110000000000000000000000000000000000000000000000000000000001111111111110000000000000000000000000000000000000000000
00000000000000000000000000000000000000000001111100000000000000000011111111000011111111000000000000000000000000000000000000000000000000000000000000111111111000000000000000000000000000000000000000000000
00000000000000000000000000000000000000000001111111000000000000000011111110000011110000000000011100000000000000000000000000000000000000000000000000111000000000000000000000000000000000000000000000000000
00000000000000000000000000000000000000000001111111100000000000000111111100000000000000000000011100000000000000000000000011100000000000000000000000111000000000000000000000000000000000000000000000000000
00000000000000000000000000000000000000000000111111110000000000001111111100000000000000000000000000000000000000000000000011100000000000000000000000000000000000000000000000000000000000000000000000000000
00000000000000000000000000000000000000000000001111111100000000011111111110000000000000000000000000000000000000000000000000000000000000000000000000000000000000000000000000000000000000000000000000000000
00000000000000000000000000000000000000000000000111111111110001111111111111000000000001110000000000111000000000000000000000000000000000000000000000000000000000000000000000000000000000000000000000000000
00000000000000000000000000000000000000000000000111111111111111111111111111000000000001110000000000111000000000000000000000000000000000000000000000000000000000000000000000000000000000000000000000000000
00000000000000000000000000000000000000000000001111111111111111111111110000000000000000000000000000000000000000000000000000000000000000000000000000000000000000000000000000000000000000000000000000000000
00000000000000000000000000000000000000000000001111111111111111111111100000000000000000000000000000000000000000000000000000000000000000000000000000000000000000000000000000000000000000000000000000000000
00000000000000000000000000000000000000000000000111111111111111111110000000000000000000000000000000000000000000000000000000000000000000000000000000000000000000000000000000000000000000000000000000000000
00000000000000000000000000000000000000000000000001111111111111111000000000000000000000000000000000000000000000000000000000000000000000000000000000000000000000000000000000000000000000000000000000000000
00000000000000000000000000000000000000000000000000011111111110000000000000000000000000000000000000000000000000000000000000000000000000000000000000000000000000000000000000000000000000000000000000000000
00000000000000000000000000000000000000000000000000000000000000000000000000000000000000000000000000000000000000000000000000000000000000000000000000000000000000000000000000000000000000000000000000000000
