P1
200 70
00000000000000000000000000000000000000000000000000000000000000000000000000000000000000000000000000000000000000000000000000000000000000000000000000000000000000000000000000000000000000000000000000000000
00000000000000000000000000000000000000000000000000000000000000000000000000000000000000000000000000000000000000000000000000000000000000000000000000000000000000000000000000000000000000000000000000000000
00000000000000000000000000000000000000000000000000000000000000000000000000000000000000000000000000000000000000000000000000000000000000000000000000000000000000000000000000000000000000000000000000000000
00000000000000000000000000000000000000000000000000000000000000000000000000000000000000000000000000000000000000000000000000000000000000000000000000000000000000000000000000000000000000000000000000000000
00000000000000000000000000000000000000000000000000000000000000000000000000000000000000000000000000000000000000000000000000000000000000000000000000000000000000000000000000000000000000000000000000000000
00000000000000000000000000000000000000000000000000000000000000000000000000000000000000000000000000000000000000000000000000000000000000000000000000000000000000000000000000000000000000000000000000000000
00000000000000000000000000000000000000000000000000000000000000000000000000000000000000000000000000000000000000000000000000000000000000000000000000000000000000000000000000000000000000000000000000000000
00000000000000000000000000000000000000000000000000000000000000000000000000000000000000000000000000000000000000000000000000000000000000000000000000001110000000000000000000000000000000000000000000000000
00000000000000000000000000000000000011100000000000000000000000000000000000000000000000000000000000000000000000000000000000000000000000000000000000001110000000000000000000000000000000000000000000000000
00000000000000000000000000000000000011100000000000000000000000000000000000000000000000000000000000000000000000000000000000000000000000000000000000000000000000000000000000000000000000000000000000000000
00000000000000000000000000000000000000000110000000000000000000000000000000000000000000000000000000000000000000000000000000000000000000000000001110000000000000000000000111110000000000000000000000000000
00000000000000000000000000000000000000000111000000000000000000000000000000000000000000000000000000000000000000001110001100000000000000000000001110000000000000000000000111110000000000000000000000000000
00000000000000000000000000000000000000000000000000000111000000000000000000000000000000000000000000000000000000011111011110000000000000000000000000000000000000000000000000000000000000000000000000000000
00000000000000000000000000000000000000000000000000000111000000000000000000000000000000000000000000000000000001111111111111100000000000000000000000000000000000000000000000011100000000000000000000000000
00000000000000000000000000000000000000000000000000000000000000000000000000000000000000000000000000000000000111111011111111111000000000000000000000000000000000000000000000011100000000000000000000000000
00000000000000000000011100000000000000000000000000000000001110000000000000000000000000000000000000000000000111111001111111111000000000000000000100110000000000000000000000000000000000000000000000000000
00000000000000000000011100000000000000000000000000111100001110000000000000000000000000000000000000111000001111111100110111111100000000000000001111111100000000000000000000000000000000000000000000000000
00000000000000000000000000000000000000000000000001111111000000000000000000000000000000000000111110011100111111111000000011111110000000000000001111111110000000000000000000000000000000000000000000000000
00000000000000000000000000000000000000000000000011111111000110000000000000000000000000000011111111011111111111100000000011111110000000000000000111111111111000000000000001110000000000000000000000000000
00000000000000000000000000000000000000000000000111111111111111000000000000000000000000000011111111111111111111000000000001111110000000000011111001111111111100000000000001110000000000000000000000000000
00000000000000000000000000000000000000000000000111111100001111100000000000000000000000000111111111111111111111100000000001111111000000000111111000111111111110000000000000000000000000000000000000000000
00000000000000000000000000000000000000000000000111111000000011100000000000000000000000111111111111111111111111111000000111111111000000000011111100000011111111000000000000000000000000000000000000000000
00000000000000000000000000000000000000000000000111111000000011110000000000000000000011111111100000011111111111111000000111111111000000000011111000000001111111100000000000000000000000000000000000000000
00000000000000000000000000000000000000000000000111111100000001111100000000000000000011111110000000001111111110000000000000000000000000000001110000000000111111100000000000000000000000000000000000000000
00000000000000000000000000000000000000000000000111111100000001111110000000000000000111111100000000000111111110000000000000000000000000000000100000000000011111100000000000000000000000000000000000000000
00000000000000000000000000000000000000000000000111111100000000001110000000000000011111111000000000000111111110000000000000011111100000000000000000000000001111110000000000000000110000000000000000000000
00000000000000000000000000000000000000000000000111111100000000000110000000000000011111110000000000000111111110000000000000011111100000000000000000000000001111110000000011100000110000000000000000000000
00000000000000000000000000000000000000000000000011111110000000001110000000000000111111100000000000000111111110000000000000011110000000000000000000000000000111110000000011100000000000000000000000000000
00000000000000000000000000000000000000000000000011111111000001111110000000000000111111100000000000000111111110000000000000011110000000000000000000000000000111110000000000000000000000000000000000000000
00000000000000000000000000000000000000000000000011111111100001111100000000000001111111000000000000001111111110000000000000001111100000000000000000000000000111110000000000000000000000000000000000000000
00000000000000000000000011100000000000000000000001111110000011111100000000000011111110000000000000001111111111000000000000011111110000000000000000000000000111110000000000000000000000000000000000000000
00000000000000000000000011100000000000000000000000111110111001111110000000000011111110000000000000001111111111000000000000111111110000000000000000000000000111110000000000000000000000000000000000000000
00000000000000000000000000000000000000000000000000111111111101111100000000000111111100000000000000001111111111000000000000111111110000000000000000000000001111110000000000000000000000000000000000000000
00000000000000000000000000000000000000000000000000011111111111111000000000000111111100000000000100001111111111100000000000111111110000000000000000000000011111100000000000000000000000000000000000000000
00000000000000000000000000000000000000000000000000111111111111100000000000000111111100000000011100011111111111110000000011111111110000000000000000000000011111100000000000000000000000000000000000000000
00000000000000000000000000000000000000000000111111111111111110000000000000000111111100000000000000011111101111110000001111111111100000000000000000000001111111000000000000000000000000000000000000000000
00000000000000000000000000000000000111000000111011110011111110000000000000000011111100000000000000011111100111111110011111111111100000000000000000000001111111000000000000000011100000000000000000000000
00000000000000000000000000000000000111000000111011100001111100000000000000000011111110000000000000111111110111111111111111111111110000000000000000000011111110000000000000000011100000000000000000000000
00000000000000000000000000000000000000000001111111000001111100100000000000000111111110000000000001111111110011111111111111111111110000000000000000000011111100000000000000000000000000000000000000000000
00000000000000000000000000000000000000000001111111000000111111100000000000000011111100000000000111111111110001111101111111111111110000000000000000001111111000000000000000000000000000000000000000000000
00000000000000000000000000000000000000000000111111000000011111100000000000000001111110000011111111111101100000011000111110011111110000000000000000011111110000000000000000000000000000000000000000000000
00000000000000000000000000000000000000000000111111000000011111110000000000000000111111111111111111111101100000000000000100001111110000000000000001100111100000000000000000000000000000000000000000000000
00000000000000000000000000000000001000000000111111000000001111111000000000000110011101111111111111111111100000000000000000001111110000000000000011110111000000000000000000000000000000000000000000000000
00000000000000000000000000000000001111000000011111000000001111111000000000000110001000111111100111111111000000000000000000001111110000000000000111111110000000000000000000000000000000000000000000000000
00000000000000000000000000000000011111111000011111000000001111111000000000000000000001111111100011111111000000000000000000001111110000000000000111111100000000000000000000000000000000000000000000000000
00000000000000000000000000000000011111111110011111100000000111111000000000000000000000001001110000111111000000000000000000000111110000000000001111110000000000000000000000000000000000000000000000000000
00000000000000000000000000000000000011111111110011100000000111111000000100011000000000000000000000011111111100000000000000000111100000000000011111100000000011100000000000000000000000000000000000000000
00000000000000000000000000000000000000011111111011100000000100111000001111111000000000000000000100011111111110000000000000111111110000000000111111100000000011100000000000000000000000000000000000000000
00000000000000000000000000000000000000001111111111110000000000010000001111111100000000000000001110111100111111000000000000111111101110000000111111000000000000000000000000000000000000000000000000000000
00000000000000000000000000000000000000000111111111111110000000110000001111111100000000000000011111111000011111000000000001111111001110000001111110000000000000000000000000000000000000000000000000000000
00000000000000000000000000000000000000000111001111111110001111111000000111111100000000000000111111111000001111100000000011111110000000000001111100000000001100000000000000000000000000000000000000000000
00000000000000000000000000000000000000111000000000111111011111111000000111101100000000000001111111110000001111111100000111111111000000000011111100000000000000000000000000000000000000000000000000000000
00000000000000000000000000000000000000111000000000001111111111111110000111101110000000001111111111100000011111111111111111111110000000000011111000000000000000000000000000000000000000000000000000000000
00000000000000000000000000000000000000000000000000000011111111111111111111111111111000111111111111000000001111111111111111100110000000000011111000000000000000000000001110000000000000000000000000000000
00000000000000000000000000000000000000001110000000000000011111111111111111111111111101111111111111000000000111111101111111100000000000000111110000000000000000000000001110000000000000000000000000000000
00000000000000000000000000000000000000001110001110000000000000000011111111111111111111111111111111000000000111111001111111100000000000000000001111111111100000000000000000000000000000000000000000000000
00000000000000000000000000000001110000000000001000000000000000000000000001111001110111111111111111111000001111111111111111110000000000000000011111111111110000000000000000000000000000000000000000000000
00000000000000000000000000000001110000000000000000000000000000000000000000000000100011110111111111111111111111111111111111111111111111111111111111111111111000000000000000000000000000000000000000000000
00000000000000000000111000000000000000000000000000000000000000000000000000000000000000100011100111111111111110111111111111111111111111111111111111111111111111111000000000000000000000000000000000000000
00000000000000000000111000000000000000000000000000000000000000000000000000000000000000011100000011111111111110111111111111111111111111111111111111110111111111111111111000000000000000000000000000000000
00000000000000000000000000000000000000000000000000000000000000000000000000000000000000011000000000000000001111111111111111111111111111110001111111100011111111111111111000000000000000000000000000000000
00000000000000000000000000000000000000000000000000000000000000000000000000000000000000000000000000000000000000000000000111111000000000000000000000000000000000001111111000000000000000000000000000000000
00000000000000000000000000000000000000000000000000000000000000000000000000000000011100000000000000000000000000000000000111111000000000000000000000000000000000000000001000000000000000000000000000000000
00000000000000000000000000000000000000000000000000000000000000000000000000000000011100000000000000000000000000000000000111111000000000000000000000000000000000000000000000000000000000000000000000000000
00000000000000000000000000000000000000000000000000000000000000000000000000000000000000000000000000000000000000000000000000000000000000000000000000000000000000000000000000000000000000000000000000000000
00000000000000000000000000000000000000000000000000000000000000000000000000000000000000000000000000000000000000000000000000000000000000000000000000000000000000000000000000000000000000000000000000000000
00000000000000000000000000000000000000000000000000000000000000000000000000000000000000000000000000000000000000000000000000000000000000000000000000000000000000000000000000000000000000000000000000000000
00000000000000000000000000000000000000000000000000000000000000000000000000000000000000000000000000000000000000000000000000000000000000000000000000000000000000000000000000000000000000000000000000000000
00000000000000000000000000000000000000000000000000000000000000000000000000000000000000000000000000000000000000000000000000000000000000000000000000000000000000000000000000000000000000000000000000000000
00000000000000000000000000000000000000000000000000000000000000000000000000000000000000000000000000000000000000000000000000000000000000000000000000000000000000000000000000000000000000000000000000000000
