P1
200 70
00000000000000000000000000000000000000000000000000000000000000000000000000000000000000000000000000000000000000000000000000000000000000000000000000000000000000000000000000000000000000000000000000000000
00000000000000000000000000000000000000000000000000000000000000000000000000000000000000000000000000000000000000000000000000000000000000000000000000000000000000000000000000000000000000000000000000000000
00000000000000000000000000000000000000000000000000000000000000000000000000000000000000000000000000000000000000000000000000000000000000000000000000000000000000000000000000000000000000000000000000000000
00000000000000000000000000000000000000000000000000000000000000000000000000000000000000000000000000000000000000000000000000000000000000000000000000000000000000000000000000000000000000000000000000000000
00000000000000000000000000000000000000000000000000000000000000000000000000000000000000000000000000000000000000000000000000000000000000000000000000000000000000000000000000000000000000000000000000000000
00000000000000000000000000000000000000000000000000000000000000000000000000000000000000000000000000000000000000000000000000000000000000000000000000000000000000000000000000000000000000000000000000000000
00000000000000000000000000000000000000000000000000000000000000000000000000000000000000000000000000000000000000000000000000000000000000000000000000000000000000000000000000000000000000000000000000000000
00000000000000000000000000000000000000000000000000000000000000000000011100000000000000000000000000000000000000000000000000000000000000000000000000000000000000000000000000000000000000000000000000000000
00000000000000000000011100000000000000000000000000000000000000000000011100000000000000000000000000000000000000000000000000000000000000000000000000000000000000000000000000000000000000000000000000000000
00000000000000000000011100000000000000000000000000000000000000000000000000000000000000000000000000000000000000000000000000000000000000000000000000000000000000000000000000011100000000000000000000000000
00000000000000000000000000000000000000000000000000000000000000000000000000000000000000000000000000000000000000000000000000000000000000000000000111111111111111111111111111111111111111000000000000000000
00000000000000000000000000000000000000000000000011100000000000000000000000000001110000000000000000000000000000000000000000000000000000000000000011111111111111111111111111111111111111000000000000000000
00000000000000000000000000011100000000000000000011100000000000000000000000000001110000000000000000000000000000000000000000000000000000000000000011111111111111111111111111111000111110000000000000000000
00000000000000000000000000011100000000000000000111000000000000000000000000000000000000000000000000000000000000000000000000000000000000000000000111111111111111111111111111110000111110000000000000000000
00000000000000000000000000000000000000000000000110000000000000000000000000000000000000000000000000000000000000000000000000000000000000000000000111111111111111111111111111110011111110000000000000000000
00000000000000000000000000000000000000000000000000000000000000000000011110000000000000000000000000000000000000000000000000000000000000000000000111111111111111101111111111111111111110000000000000000000
00000000000000000000000000000000000000011100001000000000000000000001111111110000000000000000000000000000000001111111111111110010000000000000000111111111111111101111111111111111111110000000000000000000
00000000000000000000000000000000000111111110011111110000000000000111111111111110000000000000000000000000000011111111111111111111111000000000000111111111111111111111111111111111111100000000000000000000
00000000000000000000000000000000001111111111111111111110000000001111111111111001111000000000000000000000000011111111111111111111111100110000000111111111111111111111111111111111111000000000000000000000
00000000000000000000000000000000111111111111111111111111000000011111111111111011111110000000000000001111111111111111111111111111111111111000000111111111111111111111111111110111111000000000000000000000
00000000000000000000000000000001111111111111111111111111110000011111111111111111111111000000111111100111111111110111111111111111111111111000000111111111111111110000011111110111111000000000000000000000
00000000000000000000000000000001111111111100000001111111110000011111111110100111111111100111111111110111111111110111111111111111111111111100100011111110000000000000011111111111111110000000000000000000
00000000000000000000000000000011111111100000000000111111110000011111111100000000111111111111111111111111100111111111100111111111111111111111111000000000000000000000011111111111111110000000000000000000
00000000000000000000000000000111111110000000000000001111100000011111111000000000011111111111110000011111000011111100000011111111111111111111100000000000000000000000000111111111110000000000000000000000
00000000000000000000000000000111111100000000000000000111110000011111000000000000011111111111110000011110000000110000000000011111111111111111100000000000000000000000000111111111100000000000000000000000
00000000000000000000000000000111111100000000000000001111111100011111000000000001111111111110111000011100000000000000000000000000111111111111111000000000000000000000111111111111100000000000000000000000
00000000000000000000000000000011110000000000000000001111111100000111110000000111111111111111111000000000000000000000000000000000011111111111111000000000000000000000111111111111000000000000000000000000
00000000000000000000000000010011110000000000000000000111111100000111110000001111111111111110000000000000000000000000000000000000011111111111111100000000000000000001111111111110000000000000000000000000
00000000000000000000000000011111111000000000000000000111111100011111111111111111100011111110000000000000000000000000000000000000011111111011111000000000000000000001001111111110000000000000000000000000
00000000000000000000000000001111111100000000000000000111111100000111111111111111000001111110000000000000000000000000000000000000000111110011111100000000000000000011101111111110000000000000000000000000
00000000000000000000000000001111111100000000000000001111111110000111111111110000000001000000000000000000000000000111000000000000100111100111111110000000000000000011111111111100000000000000000000000000
00000000000000000000000000001111111100000000000000001111111100001111111111100000000000000000000000000000000000000111000000000001111111101111111111000000000000000011111111111100000000000000000000000000
00000000000000000000000000111111111100000000000000011111111100011111111100110000000001111110000000000000000000000000000000001111111111111111111111110000000000000011111111111000000000000000000000000000
00000000000000000000000000111111111100000000000000111111111100111111111000111110000001111110000000000000000000000000011111111111111111111111101111111000000000000011111111111000000000000000000000000000
00000000000000000000000000001111111110000000000001111111111111111111110000111111000001111110000000000000000000000001111111011111111111111110000010011100111000000011111111111000000000000000000000000000
00000000000000000000000000000111111110000000000011111111111111111111110000011111100001111110000000000000000000000001111111011111111111111000000000001111111000001111111111110000000000000000000000000000
00000000000000000000000000000011111111100000011111111111111111111111110000011111110000111111000000000000000000000000000111111111111111111000000000001111111000001111111111110000000000000000000000000000
00000000000000000000000000000011111111111110111111111111111111100111111000011111110000111111000000000000000000000000000011111111111111111110000000000011110000001111111111100000000000000000000000000000
00000000000000000000000000000001111111111111111111001111111111000111111000011111110000111110000000000000000000000010000000001111111111111111000000000001111000000011111111100000000000000000000000000000
00000000000000000000000000000001111011111111111110001111111110000011111100011111110000011110000000000000000000000001000000000001111111111111100000000000111111110001111111000000000000000000000000000000
00000000000000000000000000000000111011111111111100011111111000000011111100001111110000011100000000000000000000000001000000000000011111111111111000000000011111111000111111000001110000000000000000000000
00000000000000000000000000000000111111111111100000111111110000000011111100000000000000111100000000000000000000000000000000000000000111111111111000000000000011111101111110000001110000000000000000000000
00000000000000000000000000000000111111111111000001111111110000000011111100000000000001111000000000000000000000000111000000000000000111111111111100000000000001111111111110000000000000000000000000000000
00000000000000000000000000000000000000000000000111111111100000000000111110000000000001111100000000000000000000000111000000000000001111111110111100000000000001111011101110000000000000000000000000000000
00000000000000000000000000000000000000000000011111111111000000000000011110000000000001111110000000000000000000000000000000000000001111111100011110000011100001111011101110000000000000000000000000000000
00000000000000000000000000000000000000000000111111111110000000000000111110000000000001111110000000000000000000000000000000000000001111111100011110000011100011111111111100000000000000000000000000000000
00000000000000000000000000000000000000000011111111111110000000000000111110000000000001111110000000000000001000000000000000000000001111111110111110000000000011111111111100000000000000000000000000000000
00000000000000000000000000000000000000000111111111111100000000000000011111000000000001111100000000000000001100100000000000000000001111111111111110000000000111111111111100000000000000000000000000000000
00000000000000000000000000000000000000011111111111111100000000000000001111000000000001111100000000000000011111100000000000000000011111111011111110000000000111111111111000000000000000000000000000000000
00000000000000000000000000000000000000111111111111111000000000000000000111100000000011111100000000000000011111110000000000000000011111111011111110000000000111111111111000000000000000000000000000000000
00000000000000000000000000000000001111111111111111110000000000000000001111111000000111111000000000000000011111110000000000000000011111111111111100000000001111111111110000000000000000000000000000000000
00000000000000000000000000000000011111111111111111100000000000000000000001111100001111110000000000000000011111111000000000000000111111111111111100000000001111111111110000000000000000000000000000000000
00000000000000000000011100000000111111111110011110000000000000111000000001111110111111110000000000000000011111111100000000000001111111111111001000000000011111111111100000000000000000000000000000000000
00000000000000000000011100000001111111111111011100000000000000111000000001111111111111110000000000000000011111111111110000000111111111110110000000000000011111111111100000000000000000000000000000000000
00000000000000000000000000000000111111111111111000000000000000000000000000111111111111100000000000000000011111111111111111111111111111110110000000000000011111111111000000000000000000000000000000000000
00000000000000000000000001110000111111111111000000000000000000000000000000011111111111000000000000000000001111111111111111111111111111111111000000000000111111111111000000000000000000000000000000000000
00000000000000000000000001110001111111100110000000000000000000000000000000000111111110000000000000000000000001111111011111110111111111111111100000000000111111111111000000000000000000000000000000000000
00000000000000000000000000000000111111000000000000000000000000000000000000000000000000000000000000000000000000000010001111100011111110000111100000000000111111111110000000000000000000000000000000000000
00000000000000000000000000000000011111100000000000000000000000000000000000001110000000000000000000000000000000000000000110010001100000001100000000000001111111111110011100000000000000000000000000000000
00000000000000000000000000000000000010000000000000000000000000000000000000001110000000000000000000000000000000000000000000000000000000011100000000000111111111111100011100000000000000000000000000000000
00000000000000000000000000000000000000000000000000000000000000000001110000000000000000000000000000000000000000000000000000000000000000000000000000000111111111111100001000000000000000000000000000000000
00000000000000000000000000000000000000000000000000000000000000000001110000000000000000011100000000000000000000000000000000000000000000000000000000000011110111111100011100000000000000000000000000000000
00000000000000000000000000000000000000000000000000000000000000000000000000000000000000000000000000000000000000000000000000000000000000000000000000000011110011111000011100000000000000000000000000000000
00000000000000000000000000000000000000000000000000000000000000000000000000000000000000000000000000000000000000000000000000000000000000000000000000000011111000000000000000000000000000000000000000000000
00000000000000000000000000000000000000000000000000000000000000000000000000000000000000000000000000000000000000000000000000000000000000000000000000000001100000000000000000000000000000000000000000000000
00000000000000000000000000000000000000000000000000000000000000000000000000000000000000000000000000000000000000000000000000000000000000000000000000000000000000000000000000000000000000000000000000000000
00000000000000000000000000000000000000000000000000000000000000000000000000000000000000000000000000000000000000000000000000000000000000000000000000000000000000000000000000000000000000000000000000000000
00000000000000000000000000000000000000000000000000000000000000000000000000000000000000000000000000000000000000000000000000000000000000000000000000000000000000000000000000000000000000000000000000000000
00000000000000000000000000000000000000000000000000000000000000000000000000000000000000000000000000000000000000000000000000000000000000000000000000000000000000000000000000000000000000000000000000000000
00000000000000000000000000000000000000000000000000000000000000000000000000000000000000000000000000000000000000000000000000000000000000000000000000000000000000000000000000000000000000000000000000000000
