P1
200 70
00000000000000000000000000000000000000000000000000000000000000000000000000000000000000000000000000000000000000000000000000000000000000000000000000000000000000000000000000000000000000000000000000000000
00000000000000000000000000000000000000000000000000000000000000000000000000000000000000000000000000000000000000000000000000000000000000000000000000000000000000000000000000000000000000000000000000000000
00000000000000000000000000000000000000000000000000000000000000000000000000000000000000000000000000000000000000000000000000000000000000000000000000000000000000000000000000000000000000000000000000000000
00000000000000000000000000000000000000000000000000000000000000000000000000000000000000000000000000000000000000000000000000000000000000000000000000000000000000000000000000000000000000000000000000000000
00000000000000000000000000000000000000000000000000000000000000000000000000000000000000000000000000000000000000000000000000000000000000000000000000000000000000000000000000000000000000000000000000000000
00000000000000000000000000000000000000000000000000000000000000000000000000000000000000000000000000000000000000000000000000000000000000000000000000000000000000000000000000000000000000000000000000000000
00000000000000000000000000000000000000000000000000000000000000000000000000000000000000000000000000000000000000000000000000000000000000000000000000000000000000000000000000000000000000000000000000000000
00000000000000000000000000000000000000000000000000000000000000000000000000000000000000000000000000000000000000000000000000000000000000000000000000000000000000000000000000000000000000000000000000000000
00000000000000000000000000000000000000000000000000011100000000000000000000000000000000000000000000000000000000000000000000000000000000000000000000000000000000000000000000000000000000000000000000000000
00000000000000000000000000000000000000000000000000001100000000000000000000000000000000000000000000000000000000000000000000000000000000000000000000000000000000000000000000000000000000000000000000000000
00000000000000000000000000000000000000000000000010000000000000000000000000000000001110000000000000000000000000000000000000000000000000000000000000000000000000000000000000000000000000000000000000000000
00000000000000000000000000000000000000000000000011100000000000000000000000000000001110000000000000000000000000000000000000000000000000000000000000000000000000000000111000000000000000000000000000000000
00000000000000000000000000000000000000000000000111000000000000000000000000000000000000000000000000000000000000000000000000000000000000000011111111110000000000000000111000000000000000000000000000000000
00000000000000000000000000000000000000000000000111000000000000000000000000011000000000000000000000000000000000000000000000000000000000000111001111111100000001110000000000000000000000000000000000000000
00000000000000000000000000000000000000000000000010000000000000000000011100111000110000000000000000000000001111111111100000000000000000111111000011111111000001110000000000000000000000000000000000000000
00000000000000000000000000000000000000000000001111000000000000000000011111111101111100000011000000000001111111111111110000000000000001111111110001110111100000000000000000000000000000000000000000000000
00000000000000000000000000000000000000000000111111110000000000000000000111111111111110000011100000000011111111111111111111000000000001111111110001100111100000000000000000000000000000000000000000000000
00000000000000000000000000000000000000000001110111111000000000000000000111110000011111000000000000000011111111111111111111100000000001111111000000011111110000000000001110000000000000000000000000000000
00000000000000000000000000000000000000000001110111111110000000000000001111000000001111100000000000000111101111111111111111100000000001111110000000001111110000000000111110000000000000000000000000000000
00000000000000000000000000000000000000000011111111111111100000000000001110000000000111110000000000001111101111110011111111110010000001111100000000000111110000111000111000000000000000000000000000000000
00000000000000000000000000000000000000000011111111011111100000000000011110000000000011110000000000001111111111000000001111111111000001111100000000000111111000111000000000000000000000000000000000000000
00000000000000000000000000000000000000000111111111001111110000000000011110000000000011111000000000001111111110000000000011111111000001111100000000000011100000000000000000000000000000000000000000000000
00000000000000000000000000000000000011100111111110000111111000000000011110000000000001111100000000011111111110000000000000001110000001111110000000000000000000000000000000000000000000000000000000000000
00000000000000000000000000000000000011100111111110000111111100000000011110000000000001111111111111111111111111110000000000001110000001111110000000000000000000000000000000000000000000000000000000000000
00000000000000000000000000000000000000000111111110000011111100000000011110000000111111111111111111111111111111111111111111111111110000111110000000000001111000000000000000000000000000000000000000000000
00000000000000000000000000000000000000000111111110000011111110000000001111111111111111111111111111111111111111100111111111111111110001111110000000000000111100000000000000000000000000000000000000000000
00000000000000000000000000000000000000000111111110000001111110000000011111111111111111111111111111111011111000000011111111111111111111111111000000000000111100000000000000000000000000000000000000000000
00000000000000000000000000000000000000000111111110000001101111000111111111111100000000111111000000000011111000000001110011111111111111111111100000111011111100000000000000000000000000000000000000000000
00000000000000000000000000000000000000000011111110000001001111111111111111000000000000011110000000000111111100000001110000111111111111111111111000011111111000000000000000000000000000000000000000000000
00000000000000000000000000000000000000000011011110000001111111111111111100000000000000001110000000000111111100000001111100111110000001111111111111111111111000000000000000000000000000000000000000000000
00000000000000000000000000000000000000000010011110000001111111111110010000000000000000001111000000000011111111000001111111111100000000001111111111111111111000000000000000000000000000000000000000000000
00000000000000000000000000000000000000000001111111000011111111111000000000000000000000001111000000000011111111111111111111111000000000001111111111111111110000000000000000000100000000000000000000000000
00000000000000000000000000000000000000000001111111001111110111110000001110000000000000000111000000000000111111111111111111100000000000011111111111111111110000111000000000000111000000000000000000000000
00000000000000000000000000000000000000000001111111111111100011100000001110000000000000000111000000000100111011111111111110000000000000111111111111111111111000000000000000000000000000000000000000000000
00000000000000000000000000000000000000000001000111111100000111100000001110000000000000000111000000001111111011111111111000000000000001111111111001111111111110000000000000000000000000000000000000000000
00000000000000000000000000000000000000000000000001111000001111100000001110000000000000000111000000111111111111111111111100000000000001111110000000011111111111000000000000000000000000000000000000000000
00000000000000000000000000000000000000000001111001111000011111110000001110000000000000000011000001111111110000001111111110000000000001111110000000011111111111000000000000000000000000000000000000000000
00000000000000000000000000000000000000000011100111111111111111110000000110000000000000000011100011111111000000000111111110000000000001111100000000001111111111100100000000000000000000000000000000000000
00000000000000000000000000000000000000000111000111111111111110110000000000000000000000000011100111111100000000000011111110000000000000111100000000000111111111111110000000000000000000000000000000000000
00000000000000000000000000000000000000001111100111111111111110110000000000000000000000000011100111111000000000000011111111000000111000111100000000000011111100111111000000000000000000000000000000000000
00000000000000000000000000000000000001111110000001111111111111110000000011100000000000000011100111111000000000000011111111000000111001111100000000000001111100011111110000000000000000000000000000000000
00000000000000000000000001110000000011111100000000000000111111111000000011110000000000000011111111110000000000000011111110000000000001111100000000000001111100000111111000000000000000000000000000000000
00000000000000000000000001110000000111110000000000000000011111111000000011110000000000000011111111110000000000000011111110000000000001111100000000000000001100000011111100000000000000000000000000000000
00000000000000000000000000000000001111100000000000000000111111111000000011110000000000000011111111110000000000000011111110000000000000111110000000000000001100000001111000000000000000000000000000000000
00000000000000000000000000000000011111000000000000000000111111111000000011100000000000000011111111100000000000000011111110000000000000011110000000000001111110000000111000000000000000000000000000000000
00000000000000000000000000000000111110000000000000000000001111111000000011110000000000000011011111100000000000011111111110000000000000011111000001000001111110000000010000000000000000000000000000000000
00000000000000000000000000000000011100000000111000000000001111111000000001110000000000000010011111100000000000011111111100000000000000011111000111000001111110000000000000000000000000000000000000000000
00000000000000000000000000000000001000000011111100000000011111110000000000000000000000000011111111100000000000001111111000000000001110001111110000000001111110000000000000000000000000000000000000000000
00000000000000000000000000000000000000000011111100000000111111110000000000000000000000000011111111100000000000011111110000000000001110001111111100000011111110000000000000000000000000000000000000000000
00000000000000000000000000000000000000000000111000000000111111110000000000111100000000000011111111110000000000111111110000000000000000000111111111011111111110000000000000000000000000000000000000000000
00000000000000000000000000000000000000000000011100000000111111100000000001111100000000000011111111110000000001111111100000000000000000000011111111100111111110000000000000000000000000000000000000000000
00000000000000000000000000000000000000011100011110000001111111100000000001111100000111000011111101111000000011110010000000000000000000000001111111110011111100000000000000000000000000000000000000000000
00000000000000000000000000000000000000011100111111000001111111000000000000011110000111000111111101111111000111100000000000000000000000000000001111111100111100000000000000000000000000000000000000000000
00000000000000000000000000000000000000000011111111111111111110000011100000000111000000000111111111111111111111000000000000000000000000000000001100111110011000000000000000000000000000000000000000000000
00000000000000000000000000000000000000000011111111111111111100000011100000000011100000000111111111111111111110000000000000000000000000000000000000011111110000000000000000000000000000000000000000000000
00000000000000000000000010000000000000000000000111110001110000000000000000000111110000000011101111011111111110000000000000000000000000000000000000000110000000000000000000000000000000000000000000000000
00000000000000000000001110000000000000000000000011100000000000000000000000000011111100000001000110001111111100000000000000000000000000000000000000000000000000000000000000000000000000000000000000000000
00000000000000000000000000000000000000000000000000000000000000000000000000000001111110001110000000001111100000000000000000000001110000000000000000000000000000011100000000000000000000000000000000000000
00000000000000000000000000000000000000000000000000000000000000000000000000000000111111111100000000000000000000000000000000000001110000000000000000000000000000011100000000000000000000000000000000000000
00000000000000000000000000000000000000000000000000000000000000000000000000000000000001111000000000000000000000000000000000000000000000000000000000000000000000000000000000000000000000000000000000000000
00000000000000000000000000000000000000000000000011100000000000000000000000000000000000000000000000000001110000000000000000000000000000000000000000000000000000000000000000000000000000000000000000000000
00000000000000000000000000000011100000000000000011100000000000000000000000000000000000000000000000000001110000000000000000000000000000000000000000000000000000000000000000000000000000000000000000000000
00000000000000000000000000000011100000000000000000000000000000000000000000000000000000000000000000000000000000000000000000000000000000000000000000000000000000000000000000000000000000000000000000000000
00000000000000000000000000000000000000000000000000000000000000000000000000000000000000000000000000000000000000000000000000000000000000000000000000000000000000000000000000000000000000000000000000000000
00000000000000000000000000000000000000000000000000000000000000000000000000000000000000000000000000000000000000000000000000000000000000000000000000000000000000000000000000000000000000000000000000000000
00000000000000000000000000000000000000000000000000000000000000000000000000000000000000000000000000000000000000000000000000000000000000000000000000000000000000000000000000000000000000000000000000000000
00000000000000000000000000000000000000000000000000000000000000000000000000000000000000000000000000000000000000000000000000000000000000000000000000000000000000000000000000000000000000000000000000000000
00000000000000000000000000000000000000000000000000000000000000000000000000000000000000000000000000000000000000000000000000000000000000000000000000000000000000000000000000000000000000000000000000000000
00000000000000000000000000000000000000000000000000000000000000000000000000000000000000000000000000000000000000000000000000000000000000000000000000000000000000000000000000000000000000000000000000000000
00000000000000000000000000000000000000000000000000000000000000000000000000000000000000000000000000000000000000000000000000000000000000000000000000000000000000000000000000000000000000000000000000000000
