P1
200 70
00000000000000000000000000000000000000000000000000000000000000000000000000000000000000000000000000000000000000000000000000000000000000000000000000000000000000000000000000000000000000000000000000000000
00000000000000000000000000000000000000000000000000000000000000000000000000000000000000000000000000000000000000000000000000000000000000000000000000000000000000000000000000000000000000000000000000000000
00000000000000000000000000000000000000000000000000000000000000000000000000000000000000000000000000000000000000000000000000000000000000000000000000000000000000000000000000000000000000000000000000000000
00000000000000000000000000000000000000000000000000000000000000000000000000000000000000000000000000000000000000000000000000000000000000000000000000000000000000000000000000000000000000000000000000000000
00000000000000000000000000000000000000000000000000000000000000000000000000000000000000000000000000000000000000000000000000000000000000000000000000000000000000000000000000000000000000000000000000000000
00000000000000000000000000000000000000000000000000000000000000000000000000000000000000000000000000000000000000000000000000000000000000000000000000000000000000000000000000000000000000000000000000000000
00000000000000000000000000000000000000000000000000000000000000000000000000000000000000000000000000000000000000000000000000000000000000000000000000000000000000000000000000000000000000000000000000000000
00000000000000000000000000000000000000000000000000000000000000000000000000000000000000000000000000000000000000000000000000000000000000000000000111000000000000000000000000000000000000000000000000000000
00000000000000000000000000000000000000000000000000011100000000000000000000000000000000000000000000000000000000000000000000000000000000000000000111000000000000000000000000000000000000000000000000000000
00000000000000000000000000000000000000111000000000011100000000000000000000000000000000000000000000000000000000000000000000000000000000000000000000000000000000000000000000000000000000000000000000000000
00000000000000000000000000000000000000111000000000000000000000000000000000000000000000000000000000000000000000000000000000000000000000000000000000000000000000000000000000000000000000000000000000000000
00000000000000000000000000000000000010000000000000000000000000000000000000000000000000000000000000000000000000000000000000000000000000000000001110000000000000000000000000000000000000000000000000000000
00000000000000000000000000000000000111000000000000000000000000000000000000000000000100000000000000000000000111000000000000000000000000000000001110011111111111111111100000000000000000000000000000000000
00000000000000000000000000000000001111000000000000000000000000000000000000000011111100000000000000000000000111000000000000000000000000000000000001111111111111111111111000000000000000000000000000000000
00000000000000000000000000000000001111100000000000000000000000000000000000000011111100000000000000000000000000000000000000000000000000000000000001111111111111111011111110000000000000000000000000000000
00000000000000000000000000000000001110011111111100000000000000000000000000000011111100000011100000000000000000000111000000000000000000000000000011111111111111110011111111000000000000000000000000000000
00000000000000000000000000000000000100111111111111100000000000000000000000000111111100000011100000000000000000000111000000000000000000000000001111111111111110001111111111000000000000000000000000000000
00000000000000000000000000000000000011111111111111110000000000000000000000001111111100000000000000000000000000000000000000011100000000000000001111111111111100001111101111100000000000000000000000000000
00000000000000000000000000000000000011111111111111111100000000000000000000011111111100000000000000111110000000000000000000011100000000000000000111111111111000011111101111111000000000000000000000000000
00000000000000000000000000000000000011111111111111111000000000000000000000011011111100000000000001111111111000000000000000000000000000000000001111111111111000100111111111111100000000000000000000000000
00000000000000000000000000000000000111111111111111110001000000000000000000011011111100000000000001111001111111000000000000000000000000000000111111111111110000110111111111111100000000000000000000000000
00000000000000000000000000000000000111110111000000001111100000000000000000111111111100000000000001110000111111100000000000000000000000000000111111111111100001111111111111111100000000000000000000000000
00000000000000000000000000000000000111110111000000001111110000000000000011111111111110000000000001111000111111111100000000000000000000000000111111111111100011111111111111111110000000000000000000000000
00000000000000000000000000000000000111111111100000001111110000000000000111110111111110000000000001111111111111111111100000000000000000000001111110001111100111111111111111111110000000000000000000000000
00000000000000000000000000000000001111111110010000000111111000000000001111100011111100000000000011111110000011111111110000000000000000000011111110001111101111111101111111011100000000000000000000000000
00000000000000000000000000000000001111111100111000000000111100000000011111000011111000000001100011111100000000111111111000000000000000000011111111111111111111011101111111011100000000000000000000000000
00000000000000000000000000000000001111100011111000000000111100000000011110000111111000000011100011111000001110011111111100000000000000000011111111111111111110011111110111111000000000000000000000000000
00000000000000000000000000000000001111100001111100000001111100000000111100000111111000000000000010000000001111111111111110000000000000000011111111111111111100011111110111111001110000000000000000000000
00000000000000000000000000000001110111110001111110000001111100000000111000000111110000000000000000000000000011100000011110000000000000000001111111111111111000111111111111111001110000000000000000000000
00000000000000000000000000000000000111110000111110000001111110000000110000001111100000000000000000000000000000000000011100000000000000000001111111111111111000111111110011110000000000000000000000000000
00000000000000000000000000000000000111110000011111000001111100000000000000001110011000000000001110000000000000000111111100110000000000000001111101111111110001111111110011100000000000000000000000000000
00000000000000000000000000000000000111000000011111100011111000000000000000001110111000000000001110000000000000000111111111110000000000000000111000111111100001111111111111000000000000000000000000000000
00000000000000000000111000000000000011001000001111111111111000000000000000001111111000000000000000000000000000000111111111111000000000000000111000011111000011111111111110000000000000000000000000000000
00000000000000000000111000000000000011111000000111111111111100000000000000001111111000000000000000000000000000000111111111111000000000000000111100011111111100111111111000000001110000000000000000000000
00000000000000000000000000000000000001111100000011111111111100000000000000001111111000000000000000000000000000000111111111111100000000000011111111111111111000011110000000000001110000000000000000000000
00000000000000000000000000000000000000111110000111111101111100000000000000001111111000000000000000000000000000000000111111111100000000000011111110111111111100111110000000000000000000000000000000000000
00000000000000000000000000111000000000111111000111111001111000000000000001111111111000000000000000000000000000001000011111111000000000000000111110111111111111111111000000000000000000000000000000000000
00000000000000000000000000111000000000011111111111000111111000000000000001111111110000000000000000000000000000000100011111111000000000000100111111111111001111011111110000000000000000000000000000000000
00000000000000000000000000000000000000001111111111101111111100000000011100001111110000000000000000000000000000000000011111001000000000111111111111111110000111011111111000000000000000000000000000000000
00000000000000000000000000000000000000000111111111111111111110000000011100001111110000000000000000000000000000000000111110000000000011111111111111110000000011111111111000000000000000000000000000000000
00000000000000000000000000000000110000000111111111111111111110000000000000001111110000000000000000111000000000111111111001100000001111111111111111100000000111111111111000000001110000000000000000000000
00000000000000000000000000000001111100000001111111111111111111000000000000000111111000111000000000111000000011111111111011100001111111111111111110000000000111111111111000000000110000000000000000000000
00000000000000000000000000000001111110000000001100111111001111111100000000000111111000111000000000000000000011111111111111100111111111111111111100000000000111111111111000000000000000000000000000000000
00000000000000000000000000000000001110000000000001111110000111111111000000001111111000000000000000000000011111111111111111111111111111111111111100000000000111111111111100000000000000000000000000000000
00000000000000000000000000000000000100000000000001111100000000111111110000001111111000000000000000000000111111111111111101111111100001111111111110000000000111111111111100000000000000000000000000000000
00000000000000000000000000000000111000000000000011111100000000001111111110001111110000000000000000000000111111111111111110011110000001111111111110000000000111111111111100000000000000000000000000000000
00000000000000000000000000000000111100000000000111111100000000000011111111111111110000000000000000001001111111111111111111001000000011111111111100000011000111111111111100000000000000000000000000000000
00000000000000000000000000000000011111100000000111111000000000000000111111111111110000000000000001111111111111111111111111100000000111111111111100000001001111111111111000000000000000000000000000000000
00000000000000000000000000000000001111110000001111110000000000000000000111111111100000000000000111111101111111111111111110000000000111111101111100000000001111111011110000000000000000000000000000000000
00000000000000000000000000000000001111111111111111100000000000000000000001111111110011111110001111111101111111111111100000000000000111111101111100000000011111111011110000000000000000000000000000000000
00000000000000000000000000000000000111111111111111100000000000000000000000011111111111111111011111111111111110001100000001000000000011111111111100000000011111111111110000000000000000000000000000000000
00000000000000000000000000000000000010011111111110000000000000000000000000001111111111111111111111111111111100000000001111000000000011111111111000000000111111111111100000000000000000000000000000000000
00000000000000000000011100000000000000001101111100000000000000000000000000001111111111111111111101110011111000000000011111100000000111111111111000000000111111111111100000000000000000000000000000000000
00000000000000000000011100000000000000001000111000000000000000000000000000001111111111111111111101110011111111111000011111100000000111111111111000000000111111111100000000011100000000000000000000000000
00000000000000000000000000000000000000000000000000000011100000000000000000011111111110001111111111111100011111111110111111100000000111111111111000000001111111111000000000011100000000000000000000000000
00000000000000000000000000000000000000000000000000000011100000000000000000011111111100001111111111111110001111111111111111000000001111111110111000000011111111111100000000000000000000000000000000000000
00000000000000000000000000000000000000000000000000000000000000000000000001111110010000001111111111111111001111111111111111000000001111111110111100001111111111111000000000000000000000000000000000000000
00000000000000000000000000000000000000000000000000000000000000000000000011111100000000011111111111111111111111111111111111000000000111111111111110001111111111100000000000000000000000000000000000000000
00000000000000000000000000000000000000000000000000000000000000000000000001111000000111011111111111111111111111111111111111000000000011111111111111011111111110000000000000000000000000000000000000000000
00000000000000000000000000000000000000000000000000000000000011100000000011110000000000111110111111111111111111111111111110000000000011111111111111111111111110000000000000000000000000000000000000000000
00000000000000000000000000000000000000000000000000000000000011100000001111110000000000111100011000100011111111111111111110000000000001111111111111111111000111000000000000000000000000000000000000000000
00000000000000000000000000000000000000000000000000000000000000000000001101110000000000000000000000000000000110000000000100000000000000111111111111111100000111000000000000000000000000000000000000000000
00000000000000000000000000000000000000000000000000000000000000000000000000000000000000000000000000000000000111000000000000000000000000000011111000000000000000000000000000000000000000000000000000000000
00000000000000000000000000000000000000000000000000000000000000000000000000000000000000000000000000000000000111000000000000000000000000000000000000000000000000000000000000000000000000000000000000000000
00000000000000000000000000000000000000000000000000000000000000000000000000000000000000000000000000000000000000000000000000000000000000000000000000000000000000000000000000000000000000000000000000000000
00000000000000000000000000000000000000000000000000000000000000000000000000000000000000000000000000000000000000000000000000000000000000000000000000000000000000000000000000000000000000000000000000000000
00000000000000000000000000000000000000000000000000000000000000000000000000000000000000000000000000000000000000000000000000000000000000000000000000000000000000000000000000000000000000000000000000000000
00000000000000000000000000000000000000000000000000000000000000000000000000000000000000000000000000000000000000000000000000000000000000000000000000000000000000000000000000000000000000000000000000000000
00000000000000000000000000000000000000000000000000000000000000000000000000000000000000000000000000000000000000000000000000000000000000000000000000000000000000000000000000000000000000000000000000000000
00000000000000000000000000000000000000000000000000000000000000000000000000000000000000000000000000000000000000000000000000000000000000000000000000000000000000000000000000000000000000000000000000000000
