P1
200 70
00000000000000000000000000000000000000000000000000000000000000000000000000000000000000000000000000000000000000000000000000000000000000000000000000000000000000000000000000000000000000000000000000000000
00000000000000000000000000000000000000000000000000000000000000000000000000000000000000000000000000000000000000000000000000000000000000000000000000000000000000000000000000000000000000000000000000000000
00000000000000000000000000000000000000000000000000000000000000000000000000000000000000000000000000000000000000000000000000000000000000000000000000000000000000000000000000000000000000000000000000000000
00000000000000000000000000000000000000000000000000000000000000000000000000000000000000000000000000000000000000000000000000000000000000000000000000000000000000000000000000000000000000000000000000000000
00000000000000000000000000000000000000000000000000000000000000000000000000000000000000000000000000000000000000000000000000000000000000000000000000000000000000000000000000000000000000000000000000000000
00000000000000000000000000000000000000000000000000000000000000000000000000000000000000000000000000000000000000000000000000000000000000000000000000000000000000000000000000000000000000000000000000000000
00000000000000000000000000000000000000000000000000000000000000000000000000000000000000000000000000000000000000000000000000000000000000000000000000000000000000000000000000000000000000000000000000000000
00000000000000000000000000000000000000000000000000000000000000000000000000000000000000000000000000000000000000000011100000000000000000000000000000000000000011100000000000000000000000000000000000000000
00000000000000000000011100000000000000000000000000000000000000000000000000000000000000000000000000000000000000000011100000000000000000000000110000000000000011100000000000000000000000000000000000000000
00000000000000000000011100000000000000000000000000000000000000000000000000000000000000000000000000000000000000000000000000000000000000000000110000000000000000000000000000000000000000000000000000000000
00000000000000000000000000000000000000000000000001110000000000000000000000000000000000000000000000000000000000000000000000000000000000000000000000000000000000000000000000000000000000000000000000000000
00000000000000000000000000000000000000000011111111111000000000000000000000000000000000000000000000000000000000000001111111111100000000000000000000000000000000000000000000000000000000000000000000000000
00000000000000000000000000000000000000001111111111111000000000000000000000000000000000000000000000000000000000000111111111111110000000000000000000000000111010000000000000000000000000000000000000000000
00000000000000000000000000000000000000111111110111111000000000000000000000000000000000000000000000000000000000011000111111111110001110000000000000001111111111110000000000000000000000000000000000000000
00000000000000000000000000000000000001111111100011111100000000000000000000000000011100000000000000000000000000111100000011111111000000000000000000011111111111111000000000000000000000000000000000000000
00000000000000000000000000000000000011111111000111111111000000000000000000000000011100000000000000000000000001111110000000111111000000000000000011111111111111111100000000000000000000000000000000000000
00000000000000000000000000000000000011111111000011110111100000000000000000000000000000000000000000000000000011111100000000111111000000000000000111111111111111111110000000000000000000000000000000000000
00000000000000000000000000010000000111011110000001100111110000000000000000000000000000000000000000000000000011111000000000011111000000000000111111111111111111111100000000000000000000000000000000000000
00000000000000000000000000011000001110001100000000011111110000000000000000000000000000000000000000000000000011110000000000001111000000000001111111111111011111111100000000000000000000000000000000000000
00000000000000000000000000111000001100011000000000011111110000000000000000000011100000000000000000000000000111110000000000001110000000001111111111110111011111111100000000000000000000000000000000000000
00000000000000000000000000000000001110110000000000011111110000000000001111111111110000000000000000000000001111100000000000000100000000001111111111100111111111111110000000000000000000000000000000000000
00000000000000000000000000000000011111110000000000001111111000000001111111111111110000000000000000000000000111100000000000000000000000111111111000011111110111111111000000000000000000000000000000000000
00000000000000000000000000000000011111110000000000001111111000110011111101111111110000000000000000000000001111000000000000000000000001111111000000001111110111111111000000000000000000000000000000000000
00000000000000000000000000000000011111110000000000001111111001111111111101111111110000000000000000110000111111000000000000000000000000111110000000000111111111111111000000000000000000000000000000000000
00000000000000000000000000000000011101100000000000000111111001111111111111111111110000000000000000111000111111000000000000000000000100111100000000000111111111111110000000000000000000000000000000000000
00000000000000000000000000000000011100100000000000000111111001111111111111111111110000000000000000000001111110000000000000000111111111111000000000000011111111111110000000000000000000000000000000000000
00000000000000000000000000000000111111100000000000001110111001111111111111111111110000000000000000000001111100000000111000000111111111110000000000000001111111111110000000000000000000000000000000000000
00000000000000000000000000000000111111000000000000001110110000111110011111111111110000000000000000000001111100000011111111000000111111110000000000000001111111111110000000000000000000000000000000000000
00000000000000000000000000000000111111000000000000001111110000011100000111111111110000000000000000000011111100000111111111100000011111100000000000011111111111101110010000000000000000000000000000000000
00000000000000000000000000000000111111100000000000001111111000000000000111111111110000000000000000000011111111111111111111111000111111100000000000011001111111101111110000000000000000000000000000000000
00000000000000000000000000000000111111100000000000011111111000000000000111111111110000000000000000000011111111111111111111111111111111100000000000000000111111111111111000000000000000000000000000000000
00000000000000000000000000000000111111100000000000011111111000000000000111111111110000000000000000000111111111111000000011110011111111100000000000000001111111111111111000000000000000000000000000000000
00000000000000000000000000000000111111100000000000011111111000000000000111111111111000000000000000000111111111100000000001110111011111000000000000111111111111111111000000000000000000000000000000000000
00000000000000000000000000000000011111100000000000011111111000000000000111111111111111111111110000000111111111000000000001111111001111000000000000111111111111111000000000110000000000000000000000000000
00000000000000000000000000000000001111100000000000111111111000000000001111111111111111111111111111001111111110000000000011111111011111000000000001111111111111110000000000110000000000000000000000000000
00000000000000000000000000000000011111110000000001111111110000000111111111111111001111111111111111111111111100011111111111111111111111111111111111111111111111100000000000000000000000000000000000000000
00000000000000000000000000000000011111111000000011111111110000011111111111111100000111111111111111111111111110111110111111111111111111111111111111111111111111000000000000000000000000000000000000000000
00000000000000000000000000000000001111111111001111111111110000111111111111111100110000000000000000011111111111111110111111111111111110111111111111111111111110000000000000000000000000000000000000000000
00000000000000000000000000000000000111111111111111111111100111111110000000011111110000000000000000011111111100000111111111111111111100011111100000001111111110000000000000000000000000000000000000000000
00000000000000000000000000000000000111111111111111111111101111111000000000001111110000000000000000011111111000000000000001111110000000000000000000001111111100000000000000000000000000000000000000000000
00000000000000000000000000000000000111111111111111111111111111100000000111001111110000000000000000111111110000000000000001111110000000000000000000011111111000000000000000000000000000000000000000000000
00000000000000000000000000000000000001111111111111011111111110000000000111111111110000000000000000111111110000000000000001111111000000000000000000011111111000000011100000000000000000000000000000000000
00000000000000000000000000000000000000111111111110001111111100000000000111111111110000000000000000111111110000000000000001111111000000000000000000111111000000000011100111000000000000000000000000000000
00000000000000000000000000000000000000000000000000011101111000000000000011111111100000000000000000111111110000000000000001111110000000000000000000111110000000000011110111000000000000000000000000000000
00000000000000000000000000000000000000000000000001111101110000000000000001111111100000000000000000001111110000000000000011111110000000000000000001111111000000000111111111000000000000000000000000000000
00000000000000000000000000000000000000000000000011111111110000000000000011111111110000000000000000001111110000000000000011111111000000000000000001111110000000000111111111000000000000000000000000000000
00000000000000000000000001110000000000000000001111111111110000111000000011111111100000000000000000111111110000000000000001111110000000000000000011111100000000000111110000000000000000000000000000000000
00000000000000000000000001111000000000000000010011111111100000111000000011111111100000000000000000111111100000000000000001111110000000000000000111111100000000001111110000000000000000000000000000000000
00000000000000000000000000111000000000000000011011110000000000011000000011111111110000000000000000111111100000000000000011111110000000000000000111111000000000011111110000000000000000000000000000000000
00000000000000000000000000000000000000000000111111110000000000011111110111111110110000000000000001111111000000000000000111111100000000000000001111110000000000111111110000000000000000000000000000000000
00000000000000000000000000000000000000000011111111111110000000111111111111111110110000000000000001110111000000000000001111111000000000000000001100000000001111111111110000000000000000000000000000000000
00000000000000000000000000000000000000001111111111111110000000111111111111111111110000000000000001110111110000000000011111110000000000000000000000000000111111111111110000000000000000000000000000000000
00000000000000000000000111000000001000011111111111111111000000111111111111111111110000000000000000111111111000000000111111110000000000000000100010000111110111111111111000000000000000000000000000000000
00000000000000000000000111000000011111111111111111111111000000111111111111111111111110000000000000111111111100000011111111100000000000000001111111011111110111111111111000000000000000000000000000000000
00000000000000000000000000000000011110111111111111111000000000010011111101111101111111100000000000111111111111111111111000100000000000000011111111111111111111111111111000000000000000000000000000000000
00000000000000000000000000000000011110111111111111110000000000000001111000111001111111111110000000011111111111111111111000100000000000000011111111111111111111111111100000000000000000000000000000000000
00000000000000000000000000111000001111111111111111100000000000000000000111000111111111111110000000001111111111111111100000000000000000000111011111111111111110111000000000000000000000000000000000000000
00000000000000000000000000110000000111111111111111100000000000000000000011000111111111111111000000000011111111111000000000000000000000001111001111111111111100010000000000000000000000000000000000000000
00000000000000000000001110000000000111111111111110000000000000000000000000001111101111111111000000000001111000000000000000000000000000001111110011111111111100000000001000000000010000000000000000000000
00000000000000000000001110000000011111110001111000000000000000000000000000000111001111111110000000000000000000000000000000000000000000001111111011111111111000000000001000000001110000000000000000000000
00000000000000000000000000000000111111000000000000000000000000000000000000000000111111111111000000000000000000000000000000000000000000000011111111111111110000000000000000000000000000000000000000000000
00000000000000000000000000000000111110000000000000000000000000000000000111000000001111111111110000000000000000000000000000000000000000000011111111110000000000000000000000000000000000000000000000000000
00000000000000000000000000000001111100000000000000000000000000000000000111000000000001001111110000000000000000000000000000000000000111000111111111100000000000000000000000000000000000000000000000000000
00000000000000000000000000000000011100000000000000000000000000000000000000000000000000000111100000000000000000000000000000000000000111000111111000000000000000000000000000000000000000000000000000000000
00000000000000000000000000000000001000000000000000000000000000000000000000000000000000001111000000000000000000000000000000000000000000000111110000000000000000000000000000000000000000000000000000000000
00000000000000000000000000000000000000000000000000000000000000000000000000000000000000000010000000000000000000000000000000000000000000000000000000000000000000000000000000000000000000000000000000000000
00000000000000000000000000000000000000000000000000000000000000000000000000000000000000000000000000000000000000000000000000000000000000000000000000000000000000000000000000000000000000000000000000000000
00000000000000000000000000000000000000000000000000000000000000000000000000000000000000000000000000000000000000000000000000000000000000000000000000000000000000000000000000000000000000000000000000000000
00000000000000000000000000000000000000000000000000000000000000000000000000000000000000000000000000000000000000000000000000000000000000000000000000000000000000000000000000000000000000000000000000000000
00000000000000000000000000000000000000000000000000000000000000000000000000000000000000000000000000000000000000000000000000000000000000000000000000000000000000000000000000000000000000000000000000000000
