P1
200 70
00000000000000000000000000000000000000000000000000000000000000000000000000000000000000000000000000000000000000000000000000000000000000000000000000000000000000000000000000000000000000000000000000000000
00000000000000000000000000000000000000000000000000000000000000000000000000000000000000000000000000000000000000000000000000000000000000000000000000000000000000000000000000000000000000000000000000000000
00000000000000000000000000000000000000000000000000000000000000000000000000000000000000000000000000000000000000000000000000000000000000000000000000000000000000000000000000000000000000000000000000000000
00000000000000000000000000000000000000000000000000000000000000000000000000000000000000000000000000000000000000000000000000000000000000000000000000000000000000000000000000000000000000000000000000000000
00000000000000000000000000000000000000000000000000000000000000000000000000000000000000000000000000000000000000000000000000000000000000000000000000000000000000000000000000000000000000000000000000000000
00000000000000000000000000000000000000000000000000000000000000000000000000000000000000000000000000000000000000000000000000000000000000000000000000000000000000000000000000000000000000000000000000000000
00000000000000000000000000000000000000000000000000000000000000000000000000000000000000000000000000000000000000000000000000000000000000000000000000000000000000000000000000000000000000000000000000000000
00000000000000000000000000000000000000000000000000000000000000000000000000000000000000000000000000000000000000000000000000000000000000000000000000000000000000000000000000000000000000000000000000000000
00000000000000000000000000000000000000000000000000000000000000000011100000000000000000000000000000000000000000000000000000000000000000000000000000000000000000000000000000000000000000000000000000000000
00000000000000000000000000000000000000000000000000000000000000000011100000000000000000000000000000000000011100000000000000000000000000000000000000000000000000000000000000000000000000000000000000000000
00000000000000000000000000000000000000000000000000000000000000000000000000000000000000000000000000000000011100000000000000000000000000000000000000000000000000000000000000000000111000000000000000000000
00000000000000000000000000000000000000000000000000000000000000000000000000000000000000000000000000000000000000000000000000000000000000000000000000000000000000000000000000000000111000000000000000000000
00000000000000000000000000000000000000000000000001100000000000000000000000000000000000000000000000000000000000000000000000000000000000011100000000000000000000000000000000000000000000000000000000000000
00000000000000000000000000000000000000000000000001100000000000000000000000000000000000000000000000000000000000000000000000000000000000011100000000000000000000000000000000000000000000000000000000000000
00000000000000000000000000000000000000000000000000100000000000000000000000011111111100000000000000000000000000000000000000000000000000000000111000000000000000000000000000000000000000000000000000000000
00000000000000000000000000000000000000000000000001111011000000000000000000011111111111100000000000000011000000010000000000000000000000000000100001111000000000000000000000000000000000000000000000000000
00000000000000000000000000000000011100000000100111111111111000000000000000011111111111110000000000000111111000000000000000000000000000000000000011111100000000000000000000000000000000000000000000000000
00000000000000000000000000000000000100000011111111111111111110000000000000011111111111110000000000000111111111000000000000000000000000000000001111111110011111110000000000000000000000000000000000000000
00000000000000000000000000000000000000001111111111111111111111000000000000011111111111110000000000000111011111111000000000000000000000000000011111111111111111111100000000011100000000000000000000000000
00000000000000000000000000000000000000011111111111111111111111100000000000011001111111110000000000000111011111111111000000000000000000000000111111111111111111111100000000011100000000000000000000000000
00000000000000000000000000000000000000011111111100000001111111110000011100000000111111110000000000000011111111111111111000000000000000000111111111111111111111001110000000000000000000000000000000000000
00000000000000000000000000000000000000100001110000000000111111111000011100000101111111110000000000000011111111111111111111110000000000000111111111111111110000001111110000000000000000000000000000000000
00000000000000000000000000000000000001110000100000000000011111111000000000000000111111111000000000000011111111111111111111111000000000000001100111111111100000011111100000000000000000000000000000000000
00000000000000000000000000000000000011111111000000000000001111111000000000000000111111111000000000000011111111111111111111100000011000000000100111111111100000001111000110000000000000000000000000000000
00000000000000000000000000000000000011111111000001110000001111111100000000000000111111111000000000000001111111111111111110000000011111110000001111111111100000001111101111000000000000000000000000000000
00000000000000000000000000000000000011111110000001110000000111111100000000000000111111111000000000000000011111111111011110011000100111111000011111111111100000000111111111100011100000000000000000000000
00000000000000000000000000000000000011111100000000000000000111111000000000000000111111110000000000000000000000011110011111111111110111100000111111111111100000000111111111110011100000000000000000000000
00000000000000000000000000000000000011111100000000000000000111110000000000000000111111110000000000000000000000000111111111111111111111100000111111110111100000000111111111111100000000000000000000000000
00000000000000000000000000000000000011111110000000000000000111111000000000000000111110110000000000000000000000000000011111111111111111111000111111110111100000000011111110111100000000000000000000000000
00000000000000000000000000000000000011111110000000000000000011111100000000000001111110110000000000000000000000000000001111111111111111111000011111111111100000000011111100011000000000000000000000000000
00000000000000000000000000000000000001111100000000000000000111111110000000000001111111110000000000000000000000000000000000011111111111111000000011111111100000000000111100011000000000000000000000000000
00000000000000000000000000000000000001111100000000000000001111111110000000000001111111110000000000000000000000000000000000111111101111111000000011111111100000000000011110111000000000000000000000000000
00000000000000000000000000000000000011111100000000000000011111111100000000000001111111110000000000000000000000000111111111111111101111110000001111111111110000000000111111111100000000000000000000000000
00000000000000000000000000000000000011111100000000000000111111111000000000000001111111110000000000000000001111111111111111111111111111111000011111110111110000000001111111111100000000000000000000000000
00000000000000000000000000000000000011111110000000000000111111111000000000000001111111110000000000001100011111111111111111111111111111111111111111110111110000000001111111111100000000000000000000000000
00000000000000000000000000001110000111111110000000000001000111111000000000000001111111110000011111111110111111111111111111111111111111111111111111111111110000000000000011111110000000000000000000000000
00000000000000000000000000000010000011111110000000000001100001111000000000000001111111111111111111111111111000000000000111111111111111111111111111111111110000000000000011111110000000000000000000000000
00000000000000000000000000000000000011111111000000110011110000110000000000000011100001111111111111111000000000000000000111111111111110000000111111111111110000000110001111111110000000000000000000000000
00000000000000000000000000000000000011111111111111111111111100010000000001111111100001111111110000000000000000000000000111111111111100000000000111111111111000000110000111111100000000000000000000000000
00000000000000000000000000000000000001111111111111110000000111110000001111111111111111111000000000000000000000000000001111111111111100000000000011110011111100000000001111111100000000000000000000000000
00000000000000000000000000000000000000111111111111110000001111111000011111111111111111110000000000000000000000000000001111111110001000000000000001110000111110000001111111111000000000000000000000000000
00000000000000000000000000000000000000011111111111111000111111111111111111000011110111110000000000000000000000000000011111011100000000000000000001111100111111000001111111111100000000000000000000000000
00000000000000000000000000000000000000011111111111111111111111111111100000000011110011110000000000000000000000000000111111011100100000000000000000111111111111110001111111111100000000000000000000000000
00000000000000000000000000000000000000111111111111111111111111000111100000000001111001110000000000000000000000000000111111111111100000000000000000011111111111111111111110111110000000000000000000000000
00000000000000000000000000000000000111111111111111111111111000000011100111000001111101110000000000000000000000000001111111111111100000000000000000011111111111111011111110111110000000000000000000000000
00000000000000000000000000000000001111111111111000000001110000000000001111111011111111100000000000000000000000000001111111111111000000000000000000001111111111111011111111111100000000000000000000000000
00000000000000000000000000000000100111110000000000000000001100000000001111111111111111100000000000000000000000000011111111111110000000000000000000000111111111111111111111110000000000000000000000000000
00000000000000000000000000000000000010000000000000000010001100000000011111111111111111100000000000000000000000000011111111111110000000000000000000001111111111111111110011110000000000000000000000000000
00000000000000000000000000000000000000000000000000000111000000000000011111111111111111110000000000000000000000000111111111111100000000000000000000001111111111111111110001111100000000000000000000000000
00000000000000000000000000000000000000000000000000001111000000000000011111111111111111110000000000000000000000000001111111111100000000000000000000000000001111111111111001111100000000000000000000000000
00000000000000000000000000000000011100000000000000000011100000000000011111111111111111111100000000000000000000000001111111111000000000000000000000000000000000011000111111111100000000000000000000000000
00000000000000000000000000000011111100000000000001100000000000000000001111111111111111111111000000000000000000001111111111111000000000000001110000111000000000000000011111111100000000000000000000000000
00000000000000000000000000000011100000000000000011111000000000000000000000111111101111111111111000000000000000011111111111110000000000000001110000111000000000000000011111111100000000000000000000000000
00000000000000000000000000000000000000000000001111100100000000000000000000011111001111111111111100000000011111111111111111110000000000000000000000000000000000000000011111111100000000000000000000000000
00000000000000000000000000000000000000000001111111100000000000000000000000000000111111111111111100000000000011111111111111100000000000000000000000000000000000000000011111111100000000000000000000000000
00000000000000000000000000000000000000011111001111110001110000000000000000000000011111111111111000000000000001111111111111000000000000000000000000000000000000000000111111111000000000000000000000000000
00000000000000000000000000000000000001111111101111100001110000000000000000000000000010011111111000000000000000111111111111000000000000000000000000000011100000000000111111111000000000000000000000000000
00000000000000000000000000000000000001111111111111000000000000000000000000000000000000001111111110000000000000011111111111000000000000000000000000000111100000000000111111110000000000000000000000000000
00000000000000000000000000000000000000011111111110000000000000000000000000000000000000001111111110000000000000011111111110000000000000000000000000000011100000000000111111100000000000000000000000000000
00000000000000000000000000000000000010011111111000000000000000001110000000000000000000000000011000000000000000111111111110000000000000000000000000000011110000000000111111100000000000000000000000000000
00000000000000000000000000000000000011111111110000000000000000001110000000000000000000000000000000000000000000011111111100000000000000000000000000000011110000000001111111100000000000000000000000000000
00000000000000000000000000000000000011111110000000000000000000000000000000000000000000000000000000000000000000000000000000000000000000000000000000000011100000000011111111000000000000000000000000000000
00000000000000000000000000000000000001111000000000000000000000000000000000000000000000000000000000000000000000000000000000000000000000000000000000000001101110000111111111000000000000000000000000000000
00000000000000000000000000000000000000000000000000000000000000000000000000000000000000000000000000000000000000000000000000000000000000000000000000000001111111111111111110000000000000000000000000000000
00000000000000000000000000000000000000000000000000000000000000000000000000000000000000000000000000000000000000000000000000000000000000000000000000000001111111111111111100000000000000000000000000000000
00000000000000000000000000000000000000000000000000000000000000000000000000000000000000000000000000000000000000000000000000000000000000000000000000000001111111111111111000000000000000000000000000000000
00000000000000000000000000000000000000000000000000000000000000000000000000000000000000000000000000000000000000000000000000000000000000000000000000000000001111111111100000000000000000000000000000000000
00000000000000000000000000000000000000000000000000000000000000000000000000000000000000000000000000000000000000000000000000000000000000000000000000000000000000000000000000000000000000000000000000000000
00000000000000000000000000000000000000000000000000000000000000000000000000000000000000000000000000000000000000000000000000000000000000000000000000000000000000000000000000000000000000000000000000000000
00000000000000000000000000000000000000000000000000000000000000000000000000000000000000000000000000000000000000000000000000000000000000000000000000000000000000000000000000000000000000000000000000000000
