P1
200 70
00000000000000000000000000000000000000000000000000000000000000000000000000000000000000000000000000000000000000000000000000000000000000000000000000000000000000000000000000000000000000000000000000000000
00000000000000000000000000000000000000000000000000000000000000000000000000000000000000000000000000000000000000000000000000000000000000000000000000000000000000000000000000000000000000000000000000000000
00000000000000000000000000000000000000000000000000000000000000000000000000000000000000000000000000000000000000000000000000000000000000000000000000000000000000000000000000000000000000000000000000000000
00000000000000000000000000000000000000000000000000000000000000000000000000000000000000000000000000000000000000000000000000000000000000000000000000000000000000000000000000000000000000000000000000000000
00000000000000000000000000000000000000000000000000000000000000000000000000000000000000000000000000000000000000000000000000000000000000000000000000000000000000000000000000000000000000000000000000000000
00000000000000000000000000000000000000000000000000000000000000000000000000000000000000000000000000000000000000000000000000000000000000000000000000000000000000000000000000000000000000000000000000000000
00000000000000000000000000000000000000000000000000000000000000000000000000000000000000000000000000000000000000000000000000000000000000000000000000000000000000000000000000000000000000000000000000000000
00000000000000000000000000000000000000000000000000000000000000000000000000000000000000000000000000000000000000000000000000000000000000000000000000000000000000000000000000000000000000000000000000000000
00000000000000000000000000000000000000000000000000000000000000000001110000000000000000000000000000000000000000000000000000000000000000000000000000000000000000000000000000000000000000000000000000000000
00000000000000000000000000000000000000000000000000000000000000000001110000000000000000000000000000000000000000000000000000000000000000000000000000000000000000000000000000000000000111000000000000000000
00000000000000000000000000000000000000000000000000000000000000000000000000000000000000000000000000000000000000000000000000000000000000000000000000000000000000000000001110000000000111000000000000000000
00000000000000000000000000000000000000000000000000000000000000000000000000000000000000000000000000000001110000000000000000000000000000000000000000000000000000000000001110000000000000000000000000000000
00000000000000000000000000000000000000000000000000000000000000000000000000000000000000000000000000000001110000000000000000000000000000000000000000000000000000000000000000000000000000000000000000000000
00000000000000000000000000000000000000000000000000000000000000000000000000000000000000000000000000000000110000000000000000000000000000000000000000000000000000000000000000000000000000000000000000000000
00000000000000000000000000000000011100000000000000000000000000000000000000000000000000000000000000000000110000000000000000000000000000000000000000000000000011111100000000000000000000000000000000000000
00000000000000000000000000000000011110000000000000000000000000000000000000000000000000000000000000000000000000000000000000000000000000000000000000000000000111111110000000000000000000000000000000000000
00000000000000000000000000000000000111000000000000000000000000000000000000000000000000000000000000000000000000000000000000111000000000000000000000000011100000111110000000000000000000000000000000000000
00000000000000000000000000000000000000000000000000000000000000000000000000000000000000000000000000000000000000000000000000111111111000000000000000000111110000111000000000000000000000000000000000000000
00000000000000000000000000000000000000000000001110000000000000000000000000000000110000000000000000000000000000000000000000011111111100000000000000001111111111111000000000000000000000000000000000000000
00000000000000000000000000000000000000000000001110000000000000000000000000111111111100000000000000000000000000000000000000111111111100000000000000111111110011111111000000000000000000000000000000000000
00000000000000000000000000000000000000011100011110000000000000000000000011111111111111000000000000000000000000000000000001111111111100000000000001111110000000011111000000000000000000000000000000000000
00000000000000000000000000000000000001111100011110000000000000000000000000111101111111111100000000000000000000000000000011111111111000000000000111111100000000001111000000000000000000000000000000000000
00000000000000000000000000000000000111110000011111000000000000000000100000111101111111111110000000000000000000000000000111111111111000000000001111111000000000001111000000000000000000000000000000000000
00000000000000000000000000000000001111100011100111100000000000001111111111111111111111111111000000000000000000000000011111111111110000000001111111111100000000000000000000000000000000000000000000000000
00000000000000000000000000000000011111110001100011100000000000000111111111111111111111111110000000000000000000000000111111111111110000111001111111111000000000000000000000000000000000000000000000000000
00000000000000000000000000000000011111110001000111110000000001000111111111000000011111111110000000000000000000000001111111111111100000111000111111111000000000000000000000000000000000000000000000000000
00000000000000000000000000000000001111110000001111110000000100010011111000000000001111111110000000000000000000000111111111111111100000000000011111111000000000000000010000000000000000000000000000000000
00000000000000000000000000000000000111100000111111110000000110111001000000000011100111111110000000001000000000001111111111111111100000000000011110111000111000000000111000000000000111000000000000000000
00000000000000000000000000000001110001000000111111110000000111111000000000000011100011111111011111111111111111111111111011111111100000000111111110111100111000000111111000000000000111000000000000000000
00000000000000000000000000000011111000000000010011111000000111111000000000000001100111111111111111111111111111111101110001111111000000000111111111111100000111111111111100000000000000000000000000000000
00000000000000000000000000000011111110000000000001111000000111100000000000000001111111111111111111111111111111111101111001111111000000000000011111111100001111111111111000000000000000000000000000000000
00000000000000000000000000000111111110000000000000111000000110000000000000001111111111111111110000000000011111111111111111111111000000000000011111111111111111111111111000000000000000000000000000000000
00000000000000000000000000000111111110000000000000111000000000000000000010001111111111111100000000000000001111111100011111111111111111000000111111111111111111111111111100000000000000000000000000000000
00000000000000000000000000000111111110000000111111111000000000000000111111100011111111111000000000000000001111110000001111111111111111100011111111111111111111111111111110000000000000000000000000000000
00000000000000000000000000000111111110000000011111100000000000000001111111100000011111110000000000000000011111100000000111110011111111111111111111111111111111111111111111000000000000000000000000000000
00000000000000000000000000000111111100000000001111100000000000000111111111000000111111110000000000000001111111000000001111110000000001111111111111111111110000011111111111000000000000000000000000000000
00000000000000000000000000000111111110000001001111111000000000011111111100000000111111100000000000000011111110000000011111111000000000000000111111111111100000001111111111100000000000000000000000000000
00000000000000000000000000000111111110000111111111111000000001111111100000000001111011100000000000000001111100000000011111111000000000000000011111111111100000000111111111000000000000000000000000000000
00000000000000000000000000000111111111111111111111111000000111110010000000000011110000000000000000000001110000000000011111000000000000000000001111111111110000000111111111000000000000000000000000000000
00000000000000000000000000000111111111111111111111111000011111100000000000000111111000000000000001000001100000000000011111000000000000000000001111111111110000000111111111100100000000000000000000000000
00000000000000000000000000000111111111111111111111110011111111100000000000001111111000000000000011100110000000000000111111110000000000000000001111111111110000000011111111111100000000000000000000000000
00000000000000000000000000000111111111111111111111110111111110000000000000001111111000000000000111110000000000000000111111110000000000000000000111111111110000000001111111111100000000000000000000000000
00000000000000000000000000000111111111111111011111111111111000000000000000000111110000000000000111111001000000000000111111100000000000000000000011111111111000000001111111111100000000000000000000000000
00000000000000000000000000000000111111111110011111011111000000000000000001100011100000000000000111111111110000000001111111000000000000000000000001111111111000000001101111111100000000000000000000000000
00000000000000000000000000000000011111111000111110011100000000000000000011110000000000000000000011111111111110000001111111000000000000000000000001111100000000000001001111111100000000000000000000000000
00000000000000000000000000000000111111100001111100111000000000000000000111111000000000000000000011111111111111000111111111000000000000000000000000111000000000000000111111111100000000000000000000000000
00000000000000000000000000000000000000000011111101110000000000000000001111111000000000000000000011100011111111101111111111011100000000000000000000110001111100000000111111111110000000000000000000000000
00000000000000000000000000000000000000001111111111110000000000000000011111111000000000000000000000000000001111111111111111111100000000000000000000001111111100000000011111111110000000000000000000000000
00000000000000000000000000000000000000111111111111110000000000000001100111100000000000000000000000000000000111111111111111111000000000000000000000001111111110000010001111111110000000000000000000000000
00000000000000000000000000000000011111111111111111100000000000000011110111000000000000000000000000000000000011001111111111111000000000000000000000000111111111110010011111111100000000000000000000000000
00000000000000000000000000000000111111111110001111100000000000000111111110000000000000000000000000000000000000000111110111111111000000000000000000000011111110110000111111111100000000000000000000000000
00000000000000000000000000000001111111111100001111110000000000001111111100000000000000000000000000000111000000000011110011111111100000000000000000000001111110111001111110011110000000000000000000000000
00000000000000000000000000001111111111111100011111110000000000001111111000000000000000111000000000000111000000000111111111111111000000000000000000000000011111111111111000011100000000000000000000000000
00000000000000000000000000001111111111111110111100000000000000011111100000000000000001111000000000000000000000001111111100111111000001110000000000000000001111111111111001111000000000000000000000000000
00000000000000000000000000001111111111111111111000000000000001111111000000000000001111110000000000000000000000001111111000000011000001110000000000000000000011111111111111111000000000000000000000000000
00000000000000000000000000000111111111111111100000000000000001111111000000000000001110000000000000000000111100011111111000000000000000000000000000000000000011111111111111100000000000000000000000000000
00000000000000000000000000000011111111111110000000000000000011111100000000000000000000000000000000000000111111111111110000000000000000000000000000000000000011100000000000000000000000000000000000000000
00000000000000000000000000000100111111111100000000000000000111111000000000000000000000000000000000000001111111111111110000000000000001110000011100000000000000000000000000000000000000000000000000000000
00000000000000000000000000000100010001100000011000000000000111110000000000000011000000000011100000000000011111100111110000000000000001110000010000000000000000000000000000000000000000000000000000000000
00000000000000000000000000000000000000000000011000000000001111111000011111111111111000000011100000000000000111000011110000000000000000000000000000000000000000000000000000000000000000000000000000000000
00000000000000000000000000000000000000000000000000000011111111111111111111111111111000000000000000000000000000000111111000000000000000000000000000000000000000000000000000000000000000000000000000000000
00000000000000000000000000000000000000000000000000000011111111111111111111111111110000000000000000000000000000000111111100000000000000000000111000000000000000000000000000000000000000000000000000000000
00000000000000000000000000000000000000000000000000000011110111111111111111111111110000000000000000000000000000000011111110000000000000000000111000000000000000000000000000000000000000000000000000000000
00000000000000000000000000000000000000000000000000000011110111111111111111111111110000000000000000000000000000000001111111100000000000000000000000000000000000000000000000000000000000000000000000000000
00000000000000000000000000000000000000000000000000000011111111111111111111111100000000000000000000000000000000000000001111100000000000000000000000000000000000000000000000000000000000000000000000000000
00000000000000000000000000000000000000000000000000000011101111000011000000000000000000000000000000000000000000000000000111100000000000000000000000000000000000000000000000000000000000000000000000000000
00000000000000000000000000000000000000000000000000000000000000000000000000000000000000000000000000000000000000000000000000000000000000000000000000000000000000000000000000000000000000000000000000000000
00000000000000000000000000000000000000000000000000000000000000000000000000000000000000000000000000000000000000000000000000000000000000000000000000000000000000000000000000000000000000000000000000000000
00000000000000000000000000000000000000000000000000000000000000000000000000000000000000000000000000000000000000000000000000000000000000000000000000000000000000000000000000000000000000000000000000000000
00000000000000000000000000000000000000000000000000000000000000000000000000000000000000000000000000000000000000000000000000000000000000000000000000000000000000000000000000000000000000000000000000000000
