P1
200 70
00000000000000000000000000000000000000000000000000000000000000000000000000000000000000000000000000000000000000000000000000000000000000000000000000000000000000000000000000000000000000000000000000000000
00000000000000000000000000000000000000000000000000000000000000000000000000000000000000000000000000000000000000000000000000000000000000000000000000000000000000000000000000000000000000000000000000000000
00000000000000000000000000000000000000000000000000000000000000000000000000000000000000000000000000000000000000000000000000000000000000000000000000000000000000000000000000000000000000000000000000000000
00000000000000000000000000000000000000000000000000000000000000000000000000000000000000000000000000000000000000000000000000000000000000000000000000000000000000000000000000000000000000000000000000000000
00000000000000000000000000000000000000000000000000000000000000000000000000000000000000000000000000000000000000000000000000000000000000000000000000000000000000000000000000000000000000000000000000000000
00000000000000000000000000000000000000000000000000000000000000000000000000000000000000000000000000000000000000000000000000000000000000000000000000000000000000000000000000000000000000000000000000000000
00000000000000000000000000000000000000000000000000000000000000000000000000000000000000000000000000000000000000000000000000000000000000000000000000000000000000000000000000000000000000000000000000000000
00000000000000000000000000000000000000000000000000000000000000000000000000000000000000000000000000000000000000000000000000000000000011111000000000000000000000000000000000000000000000000000000000000000
00000000000000000000000000000000000000000000000000000000000000000000000000000000000000000000000000000000000000000000000000000000000011111000000000000000000000000000000000000000000000000000000000000000
00000000000000000000000000000000000000000000000000000000000000000000000000000000000000000000000000000000000000000000000000000000000000000000000000000000000000000000000000111000000000000000000000000000
00000000000000000000000000000000000000000000000000000000000000000000000000000000000000000000000000000000000000000000000000000000000000000000000000000000000000000000000000111000000000000000000000000000
00000000000000000000000000000000000000000000000000000000000000000000000000000000000000000000000001110000000000000000011000000000000000000000000000000000000000000000000000000000000000000000000000000000
00000000000000000000000000000000000000000000000000000000000000000000000000000000000000000000000001110000000000000111111111100000000000000000000000000000000000000000000000000000000000000000000000000000
00000000000000000000000000000000000000000000000000000000000000000000000000000000000000000000000000000000000000000111111111111000000000000000000000011111000000000000000000000000000000000000000000000000
00000000000000000000000000000000000000000000000000000000000000000000000000000000000000000000000000000000000000001111001111111100000000000000000011111111100100000000000000000000000000000000000000000000
00000000000000000000000000000000000000000000000000000000000000000000000000000000000000000000000000000000000000001110000001111100000000000000000111111111111110000000000000000000000000000000000000000000
00000000000000000000000000000000000000000000000000000000000000000000000000000000000000000000000000000000000000000000000001111110000000000001111111111111111111000000000000000000000000000000000000000000
00000000000000000000000000000000000000000000000000000000000000000000000000110111110000000000000000000000000000000000000000111111000000000011111111110111111111100000000000000000000000000000000000000000
00000000000000000000000000000000000000000000000000011100000000000000000001111111111110000000000000000000000000000000000000111111000000000111101111100011111111100000000000000000000000000000000000000000
00000000000000000000000000000000000000000000000011111110000000000000000011111111111111110000000000000000000000000000000000111111000000001111100111100111111110000000000000000000000000000000000000000000
00000000000000000000000000000000000000000000001111111111100000000000000011111111111111110000000000000000000000000000000000111111000000011111111100000011111110000000000000000111000000000000000000000000
00000000000000000000000000000000000000000000011111111111110000000000000111111111111111100110000000000000000000000000000000111111000000111111111000000000001111100000000000000111000000000000000000000000
00000000000000000000000000000000000000000000111111111101110000000000000111111111111111000111000000000000000000000000000000111111000001111111110000000000000111111000000000000000000000000000000000000000
00000000000000000000000000000000000000000000011111000001110000000000000000011111111111101111000000000000000000000000000000110000000001111111100000000000001111111000000000000000000000000000000000000000
00000000000000000000000000000000000000001110001100000011111000000000000000000000011111111111100000000000000000000000000001100000000001111111000000000000011111111000000000000000000000000000000000000000
00000000000000000000000000000000011000011100011100000011111100000000000000000000000111111111111111111111111000111000000011110000000011111111000000000000011111111000000000000000000000000000000000000000
00000000000000000000000000000000111100111100111111110001111111111111111000111111100111111111111111111111111111111111000111111100000111111110000000000000011111111000000000000000000000000000000000000000
00000000000000000000000000000011111111110011111111111011111111111111111111111111111111111111111111111111111111111111100111111100000111111110001100000000011111111000000000000000000000000000000000000000
00000000000000000000000000000000000111100111111111111111111111111111111111111111111111111111111111111111111111111111110011111111000111111100001110000000011111111000000000000000000000000000000000000000
00000000000000000000000000000000000000001111100000000111111111111111111111111111100011111111110111110000000000001111111001111111100011111100000000000000011111111000000000000000000000000000000000000000
00000000000000000000000000000000000000001111100000000011111110000000000000001111000000111111110011100000000000000011111110111111000111100000000000000000011111111000000000000000000000000000000000000000
00000000000000000000000000000000000000011111000000000001111100000000000000001111110000111111111100000000000000000001111110000010001111100110000000000000011111111000000000000000000000000000000000000000
00000000000000000000000000000000001110011100000000000001111100000000000000011111111111111111111100000111000000000000111100000000000111111111000011111000000111111000000000000000000000000000000000000000
00000000000000000000000000000000001110011100000000000000111100000000000011111111111110011111111000000111000000000000011100000000000111111111111111111000000011111000000000000000000000000000000000000000
00000000000000000000000000000000000000011110000000000000111100000000000011111111111100000111110000000000000000000000011111100000001111111111111111111000000011110000000000000000000000000000000000000000
00000000000000000000000000000000000000011111000000000001111100000000000000011111111110000011100000000000000000000000011111000000001111111000111011111000000111110000000000000000000000000000000000000000
00000000000000000000000000000111000000011111000000000000111100000011100000000011111111111000000000000000000000000000011110000000001111110000011011111100001111110000000000000000000000000000000000000000
00000000000000000000000000000111000000011111100000000001111100000011100000000001111111111100000000000000000000000000001110000000001111110000011111111110011111110000000000000000000000000000000000000000
00000000000000000000000000000000000000011111110000001111111100000000000000000000111111111110000000000000000000000000001111100000001111110000011111111111111111110000000000000000000000000000000000000000
00000000000000000000000000000000000000001111111111111111110010000000000000000000000111111111110000000000000000000000001111100000001111110000011111111111111111110000000000000000000000000000000000000000
00000000000000000000000000000000000000001111111111111111110010000000000000000000000011111111110000000011100000000000001111110000001111111000000100000001111111110000000000000000000000000000000000000000
00000000000000000000000000000000000000000011111111111111111110000000000000000000000000011111110000000011111000000000001111111000001111111000000000000000111111110000000000000000000000000000000000000000
00000000000000000000000000000000000000000001111111111001111110001111000000000000000000011111110000000011111000000000001111111000001111111000000000000000111111110000000000000000000000000000000000000000
00000000000000000000000000000000000000000000111111000001111100011111111110000000000001111111110000000011111100000000001111110000001111111000000000000001111111110000000000000000000000000000000000000000
00000000000000000000000000000000000000000000000000000001111100011111111110000000000001111111110000000011111110000000011111100000001111111000000000000001111111100000000000000000000000000000000000000000
00000000000000000000000000000000000000000111000000000001111100011110111111100000000011111111110000000001111110000000011111000000001111110000000000000001111111110010000000000000000000000000000000000000
00000000000000000000000000000000000000000111000000000001111100001110111111111111001111111111110000000000011111100000111111000000000111111000000000000011111111111000000000000000000000000000000000000000
00000000000000000000000000000000000000000000000000000011110000000111111111111111111111111111110000000000011111110000111110000000000111111100000000000011111111111100100000000000000000000000000000000000
00000000000000000000000000000000000000000000000000000011100000000111111111111111101111111111110000000000011111111011111110000011100001111100000000000111111110011111110000000000000000000000000000000000
00000000000000000000000000000000000000000000000000000011000000000001111111111111101111111111110000000000011111111111111100000011100001111110000000000111111110000100110000000000000000000000000000000000
00000000000000000000000000000000000000000000000000000111100000000000111110111111111111111111110000000111000000111111111000000000000111111110000000001111111100000000111000000000000000000000000000000000
00000000000000000000000000000011100000011100000000001111110000000000000000011111111101111111100000000111000000000111000000000000000111111111000000011111111000000011111100000000000000000000000000000000
00000000000000000000000000000011100000111110000000111111110000000000000000011111111101111110000000000000000000000010000000000000000011111111100000111111110000000001111110000000000000000000000000000000
00000000000000000000000000000000000001111111100011111111100000000000000000000011111111111000000000000000000000000000000000000000000011111111111111111111100000000000111000000000000000000000000000000000
00000000000000000000000000000000011101111111111111111111100000000000000000000001111111000000000000000000000000000000000000000000000001111111111111111111000000000000010000000000000000000000000000000000
00000000000000000000000000000000011100111111111111111110000000000000000000000000001110000000000000000000000000000000000000000000000001111111111111111100000000000000000000000000000000000000000000000000
00000000000000000000000000000000000000011111111111111100000000000000000000000000000000000000000000000000000001000000000000000000000000111111111111111100000000000000000000000000000000000000000000000000
00000000000000000000000000011100000000001111111111110000000000000000000000000000000000000000000000000000000001000000000000000000000000110011111111100000000000000000000000000000000000000000000000000000
00000000000000000000000000011100000000011100001110000000000000000000000000000000000000000000000000000000000000000000000000000000000000000001111110000000000000000000000000000000000000000000000000000000
00000000000000000000000000000000000000011100000000000000000000000000000000000000000000000000000000000000000000000000000000000000000000000001111000000000000000000000000000000000000000000000000000000000
00000000000000000000000000000000000000000000000000000000000000000000000000000000000000000000000000000000000000000000000000000000000000000000000000000000000000000000000000000000000000000000000000000000
00000000000000000000000000000000000000000000000000000000000000000000000000000000000000000000000000000000000000000000000000000000000000000000000000000000000000000000000000000000000000000000000000000000
00000000000000000000000000000000000000000000000000000000000000000000000000000000000000000000000000000000000000000000000000000000000000000000000000000000000000000000000000000000000000000000000000000000
00000000000000000000000000000000000000000000000000000000000000000000000000000000000000000000000000000000000000000000000000000000000000000000000000000000000000000000000000000000000000000000000000000000
00000000000000000000000000000000000000000000000000000000000000000000000000000000000000000000000000000000000000000000000000000000000000000000000000000000000000000000000000000000000000000000000000000000
00000000000000000000000000000000000000000000000000000000000000000000000000000000000000000000000000000000000000000000000000000000000000000000000000000000000000000000000000000000000000000000000000000000
00000000000000000000000000000000000000000000000000000000000000000000000000000000000000000000000000000000000000000000000000000000000000000000000000000000000000000000000000000000000000000000000000000000
00000000000000000000000000000000000000000000000000000000000000000000000000000000000000000000000000000000000000000000000000000000000000000000000000000000000000000000000000000000000000000000000000000000
00000000000000000000000000000000000000000000000000000000000000000000000000000000000000000000000000000000000000000000000000000000000000000000000000000000000000000000000000000000000000000000000000000000
00000000000000000000000000000000000000000000000000000000000000000000000000000000000000000000000000000000000000000000000000000000000000000000000000000000000000000000000000000000000000000000000000000000
