P1
200 70
00000000000000000000000000000000000000000000000000000000000000000000000000000000000000000000000000000000000000000000000000000000000000000000000000000000000000000000000000000000000000000000000000000000
00000000000000000000000000000000000000000000000000000000000000000000000000000000000000000000000000000000000000000000000000000000000000000000000000000000000000000000000000000000000000000000000000000000
00000000000000000000000000000000000000000000000000000000000000000000000000000000000000000000000000000000000000000000000000000000000000000000000000000000000000000000000000000000000000000000000000000000
00000000000000000000000000000000000000000000000000000000000000000000000000000000000000000000000000000000000000000000000000000000000000000000000000000000000000000000000000000000000000000000000000000000
00000000000000000000000000000000000000000000000000000000000000000000000000000000000000000000000000000000000000000000000000000000000000000000000000000000000000000000000000000000000000000000000000000000
00000000000000000000000000000000000000000000000000000000000000000000000000000000000000000000000000000000000000000000000000000000000000000000000000000000000000000000000000000000000000000000000000000000
00000000000000000000000000000000000000000000000000000000000000000000000000000000000000000000000000000000000000000000000000000000000000000000000000000000000000000000000000000000000000000000000000000000
00000000000000000000000000000000000000000000000000000000000000000000000000000000000000000000000000000000000000000000000000000000000000000000000000000000000000000000000000000000000000000000000000000000
00000000000000000000000000000000000000000000000000000000000000000000000000000000000000000000000000000000000000000000000000000000000000000000000000000000000000000000000000000000000000000000000000000000
00000000000000000000000000000000000000000000000000000000000000000000000000000111111000000000000000000000000000000000000000000000000000000000000000000000000000000000000000000000000000000000000000000000
00000000000000000000000000000011100000000000000000000000000000000000000001111111111111000000000000001100000000000000000000000000000011100000000000000000000000000000000000000000000000000000000000000000
00000000000000000000000000000000000000000000000000000000000000000000000111111111111111100000000000011100000000000000000000000000000011100000000000000000000000000000000000000000000000000000000000000000
00000000000000000000000000000000000000000000000000000000000000000000000111111111111111110000000000000000000000000000000000000000000000000000000000000000000000000000000000000000000000000000000000000000
00000000000000000000000000000000000000000000000000000000000000000000000011111111111111111111100000000000000000000000000000000000000000000000000000000000000000000000000000000000000000000000000000000000
00000000000000000000000000000000000000000000000000000000000000000000000011111111111111111111100000000000000000000000000000000000000000000000000000000000000111111100000000000000000000000000000000000000
00000000000000000000000000000000000000000000000000000000001000000000000111111100001111111110000000000000000000000000000000000000000000000000000000000000111111111100000000000000000000000000000000000000
00000000000000000000000000000000000000000000000000000111111111100000000111100000000011111110000000000000000000000000000100000000000000000000000111000001111111111100000000000000000000000000000000000000
00000000000000000000000000000000000000011100000000001111111111110000000111000000000001111110000000000000000000000000011110000000000000000000000111000000111111111111000000000000000000000000000000000000
00000000000000000000000000000000000000011100000001111111111111111000000000000000000001111110000000000000000000011111111110000000000000000000000000111110111111111111100000000000000000000000000000000000
00000000000000000000000000000000000000000000000011111110111011111000000001111111000111111000000000000000000001111111111110000000000000000000000011111111111111111111100000000000000000000000000000000000
00000000000000000000000000000000000000000000000011111110111011111000111111111111111111111001111000000110000111111111111111000000000000000000000111111111111110111111100000000000000000000000000000000000
00000000000000000000000000000000000000000000000111111111111111100111111111111111111111111111111100001111111111111111111111000000000000000000000111111111111100111111000000000000000000000000000000000000
00000000000000000000000000000000000000000000011111111111111111101111111111111111111111111111111110000111111111111111111110000000000000000000000111111111100011111111000000000000000000000000000000000000
00000000000000000000000000000000000000000000011111111111111111111111000000000000000000111111111111001111111111111111111000000000000000000000100111111111000001111111000000000000000000000000000000000000
00000000000000000000000000000000000000000000001111111111111111111111000000000000000000011111000001111111111111111000000000000000000000000001111111100110000001111111000000000000000000000000000000000000
00000000000000000000000000000000000000111000001111111111111111101111000000000000000000111111000000001111111110000000000000000000000000000001111111001110000001111110000000000000000000000000000000000000
00000000000000000000000000000000000000111000001101111111100011101111100000000000000001111110000000000111111000000000000000000000000000000011111110001110000001111100000000000000000000000000000000000000
00000000000000000000000000000000000000000000011101111100000011111111100000000000000001111111000000000111110001111000000000000000000000000111111100000000000000011110000000000000000000000000000000000000
00000000000000000000000000000000000000000011111111110000000001111111100000000000000011111111110000000111111111111110000000000000000000000111111000000000000000001111110000000000000000000000000000000000
00000000000000000000000000000000000000000111111111000000000001111111000000000000000111111111110000000111110111111100111000000000000000000111110001000000000000001111110000000000000000000000000000000000
00000000000000000000000000000000000000001111111110000000000001111111000000001111100011111000000000000011110011111101111100100000000000001111110001000000000000011100000000000000000000000000000000000000
00000000000000000000000000000000000000001111111110000000000011111111000000011110000111110000000000000011110111111111111111110000000000011111000000000000000100111100000000000000001110000000000000000000
00000000000000000000000000000000000000011111111100000000000111111111000000011110011111100000000000000011111111111111111111111000000000011111000000000000001111111000000000000000001110000000000000000000
00000000000000000000000000000000000000111111111110000000001111011111000000011111111111110000000000000011111111111111111111111110000000011111000000000000011111110000000000000001110000000000000000000000
00000000000000000000000000000000000001111111111111000000011111011110000000011111111111100000000000000011111111000001111111111111000000111111000000011000011111100000000000000001110000000000000000000000
00000000000000000000000000000000000011111111111111100001111111111110000000000000001111000000000000000000001100000000111111111111111001111110000000011001111100000000000000000000000000000000000000000000
00000000000000000000000000000000000111111111111111111111111111111111000000000000000000011000000000000000000000000000111111111001111111110000000000000111111100000000000000000000000000000000000000000000
00000000000000000000000000000000001111100000011111111111111111111111000000000000000000011111000000000001110000000000011111110000111111110000000000001111111110000000000000000000000000000000000000000000
00000000000000000000011100000000000111000000000111111111111111111110000000000000000000111111100000000000000000000000011111111000001111111111000011111111111110000111000000000000000000000000000000000000
00000000000000000000011100000000001110000000000111111111111111111110000000000000000000011111100000000000000000000000011111111110000001111111111111111111111111000001000000000000000000000000000000000000
00000000000000000000000000000000011100000000001111111111111111111110000111110000000000011111100000000000000000000000011111111111000000011111111111011111111111100000000000000000000000000000000000000000
00000000000000000000000000000000001000000000000111111111111111111100000111110000000000011111100000000000000000000000011111111111000000000011111111011111111111110000001000000000000000000000000000000000
00000000000000000000000000000000000000000000000011111111101111111100000000000000000000001111110000000111000000000000001111111111000000000000111111111111111111111111111000000000000000000000000000000000
00000000000000000000000000000000000000000000000000000100001111111100000000000000000000001111110000000111000000000000001111101111000000000000000001111111111111111111100000000000000000000000000000000000
00000000000000000000000000000000000000000000000000000000001111111100000000000000000000001111110000000000000000000000000111101111000000000000000000111111111111111111000000000000000000000000000000000000
00000000000000000000000000000000000000000000000000000000111101111000000000000000000000001111110000000000000000000000000111111110000000000011100000000000111111111110000000000000000000000000000000000000
00000000000000000000000111000000000000000000000000000000111101111000000000000000000000001111100000000000000000000000001111111100000000000011100000000000011111111110000000000000000000000000000000000000
00000000000000000000000111000000000000000000000000000001111111110000000000000000000000001111100000000000000000000000011111111100000000000000000000000000011111110000000000000000000000000000000000000000
00000000000000000000000000000000000000000000000000000011101111110000000000000000000000011111000000000001111000000000011111111111100000000000000000000000011111100000000000000000000000000000000000000000
00000000000000000000000000000000000000000111000000000111101111100001000000000000000000011111000000000001111000000000011111111011100000000000000000000000011111100000000000000000000000000000000000000000
00000000000000000000000000000000000000001111100001111111111111000001110000000000000000011111110000000001100100000001001111110000000000000000000000000000011111100000000000000000000000000000000000000000
00000000000000000000000000000000000000001111100011110111111110000011111100000011100001111110010000000001101111000111101111100000000000000000000000000000011111000000000000000000000000000000000000000000
00000000000000000000000000000000000000001110011111110111111110000011111111100111111111111110000000000001111111111111111111000000000000000000000111000000011111000000000000000000000000000000000000000000
00000000000000000000000000000000000000001100011111111111111100000001111111111111111111111111100000000001111111111111111100000000000111111000000111000000111111000000000000000000000000000000000000000000
00000000000000000000000000000000000000001000111111111111111000000000111111111111111111111111100000000000111111001110000000000000000111111000000000000000111111000000000000000000000000000000000000000000
00000000000000000000000000000000000000000000111111111111100000000001111011101111111110111111000000000000111110000000000000000000000111001000000000000001111110000000000000000011100000000000000000000000
00000000000000000000000000000000000000000001111111111110000000000000110001101111111110111110000000000000000000000000000000000000000111011100000000000000111110000000000000000011100000000000000000000000
00000000000000000000000000000000000000000000000011110000000000000000000011111111111111111100000000000000000000000000000000000000000111111100000000000001111100000000000000000001100000000000000000000000
00000000000000000000000000000000000000000000000000000000000000000000000000001111111110000000000000000000000000000000000000000000000111111100000000001111111000000000000000000001110000000000000000000000
00000000000000000000000000000000000000000000000000000000000000000000000000000001111000000000000011101110000000000000000000000000000111111110000000001111111000000000000000000001110000000000000000000000
00000000000000000000000000000000000000000000000000000000000000000000000000000000000000000000000000101110000000000000000000000000000011111111111110011111111000000000000000000000000000000000000000000000
00000000000000000000000000000000000000000000000000000000000000000000000000000000000000000111000000000000000000000000000000000000000011111111111111111111110000000000000000000000000000000000000000000000
00000000000000000000000000000000000000000000000000000000000000000000000000000000000000000111000000000000000000000000000000000000000001111111111111111111100000000000000000000000000000000000000000000000
00000000000000000000000000000000000000000000000000000000000000000000000000000000000000000000000000000000000000000000000000000000000000111111111111111110000000000000000000000000000000000000000000000000
00000000000000000000000000000000000000000000000000000000000000000000000000000000000000000000000000000000000000000000000000000000000000011111111111111000000000000000000000000000000000000000000000000000
00000000000000000000000000000000000000000000000000000000000000000000000000000000000000000000000000000000000000000000000000000000000000000011111111100000000000000000000000000000000000000000000000000000
00000000000000000000000000000000000000000000000000000000000000000000000000000000000000000000000000000000000000000000000000000000000000000000110000000000000000000000000000000000000000000000000000000000
00000000000000000000000000000000000000000000000000000000000000000000000000000000000000000000000000000000000000000000000000000000000000000000000000000000000000000000000000000000000000000000000000000000
00000000000000000000000000000000000000000000000000000000000000000000000000000000000000000000000000000000000000000000000000000000000000000000000000000000000000000000000000000000000000000000000000000000
00000000000000000000000000000000000000000000000000000000000000000000000000000000000000000000000000000000000000000000000000000000000000000000000000000000000000000000000000000000000000000000000000000000
