P1
200 70
00000000000000000000000000000000000000000000000000000000000000000000000000000000000000000000000000000000000000000000000000000000000000000000000000000000000000000000000000000000000000000000000000000000
00000000000000000000000000000000000000000000000000000000000000000000000000000000000000000000000000000000000000000000000000000000000000000000000000000000000000000000000000000000000000000000000000000000
00000000000000000000000000000000000000000000000000000000000000000000000000000000000000000000000000000000000000000000000000000000000000000000000000000000000000000000000000000000000000000000000000000000
00000000000000000000000000000000000000000000000000000000000000000000000000000000000000000000000000000000000000000000000000000000000000000000000000000000000000000000000000000000000000000000000000000000
00000000000000000000000000000000000000000000000000000000000000000000000000000000000000000000000000000000000000000000000000000000000000000000000000000000000000000000000000000000000000000000000000000000
00000000000000000000000000000000000000000000000000000000000000000000000000000000000000000000000000000000000000000000000000000000000000000000000000000000000000000000000000000000000000000000000000000000
00000000000000000000000000000000000000000000000000000000000000000000000000000000000000000000000000000000000000110000000000000000000000000000000000000000000000000000000000000000000000000000000000000000
00000000000000000000000000000000000000000000000000000000000000000000000000000000000000000000000000000111111111111000001110000000000000000000000000000000000000000000000000000000000000000000000000000000
00000000000000000000000000000000000000000000000000000000000000000000000000000000000000000000000000011111111111111100001110000000000000000000000000000000000000000000000000000000000000000000000000000000
00000000000000000000000000000000000000000000001110000000000000000000000000000000000000000000000000111111111111111110000000000000000000000000000000000000000000000000000000000000000000000000000000000000
00000000000000000000000000000000000000000000000000000000000000000000000000000000000000000000000001111100001000111111000000000000000000000000000000000000000000000000000000000000000000000000000000000000
00000000000000000000000000000000000000000000000000000000000000000000000000000000000000000000000111111000011100011111000000000000000000000000000000000000000000000000000000000000000000000000000000000000
00000000000000000000000000000000000000000000001000000000000000000000000011011111100000000000000111111000011100000111100000000000000000000111000000000111000000000000000000000000000000000000000000000000
00000000000000000000000000000000000000000000001000000000000000000000000110001111110000000000000111110000000000000011110000000000000000000110000000111111000000000000000001000000000000000000000000000000
00000000000000000000000000000000000000000000000000000000000000000000000111011111110000000000000111100000000000000011110000000111000000000110000011111111000000000000000001000000000000000000000000000000
00000000000000000000000000000001111000000000000000000000000000111100001111111111110000000000001111100000000000000001111000000111000000000011011111111111100000000000000000000000000000000000000000000000
00000000000000000000000000000011111110000000000000000000000000111100011111111111110000000000001111100000000000000000111000000000011100000000111111111111100000000000000000000000000000000000000000000000
00000000000000000000000000000011111111100000000000000000000000000000111111111111110000000000011100000000000000000000111000000000011100000000111111111111100000000000000000000000000000000000000000000000
00000000000000000000000000000011111111111000000000000000000000000001111111111111110000000000011100000000111000000000111100000000000000000000011111101111100000000000000000011000000000000000000000000000
00000000000000000000000000000111111111111110000000000000000000000001111111111111110000000000011110000000111000000000111100000000000000000111011111101111110000000000000000011100000000000000000000000000
00000000000000000000000000000111111111111111000000000000000000000001111111111111110000000000011111000000000000000000111100000000000000000111111111111111100000000000000000000000000000000000000000000000
00000000000000000000000000000111111000011111100000000000000000000011111111111111110000000000011111000000000000000000111110000000000000001111111111111000010000000000000000000000000000000000000000000000
00000000000000000000000000000111111000000111110000000000000000000111111111111111110000000000011111000000000000000000111110000000000000011111111110000000000000000000000000000000000000000000000000000000
00000000000000000000000000000111111000000111110000000000000000000111111111111111111000000000011111000000000000000000011110000000000000011111111100000000000000000000000000000000000000000000000000000000
00000000000000000000000000000001110000000011111000000000000000001111111111111111111100011100111111000000000000000000011111110000000000011111111000000000000000000000000000000000000000000000000000000000
00000000000000000000000000000001110000000001111000000000000000111111111111111111111111111111111111111100000000000000011110010000000000011111111000000000000000000000000000000000000000000000000000000000
00000000000000000000000000000011110000000000111100000000000111111111111111111111111111111111111111111111100000000000011110000000000000111111110000000000000000000000000000000000000000000000000000000000
00000000000000000000000000000011111000000000111100000000111111111111111111111001111000111111111111111111111100000000111111000000000000111111100000000000000000000000000000000000000000000000000000000000
00000000000000000000000000000011111000000000011110001111111111111111110011110001110000000000001111111111111111111111111111000000000000001111100000000000000000000000000000000000000000000000000000000000
00000000000000000000000011100011111000000000001111111111111111101111100001110011110000000000000111110001111111111111011111100011100001001111100000000000000000000000000000000000000000000000000000000000
00000000000000000000000001100001111000000000011111111111100111101111000011111111110000000000000111111000001111111111011111111111100001111111100001000111100000000000000000000000000000000000000000000000
00000000000000000000000000000001111100000000001111111100000111111110000011111111110000000000000011111100000000001111111111111111100011111111000000001111110000000000000000000000000000000000000000000000
00000000000000000000000000000000100000000000001111110000001111111100000011111111110000000000000001111110000000000111111111111111111111111110001100011110110000000000000000000000000000000000000000000000
00000000000000000000000000000000000011000001111111100000001111111100000001111111110000011100000000111111110000000111111111111111111111111111111111111110111000000000000000000000000000000000000000000000
00000000000000000000000000000000001111100011111111100000011111111000000001111111110000011100000000011111111111100111100111100011111111111111111111111111111111000001110000000000000000000000000000000000
00000000000000000000000000000000000111111111111111100000111111110000000011111111111111100000000000000111111111110111000111100000001111111111111111111111111111000001110000000000000000000000000000000000
00000000000000000000000000000000000011111111111111100000111111110000000000111111111111100000000000000001111111111110000111000000000111111111111111111111111111100000000000000000000000000000000000000000
00000000000000000000000000000000000001111111111111100000011111111111111110111111111111100000000000000000001111111100000111000000000011111111111111111111101111000000000000000000000000000000000000000000
00000000000000000000000000000000000011111111111111100000111111111111111111111111111111100000000000000000000000111000000111100000000011111111111111111111101111000000000000000000000000000000000000000000
00000000000000000000000000000001111111111111111111110001111111111111111111111111111111100000000000000000000000000000000111100000000011111111111111111111111110000000000000000000000000000000000000000000
00000000000000000000000000000001111111100011101111110011111111111111111111111111111111100000000000000000000000000000000111100000000011011111111100000111111111000000000000000000000000000000000000000000
00000000000000000000000000000000111111000000000111110011111111111111111100111111111111100000000000000000000000000000000001100000000011011111111000000011111111110000100000000000000000000000000000000000
00000000000000000000000000000000111111000000000111110011111111111111110000111110111111000000000000000000000000000000000000100000000111111111110000000001111111111111111100000000000000000000000000000000
00000000000000000000000000000000011111000000001111110011111111111111110011111100010000000000000000000000000000000000000001000000000111111111110000000001111111111111111100000000000000000000000000000000
00000000000000000000000000000000011111000000001110111011111111111111111111110011110000000000000000000000000000000000000111000000000111111111110000000001111111111111111000000000000000000000000000000000
00000000000000000000000000011100001111100000000100111111111111111111000111110111110000000000000000000000000000000000000011100000000111110111110000000001111111111100001000000000000000000000000000000000
00000000000000000000000000011100000111110000000001111001111100011000000111111111110000000000000000000000000000000000000011100000000111110111110000000001111111111100000000000000000000000000000000000000
00000000000000000000000000000000000000111110000011111000111000000000000111111111110000000000000011000000000000000000011111100000000111111111110000000001111111000000000000000000000000000000000000000000
00000000000000000000000000000000000000011111111111111110000000000000000111111111100000000000000111110000000000000000111111100000000011111111111000000000111111000000000000000000000000000000000000000000
00000000000000000000000000000000000000011111111111100000000000000000000111100111100000000000000111110000000000000001111111000000000011111111110000000001111111111100000000000000000000000000000000000000
00000000000000000000000000000000000000000011111111100000000000000011100111000000000000000000000011111001000000000000111110000000000011111011110000000001111111111100000000000000000000000000000000000000
00000000000000000000000000000000000000000001111111100000000000000000100000000000000000000000000000011111111000000001111100000000000011111011110000000011111111111100000000000000000000000000000000000000
00000000000000000000000000000000000000000001111100000000000000000000000000000000000000000000000000001111111111000111111100000000000011111111111000000111111111111100000000000000000000000000000000000000
00000000000000000000000000000000000000000000000000000000000000000000000000000000000000000000000000000011111111111111110000000000000011111111111111111111111111111100000000000000000000000000000000000000
00000000000000000000000000000000111000000000000000000000110000000000000000000000000000000000000000000000000111111111000000000000000001111111111111111101111111111000000000000000000000000000000000000000
00000000000000000000000000000000111000000000000000000000111000000000000000000000000000000000001110000000000000000000000000000000000001111111111111111101111111110000000000000000000000000000000000000000
00000000000000000000000000000000000000000000000000000000000000000000000000000000000000000000001110000000000000000000000000000000000000111111111111111111111111100000000000000000000000000000000000000000
00000000000000000000000000000000000000000000000000000000000000000000000000000000000000000000000000000000000000000000000000000000000000111111111111111111111111000000000000000000000000000000000000000000
00000000000000000000000000000000000000000000000000000000000000000000000000000000000000000000000000000000000000000000000000000000000000011111111111111111111110000000000000000000000000000000000000000000
00000000000000000000000111000000000000000000000000000000000000000000000000000000000000000001110000000000000000000000000000000000000000000111111111111111111110000000000000000001110000000000000000000000
00000000000000000000000111000000000000000000000000000000000000000000000000000000000000000001100000000000000000000000000000000000000000000011111111111100111000000000000000000001110000000000000000000000
00000000000000000000000000000000000000000000000000000000000000000000000000000000000000000000000000000000000000000000000000000000000000000000111111110000000000000000000000000000000000000000000000000000
00000000000000000000000000000000000000000000000000000000000000000000000000000000000011000000000000000000000000000000000000000000000000000000000000000000000000000000000000000000000000000000000000000000
00000000000000000000000000000000000000000000000000000000000000000000000000000000000111000000000000000000000000000000000000000000000000000000000000000000000000000000000000000000000000000000000000000000
00000000000000000000000000000000000000000000000000000000000000000000000000000000000000000000000000000000000000000000000000000000000000000000000000000000000000000000000000000000000000000000000000000000
00000000000000000000000000000000000000000000000000000000000000000000000000000000000000000000000000000000000000000000000000000000000000000000000000000000000000000000000000000000000000000000000000000000
00000000000000000000000000000000000000000000000000000000000000000000000000000000000000000000000000000000000000000000000000000000000000000000000000000000000000000000000000000000000000000000000000000000
00000000000000000000000000000000000000000000000000000000000000000000000000000000000000000000000000000000000000000000000000000000000000000000000000000000000000000000000000000000000000000000000000000000
00000000000000000000000000000000000000000000000000000000000000000000000000000000000000000000000000000000000000000000000000000000000000000000000000000000000000000000000000000000000000000000000000000000
00000000000000000000000000000000000000000000000000000000000000000000000000000000000000000000000000000000000000000000000000000000000000000000000000000000000000000000000000000000000000000000000000000000
