P1
200 70
00000000000000000000000000000000000000000000000000000000000000000000000000000000000000000000000000000000000000000000000000000000000000000000000000000000000000000000000000000000000000000000000000000000
00000000000000000000000000000000000000000000000000000000000000000000000000000000000000000000000000000000000000000000000000000000000000000000000000000000000000000000000000000000000000000000000000000000
00000000000000000000000000000000000000000000000000000000000000000000000000000000000000000000000000000000000000000000000000000000000000000000000000000000000000000000000000000000000000000000000000000000
00000000000000000000000000000000000000000000000000000000000000000000000000000000000000000000000000000000000000000000000000000000000000000000000000000000000000000000000000000000000000000000000000000000
00000000000000000000000000000000000000000000000000000000000000000000000000000000000000000000000000000000000000000000000000000000000000000000000000000000000000000000000000000000000000000000000000000000
00000000000000000000000000000000000000000000000000000000000000000000000000000000000000000000000000000000000000000000000000000000000000000000000000000000000000000000000000000000000000000000000000000000
00000000000000000000000000000000000000000000000000000000000000000000000000000000000000000000000000000000000000000000000000000000000000000000000000000000000000000000000000000000000000000000000000000000
00000000000000000000000000000001110000000000000000000000000000000000000000000000000000000000000011100000000000000000000000000000000000000000000000000000000000000000000000000000000000000000000000000000
00000000000000000000000000000001110000000000000000000000000000000000000000000000000000000000000011100000000000000000000000000000000000000000000000000000000000000000000000000000000000000000000000000000
00000000000000000000000000000000000000000000000000000000000000000000000000000000000001110000000000000000000000000000000000000000000000000000000000000000000000000000000000000000000000000000000000000000
00000000000000000000000000000000000000000000000000000000000000000000000000000000000001110000000000000000000000000000000000000000000000000000000000000000000000000000000000000000000000000000000000000000
00000000000000000000000000000000000000000000000001110000110000000000000000000000000000000000000000000000000000000000000000000000000000000000000000000000011111100000000000000000000000000000000000000000
00000000000000000000000000000000000000000000000011111001111100000000000000000000000000000000000111000000000000000000111000000000000000000000000000011111111111110010000000000000000000000000000000000000
00000000000000000000000000000000000000000000001111111111111111000000000000000000000000000000000111000000000000000000111000000000000000000000000011111111111111111111100000000000000000000000000000000000
00000000000000000000000000000000000000000000001111111111111111100000000000000000000000000000000011000000000000000000000000000000000000000000001111111111111111111110010000000000000000000000000000000000
00000000000000000000000000000000000000000000001111111111111111110000000000000000000000000000000111111000000000000000000000000111000000000000011111111111111111111110110000000000000000000000000000000000
00000000000000000000000000000000000000000011001111111111111111110000000000000000000000000000001111111000000000000000000011111111110000000001111111111111111111111111110000000000000000000000000000000000
00000000000000000000000000000000000000000011111111111111111111110000000000000000000000000000011111111000000000000000001111111111111000000011111111111111111111111111111000000000000000000000000000000000
00000000000000000000000000000000000000000001110111111111111111111000000000000000000000000000100011111000000000000000111111111111111100000111111111110001110000111111111000000000000000000000000000000000
00000000000000000000000000000000000000000001110111001111111111110000000000000000111000000001100001110000000000000001111111111111111110000111111110000000000000011111111000000000000000000000000000000000
00000000000000000000000000000000000000001111111110000001111111111000000001000001111000000011110011100000000000000011111100111111111110000011111100000000000000011111110000000000000000000000000000000000
00000000000000000000000000000000000000010011111100000000111111111111111111111111111000000111111111110000000000000111111000011111111110000111111000000000000000011111110000000000000000000000000000000000
00000000000000000000001110000000000000111011111100000000111111111111111111111111111111111111111111100000000000001111111100000111111111011111110000000000000000011111110000000000001110000000000000000000
00000000000000000000001110000000000000111111111000000000001111111111111111111111111111111111110011110000000000001111111000000011111111111011110000000000000000111111110000000000001110000000000000000000
00000000000000000000000000000000000000111111110000000100000111111111000000000000000111100111110011111000000000011111111000000011011111110001110000000000000000111111100000000000000000000000000000000000
00000000000000000000000000000000000000111111110000001111111001111110000000000000000011000011111111111111111001111111110000000011011111111000110000000000000000111111000000000000000000000000000000000000
00000000000000000000000000000000000000111111111110011111111000111110000000000000000011100111111111111111111111111101110000000111111111111001110000000000000000111111000000000000000000000000000000000000
00000000000000000000000000000000000000011111111111111111111100011110000000000000000111101111111111001111111111111101111000000111110111000011110000000000000001111110000000000000000000000000000000000000
00000000000000000000000000000000000000111111111111110001111100011000000000000000011111001111111110000000001111111111111111001111110110000111110000000000000011111110000000000000000000000000000000000000
00000000000000000000000000000000000001111111111110000001111001110000000000000000111110001111111100000000000111111111111111111111111110011111111000000000001111111000000000000000000000000000000000000000
00000000000000000000000000000000000001111011111100000011111011110000000000000011111000000111111100000000000111111111111111111111111111111111111000000000011111110000000000000000000000000000000000000000
00000000000000000000000000000000000001111011111000000111111111100000000000000111110000001111111100000000000111111111100000111111111111111111111100000001111111100000000000000000000000000000000000000000
00000000000000000000000000000000000001111111111100001111111111100000000000000111100000011110111100000000000111111111110000111111111111110111111111111111111111100000000000000000000000000000000000000000
00000000000000000000000000000000000011111111111111111111111111100000000000001111000000111110111100000000000111111111111111111111111111110111111111111111111111110000000000000000000000000000000000000000
00000000000000000000000000000000000001111111111111111111111111100000000000111110000000111111111000000000000111111111111111111111111111111111111111111111111111111000000000000000000000000000000000000000
00000000000000000000000000000000000011111111111111111111110111000000000001111110000000111111111000000000000111111110111111111111111000000111111111111111111111111100000000000000000000000000000000000000
00000000000000000000000000000000001111111111111110111111110111000000000001111000000001111111110000000000000011111110111111111111110000000001111111011111111111111110000000000000000000000000000000000000
00000000000000000000000000000000011111110111111110111111111110000000000001111000000001111111110000000000000000111111111100011111110000000000111111011111111111111110000000000000000000000000000000000000
00000000000000000000000000000000011111110000111111111111111110000000000011111110000001111111110000000000000000011111111000111111110000000001111111111111111111111111000000000000000000000000000000000000
00000000000000000000000000000000111111000000011110001111111110000000000111111111000001111111100000000000000000001100000001111111100000000001111110001111111111111111000000000000000000000000000000000000
00000000000000000000000000000001111110000111000000001111111110000000000111111111111111101111100000000000000000000000000011111111000000000001111100000001111111111110000000000000000000000000000000000000
00000000000000000000001110000000011111000000000000000111111100000000000111111111111111000111100000000000000000000000000111111111000000000000111000000000011111111110000000000000000000000000000000000000
00000000000000000000001110000000001111111100000000000111111100000000000111111111111110001111111100000000000000000000000111111110000000000001111000000000000111111110000000000000000000000000000000000000
00000000000000000000000000000000001110011100000000011111111100000000000000111111111111011111111100000000011110000000001111111100000000000111111000000000000001111111000000000000000000000000000000000000
00000000000000000000000000000000001100001100000000111111111110000000000000011111111111111111111100000011111110000000111111111000000000001111110000000000000001111111110000000001110000000000000000000000
00000000000000000000000000000000001110011110000001111111111111000000000000000000001111111111111000011111111111000011111111110000000000001111100000000000000001111111111000000001110000000000000000000000
00000000000000000000000000000000001111111111000011111111110000000000000000000000000111111111111000011111111111000111111111110000000000001111100000000000000011111111111100000000000000000000000000000000
00000000000000000000000000000000000111111111111111111111110000000000000000000000001111111111110000111111111111111110111111001110000000001111100000000000000011111111111000000000000000000000000000000000
00000000000000000000000000000000000111111111111111111111100000000000000111000000001111111110000001111111111111111110111110000000000000001111110000000000000111100100111000000000000000000000000000000000
00000000000000000000000000000000000111111111111111110011000000000000000000000000001111111100000001111110111001111111111000000000000000001111111000000000000111100000010000001110000000000000000000000000
00000000000000000000000000000000000011111111111111110000000000000000000000000000001111111100000000011100111000111111110000000000000000001111111000000000001111111000000000000000000000000000000000000000
00000000000000000000000000000000000001111111111111111100000000000000000000000000001111111000000000000011111100011110000000000000000000001111111000000000011111110000000000000000000000000000000000000000
00000000000000000000000000000000000000111111111111111100000000000000000000000000011111111000000000000000011100000000000000000000000000001111111000000000111111110000000000000011100000000000000000000000
00000000000000000000000000001110000000001111111111110000000000000000000000000000011111111000000000000000000000000000000111000001110000000111111110000001111111100000000000000011100000000000000000000000
00000000000000000000000000001110000000000011111111000000000000000000000000000000010011111000000000000000000000000000000111000001110000000111111111100001111111000000111011100000000000000000000000000000
00000000000000000000000000000000000000000000000000000000000000111000000000000000000001110000000000000000000000000000000000000000000000000011111111110001111110000000111011100000000000000000000000000000
00000000000000000000000000000000000000000000000000000000000000111000000000000000000000000000000000000000000000000000000000000000000000000011111111111000111100000000000000000000000000000000000000000000
00000000000000000000000000000000000000000000111000000000000000000000000000000000000000000000000000000000000000000000000000000000000000000001111111111100110000000000000000000000000000000000000000000000
00000000000000000000000000000000000000000000111000000000000000000000000000000000000000000000000000000000000000000000000000000000000000000000111111111111000000000000000000000000000000000000000000000000
00000000000000000000000000000000000001110000000000000000000000000000000000000000001110000000000000000000000000000000000000000000000000000000011111111000000000000000000000000000000000000000000000000000
00000000000000000000000011100000000001110011100000000000000000000000000000000000001110000000000000000111000000000000000000000000000000000000000011000000000000000000000000000000000000000000000000000000
00000000000000000000000011100000000000000011100000000000000000000000000000000000000000000000000000000111000000000000000000000000000000000000000000000000000000000000000000000000000000000000000000000000
00000000000000000000000000000000000000000000000000000000000000000000000000000000000000000000000000000000000000000000000000000000000000000000000000000000000000000000000000000000000000000000000000000000
00000000000000000000000000000000000000000000000000000000000000000000000000000000000000000000000000000000000000000000000000000000000000000000000000000000000000000000000000000000000000000000000000000000
00000000000000000000000000000000000000000000000000000000000000000000000000000000000000000000000000000000000000000000000000000000000000000000000000000000000000000000000000000000000000000000000000000000
00000000000000000000000000000000000000000000000000000000000000000000000000000000000000000000000000000000000000000000000000000000000000000000000000000000000000000000000000000000000000000000000000000000
00000000000000000000000000000000000000000000000000000000000000000000000000000000000000000000000000000000000000000000000000000000000000000000000000000000000000000000000000000000000000000000000000000000
00000000000000000000000000000000000000000000000000000000000000000000000000000000000000000000000000000000000000000000000000000000000000000000000000000000000000000000000000000000000000000000000000000000
00000000000000000000000000000000000000000000000000000000000000000000000000000000000000000000000000000000000000000000000000000000000000000000000000000000000000000000000000000000000000000000000000000000
00000000000000000000000000000000000000000000000000000000000000000000000000000000000000000000000000000000000000000000000000000000000000000000000000000000000000000000000000000000000000000000000000000000
