P1
200 70
00000000000000000000000000000000001000000000000000000000000000000000000000000000000000000000000000000000000000000000000000000000000000000000000000000000000000000000000000000000000000000000000000000000
00000000000000000000000000000000001110000000000000000000000000000000000000000000000000000000000000000000000000000000000000000000000000000000000000000000000000000000000000000000000000000000000000000000
00000000000000000000000000000000011111100000000000000000000000000000000000000000000000000000000000000000000000000000000000000000000000000000000000000000000000000000000000000000000000000000000000000000
00000000000000000000000000000000011111111000000000000000000000000000000000000000000000000000000000000000000000000000000000000000000000000000000000000000000000000000000000000000000000000000000000000000
00000000000000000000000000000000000111111110000000000000000000000000000000000000000000000000000000000000000000000000000000000000000000000000000000000000000000000000000000000000000000000000000000000000
00000000000000000000000000000000000001111111110000000000000000000000000000000000000000000000000000000000000000000000000000000000000000000000000000000000000000000000000000000000000000000000000000000000
00000000000000000000000000000000000000011111111100000000000000000000000000000000000000000000000000000000000000000000000000000000000000000000000000000000000000000000000000000000000000000000000000000000
00000000000000000000000000000000000000000111111111000000000000000000000000000000000000000000000000000000000000000000000000000000000000000000000000000000000000000000000000000000000000000000000000000000
00000000000000000000000000000000000000000000111110000000000000000000000000000000000000000000000000000000000000000000000000000000000000000000000000000000000000000000000000000000000000000000000000000000
00000000000000000000000000000000000000000000001100001000000000000000000000000000000000000000000000000000000000000000000000000000000000000000000000000000000000000000000000000000000000000000000000000000
00000000000000000000000000000000001110000000000000011110000000000000000000000000000000011000000001110000000000000000111111100000000000000000000000000000000000000000000000000000000000000000000000000000
00000000000000000000000000000000001110000000000000111111100000000000000000000000011111111100000001110000000000000001111101111111000000000000111000000000000000000000000000000000011100000000000000000000
00000000000000000000000000011100000000000000000000011111111100000000000000000001111111111100001100000000000000000111111101111111100000000000111000000000000000000000000000000000011100000000000000000000
00000000000000000000000000011100000000000000000000000111111111000001111100001111111111111100001100000000000000001111111111111111110000000000000000000000000000000000000000000000000000000000000000000000
00000000000000000000000000000000000000000011100000000001111111000001111100011111110111111100000000000000000000001111111111110000110000000000000000000000000000000000000000000000000000000000000000000000
00000000000000000000000000000000000000011111110001100000001111100000011110111111110010001100000000011100000000011111111111100000111100000000000000000000000000000000000000000000000000000000000000000000
00000000000000000000000000000000000001111111111011111111000111111100001111111111111000000000000000011100000000011111111111110011111100000000000000000000000000000000000000000000000000000000000000000000
00000000000000000000000000000000000011111111111111111111100001111111001111111111111000000000000000000000000000111111111111111111111110000011100000000000000000000000000000000000000000000000000000000000
00000000000000000000000000000000000011111111111111111111111000111111111111111111100000000000000000000000000001111111100000011111111111000011100000000000000000000000000000000000000000000000000000000000
00000000000000000000000000000000000111111111111111111111111100001111111111111000000000000000000000000000000001111111100000001111111111000000000000000000000000000000000000000000000000000000000000000000
00000000000000000000000000000000000111111111111111111111111110000001111111110000000000000000000000000000000001111111110000000111111111000000000000011110000000000000000000000000000000000000000000000000
00000000000000000000000000000000000111111111111111111111111111000000111111111000000000000000000000000000000000111111110000000111111111000000000000011111100000000000000000000000000000000000000000000000
00000000000000000000000000000000000111111111111010011111111111100000001111111100000000000000000000000000000000111101100000000111111111000000000000011111111100000000000000000000000000000000000000000000
00000000000000000000000000000000000110011111110000000111111111110000000111100000000000000000000000000000000001111000100000000111111111000000000000011111111111000000010000000000000000000000000000000000
00000000000000000000000000000000000000011110000000000011111111110000000011100000110000000000000000000000000000111100000000000111111110000000000000111111111111100000000000000000111000000000000000000000
00000000000000000000000000000000000001111110000000000001111111111000000011110111111100000000000000000000000000000000000000000111111110000000000000011111111111110000000100000000111000000000000000000000
00000000000000000000000000000000000011111111100000000000111111111000000011110011111111000000000000000000000000000000000000000111111111000000000000000111111111111000111100000000000000000000000000000000
00000000000000000000000000000000000011111111100000000000111111110000000011111000111111111000000000000000000000001110000000000111111111000000000000000111001111111111111100000111000000000000000000000000
00000000000000000000000000000000000001111111100000000000011111111000000001111000011111111000000000000000000000001110000000001111111110000000000000011110000011111101111100000111000000000000000000000000
00000000000000000000000000000000000001111111100000000000011111111110000000111000011111111100111000000000000000000000000000001111111110001110000000111110000001111101111100000000000000000000000000000000
00000000000000000000000000000000000111111111000000011100000111111111000000110000111111111111111100000000000000000000001110011111111100001110000000111110000001111111111000000000000000000000000000000000
00000000000000000000000000000000000011111111000000000000000111111111001100011001111101111111111000000000000000000000001111111111111100000000000000111110000011100111111000000000000000000000000000000000
00000000000000000000000000000000000001111111111100000000011111111111001110111111111000111111111011110000000000000000001111111111111000000000000000111110001111000000000000000000000000000000000000000000
00000000000000000000001110000000000000111111111110000000111111111111000000111111111000000011111111111100000000000000000111111111110000001100000000111111111111100000000000000000000000000000000000000000
00000000000000000000001110000000000000011111111111100000111111111111000000111111100000000000111111111111100000000000000111111111111000011100000000011111111110000000000000000000000000000000000000000000
00000000000000000000000000000000000000011111111111111111111111111011000000011111000000111000011111111111110000000000011111111111111100000000000000011111111100000000000000000000000000000000000000000000
00000000000000000000000000111000000000001111111110111111111111111011000000011110000000111000011111111111111111100000011111111111111100000000000000111111011100000000000000000000000000000000000000000000
00000000000000000000000000011000000000000111111110111111111111111111000000011000000000000000000011111001111111100010001111111111111110000000000001111110001111000000011100000000000000000000000000000000
00000000000000000000000000000000000000000001111111111111111111111111000000000000000000000000000011111000001111110111100000111111111111000000001111111100001111110000011100000000000000000000000000000000
00000000000000000000000000000000000000000000011111111111111101111111000000000000000000000000000111111100000000111111110011111111111111100001111111111000000111111100000000000000000000000000000000000000
00000000000000000000000000000000000000000000001111111111111000111111100000000000000000000000000111111110000000000111111111111111101111111111111111100000000011111110000000000000000000000000000000000000
00000000000000000000000000000000000000000000000001111111111101111111100000000000000000000000000011111110001110000000011111111111101111111111111100000000000001111110000000000000000000000000000000000000
00000000000000000000000000000000000001110000000000000111111111111111100000000000000000000000000011111110001110000000000011111111111111111111100000000000000000111111000000000000000000000000000000000000
00000000000000000000000000000000000001111000000000000000001111111111100000000000000000000000011100111111001110000000000000000111111111110000000000000000000000000111000000000000000000000000000000000000
00000000000000000000000000000000000001111100000000000000001111111111100000000000000000000000011100111111111111111000000000000111111111100000000001100000000000000011100000000000000000000000000000000000
00000000000000000000000000000000000000011111000000000000000111111111100000000000000000000000000001111111111011111100000000001111111111100000000001110000000000110011100000000000000000000000000000000000
00000000000000000000000000000000000000011111110000000000000111111111100000000000000000000000000001111111111011111100000000001111111111100000000001110000000001111111100000000000000000000000000000000000
00000000000000000000000000000000000001111111111110000001111111111111100000000000000000000000000001111111111111111100000011111111111111100000000001111000000000111111100000000000000000000000000000000000
00000000000000000000000000000000000001111111111111000011111111111111100000000011000000000000000001111111111111111110000011111111111111000000000001110000000000011111100000000000000000000000000000000000
00000000000000000000000000000000000001111111111111111111111111111111000000001111100000000000000011111111111111111111000011111111111111000000000000110000000000011111100000000000000000000000000000000000
00000000000000000000000000000000000000011111111111111111111111111111000000000111110000000000000011111111111111111111111111111111111111000000000000111000000001111111000000000000000000000000000000000000
00000000000000000000000000000000000000001111111111111111111111111110000000000011110000000000000011111111111111111111111111111111111100000000000001111100000011111111000000000000000000000000000000000000
00000000000000000000000000000000000000000011111111111111111111111100000000000111110000000000000111111111111111111111111111111111111100000000000001111111000111111111000000000000000000000000000000000000
00000000000000000000000000000000000000000000111111111111111111111100000000000111111000000000011111111100010011111111111111111111111000000000000000111111111111111110000000000000000000000000000000000000
00000000000000000000000000000000000000000000000111111111111111111000000000000011111111000001111111110000000011111111111111111110010000000000000000000011111111111100000000000000000000000000000000000000
00000000000000000000000000000000000000000000000000111001111111000000000000000011111111111111111111110000000111111111111111101100000000000000000000000001111111110000000000000000000000000000000000000000
00000000000000000000000000000000000000111000000000000000111110001000000000000011111111111111111111100000000011111111111111000000000000000000000111000000001111100000000000000000000000000000000000000000
00000000000000000000000000000000000000110000000000000000110000111000000000000011111111111111111111000000000001111111111111100000000000000011100111011100000000000011100000000000000000000000000000000000
00000000000000000000000000000000000000000000000000000000000000111000000000000011111111111111111100000000000000001011011000000000000000000010000000011100000000000011100000000000000000000000000000000000
00000000000000000000000000000000000000000000000000000000000000000000000000000001111111111100000000000000000000000000000000000000000000110000000000000000000000000000000011100000000000000000000000000000
00000000000000000000000000000000000000000000000000000000000000000000000000000000000000011000000000000000000000000000000000000000000000110000000000000000000000000000000011100000000000000000000000000000
00000000000000000000000000000000000000000000000000000000000000000000000000000000000000000000000000000000000000000000000000000000000000000000000000000000000000000000000000000000000000000000000000000000
00000000000000000000000000000000000000000000000000000000000000000111000000000000000000000000000000000000000000000000000000000000000000000000000000000000000000000000000000000000000000000000000000000000
00000000000000000000000000000000000000000000000000000000000000000111000000000000000000000000000000000000000000000000000000000000000000000000000000000000000000000000000000000000000000000000000000000000
00000000000000000000000000000000000000000000000000000000000000000000000000000000000000000000000000000000000000000000000000000000000000000000000000000000000000000000000000000000000000000000000000000000
00000000000000000000000000000000000000000000000000000000000000000000000000000000000000000000000000000000000000000000000000000000000000000000000000000000000000000000000000000000000000000000000000000000
00000000000000000000000000000000000000000000000000000000000000000000000000000000000000000000000000000000000000000000000000000000000000000000000000000000000000000000000000000000000000000000000000000000
00000000000000000000000000000000000000000000000000000000000000000000000000000000000000000000000000000000000000000000000000000000000000000000000000000000000000000000000000000000000000000000000000000000
00000000000000000000000000000000000000000000000000000000000000000000000000000000000000000000000000000000000000000000000000000000000000000000000000000000000000000000000000000000000000000000000000000000
00000000000000000000000000000000000000000000000000000000000000000000000000000000000000000000000000000000000000000000000000000000000000000000000000000000000000000000000000000000000000000000000000000000
