P1
200 70
00000000000000000000000000000000000000000000000000000000000000000000000000000000000000000000000000000000000000000000000000000000000000000000000000000000000000000000000000000000000000000000000000000000
00000000000000000000000000000000000000000000000000000000000000000000000000000000000000000000000000000000000000000000000000000000000000000000000000000000000000000000000000000000000000000000000000000000
00000000000000000000000000000000000000000000000000000000000000000000000000000000000000000000000000000000000000000000000000000000000000000000000000000000000000000000000000000000000000000000000000000000
00000000000000000000000000000000000000000000000000000000000000000000000000000000000000000000000000000000000000000000000000000000000000000000000000000000000000000000000000000000000000000000000000000000
00000000000000000000000000000000000000000000000000000000000000000000000000000000000000000000000000000000000000000000000000000000000000000000000000000000000000000000000000000000000000000000000000000000
00000000000000000000000000000000000000000000000000000000000000000000000000000000000000000000000000000000000000000000000000000000000000000000000000000000000000000000000000000000000000000000000000000000
00000000000000000000000000000000000000000000000000000000000000000000000000000000000000000000000000000000000000000000000000000000000000000000000000000000000000000000000000000000000000000000000000000000
00000000000000000000000000000000000000011100000000000000000000000000000000000000000000000000000000000000001110000000000000000000000000000000000000000000000000000100000000000000000000000000000000000000
00000000000000000000000000000000000000011100000000000000000000110000000000000000000000000000000000000000001110000000000000000000000000000000000000000000000111111100000000000000000000000000000000000000
00000000000000000000000000000000000000000000000000000000000000110000000000000000000000000000000000000000000000000000000000000000000000000000000000000000001111111110000000000111000000000000000000000000
00000000000000000000000000000000000000000000000000000000000000000000000000000000000000000000000000000000000000000000000000000000000000000000000000001111111111111110000000000111000000000000000000000000
00000000000000000000000000000000000000000000000000000000000000000000000000000000000000000000000000000000000000000000000000000000000000000000000001111111111111111110000000000000000000000000000000000000
00000000000000000000000000000000000000000000000000000000000000000000000000000000000000000000000000000000000000000000000000000000000000000000000001111111111111111110000000000000111000000000000000000000
00000000000000000000000000000000000000000000000000000111000000000000000000000000000111000110000000000000000000000000000000000000000000000000111001111111111111111100000000000000011000000000000000000000
00000000000000000000000000000000000000000000001100001111111110000000000000000011111110001110000000000000000000000000000000000000000000000000111001111101111111111000000000000000000000000000000000000000
00000000000000000000000001000000000000111111111110011111111111111111000000011111111111011110000000000001110000000000000000000000000000000000000000111000100000000000000000000000000000000000000000000000
00000000000000000000000001000000000000111111111111111111111111111110001001111111111111111111000000000001111111000000000011100000000000000000000001111100000000000000000000000000000000000000000000000000
00000000000000000000000000000000100001111111111000000000000011111111011111111111111111110111000000000000011111111000000011100000000000000001110011110000000000000011000000000000000000000000000000000000
00000000000000000000000000000000100011110000000000000000000000000011111111111111111111110111100000000000011111111110000000000000000000000001110011110000000000000111000000000000000000000000000000000000
00000000000000000000000000000000000110000000001111100000000000000000011111111111111111111111100000000000011111111111000000000000000000000000000011110000000000000000000000000000000000000000000000000000
00000000000000000000000000000000000000000001111111110000000000000000011111111111111111111111110000000000011111111111111000000000000000000000000011100000000000000000000000000000000000000000000000000000
00000000000000000000000000000000000000000111111111111000000000000000011111111110011111111111110000000000011111111111111111100000000000000000000001100000000000000000000111000000000000000000000000000000
00000000000000000000000000000000000000000111111111111100000000000000111111111100011111111111110000000000011111111111110111111100000000000000000001100000000000000000000111000000000000000000000000000000
00000000000000000000000000000000000000001111111111011100000000000001111111111100111111111111100000000000011111111111110111111111100000000000000011100000000000000000000000000000000000000000000000000000
00000000000000000000000000000000000000111111111111011100000000000001111110111000001111111111000000000000001111111111111111111111111000000000000011100000000000000000000000000000000000000000000000000000
00000000000000000000000000000000000000111111111111111110000000000001111110110000000011111111100000000000011111111111111111111111111100000000000011110000000000000000000000000000000000000000000000000000
00000000000000000000000000000000000001001111000011111110000000000001111111110000000000111111111000000000111111111100111111011111111110000000000011110000000000000000000000000011100000000000000000000000
00000000000000000000000000000000000001101110000001111110000000000011111111100000000000001111111100000001111111111000000110001111111110000000000001110000000111110000000000000011100000000000000000000000
00000000000000000000000000000000000011111100000001111000000000000001111111000000000000000001111111110001111111111000000000011111111100000000000001100011111111111100000000000000000000000000000000000000
00000000000000000000000000000000000011111000000000111001000000000011111111000000000000000000011111100001111111001000000000000111111100000000000011110111111111111110000000000000000000000000000000000000
00000000000000000000000000000000000111111000000001111111000000000011111111100000000000000000000111100011111111001000000000000000001100000000000011111111111111111111100000000000000000000000000000000000
00000000000000000000000000000000001111110000000001111111000000000011111111100000011100011110000000001111111111110000000000000000000000000000000011111101111111001111100000000000000000000000000000000000
00000000000000000000000000000000001111110000000001111111000000000011111111100000011111111111000000001111111111110000000000000000000000000000000111111100111000000111110000000000000000000000000000000000
00000000000000000000000000000000001111110000000001111111000000000111111110000000011111111111100000000111111111110000000000000000000000000000000111111100000000000111111000000000000000000000000000000000
00000000000000000000000000000000001111111000000011111111000000000111111110000000111111111111100000000011111111111111000000000000000000000000000011111100000000000111111100000000000000000000000000000000
00000000000000000000000000000000001111111000000111111111000000000011111111111111111111111111001000000111111111111111001111000000000000000000000011110000000000000111111100000000000000000000000000000000
00000000000000000000000000000000001111111000011111111111000000000011111111111111111111111111001000000111111111111110000111100000000000000000000011110000000000000111111110000000000000000000000000000000
00000000000000000000000000000000011111111000100111111111000000000011111111111111111111111111110000000111111111111111000011110000000000000000000011100000000000000111111110000000000000000000000000000000
00000000000000000000000000000000001111111101110111111110000000000011111111111111111111111111110000001111111111111111100111111110000000000000000000000000000000111111111111000000000000000000000000000000
00000000000000000000000000000000001111111111111111111110000000000011111111111111000011111111111000001111011111111111111111111111000000000000000000000000000000011111111111000000000000000000000000000000
00000000000000000000000000000000001111111111111111111110000000000001111111111100000000111111111000011111011111111111111111111111100000000000000000000000000000011111111111000000000000000000000000000000
00000000000000000000000000000000000111111111111011111110000000000001111111111000000000111111110000011111111111110111111111111111111000001110000000000000000001111101111111000000000000000000000000000000
00000000000000000000000000000000000011111111110011111110000000000001111111111000000000011111100000000000011111000000000111111111111111111111000000000000001100111000111111000000000000000000000000000000
00000000000000000000000000000000000000111100000111111110000000000001111111111000000000011111100000000000000000000000000011111111111111111111100000000000111110011001111111000000000000000000000000000000
00000000000000000000000000000000000000000000001111111100000000000000011111110000000000011111110000000000000000000000000001111111111111111111111111111111111111100001111111100000000000000000000000000000
00000000000000000000000000000000000000000000001111111100000000000000001111000000000000001111111000000000000000000000000001111111111111111111111111111111111100000001111111100000000000000000000000000000
00000000000000000000000000000000000000000000011111111000000000000000011111001000000000011111111000000000000000000000000000111111111000000000111111111111110000000000011111100000000000000000000000000000
00000000000000000000000000000000000000000000111111110000000000000000011111111000000000011111111000000000000000000000000000111111111100000000000000100000000000000000011111100000000000000000000000000000
00000000000000000000000000110000000000000000111111100000000000000000011111011000000000011101111100000000000001110000000000111111001100000000000000000000000000000001111111100000000000000000000000000000
00000000000000000000000000110000000000000001111111000000000000000000011111011100000000011000111000000000000001110000000000011110000000000000000000000000000000000001111111100000000000000000000000000000
00000000000000000000000000000000000000111111111111000000000000000000001111111100000000011101111000000000000000000000000000111100000000000000010000000000000000000001111111100000000000000000000000000000
00000000000000000000000000000000000011111111111110000000000000000000001111111110000000011111111000000111111000000000000001111110011000000000111110000000000000000001111111100000000000000000000000000000
00000000000000000000000000000000011111111111111100000000000000000000001111111111000000111111110001000111111100000000000111101111000000000000111110000000000000000001111111100000000000000000000000000000
00000000000000000000000000001000111111111011111000000000111000000000000111111110000011111111110001101111101100000000011111101111100000000001111110000000000000000011111111100000000000000000000000000000
00000000000000000000000000011100111111111001100000000000111000000000000011111110011111111111110001111111101110000000011111111111110000000001111110000000000000000111111111000000000000000000000000000000
00000000000000000000000000111110011111111100000000000000000000000000000001111111111111111111100000000111111111111111111111111111100000000001111111000000000000000111111110000000000000000000000000000000
00000000000000000000000000111111011111110000000000000000000000000000000001110111111111111100100000000011111111111111111111111111100000000001111111000000000000011111111100000000000000000000000000000000
00000000000000000000000000111111111111100000000000000000000000000000000000100111111110111100000000000111111111111111111111111111000000000001111111110000000001111111111000000000000000000000000000000000
00000000000000000000000000011110011110000000000000000000000000000000000000011111111110111110000000011111111111011111111111111110000000000001111111111000000111111110111000000000000000000000000000000000
00000000000000000000000000000000000000000000000000000111000000000000000000001111111111111110000000001111111111011111111111111000000000000001111111111111111111111110011000000000000000000000000000000000
00000000000000000000000000000000000000000000000000000111000000000000000000000011111111111100000000000111111111111111111111110000111000000001111110111111111111111111100000000000000000000000000000000000
00000000000000000000000000000000000001110000000000000000000000000000000000000001111111100000000000000011111111111111111111000000111000000000011100111111111111111110000000000000000000000000000000000000
00000000000000000000000000000000000001110000000000000000000000000000000000000000000000000000000000000000011111111100000000000000000000000000000111111111111111111000000000000000000000000000000000000000
00000000000000000000000000000000000000000000000000000000000000000000000000000000000000000000000000000000000000000000000000000000000000000000000000010000000000000000000000000000000000000000000000000000
00000000000000000000000000000000000000000000000000000000000000000000000000000000000000000000000000000000000000000000000000000000000000000000000000000000000000000000000000000000000000000000000000000000
00000000000000000000000000000000000000000000000000000000000000000000000000000000000000000000000000000000000000000000000000000000000000000000000000000000000000000000000000000000000000000000000000000000
00000000000000000000000000000000000000000000000000000000000000000000000000000000000000000000000000000000000000000000000000000000000000000000000000000000000000000000000000000000000000000000000000000000
00000000000000000000000000000000000000000000000000000000000000000000000000000000000000000000000000000000000000000000000000000000000000000000000000000000000000000000000000000000000000000000000000000000
00000000000000000000000000000000000000000000000000000000000000000000000000000000000000000000000000000000000000000000000000000000000000000000000000000000000000000000000000000000000000000000000000000000
00000000000000000000000000000000000000000000000000000000000000000000000000000000000000000000000000000000000000000000000000000000000000000000000000000000000000000000000000000000000000000000000000000000
