P1
200 70
00000000000000000000000000000000000000000000000000000000000000000000000000000000000000000000000000000000000000000000000000000000000000000000000000000000000000000000000000000000000000000000000000000000
00000000000000000000000000000000000000000000000000000000000000000000000000000000000000000000000000000000000000000000000000000000000000000000000000000000000000000000000000000000000000000000000000000000
00000000000000000000000000000000000000000000000000000000000000000000000000000000000000000000000000000000000000000000000000000000000000000000000000000000000000000000000000000000000000000000000000000000
00000000000000000000000000000000000000000000000000000000000000000000000000000000000000000000000000000000000000000000000000000000000000000000000000000000000000000000000000000000000000000000000000000000
00000000000000000000000000000000000000000000000000000000000000000000000000000000000000000000000000000000000000000000000000000000000000000000000000000000000000000000000000000000000000000000000000000000
00000000000000000000000000000000000000000000000000000000000000000000000000000000000000000000000000000000000000000000000000000000000000000000000000000000000000000000000000000000000000000000000000000000
00000000000000000000000000000000000000000000000000000000000000000000000000000000000000000000000000000000000000000000000000000000000000000000000000000000000000000000000000000000000000000000000000000000
00000000000000000000000000000000000000000000000000000000000000000000000000000000000000000000000000000000000000000000000000000000000000000000000000000000000000000000000000000000000000000000000000000000
00000000000000000000000000000000000000000000000000000000000000000000000000000000000000000000000000000000000000000000000000000000000000000000000000000000000000000000000000000000000000000000000000000000
00000000000000000000000000000000000000000000000000000000000000000000000000000000000000000000000000000000000000000000000000011000000000000000000000000000000000000000000000000000000000000000000000000000
00000000000000000000000000000000000000000000000000000000000000000000000000000000000000000000000000000000000000000000000000001000000000000000000000000000000000000011100000000000000000000000000000000000
00000000000000000000000000000000000000000000000000000000000000000000000000000000000000000000000000000000011100000000000000000000000000000000000000000000000000000011100000000000011100000000000000000000
00000000000000000000000000000000000000000000000000000000000000000000000000000000000000000000000000000000011100000000000000000000000000000000000000000000000000000000000000000000011100000000000000000000
00000000000000000000000000000000000000000000000000000000000000000000000000000000000000000000000000000000000000000000000000000000000000000000000000000000000000000000000000000000000000000000000000000000
00000000000000000000000000000000000000000000000000000000000011100000000011110011100000000000000000000000000000000000000000000000000000000000000111111000000000000000000000000000000000000000000000000000
00000000000000000000000000000000000000000000000000000000000011100000000001111111100000000000000000000000000000000111111111000001100000000000100011111111100000000000000000000000000000000000000000000000
00000000000000000000000000000000000000000000000000000000000000000000001001111111110001100000000000000000000000001111111111100001110000000001110111111111110000000000000000000000000000000000000000000000
00000000000000000000000000000000000000000000000000000000000000000000001111111111100011111111110000000000000000011111111111111000000000000011111111111111111000000000000000000000000000000000000000000000
00000000000000000000000000000000000000000000000000000000000000000000001111110111100111111111110001000011000001111111000001111000000000000011111111110000111100000000000000000000000000000000000000000000
00000000000000000000000000000000000000000000000000000000000000000011101111110111001111111111111011100111100001111110000000111100000000000111111111110000000100000000000000000000000000000000000000000000
00000000000000000000000000000000001000000000000000000000000000110011111111111111011111111111111111111111100000111100000000111100000000001111111111110000000001000000000000000000000000000000000000000000
00000000000000000000000000000000011000000000000000000000011111111011111111111111111111111111111111111111100100111000000001110000000000001111111101110000010011100000000000000000000000000000000000000000
00000000000000000000000000000000011100000000000000000000111111111111111111111111111111111111111111111111111111110000000001100010000000000011111101100000011111100000000000000000000000000000000000000000
00000000000000000000000000000000111111100000000000000001111111111111111111000111111111111111111111011111111111110000000000001100000000010011111111110000111111000000000000000000000000000000000000000000
00000000000000000000000000000000001111111000000000011111111111111111111110000000111111111111111111011111111110000000000000001110000011000111111111111111111111000000000000000000011100000000000000000000
00000000000000000000000000000000000111111110000000111111110000000111111100000000000000000111111111111111111110000000000000001111111111101111111111111110111111110000000000000000011100000000000000000000
00000000000000000000000000000000000001111111000000111110000000000000011000000000000000000000111111100011111111000000000000011111111111111111111111111100011111111000000000000000000000000000000000000000
00000000000000000000000000000000000000111111110011111100000000000000011100000000000000000001100111000001111111000001110000111111111111111111111111100000011111111100000000000000000000000000000000000000
00000000000000000000000000000000000000000111111111111100000000000001111100000000000000000011110111001111111111000000110001111111110000011111111111000000111111111110000000000000000000000000000000000000
00000000000000000000000000000000000000000001111111111000000000000011111100000000000000000011111111111111011110000000011111111111100000011111111111000000111111111111000000000000000000000000000000000000
00000000000000000000000000000000000000000000111111111000000000000011101100000000000000000111111111100111011110000000111111111111100000111111110110000000011111111111100000000000000000000000000000000000
00000000000000000000111000000000000000000000111111111000000000000111100100000000000000011111111111000011111110001111111111111110000000111111110010000000011111111111111111000000000000000000000000000000
00000000000000000000111110000000000000000000111110111110000000000111111000000000000000011111111110000111111111111111111110001110000000011111111110000000111111111111111111000000000000000000000000000000
00000000000000000000000001000000000000000001111100011100100000001111111000000000000000111111111110000111111111111111100000001111100000011111111110000000111111111111111100111000000000000000000000000000
00000000000000000000000000000000000000000001111110001001110000011111000000000000000000111111111110000111111111111100000000011111100000011111111100000000111111111100111000111000000000000000000000000000
00000000000000000000000000000000000000000001110010000111111111111111000000000000000001111111111000001110111111000000000000111111000000011111111100000000111111111100010000000000000000000000000000000000
00000000000000000000000000000000000000000001100000000001111111111111110000000000000001100111111000011110111100000000000000111111000000011110111100011100111111111100000000000000100000000000000000000000
00000000000000000000000000000000000000000001110001000000111111111111110000000000000000000111111111111111111000000000000000111111000000011110111100011100011111111100000000000000100000000000000000000000
00000000000000000000000000000000000000000011111111100000111111111111111111111111111100011111111111111111111000000000000001111111100000011111111000000000011111111100000000000000000000000000000000000000
00000000000000000000000000000000000000000011111111111111111111111111111111111111111111111111111111111111111100000000000001111111111100001111111000000001111111111000000000000000000000000000000000000000
00000000000000000000000000000000000000000011111111111111111111111111111111111111111111111111111111111111111100000000000011111111111100001111111000000011111111111000000000000000000000000000000000000000
00000000000000000000000000000000000000000001111111111111111111110010000001111111111111111110000011101111111000000000000011111111000000001111111100000011111100111000000011100000000000000000000000000000
00000000000000000000000000000000000000000001111111111111100011100000000000000000111011111100000011111111110000000000000011111110000000000111111000000011111100111000000011100000000000000000000000000000
00000000000000000000000000000000000000000000111111111110000100011000000000000000011011111100000000001111110000000000000011111110000000000111111000000001111111110000000000000000000000000000000000000000
00000000000000000000000000000000000000000000000010000000001110111000000000000000011111111000000000001111110000000000000011111110000000000011111000000001111111000000000000000000000000000000000000000000
00000000000000000000000000000000000000000000000000000000011111110000000000000000111111111000000000001111110000000000000111111100000000000001111100000001111111000000000000000000000000000000000000000000
00000000000000000000000000000000000000000000000000000000111111100000000000000001111111111000000000000111110000000000000011111100000000000001111100000011111111100000000000000000000000000000000000000000
00000000000000000000000000000000000000000000000000000011111111000000000000000001111111111000000000000111111110000000000011111000000000000000111100011111111111100000000000000000000000000000000000000000
00000000000000000000000000000000000000000000000000000111111110000000000000000011111111110000000000000011111110000000011111100000000000000000011100011111111111000000000000000000000000000000000000000000
00000000000000000000000000000000000011100000000000111111111100000000000000000011111111110000000000000011111000000000111111000000000000000000001110111111111110000000000000000110000000000000000000000000
00000000000000000000000000000000000111111110000001111111110000111000000000000111111111110000000000000001111000000001111111000000000000000000000111111111111110000000000000000111000000000000000000000000
00000000000000000000000001110000001111111111110001111111100000111000000000000111111111100000000000000000111100000011111110000000000000000000000011111111111100000000000000000000000000000000000000000000
00000000000000000000000001110000001111111111111011111110000000000000000000000111111111100000000000000000010000001111111000000000000000000000000000011111111000000000000000000000000000000000000000000000
00000000000000000000000000000000000111111111111111111000000000000000000000000111111111100000000000000000000000011111110000000000000000000001110000001111110000000000000000000000000000000000000000000000
00000000000000000000000000000000000111111111111111000000000000000000000000001111111111100000000000000000000000000011110000000000000000000001110000000010000000000000000000000000000000000000000000000000
00000000000000000000000000000001110011111111101100000000011100000000000000001111111111000000000000000000000000000000000000000000000000000000000000000000000000111000000000000000000000000000000000000000
00000000000000000000000000000001110001110110000000000000011100000000000000011111111111000000000000000000000000000000000000000000000000000000000000000000000000111000000000000000000000000000000000000000
00000000000000000000000000000000000000000000000000000000000000000000000000111111111110000000000000000000000000000001110000000000000000000000000000000000000000000000000000000000000000000000000000000000
00000000000000000000000000000000000000000000000000000000000000000000000000111111111110000000000000000000000000000001110000000000000000000000000000000000000000000000000000000000000000000000000000000000
00000000000000000000000000000000000000000000000000000000000000000000000000011111111110000000000000000000000000000000000000000000000000000000000000000000000000000000000000000000000000000000000000000000
00000000000000000000000000000000000000000000000000000000000000000000000000011111111110000000000000000000000000000000000000000000000000000000000000000000000000000000000000000000000000000000000000000000
00000000000000000000000000000000000000000000000000000000000000000000000000011111111110000000000000000000000000000000000000000000000000000000000000000000000000000000000000000000000000000000000000000000
00000000000000000000000000000000000000000000001110000000000000000000000000011111111110000000000000000000000000000000011100000000000000000000000000000000000000000000000000000000000000000000000000000000
00000000000000000000000000000000000000000000001110000000000000000000000000011111111000000000000000000000000000000000011100000000000000000000000000000000000000000000000000000000000000000000000000000000
00000000000000000000000000000000000000000000000000000000000000000000000000011111000000000000000000000000000000000000000000000000000000000000000000000000000000000000000000000000000000000000000000000000
00000000000000000000000000000000000000000000000000000000000000000000000000000000000000000000000000000000000000000000000000000000000000000000000000000000000000000000000000000000000000000000000000000000
00000000000000000000000000000000000000000000000000000000000000000000000000000000000000000000000000000000000000000000000000000000000000000000000000000000000000000000000000000000000000000000000000000000
00000000000000000000000000000000000000000000000000000000000000000000000000000000000000000000000000000000000000000000000000000000000000000000000000000000000000000000000000000000000000000000000000000000
00000000000000000000000000000000000000000000000000000000000000000000000000000000000000000000000000000000000000000000000000000000000000000000000000000000000000000000000000000000000000000000000000000000
00000000000000000000000000000000000000000000000000000000000000000000000000000000000000000000000000000000000000000000000000000000000000000000000000000000000000000000000000000000000000000000000000000000
