P1
200 70
00000000000000000000000000000000000000000000000000000000000000000000000000000000000000000000000000000000000000000000000000000000000000000000000000000000000000000000010000000000000000000000000000000000
00000000000000000000000000000000000000000000000000000000000000000000000000000000000000000000000000000000000000000000000000000000000000000000000000000000000000000011110000000000000000000000000000000000
00000000000000000000000000000000000000000000000000000000000000000000000000000000000000000000000000000000000000000000000000000000000000000000000000000000000000011111111000000000000000000000000000000000
00000000000000000000000000000000000000000000000000000000000000000000000000000000000000000000000000000000000000000000000000000000000000000000000000000000000001111111111000000000000000000000000000000000
00000000000000000000000000000000000000000000000000000000000000000000000000000000000000000000000000000000000000000000000000000000000000000000000000000000001111111111000000000000000000000000000000000000
00000000000000000000000000000000000000011111111111111111111111111111111111111111100000000000000000000000000000000000000000000000000000000000000000000000111111111000000000000000000000000000000000000000
00000000000000000000000000000000011111111111111111111111111111111111111111111111111111111111110000000000000000000000000000000000000000000000000000111111111111100000000000000000000000000000000000000000
00000000000000000000000000000000011111111111111111111111111111111111111111111110111111111111111111111111111111111100000000000000000000000000000111111111111000000000000000000000000000000000000000000000
00000000000000000000000000000000011111111111111111111111111111111111110011111100011111111111111111111111111111111111111111111111111111111000001111111111110000000000000000000000000000000000000000000000
00000000000000000000000000000000010000001100000000000000000111111011100000111100000000111111111111111111111111111111111111111111111111111000111111100000000000000000000000000000000000000000000000000000
00000000000000000000000000000000000000001100000000000000000111111011000100111100000000000000000000001111111111111111111100011111111111111000100000000000000000000000000000000000000000000000000000000000
00000000000000000000011111100000000000001100000000000000011111111111101111111100000000000000000000000111110000000000001000001111111111000000000000000000000000000000000000000000000000000000000000000000
00000000000000000000011111100000000000000000000000000000011111111111111111111110000000000000000000001111110000000000000000000000000000000000000000000000000000000000000000000000000000000000000000000000
00000000000000000000000000000000000000000000000000000000111111111111000111111111000000000000000000001111100000000000000000000000000000000000000000000000000000000000000000000000000000000000000000000000
00000000000000000000000000000000000000011100000000000001110111111110000111111111000000000000001111011111100000000000000000000000000000000000000000000000000000000000000000000000000000000000000000000000
00000000000000000000000000000000000000000000000000000011110111111100011111111111100000000011111111111111100000000000000000000000000000000000000000000000000000000000000000000000001000000000000000000000
00000000000000000000000000000111000000000000000000000111111111111000111111111111100000011111111111111111100000000000000000000000000000000000000000000000000000000000000000000000001000000000000000000000
00000000000000000000000000000000000000000000000000001111111111100000011111111111100000011111111110011111100000000000000000000000000000000000000000000000000000000000000000000000000000000000000000000000
00000000000000000000000000000000000000000000000000001111111111000000001111111111100000111111111100001111100000000000000000000000000000000000000000000000000000000000000000000000000000000000000000000000
00000000000000000000000000000000000000000000000000011111111111000000000111111111100000111111100000001111000000000000000000000000000000000000000111111000000000000111000000000000000000000000000000000000
00000000000000000000000000000000000000000000000000111111111110011100000111111111100000011110000000011111000000011111111000000000000000000000011111111111000000000111000000000000000000000000000000000000
00000000000000000000000000000000000000000000000000011111111100011100000111111111100000000000000000011110000001111111111111100000000000000001111111111111110000000000000000000000000000000000000000000000
00000000000000000000000000000000000000000000000000111111111100000000000111111111000000000000000000111110000000011001111111111100000000000011111111111111110000000000000000000000000000000000000000000000
00000000000000000000000000000000000000000000000001111111111100000000000111111111000000000000000000111100000000010000111111111110000000000011110000111111111000000000000000000000000000000000000000000000
00000000000000000000000000000000000000000000000001111111111000000000000111111111100000000000000001111100000011110000001111111111000000000011100000001111111100000000000000000000000000000000000000000000
00000000000000000000000000000000000000011100000011111111111000000011110011111111110000000000000001111100000000110000000011111100100000000001000000000011111111100000000000000000000000000000000000000000
00000000000000000000000000000000000000011100000010011111111000000011110011111111110000000000000011100000000000010000000001111101111000000000000000000011111101110000000000000000000000000000000000000000
00000000000000000000000000000000000000000000000000011111111000000000001111111111110000000000000111100000000000000000000000111111111110000000000000000001111101111000000000000000000000000000000000000000
00000000000000000000000000000000000000000000000011111111111000000000011111110111110000000000000111110000000000000000000000111111011110000000000000000001111111111000000000000000000000000000000000000000
00000000000000000000000000000000000000000000000011111111111000000000011111110111110000000000000011110000000000000000000000011111011100000000000000000000111111111100000000000000000000000000000000000000
00000000000000000000000000000000000000000000000011111111111000000000111111111111100000000000000011100000000000000000000000011111111100000000000000000000111111111100000000000000000000000000000000000000
00000000000000000000000000000000000000000000000011111111111100000011111111111111100000000000011111000000000000000000000000011111111100000000000000000000001111111100000000000000000000000000000000000000
00000000000000000000000000000000000001110000000011111111111110000011111110111100000000000000111111000000000000000000000000111111100100000000000000000000001111111100000000000000000000000000000000000000
00000000000000000000000000000000000001110000000011111111111111000111111110111000000000000000111110000000000000000000000001111111101111000000000000000001111111011100000000000000000000000000000000000000
00000000000000000000000000000000000000000000000011111111111111101111111111111100000000000001111100000000000000000000011111111111111111000000000000000001111111001001110000000000000000000000000000000000
00000000000000000000000000000000000000000000000011111111111111111111111111111111000000000001111100000000000000000000011111111111111000000000000000000011111111111000110000000000000000000000000000000000
00000000000000000000000000000000000000000000000001111111111011111111111111111111000000000001111000000000000000000000001111111111110000000000000000001111111111110000000000000000000000000000000000000000
00000000000000000000000000000000000000000000000001111111111011111111111111111111000000000011111000000000000000000000000111111111110000000000000001111111111111000000000000000000000000000000000000000000
00000000000000000000000000000000000000000000000000111111111111111111100111111110000000000111110000000000000000000000000001111111111000000000000000111111111110000011100000000000000000000000000000000000
00000000000000000000000000000000000000000000000000011111111111111111000111111100000000001111110000000001110000000000000000111111111100000110001110111111111110010000000000000000000000000000000000000000
00000000000000000000000011100000000000000000000000001111111111111110001111111000000000001111100000000000000000000000000000111111111000000110001110011110111111110000000000000000000000000000000000000000
00000000000000000000000011100000000000000000000000001111101111111100001111111000000000011111100000000000000000000000000000001111111000000000000000000100011111100000000000000000000000000000000000000000
00000000000000000000000000000000000000000000000000001111000111100000001111111110000000011111100000000000000000000000000000000111111111000000000000000000111111110000000000000000000000000000000000000000
00000000000000000000000000000000000000000000000000000000000000000000001111111110000000111111000000000000000000000000000000000000111111000000000000000000111111111100000000000000000000000000000000000000
00000000000000000000000000000000000000000000000000000000000000000000001111111110000000111111000000000000000000000000000000000000111111100000000000000000111111111110000000000000000000000000000000000000
00000000000000000000000000000000000000000000000000000000000000000000001111111100000000111111000000000000000000000001100000000001111111100000000000000000011111111110000000000000000000000000000000000000
00000000000000000000000000000000000000000000000000000000000000000000011111111100000000011110000000000000000000000111100000000001111110000000000000000000001111111110000000000000000000000000000000000000
00000000000000000000000000000000000000000000000000000000000000000000001111111000000000111110000000000000000000001111110000000000111110000000000000000000000111111110000000000000000000000000000000000000
00000000000000000000111000000000000000111000000000000000000000000010011111110000000011111100000000000000000000001111111000000000001111100000000000000000000111111110000000000000000000000000000000000000
00000000000000000000000111000000000000111000000000000000000110110111111111110000000011111100000000000000000000001111111110000000001111000000000000000000000111111110000000000000000000000000000000000000
00000000000000000000000111000000000000110000000000000001000001111111111111100000000001111000000000000000000000000111111111000000111111000000000000000000000111111110000000000000000000000000000000000000
00000000000000000000000000000000000001110000000000011111110011110011111110000000000000000000000000000000000000000011111111000000111110000000000000000000000111111110000000000000001110000000000000000000
00000000000000000000000000000000111001110000000000011111111111100001111100000000000000000000000000000000000000000001111111110001111110000000011000000000000111111100000000000000001110000000000000000000
00000000000000000000000000000000110000000000000000111111111111100011111110000000000000000000000000000000000000000000011111111111111100000000000110000000000111111100000000000000000000000000000000000000
00000000000000000000000000000000000000000000000000111111111111111111111100000000000000000000000000000000000000000000000111111111111000000011001111000000000111111000000000000000000000000000000000000000
00000000000000000000000000000000000000000000000000111111111111111111111000000000000000000000000000000000000000000000000000011111000000000011111111100000000111110000000000000000000000000000000000000000
00000000000000000000000000000000000000000000000000011111111111101111110000000000000000000000000000000000000000000000000000000000000000000011111111110000000111100000000000000000000000000000000000000000
00000000000000000000000000000000000000000000000000001111111111001110000000000000000000000000000000000000000000000000000000000000000000000001111111111000000001000000000000000000000000000000000000000000
00000000000000000000000000000000000000000000000000001111111100111100000000011100000000000000000000000000000000000000000000001110000000000000111111111111110000000000000000000000000000000000000000000000
00000000000000000000000000000000000000000000000000000011111000000000000000011100000000000000000000000000000000000000000000001110000000000000011111111111111100000000000000000000000000000000000000000000
00000000000000000000000000000000000000000000000000000000011000000000000000000000000000000000000000000000000000000000000000000000000000000000001111111111100000000000000000000000000000000000000000000000
00000000000000000000000000000000000000000000000000000000000000000000000000000000000000000000000000000000000000000000000000000000000000000000000000000000000000000000000000000000000000000000000000000000
00000000000000000000000000000000000001000000000000000000000000000000000000000000000000000000000000000000000000000000111000000000000000000000000000000000000000000000000000000000000000000000000000000000
00000000000000000000000000000000000001000000000000000000000000000000000000000000000000000000000000000000000000000000111000000000000000000000000000000000000000000000000000000000000000000000000000000000
00000000000000000000000000000000000000000000000000000000000000000000000000000000000000000000000000000000000000000000000000000000000000000000000000000000000000000000000000000000000000000000000000000000
00000000000000000000000000000000000000000000000000000000000000000000000000000000000000000000000000000000000000000000000000000000000000000000000000000000000000000000000000000000000000000000000000000000
00000000000000000000000000000000000000000000000000000000000000000000000000000000000000000000000000000000000000000000000000000000000000000000000000000000000000000000000000000000000000000000000000000000
00000000000000000000000000000000000000000000000000000000000000000000000000000000000000000000000000000000000000000000000000000000000000000000000000000000000000000000000000000000000000000000000000000000
00000000000000000000000000000000000000000000000000000000000000000000000000000000000000000000000000000000000000000000000000000000000000000000000000000000000000000000000000000000000000000000000000000000
00000000000000000000000000000000000000000000000000000000000000000000000000000000000000000000000000000000000000000000000000000000000000000000000000000000000000000000000000000000000000000000000000000000
