P1
200 70
00000000000000000000000000000000000000000000000000000000000000000000000000000000000000000000000000000000000000000000000000000000000000000000000000000000000000000000000000000000000000000000000000000000
00000000000000000000000000000000000000000000000000000000000000000000000000000000000000000000000000000000000000000000000000000000000000000000000000000000000000000000000000000000000000000000000000000000
00000000000000000000000000000000000000000000000000000000000000000000000000000000000000000000000000000000000000000000000000000000000000000000000000000000000000000000000000000000000000000000000000000000
00000000000000000000000000000000000000000000000000000000000000000000000000000000000000000000000000000000000000000000000000000000000000000000000000000000000000000000000000000000000000000000000000000000
00000000000000000000000000000000000000000000000000000000000000000000000000000000000000000000000000000000000000000000000000000000000000000000000000000000000000000000000000000000000000000000000000000000
00000000000000000000000000000000000000000000000000000000000000000000000000000000000000000000000000000000000000000000000000000000000000000000000000000000000000000000000000000000000000000000000000000000
00000000000000000000000000000000000000000000000000000000000000000000000000000000000000000000000000000000000000000000000000000000000000000000000000000000000000000000000000000000000000000000000000000000
00000000000000000000000000000000000000000000000000000000000000000000000000000000000000000000000000000000000000000000000000000000000000000000000000000000000000000000000000000000000000000000000000000000
00000000000000000000000000000000000000000000000000000000000000000000000000000000000000000000000000000000000000000000000000000000000000000000000000000000000000000000000000000000000000000000000000000000
00000000000000000000000000000000000000000000000000000000000000000000000000000000000000000000000000000000000000111111110000000000000000000000000000000000000000000000011100000000000000000000000000000000
00000000000000000000000000000000000000000000000000000000000000000000000000000000000000000000000000000000000001111111110000000000000000000000000000000000000000000000011100000000000000000000000000000000
00000000000000000000000000000000000000000000000000010000000000000000000000000000000000000000000000000000000011111111111000000000000000000000000000000000000000000000000000000000000000000000000000000000
00000000000000000000000000000000000000000000000001110000000000000000000000000000000000000000000000000000000111111111111000000000000000000000000000000000000000000111100110000000000000000000000000000000
00000000000000000000000000000000000000000000000000000000000000000000000000000000000000000000000000000000000111111111111000000000000000000000000000000000000000001111111111000000000000000000000000000000
00000000000000000000000000000000000000000000000000000000000000000000000000000000000000000000000000000000000111111111111000000000000000000000000000000000000000011101111111000000000000000000000000000000
00000000000000000000000000000000000000000000000000000000000000000000000000000000000000000000000000000000000011111111111000000000000000000000000000000000000000011101111111000000000000000000000000000000
00000000000000000000000000000000000000000000000000000000000000000000000000000000000000000000000000000000000011111111111000000000000000000000001110000000000000111111111111000000000000000000000000000000
00000000000000000000000000000000000000000000000000000000000000000000000000000011100000000000000000000000001111111111111000000000000000111000000010000000000001111111111111000000000000000000000000000000
00000000000000000000000000000000000100000010000000000000001100000000000000000011100000000000000000000000011111111111110000000000000000111000000000000000000001111111111111000000000000000000000000000000
00000000000000000000000000100000001111000010000000000000001111111110000000000000000000000000000000000000111111111100100000000000000000011000000000000000000011111111111111111100000000000000000000000000
00000000000000000000000011111110001111000000000000000000001101111111111111000000000000000000000000000000111111111100000000000000000000011100000000000000000111111111111111011100000000000000000000000000
00000000000000000000011111111111000011100000000000000000001101111111111111111111100110000000000000000001111111111111001100000000110000011100000000000000000011111111111111000000000000000000000000000000
00000000000000000000011111111111110011111100000000000000001111111111111111111111111110000000000000000001111111111111111100000000110000000000000000000000000011111111111110000000000000000000000000000000
00000000000000000000111111111111111111111100000000000000000111111111111111111111111110000000000000000011111111111111111100000000000000000000000000000000111111111111111110111000000000000000000000000000
00000000000000000001111111011110001111111100000000000000000111111111111111111111111110011100000000000011111111111111111100000000000000000000000000000000111111111111111110000000000000000000000000000000
00000000000000000011111111001000000111111110000000000000001111111111111111111111111110011100000000000000011110011111111100000000000000000000000000000001111111111111111110000000000000000000000000000000
00000000000000000011111111110000000011111111111000000000001111111111111011111111111110000000000000000000001100011111111100000000000000000000000000000000111111111111111110000000000000000000000000000000
00000000000000000011111111001000000011111111111000000000001111101111110001111111111110000000000000000110001100011111111110000000000000000000000000000000110001111111111110000000000000000000000000000000
00000000000000000011110111001000000011111111110000000000000001000111100001111111111110000000000000000111011100011111111110000000000000000000000000001110000000011101111000000000000000000000000000000000
00000000000000000011110111111000000011111111111000000000000000000001100000000001111100001110000000001111111100011111111110000000000000000000000000011111001100011101111000000000000000000000000000000000
00000000000000000011111111111100000011111111111000001110001110000001110000000001111000001110000000001111111100011111111110000000000000000000000000111111111100011111111110000000000000000000000000000000
00000000000000000011110111111100000011111111111000001110001110000001110000000011111100000000000000011111111000011101111110000000000000000000000001111111111000111111111100000000000000000000000000000000
00000000000000000111110011111000000001111111111000000000000010000000000000000111111000000000000000011111100000011101111110000000000000000000000001111111110001111011111100000000000000000000000000000000
00000000000000000111111001110001110001111110111100001000000000000000000000001111111000000000000000111111000000011111111110000000000000000000000100111111100011110001111100000000000000000000000000000000
00000000000000000111111101110001110001111110111111111000000000000000000000001111110000000000000000111110000000011111111110000000000000000111011110111111000111110000011100000000000000000000000000000000
00000000000000000111111111111000000011111111111111110000000000000000000000011111110000000000000000111111000000001111111100000000000000000111111111111110011111111000011100000000000000000000000000000000
00000000000000000111111111111000000001111111111111110000000000000000000000011111100000000000000001110111000000001111111110000000000000000011111111111101111111111111111100000000000000000000000000000000
00000000000000000011111111111000000001111111110011111110000000000000000000011111100000000000000001110111000000001111111111001110000000000001111111111111111111111111111100000000000000000000000000000000
00000000000000000011111111111000000000010011110000111100000000000000000000111111000000000000000011111110000000001111111111111100000000000001111111111111111101111111111100000000000000000000000000000000
00000000000000000011111111111000000000000011111100011110011100000000000001111111000000000000000011111110000000001111111111111100000000000000111111111111111000111111100100000000000000000000000000000000
00000000000000000011111111111100000111000111111100000111111111000000000001111111100000000000000111111110000000111111111111111110000000000001111111111111111000111111000000000000000000000000000000000000
00000000000000000001111111111100011000111111111100000001111111111000000011111111100000000000000111111110000001111111111111111111000000000111111001111111111111111111000000000000011100000000000000000000
00000000000000000001111111111100111101111111100000000000001111111111000111111100000000000000000111111111111111111111111111111111100000001111111000011111111111111111100000000000011110000000000000000000
00000000000000000000111111111101111111111111100000000000000011111111111111111100000000000000001111111110111111111101111111111111111111111111111110011111111111111111111100000000001110000000000000000000
00000000000000000000011111111111111001111111111000000000000000011111111111111111111111111111111111111100011111111101111111111111111111111111111111111111111111111111111100000000000000000000000000000000
00000000000000000000000011111111100000111111111000000000000000000011111111111111111111111111111111100100111101111111111111111111111111111110111110111111111111101111111110000000000000000000000000000000
00000000000000000000000001110000000001111111111000000000000000000000011111111111111111111111111011000011111101111111111111111000000001110000011110111111111111001111111111100000000000000000000000000000
00000000000000000000000000000000000001111111110000000000000000000000011111111111111111111111110001100111111111111111111111100000000000000000001111111111111110011111111111110000000000000000000000000000
00000000000000000000000000000000000001111111100000000000000000000000001100000000000000000000000000111111111111111111111111100000000000000000000000011111111110111111111111111100000000000000000000000000
00000000000000000000000000000000000001111111100000000000000000000000011100000000000000000000000001111111111111111111111111110000000000000000000000000111111111111111111111111101110000000000000000000000
00000000000000000000000000000000000011111111100000000000000000000000111111000000000000000000001111111111110000000111111111110000000000000000000000000000111111111111111111111101110000000000000000000000
00000000000000000000000000000000000011111111000000000000000000000001111111000000000000000000001111111111100000000111111111100000000000000000000000011100000111111111111111111100000000000000000000000000
00000000000000000000111000000000000111111110000000000000000000000001111110000000000000000000001111110000000000000111111111100000000000000000000000011100000111111111111111111100000000000000000000000000
00000000000000000001111100000000001111100000000000000000000000000011111110000000000000000000001111000000000000000011111111100000000000000000000000000000000111111111111111111100000000000000000000000000
00000000000000000001111100000000011110000000000000000011000000000011111110000000000000000000000000000000000000000011111111110000000000000000000000000000000111111111111111111100000000000000000000000000
00000000000000000011111110000001111110000000000000000011000000000111111100000000000000000000000000000000000000000111111111110000000000000000000000000000000111101111111100011100000000000000000000000000
00000000000000000011111111111111111111000000000000000000000000000111111000000000000000000000000000000000000000000111011111100000000000000000000000000000000111101111111000001000000000000000000000000000
00000000000000000001111111111111111100000000000000000000000000000111110000000000000000000000000000000000000000000110001110000000000000000000000000000000000111111111111000000000000000000000000000000000
00000000000000000001001111111111111000000000000000000000000000001111110000000000000000000000000000000000000000000010011000000000000000000111000000000000000001111111111000000000000000000000000000000000
00000000000000000001001111111111111000000000000000000000000000001111110000000000000000000000000000000000000000000000111000000000000000000111000111000000000000111111111100000000000000000000000000000000
00000000000000000001111111111100111000000000000000000000000000001111100000000000000000000000000000000000000000000000001000000000000000000000000111000000000001111111111100000000000000000000000000000000
00000000000000000001111111100000000000000000000000000000000000000000000000011100000000000000000000000000000000000000000000000000000000000000000000000000000000011111111000000000000000000000000000000000
00000000000000000000000000000000000000000000000000000000000000000000000000011100000000000000000000000000000000000000000000000000000000000000000000000000000000000111111000000000000000000000000000000000
00000000000000000000000000000000000000000000000000000000000000000000000000000000000000000000000000000000000000000000000000000000000000000000000000000000000000000000011100000000000000000000000000000000
00000000000000000000000000000000000000000000000000000000000000000000000000000000000000000000000000000000000000000000000000000000000000000000000000000000000000000000000000000000000000000000000000000000
00000000000000000000000000000000000000000000000000000000000000000000000000000000000000000000000000000000000000000000000000000000000000000000000000000000000000000000000000000000000000000000000000000000
00000000000000000000000000000000000000000000000000000000000000000000000000000000000000000000000000000000000000000000000000000000000000000000000000000000000000000000000000000000000000000000000000000000
00000000000000000000000000000000000000000000000000000000000000000000000000000000000000000000000000000000000000000000000000000000000000000000000000000000000000000000000000000000000000000000000000000000
00000000000000000000000000000000000000000000000000000000000000000000000000000000000000000000000000000000000000000000000000000000000000000000000000000000000000000000000000000000000000000000000000000000
00000000000000000000000000000000000000000000000000000000000000000000000000000000000000000000000000000000000000000000000000000000000000000000000000000000000000000000000000000000000000000000000000000000
