P1
200 70
00000000000000000000000000000000000000000000000000000000000000000000000000000000000000000000000000000000000000000000000000000000000000000000000000000000000000000000000000000000000000000000000000000000
00000000000000000000000000000000000000000000000000000000000000000000000000000000000000000000000000000000000000000000000000000000000000000000000000000000000000000000000000000000000000000000000000000000
00000000000000000000000000000000000000000000000000000000000000000000000000000000000000000000000000000000000000000000000000000000000000000000000000000000000000000000000000000000000000000000000000000000
00000000000000000000000000000000000000000000000000000000000000000000000000000000000000000000000000000000000000000000000000000000000000000000000000000000000000000000000000000000000000000000000000000000
00000000000000000000000000000000000000000000000000000000000000000000000000000000000000000000000000000000000000000000000000000000000000000000000000000000000000000000000000000000000000000000000000000000
00000000000000000000000000000000000000000000000000000000000000000000000000000000000000000000000000000000000000000000000000000000000001111111100000000000000000000000000000000000000000000000000000000000
00000000000000000000000000000000000000000000000000000000000000000000000000000000000000000000000000000000000000000000000000000011111111111111111111100000000000000000000000000000000000000000000000000000
00000000000000000000000000000000000000000000000000000000000000000000000000000000000000000000000000000000000000000000000011111111111111111111111111111111110000000000000000000000000000000000000000000000
00000000000000000000000000000000000000000000000000000000000000000000000000000000000000000000000000000000000000001111111111111111111111111111000111111111100011111100000000000000000000000000000000000000
00000000000000000000001110000000000000000000000000000000000000000000000000000000000000000000000000000000000001111101111111111110000000000000000000111111100011111111000000000000000000000000000000000000
00000000000000000000001110000000000000000000000000000000000000000000000000000000000000000000000000000000000001111000111110000000000000000000000000000000000001111111110000000000000000000000000000000000
00000000000000000000000000000000000000000000000000000000000000000000000000000000000000000000000000000001110011111100000000000000000000000011100000000000000000011111111100000000000000000000000000000000
00000000000000000000000000000000000000000000000000000000000000000000000000000000000000000000000000000111111111000000000000000000000000000011100000000000000000001111111100000000000000000000000000000000
00000000000000000000000000000000000000000000000000000000000001110000000000000000000000000000000000011001111000000000000000000000000000000000000000000000000000001111111000000000000000000000000000000000
00000000000000000000000000000000000000000000000011110000000001110000001111000000000000000000000001111100100000000000000000000000000000000000000000000000000000000000001000000000000000000000000000000000
00000000000000000000000000000000000000000000011111111100000000111000111111111000000000000000000011111110000000000000000000000000000000000000000000000000000000000000000000000000000000000000000000000000
00000000000000000000000000000000000000000011111111111110000000011111111111111100000000000000001111111000000000000000000000000000000000000000000000000000000000000000000000000001110000000000000000000000
00000000000000000000000000000000000000001111111111111111000000011111111111111110000000000000111111100000000000000000000000000000000000000111000100011000000110011111110000000001110000000000000000000000
00000000000000000000000000000000000000011111111111111111000000111111111111111111100000000011111110000000000000000000000000000000000000001111111111111100011111111111111000000000000000000000000000000000
00000000000000000000000000000000000000001111111111111111000001111111111111111111100000011111111100000000000111110000011100000000000000001111111111111111111111111111111000000000000000000000000000000000
00000000000000000000000000000000000111001111111111111111000001111111000000111111110001111111111100000000111111111111111100000000000000001111111111111111111111111111111000000000000000000000000000000000
00000000000000000000000000000000001111100111111111101111000011111110000000011111111111111111000000000001111111111111111000000000000000001111111111111111111111111111111000000000000000000000000000000000
00000000000000000000000000000000000111110011001111101111000011111100000000001111111111111000000000000001111111110001111100000000000000000111111111111111111111111111111000000000000000000000000000000000
00000000000000000000000000000000001111111000000111111111000011111100000000000111111111110000000000000011111110000000111110000000000000000111111111111111111111111111110000000000000000000000000000000000
00000000000000000000000000000011111111100000000111111111000011111100000000000011111111100000000000000011111100000000011111100000000000000111111111100111111100000110000000000000000000000000000000000000
00000000000000000000000000000111111111000000000111111111000111111100000000000011111111000000000000000111111100000000001111111000000000000111111101000010000000000000000000000000000000000000000000000000
00000000000000000000000000000111111110000000000111111111000111111111100000000011111110000000000000000011111000000000000111110000000000000111000000000000000000000000000000000000000000000000000000000000
00000000000000000000000000000111111100000000000011111110000011111111100000000111111100000000000000000111111000000000000111110000000000000111000000000000000000000001110000000000000000000000000000000000
00000000000000000000000000001111111000000000000001111110000011111110000000011111001100000000000000000111111100000000000001111000000000001111110000000000000000000001110000000000000000000000000000000000
00000000000000000000000000011111111000000000000011111100000011111110000001111111000000000000000000000111110000000000000001111000000001111111000000000000000000000000000000000000000000000000000000000000
00000000000000000000000000011111110000000000001111111100000001111111000011111111100000000000000000000111110000000000000011111000000001111111000000000111111111100000000000011100111000000000000000000000
00000000000000000000000000011111110000000000111111111100000001111111111111111111111000000000000000000111111000000000000011111000000000000111110000111111111111100011111000011100111000000000000000000000
00000000000000000000000000011111110000000001111111111100000000111111111111111111111000000000000000000111111000000000000011111000000000000111111001111111111111110111111100000000000000000000000000000000
00000000000000000000000000111111110000000011111111111000000000011111111111111111110000000000000000000111111000111000000011111100000000000111111111111111111111111111101111000000000000000000000000000000
00000000000000000000000000011111100000001111111011110000000000001111111111111111111000000000000000000011111000111000000011111000000000000111110111111111111111111111101111000000000000000000000000000000
00000000000000000000000000001111110011111111111011110000000000001111101111111111111000000000000000000011111000000000000011111000000000000111110111100000011111111111111111000000000000000000000000000000
00000000000000000000000000011111111111111111111111110000000000011111101111111111111110000000000000000011111000000000000011111000000000000111111110000000000111111111101111100000000000000000000000000000
00000000000000000000000000011110011111111111111111100000000000111111111110011111111111000000000000000011111000000000000011111000000000000011111100000000000011111111101111110000000000000000000000000000
00000000000000000000000000001110011111111111111111100000000001111111110000000011111110000000000000000011111000000000000011111000000000000001111000000000000001111111111111110000000000000000000000000000
00000000000000000000000000000111111111111111111111000000000001111111100000000001111100000000000000000011111000000000000011111000000000000011110000000000000000111111111111110000000000000000000000000000
00000000000000000000000000000001111111101111111111000000000011111111000000000000111110111000000000000001110000000000000011110000000000000000000000000000000000111111111111110000000000000000000000000000
00000000000000000000000000000000000000001111111110000000000111111110000000000000001111111000000000000001110000000000000011110000000000000000000000000000000000111111111111110000000000000000000000000000
00000000000000000000000000000000000000001111101110000000001111011110000000000001000111111100000000000001111000000000000111110000000000000000000000000000000000011111111111110000000000000000000000000000
00000000000000000000000000000000000000111111100000000000011111011110000000000001110111111110000000000000111100000000000111110000000000000000000000000000000000001111111111110000000000000000000000000000
00000000000000000000000000000000000001111111110000000000111111111110000000000000000011111110000000000000011100000000000111110000000000000000000000000000000000001111111111110000000000000000000000000000
00000000000000000000000000000000000111111111110000000011111111111110000000000000000011111110000000000000000000000000000111110000000000000000000000000000000000111111111111110000000000000000000000000000
00000000000000000000011110000000011111111111100000000111111111111110000000000000000011111111000000000000000000000000000011100000011100000000000000000000000000011011111111100000000000000000000000000000
00000000000000000001111111111111111111111111000000001111110001111110000000000000000011111111000000000000111100000000000011100000011100000000000000000000000000011011111111000000000000000000000000000000
00000000000000000001110111111111111111111110000000011111100000011111110000000000000011111111000000000000111100000000000111100000000000000000000000000000000000111111111111000000000000000000000000000000
00000000000000000001110111101110011111111000000000111111000000011111110000000000000011111111000000000000111110000000001111000000000000001110000000000000000001111110111100000000001110000000000000000000
00000000000000000001111111101100001111110000000001111110000000111110111000000000000111111111000000000001111110000000001111100000000000001110000000000000000001111100111100000000001110000000000000000000
00000000000000000000111111111110011111000000000111111100000000011110111100000000001111111111000000000011111110001110011111110000000000000000000000000000000011110011111000000000000000000000000000000000
00000000000000000000001111111111110000000000001111111000000000001111111111111101111111110011000000000011111110001110011111110000000000000000110000000000000011110111110000000000000000000000000000000000
00000000000000000000000000111101000000000000000111100000000000000111111111111111111111110000000000000000011111000000011110000000000000000000110000000000000011111111100000000000000000000000000000000000
00000000000000000000000000000000000000000000000001000000000000000001111111110111111111111000000000000000001111100000111100000000000000001110000000000000001111111111000000000000000000000000000000000000
00000000000000000000000000000000000000000000110000000000000000000000111111110111111111111100000000000000000111110001111000111000000000001111000000000000011111111100000000000000000000000000000000000000
00000000000000000000000000000000000000000001111100000000000000000000001111111111110111111000000000000000000111111011111000111000000000000111111000000000001111111000000000011100000000000000000000000000
00000000000000000000000000000000000000001111111000000000000000000000000000111111100011100000000000000000000011111111110000000000000000000111100111111110011111100000000000011100000000000000000000000000
00000000000000000000000000000000000000011111110000000000000000000000000000000000111000000000000000000000000001111111000000000000000000000111101111111111111100000000000000000000000000000000000000000000
00000000000000000000000000000000000000011111000000000000000000000000000000000000011100000000000000000000000000010000000000000000000000000111111111111111111000000000000000000000000000000000000000000000
00000000000000000000000000000000000000111110000000000000000000000000000000000000011100000000000000011100000000000000000000000000000000000111111111111111000000000000000000000000000000000000000000000000
00000000000000000000000000000000000111111100000000000000000000000000000000000000000000000000000000010000000000000000000000000000000000000111111111111110000000000000000000100000000000000000000000000000
00000000000000000000000000000000001111111000000000000000000000000000000000000001000000000000000000000000000000000000000000000000000000000111111111110000000000000000000011100000000000000000000000000000
00000000000000000000000000000000001111100000000000000000000000000000000000000001110000000000000000000000000000000000000000000000000000000011111100000000000000000000000000000000000000000000000000000000
00000000000000000000000000000000011111000000000000000000000000000000000000000000000000000000000000000000000000000000000000000000000000000001000000000000000000000000000000000000000000000000000000000000
00000000000000000000000000000000111111000000000000000000000000000000000000000000000000000000000000000000000000000000000000000000000000000000000000000000000000000000000000000000000000000000000000000000
00000000000000000000000000000001111110000000000000000000000000000000000000000000000000000000000000000000000000000000000000000000000000000000000000000000000000000000000000000000000000000000000000000000
00000000000000000000000000000000011100000000000000000000000000000000000000000000000000000000000000000000000000000000000000000000000000000000000000000000000000000000000000000000000000000000000000000000
00000000000000000000000000000000001000000000000000000000000000000000000000000000000000000000000000000000000000000000000000000000000000000000000000000000000000000000000000000000000000000000000000000000
00000000000000000000000000000000000000000000000000000000000000000000000000000000000000000000000000000000000000000000000000000000000000000000000000000000000000000000000000000000000000000000000000000000
