P1
200 70
00000000000000000000000000000000000000000000000000000000000000000000000000000000000000000000000000000000000000000000000000000000000000000000000000000000000000000000000000000000000000000000000000000000
00000000000000000000000000000000000000000000000000000000000000000000000000000000000000000000000000000000000000000000000000000000000000000000000000000000000000000000000000000000000000000000000000000000
00000000000000000000000000000000000000000000000000000000000000000000000000000000000000000000000000000000000000000000000000000000000000000000000000000000000000000000000000000000000000000000000000000000
00000000000000000000000000000000000000000000000000000000000000000000000000000000000000000000000000000000000000000000000000000000000000000000000000000000000000000000000000000000000000000000000000000000
00000000000000000000000000000000000000000000000000000000000000000000000000000000000000000000000000000000000000000000000000000000000000000000000000000000000000000000000000000000000000000000000000000000
00000000000000000000000000000000000000000000000000000000000000000000000000000000000000000000000000000000000000000000000000000000000000000000000000000000000000000000000000000000000000000000000000000000
00000000000000000000000000000000000000000000000000000000000000000000000000000000000000000000000000000000000000000000000000000000000000000000000000000000000000000000000000000000000000000000000000000000
00000000000000000000000000000000000000000000000000000000000000000000000000000000000000000000000000000000000000000000010000000000000000000000000000000000000000000000000000000000000000000000000000000000
00000000000000000000000000000000000000000000000000000000000000000000000000000000000000000000000011100000000000000000011000000000000000000000000000000000000000000000000000000000000000000000000000000000
00000000000000000000000000000000000000000000000000000000000000000000000000000000000000000000000011100000000000000000011100000000000000000000000000000000000000000000000000000000000000000000000000000000
00000000000000000000000000000000000011100000000000000000000000000000000000000000000000000000000000000000000000000000011100000000000000011100000000000000000000000000000000000000000000000000000000000000
00000000000000000000000000000000000011100000000000000000000000000000000000111000000000000000000000000000000000000000000000000000000000011110000000000000000000000000000000000000000000000000000000000000
00000000000000000000000000000000000000000000000000000000000000000000000000111000000000000000000000000000000000000000000000000000000000011111110000000000000000000000000000000000000000000000000000000000
00000000000000000000000000000000000000000000000000000000000111000000000000000000000000000000000000000000000000000000000000000000000000011111111111100000000000000000000000000000000000000000000000000000
00000000000000000000000000000000000000000001110000000000001111100000000000000000000000000000000000000000000000000011110000000000000000000001111111110000000000000000000000000000000000000000000000000000
00000000000000000000000000000000000000000001110000000110000011100000000000000000000000000000000000000000001111111111111100000000000000000000011111111110000000000000000000000000000000000000000000000000
00000000000000000000000000000000000000000000000000011111000011110000000000000000000000000000000000000000011111111111111111000000000000000000000111111111111000000000000000000000000000000000000000000000
00000000000000000000000000000000000000000000000001111111111111111000000000000000000000000000000000111000111001100111111111100000000000000000000000011111111100000000000000000000000000000000000000000000
00000000000000000000000000000000000000000000000011111100001111111000000000000000000000000000000000011001111000000011111111110000001110000000000000001111111111100000000000000000000000000000000000000000
00000000000000000000000000000000000000000000000111111000000011111000000000000000000000000000000000000001111100000000111111111110001110000000000000000001111111111100000000000000000000000000000000000000
00000000000000000000000000000000000000000000001111110000000011111100000000000000000000000000000000000011111100000000011111111111000000000000001110000000000111111110000000000000000000000000000000000000
00000000000000000000000000000000000000000000011111100000000011111111111111111100000000000000000000011111111000000000001111111111110000000000001110000000000011111111000000000000000000000000000000000000
00000000000000000000000000000000000000000000111111000000000011111111111110011110000000000000000000011111110000000000000111111000000000000000000000000000000000111111000000000000000000000000000000000000
00000000000000000000000000000000000000000000111111000000000011111111111100011110000000000000000000111111100000000000000111111100000000000000000000000000000000011011000000000000000000000000000000000000
00000000000000000000000000000000000000000001110110000000000011111111111100000000111110000000000001111111100000000000000111111110000000000000000000000000111000011000000000000000000000000000000000000000
00000000000000000000000000000000000000000001110010000000000011111111111100000000011111000000000001111111000000000000000111111110000000000000000000000000111000111110000000000000000000000000000000000000
00000000000000000000000000000000000000000011111100000000000011111111111000000000000111100000000011110111000000000000000000111110000000000011100000000000000001111100000000000000000000000000000000000000
00000000000000000000000000000000000000000011111100000000000011111111111000000000000011100000000011110111000000000000000000111111000000000011100000000000000011111000000000000000000000000000000000000000
00000000000000000000000000000000000000000111111000000000000011111111111000000000000001100000000111111110000000000000000011111111000000000000000000000000000011111000000000000000000000000000000000000000
00000000000000000000000000000000000000010111111000000000000011111110111100000000000000000000000111111110000000000000000111111111000000000000000000000000000111110000000000000000000000000000000000000000
00000000000000000000000000000000000001111111111000000000000011101110000000000000000000000000001111111110000000000111111111111111000000000000000000000000000110000000000000000000000000000000000000000000
00000000000000000000000000000000000000001111111000000000000011101110000000000000000000011000001111111110001111111111111111111111100000000000000000000000001110000000000000000000000000000000000000000000
00000000000000000000000000000000000000001111111000000000000111111100001111000000000000010000001111111111111111100011111111111111111111000000000000000000011111000000000000000000000000000000000000000000
00000000000000000000000000000000000000001111110000000000000111111100000111100000000000000000011111111111111110000001111111111111111111111111100000000000100111000000000000000000000000000000000000000000
00000000000000000000000000000000000111000111110000000000000111111000000011111000000000000100111111111111111000000000000111111111111111111110000000000000110010000000000000000000000000000000000000000000
00000000000000000000000000000000000111000111110000000000001111111100000011111110000011111111111111111100000000000000000011111111111001111100000011111001111100000000000000000000000000000000000000000000
00000000000000000000000000000000000000001111110000000000001111111100001111111111100011111111110111111100000000000000000011111111110000000000111111111111111100000000000000000000000000000000000000000000
00000000000000000000000000000000000000001111111000000000000111111100011111111111110111111111100111111100000000000000000011111111000000000000000011111111111100000000111000000000000000000000000000000000
00000000000000000000000000000000000000001111111000000000000111111100000011000111111111111100011111111000000000000000000011111111000000000000000000111111111110000000111000000000000000000000000000000000
00000000000000000000000000000000000000001111110000000000001111111100000000000011111111110000011111111000000000000000000011111110000000000000000000001111111111110000000000000000000000000000000000000000
00000000000000000000000000000001110000000111110011011111111111111000111100000011111111110000011111111000000000000000000111011110000000000000000000001111111111111100000000000000000000000000000000000000
00000000000000000000000000000001110011100111111111111111111111111000111111111111111111110000011111111000000000000000000111011110000000000000000000011111100111111111000000000000000000000000000000000000
00000000000000000000000000000000000011100011111111111111000111111000111111111111100001111000011111111000000000000000000111111110000000000000000000011111000000111111110000000000000000000000000000000000
00000000000000000000000000000000000000000011111111111000001111111001111111111100000000111100011111111000000000000000000111111110000000000000000000011111000000001111111100000000000000000000000000000000
00000000000000000000000000000000000000000000111111100000001111111111111111111000000000111110011111111000000000000000001111111110000000000111000000111110000000000011111100000000000000000000000000000000
00000000000000000000000000000000000000000000000000000000001111111111111111000000000000011110011111110000000000000000001111110010000000000111000001111100000000000000111000000000000000000000000000000000
00000000000000000000000000000000011100000000000000000000001111111111111111000000000000011110011111100000000000000000001111110010000000000000000001111000000000000000001000000000000000000000000000000000
00000000000000000000000000000000111100000000000000000000001111111110000111100000000000001110111111100000000000000000001111111110000000000000000011111000000000000000000000000011100000000000000000000000
00000000000000000000000000000000111000000000000000000000110011111000000011110000000000011110111111110000000000000000001111111110000000000000000011110000000000000000000000000000000000000000000000000000
00000000000000000000000000000000000000000000000000000011110001100000000001111100000000111110011111111000000000000000001111111100000000000000000111110000000000000000000000000000000000000000000000000000
00000000000000000000000000000000000000000000000000111111001000000000000000111111000001111100011111111000000000000000001111111100000000000000000111100000000000000000000000000000000000000000000000000000
00000000000000000000000000000000000000000000000111111111011000000000000001111111111111111100001111111000000000000000011111111000000000000000001000000000000000000000000000000000000000000000000000000000
00000000000000000000000000000000000000010000011111111111111100000000000001111111111111111000001111110000000000000000011101110000000000000000011100000000000000000000000000000001110000000000000000000000
00000000000000000000000000000000000011111111111111111111111000000000000001100001111111100000001111110000000000000000011100110000000000000000011110000000000000000000000000000001110000000000000000000000
00000000000000000000000000000000011111110011110011111111110000000000000011100000000000000000001111111000000000001110011110000000000000000000011110000000000000000000000000000000000000000000000000000000
00000000000000000000000000000000011111110001100000011111100000000000000011100000000000000000000111111100000000001110111111000000000000000000111110000000000000000000000000000000000000000000000000000000
00000000000000000000000000000000011111111001111000001111000000000000000000000000000000000000000001111111100000000000111111000000000000000001111100111000000000000000000000000000000000000000000000000000
00000000000000000000000000000000011111111111111100000100000000000000000000000000000000000000000001111111100000000000011111000000000000000001111000111000000000000000000000000000000000000000000000000000
00000000000000000000000000000000000111111111111100011000000000000000000000000000000000000000000011111111000000000000011110000000000000000001111000000000000000000000000000000000000000000000000000000000
00000000000000000000000000000000000100111111110011000000000000000000000000000000000000000000000011110111000000000111111110000000000000000011110000000000000000000000000000000000000000000000000000000000
00000000000000000000000000000000000000001111100000000000000000000000000000000000000000000000000001110111100000001111111100000000000000000011110000000000000000000000000000000000000000000000000000000000
00000000000000000000000000000000000000000000000000000000000000000000000000000000000000000000000000111111111000011111111000000000000000000001110000000000000000000000000000000000000000000000000000000000
00000000000000000000000000000000000000000000000000000000000000000000000000000000000000000000000000011110111111111111110000000000000000000000000000000000000000000000000000000000000000000000000000000000
00000000000000000000000000000000000000000000000000000000000000000000000000000000000000000000000000001100111111111111100000000000000000000000000000000000000000000000000000000000000000000000000000000000
00000000000000000000000000000000000000000000000000000000000000000000000000000000000000000000000000000011111111111111000000000000000000000000000000000000000000000000000000000000000000000000000000000000
00000000000000000000000000000000000000000000000000000000000000000000000000000000000000000000000000000001111111111100000000000000000000000000000000000000000000000000000000000000000000000000000000000000
00000000000000000000000000000000000000000000000000000000000000000000000000000000000000000000000000000000000000000000000000000000000000000000000000000000000000000000000000000000000000000000000000000000
00000000000000000000000000000000000000000000000000000000000000000000000000000000000000000000000000000000000000000000000000000000000000000000000000000000000000000000000000000000000000000000000000000000
00000000000000000000000000000000000000000000000000000000000000000000000000000000000000000000000000000000000000000000000000000000000000000000000000000000000000000000000000000000000000000000000000000000
00000000000000000000000000000000000000000000000000000000000000000000000000000000000000000000000000000000000000000000000000000000000000000000000000000000000000000000000000000000000000000000000000000000
