P1
200 70
00000000000000000000000000000000000000000000000000000000000000000000000000000000000000000000000000000000000000000000000000000000000000000000000000000000000000000000000000000000000000000000000000000000
00000000000000000000000000000000000000000000000000000000000000000000000000000000000000000000000000000000000000000000000000000000000000000000000000000000000000000000000000000000000000000000000000000000
00000000000000000000000000000000000000000000000000000000000000000000000000000000000000000000000000000000000000000000000000000000000000000000000000000000000000000000000000000000000000000000000000000000
00000000000000000000000000000000000000000000000000000000000000000000000000000000000000000000000000000000000000000000000000000000000000000000000000000000000000000000000000000000000000000000000000000000
00000000000000000000000000000000000000000000000000000000000000000000000000000000000000000000000000000000000000000000000000000000000000000000000000000000000000000000000000000000000000000000000000000000
00000000000000000000000000000000000000000000000000000000000000000000000000000000000000000000000000000000000000000000000000000000000000000000000000000000000000000000000000000000000000000000000000000000
00000000000000000000000000000000000000000000000000000000000000000000000000000000000000000000000000000000000000000000000000000000000000000000000000000000000000000000000000000000000000000000000000000000
00000000000000000000000000000000000000000000000000000000000000000000000000000000000000000000000000000000000000000000000000000000000000000000000000000000000000000000000000000000000000000000000000000000
00000000000000000000000000000000000000000000000000000000000000000000000000000000000000000000000000000000000000000000000000000000000000000000000000000000000000000000000000000000000000000000000000000000
00000000000000000000000000000000000000000000010000000000000000000000000000000000000000000000000000000000000000000000000000000000000000000000000000000000000000000000111000000000000000000000000000000000
00000000000000000000000000000000000000000001110000000000000000000000000000000000000000000000000000000000000000000000000000000000000000000000000000000000000000000001111000000000000000000000000000000000
00000000000000000000000000000000000000000000000000000000000000000000000000001110000000000011100000000000000000000000000000000000000000000000000000000000000000000011111000000000000000000000000000000000
00000000000000000000000000000000000000000000000000000000000000000000000000001110000001110011100000000000000000000000000000000000000000000000000000000000000000011111111000000000000000000000000000000000
00000000000000000000000000000000000000000000000000000000000000000000000000000000011101110000000000000000000000000000000000000000000000000000000000000000000011111100111000000000000000000000000000000000
00000000000000000000000000000000000000111000000011000011110000000000000000000000011100000000000000000000000000000001111111110000000000000000000000000000111111111000000000000000000000000000000000000000
00000000000000000000000000000000000000001000001111100111111111000000000000000000001000000000000000000000000000000111001111100000000000000011110000000111111111111000000000000000000000000000000000000000
00000000000000000000000000000000000000000000011111111111111111110000000000000000000110000000000000000000000000111111101111110000100111111111111111111111111110000000000000000000000000000000000000000000
00000000000000000000000000000000000000000000111111111111111111111000000000111111100011000111000000000000000011111111111111110001000001111011111111111111110000000000000000000000000000000000000000000000
00000000000000000000000000000000000000000000011111111100011111111000000000111111110111111111111000000000000111111000111111110001100000111011111111001100000000000000000000000000000000000000000000000000
00000000000000000000000000000000000000000000011111111000001111111100000000111111111111111111111110000000011111110000000111111011110001111111111111000000000000000000000000000000000000000000000000000000
00000000000000000000000000000000000000000001111111110000001111111100000001111101111111111111111111000000111111110000000011111111111011111111111111100000000000000000000000000001110000000000000000000000
00000000000000000000000000000000000000000011111111110000001111111100000111111100111000001111111111101111111111111111111001111111111111111111111111100000000000000000000000000001110000000000000000000000
00000000000000000000000000000000000000011111111111110000001111111110001111111111000000000111111111111111111111111111111100111111111111100001111111100000000000000000000000000000000000000000000000000000
00000000000000000000000000000000000000011111111111100000001111111110001111111111000000111111111111111111111111111111111110000000000000000000111111110000000000000000000000000000000000000000000000000000
00000000000000000000000000000000000000001111111111100000001111111111001111111111111111111111111111111111111111111100000000000000000000000000111111110000000000000000011100000000000000000000000000000000
00000000000000000000000000000000000000000111111111000000001111111111001111111111111111111111111111111111111100000000000000000000000000000000011111110000000000000000011100000000000000000000000000000000
00000000000000000000000000000000000000000111111110000000001111111111111111111111111111100000001111111111111000000000000000000000000000000000011111110000000000000000000000000000000000000000000000000000
00000000000000000000000000000000000000001001111110000000001111111111111111101111100000000000000111111111111000000000000000000000000000000000111111110000000000000000000000000000000000000000000000000000
00000000000000000000000000000000000000001101111110000000001111111111111111000110000000000000000111111111110000000000000000000000000000000000100111110000000000000000000000000000000000000000000000000000
00000000000000000000000000000000000000001111111110000000011111111111111111100000000000000000000011111111110000000000000000000000000000000010000111110000000000000000000000000000000000000000000000000000
00000000000000000000000000000000000000001111111110000000111111111111110111110000000000000000000111111111110000000000000000000000000000000010001111100000000000000001110000000000000111000000000000000000
00000000000000000000000000000000000000001111111110000011111111111110111011111111000000000000001111111111110000000001110000000000000000000000011111100000000000000000000000000000000111000000000000000000
00000000000000000000000000000000000000001111111111000111111111111100111001111111110000000000011111111111111000001111111110000000000000000000011111110000000000000000000000000000111000000000000000000000
00000000000000000000000000000000000000000111111111111111011111111100000001111111111110000001111111111111111000001111111111000000000000000000011111110000000000000000000000000000111000000000000000000000
00000000000000000000000000000000000000000111111111111110011111111100000011111111111111111111111111111111111110011111111111100000000000000000011111110000000000000000111000000000000000000000000000000000
00000000000000000000000000000000000000000011111101111000111111111100011111111111111111111111111111111111111111111111111111100000000000000000011111100000000000000000111000000000000000000000000000000000
00000000000000000000000000000000000000000011111101110000111110111100111111111111111101111101111111100001111101110000011111000000000000000000011111100000000000000000000000000000000000000000000000000000
00000000000000000000000000000000000000000011111111111001111110111001111011111111111000111101111111000001111000000000001111100000000000000000011111110000000000000000000000000000000000000000000000000000
00000000000000000000000000000000000000000011111111111111111111110011111011111100000001111111110000000011111000000000000111111000000000000000011111110000000111000000000000000000000000000000000000000000
00000000000000000000000000000000000000000111111111111111111111110111111111100000000000011111111000000011111000000000000111111000000000000000001111110000000111000000000000000000000000000000000000000000
00000000000000000000000000000000000000011111111000000011111111110111111111000000000000001111111100000011110000000000000111111000000000000000001111100000000000000000000000000000000000000000000000000000
00000000000000000000000000000000000001111111100000000011111111110111111111000000000000000111111100000011110000000000000011111000000000000000000111110000000000000000000000000000000000000000000000000000
00000000000000000000000000000000000011111111000000000011111111100111111110000000000000000011111111000001111100000000000011110000000000000000001111111000000000000000000000000000000000000000000000000000
00000000000000000000000000000000000111111100000000000111111111100111011110000000000000000011111111000000111110000000000011110000000000000000011111111100000000000000000000000000000000000000000000000000
00000000000000000000000000000000001111111000000000000111111111100111011110000000000000000001111111100001111000000000000011111000000000000000011111110000000001110000000000000011000000000000000000000000
00000000000000000000000000000000011111111000000000000111111111000111111110000000000000000001111110000000111000000000000011111000000000000000011101100000000001110000000000000011000000000000000000000000
00000000000000000000000000000000011111111000000000000011111111000111111110000000000000000001111110000000111110000000000011111000000000000000011000110000000000000000000000000000000000000000000000000000
00000000000000000000000000000000111111111100000000000011111110000011111111000000000000000000111111110000111111000000000011111000000000000000001000110000000000000000000000000000000000000000000000000000
00000000000000000000000000000001111111111100000000011111111100000011111111000000000000000000111101110000011111000000000111111000000000000000001001111000000000000000000000000000000000000000000000000000
00000000000000000000000000000000011100111000000000111111111000000001111111000000000000000001111101110000011111100000000011111000000000000000000111111000000000000000000000000000000000000000000000000000
00000000000000000000000000000000001000111000000000111111110000000001111110000000000000000001111111110000111111110000000001110000000000000000000111111000000000000000000000000000000000000000000000000000
00000000000000000000000000000000000000111100000001111111100000000000111111001000000000000000111111110000111111110000000001110000000000000000001111111000000011100000000000000000000000000000000000000000
00000000000000000000000000000000000001111111000011111111000000000000111111111110000000000000111111110000000111111000000111110000000000000000001111111000000111100000000000000000000000000000000000000000
00000000000000000000000000000000001111111111100001111110000000000001111111111111110000001111111111110000000011111100001111110000000000000000001111111110001111000000000000000000000000000000000000000000
00000000000000000000000000000000001111111111111011111110000000000001110011111011111100011111111111110000000001111111111111100000000000000000001111111111011111000000000000000000000000000000000000000000
00000000000000000000000000000000000001111111111111111000000000000000000001110011111110111111111111110000000000111111111111000000000000000000001111111111111111100000000000000000000000000000000000000000
00000000000000000000000000000000000000100111111110000000000000000000000000000111111111111111111100110000111000001111100010000000000000000000001111111111111100000000000000000000000000000000000000000000
00000000000000000000000000000000000000000000000000000000000111000000000000000011111111111111111000000000111000000100000000000000000000000000011111111111110000000000000000000011000000000000000000000000
00000000000000000000000000000000000000000000000000000000000111000000000000000001110111100011111000000000000000000000000000000000000000000000001111111111000000000000000000000000000000000000000000000000
00000000000000000000000000000000000000000000000000000000000000000000000000000011100000000000000000000000000000000000000000000111000000000010011111111100000000000000000000000000000000000000000000000000
00000000000000000000000000000000000000000000000000000000000000000000000000001111100000000000000000000000000000000000000000000111000000011111111111111100000000000000000000000000000000000000000000000000
00000000000000000000000000000000000000000000001110000000000000000000000000001110000000000000000000000000000000000000000000000000011100111111111111001110000000000000000000000000000000000000000000000000
00000000000000000000000000000000000000000000001110000000000000000000000000000000000000000000000000000000000000000000000000000000011101111111111110001110000000000000000000000000000000000000000000000000
00000000000000000000000000000000000000000000000000000000000000000000000000000000000000000000000000000000000000000000000000000000000001111111110000000000000000000000000000000000000000000000000000000000
00000000000000000000000000000000000000000000000000000000000000000000000000000000000000000000000000000000000000000000000000000000000001111111000000000000000000000000000000000000000000000000000000000000
00000000000000000000000000000000000000000000000000000000000000000000000000000000000000000000000000000000000000000000000000000000000000111110000000000000000000000000000000000000000000000000000000000000
00000000000000000000000000000000000000000000000000000000000000000000000000000000000000000000000000000000000000000000000000000000000000111100000000000000000000000000000000000000000000000000000000000000
00000000000000000000000000000000000000000000000000000000000000000000000000000000000000000000000000000000000000000000000000000000000000110000000000000000000000000000000000000000000000000000000000000000
00000000000000000000000000000000000000000000000000000000000000000000000000000000000000000000000000000000000000000000000000000000000000000000000000000000000000000000000000000000000000000000000000000000
00000000000000000000000000000000000000000000000000000000000000000000000000000000000000000000000000000000000000000000000000000000000000000000000000000000000000000000000000000000000000000000000000000000
