P1
200 70
00000000000000000000000000000000000000000000000000000000000000000000000000000000000000000000000000000000000000000000000000000000000000000000000000000000000000000000000000000000000000000000000000000000
00000000000000000000000000000000000000000000000000000000000000000000000000000000000000000000000000000000000000000000000000000000000000000000000000000000000000000000000000000000000000000000000000000000
00000000000000000000000000000000000000000000000000000000000000000000000000000000000000000000000000000000000000000000000000000000000000000000000000000000000000000000000000000000000000000000000000000000
00000000000000000000000000000000000000000000000000000000000000000000000000000000000000000000000000000000000000000000000000000000000000000000000000000000000000000000000000000000000000000000000000000000
00000000000000000000000000000000000000000000000000000000000000000000000000000000000000000000000000000000000000000000000000000000000000000000000000000000000000000000000000000000000000000000000000000000
00000000000000000000000000000000000000000000000000000000000000000000000000000000000000000000000000000000000000000000000000000000000000000000000000000000000000000000000000000000000000000000000000000000
00000000000000000000000000000000000000000000000000000000000000000000000000000000000000000000000000000000000000000000000000000000000000000000000000000000000000000000000000000000000000000000000000000000
00000000000000000000000000000000000000000000000000000000000000000000000000000000000000000000000000000000000000000000000000000000000000000000000000000000000000000000000000000000000000000000000000000000
00000000000000000000000000000000000000000000000000000000000000000000000000000000000000000000000000000000000000000000000000000000000000000000000000000000000000000000000000000000000000000000000000000000
00000000000000000000000000000000000000000000000000000000000000000000000000000000000000000000000000000000000000000000000000000000000000000000000000000000000000000000000000000000000000000000000000000000
00000000000000000000000000000000000000000000000000000000000000000000000000000000000000000000000000000000000000000000000011100000000000000000000000000000000000000000000000000000000000000000000000000000
00000000000000000000000000000000000000000000000000000000000000000000000000000000000000000000000000000000000000000000000011100000000000000000000000000000000000000000000000000000000000000000000000000000
00000000000000000000000000000000000000000000000000000000000000000000000000000000000000000000000000000000000000000000000000000000000000000000000000000000000000000000000000000000000000000000000000000000
00000000000000000000000000000000000000000000000000000000000000000000000000000000000000000000000000000000000000000000000000011100000000000000000000000000000000000000000000000000000000000000000000000000
00000000000000000000000000000000000000001000000000000000000000000000000010001111111111100000000000000000000000000011100000011000000000000000000000000000000000000000000000000000000000000000000000000000
00000000000000000000000000000000000000011110000000000000000000000000011111111111111111111111111000000000000000000111110000001000000000000000000000000000000000000000000000000000000000000000000000000000
00000000000000000000000000000000000000111100000000111111100000000111111111111011111111111111111111000000001110011111111000000000000000000000000000000000000000000000000000000000000000000000000000000000
00000000000000000000000000000000000000111000000011111111100000111111111111110001111111111111111110011100011111111111111000000000000000000000000000000000000000000000011110000000000000000000000000000000
00000000000000000000000000000000000000000000000011111111000000111111110000000011111111111100111100111000111111111111111100000000000000000000000000000000000000000000011110000000000000000000000000000000
00000000000000000000000000011100000000000000001110111111011110001110000000000111111111111100000001111101111111110111111110001000000000000000000000000000000000000000111100000000000000000000000000000000
00000000000000000000000000011100000000000000001110111111111110000000000000111111111111011100000000001111111111110111111111111100000000000000000000000000000000000111111100000000000000000000000000000000
00000000000000000000000000000000000000000000011111111111111110000000000011111111111111011110000000000000011111111111111111111110000000000000000011111100000000001111111000000000000000000000000000000000
00000000000000000000000000000000000000000000111111111111111100000000000111111111111111111111110000000000001111111111111111111110000000000000001111111111110000011111110000000000000000000000000000000000
00000000000000000000000000000000000000000000111111111111111100000000000111111111101111111111110000000000001111111111111111111110000000000000011111111111111100111111000000000000000000000000000000000000
00000000000000000000000000000000000000000001111111111111111110000000001111111110000001111111111110000000001111111000011111111110000000000000011111111111111111111110000000000000000000000000000000000000
00000000000000000000000001110000000000000001111011110001111110000000011111111000000000111111111110000000011111110000000011111111100000000000011111111111111111011100000000000000000000000000000000000000
00000000000000000000000001110000000000000011111001000000111110000000111111100000000000011111111000000000111111100000000000011111110010001111111111111111111110001000000000000000000000000000000000000000
00000000000000000000000000000000000000000111111110000000111110000000111111100000100000011111110000000000111111100000000000001111111111011101111111111111111001111000000000000000000000000000000000000000
00000000000000000000000000000000000000000111111100000000111110000000111111000000111000011111110000000000011111100000000000001111111111111101111111111111110011111000000000000000000000000000000000000000
00000000000000000000000000000000000000001111111100000000111110000000111111000000000000011111110000000110011111000000000000001111100001111111111111100000001111111000000000000000000000000000000000000000
00000000000000000000000000000000000000011111111000000001111110000000111110000000000000011111100000000111111111000000000000001111000000000000011110000000001111111000000000000000000000000000000000000000
00000000000000000000000000000000000000111111111100000001111110000000111110000000000000011111100000000011111000000000000000001111000000000000001100000000000111111000000000000000000000000000000000000000
00000000000000000000000000000000000001111111111100000011111110000000001110000000000000011111100000000001110000000000000000001111100000000000000000000000000011111100000000000000000000000000000000000000
00000000000000000000000000000000000011111111111110001111111111000001001110000000000000111111100000000001111000000000000000001111100000000100000000000000000011111000000000011100000000000000000000000000
00000000000000000000000000000000000111111011111111111111111111000001111110000000000000111111100000000001111100000000000000011111100000011100000000000000001111111000000000011100000000000000000000000000
00000000000000000000000000000000001111100001111111111111111111000001111110000000000001111111100000000011110000000000000000011111100000000000000000000000011111111000000000000000000000000000000000000000
00000000000000000000000000000000011111000000111111111111111111000001111110000000000001111111100000000011110000000000000000001111000000000000000000000000011111111000000000000000000000000000000000000000
00000000000000000000000000000000100010000000111111111111111110000001111110000000000011111111111100000011111000000000000000001111000000000000000000000001111111110000000000000000000000000000000000000000
00000000000000000000000000000000000000000000010000011111111111000001111110000000000011111111011111000111111000000000000000111110000000000000000000011111111111100000000000000000000000000000000000000000
00000000000000000000000000000000000000000000000000001001111111000001111110000000000111111111000111000011111000000000000001111110000000000000000001111111111110000000000000000000000000000000000000000000
00000000000000000000000000000000000000000000000000000001111110000000111111000000011111111110000000000001111000000000000001111110000000000000000001110111111110000000000000000000000000000000000000000000
00000000000000000000000000000000000000000000000000000001111000000000111111111001111111111110011100000011111000000000000011111100000000001110000011100111111111000000000000000000000000000000000000000000
00000000000000000000000000000000000000000000000000000011111000000000011111111111111111111110010000000111111000000000000011111100000000001110000001101111111111110000000000000000000000000000000000000000
00000000000000000000000000000000000000000000000000000111111100000000011111111111111111111100000000111111110000000000000011111000001110000000000000000011001111110000000000000000000000000000000000000000
00000000000000000000000000000000000000000000000000001111111100000000001111110111111011110000000000111111110000000000000111110000001111110000000000000000000111111000000000000000000000000000000000000000
00000000000000000000000000000000000000001000000000111111111000000000000111100111110001110000000000001111110000000000000111110000000001110000000000000000011000111100000000000000000000000000000000000000
00000000000000000000000001110000000001111100000011111111110000000000000001111111000001111000000000000111100000000000001111100000000000000000000000000000011000011100000000000000000000000000000000000000
00000000000000000000000001110000000011111110011111111111000000000000000000000000000011111000000000000111110000000000001111100000000000000000000000000000010000000000000000000000000000000000000000000000
00000000000000000000000000000000000011111111111111111110000000000000000000000000000111110000000000000111110000000000011111100000000000000000000000000000010000000000000000000000000000000000000000000000
00000000000000000000000000000000000011111111111111111111100000000000001110000000001111110000000000000111110000000000111111000000000000000000000000000000011100011100000000000000000000000000000000000000
00000000000000000000000000000000000011111111111111111111110000000000001110000000001111100000000000000111111111000001111110000000000000000000000000000000011111111110000000000000000000000000000000000000
00000000000000000000000000000000000001111111111111111101110000000000000000000000011111100000000000000111111111000001111100000000000000001110000000000000011111111111000011100000000000000000000000000000
00000000000000000000000000000000000000111111111111100000000000000000000000000000111111000000000000000111111110000011111000000000000000011111000000000000001111111111000011100000000000000000000000000000
00000000000000000000000000000000000000000000011100000000000000000000000000000000111111000000000000000011111110001111111000000000000000011110000000000000000111111000000000000000000000000000000000000000
00000000000000000000000000000000000000000000000000000000000000000000000000000000111110000000000000000011111111111111110000000000000000011110001110000000000001110000000000000000000000000000000000000000
00000000000000000000000000000000000000000000000000000000000000000000000000001100111100000000000000000001111110111111000000000000000000011110001110000001110000000000000000000000000000000000000000000000
00000000000000000000000111000000000000000000000000000000111000000000001110011111111000000000000000000001111100111110000000000000000000011110000000000011111100000000000000000000000000000000000000000000
00000000000000000000000111000000000000000000000000000000111000000000000111111111110000000000000000000000000011111000000000000000000000011110000000000111111100000000000000000000000000000000000000000000
00000000000000000000000000000000000000000000000000000000000000000001000111111111100000000000000111000000000011100000000000000000000000011110000000111111100000000000000000000000000000000000000000000000
00000000000000000000000000000000000000000000000000000000000000000001111001111111000000000000000111000000000011100000000000000000000000001111001111111111000000000000000000000000000000000000000000000000
00000000000000000000000000000000000000000000000000000000000000000000111000111110000000000000000000000000000000000000000000000000000000001111111111111110000000000000000000000000000000000000000000000000
00000000000000000000000000000000000000000000000000000000000000000000011001111000000000000000000000000000000000000000000000000000000000111111111111110000000000000000000000000000000000000000000000000000
00000000000000000000000000000011100000000000100000000000000000000000000000000000011000000000000000000000000000000000000000000000000000111111111000000000000000000000000000000000000000000000000000000000
00000000000000000000000000000000000000000000111000000000000000000000000000000000011000000000000000000000000000000000000000000000000000111111000000000000000000000000000000000000000000000000000000000000
00000000000000000000000000000000000000000000000000000000000000000000000000000000000000000000000000000000000000000000000000000000000000000000000000000000000000000000000000000000000000000000000000000000
00000000000000000000000000000000000000000000000000000000000000000000000000000000000000000000000000000000000000000000000000000000000000000000000000000000000000000000000000000000000000000000000000000000
00000000000000000000000000000000000000000000000000000000000000000000000000000000000000000000000000000000000000000000000000000000000000000000000000000000000000000000000000000000000000000000000000000000
00000000000000000000000000000000000000000000000000000000000000000000000000000000000000000000000000000000000000000000000000000000000000000000000000000000000000000000000000000000000000000000000000000000
00000000000000000000000000000000000000000000000000000000000000000000000000000000000000000000000000000000000000000000000000000000000000000000000000000000000000000000000000000000000000000000000000000000
00000000000000000000000000000000000000000000000000000000000000000000000000000000000000000000000000000000000000000000000000000000000000000000000000000000000000000000000000000000000000000000000000000000
